<svg width="20" height="35" viewBox="0 0 20 35" fill="none" xmlns="http://www.w3.org/2000/svg">
<path d="M19.2352 0.770404C19.7249 1.26384 20 1.933 20 2.63072C20 3.32844 19.7249 3.9976 19.2352 4.49104L6.30514 17.5159L19.2352 30.5407C19.711 31.037 19.9743 31.7017 19.9684 32.3916C19.9624 33.0815 19.6877 33.7415 19.2034 34.2293C18.7191 34.7172 18.0639 34.9939 17.379 34.9999C16.6941 35.0059 16.0343 34.7407 15.5416 34.2614L0.764798 19.3762C0.275098 18.8828 1.11121e-06 18.2136 1.1417e-06 17.5159C1.1722e-06 16.8182 0.275098 16.149 0.764798 15.6556L15.5416 0.770404C16.0315 0.277114 16.6958 -1.44432e-07 17.3884 -1.14156e-07C18.0811 -8.38792e-08 18.7454 0.277115 19.2352 0.770404Z" fill="#C0BEBE"/>
</svg>
