<svg width="60" height="60" viewBox="0 0 60 60" fill="none" xmlns="http://www.w3.org/2000/svg">
<path d="M21.6883 18.5503C21.2476 18.9027 21 19.3807 21 19.8791C21 20.3775 21.2476 20.8554 21.6883 21.2079L33.3254 30.5113L21.6883 39.8148C21.2601 40.1693 21.0231 40.644 21.0285 41.1368C21.0338 41.6296 21.2811 42.101 21.717 42.4495C22.1528 42.798 22.7425 42.9956 23.3589 42.9999C23.9753 43.0042 24.5691 42.8148 25.0125 42.4724L38.3117 31.8401C38.7524 31.4877 39 31.0097 39 30.5113C39 30.013 38.7524 29.535 38.3117 29.1825L25.0125 18.5503C24.5717 18.1979 23.9738 18 23.3504 18C22.727 18 22.1292 18.1979 21.6883 18.5503Z" fill="#222222"/>
<path fill-rule="evenodd" clip-rule="evenodd" d="M48.945 49.945C59.685 39.205 59.685 21.795 48.945 11.055C38.205 0.315 20.795 0.315 10.055 11.055C-0.685 21.795 -0.685 39.205 10.055 49.945C20.795 60.685 38.205 60.685 48.945 49.945ZM45.41 46.41C47.4993 44.3207 49.1567 41.8403 50.2874 39.1104C51.4182 36.3806 52.0001 33.4548 52.0001 30.5C52.0001 27.5452 51.4182 24.6194 50.2874 21.8896C49.1567 19.1597 47.4993 16.6793 45.41 14.59C43.3207 12.5007 40.8403 10.8433 38.1104 9.71258C35.3806 8.58184 32.4548 7.99986 29.5 7.99986C26.5452 7.99986 23.6194 8.58185 20.8896 9.71258C18.1597 10.8433 15.6793 12.5007 13.59 14.59C9.37041 18.8096 6.99986 24.5326 6.99986 30.5C6.99986 36.4674 9.37041 42.1904 13.59 46.41C17.8096 50.6296 23.5326 53.0001 29.5 53.0001C35.4674 53.0001 41.1904 50.6296 45.41 46.41Z" fill="#222222"/>
</svg>
