<svg width="60" height="60" viewBox="0 0 60 60" fill="none" xmlns="http://www.w3.org/2000/svg">
<path d="M38.3117 18.5503C38.7524 18.9027 39 19.3807 39 19.8791C39 20.3775 38.7524 20.8554 38.3117 21.2079L26.6746 30.5113L38.3117 39.8148C38.7399 40.1693 38.9769 40.644 38.9715 41.1368C38.9662 41.6296 38.7189 42.101 38.283 42.4495C37.8472 42.798 37.2575 42.9956 36.6411 42.9999C36.0247 43.0042 35.4309 42.8148 34.9875 42.4724L21.6883 31.8401C21.2476 31.4877 21 31.0097 21 30.5113C21 30.013 21.2476 29.535 21.6883 29.1825L34.9875 18.5503C35.4283 18.1979 36.0262 18 36.6496 18C37.273 18 37.8708 18.1979 38.3117 18.5503Z" fill="#222222"/>
<path fill-rule="evenodd" clip-rule="evenodd" d="M11.055 49.945C0.314999 39.205 0.314999 21.795 11.055 11.055C21.795 0.315 39.205 0.315 49.945 11.055C60.685 21.795 60.685 39.205 49.945 49.945C39.205 60.685 21.795 60.685 11.055 49.945ZM14.59 46.41C12.5007 44.3207 10.8433 41.8403 9.71259 39.1104C8.58185 36.3806 7.99986 33.4548 7.99986 30.5C7.99986 27.5452 8.58185 24.6194 9.71259 21.8896C10.8433 19.1597 12.5007 16.6793 14.59 14.59C16.6793 12.5007 19.1597 10.8433 21.8896 9.71258C24.6194 8.58184 27.5452 7.99986 30.5 7.99986C33.4548 7.99986 36.3806 8.58185 39.1104 9.71258C41.8403 10.8433 44.3207 12.5007 46.41 14.59C50.6296 18.8096 53.0001 24.5326 53.0001 30.5C53.0001 36.4674 50.6296 42.1904 46.41 46.41C42.1904 50.6296 36.4674 53.0001 30.5 53.0001C24.5326 53.0001 18.8096 50.6296 14.59 46.41Z" fill="#222222"/>
</svg>
