<svg width="125" height="90" viewBox="0 0 125 90" fill="none" xmlns="http://www.w3.org/2000/svg">
<rect x="0.5" y="0.5" width="124" height="89" rx="9.5" stroke="#C0BEBE"/>
<path d="M42.0095 26.5679C41.8878 26.5001 41.7409 26.4662 41.6052 26.5119C41.5632 26.531 41.5213 26.5487 41.4793 26.5679C41.4332 26.5973 41.3926 26.6341 41.3576 26.6754C41.2359 26.8403 41.0961 26.9862 40.9422 27.1173C40.8107 27.2159 40.6708 27.3014 40.5239 27.3721C40.419 27.4148 40.3113 27.4531 40.2008 27.4811C39.9337 27.5488 39.749 27.8832 39.8343 28.1601C39.9239 28.4517 40.1938 28.6196 40.4792 28.546C40.8009 28.4635 41.1184 28.3206 41.3954 28.1277C41.7129 27.9067 41.9675 27.6416 42.1969 27.3235C42.2738 27.2174 42.2822 27.02 42.2501 26.8978C42.2165 26.7696 42.1228 26.6312 42.0095 26.5679Z" fill="#222222"/>
<path d="M88.5458 36.8681C88.4115 36.8357 88.2605 36.843 88.1416 36.924C88.0255 37.0021 87.9387 37.1126 87.901 37.254C87.8129 37.581 87.7233 37.908 87.6352 38.2335C87.5974 38.3705 87.6198 38.5369 87.6884 38.6592C87.7527 38.774 87.8772 38.883 88.0017 38.9125C88.136 38.9449 88.287 38.9375 88.4059 38.8565C88.522 38.7785 88.6088 38.668 88.6465 38.5266C88.7347 38.1996 88.8242 37.8726 88.9123 37.5471C88.9501 37.4101 88.9277 37.2437 88.8591 37.1214C88.7948 37.0065 88.6703 36.8975 88.5458 36.8681Z" fill="#222222"/>
<path d="M50.4903 37.8535C50.4777 37.8844 50.4987 37.958 50.5015 37.9345C50.4987 37.9139 50.4917 37.8785 50.4917 37.8594C50.4917 37.8579 50.4917 37.8549 50.4917 37.8535H50.4903Z" fill="#222222"/>
<path d="M46.1932 43.9941C46.2142 43.9912 46.2464 43.9838 46.266 43.9838C46.266 43.9838 46.2688 43.9838 46.2702 43.9838C46.1988 43.9676 46.1625 43.9926 46.1946 43.9941H46.1932Z" fill="#222222"/>
<path d="M46.6632 37.5515C46.6632 37.5515 46.6618 37.5486 46.6604 37.5471C46.6478 37.5353 46.6339 37.5191 46.6213 37.5014C46.6157 37.5029 46.6269 37.5265 46.6632 37.5515Z" fill="#222222"/>
<path d="M44.6406 37.2127C44.6406 37.2127 44.635 37.2172 44.6322 37.2186C44.6308 37.2201 44.628 37.223 44.6266 37.2245C44.6406 37.2142 44.6602 37.201 44.67 37.1921C44.6602 37.1995 44.6504 37.2068 44.6406 37.2127Z" fill="#222222"/>
<path d="M46.6828 39.5311C46.701 39.5046 46.7122 39.4663 46.6828 39.5311V39.5311Z" fill="#222222"/>
<path d="M47.5655 36.3967C46.8143 35.5336 45.5904 35.1771 44.5413 35.6117C43.3467 36.1051 42.5466 37.3983 42.6585 38.7623C42.7634 40.054 43.5915 41.1573 44.7889 41.5093C45.9848 41.8613 47.2186 41.3207 47.904 40.2529C48.2467 39.7182 48.4215 39.0215 48.3726 38.3793C48.3166 37.6281 48.0382 36.9623 47.5669 36.3967H47.5655ZM46.3457 37.1921C46.3289 37.1789 46.3079 37.1641 46.2996 37.1627C46.3107 37.1627 46.3275 37.1759 46.3457 37.1921ZM46.0268 37.0051C46.1107 37.0345 46.0268 37.0124 45.9932 36.9933C46.0044 36.9977 46.0156 37.0021 46.0268 37.0051ZM45.6883 36.9064C45.8114 36.9152 45.6981 36.9255 45.6575 36.9034C45.6673 36.9034 45.6771 36.9049 45.6883 36.9064ZM44.0559 38.777C44.0601 38.7991 44.0629 38.8212 44.0629 38.8197C44.0587 38.8153 44.0573 38.7961 44.0559 38.777ZM44.3343 39.4987C44.3343 39.4987 44.3426 39.509 44.3524 39.5223C44.3412 39.509 44.3329 39.4987 44.3343 39.4987ZM46.8493 39.2365C46.8493 39.2365 46.8521 39.2277 46.8577 39.2159C46.8535 39.2277 46.8493 39.238 46.8493 39.2365ZM46.9724 38.7608C46.9654 38.8963 46.9542 38.7785 46.9724 38.7402C46.9724 38.7475 46.9724 38.7549 46.9724 38.7608ZM46.9766 38.6886C46.9766 38.7048 46.9752 38.7225 46.9738 38.7387C46.9458 38.7844 46.9346 38.9626 46.922 39.0097C46.908 39.0642 46.8898 39.1158 46.8731 39.1688C46.8731 39.1703 46.8689 39.182 46.8647 39.1953C46.8199 39.2881 46.7751 39.3794 46.7206 39.4678C46.7038 39.4943 46.6395 39.6269 46.6814 39.5341C46.6814 39.5341 46.6814 39.5326 46.6828 39.5311C46.6814 39.5326 46.68 39.5356 46.6786 39.537C46.652 39.568 46.6269 39.6004 46.6003 39.6313C46.5401 39.7005 46.473 39.7609 46.4073 39.8257C46.3891 39.8405 46.3681 39.8596 46.3555 39.8684C46.3093 39.9023 46.2604 39.9332 46.2114 39.9642C46.1639 39.9922 46.1149 40.0187 46.066 40.0437C46.0632 40.0437 46.0618 40.0437 46.059 40.0452C45.9582 40.0791 45.8589 40.1115 45.7554 40.1336C45.7316 40.1262 45.6477 40.1439 45.6281 40.1453C45.5764 40.1468 45.5246 40.1468 45.4729 40.1453C45.4421 40.1453 45.3652 40.1247 45.3302 40.1321C45.2798 40.1218 45.2295 40.11 45.1805 40.0953C45.1386 40.0835 45.0952 40.0702 45.0532 40.0555C45.0322 40.0481 45.0113 40.0393 44.9903 40.0319C44.9189 39.9951 44.849 39.9598 44.7805 39.917C44.7357 39.8891 44.6923 39.8596 44.6504 39.8287C44.6434 39.8228 44.6364 39.8184 44.6294 39.8125C44.5623 39.7418 44.4881 39.6799 44.4238 39.6063C44.4196 39.6004 44.3846 39.5606 44.3608 39.5311C44.344 39.5061 44.3273 39.4825 44.3119 39.4575C44.2615 39.3779 44.2168 39.294 44.1762 39.2086C44.1706 39.1968 44.165 39.1865 44.1594 39.1747C44.1594 39.1703 44.158 39.1673 44.1566 39.1629C44.1412 39.0981 44.116 39.0348 44.0993 38.9685C44.0825 38.9022 44.0727 38.8359 44.0587 38.7696C44.0587 38.7667 44.0587 38.7652 44.0573 38.7623C44.0573 38.749 44.0573 38.7387 44.0573 38.7343C44.0475 38.5973 44.0587 38.4633 44.0601 38.3263C44.0601 38.3204 44.0601 38.316 44.0601 38.313C44.0615 38.3057 44.0643 38.2968 44.0657 38.2909C44.0755 38.2335 44.0881 38.176 44.1007 38.1201C44.116 38.0538 44.1356 37.989 44.1566 37.9242C44.1636 37.9021 44.172 37.8814 44.179 37.8594C44.2363 37.7533 44.2853 37.6458 44.3496 37.5441C44.3636 37.5235 44.3776 37.5029 44.3916 37.4823C44.435 37.4116 44.3538 37.5353 44.3538 37.5309C44.3608 37.4867 44.4462 37.4175 44.4769 37.3821C44.4881 37.3703 44.572 37.2805 44.628 37.2275C44.6098 37.2393 44.6028 37.2437 44.6336 37.2216C44.6574 37.1995 44.6756 37.1833 44.677 37.1862C44.677 37.1862 44.6756 37.1906 44.67 37.1936C44.6784 37.1877 44.6867 37.1803 44.6965 37.1744C44.7385 37.1435 44.7833 37.1155 44.8266 37.089C44.8756 37.0596 44.9273 37.033 44.9777 37.0065C44.9833 37.0051 44.9875 37.0036 44.9931 37.0006C45.0952 36.9653 45.1973 36.9329 45.3022 36.9123C45.3064 36.9123 45.312 36.9108 45.3162 36.9093C45.368 36.9093 45.4225 36.9005 45.4757 36.9005C45.5246 36.9005 45.575 36.9005 45.6239 36.9034C45.6351 36.9034 45.6449 36.9049 45.6561 36.9064C45.7163 36.9491 45.8729 36.9535 45.9429 36.9771C45.9568 36.9815 45.9722 36.9874 45.9862 36.9933C46.0114 37.0139 46.0995 37.0463 46.1191 37.0566C46.1723 37.0861 46.224 37.1185 46.273 37.1523C46.2926 37.1656 46.3107 37.1789 46.3289 37.1921C46.3569 37.2113 46.3639 37.2142 46.3625 37.2098C46.3947 37.2407 46.4254 37.279 46.4394 37.2923C46.4856 37.3394 46.5304 37.388 46.5737 37.4381C46.5863 37.4543 46.6017 37.4779 46.6185 37.5014C46.6227 37.5014 46.6339 37.5088 46.6492 37.5338C46.652 37.5383 46.6548 37.5427 46.6576 37.5471C46.6618 37.5515 46.666 37.5559 46.6702 37.5589C46.666 37.5559 46.6632 37.5545 46.6604 37.5515C46.6702 37.5662 46.68 37.5824 46.6898 37.5972C46.7514 37.6959 46.7989 37.799 46.8521 37.9035C46.8521 37.9065 46.8549 37.9094 46.8563 37.9124C46.8731 37.958 46.887 38.0052 46.901 38.0523C46.929 38.1495 46.9458 38.2467 46.9668 38.3439C46.9682 38.3602 46.971 38.3749 46.971 38.3778C46.9738 38.4338 46.978 38.4898 46.978 38.5457C46.978 38.5929 46.978 38.6415 46.9752 38.6886H46.9766Z" fill="#222222"/>
<path d="M91.1322 34.5187C90.4734 32.5362 89.0955 30.9218 87.5611 29.6257C85.9776 28.2882 84.1522 27.2351 82.1589 26.7682C81.149 26.5325 80.1153 26.478 79.0844 26.4515C78.1192 26.4279 77.1387 26.4338 76.1889 26.2364C75.3133 26.0538 74.5593 25.6797 73.8166 25.1686C73.1409 24.7016 72.5493 24.2126 71.9408 23.7089C70.7476 22.7191 69.553 21.7293 68.3221 20.7925C67.6563 20.2858 66.9541 19.8719 66.1736 19.5935C66.0994 19.567 66.0211 19.5567 65.9386 19.5596C65.8476 19.4801 65.7078 19.4595 65.4896 19.6289C65.4896 19.6289 65.3371 19.7143 65.1511 19.9205C64.9454 20.1032 64.7902 20.3285 64.7496 20.5436C64.5034 21.09 64.3509 21.9163 64.6069 23.1212C64.6615 23.3804 64.7202 23.5587 64.7818 23.6706C64.7818 23.6735 64.7818 23.675 64.7818 23.678C64.8 23.6853 64.8097 23.7369 64.786 23.728L64.7958 23.7531C64.8195 23.7619 64.8419 23.7722 64.8657 23.7825C64.8937 23.8061 64.9216 23.8179 64.9496 23.8179C65.3581 23.9976 65.6546 24.2126 66.0505 24.4689C66.5456 24.7886 67.0212 25.1406 67.4842 25.5088C67.529 25.5442 67.5752 25.581 67.6199 25.6178C67.6059 25.6075 67.6787 25.6649 67.7052 25.687C67.8255 25.7857 67.9444 25.8859 68.0633 25.9875C68.2913 26.1819 68.5179 26.3793 68.7417 26.5796C68.9222 26.7402 69.1012 26.9037 69.2789 27.0687C66.6268 27.0672 63.9747 27.0539 61.324 26.9582C59.7909 26.9037 58.2578 26.8197 56.7275 26.6931C56.0211 26.6341 55.3162 26.5664 54.6112 26.4883C54.6182 26.4353 54.5762 26.5458 54.5832 26.4927C54.5007 26.4839 54.4181 26.4751 54.3356 26.4677C54.081 26.4294 53.8292 26.3896 53.5761 26.3484C53.5761 26.3513 53.5761 26.3558 53.5761 26.3646C53.5691 26.3646 53.5635 26.3631 53.5565 26.3616C53.5607 26.3587 53.5663 26.3513 53.5705 26.3469C53.5649 26.3469 53.5579 26.3454 53.5523 26.344C53.5509 26.3543 53.5523 26.3587 53.5523 26.3616C53.4865 26.3543 53.4222 26.3469 53.3564 26.3381C53.1676 26.313 52.9788 26.288 52.7899 26.263C52.755 26.2585 52.6473 26.2423 52.6277 26.2394C52.5354 26.2261 52.4416 26.2129 52.3493 26.1981C51.0317 26.0037 49.7196 25.7651 48.4173 25.4852C48.4341 25.469 48.4537 25.4514 48.4173 25.4852C47.8508 25.3777 47.613 25.1244 47.0591 25.0139C46.5122 24.8254 42.4501 24.304 40.412 24.7503C39.5056 24.9491 38.6384 25.2584 37.7348 25.307C36.8787 25.3527 35.9975 25.1848 35.1568 25.4175C34.1357 25.7003 33.5776 26.5944 33.509 27.6726C33.4726 28.247 33.5552 28.8332 33.5999 29.4047C33.6489 30.0337 33.6992 30.6611 33.7482 31.2901C33.8419 32.4876 33.9245 33.6865 34.035 34.8826C34.1343 35.9652 34.27 37.0654 34.656 38.0818C35.1946 39.4973 36.1331 40.6358 37.5445 41.0939C38.2243 41.3149 38.9475 41.3885 39.6609 41.4106C39.9393 42.0734 40.3155 42.692 40.7911 43.2415C41.6248 44.2077 42.7424 44.9191 43.9384 45.2623C45.1455 45.6085 46.473 45.5864 47.6522 45.1312C48.9684 44.6245 50.0875 43.6745 50.8638 42.4475C51.068 42.125 51.2401 41.7862 51.3856 41.4371C53.9733 41.4371 56.5611 41.4386 59.1488 41.4371C61.9324 41.4371 64.716 41.4327 67.4996 41.4224C68.925 41.4165 70.3504 41.4091 71.7757 41.3988C72.0541 42.066 72.4332 42.6862 72.9101 43.24C73.7438 44.2062 74.8615 44.9176 76.0574 45.2608C77.2646 45.607 78.592 45.5849 79.7712 45.1298C81.0875 44.6231 82.2065 43.673 82.9828 42.4461C83.194 42.1117 83.3731 41.7597 83.5214 41.3944C85.144 41.3944 86.7666 41.3944 88.3892 41.3944C88.6619 41.3944 88.9389 41.4091 89.2116 41.3944C89.8873 41.359 90.4678 40.5313 90.7699 39.9598C91.6232 38.3469 91.7071 36.2435 91.1336 34.5173L91.1322 34.5187ZM85.6056 31.2253C85.6237 31.1958 85.6419 31.1663 85.6615 31.1369C85.6489 31.156 85.6028 31.2046 85.6713 31.1236C85.7161 31.0721 85.7622 31.022 85.8112 30.9734C85.8154 30.969 85.828 30.9587 85.8378 30.9513C85.8657 30.9307 85.8937 30.9115 85.9217 30.8939C85.9455 30.8791 85.972 30.8688 85.9944 30.8526C85.9986 30.8526 86.0014 30.8511 86.007 30.8497C86.0812 30.829 86.1539 30.8084 86.2266 30.7893C86.2336 30.7878 86.2378 30.7863 86.2434 30.7849C86.2868 30.7804 86.3287 30.776 86.3721 30.7731C86.4462 30.7687 86.519 30.7701 86.5931 30.7731C86.6253 30.7746 86.6589 30.7775 86.691 30.7804C86.6966 30.7804 86.698 30.7804 86.7008 30.7804C86.7442 30.8187 86.7889 30.8556 86.8323 30.8939C87.901 31.838 88.9487 32.9604 89.5488 34.3111C88.4297 34.3552 87.3778 34.0312 86.4378 33.3448C86.2182 33.1843 86.0084 33.0016 85.7972 32.7439C85.7748 32.7159 85.751 32.6879 85.7301 32.6584C85.7259 32.6511 85.7203 32.6422 85.7119 32.6304C85.6727 32.5671 85.6321 32.5038 85.5972 32.439C85.579 32.4066 85.5636 32.3727 85.5468 32.3388C85.544 32.3329 85.5328 32.3064 85.5258 32.2931C85.4965 32.2136 85.4727 32.1296 85.4545 32.0457C85.4475 32.0133 85.4405 31.9779 85.4363 31.9455C85.4363 31.9382 85.4363 31.9279 85.4363 31.9161C85.4363 31.8439 85.4363 31.7732 85.4391 31.7025C85.4391 31.6981 85.4391 31.6922 85.4419 31.6863C85.4475 31.6524 85.4545 31.62 85.4629 31.5861C85.4713 31.5523 85.4797 31.5169 85.4909 31.483C85.4923 31.4757 85.5076 31.4315 85.5174 31.405C85.53 31.3799 85.558 31.3136 85.5552 31.3195C85.5706 31.2886 85.5874 31.2577 85.6056 31.2267V31.2253ZM85.7329 32.6614C85.7454 32.6791 85.7566 32.6997 85.7329 32.6614V32.6614ZM85.4433 31.6804C85.4475 31.6524 85.4545 31.6185 85.4433 31.6804V31.6804ZM35.333 33.959C35.2267 32.766 35.1554 31.567 35.0701 30.3739C35.3554 30.3518 35.6464 30.3327 35.9303 30.3739C36.0059 30.3842 36.1891 30.4328 36.3024 30.4755C36.3611 30.4991 36.3667 30.5021 36.322 30.4829C36.3528 30.4991 36.3849 30.5153 36.4143 30.533C36.4605 30.5595 36.5038 30.589 36.5472 30.6184C36.5794 30.6405 36.7011 30.7672 36.7192 30.7981C36.729 30.8158 36.785 30.9336 36.7864 30.9292C36.7976 30.966 36.8088 31.0014 36.8172 31.0397C36.8241 31.0809 36.8283 31.1001 36.8283 31.1015C36.8633 31.4153 36.7836 31.6701 36.7025 31.9868C36.5542 32.5656 36.4087 33.1681 36.0674 33.5643C36.0282 33.6099 35.9835 33.6512 35.9415 33.6954C35.9191 33.7145 35.9065 33.7248 35.9037 33.7293C35.8842 33.744 35.8646 33.7587 35.845 33.772C35.7876 33.8117 35.7275 33.8441 35.6673 33.878C35.6562 33.8839 35.6492 33.8869 35.6422 33.8898C35.6142 33.9001 35.5862 33.9119 35.5568 33.9207C35.5037 33.9384 35.4491 33.9517 35.3946 33.962C35.4002 33.959 35.3666 33.959 35.3302 33.962L35.333 33.959ZM44.9455 43.9838C44.8574 43.9735 44.9189 43.9794 44.9651 43.9853C44.9581 43.9853 44.9525 43.9853 44.9455 43.9838ZM47.413 43.6568C47.413 43.6568 47.4508 43.6436 47.4745 43.6333C47.4508 43.6465 47.427 43.6598 47.413 43.6568ZM50.5253 39.0568C50.5211 39.1217 50.5169 39.185 50.5099 39.2483C50.5057 39.2881 50.5015 39.3279 50.4973 39.3676C50.4973 39.3676 50.4973 39.3676 50.4973 39.3691C50.4428 39.6593 50.3966 39.948 50.3155 40.2323C50.2959 40.3015 50.2721 40.3692 50.2497 40.437C50.2413 40.4591 50.2344 40.4812 50.2288 40.5033C50.2162 40.5416 50.205 40.5813 50.191 40.6211C50.184 40.6417 50.17 40.7036 50.1518 40.7537C50.1532 40.7419 50.1476 40.7434 50.1308 40.7817C50.1113 40.8258 50.0931 40.87 50.0735 40.9142C49.9518 41.1867 49.8105 41.4504 49.6511 41.7022C49.6119 41.7641 49.5713 41.8245 49.5308 41.8849C49.5126 41.9114 49.493 41.9379 49.4748 41.9644C49.4119 42.0557 49.4692 41.9777 49.4916 41.9453C49.4189 42.0793 49.2874 42.2045 49.1895 42.3165C48.9908 42.5433 48.7754 42.7539 48.5474 42.9483C48.5404 42.9542 48.4439 43.0308 48.4747 43.0073C48.4621 43.0161 48.4523 43.0235 48.4509 43.0249C48.3977 43.0662 48.3432 43.1059 48.2886 43.1442C48.1613 43.2356 48.0299 43.3195 47.897 43.3991C47.7725 43.4727 47.6466 43.5405 47.5165 43.6038C47.5081 43.6082 47.4955 43.6156 47.4829 43.6229C47.4759 43.6259 47.4647 43.6303 47.448 43.6377C47.3766 43.6671 47.3039 43.6966 47.2311 43.7246C46.9738 43.8218 46.7094 43.8969 46.4408 43.9514C46.3821 43.9632 46.3247 43.972 46.266 43.9823C46.2674 43.9823 46.2702 43.9823 46.2716 43.9823C46.2688 43.9823 46.266 43.9823 46.2618 43.9823C46.2478 43.9853 46.2324 43.9882 46.2184 43.9897C46.2044 43.9926 46.196 43.9926 46.189 43.9912C46.1862 43.9912 46.1835 43.9912 46.1821 43.9912C46.0338 44.0074 45.8855 44.0177 45.7372 44.0206C45.4827 44.0265 45.2295 44.0103 44.9763 43.9823C44.9483 43.975 44.9134 43.9735 44.8868 43.9691C44.821 43.9573 44.7567 43.9455 44.6909 43.9323C44.5539 43.9028 44.4182 43.8689 44.2825 43.8291C44.1622 43.7938 44.0419 43.7555 43.9244 43.7113C43.8545 43.6863 43.7859 43.6598 43.7174 43.6303C43.6922 43.62 43.667 43.6097 43.6432 43.5994C43.6432 43.5994 43.6418 43.5994 43.6405 43.5979C43.3985 43.4801 43.1621 43.3549 42.9355 43.209C42.8222 43.1354 42.7103 43.0588 42.6025 42.9778C42.555 42.9424 42.5102 42.9056 42.4641 42.8703C42.4347 42.8438 42.4039 42.8187 42.3745 42.7937C42.1633 42.6081 41.9633 42.4078 41.7787 42.1927C41.7493 42.1588 41.5031 41.8908 41.5171 41.8687C41.5171 41.8687 41.622 42.0174 41.5437 41.9055C41.5255 41.8805 41.5073 41.8554 41.4905 41.8289C41.4457 41.7641 41.4024 41.6993 41.3618 41.6345C41.201 41.3826 41.0583 41.116 40.9366 40.8406C40.9254 40.8155 40.8918 40.733 40.8848 40.7168C40.8611 40.6535 40.8373 40.5902 40.8149 40.5268C40.7547 40.3516 40.7016 40.1719 40.6568 39.9907C40.6149 39.8184 40.5799 39.6445 40.5505 39.4707C40.5449 39.4324 40.5379 39.3927 40.5323 39.3544C40.5295 39.3338 40.5267 39.3205 40.5253 39.3117C40.5128 39.2262 40.51 39.1349 40.5044 39.051C40.4792 38.6857 40.4834 38.3189 40.517 37.9536C40.5211 37.9139 40.5253 37.8756 40.5281 37.8358C40.5309 37.8122 40.5323 37.7975 40.5323 37.7887C40.5407 37.7224 40.5533 37.6561 40.5645 37.5913C40.5967 37.4057 40.6358 37.2231 40.682 37.0419C40.7268 36.871 40.7771 36.7002 40.8345 36.5337C40.8597 36.4601 40.8876 36.3864 40.9142 36.3128C40.9142 36.3098 40.9156 36.3069 40.917 36.3039C40.917 36.3025 40.9184 36.301 40.9198 36.298C40.9436 36.245 40.966 36.1905 40.9897 36.1375C41.131 35.8252 41.2975 35.5248 41.4863 35.2405C41.5227 35.1845 41.5618 35.13 41.5996 35.0755C41.601 35.074 41.6024 35.0726 41.6038 35.0696C41.6248 35.0416 41.6458 35.0136 41.6668 34.9871C41.7563 34.8722 41.8486 34.7618 41.9465 34.6528C42.1368 34.4407 42.3438 34.2507 42.5564 34.0651C42.5802 34.0474 42.6025 34.0283 42.6263 34.0106C42.6809 33.9693 42.7354 33.9296 42.7914 33.8898C42.9075 33.8073 43.0278 33.7307 43.1495 33.6586C43.2642 33.5908 43.3803 33.5275 43.4992 33.4685C43.523 33.4568 43.5537 33.4465 43.5845 33.4347C43.5733 33.4494 43.6013 33.4479 43.6558 33.3949C43.6558 33.3949 43.6558 33.3949 43.6544 33.3949C43.6544 33.3949 43.6572 33.3934 43.6586 33.392C43.6586 33.392 43.6572 33.3934 43.6558 33.3949C43.681 33.3846 43.7062 33.3728 43.7328 33.364C43.9874 33.2623 44.2503 33.1798 44.5161 33.1195C44.6308 33.0929 44.7455 33.0767 44.8602 33.0532C44.8812 33.0502 44.9008 33.0488 44.9217 33.0458C44.9931 33.0384 45.063 33.0311 45.1344 33.0267C45.3973 33.009 45.6617 33.0119 45.9247 33.034C45.975 33.0384 46.024 33.0443 46.0729 33.0502C46.0674 33.0488 46.0646 33.0473 46.0576 33.0458C46.0674 33.0488 46.0785 33.0502 46.0883 33.0517C46.0827 33.0517 46.0771 33.0517 46.0715 33.0502C46.1876 33.0841 46.1765 33.0679 46.1387 33.0591C46.1387 33.0591 46.1415 33.0591 46.1429 33.0591C46.2856 33.0826 46.4268 33.1121 46.5653 33.1489C46.8087 33.2108 47.0437 33.2933 47.2773 33.3875C47.3011 33.4052 47.3458 33.417 47.3682 33.4273C47.4284 33.4568 47.4885 33.4862 47.5487 33.5172C47.676 33.5834 47.8005 33.6556 47.9221 33.7322C48.0327 33.8014 48.1418 33.8765 48.2467 33.9531C48.2928 33.987 48.4033 34.0459 48.4327 34.096C48.4271 34.0857 48.3026 33.987 48.4019 34.071C48.4383 34.1019 48.4747 34.1328 48.511 34.1638C48.732 34.3582 48.9377 34.5703 49.1307 34.7957C49.1867 34.8619 49.2426 34.9282 49.2958 34.9974C49.3307 35.0416 49.43 35.211 49.3419 35.0549C49.4203 35.1948 49.528 35.3215 49.6133 35.4585C49.7769 35.7207 49.9224 35.9961 50.0497 36.2804C50.0637 36.3113 50.0763 36.3408 50.0889 36.3717C50.0903 36.3761 50.1015 36.4012 50.1113 36.4232C50.1155 36.4336 50.1196 36.4424 50.121 36.4483C50.135 36.4866 50.1504 36.5249 50.1644 36.5647C50.2148 36.7031 50.2595 36.8445 50.3001 36.9874C50.3812 37.2702 50.4386 37.5574 50.4847 37.849C50.4847 37.849 50.4847 37.8461 50.4861 37.8446C50.4861 37.8446 50.4861 37.8505 50.4861 37.8564C50.4889 37.8697 50.4903 37.8829 50.4931 37.8962C50.4959 37.9153 50.4973 37.9256 50.4959 37.9315C50.4959 37.9345 50.4959 37.9404 50.4973 37.9418C50.5043 38.014 50.5113 38.0862 50.5169 38.1598C50.5281 38.313 50.5337 38.4662 50.5337 38.6194C50.5337 38.7637 50.5295 38.9096 50.5211 39.0539L50.5253 39.0568ZM43.5859 33.4376C43.5915 33.4302 43.6055 33.4185 43.6321 33.4082C43.6391 33.4052 43.6474 33.4023 43.6544 33.3993C43.6363 33.4155 43.6125 33.4273 43.5859 33.4376ZM46.0925 33.0546C46.1009 33.0546 46.1107 33.0561 46.1191 33.0576C46.1275 33.0576 46.1345 33.0605 46.1429 33.062C46.1275 33.0591 46.1093 33.0576 46.0925 33.0546ZM47.2969 33.3964C47.2969 33.3964 47.3095 33.4008 47.3165 33.4037C47.4018 33.4391 47.3375 33.414 47.2969 33.3964ZM55.526 39.9642C54.288 39.9642 53.0501 39.9642 51.8122 39.9642C52.1353 38.1495 51.7786 36.2067 50.7869 34.6557C50.5868 34.342 50.3644 34.043 50.1252 33.7602C49.2692 32.763 48.1278 32.0177 46.8786 31.7172C45.6995 31.4329 44.4308 31.5051 43.3019 31.9735C42.0514 32.492 41.0135 33.3787 40.254 34.5438C39.3923 35.8665 38.9839 37.5486 39.114 39.1452C39.1349 39.4059 39.1699 39.6637 39.2175 39.9185C38.8342 39.8905 38.4663 39.8346 38.0705 39.7226C37.939 39.6858 37.8103 39.6431 37.683 39.593C37.6564 39.5827 37.6117 39.5621 37.5935 39.5532C37.5473 39.5311 37.5012 39.509 37.4564 39.484C37.3529 39.428 37.2536 39.3662 37.1571 39.2984C37.1137 39.2675 37.0717 39.2351 37.0298 39.2041C37.1543 39.2969 37.0186 39.1924 36.9738 39.1511C36.8983 39.0804 36.8255 39.0068 36.757 38.9302C36.7164 38.8845 36.6773 38.8389 36.6395 38.7917C36.6171 38.7637 36.585 38.721 36.5724 38.7063C36.4143 38.4839 36.2716 38.2482 36.1485 38.0022C35.7737 37.254 35.6086 36.3894 35.5037 35.5572C35.4827 35.3922 35.4645 35.2258 35.4463 35.0593C35.7387 35.0372 36.0268 34.9429 36.2926 34.7839C36.8465 34.451 37.1836 33.8854 37.4186 33.2785C37.648 32.6864 37.8383 32.0074 37.8816 31.3681C37.9292 30.6538 37.6075 30.0175 37.0382 29.6374C36.4269 29.228 35.6869 29.2294 34.9889 29.281C34.9582 28.9142 34.926 28.5489 34.9092 28.1822C34.8938 27.8316 34.8812 27.4619 35.0603 27.1541C35.1176 27.0554 35.0533 27.1423 35.1288 27.0642C35.1526 27.0407 35.1764 27.0156 35.2001 26.9935C35.2043 26.9906 35.2127 26.9862 35.2267 26.9773C35.2505 26.9626 35.3414 26.911 35.3568 26.9007C35.3806 26.8934 35.4939 26.8536 35.5303 26.8433C35.5596 26.8345 35.6911 26.8065 35.7149 26.7991C35.7331 26.7991 35.845 26.7844 35.8758 26.7829C36.0478 26.7696 36.2199 26.7682 36.3919 26.7711C37.178 26.7844 37.9362 26.7947 38.7181 26.6798C39.5126 26.5634 40.2917 26.3557 41.0499 26.0833C41.8696 25.7901 45.8533 26.5826 47.2242 26.7255C49.272 27.1938 51.3422 27.5532 53.4236 27.8198C53.625 31.215 54.158 34.5909 55.0238 37.8682C55.2098 38.5737 55.4113 39.2734 55.6281 39.9686C55.5959 39.9686 55.5637 39.9686 55.5302 39.9686L55.526 39.9642ZM68.3725 39.945C66.859 39.9509 65.3455 39.9568 63.8306 39.9598C63.3774 39.9598 62.9228 39.9598 62.4696 39.9598C62.6192 39.7727 62.7675 39.5871 62.9172 39.4C63.0081 39.2852 63.071 39.1644 63.071 39.0097C63.071 38.8742 63.0137 38.7122 62.9172 38.6194C62.8179 38.5222 62.6864 38.4515 62.5465 38.4574C62.415 38.4633 62.2639 38.5089 62.1758 38.6194C61.8219 39.0627 61.4666 39.5061 61.1127 39.9494C61.1099 39.9539 61.1071 39.9568 61.1043 39.9612C60.6875 39.9612 60.2693 39.9612 59.8524 39.9612L61.3897 38.1407C61.5715 37.9242 61.6065 37.5692 61.3897 37.36C61.1911 37.1671 60.8428 37.1288 60.6483 37.36C59.9392 38.1996 59.23 39.0406 58.5208 39.8802C58.4984 39.9053 58.4802 39.9332 58.462 39.9627C58.0634 39.9627 57.6633 39.9627 57.2647 39.9627C57.2647 39.9627 57.2661 39.9612 57.2675 39.9598C57.7109 39.4693 58.1543 38.9803 58.5963 38.4898C58.7852 38.2806 58.8089 37.9139 58.5963 37.7091C58.3907 37.5103 58.0564 37.4852 57.855 37.7091C57.4115 38.1996 56.9681 38.6886 56.5247 39.1791C56.5135 39.1909 56.5065 39.2041 56.4967 39.2174C55.6407 36.3717 55.0266 33.4214 54.6965 30.4859C54.6014 29.6404 54.5286 28.7905 54.4769 27.9406C55.0266 28.0025 55.5777 28.0614 56.1288 28.11C59.2272 28.3899 62.3381 28.4827 65.4462 28.5165C67.1583 28.5357 68.8704 28.5357 70.5826 28.5357C69.5852 31.4109 68.9124 34.4009 68.5711 37.4425C68.4774 38.2733 68.413 39.1069 68.3711 39.9421L68.3725 39.945ZM77.0645 43.9838C76.9764 43.9735 77.038 43.9794 77.0841 43.9853C77.0771 43.9853 77.0715 43.9853 77.0645 43.9838ZM79.532 43.6568C79.532 43.6568 79.5698 43.6436 79.5936 43.6333C79.5698 43.6465 79.546 43.6598 79.532 43.6568ZM82.6443 39.0568C82.6401 39.1217 82.6359 39.185 82.6289 39.2483C82.6247 39.2881 82.6205 39.3279 82.6163 39.3676C82.6163 39.3676 82.6163 39.3676 82.6163 39.3691C82.5618 39.6593 82.5156 39.948 82.4345 40.2323C82.3967 40.3633 82.3562 40.493 82.31 40.6211C82.303 40.6417 82.289 40.7036 82.2708 40.7537C82.2722 40.7419 82.2667 40.7434 82.2499 40.7817C82.2303 40.8258 82.2121 40.87 82.1925 40.9142C82.0708 41.1867 81.9295 41.4504 81.7701 41.7022C81.7309 41.7641 81.6903 41.8245 81.6498 41.8849C81.6316 41.9114 81.612 41.9379 81.5938 41.9644C81.5309 42.0557 81.5882 41.9777 81.6106 41.9453C81.5379 42.0793 81.4064 42.2045 81.3085 42.3165C81.1099 42.5433 80.8944 42.7539 80.6664 42.9483C80.6594 42.9542 80.5615 43.0308 80.5937 43.0073C80.5811 43.0161 80.5713 43.0235 80.5699 43.0249C80.5168 43.0662 80.4622 43.1059 80.4077 43.1442C80.2804 43.2356 80.1489 43.3195 80.016 43.3991C79.8915 43.4727 79.7656 43.5405 79.6355 43.6038C79.6271 43.6082 79.6145 43.6156 79.602 43.6229C79.595 43.6259 79.5838 43.6303 79.567 43.6377C79.4956 43.6671 79.4229 43.6966 79.3502 43.7246C79.0928 43.8218 78.8284 43.8969 78.5599 43.9514C78.5011 43.9632 78.4438 43.972 78.385 43.9823C78.3864 43.9823 78.3892 43.9823 78.3906 43.9823C78.3878 43.9823 78.385 43.9823 78.3808 43.9823C78.3668 43.9853 78.3514 43.9882 78.3375 43.9897C78.3235 43.9926 78.3151 43.9926 78.3081 43.9912C78.3053 43.9912 78.3025 43.9912 78.3011 43.9912C78.1528 44.0074 78.0045 44.0177 77.8563 44.0206C77.6017 44.0265 77.3485 44.0103 77.0953 43.9823C77.0673 43.975 77.0324 43.9735 77.0058 43.9691C76.9401 43.9573 76.8757 43.9455 76.81 43.9323C76.6729 43.9028 76.5372 43.8689 76.4015 43.8291C76.2812 43.7938 76.1609 43.7555 76.0434 43.7113C75.9735 43.6863 75.9049 43.6598 75.8364 43.6303C75.8112 43.62 75.7861 43.6097 75.7623 43.5994C75.7623 43.5994 75.7609 43.5994 75.7595 43.5979C75.5175 43.4801 75.2811 43.3549 75.0545 43.209C74.9412 43.1354 74.8293 43.0588 74.7216 42.9778C74.674 42.9424 74.6293 42.9056 74.5831 42.8703C74.5537 42.8438 74.5229 42.8187 74.4936 42.7937C74.2824 42.6081 74.0823 42.4078 73.8977 42.1927C73.8683 42.1588 73.6221 41.8908 73.6361 41.8687C73.6361 41.8687 73.741 42.0174 73.6627 41.9055C73.6445 41.8805 73.6263 41.8554 73.6095 41.8289C73.5648 41.7641 73.5214 41.6993 73.4808 41.6345C73.32 41.3826 73.1773 41.116 73.0556 40.8406C73.0444 40.8155 73.0109 40.733 73.0039 40.7168C72.9801 40.6535 72.9563 40.5902 72.9339 40.5268C72.8738 40.3516 72.8206 40.1719 72.7759 39.9907C72.7339 39.8184 72.6989 39.6445 72.6696 39.4707C72.664 39.4324 72.657 39.3927 72.6514 39.3544C72.6486 39.3338 72.6458 39.3205 72.6444 39.3117C72.6318 39.2262 72.629 39.1349 72.6234 39.051C72.5982 38.6857 72.6024 38.3189 72.636 37.9536C72.6402 37.9139 72.6444 37.8756 72.6472 37.8358C72.65 37.8122 72.6514 37.799 72.6514 37.7887C72.6598 37.7224 72.6723 37.6546 72.6835 37.5913C72.7157 37.4057 72.7549 37.2231 72.801 37.0419C72.8458 36.871 72.8962 36.7002 72.9535 36.5337C72.9787 36.4601 73.0067 36.3864 73.0332 36.3128C73.0332 36.3098 73.0346 36.3069 73.036 36.3039C73.036 36.3025 73.0374 36.301 73.0388 36.298C73.0626 36.245 73.085 36.1905 73.1088 36.1375C73.25 35.8252 73.4165 35.5248 73.6053 35.2405C73.6417 35.1845 73.6809 35.13 73.7186 35.0755C73.72 35.074 73.7214 35.0726 73.7228 35.0696C73.7438 35.0416 73.7648 35.0136 73.7858 34.9871C73.8753 34.8722 73.9676 34.7618 74.0655 34.6528C74.2558 34.4407 74.4628 34.2507 74.6754 34.0651C74.6992 34.0474 74.7216 34.0283 74.7454 34.0106C74.7999 33.9693 74.8545 33.9296 74.9104 33.8898C75.0265 33.8073 75.1468 33.7307 75.2685 33.6586C75.3832 33.5908 75.4993 33.5275 75.6182 33.4685C75.642 33.4568 75.6728 33.4465 75.7035 33.4347C75.6923 33.4494 75.7203 33.4479 75.7749 33.3949C75.7749 33.3949 75.7749 33.3949 75.7735 33.3949C75.7735 33.3949 75.7763 33.3934 75.7777 33.392C75.7777 33.392 75.7763 33.3934 75.7749 33.3949C75.8 33.3846 75.8252 33.3728 75.8518 33.364C76.1064 33.2623 76.3694 33.1798 76.6351 33.1195C76.7498 33.0929 76.8645 33.0767 76.9792 33.0532C77.0002 33.0502 77.0198 33.0488 77.0408 33.0458C77.1121 33.0384 77.182 33.0311 77.2534 33.0267C77.5164 33.009 77.7807 33.0119 78.0437 33.034C78.0941 33.0384 78.143 33.0443 78.192 33.0502C78.1864 33.0488 78.1836 33.0473 78.1766 33.0458C78.1864 33.0488 78.1976 33.0502 78.2074 33.0517C78.2018 33.0517 78.1962 33.0517 78.1906 33.0502C78.3067 33.0841 78.2955 33.0679 78.2577 33.0591C78.2577 33.0591 78.2605 33.0591 78.2619 33.0591C78.4046 33.0826 78.5445 33.1121 78.6843 33.1489C78.9277 33.2108 79.1627 33.2933 79.3963 33.3875C79.4201 33.4052 79.4649 33.417 79.4873 33.4273C79.5474 33.4568 79.6076 33.4862 79.6677 33.5172C79.795 33.5834 79.9195 33.6556 80.0412 33.7322C80.1517 33.8014 80.2608 33.8765 80.3657 33.9531C80.4119 33.987 80.5224 34.0459 80.5517 34.096C80.5461 34.0857 80.4216 33.987 80.521 34.071C80.5573 34.1019 80.5937 34.1328 80.6301 34.1638C80.8511 34.3582 81.0567 34.5703 81.2497 34.7957C81.3057 34.8619 81.3616 34.9282 81.4148 34.9974C81.4498 35.0416 81.5491 35.211 81.4609 35.0549C81.5393 35.1948 81.647 35.3215 81.7323 35.4585C81.896 35.7207 82.0414 35.9961 82.1687 36.2804C82.1827 36.3113 82.1953 36.3408 82.2079 36.3717C82.2093 36.3761 82.2205 36.4012 82.2303 36.4247C82.2345 36.435 82.2373 36.4439 82.2401 36.4498C82.2541 36.4881 82.2694 36.5264 82.2834 36.5661C82.3338 36.7046 82.3786 36.846 82.4191 36.9889C82.5002 37.2717 82.5576 37.5589 82.6038 37.8505C82.6038 37.8505 82.6038 37.8476 82.6052 37.8461C82.6052 37.8461 82.6052 37.852 82.6052 37.8579C82.608 37.8711 82.6094 37.8844 82.6122 37.8977C82.615 37.9183 82.6163 37.9271 82.6149 37.933C82.6149 37.9359 82.6149 37.9418 82.6163 37.9433C82.6233 38.0155 82.6303 38.0877 82.6359 38.1613C82.6471 38.3145 82.6527 38.4677 82.6527 38.6209C82.6527 38.7652 82.6485 38.911 82.6401 39.0554L82.6443 39.0568ZM75.7049 33.4376C75.7105 33.4302 75.7245 33.4185 75.7511 33.4082C75.7581 33.4052 75.7665 33.4023 75.7735 33.3993C75.7553 33.4155 75.7315 33.4273 75.7049 33.4376ZM78.2116 33.0546C78.22 33.0546 78.2297 33.0561 78.2381 33.0576C78.2465 33.0576 78.2535 33.0605 78.2619 33.062C78.2465 33.0591 78.2283 33.0576 78.2116 33.0546ZM79.4159 33.3964C79.4159 33.3964 79.4285 33.4008 79.4355 33.4037C79.5208 33.4391 79.4565 33.414 79.4159 33.3964ZM89.7516 38.7961C89.69 38.9714 89.5138 39.3249 89.3543 39.5621C89.3389 39.5856 89.3319 39.5974 89.3277 39.6018C89.3249 39.6048 89.3152 39.6136 89.2942 39.6387C89.2494 39.6917 89.2047 39.7432 89.1571 39.7933C89.1151 39.8375 89.069 39.8787 89.0242 39.92H83.9382C84.2487 38.1186 83.8892 36.192 82.9045 34.6513C82.7045 34.3376 82.4821 34.0386 82.2429 33.7558C81.3868 32.7586 80.2454 32.0133 78.9963 31.7128C77.8171 31.4285 76.5484 31.5007 75.4196 31.9691C74.1691 32.4876 73.1312 33.3743 72.3716 34.5394C71.51 35.8621 71.1015 37.5441 71.2316 39.1408C71.2526 39.4059 71.2889 39.6681 71.3365 39.9274C70.6973 39.9318 70.0594 39.9347 69.4202 39.9377C69.5782 36.7664 70.1154 33.6497 71.0204 30.6022C71.2861 29.7067 71.5841 28.8214 71.91 27.9465C71.9981 27.7108 71.8485 27.4163 71.6386 27.3043C71.6302 27.2955 71.6247 27.2866 71.6163 27.2793C69.8678 25.6414 68.1081 23.9092 66.0225 22.7515C65.8714 22.6675 65.7176 22.588 65.5623 22.5099C65.6868 22.0371 65.7987 21.5054 65.8868 21.0444C65.9861 21.0827 66.0854 21.1224 66.1862 21.1607C66.2197 21.1769 66.2547 21.1931 66.2883 21.2093C66.3582 21.2432 66.4281 21.28 66.4967 21.3168C66.775 21.4671 67.0408 21.6394 67.2996 21.825C68.0913 22.3921 68.8536 23.0181 69.609 23.6352C70.7854 24.5941 71.9212 25.6252 73.1717 26.4795C73.8124 26.9169 74.4908 27.2852 75.2279 27.5076C76.042 27.7536 76.8981 27.8405 77.7416 27.8832C78.5892 27.9259 79.4397 27.9156 80.2874 27.9745C81.0875 28.029 81.8666 28.1748 82.6345 28.4252C83.6557 28.7581 84.6292 29.2574 85.5272 29.8731C84.881 30.2001 84.4725 30.8939 84.3984 31.6465C84.3159 32.4817 84.7593 33.2653 85.3258 33.8117C85.9189 34.3847 86.6435 34.806 87.4016 35.0814C88.2045 35.373 89.0774 35.4791 89.9222 35.3863C90.2034 36.516 90.1586 37.6576 89.7544 38.7961H89.7516Z" fill="#222222"/>
<path d="M53.5691 26.3454C53.5691 26.3454 53.5733 26.3454 53.5761 26.3454C53.5761 26.341 53.5733 26.341 53.5691 26.3454Z" fill="#222222"/>
<path d="M64.6027 23.6647C64.6153 23.6691 64.6265 23.675 64.6391 23.6794C64.6307 23.6765 64.6195 23.6721 64.6027 23.6662V23.6647Z" fill="#222222"/>
<path d="M82.6094 37.8535C82.5968 37.8844 82.6177 37.958 82.6205 37.9345C82.6177 37.9139 82.6107 37.8785 82.6107 37.8594C82.6107 37.8579 82.6107 37.8549 82.6107 37.8535H82.6094Z" fill="#222222"/>
<path d="M78.3123 43.9941C78.3332 43.9912 78.3654 43.9838 78.385 43.9838C78.385 43.9838 78.3878 43.9838 78.3892 43.9838C78.3179 43.9676 78.2815 43.9926 78.3137 43.9941H78.3123Z" fill="#222222"/>
<path d="M78.8018 39.5311C78.82 39.5046 78.8312 39.4663 78.8018 39.5311V39.5311Z" fill="#222222"/>
<path d="M76.7596 37.2127C76.7596 37.2127 76.754 37.2172 76.7512 37.2186C76.7498 37.2201 76.747 37.223 76.7456 37.2245C76.7596 37.2142 76.7792 37.201 76.789 37.1921C76.7792 37.1995 76.7694 37.2068 76.7596 37.2127Z" fill="#222222"/>
<path d="M78.7823 37.5515C78.7823 37.5515 78.7809 37.5486 78.7795 37.5471C78.7669 37.5353 78.7529 37.5191 78.7403 37.5014C78.7347 37.5029 78.7459 37.5265 78.7823 37.5515Z" fill="#222222"/>
<path d="M79.6845 36.3967C78.9333 35.5336 77.7094 35.1771 76.6603 35.6117C75.4657 36.1051 74.6656 37.3983 74.7775 38.7623C74.8824 40.054 75.7105 41.1573 76.9079 41.5093C78.1039 41.8613 79.3376 41.3207 80.023 40.2529C80.3657 39.7182 80.5405 39.0215 80.4916 38.3793C80.4356 37.6281 80.1573 36.9623 79.6859 36.3967H79.6845ZM78.4647 37.1921C78.448 37.1789 78.427 37.1641 78.4186 37.1627C78.4298 37.1627 78.4466 37.1759 78.4647 37.1921ZM78.1458 37.0051C78.2297 37.0345 78.1458 37.0124 78.1122 36.9933C78.1234 36.9977 78.1346 37.0021 78.1458 37.0051ZM77.8087 36.9064C77.9318 36.9152 77.8185 36.9255 77.7779 36.9034C77.7877 36.9034 77.7975 36.9049 77.8087 36.9064ZM76.1749 38.777C76.1791 38.7991 76.1819 38.8212 76.1819 38.8197C76.1777 38.8153 76.1763 38.7961 76.1749 38.777ZM76.4533 39.4987C76.4533 39.4987 76.4617 39.509 76.4715 39.5223C76.4603 39.509 76.4519 39.4987 76.4533 39.4987ZM78.9683 39.2365C78.9683 39.2365 78.9711 39.2277 78.9767 39.2145C78.9725 39.2262 78.9683 39.2365 78.9683 39.2365ZM79.0914 38.7608C79.0844 38.8963 79.0732 38.7785 79.0914 38.7402C79.0914 38.7475 79.0914 38.7549 79.0914 38.7608ZM79.0956 38.6886C79.0956 38.7048 79.0942 38.7225 79.0928 38.7387C79.0648 38.7844 79.0536 38.9626 79.041 39.0097C79.0271 39.0642 79.0089 39.1158 78.9921 39.1688C78.9921 39.1703 78.9879 39.182 78.9837 39.1953C78.9389 39.2881 78.8942 39.3794 78.8396 39.4678C78.8228 39.4943 78.7585 39.6269 78.8004 39.5341C78.8004 39.5341 78.8004 39.5326 78.8018 39.5311C78.8004 39.5326 78.799 39.5356 78.7977 39.537C78.7711 39.568 78.7459 39.6004 78.7193 39.6313C78.6592 39.7005 78.5906 39.7609 78.5263 39.8257C78.5081 39.8405 78.4871 39.8596 78.4745 39.8684C78.4284 39.9023 78.3794 39.9332 78.3305 39.9642C78.2829 39.9922 78.2339 40.0187 78.185 40.0437C78.1822 40.0437 78.1808 40.0437 78.178 40.0452C78.0773 40.0791 77.978 40.1115 77.8745 40.1336C77.8507 40.1262 77.7667 40.1439 77.7472 40.1453C77.6954 40.1468 77.6436 40.1468 77.5919 40.1453C77.5611 40.1453 77.4842 40.1247 77.4492 40.1321C77.3989 40.1218 77.3485 40.11 77.2995 40.0953C77.2576 40.0835 77.2142 40.0702 77.1723 40.0555C77.1513 40.0481 77.1303 40.0393 77.1093 40.0319C77.038 39.9951 76.9666 39.9598 76.8995 39.9156C76.8547 39.8876 76.8114 39.8581 76.7694 39.8272C76.7624 39.8213 76.7554 39.8169 76.7484 39.811C76.6813 39.7403 76.6071 39.6784 76.5428 39.6048C76.5386 39.5989 76.5036 39.5591 76.4799 39.5297C76.4631 39.5046 76.4463 39.4811 76.4309 39.456C76.3805 39.3765 76.3358 39.2925 76.2952 39.2071C76.2896 39.1953 76.284 39.185 76.2784 39.1732C76.2784 39.1688 76.277 39.1658 76.2756 39.1614C76.2602 39.0966 76.2351 39.0333 76.2183 38.967C76.2015 38.9007 76.1917 38.8344 76.1777 38.7682C76.1777 38.7652 76.1777 38.7637 76.1763 38.7608C76.1763 38.7475 76.1763 38.7372 76.1763 38.7328C76.1665 38.5958 76.1777 38.4618 76.1791 38.3248C76.1791 38.3189 76.1791 38.3145 76.1791 38.3115C76.1805 38.3042 76.1833 38.2953 76.1847 38.2895C76.1945 38.232 76.2071 38.1746 76.2197 38.1186C76.2351 38.0523 76.2547 37.9875 76.2756 37.9227C76.2826 37.9006 76.291 37.88 76.298 37.8579C76.3554 37.7518 76.4043 37.6443 76.4687 37.5427C76.4827 37.5221 76.4966 37.5014 76.5106 37.4808C76.554 37.4101 76.4729 37.5338 76.4729 37.5294C76.4799 37.4852 76.5652 37.416 76.596 37.3806C76.6071 37.3689 76.6911 37.279 76.7456 37.226C76.7274 37.2378 76.7204 37.2422 76.7512 37.2201C76.775 37.198 76.7932 37.1818 76.7946 37.1848C76.7946 37.1848 76.7932 37.1892 76.7876 37.1921C76.796 37.1862 76.8044 37.1789 76.8142 37.173C76.8561 37.142 76.9009 37.114 76.9443 37.0875C76.9932 37.0581 77.045 37.0316 77.0953 37.0051C77.1009 37.0036 77.1051 37.0021 77.1107 36.9992C77.2128 36.9638 77.3149 36.9314 77.4198 36.9108C77.424 36.9108 77.4296 36.9093 77.4338 36.9078C77.4856 36.9078 77.5401 36.899 77.5933 36.899C77.6422 36.899 77.6926 36.899 77.7416 36.9019C77.7528 36.9019 77.7625 36.9034 77.7737 36.9049C77.8339 36.9476 77.9905 36.952 78.0605 36.9756C78.0745 36.98 78.0899 36.9859 78.1039 36.9918C78.129 37.0124 78.2172 37.0448 78.2367 37.0551C78.2899 37.0846 78.3416 37.117 78.3906 37.1509C78.4102 37.1641 78.4284 37.1774 78.4466 37.1906C78.4745 37.2098 78.4815 37.2127 78.4801 37.2083C78.5123 37.2393 78.5431 37.2775 78.5571 37.2908C78.6032 37.3379 78.648 37.3865 78.6913 37.4366C78.7039 37.4528 78.7193 37.4764 78.7361 37.5C78.7403 37.5 78.7515 37.5073 78.7669 37.5324C78.7697 37.5368 78.7725 37.5412 78.7753 37.5456C78.7795 37.55 78.7837 37.5545 78.7879 37.5574C78.7837 37.5545 78.7809 37.553 78.7781 37.55C78.7879 37.5648 78.7976 37.581 78.8074 37.5957C78.869 37.6944 78.9165 37.7975 78.9697 37.9021C78.9697 37.905 78.9725 37.908 78.9739 37.9109C78.9907 37.9566 79.0047 38.0037 79.0187 38.0508C79.0466 38.1481 79.0634 38.2453 79.0844 38.3425C79.0858 38.3587 79.0886 38.3734 79.0886 38.3764C79.0914 38.4323 79.0956 38.4883 79.0956 38.5443C79.0956 38.5914 79.0956 38.64 79.0928 38.6871L79.0956 38.6886Z" fill="#222222"/>
<path d="M58.8243 30.748C58.3152 30.7716 57.8046 30.7952 57.2954 30.8187C57.0213 30.832 56.7583 31.0632 56.7709 31.3711C56.7835 31.6598 57.0017 31.9367 57.2954 31.9234C57.8046 31.8999 58.3152 31.8763 58.8243 31.8527C59.0985 31.8395 59.3615 31.6082 59.3489 31.3004C59.3363 31.0117 59.1181 30.7348 58.8243 30.748Z" fill="#222222"/>
<path d="M62.8836 23.1816C62.8836 23.1816 62.878 23.1816 62.8752 23.1816C62.8822 23.1816 62.8878 23.1831 62.8934 23.1845C62.8906 23.1845 62.8864 23.1845 62.8836 23.1845V23.1816Z" fill="#222222"/>
<path d="M29.4416 70.68C28.0549 70.68 26.8682 70.3867 25.8816 69.8C24.8949 69.2133 24.1349 68.38 23.6016 67.3C23.0816 66.22 22.8216 64.9333 22.8216 63.44C22.8216 61.9467 23.0816 60.6667 23.6016 59.6C24.1349 58.52 24.8949 57.6867 25.8816 57.1C26.8682 56.5133 28.0549 56.22 29.4416 56.22C30.4149 56.22 31.3149 56.3733 32.1416 56.68C32.9682 56.9867 33.6616 57.4333 34.2216 58.02L33.5816 59.36C32.9682 58.7867 32.3282 58.3733 31.6616 58.12C31.0082 57.8533 30.2816 57.72 29.4816 57.72C27.8949 57.72 26.6816 58.22 25.8416 59.22C25.0016 60.22 24.5816 61.6267 24.5816 63.44C24.5816 65.2533 25.0016 66.6667 25.8416 67.68C26.6816 68.68 27.8949 69.18 29.4816 69.18C30.2816 69.18 31.0082 69.0533 31.6616 68.8C32.3282 68.5333 32.9682 68.1133 33.5816 67.54L34.2216 68.88C33.6616 69.4533 32.9682 69.9 32.1416 70.22C31.3149 70.5267 30.4149 70.68 29.4416 70.68ZM39.3261 70.68C38.6594 70.68 38.0594 70.5533 37.5261 70.3C37.0061 70.0333 36.5928 69.6733 36.2861 69.22C35.9794 68.7667 35.8261 68.26 35.8261 67.7C35.8261 66.98 36.0061 66.4133 36.3661 66C36.7394 65.5867 37.3461 65.2933 38.1861 65.12C39.0394 64.9467 40.1994 64.86 41.6661 64.86H42.5661V65.92H41.6861C40.8728 65.92 40.1928 65.9467 39.6461 66C39.0994 66.0533 38.6661 66.1467 38.3461 66.28C38.0261 66.4133 37.7994 66.5867 37.6661 66.8C37.5328 67.0133 37.4661 67.28 37.4661 67.6C37.4661 68.1467 37.6528 68.5933 38.0261 68.94C38.4128 69.2867 38.9328 69.46 39.5861 69.46C40.1194 69.46 40.5861 69.3333 40.9861 69.08C41.3994 68.8267 41.7194 68.48 41.9461 68.04C42.1861 67.6 42.3061 67.0933 42.3061 66.52V64.24C42.3061 63.4133 42.1394 62.82 41.8061 62.46C41.4728 62.0867 40.9261 61.9 40.1661 61.9C39.5794 61.9 39.0128 61.9867 38.4661 62.16C37.9194 62.32 37.3594 62.5867 36.7861 62.96L36.2261 61.78C36.5728 61.54 36.9661 61.3333 37.4061 61.16C37.8461 60.9733 38.3061 60.8333 38.7861 60.74C39.2661 60.6467 39.7261 60.6 40.1661 60.6C41.0061 60.6 41.6994 60.74 42.2461 61.02C42.7928 61.2867 43.1994 61.7 43.4661 62.26C43.7328 62.8067 43.8661 63.5133 43.8661 64.38V70.5H42.3461V68.24H42.5261C42.4194 68.7467 42.2128 69.18 41.9061 69.54C41.6128 69.9 41.2461 70.18 40.8061 70.38C40.3661 70.58 39.8728 70.68 39.3261 70.68ZM51.7916 70.68C50.9116 70.68 50.1516 70.4533 49.5116 70C48.8849 69.5467 48.4649 68.94 48.2516 68.18H48.4516V70.5H46.8716V56.4H48.4916V63.04H48.2516C48.4782 62.2933 48.9049 61.7 49.5316 61.26C50.1582 60.82 50.9116 60.6 51.7916 60.6C52.6716 60.6 53.4316 60.8067 54.0716 61.22C54.7116 61.62 55.2049 62.2 55.5516 62.96C55.9116 63.7067 56.0916 64.6 56.0916 65.64C56.0916 66.6667 55.9116 67.56 55.5516 68.32C55.2049 69.0667 54.7049 69.6467 54.0516 70.06C53.4116 70.4733 52.6582 70.68 51.7916 70.68ZM51.4516 69.38C52.3716 69.38 53.0982 69.06 53.6316 68.42C54.1782 67.7667 54.4516 66.84 54.4516 65.64C54.4516 64.4267 54.1782 63.5 53.6316 62.86C53.0982 62.22 52.3716 61.9 51.4516 61.9C50.5449 61.9 49.8182 62.22 49.2716 62.86C48.7249 63.5 48.4516 64.4267 48.4516 65.64C48.4516 66.84 48.7249 67.7667 49.2716 68.42C49.8182 69.06 50.5449 69.38 51.4516 69.38ZM58.5317 70.5V60.78H60.1117V63.08H59.9117C60.1384 62.2933 60.5317 61.7 61.0917 61.3C61.6517 60.8867 62.3917 60.6467 63.3117 60.58L63.8917 60.52L64.0117 61.92L62.9917 62.04C62.0851 62.12 61.3851 62.4133 60.8917 62.92C60.4117 63.4133 60.1717 64.0933 60.1717 64.96V70.5H58.5317ZM65.4997 58.36V56.54H67.4997V58.36H65.4997ZM65.6997 70.5V60.78H67.3197V70.5H65.6997ZM74.3881 70.68C73.4415 70.68 72.6215 70.4733 71.9281 70.06C71.2348 69.6467 70.6948 69.0667 70.3081 68.32C69.9348 67.56 69.7481 66.6667 69.7481 65.64C69.7481 64.6133 69.9348 63.7267 70.3081 62.98C70.6948 62.22 71.2348 61.6333 71.9281 61.22C72.6215 60.8067 73.4415 60.6 74.3881 60.6C75.3348 60.6 76.1548 60.8067 76.8481 61.22C77.5415 61.6333 78.0748 62.22 78.4481 62.98C78.8348 63.7267 79.0281 64.6133 79.0281 65.64C79.0281 66.6667 78.8348 67.56 78.4481 68.32C78.0748 69.0667 77.5415 69.6467 76.8481 70.06C76.1548 70.4733 75.3348 70.68 74.3881 70.68ZM74.3881 69.38C75.3081 69.38 76.0348 69.06 76.5681 68.42C77.1148 67.7667 77.3881 66.8333 77.3881 65.62C77.3881 64.42 77.1148 63.5 76.5681 62.86C76.0348 62.22 75.3081 61.9 74.3881 61.9C73.4815 61.9 72.7548 62.22 72.2081 62.86C71.6615 63.5 71.3881 64.42 71.3881 65.62C71.3881 66.8333 71.6615 67.7667 72.2081 68.42C72.7548 69.06 73.4815 69.38 74.3881 69.38ZM84.4414 70.68C83.4547 70.68 82.7081 70.3867 82.2014 69.8C81.7081 69.2133 81.4614 68.3733 81.4614 67.28V56.4H83.0814V67.16C83.0814 67.6267 83.1414 68.02 83.2614 68.34C83.3947 68.66 83.5881 68.9 83.8414 69.06C84.0947 69.22 84.4081 69.3 84.7814 69.3C84.9414 69.3 85.0947 69.2933 85.2414 69.28C85.4014 69.2533 85.5481 69.22 85.6814 69.18L85.6414 70.54C85.4281 70.58 85.2214 70.6133 85.0214 70.64C84.8347 70.6667 84.6414 70.68 84.4414 70.68ZM91.6617 70.68C90.6351 70.68 89.7484 70.48 89.0017 70.08C88.2684 69.6667 87.6951 69.0867 87.2817 68.34C86.8817 67.5933 86.6817 66.7 86.6817 65.66C86.6817 64.6467 86.8817 63.7667 87.2817 63.02C87.6817 62.26 88.2284 61.6667 88.9217 61.24C89.6284 60.8133 90.4417 60.6 91.3617 60.6C92.2417 60.6 92.9951 60.7933 93.6217 61.18C94.2484 61.5667 94.7284 62.1133 95.0617 62.82C95.4084 63.5267 95.5817 64.3733 95.5817 65.36V65.98H87.9217V64.92H94.5017L94.1817 65.18C94.1817 64.1133 93.9417 63.2867 93.4617 62.7C92.9951 62.1 92.3084 61.8 91.4017 61.8C90.7217 61.8 90.1417 61.96 89.6617 62.28C89.1951 62.5867 88.8417 63.02 88.6017 63.58C88.3617 64.1267 88.2417 64.7667 88.2417 65.5V65.62C88.2417 66.4333 88.3684 67.12 88.6217 67.68C88.8884 68.24 89.2817 68.6667 89.8017 68.96C90.3217 69.24 90.9417 69.38 91.6617 69.38C92.2351 69.38 92.7884 69.2933 93.3217 69.12C93.8684 68.9333 94.3817 68.6333 94.8617 68.22L95.4217 69.36C94.9817 69.76 94.4217 70.08 93.7417 70.32C93.0617 70.56 92.3684 70.68 91.6617 70.68ZM101.826 70.68C100.68 70.68 99.8196 70.3733 99.2463 69.76C98.6729 69.1467 98.3863 68.2733 98.3863 67.14V62.04H96.4863V60.78H98.3863V57.8H100.006V60.78H103.086V62.04H100.006V66.98C100.006 67.74 100.166 68.32 100.486 68.72C100.806 69.1067 101.326 69.3 102.046 69.3C102.26 69.3 102.473 69.2733 102.686 69.22C102.9 69.1667 103.093 69.1133 103.266 69.06L103.546 70.3C103.373 70.3933 103.12 70.48 102.786 70.56C102.453 70.64 102.133 70.68 101.826 70.68Z" fill="#222222"/>
</svg>
