<svg width="416" height="178" viewBox="0 0 416 178" fill="none" xmlns="http://www.w3.org/2000/svg">
<path d="M61.4799 48.52C60.6099 48.06 59.5599 47.83 58.5899 48.14C58.2899 48.27 57.9899 48.39 57.6899 48.52C57.3599 48.72 57.0699 48.97 56.8199 49.25C55.9499 50.37 54.9499 51.36 53.8499 52.25C52.9099 52.92 51.9099 53.5 50.8599 53.98C50.1099 54.27 49.3399 54.53 48.5499 54.72C46.6399 55.18 45.3199 57.45 45.9299 59.33C46.5699 61.31 48.4999 62.45 50.5399 61.95C52.8399 61.39 55.1099 60.42 57.0899 59.11C59.3599 57.61 61.1799 55.81 62.8199 53.65C63.3699 52.93 63.4299 51.59 63.1999 50.76C62.9599 49.89 62.2899 48.95 61.4799 48.52Z" fill="#222222"/>
<path d="M394.17 118.45C393.21 118.23 392.13 118.28 391.28 118.83C390.45 119.36 389.83 120.11 389.56 121.07C388.93 123.29 388.29 125.51 387.66 127.72C387.39 128.65 387.55 129.78 388.04 130.61C388.5 131.39 389.39 132.13 390.28 132.33C391.24 132.55 392.32 132.5 393.17 131.95C394 131.42 394.62 130.67 394.89 129.71C395.52 127.49 396.16 125.27 396.79 123.06C397.06 122.13 396.9 121 396.41 120.17C395.95 119.39 395.06 118.65 394.17 118.45Z" fill="#222222"/>
<path d="M122.11 125.14C122.02 125.35 122.17 125.85 122.19 125.69C122.17 125.55 122.12 125.31 122.12 125.18C122.12 125.17 122.12 125.15 122.12 125.14H122.11Z" fill="#222222"/>
<path d="M91.3899 166.83C91.5399 166.81 91.7699 166.76 91.9099 166.76C91.9099 166.76 91.9299 166.76 91.9399 166.76C91.4299 166.65 91.1699 166.82 91.3999 166.83H91.3899Z" fill="#222222"/>
<path d="M94.7499 123.09C94.7499 123.09 94.7399 123.07 94.7299 123.06C94.6399 122.98 94.5399 122.87 94.4499 122.75C94.4099 122.76 94.4899 122.92 94.7499 123.09Z" fill="#222222"/>
<path d="M80.2899 120.79C80.2899 120.79 80.2499 120.82 80.2299 120.83C80.2199 120.84 80.1999 120.86 80.1899 120.87C80.2899 120.8 80.4299 120.71 80.4999 120.65C80.4299 120.7 80.3599 120.75 80.2899 120.79Z" fill="#222222"/>
<path d="M94.8899 136.53C95.0199 136.35 95.0999 136.09 94.8899 136.53V136.53Z" fill="#222222"/>
<path d="M101.2 115.25C95.8299 109.39 87.0799 106.97 79.5799 109.92C71.0399 113.27 65.3199 122.05 66.1199 131.31C66.8699 140.08 72.7899 147.57 81.3499 149.96C89.8999 152.35 98.7199 148.68 103.62 141.43C106.07 137.8 107.32 133.07 106.97 128.71C106.57 123.61 104.58 119.09 101.21 115.25H101.2ZM92.4799 120.65C92.3599 120.56 92.2099 120.46 92.1499 120.45C92.2299 120.45 92.3499 120.54 92.4799 120.65ZM90.1999 119.38C90.7999 119.58 90.1999 119.43 89.9599 119.3C90.0399 119.33 90.1199 119.36 90.1999 119.38ZM87.7799 118.71C88.6599 118.77 87.8499 118.84 87.5599 118.69C87.6299 118.69 87.6999 118.7 87.7799 118.71ZM76.1099 131.41C76.1399 131.56 76.1599 131.71 76.1599 131.7C76.1299 131.67 76.1199 131.54 76.1099 131.41ZM78.0999 136.31C78.0999 136.31 78.1599 136.38 78.2299 136.47C78.1499 136.38 78.0899 136.31 78.0999 136.31ZM96.0799 134.53C96.0799 134.53 96.0999 134.47 96.1399 134.39C96.1099 134.47 96.0799 134.54 96.0799 134.53ZM96.9599 131.3C96.9099 132.22 96.8299 131.42 96.9599 131.16C96.9599 131.21 96.9599 131.26 96.9599 131.3ZM96.9899 130.81C96.9899 130.92 96.9799 131.04 96.9699 131.15C96.7699 131.46 96.6899 132.67 96.5999 132.99C96.4999 133.36 96.3699 133.71 96.2499 134.07C96.2499 134.08 96.2199 134.16 96.1899 134.25C95.8699 134.88 95.5499 135.5 95.1599 136.1C95.0399 136.28 94.5799 137.18 94.8799 136.55C94.8799 136.55 94.8799 136.54 94.8899 136.53C94.8799 136.54 94.8699 136.56 94.8599 136.57C94.6699 136.78 94.4899 137 94.2999 137.21C93.8699 137.68 93.3899 138.09 92.9199 138.53C92.7899 138.63 92.6399 138.76 92.5499 138.82C92.2199 139.05 91.8699 139.26 91.5199 139.47C91.1799 139.66 90.8299 139.84 90.4799 140.01C90.4599 140.01 90.4499 140.01 90.4299 140.02C89.7099 140.25 88.9999 140.47 88.2599 140.62C88.0899 140.57 87.4899 140.69 87.3499 140.7C86.9799 140.71 86.6099 140.71 86.2399 140.7C86.0199 140.7 85.4699 140.56 85.2199 140.61C84.8599 140.54 84.4999 140.46 84.1499 140.36C83.8499 140.28 83.5399 140.19 83.2399 140.09C83.0899 140.04 82.9399 139.98 82.7899 139.93C82.2799 139.68 81.7799 139.44 81.2899 139.15C80.9699 138.96 80.6599 138.76 80.3599 138.55C80.3099 138.51 80.2599 138.48 80.2099 138.44C79.7299 137.96 79.1999 137.54 78.7399 137.04C78.7099 137 78.4599 136.73 78.2899 136.53C78.1699 136.36 78.0499 136.2 77.9399 136.03C77.5799 135.49 77.2599 134.92 76.9699 134.34C76.9299 134.26 76.8899 134.19 76.8499 134.11C76.8499 134.08 76.8399 134.06 76.8299 134.03C76.7199 133.59 76.5399 133.16 76.4199 132.71C76.2999 132.26 76.2299 131.81 76.1299 131.36C76.1299 131.34 76.1299 131.33 76.1199 131.31C76.1199 131.22 76.1199 131.15 76.1199 131.12C76.0499 130.19 76.1299 129.28 76.1399 128.35C76.1399 128.31 76.1399 128.28 76.1399 128.26C76.1499 128.21 76.1699 128.15 76.1799 128.11C76.2499 127.72 76.3399 127.33 76.4299 126.95C76.5399 126.5 76.6799 126.06 76.8299 125.62C76.8799 125.47 76.9399 125.33 76.9899 125.18C77.3999 124.46 77.7499 123.73 78.2099 123.04C78.3099 122.9 78.4099 122.76 78.5099 122.62C78.8199 122.14 78.2399 122.98 78.2399 122.95C78.2899 122.65 78.8999 122.18 79.1199 121.94C79.1999 121.86 79.7999 121.25 80.1999 120.89C80.0699 120.97 80.0199 121 80.2399 120.85C80.4099 120.7 80.5399 120.59 80.5499 120.61C80.5499 120.61 80.5399 120.64 80.4999 120.66C80.5599 120.62 80.6199 120.57 80.6899 120.53C80.9899 120.32 81.3099 120.13 81.6199 119.95C81.9699 119.75 82.3399 119.57 82.6999 119.39C82.7399 119.38 82.7699 119.37 82.8099 119.35C83.5399 119.11 84.2699 118.89 85.0199 118.75C85.0499 118.75 85.0899 118.74 85.1199 118.73C85.4899 118.73 85.8799 118.67 86.2599 118.67C86.6099 118.67 86.9699 118.67 87.3199 118.69C87.3999 118.69 87.4699 118.7 87.5499 118.71C87.9799 119 89.0999 119.03 89.5999 119.19C89.6999 119.22 89.8099 119.26 89.9099 119.3C90.0899 119.44 90.7199 119.66 90.8599 119.73C91.2399 119.93 91.6099 120.15 91.9599 120.38C92.0999 120.47 92.2299 120.56 92.3599 120.65C92.5599 120.78 92.6099 120.8 92.5999 120.77C92.8299 120.98 93.0499 121.24 93.1499 121.33C93.4799 121.65 93.7999 121.98 94.1099 122.32C94.1999 122.43 94.3099 122.59 94.4299 122.75C94.4599 122.75 94.5399 122.8 94.6499 122.97C94.6699 123 94.6899 123.03 94.7099 123.06C94.7399 123.09 94.7699 123.12 94.7999 123.14C94.7699 123.12 94.7499 123.11 94.7299 123.09C94.7999 123.19 94.8699 123.3 94.9399 123.4C95.3799 124.07 95.7199 124.77 96.0999 125.48C96.0999 125.5 96.1199 125.52 96.1299 125.54C96.2499 125.85 96.3499 126.17 96.4499 126.49C96.6499 127.15 96.7699 127.81 96.9199 128.47C96.9299 128.58 96.9499 128.68 96.9499 128.7C96.9699 129.08 96.9999 129.46 96.9999 129.84C96.9999 130.16 96.9999 130.49 96.9799 130.81H96.9899Z" fill="#222222"/>
<path d="M412.66 102.5C407.95 89.04 398.1 78.08 387.13 69.28C375.81 60.2 362.76 53.05 348.51 49.88C341.29 48.28 333.9 47.91 326.53 47.73C319.63 47.57 312.62 47.61 305.83 46.27C299.57 45.03 294.18 42.49 288.87 39.02C284.04 35.85 279.81 32.53 275.46 29.11C266.93 22.39 258.39 15.67 249.59 9.30999C244.83 5.86999 239.81 3.05999 234.23 1.16999C233.7 0.989989 233.14 0.919993 232.55 0.939994C231.9 0.399993 230.9 0.259995 229.34 1.40999C229.34 1.40999 228.25 1.98999 226.92 3.38999C225.45 4.62999 224.34 6.15999 224.05 7.61999C222.29 11.33 221.2 16.94 223.03 25.12C223.42 26.88 223.84 28.09 224.28 28.85C224.28 28.87 224.28 28.88 224.28 28.9C224.41 28.95 224.48 29.3 224.31 29.24L224.38 29.41C224.55 29.47 224.71 29.54 224.88 29.61C225.08 29.77 225.28 29.85 225.48 29.85C228.4 31.07 230.52 32.53 233.35 34.27C236.89 36.44 240.29 38.83 243.6 41.33C243.92 41.57 244.25 41.82 244.57 42.07C244.47 42 244.99 42.39 245.18 42.54C246.04 43.21 246.89 43.89 247.74 44.58C249.37 45.9 250.99 47.24 252.59 48.6C253.88 49.69 255.16 50.8 256.43 51.92C237.47 51.91 218.51 51.82 199.56 51.17C188.6 50.8 177.64 50.23 166.7 49.37C161.65 48.97 156.61 48.51 151.57 47.98C151.62 47.62 151.32 48.37 151.37 48.01C150.78 47.95 150.19 47.89 149.6 47.84C147.78 47.58 145.98 47.31 144.17 47.03C144.17 47.05 144.17 47.08 144.17 47.14C144.12 47.14 144.08 47.13 144.03 47.12C144.06 47.1 144.1 47.05 144.13 47.02C144.09 47.02 144.04 47.01 144 47C143.99 47.07 144 47.1 144 47.12C143.53 47.07 143.07 47.02 142.6 46.96C141.25 46.79 139.9 46.62 138.55 46.45C138.3 46.42 137.53 46.31 137.39 46.29C136.73 46.2 136.06 46.11 135.4 46.01C125.98 44.69 116.6 43.07 107.29 41.17C107.41 41.06 107.55 40.94 107.29 41.17C103.24 40.44 101.54 38.72 97.5799 37.97C93.6699 36.69 64.6299 33.15 50.0599 36.18C43.5799 37.53 37.3799 39.63 30.9199 39.96C24.7999 40.27 18.4999 39.13 12.4899 40.71C5.18993 42.63 1.19993 48.7 0.709928 56.02C0.449928 59.92 1.03993 63.9 1.35993 67.78C1.70993 72.05 2.06993 76.31 2.41993 80.58C3.08993 88.71 3.67993 96.85 4.46993 104.97C5.17993 112.32 6.14993 119.79 8.90993 126.69C12.7599 136.3 19.4699 144.03 29.5599 147.14C34.4199 148.64 39.5899 149.14 44.6899 149.29C46.6799 153.79 49.3699 157.99 52.7699 161.72C58.7299 168.28 66.7199 173.11 75.2699 175.44C83.8999 177.79 93.3899 177.64 101.82 174.55C111.23 171.11 119.23 164.66 124.78 156.33C126.24 154.14 127.47 151.84 128.51 149.47C147.01 149.47 165.51 149.48 184.01 149.47C203.91 149.47 223.81 149.44 243.71 149.37C253.9 149.33 264.09 149.28 274.28 149.21C276.27 153.74 278.98 157.95 282.39 161.71C288.35 168.27 296.34 173.1 304.89 175.43C313.52 177.78 323.01 177.63 331.44 174.54C340.85 171.1 348.85 164.65 354.4 156.32C355.91 154.05 357.19 151.66 358.25 149.18C369.85 149.18 381.45 149.18 393.05 149.18C395 149.18 396.98 149.28 398.93 149.18C403.76 148.94 407.91 143.32 410.07 139.44C416.17 128.49 416.77 114.21 412.67 102.49L412.66 102.5ZM373.15 80.14C373.28 79.94 373.41 79.74 373.55 79.54C373.46 79.67 373.13 80 373.62 79.45C373.94 79.1 374.27 78.76 374.62 78.43C374.65 78.4 374.74 78.33 374.81 78.28C375.01 78.14 375.21 78.01 375.41 77.89C375.58 77.79 375.77 77.72 375.93 77.61C375.96 77.61 375.98 77.6 376.02 77.59C376.55 77.45 377.07 77.31 377.59 77.18C377.64 77.17 377.67 77.16 377.71 77.15C378.02 77.12 378.32 77.09 378.63 77.07C379.16 77.04 379.68 77.05 380.21 77.07C380.44 77.08 380.68 77.1 380.91 77.12C380.95 77.12 380.96 77.12 380.98 77.12C381.29 77.38 381.61 77.63 381.92 77.89C389.56 84.3 397.05 91.92 401.34 101.09C393.34 101.39 385.82 99.19 379.1 94.53C377.53 93.44 376.03 92.2 374.52 90.45C374.36 90.26 374.19 90.07 374.04 89.87C374.01 89.82 373.97 89.76 373.91 89.68C373.63 89.25 373.34 88.82 373.09 88.38C372.96 88.16 372.85 87.93 372.73 87.7C372.71 87.66 372.63 87.48 372.58 87.39C372.37 86.85 372.2 86.28 372.07 85.71C372.02 85.49 371.97 85.25 371.94 85.03C371.94 84.98 371.94 84.91 371.94 84.83C371.94 84.34 371.94 83.86 371.96 83.38C371.96 83.35 371.96 83.31 371.98 83.27C372.02 83.04 372.07 82.82 372.13 82.59C372.19 82.36 372.25 82.12 372.33 81.89C372.34 81.84 372.45 81.54 372.52 81.36C372.61 81.19 372.81 80.74 372.79 80.78C372.9 80.57 373.02 80.36 373.15 80.15V80.14ZM374.06 89.89C374.15 90.01 374.23 90.15 374.06 89.89V89.89ZM371.99 83.23C372.02 83.04 372.07 82.81 371.99 83.23V83.23ZM13.7499 98.7C12.9899 90.6 12.4799 82.46 11.8699 74.36C13.9099 74.21 15.9899 74.08 18.0199 74.36C18.5599 74.43 19.8699 74.76 20.6799 75.05C21.0999 75.21 21.1399 75.23 20.8199 75.1C21.0399 75.21 21.2699 75.32 21.4799 75.44C21.8099 75.62 22.1199 75.82 22.4299 76.02C22.6599 76.17 23.5299 77.03 23.6599 77.24C23.7299 77.36 24.1299 78.16 24.1399 78.13C24.2199 78.38 24.2999 78.62 24.3599 78.88C24.4099 79.16 24.4399 79.29 24.4399 79.3C24.6899 81.43 24.1199 83.16 23.5399 85.31C22.4799 89.24 21.4399 93.33 18.9999 96.02C18.7199 96.33 18.3999 96.61 18.0999 96.91C17.9399 97.04 17.8499 97.11 17.8299 97.14C17.6899 97.24 17.5499 97.34 17.4099 97.43C16.9999 97.7 16.5699 97.92 16.1399 98.15C16.0599 98.19 16.0099 98.21 15.9599 98.23C15.7599 98.3 15.5599 98.38 15.3499 98.44C14.9699 98.56 14.5799 98.65 14.1899 98.72C14.2299 98.7 13.9899 98.7 13.7299 98.72L13.7499 98.7ZM82.4699 166.76C81.8399 166.69 82.2799 166.73 82.6099 166.77C82.5599 166.77 82.5199 166.77 82.4699 166.76ZM100.11 164.54C100.11 164.54 100.38 164.45 100.55 164.38C100.38 164.47 100.21 164.56 100.11 164.54ZM122.36 133.31C122.33 133.75 122.3 134.18 122.25 134.61C122.22 134.88 122.19 135.15 122.16 135.42C122.16 135.42 122.16 135.42 122.16 135.43C121.77 137.4 121.44 139.36 120.86 141.29C120.72 141.76 120.55 142.22 120.39 142.68C120.33 142.83 120.28 142.98 120.24 143.13C120.15 143.39 120.07 143.66 119.97 143.93C119.92 144.07 119.82 144.49 119.69 144.83C119.7 144.75 119.66 144.76 119.54 145.02C119.4 145.32 119.27 145.62 119.13 145.92C118.26 147.77 117.25 149.56 116.11 151.27C115.83 151.69 115.54 152.1 115.25 152.51C115.12 152.69 114.98 152.87 114.85 153.05C114.4 153.67 114.81 153.14 114.97 152.92C114.45 153.83 113.51 154.68 112.81 155.44C111.39 156.98 109.85 158.41 108.22 159.73C108.17 159.77 107.48 160.29 107.7 160.13C107.61 160.19 107.54 160.24 107.53 160.25C107.15 160.53 106.76 160.8 106.37 161.06C105.46 161.68 104.52 162.25 103.57 162.79C102.68 163.29 101.78 163.75 100.85 164.18C100.79 164.21 100.7 164.26 100.61 164.31C100.56 164.33 100.48 164.36 100.36 164.41C99.8499 164.61 99.3299 164.81 98.8099 165C96.9699 165.66 95.0799 166.17 93.1599 166.54C92.7399 166.62 92.3299 166.68 91.9099 166.75C91.9199 166.75 91.9399 166.75 91.9499 166.75C91.9299 166.75 91.9099 166.75 91.8799 166.75C91.7799 166.77 91.6699 166.79 91.5699 166.8C91.4699 166.82 91.4099 166.82 91.3599 166.81C91.3399 166.81 91.3199 166.81 91.3099 166.81C90.2499 166.92 89.1899 166.99 88.1299 167.01C86.3099 167.05 84.4999 166.94 82.6899 166.75C82.4899 166.7 82.2399 166.69 82.0499 166.66C81.5799 166.58 81.1199 166.5 80.6499 166.41C79.6699 166.21 78.6999 165.98 77.7299 165.71C76.8699 165.47 76.0099 165.21 75.1699 164.91C74.6699 164.74 74.1799 164.56 73.6899 164.36C73.5099 164.29 73.3299 164.22 73.1599 164.15C73.1599 164.15 73.1499 164.15 73.1399 164.14C71.4099 163.34 69.7199 162.49 68.0999 161.5C67.2899 161 66.4899 160.48 65.7199 159.93C65.3799 159.69 65.0599 159.44 64.7299 159.2C64.5199 159.02 64.2999 158.85 64.0899 158.68C62.5799 157.42 61.1499 156.06 59.8299 154.6C59.6199 154.37 57.8599 152.55 57.9599 152.4C57.9599 152.4 58.7099 153.41 58.1499 152.65C58.0199 152.48 57.8899 152.31 57.7699 152.13C57.4499 151.69 57.1399 151.25 56.8499 150.81C55.6999 149.1 54.6799 147.29 53.8099 145.42C53.7299 145.25 53.4899 144.69 53.4399 144.58C53.2699 144.15 53.0999 143.72 52.9399 143.29C52.5099 142.1 52.1299 140.88 51.8099 139.65C51.5099 138.48 51.2599 137.3 51.0499 136.12C51.0099 135.86 50.9599 135.59 50.9199 135.33C50.8999 135.19 50.8799 135.1 50.8699 135.04C50.7799 134.46 50.7599 133.84 50.7199 133.27C50.5399 130.79 50.5699 128.3 50.8099 125.82C50.8399 125.55 50.8699 125.29 50.8899 125.02C50.9099 124.86 50.9199 124.76 50.9199 124.7C50.9799 124.25 51.0699 123.8 51.1499 123.36C51.3799 122.1 51.6599 120.86 51.9899 119.63C52.3099 118.47 52.6699 117.31 53.0799 116.18C53.2599 115.68 53.4599 115.18 53.6499 114.68C53.6499 114.66 53.6599 114.64 53.6699 114.62C53.6699 114.61 53.6799 114.6 53.6899 114.58C53.8599 114.22 54.0199 113.85 54.1899 113.49C55.1999 111.37 56.3899 109.33 57.7399 107.4C57.9999 107.02 58.2799 106.65 58.5499 106.28C58.5599 106.27 58.5699 106.26 58.5799 106.24C58.7299 106.05 58.8799 105.86 59.0299 105.68C59.6699 104.9 60.3299 104.15 61.0299 103.41C62.3899 101.97 63.8699 100.68 65.3899 99.42C65.5599 99.3 65.7199 99.17 65.8899 99.05C66.2799 98.77 66.6699 98.5 67.0699 98.23C67.8999 97.67 68.7599 97.15 69.6299 96.66C70.4499 96.2 71.2799 95.77 72.1299 95.37C72.2999 95.29 72.5199 95.22 72.7399 95.14C72.6599 95.24 72.8599 95.23 73.2499 94.87C73.2499 94.87 73.2499 94.87 73.2399 94.87C73.2399 94.87 73.2599 94.86 73.2699 94.85C73.2699 94.85 73.2599 94.86 73.2499 94.87C73.4299 94.8 73.6099 94.72 73.7999 94.66C75.6199 93.97 77.4999 93.41 79.3999 93C80.2199 92.82 81.0399 92.71 81.8599 92.55C82.0099 92.53 82.1499 92.52 82.2999 92.5C82.8099 92.45 83.3099 92.4 83.8199 92.37C85.6999 92.25 87.5899 92.27 89.4699 92.42C89.8299 92.45 90.1799 92.49 90.5299 92.53C90.4899 92.52 90.4699 92.51 90.4199 92.5C90.4899 92.52 90.5699 92.53 90.6399 92.54C90.5999 92.54 90.5599 92.54 90.5199 92.53C91.3499 92.76 91.2699 92.65 90.9999 92.59C90.9999 92.59 91.0199 92.59 91.0299 92.59C92.0499 92.75 93.0599 92.95 94.0499 93.2C95.7899 93.62 97.4699 94.18 99.1399 94.82C99.3099 94.94 99.6299 95.02 99.7899 95.09C100.22 95.29 100.65 95.49 101.08 95.7C101.99 96.15 102.88 96.64 103.75 97.16C104.54 97.63 105.32 98.14 106.07 98.66C106.4 98.89 107.19 99.29 107.4 99.63C107.36 99.56 106.47 98.89 107.18 99.46C107.44 99.67 107.7 99.88 107.96 100.09C109.54 101.41 111.01 102.85 112.39 104.38C112.79 104.83 113.19 105.28 113.57 105.75C113.82 106.05 114.53 107.2 113.9 106.14C114.46 107.09 115.23 107.95 115.84 108.88C117.01 110.66 118.05 112.53 118.96 114.46C119.06 114.67 119.15 114.87 119.24 115.08C119.25 115.11 119.33 115.28 119.4 115.43C119.43 115.5 119.46 115.56 119.47 115.6C119.57 115.86 119.68 116.12 119.78 116.39C120.14 117.33 120.46 118.29 120.75 119.26C121.33 121.18 121.74 123.13 122.07 125.11C122.07 125.11 122.07 125.09 122.08 125.08C122.08 125.08 122.08 125.12 122.08 125.16C122.1 125.25 122.11 125.34 122.13 125.43C122.15 125.56 122.16 125.63 122.15 125.67C122.15 125.69 122.15 125.73 122.16 125.74C122.21 126.23 122.26 126.72 122.3 127.22C122.38 128.26 122.42 129.3 122.42 130.34C122.42 131.32 122.39 132.31 122.33 133.29L122.36 133.31ZM72.7499 95.16C72.7899 95.11 72.8899 95.03 73.0799 94.96C73.1299 94.94 73.1899 94.92 73.2399 94.9C73.1099 95.01 72.9399 95.09 72.7499 95.16ZM90.6699 92.56C90.7299 92.56 90.7999 92.57 90.8599 92.58C90.9199 92.58 90.9699 92.6 91.0299 92.61C90.9199 92.59 90.7899 92.58 90.6699 92.56ZM99.2799 94.88C99.2799 94.88 99.3699 94.91 99.4199 94.93C100.03 95.17 99.5699 95 99.2799 94.88ZM158.11 139.47C149.26 139.47 140.41 139.47 131.56 139.47C133.87 127.15 131.32 113.96 124.23 103.43C122.8 101.3 121.21 99.27 119.5 97.35C113.38 90.58 105.22 85.52 96.2899 83.48C87.8599 81.55 78.7899 82.04 70.7199 85.22C61.7799 88.74 54.3599 94.76 48.9299 102.67C42.7699 111.65 39.8499 123.07 40.7799 133.91C40.9299 135.68 41.1799 137.43 41.5199 139.16C38.7799 138.97 36.1499 138.59 33.3199 137.83C32.3799 137.58 31.4599 137.29 30.5499 136.95C30.3599 136.88 30.0399 136.74 29.9099 136.68C29.5799 136.53 29.2499 136.38 28.9299 136.21C28.1899 135.83 27.4799 135.41 26.7899 134.95C26.4799 134.74 26.1799 134.52 25.8799 134.31C26.7699 134.94 25.7999 134.23 25.4799 133.95C24.9399 133.47 24.4199 132.97 23.9299 132.45C23.6399 132.14 23.3599 131.83 23.0899 131.51C22.9299 131.32 22.6999 131.03 22.6099 130.93C21.4799 129.42 20.4599 127.82 19.5799 126.15C16.8999 121.07 15.7199 115.2 14.9699 109.55C14.8199 108.43 14.6899 107.3 14.5599 106.17C16.6499 106.02 18.7099 105.38 20.6099 104.3C24.5699 102.04 26.9799 98.2 28.6599 94.08C30.2999 90.06 31.6599 85.45 31.9699 81.11C32.3099 76.26 30.0099 71.94 25.9399 69.36C21.5699 66.58 16.2799 66.59 11.2899 66.94C11.0699 64.45 10.8399 61.97 10.7199 59.48C10.6099 57.1 10.5199 54.59 11.7999 52.5C12.2099 51.83 11.7499 52.42 12.2899 51.89C12.4599 51.73 12.6299 51.56 12.7999 51.41C12.8299 51.39 12.8899 51.36 12.9899 51.3C13.1599 51.2 13.8099 50.85 13.9199 50.78C14.0899 50.73 14.8999 50.46 15.1599 50.39C15.3699 50.33 16.3099 50.14 16.4799 50.09C16.6099 50.09 17.4099 49.99 17.6299 49.98C18.8599 49.89 20.0899 49.88 21.3199 49.9C26.9399 49.99 32.3599 50.06 37.9499 49.28C43.6299 48.49 49.1999 47.08 54.6199 45.23C60.4799 43.24 88.9599 48.62 98.7599 49.59C113.4 52.77 128.2 55.21 143.08 57.02C144.52 80.07 148.33 102.99 154.52 125.24C155.85 130.03 157.29 134.78 158.84 139.5C158.61 139.5 158.38 139.5 158.14 139.5L158.11 139.47ZM249.95 139.34C239.13 139.38 228.31 139.42 217.48 139.44C214.24 139.44 210.99 139.44 207.75 139.44C208.82 138.17 209.88 136.91 210.95 135.64C211.6 134.86 212.05 134.04 212.05 132.99C212.05 132.07 211.64 130.97 210.95 130.34C210.24 129.68 209.3 129.2 208.3 129.24C207.36 129.28 206.28 129.59 205.65 130.34C203.12 133.35 200.58 136.36 198.05 139.37C198.03 139.4 198.01 139.42 197.99 139.45C195.01 139.45 192.02 139.45 189.04 139.45L200.03 127.09C201.33 125.62 201.58 123.21 200.03 121.79C198.61 120.48 196.12 120.22 194.73 121.79C189.66 127.49 184.59 133.2 179.52 138.9C179.36 139.07 179.23 139.26 179.1 139.46C176.25 139.46 173.39 139.46 170.54 139.46C170.54 139.46 170.55 139.45 170.56 139.44C173.73 136.11 176.9 132.79 180.06 129.46C181.41 128.04 181.58 125.55 180.06 124.16C178.59 122.81 176.2 122.64 174.76 124.16C171.59 127.49 168.42 130.81 165.25 134.14C165.17 134.22 165.12 134.31 165.05 134.4C158.93 115.08 154.54 95.05 152.18 75.12C151.5 69.38 150.98 63.61 150.61 57.84C154.54 58.26 158.48 58.66 162.42 58.99C184.57 60.89 206.81 61.52 229.03 61.75C241.27 61.88 253.51 61.88 265.75 61.88C258.62 81.4 253.81 101.7 251.37 122.35C250.7 127.99 250.24 133.65 249.94 139.32L249.95 139.34ZM312.09 166.76C311.46 166.69 311.9 166.73 312.23 166.77C312.18 166.77 312.14 166.77 312.09 166.76ZM329.73 164.54C329.73 164.54 330 164.45 330.17 164.38C330 164.47 329.83 164.56 329.73 164.54ZM351.98 133.31C351.95 133.75 351.92 134.18 351.87 134.61C351.84 134.88 351.81 135.15 351.78 135.42C351.78 135.42 351.78 135.42 351.78 135.43C351.39 137.4 351.06 139.36 350.48 141.29C350.21 142.18 349.92 143.06 349.59 143.93C349.54 144.07 349.44 144.49 349.31 144.83C349.32 144.75 349.28 144.76 349.16 145.02C349.02 145.32 348.89 145.62 348.75 145.92C347.88 147.77 346.87 149.56 345.73 151.27C345.45 151.69 345.16 152.1 344.87 152.51C344.74 152.69 344.6 152.87 344.47 153.05C344.02 153.67 344.43 153.14 344.59 152.92C344.07 153.83 343.13 154.68 342.43 155.44C341.01 156.98 339.47 158.41 337.84 159.73C337.79 159.77 337.09 160.29 337.32 160.13C337.23 160.19 337.16 160.24 337.15 160.25C336.77 160.53 336.38 160.8 335.99 161.06C335.08 161.68 334.14 162.25 333.19 162.79C332.3 163.29 331.4 163.75 330.47 164.18C330.41 164.21 330.32 164.26 330.23 164.31C330.18 164.33 330.1 164.36 329.98 164.41C329.47 164.61 328.95 164.81 328.43 165C326.59 165.66 324.7 166.17 322.78 166.54C322.36 166.62 321.95 166.68 321.53 166.75C321.54 166.75 321.56 166.75 321.57 166.75C321.55 166.75 321.53 166.75 321.5 166.75C321.4 166.77 321.29 166.79 321.19 166.8C321.09 166.82 321.03 166.82 320.98 166.81C320.96 166.81 320.94 166.81 320.93 166.81C319.87 166.92 318.81 166.99 317.75 167.01C315.93 167.05 314.12 166.94 312.31 166.75C312.11 166.7 311.86 166.69 311.67 166.66C311.2 166.58 310.74 166.5 310.27 166.41C309.29 166.21 308.32 165.98 307.35 165.71C306.49 165.47 305.63 165.21 304.79 164.91C304.29 164.74 303.8 164.56 303.31 164.36C303.13 164.29 302.95 164.22 302.78 164.15C302.78 164.15 302.77 164.15 302.76 164.14C301.03 163.34 299.34 162.49 297.72 161.5C296.91 161 296.11 160.48 295.34 159.93C295 159.69 294.68 159.44 294.35 159.2C294.14 159.02 293.92 158.85 293.71 158.68C292.2 157.42 290.77 156.06 289.45 154.6C289.24 154.37 287.48 152.55 287.58 152.4C287.58 152.4 288.33 153.41 287.77 152.65C287.64 152.48 287.51 152.31 287.39 152.13C287.07 151.69 286.76 151.25 286.47 150.81C285.32 149.1 284.3 147.29 283.43 145.42C283.35 145.25 283.11 144.69 283.06 144.58C282.89 144.15 282.72 143.72 282.56 143.29C282.13 142.1 281.75 140.88 281.43 139.65C281.13 138.48 280.88 137.3 280.67 136.12C280.63 135.86 280.58 135.59 280.54 135.33C280.52 135.19 280.5 135.1 280.49 135.04C280.4 134.46 280.38 133.84 280.34 133.27C280.16 130.79 280.19 128.3 280.43 125.82C280.46 125.55 280.49 125.29 280.51 125.02C280.53 124.86 280.54 124.77 280.54 124.7C280.6 124.25 280.69 123.79 280.77 123.36C281 122.1 281.28 120.86 281.61 119.63C281.93 118.47 282.29 117.31 282.7 116.18C282.88 115.68 283.08 115.18 283.27 114.68C283.27 114.66 283.28 114.64 283.29 114.62C283.29 114.61 283.3 114.6 283.31 114.58C283.48 114.22 283.64 113.85 283.81 113.49C284.82 111.37 286.01 109.33 287.36 107.4C287.62 107.02 287.9 106.65 288.17 106.28C288.18 106.27 288.19 106.26 288.2 106.24C288.35 106.05 288.5 105.86 288.65 105.68C289.29 104.9 289.95 104.15 290.65 103.41C292.01 101.97 293.49 100.68 295.01 99.42C295.18 99.3 295.34 99.17 295.51 99.05C295.9 98.77 296.29 98.5 296.69 98.23C297.52 97.67 298.38 97.15 299.25 96.66C300.07 96.2 300.9 95.77 301.75 95.37C301.92 95.29 302.14 95.22 302.36 95.14C302.28 95.24 302.48 95.23 302.87 94.87C302.87 94.87 302.87 94.87 302.86 94.87C302.86 94.87 302.88 94.86 302.89 94.85C302.89 94.85 302.88 94.86 302.87 94.87C303.05 94.8 303.23 94.72 303.42 94.66C305.24 93.97 307.12 93.41 309.02 93C309.84 92.82 310.66 92.71 311.48 92.55C311.63 92.53 311.77 92.52 311.92 92.5C312.43 92.45 312.93 92.4 313.44 92.37C315.32 92.25 317.21 92.27 319.09 92.42C319.45 92.45 319.8 92.49 320.15 92.53C320.11 92.52 320.09 92.51 320.04 92.5C320.11 92.52 320.19 92.53 320.26 92.54C320.22 92.54 320.18 92.54 320.14 92.53C320.97 92.76 320.89 92.65 320.62 92.59C320.62 92.59 320.64 92.59 320.65 92.59C321.67 92.75 322.67 92.95 323.67 93.2C325.41 93.62 327.09 94.18 328.76 94.82C328.93 94.94 329.25 95.02 329.41 95.09C329.84 95.29 330.27 95.49 330.7 95.7C331.61 96.15 332.5 96.64 333.37 97.16C334.16 97.63 334.94 98.14 335.69 98.66C336.02 98.89 336.81 99.29 337.02 99.63C336.98 99.56 336.09 98.89 336.8 99.46C337.06 99.67 337.32 99.88 337.58 100.09C339.16 101.41 340.63 102.85 342.01 104.38C342.41 104.83 342.81 105.28 343.19 105.75C343.44 106.05 344.15 107.2 343.52 106.14C344.08 107.09 344.85 107.95 345.46 108.88C346.63 110.66 347.67 112.53 348.58 114.46C348.68 114.67 348.77 114.87 348.86 115.08C348.87 115.11 348.95 115.28 349.02 115.44C349.05 115.51 349.07 115.57 349.09 115.61C349.19 115.87 349.3 116.13 349.4 116.4C349.76 117.34 350.08 118.3 350.37 119.27C350.95 121.19 351.36 123.14 351.69 125.12C351.69 125.12 351.69 125.1 351.7 125.09C351.7 125.09 351.7 125.13 351.7 125.17C351.72 125.26 351.73 125.35 351.75 125.44C351.77 125.58 351.78 125.64 351.77 125.68C351.77 125.7 351.77 125.74 351.78 125.75C351.83 126.24 351.88 126.73 351.92 127.23C352 128.27 352.04 129.31 352.04 130.35C352.04 131.33 352.01 132.32 351.95 133.3L351.98 133.31ZM302.37 95.16C302.41 95.11 302.51 95.03 302.7 94.96C302.75 94.94 302.81 94.92 302.86 94.9C302.73 95.01 302.56 95.09 302.37 95.16ZM320.29 92.56C320.35 92.56 320.42 92.57 320.48 92.58C320.54 92.58 320.59 92.6 320.65 92.61C320.54 92.59 320.41 92.58 320.29 92.56ZM328.9 94.88C328.9 94.88 328.99 94.91 329.04 94.93C329.65 95.17 329.19 95 328.9 94.88ZM402.79 131.54C402.35 132.73 401.09 135.13 399.95 136.74C399.84 136.9 399.79 136.98 399.76 137.01C399.74 137.03 399.67 137.09 399.52 137.26C399.2 137.62 398.88 137.97 398.54 138.31C398.24 138.61 397.91 138.89 397.59 139.17H361.23C363.45 126.94 360.88 113.86 353.84 103.4C352.41 101.27 350.82 99.24 349.11 97.32C342.99 90.55 334.83 85.49 325.9 83.45C317.47 81.52 308.4 82.01 300.33 85.19C291.39 88.71 283.97 94.73 278.54 102.64C272.38 111.62 269.46 123.04 270.39 133.88C270.54 135.68 270.8 137.46 271.14 139.22C266.57 139.25 262.01 139.27 257.44 139.29C258.57 117.76 262.41 96.6 268.88 75.91C270.78 69.83 272.91 63.82 275.24 57.88C275.87 56.28 274.8 54.28 273.3 53.52C273.24 53.46 273.2 53.4 273.14 53.35C260.64 42.23 248.06 30.47 233.15 22.61C232.07 22.04 230.97 21.5 229.86 20.97C230.75 17.76 231.55 14.15 232.18 11.02C232.89 11.28 233.6 11.55 234.32 11.81C234.56 11.92 234.81 12.03 235.05 12.14C235.55 12.37 236.05 12.62 236.54 12.87C238.53 13.89 240.43 15.06 242.28 16.32C247.94 20.17 253.39 24.42 258.79 28.61C267.2 35.12 275.32 42.12 284.26 47.92C288.84 50.89 293.69 53.39 298.96 54.9C304.78 56.57 310.9 57.16 316.93 57.45C322.99 57.74 329.07 57.67 335.13 58.07C340.85 58.44 346.42 59.43 351.91 61.13C359.21 63.39 366.17 66.78 372.59 70.96C367.97 73.18 365.05 77.89 364.52 83C363.93 88.67 367.1 93.99 371.15 97.7C375.39 101.59 380.57 104.45 385.99 106.32C391.73 108.3 397.97 109.02 404.01 108.39C406.02 116.06 405.7 123.81 402.81 131.54H402.79Z" fill="#222222"/>
<path d="M144.12 47.01C144.12 47.01 144.15 47.01 144.17 47.01C144.17 46.98 144.15 46.98 144.12 47.01Z" fill="#222222"/>
<path d="M223 28.81C223.09 28.84 223.17 28.88 223.26 28.91C223.2 28.89 223.12 28.86 223 28.82V28.81Z" fill="#222222"/>
<path d="M351.73 125.14C351.64 125.35 351.79 125.85 351.81 125.69C351.79 125.55 351.74 125.31 351.74 125.18C351.74 125.17 351.74 125.15 351.74 125.14H351.73Z" fill="#222222"/>
<path d="M321.01 166.83C321.16 166.81 321.39 166.76 321.53 166.76C321.53 166.76 321.55 166.76 321.56 166.76C321.05 166.65 320.79 166.82 321.02 166.83H321.01Z" fill="#222222"/>
<path d="M324.51 136.53C324.64 136.35 324.72 136.09 324.51 136.53V136.53Z" fill="#222222"/>
<path d="M309.91 120.79C309.91 120.79 309.87 120.82 309.85 120.83C309.84 120.84 309.82 120.86 309.81 120.87C309.91 120.8 310.05 120.71 310.12 120.65C310.05 120.7 309.98 120.75 309.91 120.79Z" fill="#222222"/>
<path d="M324.37 123.09C324.37 123.09 324.36 123.07 324.35 123.06C324.26 122.98 324.16 122.87 324.07 122.75C324.03 122.76 324.11 122.92 324.37 123.09Z" fill="#222222"/>
<path d="M330.82 115.25C325.45 109.39 316.7 106.97 309.2 109.92C300.66 113.27 294.94 122.05 295.74 131.31C296.49 140.08 302.41 147.57 310.97 149.96C319.52 152.35 328.34 148.68 333.24 141.43C335.69 137.8 336.94 133.07 336.59 128.71C336.19 123.61 334.2 119.09 330.83 115.25H330.82ZM322.1 120.65C321.98 120.56 321.83 120.46 321.77 120.45C321.85 120.45 321.97 120.54 322.1 120.65ZM319.82 119.38C320.42 119.58 319.82 119.43 319.58 119.3C319.66 119.33 319.74 119.36 319.82 119.38ZM317.41 118.71C318.29 118.77 317.48 118.84 317.19 118.69C317.26 118.69 317.33 118.7 317.41 118.71ZM305.73 131.41C305.76 131.56 305.78 131.71 305.78 131.7C305.75 131.67 305.74 131.54 305.73 131.41ZM307.72 136.31C307.72 136.31 307.78 136.38 307.85 136.47C307.77 136.38 307.71 136.31 307.72 136.31ZM325.7 134.53C325.7 134.53 325.72 134.47 325.76 134.38C325.73 134.46 325.7 134.53 325.7 134.53ZM326.58 131.3C326.53 132.22 326.45 131.42 326.58 131.16C326.58 131.21 326.58 131.26 326.58 131.3ZM326.61 130.81C326.61 130.92 326.6 131.04 326.59 131.15C326.39 131.46 326.31 132.67 326.22 132.99C326.12 133.36 325.99 133.71 325.87 134.07C325.87 134.08 325.84 134.16 325.81 134.25C325.49 134.88 325.17 135.5 324.78 136.1C324.66 136.28 324.2 137.18 324.5 136.55C324.5 136.55 324.5 136.54 324.51 136.53C324.5 136.54 324.49 136.56 324.48 136.57C324.29 136.78 324.11 137 323.92 137.21C323.49 137.68 323 138.09 322.54 138.53C322.41 138.63 322.26 138.76 322.17 138.82C321.84 139.05 321.49 139.26 321.14 139.47C320.8 139.66 320.45 139.84 320.1 140.01C320.08 140.01 320.07 140.01 320.05 140.02C319.33 140.25 318.62 140.47 317.88 140.62C317.71 140.57 317.11 140.69 316.97 140.7C316.6 140.71 316.23 140.71 315.86 140.7C315.64 140.7 315.09 140.56 314.84 140.61C314.48 140.54 314.12 140.46 313.77 140.36C313.47 140.28 313.16 140.19 312.86 140.09C312.71 140.04 312.56 139.98 312.41 139.93C311.9 139.68 311.39 139.44 310.91 139.14C310.59 138.95 310.28 138.75 309.98 138.54C309.93 138.5 309.88 138.47 309.83 138.43C309.35 137.95 308.82 137.53 308.36 137.03C308.33 136.99 308.08 136.72 307.91 136.52C307.79 136.35 307.67 136.19 307.56 136.02C307.2 135.48 306.88 134.91 306.59 134.33C306.55 134.25 306.51 134.18 306.47 134.1C306.47 134.07 306.46 134.05 306.45 134.02C306.34 133.58 306.16 133.15 306.04 132.7C305.92 132.25 305.85 131.8 305.75 131.35C305.75 131.33 305.75 131.32 305.74 131.3C305.74 131.21 305.74 131.14 305.74 131.11C305.67 130.18 305.75 129.27 305.76 128.34C305.76 128.3 305.76 128.27 305.76 128.25C305.77 128.2 305.79 128.14 305.8 128.1C305.87 127.71 305.96 127.32 306.05 126.94C306.16 126.49 306.3 126.05 306.45 125.61C306.5 125.46 306.56 125.32 306.61 125.17C307.02 124.45 307.37 123.72 307.83 123.03C307.93 122.89 308.03 122.75 308.13 122.61C308.44 122.13 307.86 122.97 307.86 122.94C307.91 122.64 308.52 122.17 308.74 121.93C308.82 121.85 309.42 121.24 309.81 120.88C309.68 120.96 309.63 120.99 309.85 120.84C310.02 120.69 310.15 120.58 310.16 120.6C310.16 120.6 310.15 120.63 310.11 120.65C310.17 120.61 310.23 120.56 310.3 120.52C310.6 120.31 310.92 120.12 311.23 119.94C311.58 119.74 311.95 119.56 312.31 119.38C312.35 119.37 312.38 119.36 312.42 119.34C313.15 119.1 313.88 118.88 314.63 118.74C314.66 118.74 314.7 118.73 314.73 118.72C315.1 118.72 315.49 118.66 315.87 118.66C316.22 118.66 316.58 118.66 316.93 118.68C317.01 118.68 317.08 118.69 317.16 118.7C317.59 118.99 318.71 119.02 319.21 119.18C319.31 119.21 319.42 119.25 319.52 119.29C319.7 119.43 320.33 119.65 320.47 119.72C320.85 119.92 321.22 120.14 321.57 120.37C321.71 120.46 321.84 120.55 321.97 120.64C322.17 120.77 322.22 120.79 322.21 120.76C322.44 120.97 322.66 121.23 322.76 121.32C323.09 121.64 323.41 121.97 323.72 122.31C323.81 122.42 323.92 122.58 324.04 122.74C324.07 122.74 324.15 122.79 324.26 122.96C324.28 122.99 324.3 123.02 324.32 123.05C324.35 123.08 324.38 123.11 324.41 123.13C324.38 123.11 324.36 123.1 324.34 123.08C324.41 123.18 324.48 123.29 324.55 123.39C324.99 124.06 325.33 124.76 325.71 125.47C325.71 125.49 325.73 125.51 325.74 125.53C325.86 125.84 325.96 126.16 326.06 126.48C326.26 127.14 326.38 127.8 326.53 128.46C326.54 128.57 326.56 128.67 326.56 128.69C326.58 129.07 326.61 129.45 326.61 129.83C326.61 130.15 326.61 130.48 326.59 130.8L326.61 130.81Z" fill="#222222"/>
<path d="M181.69 76.9C178.05 77.06 174.4 77.22 170.76 77.38C168.8 77.47 166.92 79.04 167.01 81.13C167.1 83.09 168.66 84.97 170.76 84.88C174.4 84.72 178.05 84.56 181.69 84.4C183.65 84.31 185.53 82.74 185.44 80.65C185.35 78.69 183.79 76.81 181.69 76.9Z" fill="#222222"/>
<path d="M210.71 25.53C210.71 25.53 210.67 25.53 210.65 25.53C210.7 25.53 210.74 25.54 210.78 25.55C210.76 25.55 210.73 25.55 210.71 25.55V25.53Z" fill="#222222"/>
</svg>
