<svg width="59" height="27" viewBox="0 0 59 27" fill="none" xmlns="http://www.w3.org/2000/svg">
<path d="M9.00946 7.56785C8.88777 7.5001 8.74089 7.46622 8.60521 7.51188C8.56325 7.53103 8.52128 7.54871 8.47932 7.56785C8.43316 7.59731 8.39259 7.63413 8.35762 7.67538C8.23593 7.84035 8.09605 7.98617 7.94218 8.11726C7.8107 8.21594 7.67082 8.30137 7.52395 8.37207C7.41904 8.41479 7.31133 8.45309 7.20083 8.48107C6.93366 8.54883 6.74902 8.88318 6.83434 9.16009C6.92386 9.45173 7.19383 9.61965 7.47918 9.546C7.80091 9.46352 8.11843 9.32064 8.39539 9.12769C8.71292 8.90675 8.9675 8.64162 9.1969 8.32347C9.27383 8.21741 9.28222 8.02004 9.25005 7.89779C9.21648 7.76964 9.12276 7.63119 9.00946 7.56785Z" fill="#C0BEBE"/>
<path d="M55.5458 17.8681C55.4115 17.8357 55.2605 17.843 55.1416 17.924C55.0255 18.0021 54.9387 18.1126 54.901 18.254C54.8129 18.581 54.7233 18.908 54.6352 19.2335C54.5974 19.3705 54.6198 19.5369 54.6884 19.6592C54.7527 19.774 54.8772 19.883 55.0017 19.9125C55.136 19.9449 55.287 19.9375 55.4059 19.8565C55.522 19.7785 55.6088 19.668 55.6465 19.5266C55.7347 19.1996 55.8242 18.8726 55.9123 18.5471C55.9501 18.4101 55.9277 18.2437 55.8591 18.1214C55.7948 18.0065 55.6703 17.8975 55.5458 17.8681Z" fill="#C0BEBE"/>
<path d="M17.4903 18.8535C17.4777 18.8844 17.4987 18.958 17.5015 18.9345C17.4987 18.9139 17.4917 18.8785 17.4917 18.8594C17.4917 18.8579 17.4917 18.8549 17.4917 18.8535H17.4903Z" fill="#C0BEBE"/>
<path d="M13.1932 24.9941C13.2142 24.9912 13.2464 24.9838 13.266 24.9838C13.266 24.9838 13.2688 24.9838 13.2702 24.9838C13.1988 24.9676 13.1625 24.9926 13.1946 24.9941H13.1932Z" fill="#C0BEBE"/>
<path d="M13.6632 18.5515C13.6632 18.5515 13.6618 18.5486 13.6604 18.5471C13.6478 18.5353 13.6339 18.5191 13.6213 18.5014C13.6157 18.5029 13.6269 18.5265 13.6632 18.5515Z" fill="#C0BEBE"/>
<path d="M11.6406 18.2127C11.6406 18.2127 11.635 18.2172 11.6322 18.2186C11.6308 18.2201 11.628 18.223 11.6266 18.2245C11.6406 18.2142 11.6602 18.201 11.67 18.1921C11.6602 18.1995 11.6504 18.2068 11.6406 18.2127Z" fill="#C0BEBE"/>
<path d="M13.6828 20.5311C13.701 20.5046 13.7122 20.4663 13.6828 20.5311V20.5311Z" fill="#C0BEBE"/>
<path d="M14.5655 17.3967C13.8143 16.5336 12.5904 16.1771 11.5413 16.6117C10.3467 17.1051 9.5466 18.3983 9.6585 19.7623C9.76341 21.054 10.5915 22.1573 11.7889 22.5093C12.9848 22.8613 14.2186 22.3207 14.904 21.2529C15.2467 20.7182 15.4215 20.0215 15.3726 19.3793C15.3166 18.6281 15.0382 17.9623 14.5669 17.3967H14.5655ZM13.3457 18.1921C13.3289 18.1789 13.3079 18.1641 13.2996 18.1627C13.3107 18.1627 13.3275 18.1759 13.3457 18.1921ZM13.0268 18.0051C13.1107 18.0345 13.0268 18.0124 12.9932 17.9933C13.0044 17.9977 13.0156 18.0021 13.0268 18.0051ZM12.6883 17.9064C12.8114 17.9152 12.6981 17.9255 12.6575 17.9034C12.6673 17.9034 12.6771 17.9049 12.6883 17.9064ZM11.0559 19.777C11.0601 19.7991 11.0629 19.8212 11.0629 19.8197C11.0587 19.8153 11.0573 19.7961 11.0559 19.777ZM11.3343 20.4987C11.3343 20.4987 11.3426 20.509 11.3524 20.5223C11.3412 20.509 11.3329 20.4987 11.3343 20.4987ZM13.8493 20.2365C13.8493 20.2365 13.8521 20.2277 13.8577 20.2159C13.8535 20.2277 13.8493 20.238 13.8493 20.2365ZM13.9724 19.7608C13.9654 19.8963 13.9542 19.7785 13.9724 19.7402C13.9724 19.7475 13.9724 19.7549 13.9724 19.7608ZM13.9766 19.6886C13.9766 19.7048 13.9752 19.7225 13.9738 19.7387C13.9458 19.7844 13.9346 19.9626 13.922 20.0097C13.908 20.0642 13.8898 20.1158 13.8731 20.1688C13.8731 20.1703 13.8689 20.182 13.8647 20.1953C13.8199 20.2881 13.7751 20.3794 13.7206 20.4678C13.7038 20.4943 13.6395 20.6269 13.6814 20.5341C13.6814 20.5341 13.6814 20.5326 13.6828 20.5311C13.6814 20.5326 13.68 20.5356 13.6786 20.537C13.652 20.568 13.6269 20.6004 13.6003 20.6313C13.5401 20.7005 13.473 20.7609 13.4073 20.8257C13.3891 20.8405 13.3681 20.8596 13.3555 20.8684C13.3093 20.9023 13.2604 20.9332 13.2114 20.9642C13.1639 20.9922 13.1149 21.0187 13.066 21.0437C13.0632 21.0437 13.0618 21.0437 13.059 21.0452C12.9582 21.0791 12.8589 21.1115 12.7554 21.1336C12.7316 21.1262 12.6477 21.1439 12.6281 21.1453C12.5764 21.1468 12.5246 21.1468 12.4729 21.1453C12.4421 21.1453 12.3652 21.1247 12.3302 21.1321C12.2798 21.1218 12.2295 21.11 12.1805 21.0953C12.1386 21.0835 12.0952 21.0702 12.0532 21.0555C12.0322 21.0481 12.0113 21.0393 11.9903 21.0319C11.9189 20.9951 11.849 20.9598 11.7805 20.917C11.7357 20.8891 11.6923 20.8596 11.6504 20.8287C11.6434 20.8228 11.6364 20.8184 11.6294 20.8125C11.5623 20.7418 11.4881 20.6799 11.4238 20.6063C11.4196 20.6004 11.3846 20.5606 11.3608 20.5311C11.344 20.5061 11.3273 20.4825 11.3119 20.4575C11.2615 20.3779 11.2168 20.294 11.1762 20.2086C11.1706 20.1968 11.165 20.1865 11.1594 20.1747C11.1594 20.1703 11.158 20.1673 11.1566 20.1629C11.1412 20.0981 11.116 20.0348 11.0993 19.9685C11.0825 19.9022 11.0727 19.8359 11.0587 19.7696C11.0587 19.7667 11.0587 19.7652 11.0573 19.7623C11.0573 19.749 11.0573 19.7387 11.0573 19.7343C11.0475 19.5973 11.0587 19.4633 11.0601 19.3263C11.0601 19.3204 11.0601 19.316 11.0601 19.313C11.0615 19.3057 11.0643 19.2968 11.0657 19.2909C11.0755 19.2335 11.0881 19.176 11.1007 19.1201C11.116 19.0538 11.1356 18.989 11.1566 18.9242C11.1636 18.9021 11.172 18.8814 11.179 18.8594C11.2363 18.7533 11.2853 18.6458 11.3496 18.5441C11.3636 18.5235 11.3776 18.5029 11.3916 18.4823C11.435 18.4116 11.3538 18.5353 11.3538 18.5309C11.3608 18.4867 11.4462 18.4175 11.4769 18.3821C11.4881 18.3703 11.572 18.2805 11.628 18.2275C11.6098 18.2393 11.6028 18.2437 11.6336 18.2216C11.6574 18.1995 11.6756 18.1833 11.677 18.1862C11.677 18.1862 11.6756 18.1906 11.67 18.1936C11.6784 18.1877 11.6867 18.1803 11.6965 18.1744C11.7385 18.1435 11.7833 18.1155 11.8266 18.089C11.8756 18.0596 11.9273 18.033 11.9777 18.0065C11.9833 18.0051 11.9875 18.0036 11.9931 18.0006C12.0952 17.9653 12.1973 17.9329 12.3022 17.9123C12.3064 17.9123 12.312 17.9108 12.3162 17.9093C12.368 17.9093 12.4225 17.9005 12.4757 17.9005C12.5246 17.9005 12.575 17.9005 12.6239 17.9034C12.6351 17.9034 12.6449 17.9049 12.6561 17.9064C12.7163 17.9491 12.8729 17.9535 12.9429 17.9771C12.9568 17.9815 12.9722 17.9874 12.9862 17.9933C13.0114 18.0139 13.0995 18.0463 13.1191 18.0566C13.1723 18.0861 13.224 18.1185 13.273 18.1523C13.2926 18.1656 13.3107 18.1789 13.3289 18.1921C13.3569 18.2113 13.3639 18.2142 13.3625 18.2098C13.3947 18.2407 13.4254 18.279 13.4394 18.2923C13.4856 18.3394 13.5304 18.388 13.5737 18.4381C13.5863 18.4543 13.6017 18.4779 13.6185 18.5014C13.6227 18.5014 13.6339 18.5088 13.6492 18.5338C13.652 18.5383 13.6548 18.5427 13.6576 18.5471C13.6618 18.5515 13.666 18.5559 13.6702 18.5589C13.666 18.5559 13.6632 18.5545 13.6604 18.5515C13.6702 18.5662 13.68 18.5824 13.6898 18.5972C13.7514 18.6959 13.7989 18.799 13.8521 18.9035C13.8521 18.9065 13.8549 18.9094 13.8563 18.9124C13.8731 18.958 13.887 19.0052 13.901 19.0523C13.929 19.1495 13.9458 19.2467 13.9668 19.3439C13.9682 19.3602 13.971 19.3749 13.971 19.3778C13.9738 19.4338 13.978 19.4898 13.978 19.5457C13.978 19.5929 13.978 19.6415 13.9752 19.6886H13.9766Z" fill="#C0BEBE"/>
<path d="M58.1322 15.5187C57.4734 13.5362 56.0955 11.9218 54.5611 10.6257C52.9776 9.28824 51.1522 8.23509 49.1589 7.76817C48.149 7.5325 47.1153 7.478 46.0844 7.45149C45.1192 7.42792 44.1387 7.43382 43.1889 7.23644C42.3133 7.0538 41.5593 6.67968 40.8166 6.16857C40.1409 5.70165 39.5493 5.21263 38.9408 4.70889C37.7476 3.71908 36.553 2.72927 35.3221 1.79248C34.6563 1.28579 33.9541 0.8719 33.1736 0.593516C33.0994 0.567003 33.0211 0.556693 32.9386 0.559639C32.8476 0.4801 32.7078 0.45948 32.4896 0.628867C32.4896 0.628867 32.3371 0.714296 32.1511 0.920507C31.9454 1.10315 31.7902 1.32851 31.7496 1.54356C31.5034 2.09001 31.3509 2.91633 31.6069 4.12119C31.6615 4.38043 31.7202 4.55865 31.7818 4.6706C31.7818 4.67354 31.7818 4.67501 31.7818 4.67796C31.8 4.68532 31.8097 4.73688 31.786 4.72804L31.7958 4.75308C31.8195 4.76192 31.8419 4.77223 31.8657 4.78254C31.8937 4.8061 31.9216 4.81789 31.9496 4.81789C32.3581 4.99759 32.6546 5.21263 33.0505 5.46892C33.5456 5.78855 34.0212 6.14058 34.4842 6.50881C34.529 6.54416 34.5752 6.58099 34.6199 6.61781C34.6059 6.6075 34.6787 6.66494 34.7052 6.68704C34.8255 6.78572 34.9444 6.88589 35.0633 6.98752C35.2913 7.18194 35.5179 7.37932 35.7417 7.57964C35.9222 7.74019 36.1012 7.90368 36.2789 8.06865C33.6268 8.06718 30.9747 8.05392 28.324 7.95818C26.7909 7.90368 25.2578 7.81972 23.7275 7.69305C23.0211 7.63413 22.3162 7.56638 21.6112 7.48831C21.6182 7.43529 21.5762 7.54576 21.5832 7.49273C21.5007 7.4839 21.4181 7.47506 21.3356 7.46769C21.081 7.4294 20.8292 7.38963 20.5761 7.34839C20.5761 7.35133 20.5761 7.35575 20.5761 7.36459C20.5691 7.36459 20.5635 7.36311 20.5565 7.36164C20.5607 7.3587 20.5663 7.35133 20.5705 7.34691C20.5649 7.34691 20.5579 7.34544 20.5523 7.34397C20.5509 7.35428 20.5523 7.3587 20.5523 7.36164C20.4865 7.35428 20.4222 7.34691 20.3564 7.33808C20.1676 7.31304 19.9788 7.288 19.7899 7.26296C19.755 7.25854 19.6473 7.24233 19.6277 7.23939C19.5354 7.22613 19.4416 7.21287 19.3493 7.19815C18.0317 7.00372 16.7196 6.7651 15.4173 6.48525C15.4341 6.46904 15.4537 6.45137 15.4173 6.48525C14.8508 6.37772 14.613 6.12438 14.0591 6.01391C13.5122 5.82537 9.45008 5.30395 7.41204 5.75025C6.50563 5.9491 5.63838 6.25842 4.73476 6.30702C3.8787 6.35268 2.99746 6.18477 2.15679 6.41749C1.13567 6.7003 0.577552 7.59437 0.509011 8.67255C0.472643 9.247 0.555171 9.83322 0.599933 10.4047C0.64889 11.0337 0.699246 11.6611 0.748204 12.2901C0.841923 13.4876 0.924452 14.6865 1.03496 15.8826C1.13427 16.9652 1.26995 18.0654 1.65602 19.0818C2.19455 20.4973 3.13314 21.6358 4.54452 22.0939C5.22433 22.3149 5.94751 22.3885 6.66089 22.4106C6.93925 23.0734 7.31553 23.692 7.79111 24.2415C8.62479 25.2077 9.74243 25.9191 10.9384 26.2623C12.1455 26.6085 13.473 26.5864 14.6522 26.1312C15.9684 25.6245 17.0875 24.6745 17.8638 23.4475C18.068 23.125 18.2401 22.7862 18.3856 22.4371C20.9733 22.4371 23.5611 22.4386 26.1488 22.4371C28.9324 22.4371 31.716 22.4327 34.4996 22.4224C35.925 22.4165 37.3504 22.4091 38.7757 22.3988C39.0541 23.066 39.4332 23.6862 39.9101 24.24C40.7438 25.2062 41.8615 25.9176 43.0574 26.2608C44.2646 26.607 45.592 26.5849 46.7712 26.1298C48.0875 25.6231 49.2065 24.673 49.9828 23.4461C50.194 23.1117 50.3731 22.7597 50.5214 22.3944C52.144 22.3944 53.7666 22.3944 55.3892 22.3944C55.6619 22.3944 55.9389 22.4091 56.2116 22.3944C56.8873 22.359 57.4678 21.5313 57.7699 20.9598C58.6232 19.3469 58.7071 17.2435 58.1336 15.5173L58.1322 15.5187ZM52.6056 12.2253C52.6237 12.1958 52.6419 12.1663 52.6615 12.1369C52.6489 12.156 52.6028 12.2046 52.6713 12.1236C52.7161 12.0721 52.7622 12.022 52.8112 11.9734C52.8154 11.969 52.828 11.9587 52.8378 11.9513C52.8657 11.9307 52.8937 11.9115 52.9217 11.8939C52.9455 11.8791 52.972 11.8688 52.9944 11.8526C52.9986 11.8526 53.0014 11.8511 53.007 11.8497C53.0812 11.829 53.1539 11.8084 53.2266 11.7893C53.2336 11.7878 53.2378 11.7863 53.2434 11.7849C53.2868 11.7804 53.3287 11.776 53.3721 11.7731C53.4462 11.7687 53.519 11.7701 53.5931 11.7731C53.6253 11.7746 53.6589 11.7775 53.691 11.7804C53.6966 11.7804 53.698 11.7804 53.7008 11.7804C53.7442 11.8187 53.7889 11.8556 53.8323 11.8939C54.901 12.838 55.9487 13.9604 56.5488 15.3111C55.4297 15.3552 54.3778 15.0312 53.4378 14.3448C53.2182 14.1843 53.0084 14.0016 52.7972 13.7439C52.7748 13.7159 52.751 13.6879 52.7301 13.6584C52.7259 13.6511 52.7203 13.6422 52.7119 13.6304C52.6727 13.5671 52.6321 13.5038 52.5972 13.439C52.579 13.4066 52.5636 13.3727 52.5468 13.3388C52.544 13.3329 52.5328 13.3064 52.5258 13.2931C52.4965 13.2136 52.4727 13.1296 52.4545 13.0457C52.4475 13.0133 52.4405 12.9779 52.4363 12.9455C52.4363 12.9382 52.4363 12.9279 52.4363 12.9161C52.4363 12.8439 52.4363 12.7732 52.4391 12.7025C52.4391 12.6981 52.4391 12.6922 52.4419 12.6863C52.4475 12.6524 52.4545 12.62 52.4629 12.5861C52.4713 12.5523 52.4797 12.5169 52.4909 12.483C52.4923 12.4757 52.5076 12.4315 52.5174 12.405C52.53 12.3799 52.558 12.3136 52.5552 12.3195C52.5706 12.2886 52.5874 12.2577 52.6056 12.2267V12.2253ZM52.7329 13.6614C52.7454 13.6791 52.7566 13.6997 52.7329 13.6614V13.6614ZM52.4433 12.6804C52.4475 12.6524 52.4545 12.6185 52.4433 12.6804V12.6804ZM2.33303 14.959C2.22673 13.766 2.15539 12.567 2.07006 11.3739C2.35541 11.3518 2.64636 11.3327 2.93032 11.3739C3.00585 11.3842 3.18909 11.4328 3.3024 11.4755C3.36115 11.4991 3.36674 11.5021 3.32198 11.4829C3.35275 11.4991 3.38492 11.5153 3.4143 11.533C3.46046 11.5595 3.50382 11.589 3.54718 11.6184C3.57936 11.6405 3.70105 11.7672 3.71924 11.7981C3.72903 11.8158 3.78498 11.9336 3.78638 11.9292C3.79757 11.966 3.80876 12.0014 3.81715 12.0397C3.82414 12.0809 3.82834 12.1001 3.82834 12.1015C3.86331 12.4153 3.78358 12.6701 3.70245 12.9868C3.55418 13.5656 3.4087 14.1681 3.0674 14.5643C3.02823 14.6099 2.98347 14.6512 2.94151 14.6954C2.91913 14.7145 2.90654 14.7248 2.90374 14.7293C2.88416 14.744 2.86457 14.7587 2.84499 14.772C2.78764 14.8117 2.72749 14.8441 2.66734 14.878C2.65615 14.8839 2.64916 14.8869 2.64217 14.8898C2.61419 14.9001 2.58621 14.9119 2.55684 14.9207C2.50369 14.9384 2.44913 14.9517 2.39458 14.962C2.40018 14.959 2.3666 14.959 2.33024 14.962L2.33303 14.959ZM11.9455 24.9838C11.8574 24.9735 11.9189 24.9794 11.9651 24.9853C11.9581 24.9853 11.9525 24.9853 11.9455 24.9838ZM14.413 24.6568C14.413 24.6568 14.4508 24.6436 14.4745 24.6333C14.4508 24.6465 14.427 24.6598 14.413 24.6568ZM17.5253 20.0568C17.5211 20.1217 17.5169 20.185 17.5099 20.2483C17.5057 20.2881 17.5015 20.3279 17.4973 20.3676C17.4973 20.3676 17.4973 20.3676 17.4973 20.3691C17.4428 20.6593 17.3966 20.948 17.3155 21.2323C17.2959 21.3015 17.2721 21.3692 17.2497 21.437C17.2413 21.4591 17.2344 21.4812 17.2288 21.5033C17.2162 21.5416 17.205 21.5813 17.191 21.6211C17.184 21.6417 17.17 21.7036 17.1518 21.7537C17.1532 21.7419 17.1476 21.7434 17.1308 21.7817C17.1113 21.8258 17.0931 21.87 17.0735 21.9142C16.9518 22.1867 16.8105 22.4504 16.6511 22.7022C16.6119 22.7641 16.5713 22.8245 16.5308 22.8849C16.5126 22.9114 16.493 22.9379 16.4748 22.9644C16.4119 23.0557 16.4692 22.9777 16.4916 22.9453C16.4189 23.0793 16.2874 23.2045 16.1895 23.3165C15.9908 23.5433 15.7754 23.7539 15.5474 23.9483C15.5404 23.9542 15.4439 24.0308 15.4747 24.0073C15.4621 24.0161 15.4523 24.0235 15.4509 24.0249C15.3977 24.0662 15.3432 24.1059 15.2886 24.1442C15.1613 24.2356 15.0299 24.3195 14.897 24.3991C14.7725 24.4727 14.6466 24.5405 14.5165 24.6038C14.5081 24.6082 14.4955 24.6156 14.4829 24.6229C14.4759 24.6259 14.4647 24.6303 14.448 24.6377C14.3766 24.6671 14.3039 24.6966 14.2311 24.7246C13.9738 24.8218 13.7094 24.8969 13.4408 24.9514C13.3821 24.9632 13.3247 24.972 13.266 24.9823C13.2674 24.9823 13.2702 24.9823 13.2716 24.9823C13.2688 24.9823 13.266 24.9823 13.2618 24.9823C13.2478 24.9853 13.2324 24.9882 13.2184 24.9897C13.2044 24.9926 13.196 24.9926 13.189 24.9912C13.1862 24.9912 13.1835 24.9912 13.1821 24.9912C13.0338 25.0074 12.8855 25.0177 12.7372 25.0206C12.4827 25.0265 12.2295 25.0103 11.9763 24.9823C11.9483 24.975 11.9134 24.9735 11.8868 24.9691C11.821 24.9573 11.7567 24.9455 11.6909 24.9323C11.5539 24.9028 11.4182 24.8689 11.2825 24.8291C11.1622 24.7938 11.0419 24.7555 10.9244 24.7113C10.8545 24.6863 10.7859 24.6598 10.7174 24.6303C10.6922 24.62 10.667 24.6097 10.6432 24.5994C10.6432 24.5994 10.6418 24.5994 10.6405 24.5979C10.3985 24.4801 10.1621 24.3549 9.93546 24.209C9.82216 24.1354 9.71026 24.0588 9.60255 23.9778C9.55499 23.9424 9.51023 23.9056 9.46407 23.8703C9.43469 23.8438 9.40392 23.8187 9.37454 23.7937C9.16333 23.6081 8.9633 23.4078 8.77866 23.1927C8.74929 23.1588 8.5031 22.8908 8.51709 22.8687C8.51709 22.8687 8.622 23.0174 8.54366 22.9055C8.52548 22.8805 8.50729 22.8554 8.49051 22.8289C8.44575 22.7641 8.40238 22.6993 8.36182 22.6345C8.20096 22.3826 8.05828 22.116 7.93659 21.8406C7.9254 21.8155 7.89183 21.733 7.88483 21.7168C7.86105 21.6535 7.83727 21.5902 7.81489 21.5268C7.75475 21.3516 7.70159 21.1719 7.65683 20.9907C7.61487 20.8184 7.5799 20.6445 7.55052 20.4707C7.54493 20.4324 7.53793 20.3927 7.53234 20.3544C7.52954 20.3338 7.52674 20.3205 7.52534 20.3117C7.51275 20.2262 7.50996 20.1349 7.50436 20.051C7.47918 19.6857 7.48338 19.3189 7.51695 18.9536C7.52115 18.9139 7.52534 18.8756 7.52814 18.8358C7.53094 18.8122 7.53234 18.7975 7.53234 18.7887C7.54073 18.7224 7.55332 18.6561 7.56451 18.5913C7.59668 18.4057 7.63585 18.2231 7.68201 18.0419C7.72677 17.871 7.77713 17.7002 7.83448 17.5337C7.85965 17.4601 7.88763 17.3864 7.91421 17.3128C7.91421 17.3098 7.91561 17.3069 7.917 17.3039C7.917 17.3025 7.9184 17.301 7.9198 17.298C7.94358 17.245 7.96596 17.1905 7.98974 17.1375C8.13102 16.8252 8.29748 16.5248 8.48631 16.2405C8.52268 16.1845 8.56185 16.13 8.59962 16.0755C8.60101 16.074 8.60241 16.0726 8.60381 16.0696C8.62479 16.0416 8.64577 16.0136 8.66676 15.9871C8.75628 15.8722 8.8486 15.7618 8.94651 15.6528C9.13675 15.4407 9.34377 15.2507 9.55639 15.0651C9.58017 15.0474 9.60255 15.0283 9.62633 15.0106C9.68088 14.9693 9.73543 14.9296 9.79138 14.8898C9.90749 14.8073 10.0278 14.7307 10.1495 14.6586C10.2642 14.5908 10.3803 14.5275 10.4992 14.4685C10.523 14.4568 10.5537 14.4465 10.5845 14.4347C10.5733 14.4494 10.6013 14.4479 10.6558 14.3949C10.6558 14.3949 10.6558 14.3949 10.6544 14.3949C10.6544 14.3949 10.6572 14.3934 10.6586 14.392C10.6586 14.392 10.6572 14.3934 10.6558 14.3949C10.681 14.3846 10.7062 14.3728 10.7328 14.364C10.9874 14.2623 11.2503 14.1798 11.5161 14.1195C11.6308 14.0929 11.7455 14.0767 11.8602 14.0532C11.8812 14.0502 11.9008 14.0488 11.9217 14.0458C11.9931 14.0384 12.063 14.0311 12.1344 14.0267C12.3973 14.009 12.6617 14.0119 12.9247 14.034C12.975 14.0384 13.024 14.0443 13.0729 14.0502C13.0674 14.0488 13.0646 14.0473 13.0576 14.0458C13.0674 14.0488 13.0785 14.0502 13.0883 14.0517C13.0827 14.0517 13.0771 14.0517 13.0715 14.0502C13.1876 14.0841 13.1765 14.0679 13.1387 14.0591C13.1387 14.0591 13.1415 14.0591 13.1429 14.0591C13.2856 14.0826 13.4268 14.1121 13.5653 14.1489C13.8087 14.2108 14.0437 14.2933 14.2773 14.3875C14.3011 14.4052 14.3458 14.417 14.3682 14.4273C14.4284 14.4568 14.4885 14.4862 14.5487 14.5172C14.676 14.5834 14.8005 14.6556 14.9221 14.7322C15.0327 14.8014 15.1418 14.8765 15.2467 14.9531C15.2928 14.987 15.4033 15.0459 15.4327 15.096C15.4271 15.0857 15.3026 14.987 15.4019 15.071C15.4383 15.1019 15.4747 15.1328 15.511 15.1638C15.732 15.3582 15.9377 15.5703 16.1307 15.7957C16.1867 15.8619 16.2426 15.9282 16.2958 15.9974C16.3307 16.0416 16.43 16.211 16.3419 16.0549C16.4203 16.1948 16.528 16.3215 16.6133 16.4585C16.7769 16.7207 16.9224 16.9961 17.0497 17.2804C17.0637 17.3113 17.0763 17.3408 17.0889 17.3717C17.0903 17.3761 17.1015 17.4012 17.1113 17.4232C17.1155 17.4336 17.1196 17.4424 17.121 17.4483C17.135 17.4866 17.1504 17.5249 17.1644 17.5647C17.2148 17.7031 17.2595 17.8445 17.3001 17.9874C17.3812 18.2702 17.4386 18.5574 17.4847 18.849C17.4847 18.849 17.4847 18.8461 17.4861 18.8446C17.4861 18.8446 17.4861 18.8505 17.4861 18.8564C17.4889 18.8697 17.4903 18.8829 17.4931 18.8962C17.4959 18.9153 17.4973 18.9256 17.4959 18.9315C17.4959 18.9345 17.4959 18.9404 17.4973 18.9418C17.5043 19.014 17.5113 19.0862 17.5169 19.1598C17.5281 19.313 17.5337 19.4662 17.5337 19.6194C17.5337 19.7637 17.5295 19.9096 17.5211 20.0539L17.5253 20.0568ZM10.5859 14.4376C10.5915 14.4302 10.6055 14.4185 10.6321 14.4082C10.6391 14.4052 10.6474 14.4023 10.6544 14.3993C10.6363 14.4155 10.6125 14.4273 10.5859 14.4376ZM13.0925 14.0546C13.1009 14.0546 13.1107 14.0561 13.1191 14.0576C13.1275 14.0576 13.1345 14.0605 13.1429 14.062C13.1275 14.0591 13.1093 14.0576 13.0925 14.0546ZM14.2969 14.3964C14.2969 14.3964 14.3095 14.4008 14.3165 14.4037C14.4018 14.4391 14.3375 14.414 14.2969 14.3964ZM22.526 20.9642C21.288 20.9642 20.0501 20.9642 18.8122 20.9642C19.1353 19.1495 18.7786 17.2067 17.7869 15.6557C17.5868 15.342 17.3644 15.043 17.1252 14.7602C16.2692 13.763 15.1278 13.0177 13.8786 12.7172C12.6995 12.4329 11.4308 12.5051 10.3019 12.9735C9.05142 13.492 8.01352 14.3787 7.25398 15.5438C6.39232 16.8665 5.98388 18.5486 6.11396 20.1452C6.13495 20.4059 6.16992 20.6637 6.21747 20.9185C5.83421 20.8905 5.46632 20.8346 5.07047 20.7226C4.93898 20.6858 4.81029 20.6431 4.683 20.593C4.65643 20.5827 4.61166 20.5621 4.59348 20.5532C4.54732 20.5311 4.50116 20.509 4.4564 20.484C4.35289 20.428 4.25357 20.3662 4.15706 20.2984C4.11369 20.2675 4.07173 20.2351 4.02977 20.2041C4.15426 20.2969 4.01858 20.1924 3.97382 20.1511C3.89828 20.0804 3.82554 20.0068 3.757 19.9302C3.71644 19.8845 3.67727 19.8389 3.6395 19.7917C3.61712 19.7637 3.58495 19.721 3.57236 19.7063C3.4143 19.4839 3.27162 19.2482 3.14853 19.0022C2.77365 18.254 2.6086 17.3894 2.50369 16.5572C2.4827 16.3922 2.46452 16.2258 2.44634 16.0593C2.73868 16.0372 3.02683 15.9429 3.2926 15.7839C3.84653 15.451 4.18363 14.8854 4.41863 14.2785C4.64803 13.6864 4.83827 13.0074 4.88163 12.3681C4.92919 11.6538 4.60747 11.0175 4.03816 10.6374C3.42689 10.228 2.68693 10.2294 1.98893 10.281C1.95816 9.91424 1.92599 9.54895 1.9092 9.18219C1.89381 8.83163 1.88122 8.46192 2.06027 8.15408C2.11762 8.05539 2.05328 8.1423 2.12881 8.06423C2.15259 8.04066 2.17637 8.01563 2.20015 7.99353C2.20434 7.99059 2.21274 7.98617 2.22673 7.97733C2.25051 7.9626 2.34143 7.91105 2.35681 7.90074C2.38059 7.89337 2.4939 7.8536 2.53026 7.84329C2.55964 7.83445 2.69112 7.80647 2.7149 7.7991C2.73309 7.7991 2.84499 7.78437 2.87576 7.7829C3.04782 7.76964 3.21987 7.76817 3.39192 7.77112C4.17804 7.78437 4.93618 7.79468 5.71811 7.6798C6.51262 7.56343 7.29175 7.35575 8.04989 7.08326C8.86958 6.79014 12.8533 7.58258 14.2242 7.72546C16.272 8.19385 18.3422 8.55325 20.4236 8.81985C20.625 12.215 21.158 15.5909 22.0238 18.8682C22.2098 19.5737 22.4113 20.2734 22.6281 20.9686C22.5959 20.9686 22.5637 20.9686 22.5302 20.9686L22.526 20.9642ZM35.3725 20.945C33.859 20.9509 32.3455 20.9568 30.8306 20.9598C30.3774 20.9598 29.9228 20.9598 29.4696 20.9598C29.6192 20.7727 29.7675 20.5871 29.9172 20.4C30.0081 20.2852 30.071 20.1644 30.071 20.0097C30.071 19.8742 30.0137 19.7122 29.9172 19.6194C29.8179 19.5222 29.6864 19.4515 29.5465 19.4574C29.415 19.4633 29.2639 19.5089 29.1758 19.6194C28.8219 20.0627 28.4666 20.5061 28.1127 20.9494C28.1099 20.9539 28.1071 20.9568 28.1043 20.9612C27.6875 20.9612 27.2693 20.9612 26.8524 20.9612L28.3897 19.1407C28.5715 18.9242 28.6065 18.5692 28.3897 18.36C28.1911 18.1671 27.8428 18.1288 27.6483 18.36C26.9392 19.1996 26.23 20.0406 25.5208 20.8802C25.4984 20.9053 25.4802 20.9332 25.462 20.9627C25.0634 20.9627 24.6633 20.9627 24.2647 20.9627C24.2647 20.9627 24.2661 20.9612 24.2675 20.9598C24.7109 20.4693 25.1543 19.9803 25.5963 19.4898C25.7852 19.2806 25.8089 18.9139 25.5963 18.7091C25.3907 18.5103 25.0564 18.4852 24.855 18.7091C24.4115 19.1996 23.9681 19.6886 23.5247 20.1791C23.5135 20.1909 23.5065 20.2041 23.4967 20.2174C22.6407 17.3717 22.0266 14.4214 21.6965 11.4859C21.6014 10.6404 21.5286 9.79051 21.4769 8.94063C22.0266 9.00249 22.5777 9.06141 23.1288 9.11001C26.2272 9.38987 29.3381 9.48267 32.4462 9.51654C34.1583 9.53569 35.8704 9.53569 37.5826 9.53569C36.5852 12.4109 35.9124 15.4009 35.5711 18.4425C35.4774 19.2733 35.413 20.1069 35.3711 20.9421L35.3725 20.945ZM44.0645 24.9838C43.9764 24.9735 44.038 24.9794 44.0841 24.9853C44.0771 24.9853 44.0715 24.9853 44.0645 24.9838ZM46.532 24.6568C46.532 24.6568 46.5698 24.6436 46.5936 24.6333C46.5698 24.6465 46.546 24.6598 46.532 24.6568ZM49.6443 20.0568C49.6401 20.1217 49.6359 20.185 49.6289 20.2483C49.6247 20.2881 49.6205 20.3279 49.6163 20.3676C49.6163 20.3676 49.6163 20.3676 49.6163 20.3691C49.5618 20.6593 49.5156 20.948 49.4345 21.2323C49.3967 21.3633 49.3562 21.493 49.31 21.6211C49.303 21.6417 49.289 21.7036 49.2708 21.7537C49.2722 21.7419 49.2667 21.7434 49.2499 21.7817C49.2303 21.8258 49.2121 21.87 49.1925 21.9142C49.0708 22.1867 48.9295 22.4504 48.7701 22.7022C48.7309 22.7641 48.6903 22.8245 48.6498 22.8849C48.6316 22.9114 48.612 22.9379 48.5938 22.9644C48.5309 23.0557 48.5882 22.9777 48.6106 22.9453C48.5379 23.0793 48.4064 23.2045 48.3085 23.3165C48.1099 23.5433 47.8944 23.7539 47.6664 23.9483C47.6594 23.9542 47.5615 24.0308 47.5937 24.0073C47.5811 24.0161 47.5713 24.0235 47.5699 24.0249C47.5168 24.0662 47.4622 24.1059 47.4077 24.1442C47.2804 24.2356 47.1489 24.3195 47.016 24.3991C46.8915 24.4727 46.7656 24.5405 46.6355 24.6038C46.6271 24.6082 46.6145 24.6156 46.602 24.6229C46.595 24.6259 46.5838 24.6303 46.567 24.6377C46.4956 24.6671 46.4229 24.6966 46.3502 24.7246C46.0928 24.8218 45.8284 24.8969 45.5599 24.9514C45.5011 24.9632 45.4438 24.972 45.385 24.9823C45.3864 24.9823 45.3892 24.9823 45.3906 24.9823C45.3878 24.9823 45.385 24.9823 45.3808 24.9823C45.3668 24.9853 45.3514 24.9882 45.3375 24.9897C45.3235 24.9926 45.3151 24.9926 45.3081 24.9912C45.3053 24.9912 45.3025 24.9912 45.3011 24.9912C45.1528 25.0074 45.0045 25.0177 44.8563 25.0206C44.6017 25.0265 44.3485 25.0103 44.0953 24.9823C44.0673 24.975 44.0324 24.9735 44.0058 24.9691C43.9401 24.9573 43.8757 24.9455 43.81 24.9323C43.6729 24.9028 43.5372 24.8689 43.4015 24.8291C43.2812 24.7938 43.1609 24.7555 43.0434 24.7113C42.9735 24.6863 42.9049 24.6598 42.8364 24.6303C42.8112 24.62 42.7861 24.6097 42.7623 24.5994C42.7623 24.5994 42.7609 24.5994 42.7595 24.5979C42.5175 24.4801 42.2811 24.3549 42.0545 24.209C41.9412 24.1354 41.8293 24.0588 41.7216 23.9778C41.674 23.9424 41.6293 23.9056 41.5831 23.8703C41.5537 23.8438 41.5229 23.8187 41.4936 23.7937C41.2824 23.6081 41.0823 23.4078 40.8977 23.1927C40.8683 23.1588 40.6221 22.8908 40.6361 22.8687C40.6361 22.8687 40.741 23.0174 40.6627 22.9055C40.6445 22.8805 40.6263 22.8554 40.6095 22.8289C40.5648 22.7641 40.5214 22.6993 40.4808 22.6345C40.32 22.3826 40.1773 22.116 40.0556 21.8406C40.0444 21.8155 40.0109 21.733 40.0039 21.7168C39.9801 21.6535 39.9563 21.5902 39.9339 21.5268C39.8738 21.3516 39.8206 21.1719 39.7759 20.9907C39.7339 20.8184 39.6989 20.6445 39.6696 20.4707C39.664 20.4324 39.657 20.3927 39.6514 20.3544C39.6486 20.3338 39.6458 20.3205 39.6444 20.3117C39.6318 20.2262 39.629 20.1349 39.6234 20.051C39.5982 19.6857 39.6024 19.3189 39.636 18.9536C39.6402 18.9139 39.6444 18.8756 39.6472 18.8358C39.65 18.8122 39.6514 18.799 39.6514 18.7887C39.6598 18.7224 39.6723 18.6546 39.6835 18.5913C39.7157 18.4057 39.7549 18.2231 39.801 18.0419C39.8458 17.871 39.8962 17.7002 39.9535 17.5337C39.9787 17.4601 40.0067 17.3864 40.0332 17.3128C40.0332 17.3098 40.0346 17.3069 40.036 17.3039C40.036 17.3025 40.0374 17.301 40.0388 17.298C40.0626 17.245 40.085 17.1905 40.1088 17.1375C40.25 16.8252 40.4165 16.5248 40.6053 16.2405C40.6417 16.1845 40.6809 16.13 40.7186 16.0755C40.72 16.074 40.7214 16.0726 40.7228 16.0696C40.7438 16.0416 40.7648 16.0136 40.7858 15.9871C40.8753 15.8722 40.9676 15.7618 41.0655 15.6528C41.2558 15.4407 41.4628 15.2507 41.6754 15.0651C41.6992 15.0474 41.7216 15.0283 41.7454 15.0106C41.7999 14.9693 41.8545 14.9296 41.9104 14.8898C42.0265 14.8073 42.1468 14.7307 42.2685 14.6586C42.3832 14.5908 42.4993 14.5275 42.6182 14.4685C42.642 14.4568 42.6728 14.4465 42.7035 14.4347C42.6923 14.4494 42.7203 14.4479 42.7749 14.3949C42.7749 14.3949 42.7749 14.3949 42.7735 14.3949C42.7735 14.3949 42.7763 14.3934 42.7777 14.392C42.7777 14.392 42.7763 14.3934 42.7749 14.3949C42.8 14.3846 42.8252 14.3728 42.8518 14.364C43.1064 14.2623 43.3694 14.1798 43.6351 14.1195C43.7498 14.0929 43.8645 14.0767 43.9792 14.0532C44.0002 14.0502 44.0198 14.0488 44.0408 14.0458C44.1121 14.0384 44.182 14.0311 44.2534 14.0267C44.5164 14.009 44.7807 14.0119 45.0437 14.034C45.0941 14.0384 45.143 14.0443 45.192 14.0502C45.1864 14.0488 45.1836 14.0473 45.1766 14.0458C45.1864 14.0488 45.1976 14.0502 45.2074 14.0517C45.2018 14.0517 45.1962 14.0517 45.1906 14.0502C45.3067 14.0841 45.2955 14.0679 45.2577 14.0591C45.2577 14.0591 45.2605 14.0591 45.2619 14.0591C45.4046 14.0826 45.5445 14.1121 45.6843 14.1489C45.9277 14.2108 46.1627 14.2933 46.3963 14.3875C46.4201 14.4052 46.4649 14.417 46.4873 14.4273C46.5474 14.4568 46.6076 14.4862 46.6677 14.5172C46.795 14.5834 46.9195 14.6556 47.0412 14.7322C47.1517 14.8014 47.2608 14.8765 47.3657 14.9531C47.4119 14.987 47.5224 15.0459 47.5517 15.096C47.5461 15.0857 47.4216 14.987 47.521 15.071C47.5573 15.1019 47.5937 15.1328 47.6301 15.1638C47.8511 15.3582 48.0567 15.5703 48.2497 15.7957C48.3057 15.8619 48.3616 15.9282 48.4148 15.9974C48.4498 16.0416 48.5491 16.211 48.4609 16.0549C48.5393 16.1948 48.647 16.3215 48.7323 16.4585C48.896 16.7207 49.0414 16.9961 49.1687 17.2804C49.1827 17.3113 49.1953 17.3408 49.2079 17.3717C49.2093 17.3761 49.2205 17.4012 49.2303 17.4247C49.2345 17.435 49.2373 17.4439 49.2401 17.4498C49.2541 17.4881 49.2694 17.5264 49.2834 17.5661C49.3338 17.7046 49.3786 17.846 49.4191 17.9889C49.5002 18.2717 49.5576 18.5589 49.6038 18.8505C49.6038 18.8505 49.6038 18.8476 49.6052 18.8461C49.6052 18.8461 49.6052 18.852 49.6052 18.8579C49.608 18.8711 49.6094 18.8844 49.6122 18.8977C49.615 18.9183 49.6163 18.9271 49.6149 18.933C49.6149 18.9359 49.6149 18.9418 49.6163 18.9433C49.6233 19.0155 49.6303 19.0877 49.6359 19.1613C49.6471 19.3145 49.6527 19.4677 49.6527 19.6209C49.6527 19.7652 49.6485 19.911 49.6401 20.0554L49.6443 20.0568ZM42.7049 14.4376C42.7105 14.4302 42.7245 14.4185 42.7511 14.4082C42.7581 14.4052 42.7665 14.4023 42.7735 14.3993C42.7553 14.4155 42.7315 14.4273 42.7049 14.4376ZM45.2116 14.0546C45.22 14.0546 45.2297 14.0561 45.2381 14.0576C45.2465 14.0576 45.2535 14.0605 45.2619 14.062C45.2465 14.0591 45.2283 14.0576 45.2116 14.0546ZM46.4159 14.3964C46.4159 14.3964 46.4285 14.4008 46.4355 14.4037C46.5208 14.4391 46.4565 14.414 46.4159 14.3964ZM56.7516 19.7961C56.69 19.9714 56.5138 20.3249 56.3543 20.5621C56.3389 20.5856 56.3319 20.5974 56.3277 20.6018C56.3249 20.6048 56.3152 20.6136 56.2942 20.6387C56.2494 20.6917 56.2047 20.7432 56.1571 20.7933C56.1151 20.8375 56.069 20.8787 56.0242 20.92H50.9382C51.2487 19.1186 50.8892 17.192 49.9045 15.6513C49.7045 15.3376 49.4821 15.0386 49.2429 14.7558C48.3868 13.7586 47.2454 13.0133 45.9963 12.7128C44.8171 12.4285 43.5484 12.5007 42.4196 12.9691C41.1691 13.4876 40.1312 14.3743 39.3716 15.5394C38.51 16.8621 38.1015 18.5441 38.2316 20.1408C38.2526 20.4059 38.2889 20.6681 38.3365 20.9274C37.6973 20.9318 37.0594 20.9347 36.4202 20.9377C36.5782 17.7664 37.1154 14.6497 38.0204 11.6022C38.2861 10.7067 38.5841 9.82144 38.91 8.94652C38.9981 8.71085 38.8485 8.41626 38.6386 8.30432C38.6302 8.29548 38.6247 8.28665 38.6163 8.27928C36.8678 6.64138 35.1081 4.90921 33.0225 3.75148C32.8714 3.66753 32.7176 3.58799 32.5623 3.50992C32.6868 3.03711 32.7987 2.50538 32.8868 2.04436C32.9861 2.08265 33.0854 2.12242 33.1862 2.16072C33.2197 2.17692 33.2547 2.19312 33.2883 2.20932C33.3582 2.2432 33.4281 2.28002 33.4967 2.31685C33.775 2.46709 34.0408 2.63942 34.2996 2.82501C35.0913 3.39209 35.8536 4.01808 36.609 4.63524C37.7854 5.59412 38.9212 6.62518 40.1717 7.47948C40.8124 7.91694 41.4908 8.28517 42.2279 8.50758C43.042 8.75356 43.8981 8.84047 44.7416 8.88318C45.5892 8.9259 46.4397 8.91559 47.2874 8.9745C48.0875 9.029 48.8666 9.17482 49.6345 9.42522C50.6557 9.75811 51.6292 10.2574 52.5272 10.8731C51.881 11.2001 51.4725 11.8939 51.3984 12.6465C51.3159 13.4817 51.7593 14.2653 52.3258 14.8117C52.9189 15.3847 53.6435 15.806 54.4016 16.0814C55.2045 16.373 56.0774 16.4791 56.9222 16.3863C57.2034 17.516 57.1586 18.6576 56.7544 19.7961H56.7516Z" fill="#C0BEBE"/>
<path d="M20.5691 7.34544C20.5691 7.34544 20.5733 7.34544 20.5761 7.34544C20.5761 7.34102 20.5733 7.34102 20.5691 7.34544Z" fill="#C0BEBE"/>
<path d="M31.6027 4.6647C31.6153 4.66912 31.6265 4.67501 31.6391 4.67943C31.6307 4.67649 31.6195 4.67207 31.6027 4.66618V4.6647Z" fill="#C0BEBE"/>
<path d="M49.6094 18.8535C49.5968 18.8844 49.6177 18.958 49.6205 18.9345C49.6177 18.9139 49.6107 18.8785 49.6107 18.8594C49.6107 18.8579 49.6107 18.8549 49.6107 18.8535H49.6094Z" fill="#C0BEBE"/>
<path d="M45.3123 24.9941C45.3332 24.9912 45.3654 24.9838 45.385 24.9838C45.385 24.9838 45.3878 24.9838 45.3892 24.9838C45.3179 24.9676 45.2815 24.9926 45.3137 24.9941H45.3123Z" fill="#C0BEBE"/>
<path d="M45.8018 20.5311C45.82 20.5046 45.8312 20.4663 45.8018 20.5311V20.5311Z" fill="#C0BEBE"/>
<path d="M43.7596 18.2127C43.7596 18.2127 43.754 18.2172 43.7512 18.2186C43.7498 18.2201 43.747 18.223 43.7456 18.2245C43.7596 18.2142 43.7792 18.201 43.789 18.1921C43.7792 18.1995 43.7694 18.2068 43.7596 18.2127Z" fill="#C0BEBE"/>
<path d="M45.7823 18.5515C45.7823 18.5515 45.7809 18.5486 45.7795 18.5471C45.7669 18.5353 45.7529 18.5191 45.7403 18.5014C45.7347 18.5029 45.7459 18.5265 45.7823 18.5515Z" fill="#C0BEBE"/>
<path d="M46.6845 17.3967C45.9333 16.5336 44.7094 16.1771 43.6603 16.6117C42.4657 17.1051 41.6656 18.3983 41.7775 19.7623C41.8824 21.054 42.7105 22.1573 43.9079 22.5093C45.1039 22.8613 46.3376 22.3207 47.023 21.2529C47.3657 20.7182 47.5405 20.0215 47.4916 19.3793C47.4356 18.6281 47.1573 17.9623 46.6859 17.3967H46.6845ZM45.4647 18.1921C45.448 18.1789 45.427 18.1641 45.4186 18.1627C45.4298 18.1627 45.4466 18.1759 45.4647 18.1921ZM45.1458 18.0051C45.2297 18.0345 45.1458 18.0124 45.1122 17.9933C45.1234 17.9977 45.1346 18.0021 45.1458 18.0051ZM44.8087 17.9064C44.9318 17.9152 44.8185 17.9255 44.7779 17.9034C44.7877 17.9034 44.7975 17.9049 44.8087 17.9064ZM43.1749 19.777C43.1791 19.7991 43.1819 19.8212 43.1819 19.8197C43.1777 19.8153 43.1763 19.7961 43.1749 19.777ZM43.4533 20.4987C43.4533 20.4987 43.4617 20.509 43.4715 20.5223C43.4603 20.509 43.4519 20.4987 43.4533 20.4987ZM45.9683 20.2365C45.9683 20.2365 45.9711 20.2277 45.9767 20.2145C45.9725 20.2262 45.9683 20.2365 45.9683 20.2365ZM46.0914 19.7608C46.0844 19.8963 46.0732 19.7785 46.0914 19.7402C46.0914 19.7475 46.0914 19.7549 46.0914 19.7608ZM46.0956 19.6886C46.0956 19.7048 46.0942 19.7225 46.0928 19.7387C46.0648 19.7844 46.0536 19.9626 46.041 20.0097C46.0271 20.0642 46.0089 20.1158 45.9921 20.1688C45.9921 20.1703 45.9879 20.182 45.9837 20.1953C45.9389 20.2881 45.8942 20.3794 45.8396 20.4678C45.8228 20.4943 45.7585 20.6269 45.8004 20.5341C45.8004 20.5341 45.8004 20.5326 45.8018 20.5311C45.8004 20.5326 45.799 20.5356 45.7977 20.537C45.7711 20.568 45.7459 20.6004 45.7193 20.6313C45.6592 20.7005 45.5906 20.7609 45.5263 20.8257C45.5081 20.8405 45.4871 20.8596 45.4745 20.8684C45.4284 20.9023 45.3794 20.9332 45.3305 20.9642C45.2829 20.9922 45.2339 21.0187 45.185 21.0437C45.1822 21.0437 45.1808 21.0437 45.178 21.0452C45.0773 21.0791 44.978 21.1115 44.8745 21.1336C44.8507 21.1262 44.7667 21.1439 44.7472 21.1453C44.6954 21.1468 44.6436 21.1468 44.5919 21.1453C44.5611 21.1453 44.4842 21.1247 44.4492 21.1321C44.3989 21.1218 44.3485 21.11 44.2995 21.0953C44.2576 21.0835 44.2142 21.0702 44.1723 21.0555C44.1513 21.0481 44.1303 21.0393 44.1093 21.0319C44.038 20.9951 43.9666 20.9598 43.8995 20.9156C43.8547 20.8876 43.8114 20.8581 43.7694 20.8272C43.7624 20.8213 43.7554 20.8169 43.7484 20.811C43.6813 20.7403 43.6071 20.6784 43.5428 20.6048C43.5386 20.5989 43.5036 20.5591 43.4799 20.5297C43.4631 20.5046 43.4463 20.4811 43.4309 20.456C43.3805 20.3765 43.3358 20.2925 43.2952 20.2071C43.2896 20.1953 43.284 20.185 43.2784 20.1732C43.2784 20.1688 43.277 20.1658 43.2756 20.1614C43.2602 20.0966 43.2351 20.0333 43.2183 19.967C43.2015 19.9007 43.1917 19.8344 43.1777 19.7682C43.1777 19.7652 43.1777 19.7637 43.1763 19.7608C43.1763 19.7475 43.1763 19.7372 43.1763 19.7328C43.1665 19.5958 43.1777 19.4618 43.1791 19.3248C43.1791 19.3189 43.1791 19.3145 43.1791 19.3115C43.1805 19.3042 43.1833 19.2953 43.1847 19.2895C43.1945 19.232 43.2071 19.1746 43.2197 19.1186C43.2351 19.0523 43.2547 18.9875 43.2756 18.9227C43.2826 18.9006 43.291 18.88 43.298 18.8579C43.3554 18.7518 43.4043 18.6443 43.4687 18.5427C43.4827 18.5221 43.4966 18.5014 43.5106 18.4808C43.554 18.4101 43.4729 18.5338 43.4729 18.5294C43.4799 18.4852 43.5652 18.416 43.596 18.3806C43.6071 18.3689 43.6911 18.279 43.7456 18.226C43.7274 18.2378 43.7204 18.2422 43.7512 18.2201C43.775 18.198 43.7932 18.1818 43.7946 18.1848C43.7946 18.1848 43.7932 18.1892 43.7876 18.1921C43.796 18.1862 43.8044 18.1789 43.8142 18.173C43.8561 18.142 43.9009 18.114 43.9443 18.0875C43.9932 18.0581 44.045 18.0316 44.0953 18.0051C44.1009 18.0036 44.1051 18.0021 44.1107 17.9992C44.2128 17.9638 44.3149 17.9314 44.4198 17.9108C44.424 17.9108 44.4296 17.9093 44.4338 17.9078C44.4856 17.9078 44.5401 17.899 44.5933 17.899C44.6422 17.899 44.6926 17.899 44.7416 17.9019C44.7528 17.9019 44.7625 17.9034 44.7737 17.9049C44.8339 17.9476 44.9905 17.952 45.0605 17.9756C45.0745 17.98 45.0899 17.9859 45.1039 17.9918C45.129 18.0124 45.2172 18.0448 45.2367 18.0551C45.2899 18.0846 45.3416 18.117 45.3906 18.1509C45.4102 18.1641 45.4284 18.1774 45.4466 18.1906C45.4745 18.2098 45.4815 18.2127 45.4801 18.2083C45.5123 18.2393 45.5431 18.2775 45.5571 18.2908C45.6032 18.3379 45.648 18.3865 45.6913 18.4366C45.7039 18.4528 45.7193 18.4764 45.7361 18.5C45.7403 18.5 45.7515 18.5073 45.7669 18.5324C45.7697 18.5368 45.7725 18.5412 45.7753 18.5456C45.7795 18.55 45.7837 18.5545 45.7879 18.5574C45.7837 18.5545 45.7809 18.553 45.7781 18.55C45.7879 18.5648 45.7976 18.581 45.8074 18.5957C45.869 18.6944 45.9165 18.7975 45.9697 18.9021C45.9697 18.905 45.9725 18.908 45.9739 18.9109C45.9907 18.9566 46.0047 19.0037 46.0187 19.0508C46.0466 19.1481 46.0634 19.2453 46.0844 19.3425C46.0858 19.3587 46.0886 19.3734 46.0886 19.3764C46.0914 19.4323 46.0956 19.4883 46.0956 19.5443C46.0956 19.5914 46.0956 19.64 46.0928 19.6871L46.0956 19.6886Z" fill="#C0BEBE"/>
<path d="M25.8243 11.748C25.3152 11.7716 24.8046 11.7952 24.2954 11.8187C24.0213 11.832 23.7583 12.0632 23.7709 12.3711C23.7835 12.6598 24.0017 12.9367 24.2954 12.9234C24.8046 12.8999 25.3152 12.8763 25.8243 12.8527C26.0985 12.8395 26.3615 12.6082 26.3489 12.3004C26.3363 12.0117 26.1181 11.7348 25.8243 11.748Z" fill="#C0BEBE"/>
<path d="M29.8836 4.18158C29.8836 4.18158 29.878 4.18158 29.8752 4.18158C29.8822 4.18158 29.8878 4.18305 29.8934 4.18453C29.8906 4.18453 29.8864 4.18453 29.8836 4.18453V4.18158Z" fill="#C0BEBE"/>
</svg>
