<svg width="40" height="40" viewBox="0 0 40 40" fill="none" xmlns="http://www.w3.org/2000/svg">
<g clip-path="url(#clip0_662_3501)">
<path d="M11.6317 38.1783C15.531 39.9401 19.8497 40.4435 24.0516 39.6015C27.9719 38.8165 31.6496 36.7611 34.4139 33.8757C37.2022 30.9663 39.1279 27.197 39.7329 23.206C39.8946 22.1453 39.9935 21.0817 39.9964 20.009C39.9845 15.9281 38.7386 11.8502 36.3666 8.52137C33.9767 5.16856 30.6733 2.62474 26.8099 1.19853C22.9135 -0.242672 18.511 -0.374508 14.5188 0.761073C10.6883 1.85171 7.16925 4.12287 4.63855 7.20302C1.98207 10.439 0.38279 14.3611 0.0563445 18.5438C-0.264111 22.6367 0.745174 26.8375 2.87156 30.3491C4.92607 33.7408 8.01382 36.5453 11.6317 38.1813V38.1783ZM26.4924 35.7513C26.4924 35.7513 26.5403 35.7334 26.5852 35.7124C26.5553 35.7274 26.5224 35.7453 26.4924 35.7513ZM33.4316 30.4659C33.4645 30.421 33.5185 30.3491 33.5185 30.3521C33.5125 30.3791 33.4675 30.427 33.4316 30.4659ZM35.6928 26.6068C35.7137 26.5588 35.7347 26.5019 35.7347 26.5049C35.7287 26.5379 35.7107 26.5738 35.6928 26.6068ZM36.8578 22.3491C36.8518 22.403 36.8488 22.43 36.8578 22.3491ZM33.5185 9.66594C33.5185 9.66594 33.4675 9.59703 33.4316 9.55208C33.4645 9.58804 33.5095 9.63897 33.5185 9.66594ZM26.6212 4.32062C26.5673 4.29965 26.4894 4.26669 26.4924 4.26669C26.5313 4.27268 26.5793 4.29665 26.6212 4.32062ZM22.3924 3.14909C22.3924 3.14909 22.2905 3.13411 22.2366 3.12811C22.2905 3.12811 22.3624 3.13411 22.3924 3.14909ZM3.05125 18.5438C3.06922 18.3041 3.09318 18.0614 3.12313 17.8217C3.12313 17.8008 3.12912 17.7828 3.12912 17.7618C3.15009 17.645 3.16206 17.5221 3.18303 17.4053C3.2609 16.9349 3.35374 16.4704 3.46755 16.009C3.68617 15.1131 3.99165 14.2532 4.3181 13.3933C4.32708 13.3723 4.33607 13.3543 4.34505 13.3334C4.39297 13.2285 4.4379 13.1206 4.48881 13.0158C4.58465 12.806 4.68647 12.5963 4.7913 12.3925C5.00094 11.982 5.22256 11.5776 5.46215 11.185C5.69276 10.8075 5.93535 10.436 6.18992 10.0734C6.30672 9.90864 6.44149 9.64197 6.59723 9.51913C6.60022 9.51613 6.40555 9.75583 6.51337 9.62999C6.54631 9.59403 6.57327 9.55208 6.60621 9.51613C6.68707 9.41426 6.77093 9.31238 6.85479 9.21351C7.44179 8.51238 8.0797 7.85321 8.76254 7.24497C8.92127 7.10414 9.083 6.96632 9.24472 6.82849C9.33158 6.75658 9.42142 6.68167 9.51127 6.61276C9.53523 6.59478 9.55919 6.57381 9.58315 6.55583C9.94254 6.29216 10.3049 6.02849 10.6793 5.7828C11.437 5.28841 12.2336 4.85096 13.0572 4.47343C13.1621 4.42549 13.2699 4.37755 13.3747 4.33261C13.3867 4.32662 13.3927 4.32362 13.4047 4.32062C13.4136 4.31763 13.4196 4.31463 13.4316 4.31163C13.6472 4.22774 13.8629 4.14085 14.0845 4.05995C14.5247 3.90115 14.971 3.75733 15.4202 3.63148C15.8755 3.50564 16.3367 3.39478 16.8009 3.3019C17.0165 3.25995 17.2351 3.221 17.4538 3.18504C17.5526 3.17006 17.6544 3.15808 17.7563 3.1401C17.7952 3.13411 17.8341 3.13111 17.8731 3.12512C18.8434 3.01426 19.8227 2.9783 20.7991 3.02025C21.2663 3.04122 21.7335 3.07718 22.1977 3.13111C22.2067 3.13111 22.2187 3.13111 22.2336 3.13111C22.2426 3.13111 22.2456 3.13111 22.2576 3.13411C22.3744 3.15208 22.4942 3.17006 22.611 3.18804C22.8446 3.22699 23.0812 3.26894 23.3148 3.31688C24.2372 3.50265 25.1447 3.76332 26.0252 4.08991C26.2289 4.16482 26.4265 4.24871 26.6302 4.32662C26.6421 4.32961 26.6451 4.33261 26.6541 4.3356C26.6631 4.3416 26.6781 4.34759 26.6841 4.35059C26.7889 4.39853 26.8967 4.44347 27.0015 4.49441C27.4208 4.68916 27.8311 4.8989 28.2354 5.12062C28.6368 5.34534 29.0321 5.58205 29.4154 5.83673C29.5921 5.95358 29.7688 6.07343 29.9425 6.19628C30.0354 6.2622 30.1282 6.33111 30.2211 6.39703C30.278 6.43898 30.5924 6.69066 30.4217 6.54684C30.251 6.40002 30.4966 6.60677 30.5385 6.64272C30.6284 6.71463 30.7152 6.78654 30.8051 6.86145C30.9818 7.00826 31.1525 7.15808 31.3232 7.31089C31.6616 7.6165 31.9911 7.93411 32.3085 8.26669C32.626 8.59628 32.9285 8.93785 33.222 9.29141C33.2849 9.36632 33.3477 9.44422 33.4076 9.51913C33.4136 9.52512 33.4226 9.5371 33.4346 9.54909C33.4376 9.55508 33.4406 9.55508 33.4436 9.56407C33.5873 9.76482 33.7371 9.95658 33.8778 10.1573C34.396 10.8974 34.8602 11.6764 35.2645 12.4824C35.3603 12.6742 35.4532 12.8689 35.543 13.0637C35.5909 13.1686 35.6389 13.2764 35.6838 13.3813C35.6898 13.3963 35.6958 13.4083 35.7017 13.4202C35.7077 13.4352 35.7167 13.4562 35.7257 13.4832C35.8904 13.9026 36.0462 14.3221 36.1839 14.7536C36.4744 15.6555 36.6931 16.5783 36.8398 17.5131C36.8548 17.615 36.8638 17.7169 36.8847 17.8188C36.8009 17.4023 36.8787 17.7738 36.8907 17.8817C36.9177 18.1034 36.9386 18.3281 36.9566 18.5528C36.9955 19.0412 37.0135 19.5296 37.0135 20.018C37.0135 20.5064 36.9955 20.9978 36.9566 21.4832C36.9386 21.7079 36.9177 21.9296 36.8907 22.1543C36.8877 22.1903 36.8817 22.2262 36.8787 22.2652C36.8578 22.382 36.8458 22.5049 36.8248 22.6217C36.6751 23.5386 36.4565 24.4435 36.1719 25.3274C36.0282 25.7708 35.8575 26.2053 35.6898 26.6397C35.6898 26.6397 35.6898 26.6427 35.6868 26.6457C35.6389 26.7506 35.5939 26.8584 35.546 26.9633C35.4502 27.1731 35.3483 27.3828 35.2465 27.5895C34.8332 28.4105 34.357 29.2015 33.8239 29.9506C33.7011 30.1244 33.5724 30.2922 33.4466 30.4659C33.4406 30.4719 33.4406 30.4749 33.4376 30.4779C33.4256 30.4899 33.4166 30.5019 33.4106 30.5109C33.3298 30.6128 33.2459 30.7146 33.1621 30.8135C32.8805 31.1521 32.584 31.4817 32.2786 31.7993C31.9611 32.1289 31.6317 32.4465 31.2902 32.7521C31.1315 32.8929 30.9728 33.0337 30.8081 33.1686C30.7212 33.2405 30.6314 33.3154 30.5415 33.3873C30.5056 33.4143 30.4696 33.4442 30.4367 33.4712C29.7149 34.0015 28.9782 34.4989 28.1965 34.9334C27.7922 35.1581 27.3789 35.3648 26.9596 35.5566C26.8548 35.6045 26.747 35.6525 26.6421 35.6974C26.6421 35.6974 26.6362 35.6974 26.6362 35.7004C26.4026 35.7843 26.1719 35.8862 25.9383 35.9701C25.0698 36.2847 24.1773 36.5364 23.2729 36.7161C23.0572 36.7611 22.8386 36.8 22.62 36.836C22.5152 36.854 22.4103 36.8689 22.3055 36.8839C22.2546 36.8899 22.2037 36.8959 22.1528 36.9019C21.6886 36.9558 21.2214 36.9918 20.7542 37.0098C19.7778 37.0487 18.8015 37.0098 17.8311 36.8959C17.7982 36.8929 17.7682 36.8869 17.7353 36.8839C17.6454 36.8689 17.5556 36.857 17.4657 36.842C17.2142 36.803 16.9626 36.7551 16.711 36.7041C16.2648 36.6143 15.8215 36.5064 15.3843 36.3835C14.9351 36.2577 14.4888 36.1109 14.0486 35.9521C13.8449 35.8772 13.6442 35.7963 13.4436 35.7184C13.4316 35.7154 13.4256 35.7124 13.4166 35.7064C13.4076 35.7034 13.3987 35.6974 13.3897 35.6944C13.2699 35.6405 13.1471 35.5865 13.0273 35.5326C12.2067 35.1521 11.413 34.7116 10.6553 34.2173C10.4637 34.0914 10.275 33.9626 10.0863 33.8307C9.91858 33.7139 9.65503 33.585 9.53224 33.4232C9.53224 33.4202 9.76883 33.612 9.64305 33.5071C9.59213 33.4652 9.54122 33.4262 9.49031 33.3843C9.41244 33.3214 9.33757 33.2614 9.26269 33.1985C9.07401 33.0427 8.88833 32.8809 8.70564 32.7161C8.03778 32.1139 7.41484 31.4667 6.83981 30.7746C6.76793 30.6877 6.69306 30.5978 6.62418 30.5079C6.59423 30.4689 6.56428 30.43 6.53134 30.394C6.42652 30.2652 6.61819 30.5049 6.61519 30.5049C6.44448 30.3761 6.30073 30.0854 6.17794 29.9116C5.91439 29.5371 5.66281 29.1506 5.42622 28.7581C5.1986 28.3776 4.98297 27.988 4.78231 27.5895C4.67749 27.3828 4.57866 27.1761 4.48282 26.9633C4.44089 26.8734 4.40196 26.7835 4.36003 26.6907C4.35404 26.6787 4.34505 26.6607 4.33906 26.6457C4.33607 26.6337 4.32708 26.6158 4.3181 26.5888C3.97369 25.7139 3.68018 24.827 3.46156 23.9131C3.35673 23.4667 3.26689 23.0173 3.19501 22.5648C3.18003 22.4659 3.11714 22.3041 3.1411 22.2083C3.1411 22.2053 3.18003 22.5259 3.16206 22.3521C3.15608 22.3011 3.15009 22.2502 3.1441 22.1993C3.11415 21.9416 3.09019 21.6839 3.06922 21.4262C2.99734 20.4674 2.99734 19.5026 3.07222 18.5468L3.05125 18.5438Z" fill="#044343"/>
<path d="M11.6317 38.1783C15.531 39.9401 19.8497 40.4435 24.0516 39.6015C27.9719 38.8165 31.6496 36.7611 34.4139 33.8757C37.2022 30.9663 39.1279 27.197 39.7329 23.206C39.8946 22.1453 39.9935 21.0817 39.9964 20.009C39.9845 15.9281 38.7386 11.8502 36.3666 8.52137C33.9767 5.16856 30.6733 2.62474 26.8099 1.19853C22.9135 -0.242672 18.511 -0.374508 14.5188 0.761073C10.6883 1.85171 7.16925 4.12287 4.63855 7.20302C1.98207 10.439 0.38279 14.3611 0.0563445 18.5438C-0.264111 22.6367 0.745174 26.8375 2.87156 30.3491C4.92607 33.7408 8.01382 36.5453 11.6317 38.1813V38.1783ZM26.4924 35.7513C26.4924 35.7513 26.5403 35.7334 26.5852 35.7124C26.5553 35.7274 26.5224 35.7453 26.4924 35.7513ZM33.4316 30.4659C33.4645 30.421 33.5185 30.3491 33.5185 30.3521C33.5125 30.3791 33.4675 30.427 33.4316 30.4659ZM35.6928 26.6068C35.7137 26.5588 35.7347 26.5019 35.7347 26.5049C35.7287 26.5379 35.7107 26.5738 35.6928 26.6068ZM36.8578 22.3491C36.8518 22.403 36.8488 22.43 36.8578 22.3491ZM33.5185 9.66594C33.5185 9.66594 33.4675 9.59703 33.4316 9.55208C33.4645 9.58804 33.5095 9.63897 33.5185 9.66594ZM26.6212 4.32062C26.5673 4.29965 26.4894 4.26669 26.4924 4.26669C26.5313 4.27268 26.5793 4.29665 26.6212 4.32062ZM22.3924 3.14909C22.3924 3.14909 22.2905 3.13411 22.2366 3.12811C22.2905 3.12811 22.3624 3.13411 22.3924 3.14909ZM3.05125 18.5438C3.06922 18.3041 3.09318 18.0614 3.12313 17.8217C3.12313 17.8008 3.12912 17.7828 3.12912 17.7618C3.15009 17.645 3.16206 17.5221 3.18303 17.4053C3.2609 16.9349 3.35374 16.4704 3.46755 16.009C3.68617 15.1131 3.99165 14.2532 4.3181 13.3933C4.32708 13.3723 4.33607 13.3543 4.34505 13.3334C4.39297 13.2285 4.4379 13.1206 4.48881 13.0158C4.58465 12.806 4.68647 12.5963 4.7913 12.3925C5.00094 11.982 5.22256 11.5776 5.46215 11.185C5.69276 10.8075 5.93535 10.436 6.18992 10.0734C6.30672 9.90864 6.44149 9.64197 6.59723 9.51913C6.60022 9.51613 6.40555 9.75583 6.51337 9.62999C6.54631 9.59403 6.57327 9.55208 6.60621 9.51613C6.68707 9.41426 6.77093 9.31238 6.85479 9.21351C7.44179 8.51238 8.0797 7.85321 8.76254 7.24497C8.92127 7.10414 9.083 6.96632 9.24472 6.82849C9.33158 6.75658 9.42142 6.68167 9.51127 6.61276C9.53523 6.59478 9.55919 6.57381 9.58315 6.55583C9.94254 6.29216 10.3049 6.02849 10.6793 5.7828C11.437 5.28841 12.2336 4.85096 13.0572 4.47343C13.1621 4.42549 13.2699 4.37755 13.3747 4.33261C13.3867 4.32662 13.3927 4.32362 13.4047 4.32062C13.4136 4.31763 13.4196 4.31463 13.4316 4.31163C13.6472 4.22774 13.8629 4.14085 14.0845 4.05995C14.5247 3.90115 14.971 3.75733 15.4202 3.63148C15.8755 3.50564 16.3367 3.39478 16.8009 3.3019C17.0165 3.25995 17.2351 3.221 17.4538 3.18504C17.5526 3.17006 17.6544 3.15808 17.7563 3.1401C17.7952 3.13411 17.8341 3.13111 17.8731 3.12512C18.8434 3.01426 19.8227 2.9783 20.7991 3.02025C21.2663 3.04122 21.7335 3.07718 22.1977 3.13111C22.2067 3.13111 22.2187 3.13111 22.2336 3.13111C22.2426 3.13111 22.2456 3.13111 22.2576 3.13411C22.3744 3.15208 22.4942 3.17006 22.611 3.18804C22.8446 3.22699 23.0812 3.26894 23.3148 3.31688C24.2372 3.50265 25.1447 3.76332 26.0252 4.08991C26.2289 4.16482 26.4265 4.24871 26.6302 4.32662C26.6421 4.32961 26.6451 4.33261 26.6541 4.3356C26.6631 4.3416 26.6781 4.34759 26.6841 4.35059C26.7889 4.39853 26.8967 4.44347 27.0015 4.49441C27.4208 4.68916 27.8311 4.8989 28.2354 5.12062C28.6368 5.34534 29.0321 5.58205 29.4154 5.83673C29.5921 5.95358 29.7688 6.07343 29.9425 6.19628C30.0354 6.2622 30.1282 6.33111 30.2211 6.39703C30.278 6.43898 30.5924 6.69066 30.4217 6.54684C30.251 6.40002 30.4966 6.60677 30.5385 6.64272C30.6284 6.71463 30.7152 6.78654 30.8051 6.86145C30.9818 7.00826 31.1525 7.15808 31.3232 7.31089C31.6616 7.6165 31.9911 7.93411 32.3085 8.26669C32.626 8.59628 32.9285 8.93785 33.222 9.29141C33.2849 9.36632 33.3477 9.44422 33.4076 9.51913C33.4136 9.52512 33.4226 9.5371 33.4346 9.54909C33.4376 9.55508 33.4406 9.55508 33.4436 9.56407C33.5873 9.76482 33.7371 9.95658 33.8778 10.1573C34.396 10.8974 34.8602 11.6764 35.2645 12.4824C35.3603 12.6742 35.4532 12.8689 35.543 13.0637C35.5909 13.1686 35.6389 13.2764 35.6838 13.3813C35.6898 13.3963 35.6958 13.4083 35.7017 13.4202C35.7077 13.4352 35.7167 13.4562 35.7257 13.4832C35.8904 13.9026 36.0462 14.3221 36.1839 14.7536C36.4744 15.6555 36.6931 16.5783 36.8398 17.5131C36.8548 17.615 36.8638 17.7169 36.8847 17.8188C36.8009 17.4023 36.8787 17.7738 36.8907 17.8817C36.9177 18.1034 36.9386 18.3281 36.9566 18.5528C36.9955 19.0412 37.0135 19.5296 37.0135 20.018C37.0135 20.5064 36.9955 20.9978 36.9566 21.4832C36.9386 21.7079 36.9177 21.9296 36.8907 22.1543C36.8877 22.1903 36.8817 22.2262 36.8787 22.2652C36.8578 22.382 36.8458 22.5049 36.8248 22.6217C36.6751 23.5386 36.4565 24.4435 36.1719 25.3274C36.0282 25.7708 35.8575 26.2053 35.6898 26.6397C35.6898 26.6397 35.6898 26.6427 35.6868 26.6457C35.6389 26.7506 35.5939 26.8584 35.546 26.9633C35.4502 27.1731 35.3483 27.3828 35.2465 27.5895C34.8332 28.4105 34.357 29.2015 33.8239 29.9506C33.7011 30.1244 33.5724 30.2922 33.4466 30.4659C33.4406 30.4719 33.4406 30.4749 33.4376 30.4779C33.4256 30.4899 33.4166 30.5019 33.4106 30.5109C33.3298 30.6128 33.2459 30.7146 33.1621 30.8135C32.8805 31.1521 32.584 31.4817 32.2786 31.7993C31.9611 32.1289 31.6317 32.4465 31.2902 32.7521C31.1315 32.8929 30.9728 33.0337 30.8081 33.1686C30.7212 33.2405 30.6314 33.3154 30.5415 33.3873C30.5056 33.4143 30.4696 33.4442 30.4367 33.4712C29.7149 34.0015 28.9782 34.4989 28.1965 34.9334C27.7922 35.1581 27.3789 35.3648 26.9596 35.5566C26.8548 35.6045 26.747 35.6525 26.6421 35.6974C26.6421 35.6974 26.6362 35.6974 26.6362 35.7004C26.4026 35.7843 26.1719 35.8862 25.9383 35.9701C25.0698 36.2847 24.1773 36.5364 23.2729 36.7161C23.0572 36.7611 22.8386 36.8 22.62 36.836C22.5152 36.854 22.4103 36.8689 22.3055 36.8839C22.2546 36.8899 22.2037 36.8959 22.1528 36.9019C21.6886 36.9558 21.2214 36.9918 20.7542 37.0098C19.7778 37.0487 18.8015 37.0098 17.8311 36.8959C17.7982 36.8929 17.7682 36.8869 17.7353 36.8839C17.6454 36.8689 17.5556 36.857 17.4657 36.842C17.2142 36.803 16.9626 36.7551 16.711 36.7041C16.2648 36.6143 15.8215 36.5064 15.3843 36.3835C14.9351 36.2577 14.4888 36.1109 14.0486 35.9521C13.8449 35.8772 13.6442 35.7963 13.4436 35.7184C13.4316 35.7154 13.4256 35.7124 13.4166 35.7064C13.4076 35.7034 13.3987 35.6974 13.3897 35.6944C13.2699 35.6405 13.1471 35.5865 13.0273 35.5326C12.2067 35.1521 11.413 34.7116 10.6553 34.2173C10.4637 34.0914 10.275 33.9626 10.0863 33.8307C9.91858 33.7139 9.65503 33.585 9.53224 33.4232C9.53224 33.4202 9.76883 33.612 9.64305 33.5071C9.59213 33.4652 9.54122 33.4262 9.49031 33.3843C9.41244 33.3214 9.33757 33.2614 9.26269 33.1985C9.07401 33.0427 8.88833 32.8809 8.70564 32.7161C8.03778 32.1139 7.41484 31.4667 6.83981 30.7746C6.76793 30.6877 6.69306 30.5978 6.62418 30.5079C6.59423 30.4689 6.56428 30.43 6.53134 30.394C6.42652 30.2652 6.61819 30.5049 6.61519 30.5049C6.44448 30.3761 6.30073 30.0854 6.17794 29.9116C5.91439 29.5371 5.66281 29.1506 5.42622 28.7581C5.1986 28.3776 4.98297 27.988 4.78231 27.5895C4.67749 27.3828 4.57866 27.1761 4.48282 26.9633C4.44089 26.8734 4.40196 26.7835 4.36003 26.6907C4.35404 26.6787 4.34505 26.6607 4.33906 26.6457C4.33607 26.6337 4.32708 26.6158 4.3181 26.5888C3.97369 25.7139 3.68018 24.827 3.46156 23.9131C3.35673 23.4667 3.26689 23.0173 3.19501 22.5648C3.18003 22.4659 3.11714 22.3041 3.1411 22.2083C3.1411 22.2053 3.18003 22.5259 3.16206 22.3521C3.15608 22.3011 3.15009 22.2502 3.1441 22.1993C3.11415 21.9416 3.09019 21.6839 3.06922 21.4262C2.99734 20.4674 2.99734 19.5026 3.07222 18.5468L3.05125 18.5438Z" fill="black" fill-opacity="0.2"/>
<path d="M6.02282 21.3633C6.31932 21.8966 6.74459 22.3281 7.16687 22.7565C8.55951 24.1737 9.95214 25.591 11.3747 26.9812C12.1175 27.7093 12.8632 28.4434 13.6718 29.1026C14.2468 29.57 14.7979 29.9745 15.4957 30.2352C16.9123 30.7595 18.4966 30.3251 19.7245 29.534C20.8296 28.8239 21.803 27.8981 22.8003 27.0442C23.8156 26.1723 24.8308 25.3003 25.8461 24.4284C27.7808 22.7685 29.7425 21.1385 31.6473 19.4487C32.5547 18.6427 33.3873 17.7138 33.7826 16.5453C34.154 15.4517 33.9533 14.1183 33.3244 13.1565C32.977 12.6232 32.5158 12.1708 31.9557 11.8681C29.3472 10.6397 27.1399 12.6202 25.1813 14.1213C23.1956 15.6434 21.21 17.1685 19.2813 18.7625C18.6134 19.3168 17.9545 19.8831 17.3046 20.4554C15.9509 19.212 14.6182 17.9505 13.2136 16.767C12.1953 15.9101 11.0213 15.2299 9.64965 15.2179C8.52656 15.209 7.35256 15.6884 6.5619 16.4884C5.77724 17.2794 5.34297 18.4419 5.46876 19.5535C5.54064 20.2007 5.70536 20.788 6.02581 21.3603L6.02282 21.3633ZM8.52357 19.6943C8.53555 19.7213 8.55052 19.7573 8.57149 19.8022C8.55651 19.8052 8.54154 19.7573 8.52357 19.6943ZM30.5122 16.3535C30.5421 16.3176 30.5691 16.2786 30.599 16.2427C30.5721 16.2876 30.5391 16.3385 30.5122 16.3535ZM30.8596 15.8382C30.8806 15.7902 30.8985 15.7393 30.9195 15.6914C30.9045 15.7513 30.8866 15.8142 30.8596 15.8382ZM30.7578 14.6846C30.7428 14.6666 30.7308 14.6487 30.7099 14.6247C30.7188 14.6247 30.7368 14.6487 30.7578 14.6846ZM30.6949 14.6037C30.6679 14.5827 30.641 14.5648 30.617 14.5438C30.6619 14.5708 30.6979 14.5947 30.6949 14.6037ZM8.859 18.4389C8.7961 18.4869 8.76316 18.5138 8.7392 18.5318C8.78412 18.4869 8.82905 18.4419 8.859 18.4389ZM8.73022 18.5438C8.73022 18.5438 8.76316 18.5228 8.80808 18.4929C8.859 18.4599 8.91291 18.4299 8.96382 18.397C9.00275 18.376 9.11955 18.334 9.17646 18.2951C9.2094 18.2861 9.23935 18.2741 9.27229 18.2651C9.32021 18.2531 9.44899 18.2412 9.51189 18.2142C9.60473 18.2112 9.69458 18.2142 9.78742 18.2142C9.82036 18.2202 9.85031 18.2262 9.88326 18.2322C9.98508 18.2561 10.0839 18.2921 10.1887 18.3191C10.2127 18.3281 10.2277 18.334 10.2426 18.34C10.2786 18.358 10.3175 18.376 10.3535 18.394C10.4643 18.4509 10.5721 18.5138 10.6769 18.5797C10.7158 18.6037 11.0393 18.8374 10.9824 18.7865C12.8243 20.2487 14.4834 21.9565 16.2355 23.5236C16.8584 24.0809 17.7299 24.0958 18.3529 23.5236C20.4313 21.612 22.6356 19.8442 24.8638 18.1123C24.9986 18.0075 25.1333 17.9026 25.2681 17.7977C25.316 17.7618 25.4538 17.6539 25.4777 17.6359C25.7862 17.3992 26.0947 17.1625 26.4032 16.9258C26.9842 16.4794 27.5652 16.0329 28.1462 15.5865C28.6254 15.2179 29.1166 14.8824 29.6556 14.6127C29.6916 14.6007 29.8413 14.5348 29.8743 14.5258C29.9072 14.5168 30.009 14.4809 30.0899 14.4509C30.1378 14.4449 30.2307 14.4359 30.3025 14.4269C30.3924 14.4509 30.5302 14.5018 30.5571 14.5078C30.5691 14.5138 30.5781 14.5198 30.5901 14.5258C30.626 14.5588 30.6619 14.5887 30.6949 14.6247C30.7188 14.6487 30.7398 14.6726 30.7608 14.6966C30.7668 14.7056 30.7698 14.7086 30.7757 14.7146C30.8147 14.7805 30.8566 14.8644 30.8626 14.8764C30.8686 14.8824 30.8716 14.8884 30.8746 14.8943C30.9015 14.9842 30.9255 15.0771 30.9524 15.167C30.9524 15.173 30.9554 15.179 30.9584 15.185C30.9584 15.2449 30.9584 15.4037 30.9584 15.4936C30.9554 15.5146 30.9524 15.5355 30.9465 15.5535C30.9405 15.5835 30.9285 15.6374 30.9165 15.6884C30.8866 15.7543 30.8536 15.8172 30.8177 15.8801C30.7638 15.979 30.7039 16.0749 30.641 16.1678C30.629 16.1857 30.614 16.2127 30.596 16.2397C30.5481 16.2966 30.5002 16.3565 30.4493 16.4134C30.2666 16.6202 30.0719 16.8179 29.8713 17.0067C29.0776 17.7588 28.2181 18.4479 27.3885 19.161C26.487 19.937 25.5826 20.7101 24.6811 21.4861C22.8452 23.0621 21.0153 24.6472 19.1705 26.2142C19.0746 26.2951 18.9788 26.376 18.88 26.4569C18.862 26.4719 18.7632 26.5498 18.7122 26.5917C18.5655 26.7026 18.4158 26.8105 18.26 26.9123C18.0474 27.0502 17.8258 27.167 17.6071 27.2899C17.5862 27.3018 17.5712 27.3108 17.5562 27.3198C17.5442 27.3228 17.5293 27.3258 17.5143 27.3318C17.3615 27.3797 17.2058 27.4217 17.0531 27.4636C17.0411 27.4666 17.0321 27.4696 17.0201 27.4726C17.0081 27.4726 16.9962 27.4726 16.9782 27.4726C16.9063 27.4696 16.8105 27.4846 16.7266 27.4816C16.7146 27.4756 16.6997 27.4726 16.6847 27.4666C16.6188 27.4487 16.5529 27.4367 16.487 27.4157C16.6428 27.4756 16.5499 27.4606 16.4002 27.3857C16.3553 27.3708 16.3133 27.3558 16.2684 27.3408C16.3163 27.3558 16.3523 27.3678 16.3882 27.3797C16.3792 27.3767 16.3732 27.3708 16.3642 27.3678C16.1786 27.2689 16.0048 27.149 15.8341 27.0262C15.8132 27.0082 15.7922 26.9932 15.7683 26.9752C15.6305 26.8644 15.4957 26.7475 15.3639 26.6307C15.0195 26.3311 14.6871 26.0194 14.3576 25.7078C13.2915 24.6951 12.2522 23.6494 11.216 22.6037C10.4643 21.8487 9.71854 21.0876 8.96981 20.3296C8.89494 20.2546 8.82306 20.1767 8.75118 20.0988C8.75118 20.0988 8.74819 20.0958 8.74519 20.0928C8.7422 20.0869 8.7392 20.0809 8.73321 20.0719C8.6823 19.985 8.62539 19.9011 8.57748 19.8112C8.5625 19.7812 8.54753 19.7513 8.53255 19.7213C8.52357 19.7003 8.52057 19.6914 8.51159 19.6794C8.48463 19.5715 8.46067 19.4217 8.43971 19.3318C8.4457 19.2479 8.46367 19.0951 8.45169 19.0262C8.46067 18.9872 8.47265 18.9513 8.48463 18.9123C8.52057 18.8464 8.56849 18.7385 8.58047 18.7146C8.58946 18.6996 8.59245 18.6966 8.60144 18.6846C8.61341 18.6696 8.62539 18.6546 8.63737 18.6427C8.65534 18.6247 8.68829 18.5857 8.72423 18.5438H8.73022Z" fill="#044343"/>
<path d="M6.02282 21.3633C6.31932 21.8966 6.74459 22.3281 7.16687 22.7565C8.55951 24.1737 9.95214 25.591 11.3747 26.9812C12.1175 27.7093 12.8632 28.4434 13.6718 29.1026C14.2468 29.57 14.7979 29.9745 15.4957 30.2352C16.9123 30.7595 18.4966 30.3251 19.7245 29.534C20.8296 28.8239 21.803 27.8981 22.8003 27.0442C23.8156 26.1723 24.8308 25.3003 25.8461 24.4284C27.7808 22.7685 29.7425 21.1385 31.6473 19.4487C32.5547 18.6427 33.3873 17.7138 33.7826 16.5453C34.154 15.4517 33.9533 14.1183 33.3244 13.1565C32.977 12.6232 32.5158 12.1708 31.9557 11.8681C29.3472 10.6397 27.1399 12.6202 25.1813 14.1213C23.1956 15.6434 21.21 17.1685 19.2813 18.7625C18.6134 19.3168 17.9545 19.8831 17.3046 20.4554C15.9509 19.212 14.6182 17.9505 13.2136 16.767C12.1953 15.9101 11.0213 15.2299 9.64965 15.2179C8.52656 15.209 7.35256 15.6884 6.5619 16.4884C5.77724 17.2794 5.34297 18.4419 5.46876 19.5535C5.54064 20.2007 5.70536 20.788 6.02581 21.3603L6.02282 21.3633ZM8.52357 19.6943C8.53555 19.7213 8.55052 19.7573 8.57149 19.8022C8.55651 19.8052 8.54154 19.7573 8.52357 19.6943ZM30.5122 16.3535C30.5421 16.3176 30.5691 16.2786 30.599 16.2427C30.5721 16.2876 30.5391 16.3385 30.5122 16.3535ZM30.8596 15.8382C30.8806 15.7902 30.8985 15.7393 30.9195 15.6914C30.9045 15.7513 30.8866 15.8142 30.8596 15.8382ZM30.7578 14.6846C30.7428 14.6666 30.7308 14.6487 30.7099 14.6247C30.7188 14.6247 30.7368 14.6487 30.7578 14.6846ZM30.6949 14.6037C30.6679 14.5827 30.641 14.5648 30.617 14.5438C30.6619 14.5708 30.6979 14.5947 30.6949 14.6037ZM8.859 18.4389C8.7961 18.4869 8.76316 18.5138 8.7392 18.5318C8.78412 18.4869 8.82905 18.4419 8.859 18.4389ZM8.73022 18.5438C8.73022 18.5438 8.76316 18.5228 8.80808 18.4929C8.859 18.4599 8.91291 18.4299 8.96382 18.397C9.00275 18.376 9.11955 18.334 9.17646 18.2951C9.2094 18.2861 9.23935 18.2741 9.27229 18.2651C9.32021 18.2531 9.44899 18.2412 9.51189 18.2142C9.60473 18.2112 9.69458 18.2142 9.78742 18.2142C9.82036 18.2202 9.85031 18.2262 9.88326 18.2322C9.98508 18.2561 10.0839 18.2921 10.1887 18.3191C10.2127 18.3281 10.2277 18.334 10.2426 18.34C10.2786 18.358 10.3175 18.376 10.3535 18.394C10.4643 18.4509 10.5721 18.5138 10.6769 18.5797C10.7158 18.6037 11.0393 18.8374 10.9824 18.7865C12.8243 20.2487 14.4834 21.9565 16.2355 23.5236C16.8584 24.0809 17.7299 24.0958 18.3529 23.5236C20.4313 21.612 22.6356 19.8442 24.8638 18.1123C24.9986 18.0075 25.1333 17.9026 25.2681 17.7977C25.316 17.7618 25.4538 17.6539 25.4777 17.6359C25.7862 17.3992 26.0947 17.1625 26.4032 16.9258C26.9842 16.4794 27.5652 16.0329 28.1462 15.5865C28.6254 15.2179 29.1166 14.8824 29.6556 14.6127C29.6916 14.6007 29.8413 14.5348 29.8743 14.5258C29.9072 14.5168 30.009 14.4809 30.0899 14.4509C30.1378 14.4449 30.2307 14.4359 30.3025 14.4269C30.3924 14.4509 30.5302 14.5018 30.5571 14.5078C30.5691 14.5138 30.5781 14.5198 30.5901 14.5258C30.626 14.5588 30.6619 14.5887 30.6949 14.6247C30.7188 14.6487 30.7398 14.6726 30.7608 14.6966C30.7668 14.7056 30.7698 14.7086 30.7757 14.7146C30.8147 14.7805 30.8566 14.8644 30.8626 14.8764C30.8686 14.8824 30.8716 14.8884 30.8746 14.8943C30.9015 14.9842 30.9255 15.0771 30.9524 15.167C30.9524 15.173 30.9554 15.179 30.9584 15.185C30.9584 15.2449 30.9584 15.4037 30.9584 15.4936C30.9554 15.5146 30.9524 15.5355 30.9465 15.5535C30.9405 15.5835 30.9285 15.6374 30.9165 15.6884C30.8866 15.7543 30.8536 15.8172 30.8177 15.8801C30.7638 15.979 30.7039 16.0749 30.641 16.1678C30.629 16.1857 30.614 16.2127 30.596 16.2397C30.5481 16.2966 30.5002 16.3565 30.4493 16.4134C30.2666 16.6202 30.0719 16.8179 29.8713 17.0067C29.0776 17.7588 28.2181 18.4479 27.3885 19.161C26.487 19.937 25.5826 20.7101 24.6811 21.4861C22.8452 23.0621 21.0153 24.6472 19.1705 26.2142C19.0746 26.2951 18.9788 26.376 18.88 26.4569C18.862 26.4719 18.7632 26.5498 18.7122 26.5917C18.5655 26.7026 18.4158 26.8105 18.26 26.9123C18.0474 27.0502 17.8258 27.167 17.6071 27.2899C17.5862 27.3018 17.5712 27.3108 17.5562 27.3198C17.5442 27.3228 17.5293 27.3258 17.5143 27.3318C17.3615 27.3797 17.2058 27.4217 17.0531 27.4636C17.0411 27.4666 17.0321 27.4696 17.0201 27.4726C17.0081 27.4726 16.9962 27.4726 16.9782 27.4726C16.9063 27.4696 16.8105 27.4846 16.7266 27.4816C16.7146 27.4756 16.6997 27.4726 16.6847 27.4666C16.6188 27.4487 16.5529 27.4367 16.487 27.4157C16.6428 27.4756 16.5499 27.4606 16.4002 27.3857C16.3553 27.3708 16.3133 27.3558 16.2684 27.3408C16.3163 27.3558 16.3523 27.3678 16.3882 27.3797C16.3792 27.3767 16.3732 27.3708 16.3642 27.3678C16.1786 27.2689 16.0048 27.149 15.8341 27.0262C15.8132 27.0082 15.7922 26.9932 15.7683 26.9752C15.6305 26.8644 15.4957 26.7475 15.3639 26.6307C15.0195 26.3311 14.6871 26.0194 14.3576 25.7078C13.2915 24.6951 12.2522 23.6494 11.216 22.6037C10.4643 21.8487 9.71854 21.0876 8.96981 20.3296C8.89494 20.2546 8.82306 20.1767 8.75118 20.0988C8.75118 20.0988 8.74819 20.0958 8.74519 20.0928C8.7422 20.0869 8.7392 20.0809 8.73321 20.0719C8.6823 19.985 8.62539 19.9011 8.57748 19.8112C8.5625 19.7812 8.54753 19.7513 8.53255 19.7213C8.52357 19.7003 8.52057 19.6914 8.51159 19.6794C8.48463 19.5715 8.46067 19.4217 8.43971 19.3318C8.4457 19.2479 8.46367 19.0951 8.45169 19.0262C8.46067 18.9872 8.47265 18.9513 8.48463 18.9123C8.52057 18.8464 8.56849 18.7385 8.58047 18.7146C8.58946 18.6996 8.59245 18.6966 8.60144 18.6846C8.61341 18.6696 8.62539 18.6546 8.63737 18.6427C8.65534 18.6247 8.68829 18.5857 8.72423 18.5438H8.73022Z" fill="black" fill-opacity="0.2"/>
</g>
<defs>
<clipPath id="clip0_662_3501">
<rect width="40" height="40" fill="white"/>
</clipPath>
</defs>
</svg>
