<svg width="125" height="90" viewBox="0 0 125 90" fill="none" xmlns="http://www.w3.org/2000/svg">
<rect x="0.5" y="0.5" width="124" height="89" rx="9.5" stroke="#C0BEBE"/>
<path d="M41.6604 27.235C41.5367 27.1696 41.3872 27.1369 41.2492 27.181C41.2065 27.1994 41.1638 27.2165 41.1212 27.235C41.0742 27.2634 41.0329 27.2989 40.9974 27.3387C40.8736 27.4978 40.7313 27.6385 40.5748 27.765C40.441 27.8602 40.2987 27.9426 40.1493 28.0108C40.0426 28.0521 39.933 28.089 39.8206 28.116C39.5488 28.1814 39.361 28.5039 39.4478 28.7711C39.5389 29.0525 39.8135 29.2145 40.1038 29.1434C40.4311 29.0638 40.7541 28.926 41.0358 28.7398C41.3588 28.5267 41.6178 28.2709 41.8511 27.9639C41.9294 27.8616 41.9379 27.6712 41.9052 27.5533C41.871 27.4296 41.7757 27.2961 41.6604 27.235Z" fill="#222222"/>
<path d="M88.9977 37.1722C88.8611 37.141 88.7075 37.1481 88.5865 37.2262C88.4684 37.3015 88.3802 37.4081 88.3418 37.5445C88.2521 37.86 88.1611 38.1755 88.0714 38.4895C88.033 38.6217 88.0558 38.7823 88.1255 38.9002C88.1909 39.011 88.3176 39.1162 88.4442 39.1446C88.5808 39.1759 88.7345 39.1688 88.8554 39.0906C88.9735 39.0153 89.0618 38.9087 89.1002 38.7723C89.1898 38.4568 89.2809 38.1414 89.3705 37.8273C89.409 37.6952 89.3862 37.5346 89.3165 37.4167C89.251 37.3058 89.1244 37.2007 88.9977 37.1722Z" fill="#222222"/>
<path d="M50.2975 38.2025C50.2946 38.1826 50.2875 38.1485 50.2875 38.13C50.2875 38.1286 50.2875 38.1257 50.2875 38.1243C50.2747 38.1542 50.2961 38.2252 50.2989 38.2025H50.2975Z" fill="#222222"/>
<path d="M43.3352 33.8257C43.3352 33.8257 43.3352 33.8257 43.3338 33.8257C43.3153 33.8413 43.2911 33.8527 43.2641 33.8626C43.2527 33.8769 43.2811 33.8754 43.3366 33.8243L43.3352 33.8257Z" fill="#222222"/>
<path d="M45.9149 44.0472C45.9363 44.0443 45.969 44.0372 45.9889 44.0372C45.9889 44.0372 45.9918 44.0372 45.9932 44.0372C45.9206 44.0216 45.8836 44.0458 45.9164 44.0472H45.9149Z" fill="#222222"/>
<path d="M45.8637 33.5003C45.8466 33.4974 45.8296 33.496 45.8125 33.4932C45.8068 33.4932 45.8011 33.4932 45.7954 33.4918C45.9135 33.5244 45.9021 33.5088 45.8637 33.5003Z" fill="#222222"/>
<path d="M46.393 37.8316C46.393 37.8316 46.3916 37.8287 46.3902 37.8273C46.3774 37.816 46.3632 37.8003 46.3503 37.7833C46.3447 37.7847 46.356 37.8074 46.393 37.8316Z" fill="#222222"/>
<path d="M44.3369 37.5048C44.3369 37.5048 44.3312 37.509 44.3284 37.5104C44.327 37.5119 44.3241 37.5147 44.3227 37.5161C44.3369 37.5062 44.3569 37.4934 44.3668 37.4849C44.3569 37.492 44.3469 37.4991 44.3369 37.5048Z" fill="#222222"/>
<path d="M46.4144 39.7415C46.4329 39.7159 46.4443 39.6789 46.4144 39.7415V39.7415Z" fill="#222222"/>
<path d="M47.3122 36.7175C46.5481 35.8848 45.3031 35.5409 44.2359 35.9601C43.0207 36.4361 42.2068 37.6838 42.3207 38.9997C42.4274 40.2459 43.2698 41.3103 44.4878 41.6499C45.7043 41.9895 46.9594 41.468 47.6566 40.4378C48.0052 39.9219 48.1831 39.2498 48.1333 38.6302C48.0763 37.9055 47.7932 37.2632 47.3137 36.7175H47.3122ZM46.0715 37.4849C46.0544 37.4721 46.033 37.4579 46.0245 37.4564C46.0359 37.4564 46.053 37.4692 46.0715 37.4849ZM45.7456 37.3058C45.831 37.3342 45.7456 37.3129 45.7115 37.2944C45.7228 37.2987 45.7342 37.303 45.7456 37.3058ZM45.4027 37.2106C45.5279 37.2191 45.4127 37.2291 45.3714 37.2078C45.3813 37.2078 45.3913 37.2092 45.4027 37.2106ZM43.7407 39.0139C43.745 39.0352 43.7479 39.0565 43.7479 39.0551C43.7436 39.0508 43.7422 39.0324 43.7407 39.0139ZM44.0253 39.7102C44.0253 39.7102 44.0339 39.7201 44.0438 39.7329C44.0324 39.7201 44.0239 39.7102 44.0253 39.7102ZM46.5837 39.4587C46.5837 39.4587 46.5866 39.4501 46.5922 39.4388C46.588 39.4501 46.5837 39.4601 46.5837 39.4587ZM46.7089 38.9983C46.7018 39.129 46.6904 39.0153 46.7089 38.9784C46.7089 38.9855 46.7089 38.9926 46.7089 38.9983ZM46.7132 38.93C46.7132 38.9457 46.7118 38.9627 46.7103 38.9784C46.6819 39.0224 46.6705 39.1944 46.6577 39.2398C46.6435 39.2924 46.625 39.3421 46.6079 39.3933C46.6079 39.3947 46.6036 39.4061 46.5994 39.4189C46.5538 39.5084 46.5083 39.5965 46.4528 39.6818C46.4357 39.7074 46.3703 39.8352 46.413 39.7457C46.413 39.7457 46.413 39.7443 46.4144 39.7429C46.413 39.7443 46.4115 39.7471 46.4101 39.7486C46.3831 39.7784 46.3575 39.8097 46.3304 39.8395C46.2692 39.9063 46.2009 39.9646 46.1341 40.0271C46.1156 40.0413 46.0942 40.0598 46.0814 40.0683C46.0345 40.101 45.9847 40.1308 45.9349 40.1607C45.8865 40.1877 45.8367 40.2132 45.7869 40.2374C45.784 40.2374 45.7826 40.2374 45.7798 40.2388C45.6773 40.2715 45.5763 40.3028 45.471 40.3241C45.4468 40.317 45.3614 40.334 45.3415 40.3354C45.2889 40.3369 45.2362 40.3369 45.1836 40.3354C45.1523 40.3354 45.074 40.3156 45.0384 40.3227C44.9872 40.3127 44.936 40.3013 44.8862 40.2871C44.8435 40.2758 44.7994 40.263 44.7567 40.2488C44.7353 40.2417 44.714 40.2331 44.6927 40.226C44.6201 40.1905 44.5475 40.1564 44.4792 40.1152C44.4337 40.0882 44.3896 40.0598 44.3469 40.0299C44.3398 40.0242 44.3327 40.02 44.3256 40.0143C44.2573 39.9461 44.1818 39.8864 44.1164 39.8154C44.1121 39.8097 44.0765 39.7713 44.0524 39.7429C44.0353 39.7187 44.0182 39.696 44.0026 39.6718C43.9513 39.5951 43.9058 39.5141 43.8645 39.4317C43.8588 39.4203 43.8531 39.4104 43.8475 39.399C43.8475 39.3947 43.846 39.3919 43.8446 39.3876C43.829 39.3251 43.8033 39.264 43.7863 39.2C43.7692 39.1361 43.7592 39.0721 43.745 39.0082C43.745 39.0054 43.745 39.0039 43.7436 39.0011C43.7436 38.9883 43.7436 38.9784 43.7436 38.9741C43.7336 38.8419 43.745 38.7126 43.7464 38.5805C43.7464 38.5748 43.7464 38.5705 43.7464 38.5677C43.7479 38.5606 43.7507 38.5521 43.7521 38.5464C43.7621 38.4909 43.7749 38.4355 43.7877 38.3815C43.8033 38.3176 43.8233 38.2551 43.8446 38.1925C43.8517 38.1712 43.8603 38.1513 43.8674 38.13C43.9257 38.0277 43.9755 37.924 44.041 37.8259C44.0552 37.806 44.0694 37.7861 44.0837 37.7662C44.1278 37.698 44.0452 37.8174 44.0452 37.8131C44.0524 37.7705 44.1391 37.7037 44.1705 37.6696C44.1818 37.6582 44.2672 37.5715 44.3241 37.5204C44.3056 37.5317 44.2985 37.536 44.3298 37.5147C44.354 37.4934 44.3725 37.4778 44.3739 37.4806C44.3739 37.4806 44.3725 37.4849 44.3668 37.4877C44.3754 37.482 44.3839 37.4749 44.3938 37.4692C44.4365 37.4394 44.4821 37.4124 44.5262 37.3868C44.576 37.3584 44.6286 37.3328 44.6799 37.3072C44.6855 37.3058 44.6898 37.3044 44.6955 37.3015C44.7994 37.2674 44.9033 37.2362 45.01 37.2163C45.0142 37.2163 45.0199 37.2149 45.0242 37.2134C45.0768 37.2134 45.1323 37.2049 45.1864 37.2049C45.2362 37.2049 45.2874 37.2049 45.3372 37.2078C45.3486 37.2078 45.3586 37.2092 45.37 37.2106C45.4311 37.2518 45.5905 37.2561 45.6617 37.2788C45.6759 37.2831 45.6915 37.2888 45.7058 37.2944C45.7314 37.3143 45.821 37.3456 45.8409 37.3555C45.895 37.384 45.9477 37.4152 45.9989 37.4479C46.0188 37.4607 46.0373 37.4735 46.0558 37.4863C46.0843 37.5048 46.0914 37.5076 46.09 37.5033C46.1227 37.5332 46.154 37.5701 46.1682 37.5829C46.2152 37.6284 46.2607 37.6753 46.3048 37.7236C46.3176 37.7392 46.3333 37.762 46.3503 37.7847C46.3546 37.7847 46.366 37.7918 46.3817 37.816C46.3845 37.8202 46.3873 37.8245 46.3902 37.8287C46.3945 37.833 46.3987 37.8373 46.403 37.8401C46.3987 37.8373 46.3959 37.8359 46.393 37.833C46.403 37.8472 46.413 37.8629 46.4229 37.8771C46.4855 37.9723 46.5339 38.0717 46.588 38.1726C46.588 38.1755 46.5908 38.1783 46.5922 38.1812C46.6093 38.2252 46.6235 38.2707 46.6378 38.3162C46.6662 38.4099 46.6833 38.5037 46.7047 38.5975C46.7061 38.6132 46.7089 38.6274 46.7089 38.6302C46.7118 38.6842 46.716 38.7382 46.716 38.7922C46.716 38.8377 46.716 38.8846 46.7132 38.93Z" fill="#222222"/>
<path d="M91.6301 34.9057C90.9599 32.993 89.5584 31.4355 87.9974 30.185C86.3867 28.8947 84.5298 27.8787 82.5022 27.4282C81.4748 27.2009 80.4233 27.1483 79.3746 27.1227C78.3928 27.1 77.3953 27.1056 76.4292 26.9152C75.5384 26.739 74.7715 26.3781 74.0159 25.885C73.3287 25.4345 72.7268 24.9627 72.1078 24.4767C70.8941 23.5218 69.6789 22.5669 68.4268 21.6631C67.7495 21.1743 67.0352 20.7749 66.2412 20.5064C65.0701 20.1113 63.8094 19.9763 62.5857 19.8513C60.588 19.6481 58.5703 19.5074 56.5611 19.5003C55.0927 19.4946 53.6058 19.5728 52.1686 19.8925C51.11 20.1284 50.0997 20.5291 49.1321 21.0165C48.0151 21.5778 46.9309 22.2073 45.8267 22.7914C43.9485 23.7847 42.0631 24.832 40.0312 25.4814C39.1348 25.7685 38.227 25.9717 37.3078 26.0186C36.437 26.0626 35.5405 25.9006 34.6854 26.1251C33.6466 26.398 33.0789 27.2605 33.0092 28.3007C32.9722 28.8549 33.0561 29.4205 33.1017 29.9719C33.1515 30.5786 33.2027 31.184 33.2525 31.7908C33.3478 32.9461 33.4318 34.1028 33.5442 35.2567C33.6452 36.3011 33.7832 37.3626 34.176 38.3432C34.7238 39.7088 35.6785 40.8072 37.1143 41.2492C37.8058 41.4623 38.5414 41.5334 39.2671 41.5547C39.5503 42.1942 39.933 42.791 40.4168 43.321C41.2649 44.2532 42.4018 44.9396 43.6184 45.2707C44.8463 45.6046 46.1967 45.5833 47.3962 45.1442C48.7351 44.6554 49.8735 43.7388 50.6632 42.5551C50.8709 42.2439 51.0459 41.9171 51.1939 41.5803C53.8263 41.5803 56.4587 41.5817 59.0911 41.5803C61.9226 41.5803 64.7542 41.576 67.5858 41.5661C69.0358 41.5604 70.4857 41.5533 71.9356 41.5433C72.2188 42.1871 72.6044 42.7853 73.0896 43.3196C73.9377 44.2518 75.0746 44.9382 76.2912 45.2693C77.5191 45.6032 78.8695 45.5819 80.069 45.1428C81.4079 44.654 82.5463 43.7374 83.336 42.5537C83.5508 42.2311 83.733 41.8915 83.8838 41.5391C85.5344 41.5391 87.1849 41.5391 88.8355 41.5391C89.113 41.5391 89.3947 41.5533 89.6722 41.5391C90.3595 41.505 90.95 40.7063 91.2573 40.155C92.1253 38.5989 92.2107 36.5697 91.6273 34.9043L91.6301 34.9057ZM86.0068 31.7283C86.0253 31.6998 86.0438 31.6714 86.0637 31.643C86.0509 31.6615 86.0039 31.7084 86.0737 31.6302C86.1192 31.5805 86.1661 31.5322 86.216 31.4853C86.2202 31.481 86.233 31.4711 86.243 31.4639C86.2714 31.4441 86.2999 31.4256 86.3284 31.4085C86.3525 31.3943 86.3796 31.3844 86.4023 31.3687C86.4066 31.3687 86.4095 31.3673 86.4152 31.3659C86.4906 31.346 86.5646 31.3261 86.6386 31.3076C86.6457 31.3062 86.6499 31.3048 86.6556 31.3034C86.6997 31.2991 86.7424 31.2948 86.7865 31.292C86.8619 31.2877 86.9359 31.2892 87.0114 31.292C87.0441 31.2934 87.0782 31.2963 87.111 31.2991C87.1166 31.2991 87.1181 31.2991 87.1209 31.2991C87.165 31.3361 87.2106 31.3716 87.2547 31.4085C88.3418 32.3194 89.4075 33.4022 90.018 34.7053C88.8796 34.7479 87.8096 34.4353 86.8534 33.7731C86.63 33.6182 86.4166 33.442 86.2017 33.1933C86.179 33.1663 86.1548 33.1393 86.1334 33.1109C86.1291 33.1038 86.1235 33.0953 86.1149 33.0839C86.0751 33.0228 86.0338 32.9617 85.9982 32.8992C85.9797 32.8679 85.9641 32.8352 85.947 32.8026C85.9442 32.7969 85.9328 32.7713 85.9257 32.7585C85.8958 32.6818 85.8716 32.6008 85.8531 32.5198C85.846 32.4885 85.8389 32.4544 85.8346 32.4231C85.8346 32.416 85.8346 32.4061 85.8346 32.3947C85.8346 32.3251 85.8346 32.2569 85.8375 32.1887C85.8375 32.1844 85.8375 32.1787 85.8403 32.173C85.846 32.1404 85.8531 32.1091 85.8616 32.0764C85.8702 32.0437 85.8787 32.0096 85.8901 31.9769C85.8915 31.9698 85.9072 31.9272 85.9171 31.9016C85.9299 31.8775 85.9584 31.8135 85.9556 31.8192C85.9712 31.7894 85.9883 31.7595 86.0068 31.7297V31.7283ZM86.1377 33.1138C86.1505 33.1308 86.1619 33.1507 86.1377 33.1138V33.1138ZM85.8417 32.1688C85.846 32.1418 85.8531 32.1091 85.8417 32.1688V32.1688ZM34.8689 34.3671C34.7608 33.2161 34.6882 32.0594 34.6014 30.9083C34.8917 30.887 35.1876 30.8685 35.4765 30.9083C35.5533 30.9183 35.7397 30.9652 35.855 31.0064C35.9147 31.0291 35.9204 31.032 35.8749 31.0135C35.9062 31.0291 35.9389 31.0447 35.9688 31.0618C36.0158 31.0874 36.0599 31.1158 36.104 31.1442C36.1367 31.1655 36.2605 31.2877 36.279 31.3176C36.289 31.3346 36.3459 31.4483 36.3473 31.4441C36.3587 31.4796 36.3701 31.5137 36.3786 31.5506C36.3857 31.5904 36.39 31.6089 36.39 31.6103C36.4256 31.913 36.3445 32.1588 36.2619 32.4644C36.1111 33.0228 35.9631 33.604 35.6159 33.9863C35.5761 34.0303 35.5306 34.0701 35.4879 34.1128C35.4651 34.1312 35.4523 34.1412 35.4495 34.1454C35.4295 34.1596 35.4096 34.1739 35.3897 34.1866C35.3314 34.225 35.2702 34.2563 35.209 34.289C35.1976 34.2946 35.1905 34.2975 35.1834 34.3003C35.1549 34.3103 35.1265 34.3216 35.0966 34.3302C35.0425 34.3472 34.987 34.36 34.9315 34.37C34.9372 34.3671 34.9031 34.3671 34.8661 34.37L34.8689 34.3671ZM44.6457 44.0372C44.5561 44.0273 44.6187 44.033 44.6656 44.0387C44.6585 44.0387 44.6528 44.0387 44.6457 44.0372ZM47.1557 43.7218C47.1557 43.7218 47.1941 43.709 47.2183 43.699C47.1941 43.7118 47.1699 43.7246 47.1557 43.7218ZM50.3231 39.2839C50.3188 39.3464 50.3146 39.4075 50.3075 39.4686C50.3032 39.507 50.2989 39.5454 50.2946 39.5837C50.2946 39.5837 50.2946 39.5837 50.2946 39.5851C50.2392 39.8651 50.1922 40.1436 50.1097 40.4179C50.0898 40.4847 50.0656 40.55 50.0428 40.6154C50.0343 40.6367 50.0271 40.658 50.0215 40.6793C50.0086 40.7163 49.9973 40.7547 49.983 40.793C49.9759 40.8129 49.9617 40.8726 49.9432 40.9209C49.9446 40.9095 49.9389 40.911 49.9218 40.9479C49.9019 40.9905 49.8834 41.0332 49.8635 41.0758C49.7397 41.3387 49.596 41.5931 49.4338 41.8361C49.3939 41.8957 49.3527 41.954 49.3114 42.0123C49.2929 42.0378 49.273 42.0634 49.2545 42.089C49.1905 42.1771 49.2488 42.1018 49.2716 42.0705C49.1976 42.1998 49.0638 42.3206 48.9642 42.4286C48.7622 42.6475 48.543 42.8507 48.3111 43.0382C48.304 43.0439 48.2058 43.1178 48.2371 43.0951C48.2243 43.1036 48.2144 43.1107 48.2129 43.1121C48.1589 43.1519 48.1034 43.1903 48.0479 43.2272C47.9184 43.3153 47.7846 43.3963 47.6495 43.4731C47.5228 43.5441 47.3948 43.6095 47.2624 43.6706C47.2539 43.6749 47.2411 43.682 47.2283 43.6891C47.2212 43.6919 47.2098 43.6962 47.1927 43.7033C47.1201 43.7317 47.0462 43.7601 46.9722 43.7871C46.7103 43.8809 46.4414 43.9534 46.1682 44.006C46.1085 44.0173 46.0501 44.0259 45.9904 44.0358C45.9918 44.0358 45.9946 44.0358 45.996 44.0358C45.9932 44.0358 45.9904 44.0358 45.9861 44.0358C45.9719 44.0387 45.9562 44.0415 45.942 44.0429C45.9277 44.0458 45.9192 44.0458 45.9121 44.0443C45.9092 44.0443 45.9064 44.0443 45.905 44.0443C45.7542 44.06 45.6033 44.0699 45.4525 44.0728C45.1935 44.0784 44.936 44.0628 44.6784 44.0358C44.65 44.0287 44.6144 44.0273 44.5874 44.023C44.5205 44.0117 44.455 44.0003 44.3882 43.9875C44.2487 43.9591 44.1107 43.9264 43.9727 43.888C43.8503 43.8539 43.7279 43.817 43.6084 43.7743C43.5373 43.7502 43.4675 43.7246 43.3978 43.6962C43.3722 43.6862 43.3466 43.6763 43.3224 43.6663C43.3224 43.6663 43.321 43.6663 43.3196 43.6649C43.0734 43.5512 42.8329 43.4305 42.6024 43.2898C42.4872 43.2187 42.3733 43.1448 42.2638 43.0667C42.2154 43.0326 42.1698 42.997 42.1229 42.9629C42.093 42.9374 42.0617 42.9132 42.0318 42.889C41.817 42.71 41.6135 42.5167 41.4257 42.3093C41.3958 42.2766 41.1454 42.0179 41.1596 41.9966C41.1596 41.9966 41.2663 42.1402 41.1866 42.0322C41.1681 42.008 41.1496 41.9838 41.1325 41.9583C41.087 41.8957 41.0429 41.8332 41.0016 41.7707C40.838 41.5277 40.6929 41.2705 40.5691 41.0048C40.5577 40.9806 40.5235 40.901 40.5164 40.8854C40.4922 40.8243 40.468 40.7632 40.4453 40.7021C40.3841 40.533 40.33 40.3596 40.2845 40.1848C40.2418 40.0186 40.2062 39.8509 40.1764 39.6832C40.1707 39.6462 40.1635 39.6079 40.1579 39.5709C40.155 39.551 40.1522 39.5382 40.1507 39.5297C40.1379 39.4473 40.1351 39.3592 40.1294 39.2782C40.1038 38.9258 40.1081 38.5719 40.1422 38.2195C40.1465 38.1812 40.1507 38.1442 40.1536 38.1059C40.1564 38.0831 40.1579 38.0689 40.1579 38.0604C40.1664 37.9964 40.1792 37.9325 40.1906 37.87C40.2233 37.6909 40.2631 37.5147 40.3101 37.3399C40.3556 37.1751 40.4069 37.0102 40.4652 36.8497C40.4908 36.7786 40.5193 36.7076 40.5463 36.6365C40.5463 36.6337 40.5477 36.6308 40.5492 36.628C40.5492 36.6266 40.5506 36.6251 40.552 36.6223C40.5762 36.5711 40.599 36.5186 40.6231 36.4674C40.7669 36.1661 40.9362 35.8762 41.1283 35.602C41.1653 35.548 41.2051 35.4954 41.2435 35.4428C41.245 35.4414 41.2464 35.44 41.2478 35.4372C41.2691 35.4102 41.2905 35.3831 41.3118 35.3576C41.4029 35.2467 41.4968 35.1402 41.5964 35.035C41.7899 34.8304 42.0005 34.6471 42.2168 34.468C42.241 34.451 42.2638 34.4325 42.2879 34.4154C42.3434 34.3756 42.3989 34.3373 42.4558 34.2989C42.574 34.2193 42.6963 34.1454 42.8201 34.0758C42.9368 34.0104 43.0549 33.9493 43.1758 33.8925C43.2 33.8811 43.2313 33.8712 43.2626 33.8598C43.2683 33.8527 43.2826 33.8413 43.3096 33.8314C43.3167 33.8285 43.3252 33.8257 43.3324 33.8229C43.3324 33.8229 43.3352 33.8214 43.3366 33.82C43.3366 33.82 43.3352 33.8214 43.3338 33.8229C43.3594 33.8129 43.385 33.8015 43.412 33.793C43.671 33.695 43.9385 33.6154 44.2089 33.5571C44.3256 33.5315 44.4422 33.5159 44.5589 33.4932C44.5803 33.4903 44.6002 33.4889 44.6215 33.4861C44.6941 33.479 44.7652 33.4719 44.8378 33.4676C45.1053 33.4505 45.3742 33.4534 45.6417 33.4747C45.693 33.479 45.7428 33.4847 45.7926 33.4903C45.7869 33.4889 45.784 33.4875 45.7769 33.4861C45.7869 33.4889 45.7983 33.4903 45.8082 33.4918C45.8168 33.4918 45.8267 33.4932 45.8353 33.4946C45.8438 33.4946 45.8523 33.4974 45.8594 33.4989C45.8594 33.4989 45.8623 33.4989 45.8637 33.4989C46.0089 33.5216 46.1526 33.55 46.2934 33.5855C46.541 33.6452 46.7801 33.7248 47.0177 33.8158C47.0419 33.8328 47.0874 33.8442 47.1102 33.8541C47.1714 33.8825 47.2326 33.911 47.2937 33.9408C47.4232 34.0048 47.5499 34.0744 47.6737 34.1483C47.7861 34.2151 47.897 34.2875 48.0038 34.3614C48.0507 34.3941 48.1631 34.451 48.193 34.4993C48.1873 34.4893 48.0607 34.3941 48.1617 34.4751C48.1987 34.505 48.2357 34.5348 48.2727 34.5646C48.4975 34.7522 48.7067 34.9568 48.903 35.1743C48.96 35.2382 49.0169 35.3022 49.0709 35.3689C49.1065 35.4116 49.2075 35.575 49.1179 35.4244C49.1976 35.5594 49.3071 35.6816 49.3939 35.8137C49.5604 36.0667 49.7084 36.3324 49.8379 36.6067C49.8521 36.6365 49.8649 36.6649 49.8777 36.6948C49.8792 36.699 49.8905 36.7232 49.9005 36.7445C49.9048 36.7544 49.909 36.763 49.9105 36.7687C49.9247 36.8056 49.9403 36.8425 49.9546 36.8809C50.0058 37.0145 50.0513 37.1509 50.0926 37.2888C50.1751 37.5616 50.2335 37.8387 50.2804 38.1201C50.2804 38.1201 50.2804 38.1172 50.2818 38.1158C50.2818 38.1158 50.2818 38.1215 50.2818 38.1272C50.2847 38.14 50.2861 38.1527 50.289 38.1655C50.2918 38.184 50.2932 38.194 50.2918 38.1996C50.2918 38.2025 50.2918 38.2082 50.2932 38.2096C50.3003 38.2792 50.3075 38.3488 50.3131 38.4199C50.3245 38.5677 50.3302 38.7155 50.3302 38.8633C50.3302 39.0025 50.326 39.1432 50.3174 39.2825L50.3231 39.2839ZM47.0376 33.8229C47.0376 33.8229 47.0504 33.8271 47.0575 33.83C47.1443 33.8641 47.0789 33.8399 47.0376 33.8229ZM68.4766 40.1422C66.937 40.1479 65.3974 40.1536 63.8564 40.1564C63.3954 40.1564 62.9329 40.1564 62.4719 40.1564C62.6241 39.9759 62.775 39.7969 62.9272 39.6164C63.0197 39.5056 63.0837 39.389 63.0837 39.2398C63.0837 39.1091 63.0254 38.9528 62.9272 38.8633C62.8262 38.7695 62.6924 38.7013 62.5501 38.7069C62.4164 38.7126 62.2627 38.7567 62.1731 38.8633C61.8131 39.291 61.4517 39.7187 61.0917 40.1465C61.0888 40.1507 61.086 40.1536 61.0831 40.1578C60.6591 40.1578 60.2337 40.1578 59.8096 40.1578L61.3734 38.4014C61.5584 38.1925 61.594 37.8501 61.3734 37.6483C61.1714 37.4621 60.817 37.4252 60.6193 37.6483C59.8979 38.4583 59.1764 39.2697 58.455 40.0797C58.4323 40.1038 58.4138 40.1308 58.3953 40.1592C57.9897 40.1592 57.5828 40.1592 57.1773 40.1592C57.1773 40.1592 57.1787 40.1578 57.1801 40.1564C57.6312 39.6832 58.0822 39.2114 58.5319 38.7382C58.724 38.5364 58.7481 38.1826 58.5319 37.9851C58.3227 37.7932 57.9826 37.7691 57.7777 37.9851C57.3267 38.4583 56.8756 38.93 56.4245 39.4032C56.4132 39.4146 56.406 39.4274 56.3961 39.4402C55.5253 36.6948 54.9006 33.8484 54.5648 31.0163C54.468 30.2006 54.394 29.3807 54.3414 28.5608C54.9006 28.6205 55.4612 28.6773 56.0219 28.7242C59.1736 28.9942 62.3381 29.0837 65.4998 29.1164C67.2415 29.1349 68.9831 29.1349 70.7248 29.1349C69.7102 31.9087 69.0258 34.7934 68.6786 37.7279C68.5833 38.5293 68.5178 39.3336 68.4751 40.1393L68.4766 40.1422ZM62.829 23.9595C62.8504 23.9623 62.8717 23.9652 62.8931 23.968C62.9642 23.9765 62.9457 23.9751 62.903 23.968C62.913 23.9694 62.9244 23.9708 62.9343 23.9723C63.0055 23.9822 63.078 23.9936 63.1492 24.005C63.2744 24.0263 63.3982 24.049 63.522 24.076C63.6842 24.1115 63.8436 24.1556 64.0015 24.2039C64.1239 24.2423 64.2463 24.2835 64.3672 24.3275C64.4284 24.3503 64.4896 24.373 64.5493 24.3972C64.5977 24.4156 64.7855 24.4853 64.6404 24.4327C65.1541 24.6174 65.6492 24.9229 66.1131 25.2071C66.6168 25.5155 67.1006 25.8551 67.5716 26.2104C67.6171 26.2445 67.6641 26.28 67.7096 26.3155C67.6954 26.3056 67.7694 26.361 67.7964 26.3823C67.9188 26.4775 68.0397 26.5742 68.1607 26.6722C68.3926 26.8598 68.6231 27.0502 68.8508 27.2435C69.0343 27.3984 69.2165 27.5561 69.3972 27.7153C66.6993 27.7138 64.0015 27.7011 61.3051 27.6087C59.7456 27.5561 58.1861 27.4751 56.6294 27.3529C55.9109 27.2961 55.1937 27.2307 54.4766 27.1554C54.6359 26.0413 54.7967 24.9272 54.9561 23.8131C55.2407 23.8017 55.5253 23.7904 55.8113 23.7818C57.4618 23.7335 59.1167 23.7293 60.7658 23.8017C61.4716 23.833 62.1773 23.8771 62.8788 23.9652C62.8803 23.9652 62.8817 23.9652 62.8831 23.9652C62.866 23.9623 62.8461 23.9595 62.829 23.9581V23.9595ZM77.3185 44.0372C77.2289 44.0273 77.2915 44.033 77.3384 44.0387C77.3313 44.0387 77.3256 44.0387 77.3185 44.0372ZM79.8299 43.7218C79.8299 43.7218 79.8684 43.709 79.8925 43.699C79.8684 43.7118 79.8442 43.7246 79.8299 43.7218ZM82.9959 39.2839C82.9916 39.3464 82.9874 39.4075 82.9803 39.4686C82.976 39.507 82.9717 39.5454 82.9674 39.5837C82.9674 39.5837 82.9674 39.5837 82.9674 39.5851C82.912 39.8651 82.865 40.1436 82.7825 40.4179C82.7441 40.5443 82.7028 40.6694 82.6558 40.793C82.6487 40.8129 82.6345 40.8726 82.616 40.9209C82.6174 40.9095 82.6117 40.911 82.5946 40.9479C82.5747 40.9905 82.5562 41.0332 82.5363 41.0758C82.4125 41.3387 82.2688 41.5931 82.1066 41.8361C82.0667 41.8957 82.0255 41.954 81.9842 42.0123C81.9657 42.0378 81.9458 42.0634 81.9273 42.089C81.8633 42.1771 81.9216 42.1018 81.9444 42.0705C81.8704 42.1998 81.7366 42.3206 81.637 42.4286C81.435 42.6475 81.2158 42.8507 80.9839 43.0382C80.9768 43.0439 80.8772 43.1178 80.9099 43.0951C80.8971 43.1036 80.8872 43.1107 80.8857 43.1121C80.8317 43.1519 80.7762 43.1903 80.7207 43.2272C80.5912 43.3153 80.4574 43.3963 80.3223 43.4731C80.1956 43.5441 80.0676 43.6095 79.9352 43.6706C79.9267 43.6749 79.9139 43.682 79.9011 43.6891C79.894 43.6919 79.8826 43.6962 79.8655 43.7033C79.7929 43.7317 79.719 43.7601 79.645 43.7871C79.3831 43.8809 79.1142 43.9534 78.841 44.006C78.7813 44.0173 78.7229 44.0259 78.6632 44.0358C78.6646 44.0358 78.6674 44.0358 78.6688 44.0358C78.666 44.0358 78.6632 44.0358 78.6589 44.0358C78.6447 44.0387 78.629 44.0415 78.6148 44.0429C78.6005 44.0458 78.592 44.0458 78.5849 44.0443C78.582 44.0443 78.5792 44.0443 78.5778 44.0443C78.427 44.06 78.2761 44.0699 78.1253 44.0728C77.8663 44.0784 77.6088 44.0628 77.3512 44.0358C77.3228 44.0287 77.2872 44.0273 77.2602 44.023C77.1933 44.0117 77.1278 44.0003 77.061 43.9875C76.9215 43.9591 76.7835 43.9264 76.6455 43.888C76.5231 43.8539 76.4007 43.817 76.2812 43.7743C76.2101 43.7502 76.1403 43.7246 76.0706 43.6962C76.045 43.6862 76.0194 43.6763 75.9952 43.6663C75.9952 43.6663 75.9938 43.6663 75.9924 43.6649C75.7462 43.5512 75.5057 43.4305 75.2752 43.2898C75.16 43.2187 75.0461 43.1448 74.9366 43.0667C74.8882 43.0326 74.8426 42.997 74.7957 42.9629C74.7658 42.9374 74.7345 42.9132 74.7046 42.889C74.4898 42.71 74.2863 42.5167 74.0985 42.3093C74.0686 42.2766 73.8182 42.0179 73.8324 41.9966C73.8324 41.9966 73.9391 42.1402 73.8594 42.0322C73.8409 42.008 73.8224 41.9838 73.8053 41.9583C73.7598 41.8957 73.7157 41.8332 73.6744 41.7707C73.5108 41.5277 73.3657 41.2705 73.2419 41.0048C73.2305 40.9806 73.1963 40.901 73.1892 40.8854C73.165 40.8243 73.1408 40.7632 73.1181 40.7021C73.0569 40.533 73.0028 40.3596 72.9573 40.1848C72.9146 40.0186 72.879 39.8509 72.8492 39.6832C72.8435 39.6462 72.8363 39.6079 72.8307 39.5709C72.8278 39.551 72.825 39.5382 72.8235 39.5297C72.8107 39.4473 72.8079 39.3592 72.8022 39.2782C72.7766 38.9258 72.7809 38.5719 72.815 38.2195C72.8193 38.1812 72.8235 38.1442 72.8264 38.1059C72.8292 38.0831 72.8307 38.0703 72.8307 38.0604C72.8392 37.9964 72.852 37.9311 72.8634 37.87C72.8961 37.6909 72.936 37.5147 72.9829 37.3399C73.0284 37.1751 73.0797 37.0102 73.138 36.8497C73.1636 36.7786 73.1921 36.7076 73.2191 36.6365C73.2191 36.6337 73.2205 36.6308 73.222 36.628C73.222 36.6266 73.2234 36.6251 73.2248 36.6223C73.249 36.5711 73.2718 36.5186 73.2959 36.4674C73.4397 36.1661 73.609 35.8762 73.8011 35.602C73.8381 35.548 73.8779 35.4954 73.9163 35.4428C73.9178 35.4414 73.9192 35.44 73.9206 35.4372C73.9419 35.4102 73.9633 35.3831 73.9846 35.3576C74.0757 35.2467 74.1696 35.1402 74.2692 35.035C74.4627 34.8304 74.6733 34.6471 74.8896 34.468C74.9138 34.451 74.9366 34.4325 74.9607 34.4154C75.0162 34.3756 75.0717 34.3373 75.1287 34.2989C75.2468 34.2193 75.3691 34.1454 75.4929 34.0758C75.6096 34.0104 75.7277 33.9493 75.8486 33.8925C75.8728 33.8811 75.9041 33.8712 75.9354 33.8598C75.9411 33.8527 75.9554 33.8413 75.9824 33.8314C75.9895 33.8285 75.998 33.8257 76.0052 33.8229C76.0052 33.8229 76.008 33.8214 76.0094 33.82C76.0094 33.82 76.008 33.8214 76.0066 33.8229C76.0322 33.8129 76.0578 33.8015 76.0848 33.793C76.3438 33.695 76.6113 33.6154 76.8817 33.5571C76.9984 33.5315 77.115 33.5159 77.2317 33.4932C77.2531 33.4903 77.273 33.4889 77.2943 33.4861C77.3669 33.479 77.438 33.4719 77.5106 33.4676C77.7781 33.4505 78.047 33.4534 78.3145 33.4747C78.3658 33.479 78.4156 33.4847 78.4654 33.4903C78.4597 33.4889 78.4568 33.4875 78.4497 33.4861C78.4597 33.4889 78.4711 33.4903 78.481 33.4918C78.4896 33.4918 78.4995 33.4932 78.5081 33.4946C78.5166 33.4946 78.5251 33.4974 78.5322 33.4989C78.5322 33.4989 78.5351 33.4989 78.5365 33.4989C78.6817 33.5216 78.8239 33.55 78.9662 33.5855C79.2138 33.6452 79.4529 33.7248 79.6905 33.8158C79.7147 33.8328 79.7602 33.8442 79.783 33.8541C79.8442 33.8825 79.9053 33.911 79.9665 33.9408C80.096 34.0048 80.2227 34.0744 80.3465 34.1483C80.4589 34.2151 80.5699 34.2875 80.6766 34.3614C80.7235 34.3941 80.8359 34.451 80.8658 34.4993C80.8601 34.4893 80.7335 34.3941 80.8345 34.4751C80.8715 34.505 80.9085 34.5348 80.9455 34.5646C81.1703 34.7522 81.3795 34.9568 81.5758 35.1743C81.6328 35.2382 81.6897 35.3022 81.7438 35.3689C81.7793 35.4116 81.8803 35.575 81.7907 35.4244C81.8704 35.5594 81.9799 35.6816 82.0667 35.8137C82.2332 36.0667 82.3812 36.3324 82.5107 36.6067C82.5249 36.6365 82.5377 36.6649 82.5505 36.6948C82.552 36.699 82.5633 36.7232 82.5733 36.7459C82.5776 36.7559 82.5804 36.7644 82.5833 36.7701C82.5975 36.807 82.6131 36.844 82.6274 36.8823C82.6786 37.0159 82.7241 37.1523 82.7654 37.2902C82.8479 37.563 82.9063 37.8401 82.9532 38.1215C82.9532 38.1215 82.9532 38.1186 82.9546 38.1172C82.9546 38.1172 82.9546 38.1229 82.9546 38.1286C82.9575 38.1414 82.9589 38.1542 82.9618 38.167C82.9646 38.1868 82.966 38.1954 82.9646 38.2011C82.9646 38.2039 82.9646 38.2096 82.966 38.211C82.9731 38.2806 82.9803 38.3503 82.9859 38.4213C82.9973 38.5691 83.003 38.7169 83.003 38.8647C83.003 39.0039 82.9988 39.1446 82.9902 39.2839H82.9959ZM79.7104 33.8229C79.7104 33.8229 79.7232 33.8271 79.7303 33.83C79.8171 33.8641 79.7517 33.8399 79.7104 33.8229ZM90.2243 39.0324C90.1617 39.2015 89.9824 39.5425 89.8202 39.7713C89.8045 39.794 89.7974 39.8054 89.7931 39.8097C89.7903 39.8125 89.7803 39.821 89.759 39.8452C89.7135 39.8963 89.6679 39.9461 89.6195 39.9944C89.5769 40.037 89.5299 40.0768 89.4844 40.1166H84.3107C84.6266 38.3787 84.2609 36.52 83.2591 35.0336C83.0557 34.7309 82.8294 34.4424 82.5861 34.1696C81.7153 33.2076 80.5542 32.4885 79.2835 32.1986C78.084 31.9244 76.7935 31.994 75.6452 32.4459C74.3731 32.9461 73.3173 33.8015 72.5447 34.9256C71.6681 36.2017 71.2527 37.8245 71.385 39.3649C71.4063 39.6207 71.4433 39.8736 71.4917 40.1237C70.8414 40.128 70.1926 40.1308 69.5423 40.1337C69.7031 37.0742 70.2495 34.0673 71.1701 31.1272C71.4405 30.2632 71.7436 29.4091 72.0751 28.565C72.1647 28.3377 72.0125 28.0535 71.799 27.9455C71.7905 27.9369 71.7848 27.9284 71.7763 27.9213C69.9976 26.3411 68.2076 24.67 66.0861 23.5531C65.2864 23.1324 64.4341 22.7857 63.5405 22.6365C62.8347 22.5186 62.1204 22.456 61.4076 22.412C59.7271 22.3097 58.0395 22.3068 56.3562 22.3452C55.0642 22.3736 53.7566 22.4006 52.4731 22.5654C50.3388 22.8383 48.341 24.049 46.8043 25.5141C46.6065 25.7031 46.4158 25.9006 46.2322 26.1038C46.2294 26.1067 46.228 26.1095 46.2266 26.1123C46.1426 26.1933 46.0771 26.2942 46.0501 26.4179C46.0373 26.4719 46.033 26.5273 46.033 26.5827C46.0217 26.7518 46.0686 26.9209 46.1867 27.0559C46.1981 27.0715 46.2123 27.0857 46.2251 27.1014C46.228 27.1042 46.2294 27.1071 46.2337 27.1099C46.2351 27.1099 46.2365 27.1127 46.2379 27.1127C46.319 27.198 46.4215 27.2634 46.5467 27.2918C48.765 27.7892 51.0089 28.1629 53.2657 28.4372C53.4706 31.7126 54.0127 34.9696 54.8935 38.1314C55.0827 38.8121 55.2876 39.4871 55.5082 40.1578C55.4755 40.1578 55.4427 40.1578 55.4086 40.1578C54.1493 40.1578 52.89 40.1578 51.6308 40.1578C51.9594 38.4071 51.5966 36.5328 50.5878 35.0364C50.3843 34.7337 50.158 34.4453 49.9147 34.1724C49.0439 33.2104 47.8828 32.4914 46.6122 32.2015C45.4127 31.9272 44.1221 31.9968 42.9738 32.4487C41.7017 32.9489 40.6459 33.8044 39.8733 34.9284C38.9968 36.2045 38.5813 37.8273 38.7136 39.3677C38.7349 39.6192 38.7705 39.8679 38.8189 40.1138C38.429 40.0868 38.0548 40.0328 37.6521 39.9248C37.5184 39.8892 37.3875 39.848 37.258 39.7997C37.2309 39.7898 37.1854 39.7699 37.1669 39.7614C37.1199 39.74 37.073 39.7187 37.0275 39.6946C36.9222 39.6406 36.8211 39.5809 36.723 39.5155C36.6788 39.4857 36.6362 39.4544 36.5935 39.4246C36.7201 39.5141 36.5821 39.4132 36.5366 39.3734C36.4597 39.3052 36.3857 39.2341 36.316 39.1603C36.2747 39.1162 36.2349 39.0721 36.1965 39.0267C36.1737 38.9997 36.141 38.9585 36.1282 38.9443C35.9674 38.7297 35.8223 38.5023 35.697 38.265C35.3157 37.5431 35.1478 36.709 35.0411 35.9061C35.0197 35.7469 35.0012 35.5864 34.9827 35.4258C35.2801 35.4045 35.5732 35.3135 35.8436 35.16C36.4071 34.8389 36.75 34.2932 36.989 33.7078C37.2224 33.1365 37.4159 32.4814 37.46 31.8647C37.5084 31.1755 37.1811 30.5616 36.602 30.195C35.9802 29.7999 35.2275 29.8013 34.5174 29.8511C34.4861 29.4972 34.4534 29.1448 34.4363 28.791C34.4207 28.4528 34.4079 28.0961 34.59 27.7991C34.6484 27.7039 34.5829 27.7877 34.6597 27.7124C34.6839 27.6897 34.7081 27.6655 34.7323 27.6442C34.7366 27.6414 34.7451 27.6371 34.7593 27.6286C34.7835 27.6144 34.876 27.5646 34.8917 27.5547C34.9159 27.5476 35.0311 27.5092 35.0681 27.4993C35.098 27.4907 35.2317 27.4637 35.2559 27.4566C35.2744 27.4566 35.3883 27.4424 35.4196 27.441C35.5946 27.4282 35.7696 27.4268 35.9446 27.4296C36.7443 27.4424 37.5155 27.4524 38.3109 27.3415C39.1191 27.2293 39.9117 27.0289 40.6829 26.766C42.3975 26.1848 44.0196 25.3535 45.6176 24.5123C46.7431 23.9211 47.8586 23.3172 48.9756 22.709C49.3584 22.5015 49.7426 22.2969 50.1353 22.1079C50.3217 22.0183 50.5095 21.9331 50.7002 21.8492C50.7059 21.8464 50.7101 21.845 50.7144 21.8421C50.7187 21.8407 50.7229 21.8393 50.7272 21.8365C50.7713 21.8194 50.8154 21.8009 50.861 21.7825C50.9663 21.7412 51.0716 21.7015 51.1769 21.6631C51.5995 21.5096 52.032 21.3831 52.4703 21.2823C52.7065 21.2283 52.9455 21.1814 53.1846 21.1402C53.3126 21.1188 53.4393 21.0989 53.5673 21.0805C53.5773 21.079 53.5844 21.0776 53.5915 21.0762C53.5986 21.0762 53.6086 21.0748 53.6228 21.0734C53.6968 21.0648 53.7694 21.0549 53.8434 21.0478C55.2521 20.8915 56.6764 20.9014 58.0908 20.9583C59.7527 21.025 61.4189 21.1387 63.0709 21.3263C63.2218 21.3434 63.3712 21.3618 63.522 21.3803C63.5405 21.3831 63.5533 21.3846 63.5618 21.3846C63.569 21.3846 63.5803 21.3874 63.5946 21.3888C63.6671 21.3988 63.7411 21.4087 63.8137 21.4201C64.0698 21.4585 64.3259 21.4997 64.5806 21.5494C64.9876 21.6276 65.3917 21.7228 65.7858 21.8507C65.9438 21.9018 66.0975 21.9658 66.2526 22.0212C66.2867 22.0368 66.3223 22.0525 66.3564 22.0681C66.4276 22.1008 66.4987 22.1363 66.5684 22.1718C66.8516 22.3168 67.122 22.483 67.3852 22.6621C68.1906 23.2092 68.966 23.8131 69.7344 24.4085C70.9311 25.3336 72.0865 26.3283 73.3586 27.1525C74.0102 27.5746 74.7004 27.9298 75.4502 28.1444C76.2784 28.3817 77.1492 28.4656 78.0072 28.5068C78.8695 28.548 79.7346 28.538 80.5969 28.5949C81.4108 28.6475 82.2033 28.7881 82.9845 29.0297C84.0232 29.3509 85.0136 29.8326 85.9271 30.4266C85.2697 30.7421 84.8542 31.4114 84.7788 32.1375C84.6949 32.9432 85.1459 33.6992 85.7222 34.2264C86.3255 34.7792 87.0626 35.1856 87.8338 35.4514C88.6505 35.7327 89.5384 35.835 90.3979 35.7455C90.6839 36.8354 90.6383 37.9367 90.2271 39.0352L90.2243 39.0324ZM50.9122 24.454C50.9833 24.4256 51.0531 24.3972 51.1242 24.3702C51.5553 24.2053 52.0036 24.0689 52.4603 23.9936C52.4888 23.9893 52.5187 23.9851 52.5485 23.9808C52.6567 23.968 52.7648 23.9566 52.873 23.9453C53.1419 23.9197 53.4122 23.8984 53.6826 23.8813C53.7495 23.8771 53.8149 23.8742 53.8818 23.87C53.7295 24.9258 53.5787 25.983 53.4265 27.0389C53.3525 27.0303 53.2771 27.0218 53.2031 27.0133C53.011 26.9891 52.8189 26.965 52.6268 26.9408C52.5912 26.9365 52.4817 26.9209 52.4617 26.9181C52.3678 26.9053 52.2725 26.8925 52.1786 26.8783C50.8382 26.6907 49.5035 26.4605 48.1788 26.1905C48.2684 26.1123 48.3595 26.0342 48.452 25.9589C48.4975 25.9205 48.5445 25.8836 48.59 25.8466C48.6128 25.8296 48.6341 25.8111 48.6569 25.794C48.7778 25.7059 48.8974 25.615 49.0197 25.5297C49.2573 25.3635 49.5007 25.2057 49.7483 25.0579C49.9944 24.9116 50.2463 24.7737 50.5024 24.6473C50.6162 24.5918 50.7301 24.5378 50.8453 24.4867C50.8951 24.4639 51.0445 24.4043 50.9136 24.4554L50.9122 24.454Z" fill="#222222"/>
<path d="M82.9703 38.2025C82.9674 38.1826 82.9603 38.1485 82.9603 38.13C82.9603 38.1286 82.9603 38.1257 82.9603 38.1243C82.9475 38.1542 82.9689 38.2252 82.9717 38.2025H82.9703Z" fill="#222222"/>
<path d="M78.5877 44.0472C78.6091 44.0443 78.6418 44.0372 78.6617 44.0372C78.6617 44.0372 78.6646 44.0372 78.666 44.0372C78.5934 44.0216 78.5564 44.0458 78.5892 44.0472H78.5877Z" fill="#222222"/>
<path d="M78.5365 33.5003C78.5194 33.4974 78.5024 33.496 78.4853 33.4932C78.4796 33.4932 78.4739 33.4932 78.4682 33.4918C78.5863 33.5244 78.5749 33.5088 78.5365 33.5003Z" fill="#222222"/>
<path d="M76.008 33.8257C76.008 33.8257 76.008 33.8257 76.0066 33.8257C75.9881 33.8413 75.9639 33.8527 75.9369 33.8626C75.9255 33.8769 75.9539 33.8754 76.0094 33.8243L76.008 33.8257Z" fill="#222222"/>
<path d="M79.0872 39.7415C79.1057 39.7159 79.1171 39.6789 79.0872 39.7415V39.7415Z" fill="#222222"/>
<path d="M77.0097 37.5048C77.0097 37.5048 77.004 37.509 77.0012 37.5104C76.9998 37.5119 76.9969 37.5147 76.9955 37.5161C77.0097 37.5062 77.0297 37.4934 77.0396 37.4849C77.0297 37.492 77.0197 37.4991 77.0097 37.5048Z" fill="#222222"/>
<path d="M79.0658 37.8316C79.0658 37.8316 79.0644 37.8287 79.063 37.8273C79.0502 37.816 79.036 37.8003 79.0231 37.7833C79.0175 37.7847 79.0288 37.8074 79.0658 37.8316Z" fill="#222222"/>
<path d="M79.985 36.7175C79.2209 35.8848 77.9759 35.5409 76.9087 35.9601C75.6936 36.4361 74.8796 37.6838 74.9935 38.9997C75.1002 40.2459 75.9426 41.3103 77.1591 41.6499C78.3757 41.9895 79.6307 41.468 80.328 40.4378C80.6766 39.9219 80.8544 39.2498 80.8046 38.6302C80.7477 37.9055 80.4646 37.2632 79.985 36.7175ZM78.7443 37.4849C78.7272 37.4721 78.7058 37.4579 78.6973 37.4564C78.7087 37.4564 78.7258 37.4692 78.7443 37.4849ZM78.4184 37.3058C78.5038 37.3342 78.4184 37.3129 78.3843 37.2944C78.3957 37.2987 78.407 37.303 78.4184 37.3058ZM78.0755 37.2106C78.2007 37.2191 78.0855 37.2291 78.0442 37.2078C78.0542 37.2078 78.0641 37.2092 78.0755 37.2106ZM76.4135 39.0139C76.4178 39.0352 76.4207 39.0565 76.4207 39.0551C76.4164 39.0508 76.415 39.0324 76.4135 39.0139ZM76.6981 39.7102C76.6981 39.7102 76.7067 39.7201 76.7166 39.7329C76.7052 39.7201 76.6967 39.7102 76.6981 39.7102ZM79.2565 39.4587C79.2565 39.4587 79.2594 39.4501 79.265 39.4374C79.2608 39.4487 79.2565 39.4587 79.2565 39.4587ZM79.3817 38.9983C79.3746 39.129 79.3632 39.0153 79.3817 38.9784C79.3817 38.9855 79.3817 38.9926 79.3817 38.9983ZM79.386 38.93C79.386 38.9457 79.3846 38.9627 79.3831 38.9784C79.3547 39.0224 79.3433 39.1944 79.3305 39.2398C79.3163 39.2924 79.2978 39.3421 79.2807 39.3933C79.2807 39.3947 79.2764 39.4061 79.2722 39.4189C79.2266 39.5084 79.1811 39.5965 79.1256 39.6818C79.1085 39.7074 79.0431 39.8352 79.0858 39.7457C79.0858 39.7457 79.0858 39.7443 79.0872 39.7429C79.0858 39.7443 79.0843 39.7471 79.0829 39.7486C79.0559 39.7784 79.0303 39.8097 79.0032 39.8395C78.942 39.9063 78.8723 39.9646 78.8069 40.0271C78.7884 40.0413 78.767 40.0598 78.7542 40.0683C78.7073 40.101 78.6575 40.1308 78.6077 40.1607C78.5593 40.1877 78.5095 40.2132 78.4597 40.2374C78.4568 40.2374 78.4554 40.2374 78.4526 40.2388C78.3501 40.2715 78.2491 40.3028 78.1438 40.3241C78.1196 40.317 78.0342 40.334 78.0143 40.3354C77.9617 40.3369 77.909 40.3369 77.8564 40.3354C77.8251 40.3354 77.7468 40.3156 77.7112 40.3227C77.66 40.3127 77.6088 40.3013 77.559 40.2871C77.5163 40.2758 77.4722 40.263 77.4295 40.2488C77.4082 40.2417 77.3868 40.2331 77.3655 40.226C77.2929 40.1905 77.2203 40.1564 77.152 40.1138C77.1065 40.0868 77.0624 40.0583 77.0197 40.0285C77.0126 40.0228 77.0055 40.0186 76.9984 40.0129C76.9301 39.9447 76.8546 39.885 76.7892 39.8139C76.7849 39.8082 76.7493 39.7699 76.7252 39.7415C76.7081 39.7173 76.691 39.6946 76.6754 39.6704C76.6241 39.5937 76.5786 39.5127 76.5373 39.4302C76.5316 39.4189 76.526 39.4089 76.5203 39.3976C76.5203 39.3933 76.5188 39.3905 76.5174 39.3862C76.5018 39.3237 76.4762 39.2626 76.4591 39.1986C76.442 39.1347 76.432 39.0707 76.4178 39.0068C76.4178 39.0039 76.4178 39.0025 76.4164 38.9997C76.4164 38.9869 76.4164 38.9769 76.4164 38.9727C76.4064 38.8405 76.4178 38.7112 76.4192 38.5791C76.4192 38.5734 76.4192 38.5691 76.4192 38.5663C76.4207 38.5592 76.4235 38.5506 76.4249 38.5449C76.4349 38.4895 76.4477 38.4341 76.4605 38.3801C76.4762 38.3162 76.4961 38.2536 76.5174 38.1911C76.5245 38.1698 76.5331 38.1499 76.5402 38.1286C76.5985 38.0263 76.6483 37.9225 76.7138 37.8245C76.728 37.8046 76.7422 37.7847 76.7565 37.7648C76.8006 37.6966 76.718 37.816 76.718 37.8117C76.7252 37.7691 76.812 37.7023 76.8433 37.6682C76.8546 37.6568 76.94 37.5701 76.9955 37.519C76.977 37.5303 76.9699 37.5346 77.0012 37.5133C77.0254 37.492 77.0439 37.4763 77.0453 37.4792C77.0453 37.4792 77.0439 37.4834 77.0382 37.4863C77.0467 37.4806 77.0553 37.4735 77.0652 37.4678C77.1079 37.438 77.1535 37.411 77.199 37.3854C77.2488 37.357 77.3014 37.3314 77.3527 37.3058C77.3584 37.3044 77.3626 37.303 77.3683 37.3001C77.4722 37.266 77.5761 37.2348 77.6828 37.2149C77.687 37.2149 77.6927 37.2134 77.697 37.212C77.7497 37.212 77.8051 37.2035 77.8592 37.2035C77.909 37.2035 77.9602 37.2035 78.01 37.2063C78.0214 37.2063 78.0314 37.2078 78.0428 37.2092C78.104 37.2504 78.2633 37.2547 78.3345 37.2774C78.3487 37.2816 78.3643 37.2873 78.3786 37.293C78.4042 37.3129 78.4938 37.3442 78.5138 37.3541C78.5678 37.3825 78.6205 37.4138 78.6703 37.4465C78.6902 37.4593 78.7087 37.4721 78.7272 37.4849C78.7556 37.5033 78.7628 37.5062 78.7613 37.5019C78.7941 37.5318 78.8254 37.5687 78.8396 37.5815C78.8866 37.627 78.9321 37.6739 78.9762 37.7222C78.989 37.7378 79.0047 37.7605 79.0217 37.7833C79.026 37.7833 79.0374 37.7904 79.053 37.8145C79.0559 37.8188 79.0587 37.8231 79.0616 37.8273C79.0658 37.8316 79.0701 37.8359 79.0744 37.8387C79.0701 37.8359 79.0673 37.8344 79.0644 37.8316C79.0744 37.8458 79.0843 37.8614 79.0943 37.8756C79.1569 37.9708 79.2053 38.0703 79.2594 38.1712C79.2594 38.1741 79.2622 38.1769 79.2636 38.1797C79.2807 38.2238 79.2949 38.2693 79.3092 38.3147C79.3376 38.4085 79.3547 38.5023 79.376 38.5961C79.3775 38.6117 79.3803 38.6259 79.3803 38.6288C79.3831 38.6828 79.3874 38.7368 79.3874 38.7908C79.3874 38.8363 79.3874 38.8832 79.3846 38.9286L79.386 38.93Z" fill="#222222"/>
<path d="M58.7638 31.2693C58.2459 31.292 57.7265 31.3147 57.2086 31.3375C56.9297 31.3503 56.6622 31.5734 56.675 31.8704C56.6878 32.1489 56.9097 32.416 57.2086 32.4032C57.7265 32.3805 58.2459 32.3578 58.7638 32.335C59.0427 32.3222 59.3102 32.0991 59.2974 31.8022C59.2846 31.5236 59.0626 31.2565 58.7638 31.2693Z" fill="#222222"/>
<path d="M62.8931 23.968C62.8931 23.968 62.8874 23.968 62.8845 23.968C62.8916 23.968 62.8973 23.9694 62.903 23.9708C62.9002 23.9708 62.8959 23.9708 62.8931 23.9708V23.968Z" fill="#222222"/>
<path d="M41.6486 70.68C40.2619 70.68 39.0753 70.3867 38.0886 69.8C37.1019 69.2133 36.3419 68.38 35.8086 67.3C35.2886 66.22 35.0286 64.9333 35.0286 63.44C35.0286 61.9467 35.2886 60.6667 35.8086 59.6C36.3419 58.52 37.1019 57.6867 38.0886 57.1C39.0753 56.5133 40.2619 56.22 41.6486 56.22C42.6219 56.22 43.5219 56.3733 44.3486 56.68C45.1753 56.9867 45.8686 57.4333 46.4286 58.02L45.7886 59.36C45.1753 58.7867 44.5353 58.3733 43.8686 58.12C43.2153 57.8533 42.4886 57.72 41.6886 57.72C40.1019 57.72 38.8886 58.22 38.0486 59.22C37.2086 60.22 36.7886 61.6267 36.7886 63.44C36.7886 65.2533 37.2086 66.6667 38.0486 67.68C38.8886 68.68 40.1019 69.18 41.6886 69.18C42.4886 69.18 43.2153 69.0533 43.8686 68.8C44.5353 68.5333 45.1753 68.1133 45.7886 67.54L46.4286 68.88C45.8686 69.4533 45.1753 69.9 44.3486 70.22C43.5219 70.5267 42.6219 70.68 41.6486 70.68ZM52.1225 70.68C51.1758 70.68 50.3558 70.4733 49.6625 70.06C48.9692 69.6467 48.4292 69.0667 48.0425 68.32C47.6692 67.56 47.4825 66.6667 47.4825 65.64C47.4825 64.6133 47.6692 63.7267 48.0425 62.98C48.4292 62.22 48.9692 61.6333 49.6625 61.22C50.3558 60.8067 51.1758 60.6 52.1225 60.6C53.0692 60.6 53.8892 60.8067 54.5825 61.22C55.2758 61.6333 55.8092 62.22 56.1825 62.98C56.5692 63.7267 56.7625 64.6133 56.7625 65.64C56.7625 66.6667 56.5692 67.56 56.1825 68.32C55.8092 69.0667 55.2758 69.6467 54.5825 70.06C53.8892 70.4733 53.0692 70.68 52.1225 70.68ZM52.1225 69.38C53.0425 69.38 53.7692 69.06 54.3025 68.42C54.8492 67.7667 55.1225 66.8333 55.1225 65.62C55.1225 64.42 54.8492 63.5 54.3025 62.86C53.7692 62.22 53.0425 61.9 52.1225 61.9C51.2158 61.9 50.4892 62.22 49.9425 62.86C49.3958 63.5 49.1225 64.42 49.1225 65.62C49.1225 66.8333 49.3958 67.7667 49.9425 68.42C50.4892 69.06 51.2158 69.38 52.1225 69.38ZM62.6358 70.68C61.8491 70.68 61.1958 70.54 60.6758 70.26C60.1691 69.9667 59.7824 69.5333 59.5158 68.96C59.2624 68.3867 59.1358 67.6733 59.1358 66.82V60.78H60.7558V66.8C60.7558 67.3733 60.8291 67.8533 60.9758 68.24C61.1358 68.6133 61.3824 68.8933 61.7158 69.08C62.0491 69.2533 62.4624 69.34 62.9558 69.34C63.5158 69.34 64.0024 69.2133 64.4158 68.96C64.8291 68.7067 65.1558 68.3533 65.3958 67.9C65.6358 67.4467 65.7558 66.9133 65.7558 66.3V60.78H67.3758V70.5H65.7958V68.26H66.0558C65.7891 69.0467 65.3491 69.6467 64.7358 70.06C64.1358 70.4733 63.4358 70.68 62.6358 70.68ZM70.4067 74.1V60.78H71.9867V63.08H71.7867C72.0001 62.32 72.4201 61.72 73.0467 61.28C73.6867 60.8267 74.4467 60.6 75.3267 60.6C76.1934 60.6 76.9467 60.8067 77.5867 61.22C78.2401 61.62 78.7401 62.2 79.0867 62.96C79.4467 63.7067 79.6267 64.6 79.6267 65.64C79.6267 66.6667 79.4467 67.56 79.0867 68.32C78.7401 69.0667 78.2467 69.6467 77.6067 70.06C76.9667 70.4733 76.2067 70.68 75.3267 70.68C74.4467 70.68 73.6934 70.46 73.0667 70.02C72.4401 69.5667 72.0134 68.9667 71.7867 68.22H72.0267V74.1H70.4067ZM74.9867 69.38C75.9067 69.38 76.6334 69.06 77.1667 68.42C77.7134 67.7667 77.9867 66.84 77.9867 65.64C77.9867 64.4267 77.7134 63.5 77.1667 62.86C76.6334 62.22 75.9067 61.9 74.9867 61.9C74.0801 61.9 73.3534 62.22 72.8067 62.86C72.2601 63.5 71.9867 64.4267 71.9867 65.64C71.9867 66.84 72.2601 67.7667 72.8067 68.42C73.3534 69.06 74.0801 69.38 74.9867 69.38ZM86.4469 70.68C85.4202 70.68 84.5335 70.48 83.7869 70.08C83.0535 69.6667 82.4802 69.0867 82.0669 68.34C81.6669 67.5933 81.4669 66.7 81.4669 65.66C81.4669 64.6467 81.6669 63.7667 82.0669 63.02C82.4669 62.26 83.0135 61.6667 83.7069 61.24C84.4135 60.8133 85.2269 60.6 86.1469 60.6C87.0269 60.6 87.7802 60.7933 88.4069 61.18C89.0335 61.5667 89.5135 62.1133 89.8469 62.82C90.1935 63.5267 90.3669 64.3733 90.3669 65.36V65.98H82.7069V64.92H89.2869L88.9669 65.18C88.9669 64.1133 88.7269 63.2867 88.2469 62.7C87.7802 62.1 87.0935 61.8 86.1869 61.8C85.5069 61.8 84.9269 61.96 84.4469 62.28C83.9802 62.5867 83.6269 63.02 83.3869 63.58C83.1469 64.1267 83.0269 64.7667 83.0269 65.5V65.62C83.0269 66.4333 83.1535 67.12 83.4069 67.68C83.6735 68.24 84.0669 68.6667 84.5869 68.96C85.1069 69.24 85.7269 69.38 86.4469 69.38C87.0202 69.38 87.5735 69.2933 88.1069 69.12C88.6535 68.9333 89.1669 68.6333 89.6469 68.22L90.2069 69.36C89.7669 69.76 89.2069 70.08 88.5269 70.32C87.8469 70.56 87.1535 70.68 86.4469 70.68Z" fill="#222222"/>
</svg>
