<svg width="416" height="184" viewBox="0 0 416 184" fill="none" xmlns="http://www.w3.org/2000/svg">
<path d="M61.4401 54.95C60.5701 54.49 59.5201 54.26 58.5501 54.57C58.2501 54.7 57.9501 54.82 57.6501 54.95C57.3201 55.15 57.0301 55.4 56.7801 55.68C55.9101 56.8 54.9101 57.79 53.8101 58.68C52.8701 59.35 51.8701 59.93 50.8201 60.41C50.0701 60.7 49.3001 60.96 48.5101 61.15C46.6001 61.61 45.2801 63.88 45.8901 65.76C46.5301 67.74 48.4601 68.88 50.5001 68.38C52.8001 67.82 55.0701 66.85 57.0501 65.54C59.3201 64.04 61.1401 62.24 62.7801 60.08C63.3301 59.36 63.3901 58.02 63.1601 57.19C62.9201 56.32 62.2501 55.38 61.4401 54.95Z" fill="#222222"/>
<path d="M394.12 124.88C393.16 124.66 392.08 124.71 391.23 125.26C390.4 125.79 389.78 126.54 389.51 127.5C388.88 129.72 388.24 131.94 387.61 134.15C387.34 135.08 387.5 136.21 387.99 137.04C388.45 137.82 389.34 138.56 390.23 138.76C391.19 138.98 392.27 138.93 393.12 138.38C393.95 137.85 394.57 137.1 394.84 136.14C395.47 133.92 396.11 131.7 396.74 129.49C397.01 128.56 396.85 127.43 396.36 126.6C395.9 125.82 395.01 125.08 394.12 124.88Z" fill="#222222"/>
<path d="M122.14 132.13C122.12 131.99 122.07 131.75 122.07 131.62C122.07 131.61 122.07 131.59 122.07 131.58C121.98 131.79 122.13 132.29 122.15 132.13H122.14Z" fill="#222222"/>
<path d="M73.2101 101.33C73.2101 101.33 73.2101 101.33 73.2001 101.33C73.0701 101.44 72.9001 101.52 72.7101 101.59C72.6301 101.69 72.8301 101.68 73.2201 101.32L73.2101 101.33Z" fill="#222222"/>
<path d="M91.3401 173.26C91.4901 173.24 91.7201 173.19 91.8601 173.19C91.8601 173.19 91.8801 173.19 91.8901 173.19C91.3801 173.08 91.1201 173.25 91.3501 173.26H91.3401Z" fill="#222222"/>
<path d="M90.9801 99.04C90.8601 99.02 90.7401 99.01 90.6201 98.99C90.5801 98.99 90.5401 98.99 90.5001 98.98C91.3301 99.21 91.2501 99.1 90.9801 99.04Z" fill="#222222"/>
<path d="M94.7001 129.52C94.7001 129.52 94.6901 129.5 94.6801 129.49C94.5901 129.41 94.4901 129.3 94.4001 129.18C94.3601 129.19 94.4401 129.35 94.7001 129.52Z" fill="#222222"/>
<path d="M80.2501 127.22C80.2501 127.22 80.2101 127.25 80.1901 127.26C80.1801 127.27 80.1601 127.29 80.1501 127.3C80.2501 127.23 80.3901 127.14 80.4601 127.08C80.3901 127.13 80.3201 127.18 80.2501 127.22Z" fill="#222222"/>
<path d="M94.8501 142.96C94.9801 142.78 95.0601 142.52 94.8501 142.96V142.96Z" fill="#222222"/>
<path d="M101.16 121.68C95.7901 115.82 87.0401 113.4 79.5401 116.35C71.0001 119.7 65.2801 128.48 66.0801 137.74C66.8301 146.51 72.7501 154 81.3101 156.39C89.8601 158.78 98.6801 155.11 103.58 147.86C106.03 144.23 107.28 139.5 106.93 135.14C106.53 130.04 104.54 125.52 101.17 121.68H101.16ZM92.4401 127.08C92.3201 126.99 92.1701 126.89 92.1101 126.88C92.1901 126.88 92.3101 126.97 92.4401 127.08ZM90.1501 125.82C90.7501 126.02 90.1501 125.87 89.9101 125.74C89.9901 125.77 90.0701 125.8 90.1501 125.82ZM87.7401 125.15C88.6201 125.21 87.8101 125.28 87.5201 125.13C87.5901 125.13 87.6601 125.14 87.7401 125.15ZM76.0601 137.84C76.0901 137.99 76.1101 138.14 76.1101 138.13C76.0801 138.1 76.0701 137.97 76.0601 137.84ZM78.0601 142.74C78.0601 142.74 78.1201 142.81 78.1901 142.9C78.1101 142.81 78.0501 142.74 78.0601 142.74ZM96.0401 140.97C96.0401 140.97 96.0601 140.91 96.1001 140.83C96.0701 140.91 96.0401 140.98 96.0401 140.97ZM96.9201 137.73C96.8701 138.65 96.7901 137.85 96.9201 137.59C96.9201 137.64 96.9201 137.69 96.9201 137.73ZM96.9501 137.25C96.9501 137.36 96.9401 137.48 96.9301 137.59C96.7301 137.9 96.6501 139.11 96.5601 139.43C96.4601 139.8 96.3301 140.15 96.2101 140.51C96.2101 140.52 96.1801 140.6 96.1501 140.69C95.8301 141.32 95.5101 141.94 95.1201 142.54C95.0001 142.72 94.5401 143.62 94.8401 142.99C94.8401 142.99 94.8401 142.98 94.8501 142.97C94.8401 142.98 94.8301 143 94.8201 143.01C94.6301 143.22 94.4501 143.44 94.2601 143.65C93.8301 144.12 93.3501 144.53 92.8801 144.97C92.7501 145.07 92.6001 145.2 92.5101 145.26C92.1801 145.49 91.8301 145.7 91.4801 145.91C91.1401 146.1 90.7901 146.28 90.4401 146.45C90.4201 146.45 90.4101 146.45 90.3901 146.46C89.6701 146.69 88.9601 146.91 88.2201 147.06C88.0501 147.01 87.4501 147.13 87.3101 147.14C86.9401 147.15 86.5701 147.15 86.2001 147.14C85.9801 147.14 85.4301 147 85.1801 147.05C84.8201 146.98 84.4601 146.9 84.1101 146.8C83.8101 146.72 83.5001 146.63 83.2001 146.53C83.0501 146.48 82.9001 146.42 82.7501 146.37C82.2401 146.12 81.7301 145.88 81.2501 145.59C80.9301 145.4 80.6201 145.2 80.3201 144.99C80.2701 144.95 80.2201 144.92 80.1701 144.88C79.6901 144.4 79.1601 143.98 78.7001 143.48C78.6701 143.44 78.4201 143.17 78.2501 142.97C78.1301 142.8 78.0101 142.64 77.9001 142.47C77.5401 141.93 77.2201 141.36 76.9301 140.78C76.8901 140.7 76.8501 140.63 76.8101 140.55C76.8101 140.52 76.8001 140.5 76.7901 140.47C76.6801 140.03 76.5001 139.6 76.3801 139.15C76.2601 138.7 76.1901 138.25 76.0901 137.8C76.0901 137.78 76.0901 137.77 76.0801 137.75C76.0801 137.66 76.0801 137.59 76.0801 137.56C76.0101 136.63 76.0901 135.72 76.1001 134.79C76.1001 134.75 76.1001 134.72 76.1001 134.7C76.1101 134.65 76.1301 134.59 76.1401 134.55C76.2101 134.16 76.3001 133.77 76.3901 133.39C76.5001 132.94 76.6401 132.5 76.7901 132.06C76.8401 131.91 76.9001 131.77 76.9501 131.62C77.3601 130.9 77.7101 130.17 78.1701 129.48C78.2701 129.34 78.3701 129.2 78.4701 129.06C78.7801 128.58 78.2001 129.42 78.2001 129.39C78.2501 129.09 78.8601 128.62 79.0801 128.38C79.1601 128.3 79.7601 127.69 80.1601 127.33C80.0301 127.41 79.9801 127.44 80.2001 127.29C80.3701 127.14 80.5001 127.03 80.5101 127.05C80.5101 127.05 80.5001 127.08 80.4601 127.1C80.5201 127.06 80.5801 127.01 80.6501 126.97C80.9501 126.76 81.2701 126.57 81.5801 126.39C81.9301 126.19 82.3001 126.01 82.6601 125.83C82.7001 125.82 82.7301 125.81 82.7701 125.79C83.5001 125.55 84.2301 125.33 84.9801 125.19C85.0101 125.19 85.0501 125.18 85.0801 125.17C85.4501 125.17 85.8401 125.11 86.2201 125.11C86.5701 125.11 86.9301 125.11 87.2801 125.13C87.3601 125.13 87.4301 125.14 87.5101 125.15C87.9401 125.44 89.0601 125.47 89.5601 125.63C89.6601 125.66 89.7701 125.7 89.8701 125.74C90.0501 125.88 90.6801 126.1 90.8201 126.17C91.2001 126.37 91.5701 126.59 91.9301 126.82C92.0701 126.91 92.2001 127 92.3301 127.09C92.5301 127.22 92.5801 127.24 92.5701 127.21C92.8001 127.42 93.0201 127.68 93.1201 127.77C93.4501 128.09 93.7701 128.42 94.0801 128.76C94.1701 128.87 94.2801 129.03 94.4001 129.19C94.4301 129.19 94.5101 129.24 94.6201 129.41C94.6401 129.44 94.6601 129.47 94.6801 129.5C94.7101 129.53 94.7401 129.56 94.7701 129.58C94.7401 129.56 94.7201 129.55 94.7001 129.53C94.7701 129.63 94.8401 129.74 94.9101 129.84C95.3501 130.51 95.6901 131.21 96.0701 131.92C96.0701 131.94 96.0901 131.96 96.1001 131.98C96.2201 132.29 96.3201 132.61 96.4201 132.93C96.6201 133.59 96.7401 134.25 96.8901 134.91C96.9001 135.02 96.9201 135.12 96.9201 135.14C96.9401 135.52 96.9701 135.9 96.9701 136.28C96.9701 136.6 96.9701 136.93 96.9501 137.25Z" fill="#222222"/>
<path d="M412.62 108.93C407.91 95.47 398.06 84.51 387.09 75.71C375.77 66.63 362.72 59.48 348.47 56.31C341.25 54.71 333.86 54.34 326.49 54.16C319.59 54 312.58 54.04 305.79 52.7C299.53 51.46 294.14 48.92 288.83 45.45C284 42.28 279.77 38.96 275.42 35.54C266.89 28.82 258.35 22.1 249.55 15.74C244.79 12.3 239.77 9.49 234.19 7.6C225.96 4.82 217.1 3.87 208.5 2.99C194.46 1.56 180.28 0.569998 166.16 0.519998C155.84 0.479998 145.39 1.02999 135.29 3.27999C127.85 4.93999 120.75 7.76 113.95 11.19C106.1 15.14 98.4801 19.57 90.7201 23.68C77.5201 30.67 64.2701 38.04 49.9901 42.61C43.6901 44.63 37.3101 46.06 30.8501 46.39C24.7301 46.7 18.4301 45.56 12.4201 47.14C5.1201 49.06 1.1301 55.13 0.640104 62.45C0.380104 66.35 0.970105 70.33 1.29011 74.21C1.64011 78.48 2.0001 82.74 2.3501 87.01C3.0201 95.14 3.61011 103.28 4.40011 111.4C5.11011 118.75 6.0801 126.22 8.84011 133.12C12.6901 142.73 19.4001 150.46 29.4901 153.57C34.3501 155.07 39.5201 155.57 44.6201 155.72C46.6101 160.22 49.3001 164.42 52.7001 168.15C58.6601 174.71 66.6501 179.54 75.2001 181.87C83.8301 184.22 93.3201 184.07 101.75 180.98C111.16 177.54 119.16 171.09 124.71 162.76C126.17 160.57 127.4 158.27 128.44 155.9C146.94 155.9 165.44 155.91 183.94 155.9C203.84 155.9 223.74 155.87 243.64 155.8C253.83 155.76 264.02 155.71 274.21 155.64C276.2 160.17 278.91 164.38 282.32 168.14C288.28 174.7 296.27 179.53 304.82 181.86C313.45 184.21 322.94 184.06 331.37 180.97C340.78 177.53 348.78 171.08 354.33 162.75C355.84 160.48 357.12 158.09 358.18 155.61C369.78 155.61 381.38 155.61 392.98 155.61C394.93 155.61 396.91 155.71 398.86 155.61C403.69 155.37 407.84 149.75 410 145.87C416.1 134.92 416.7 120.64 412.6 108.92L412.62 108.93ZM373.1 86.57C373.23 86.37 373.36 86.17 373.5 85.97C373.41 86.1 373.08 86.43 373.57 85.88C373.89 85.53 374.22 85.19 374.57 84.86C374.6 84.83 374.69 84.76 374.76 84.71C374.96 84.57 375.16 84.44 375.36 84.32C375.53 84.22 375.72 84.15 375.88 84.04C375.91 84.04 375.93 84.03 375.97 84.02C376.5 83.88 377.02 83.74 377.54 83.61C377.59 83.6 377.62 83.59 377.66 83.58C377.97 83.55 378.27 83.52 378.58 83.5C379.11 83.47 379.63 83.48 380.16 83.5C380.39 83.51 380.63 83.53 380.86 83.55C380.9 83.55 380.91 83.55 380.93 83.55C381.24 83.81 381.56 84.06 381.87 84.32C389.51 90.73 397 98.35 401.29 107.52C393.29 107.82 385.77 105.62 379.05 100.96C377.48 99.87 375.98 98.63 374.47 96.88C374.31 96.69 374.14 96.5 373.99 96.3C373.96 96.25 373.92 96.19 373.86 96.11C373.58 95.68 373.29 95.25 373.04 94.81C372.91 94.59 372.8 94.36 372.68 94.13C372.66 94.09 372.58 93.91 372.53 93.82C372.32 93.28 372.15 92.71 372.02 92.14C371.97 91.92 371.92 91.68 371.89 91.46C371.89 91.41 371.89 91.34 371.89 91.26C371.89 90.77 371.89 90.29 371.91 89.81C371.91 89.78 371.91 89.74 371.93 89.7C371.97 89.47 372.02 89.25 372.08 89.02C372.14 88.79 372.2 88.55 372.28 88.32C372.29 88.27 372.4 87.97 372.47 87.79C372.56 87.62 372.76 87.17 372.74 87.21C372.85 87 372.97 86.79 373.1 86.58V86.57ZM374.02 96.32C374.11 96.44 374.19 96.58 374.02 96.32V96.32ZM371.94 89.67C371.97 89.48 372.02 89.25 371.94 89.67V89.67ZM13.7101 105.14C12.9501 97.04 12.4401 88.9 11.8301 80.8C13.8701 80.65 15.9501 80.52 17.9801 80.8C18.5201 80.87 19.8301 81.2 20.6401 81.49C21.0601 81.65 21.1001 81.67 20.7801 81.54C21.0001 81.65 21.2301 81.76 21.4401 81.88C21.7701 82.06 22.0801 82.26 22.3901 82.46C22.6201 82.61 23.4901 83.47 23.6201 83.68C23.6901 83.8 24.0901 84.6 24.1001 84.57C24.1801 84.82 24.2601 85.06 24.3201 85.32C24.3701 85.6 24.4001 85.73 24.4001 85.74C24.6501 87.87 24.0801 89.6 23.5001 91.75C22.4401 95.68 21.4001 99.77 18.9601 102.46C18.6801 102.77 18.3601 103.05 18.0601 103.35C17.9001 103.48 17.8101 103.55 17.7901 103.58C17.6501 103.68 17.5101 103.78 17.3701 103.87C16.9601 104.14 16.5301 104.36 16.1001 104.59C16.0201 104.63 15.9701 104.65 15.9201 104.67C15.7201 104.74 15.5201 104.82 15.3101 104.88C14.9301 105 14.5401 105.09 14.1501 105.16C14.1901 105.14 13.9501 105.14 13.6901 105.16L13.7101 105.14ZM82.4201 173.19C81.7901 173.12 82.2301 173.16 82.5601 173.2C82.5101 173.2 82.4701 173.2 82.4201 173.19ZM100.06 170.97C100.06 170.97 100.33 170.88 100.5 170.81C100.33 170.9 100.16 170.99 100.06 170.97ZM122.32 139.74C122.29 140.18 122.26 140.61 122.21 141.04C122.18 141.31 122.15 141.58 122.12 141.85C122.12 141.85 122.12 141.85 122.12 141.86C121.73 143.83 121.4 145.79 120.82 147.72C120.68 148.19 120.51 148.65 120.35 149.11C120.29 149.26 120.24 149.41 120.2 149.56C120.11 149.82 120.03 150.09 119.93 150.36C119.88 150.5 119.78 150.92 119.65 151.26C119.66 151.18 119.62 151.19 119.5 151.45C119.36 151.75 119.23 152.05 119.09 152.35C118.22 154.2 117.21 155.99 116.07 157.7C115.79 158.12 115.5 158.53 115.21 158.94C115.08 159.12 114.94 159.3 114.81 159.48C114.36 160.1 114.77 159.57 114.93 159.35C114.41 160.26 113.47 161.11 112.77 161.87C111.35 163.41 109.81 164.84 108.18 166.16C108.13 166.2 107.44 166.72 107.66 166.56C107.57 166.62 107.5 166.67 107.49 166.68C107.11 166.96 106.72 167.23 106.33 167.49C105.42 168.11 104.48 168.68 103.53 169.22C102.64 169.72 101.74 170.18 100.81 170.61C100.75 170.64 100.66 170.69 100.57 170.74C100.52 170.76 100.44 170.79 100.32 170.84C99.8101 171.04 99.2901 171.24 98.7701 171.43C96.9301 172.09 95.0401 172.6 93.1201 172.97C92.7001 173.05 92.2901 173.11 91.8701 173.18C91.8801 173.18 91.9001 173.18 91.9101 173.18C91.8901 173.18 91.8701 173.18 91.8401 173.18C91.7401 173.2 91.6301 173.22 91.5301 173.23C91.4301 173.25 91.3701 173.25 91.3201 173.24C91.3001 173.24 91.2801 173.24 91.2701 173.24C90.2101 173.35 89.1501 173.42 88.0901 173.44C86.2701 173.48 84.4601 173.37 82.6501 173.18C82.4501 173.13 82.2001 173.12 82.0101 173.09C81.5401 173.01 81.0801 172.93 80.6101 172.84C79.6301 172.64 78.6601 172.41 77.6901 172.14C76.8301 171.9 75.9701 171.64 75.1301 171.34C74.6301 171.17 74.1401 170.99 73.6501 170.79C73.4701 170.72 73.2901 170.65 73.1201 170.58C73.1201 170.58 73.1101 170.58 73.1001 170.57C71.3701 169.77 69.6801 168.92 68.0601 167.93C67.2501 167.43 66.4501 166.91 65.6801 166.36C65.3401 166.12 65.0201 165.87 64.6901 165.63C64.4801 165.45 64.2601 165.28 64.0501 165.11C62.5401 163.85 61.1101 162.49 59.7901 161.03C59.5801 160.8 57.8201 158.98 57.9201 158.83C57.9201 158.83 58.6701 159.84 58.1101 159.08C57.9801 158.91 57.8501 158.74 57.7301 158.56C57.4101 158.12 57.1001 157.68 56.8101 157.24C55.6601 155.53 54.6401 153.72 53.7701 151.85C53.6901 151.68 53.4501 151.12 53.4001 151.01C53.2301 150.58 53.0601 150.15 52.9001 149.72C52.4701 148.53 52.0901 147.31 51.7701 146.08C51.4701 144.91 51.2201 143.73 51.0101 142.55C50.9701 142.29 50.9201 142.02 50.8801 141.76C50.8601 141.62 50.8401 141.53 50.8301 141.47C50.7401 140.89 50.7201 140.27 50.6801 139.7C50.5001 137.22 50.5301 134.73 50.7701 132.25C50.8001 131.98 50.8301 131.72 50.8501 131.45C50.8701 131.29 50.8801 131.19 50.8801 131.13C50.9401 130.68 51.0301 130.23 51.1101 129.79C51.3401 128.53 51.6201 127.29 51.9501 126.06C52.2701 124.9 52.6301 123.74 53.0401 122.61C53.2201 122.11 53.4201 121.61 53.6101 121.11C53.6101 121.09 53.6201 121.07 53.6301 121.05C53.6301 121.04 53.6401 121.03 53.6501 121.01C53.8201 120.65 53.9801 120.28 54.1501 119.92C55.1601 117.8 56.3501 115.76 57.7001 113.83C57.9601 113.45 58.2401 113.08 58.5101 112.71C58.5201 112.7 58.5301 112.69 58.5401 112.67C58.6901 112.48 58.8401 112.29 58.9901 112.11C59.6301 111.33 60.2901 110.58 60.9901 109.84C62.3501 108.4 63.8301 107.11 65.3501 105.85C65.5201 105.73 65.6801 105.6 65.8501 105.48C66.2401 105.2 66.6301 104.93 67.0301 104.66C67.8601 104.1 68.7201 103.58 69.5901 103.09C70.4101 102.63 71.2401 102.2 72.0901 101.8C72.2601 101.72 72.4801 101.65 72.7001 101.57C72.7401 101.52 72.8401 101.44 73.0301 101.37C73.0801 101.35 73.1401 101.33 73.1901 101.31C73.1901 101.31 73.2101 101.3 73.2201 101.29C73.2201 101.29 73.2101 101.3 73.2001 101.31C73.3801 101.24 73.5601 101.16 73.7501 101.1C75.5701 100.41 77.4501 99.85 79.3501 99.44C80.1701 99.26 80.9901 99.15 81.8101 98.99C81.9601 98.97 82.1001 98.96 82.2501 98.94C82.7601 98.89 83.2601 98.84 83.7701 98.81C85.6501 98.69 87.5401 98.71 89.4201 98.86C89.7801 98.89 90.1301 98.93 90.4801 98.97C90.4401 98.96 90.4201 98.95 90.3701 98.94C90.4401 98.96 90.5201 98.97 90.5901 98.98C90.6501 98.98 90.7201 98.99 90.7801 99C90.8401 99 90.9001 99.02 90.9501 99.03C90.9501 99.03 90.9701 99.03 90.9801 99.03C92.0001 99.19 93.0101 99.39 94.0001 99.64C95.7401 100.06 97.4201 100.62 99.0901 101.26C99.2601 101.38 99.5801 101.46 99.7401 101.53C100.17 101.73 100.6 101.93 101.03 102.14C101.94 102.59 102.83 103.08 103.7 103.6C104.49 104.07 105.27 104.58 106.02 105.1C106.35 105.33 107.14 105.73 107.35 106.07C107.31 106 106.42 105.33 107.13 105.9C107.39 106.11 107.65 106.32 107.91 106.53C109.49 107.85 110.96 109.29 112.34 110.82C112.74 111.27 113.14 111.72 113.52 112.19C113.77 112.49 114.48 113.64 113.85 112.58C114.41 113.53 115.18 114.39 115.79 115.32C116.96 117.1 118 118.97 118.91 120.9C119.01 121.11 119.1 121.31 119.19 121.52C119.2 121.55 119.28 121.72 119.35 121.87C119.38 121.94 119.41 122 119.42 122.04C119.52 122.3 119.63 122.56 119.73 122.83C120.09 123.77 120.41 124.73 120.7 125.7C121.28 127.62 121.69 129.57 122.02 131.55C122.02 131.55 122.02 131.53 122.03 131.52C122.03 131.52 122.03 131.56 122.03 131.6C122.05 131.69 122.06 131.78 122.08 131.87C122.1 132 122.11 132.07 122.1 132.11C122.1 132.13 122.1 132.17 122.11 132.18C122.16 132.67 122.21 133.16 122.25 133.66C122.33 134.7 122.37 135.74 122.37 136.78C122.37 137.76 122.34 138.75 122.28 139.73L122.32 139.74ZM99.2301 101.31C99.2301 101.31 99.3201 101.34 99.3701 101.36C99.9801 101.6 99.5201 101.43 99.2301 101.31ZM249.9 145.78C239.08 145.82 228.26 145.86 217.43 145.88C214.19 145.88 210.94 145.88 207.7 145.88C208.77 144.61 209.83 143.35 210.9 142.08C211.55 141.3 212 140.48 212 139.43C212 138.51 211.59 137.41 210.9 136.78C210.19 136.12 209.25 135.64 208.25 135.68C207.31 135.72 206.23 136.03 205.6 136.78C203.07 139.79 200.53 142.8 198 145.81C197.98 145.84 197.96 145.86 197.94 145.89C194.96 145.89 191.97 145.89 188.99 145.89L199.98 133.53C201.28 132.06 201.53 129.65 199.98 128.23C198.56 126.92 196.07 126.66 194.68 128.23C189.61 133.93 184.54 139.64 179.47 145.34C179.31 145.51 179.18 145.7 179.05 145.9C176.2 145.9 173.34 145.9 170.49 145.9C170.49 145.9 170.5 145.89 170.51 145.88C173.68 142.55 176.85 139.23 180.01 135.9C181.36 134.48 181.53 131.99 180.01 130.6C178.54 129.25 176.15 129.08 174.71 130.6C171.54 133.93 168.37 137.25 165.2 140.58C165.12 140.66 165.07 140.75 165 140.84C158.88 121.52 154.49 101.49 152.13 81.56C151.45 75.82 150.93 70.05 150.56 64.28C154.49 64.7 158.43 65.1 162.37 65.43C184.52 67.33 206.76 67.96 228.98 68.19C241.22 68.32 253.46 68.32 265.7 68.32C258.57 87.84 253.76 108.14 251.32 128.79C250.65 134.43 250.19 140.09 249.89 145.76L249.9 145.78ZM210.21 31.9C210.36 31.92 210.51 31.94 210.66 31.96C211.16 32.02 211.03 32.01 210.73 31.96C210.8 31.97 210.88 31.98 210.95 31.99C211.45 32.06 211.96 32.14 212.46 32.22C213.34 32.37 214.21 32.53 215.08 32.72C216.22 32.97 217.34 33.28 218.45 33.62C219.31 33.89 220.17 34.18 221.02 34.49C221.45 34.65 221.88 34.81 222.3 34.98C222.64 35.11 223.96 35.6 222.94 35.23C226.55 36.53 230.03 38.68 233.29 40.68C236.83 42.85 240.23 45.24 243.54 47.74C243.86 47.98 244.19 48.23 244.51 48.48C244.41 48.41 244.93 48.8 245.12 48.95C245.98 49.62 246.83 50.3 247.68 50.99C249.31 52.31 250.93 53.65 252.53 55.01C253.82 56.1 255.1 57.21 256.37 58.33C237.41 58.32 218.45 58.23 199.5 57.58C188.54 57.21 177.58 56.64 166.64 55.78C161.59 55.38 156.55 54.92 151.51 54.39C152.63 46.55 153.76 38.71 154.88 30.87C156.88 30.79 158.88 30.71 160.89 30.65C172.49 30.31 184.12 30.28 195.71 30.79C200.67 31.01 205.63 31.32 210.56 31.94C210.57 31.94 210.58 31.94 210.59 31.94C210.47 31.92 210.33 31.9 210.21 31.89V31.9ZM312.04 173.19C311.41 173.12 311.85 173.16 312.18 173.2C312.13 173.2 312.09 173.2 312.04 173.19ZM329.69 170.97C329.69 170.97 329.96 170.88 330.13 170.81C329.96 170.9 329.79 170.99 329.69 170.97ZM351.94 139.74C351.91 140.18 351.88 140.61 351.83 141.04C351.8 141.31 351.77 141.58 351.74 141.85C351.74 141.85 351.74 141.85 351.74 141.86C351.35 143.83 351.02 145.79 350.44 147.72C350.17 148.61 349.88 149.49 349.55 150.36C349.5 150.5 349.4 150.92 349.27 151.26C349.28 151.18 349.24 151.19 349.12 151.45C348.98 151.75 348.85 152.05 348.71 152.35C347.84 154.2 346.83 155.99 345.69 157.7C345.41 158.12 345.12 158.53 344.83 158.94C344.7 159.12 344.56 159.3 344.43 159.48C343.98 160.1 344.39 159.57 344.55 159.35C344.03 160.26 343.09 161.11 342.39 161.87C340.97 163.41 339.43 164.84 337.8 166.16C337.75 166.2 337.05 166.72 337.28 166.56C337.19 166.62 337.12 166.67 337.11 166.68C336.73 166.96 336.34 167.23 335.95 167.49C335.04 168.11 334.1 168.68 333.15 169.22C332.26 169.72 331.36 170.18 330.43 170.61C330.37 170.64 330.28 170.69 330.19 170.74C330.14 170.76 330.06 170.79 329.94 170.84C329.43 171.04 328.91 171.24 328.39 171.43C326.55 172.09 324.66 172.6 322.74 172.97C322.32 173.05 321.91 173.11 321.49 173.18C321.5 173.18 321.52 173.18 321.53 173.18C321.51 173.18 321.49 173.18 321.46 173.18C321.36 173.2 321.25 173.22 321.15 173.23C321.05 173.25 320.99 173.25 320.94 173.24C320.92 173.24 320.9 173.24 320.89 173.24C319.83 173.35 318.77 173.42 317.71 173.44C315.89 173.48 314.08 173.37 312.27 173.18C312.07 173.13 311.82 173.12 311.63 173.09C311.16 173.01 310.7 172.93 310.23 172.84C309.25 172.64 308.28 172.41 307.31 172.14C306.45 171.9 305.59 171.64 304.75 171.34C304.25 171.17 303.76 170.99 303.27 170.79C303.09 170.72 302.91 170.65 302.74 170.58C302.74 170.58 302.73 170.58 302.72 170.57C300.99 169.77 299.3 168.92 297.68 167.93C296.87 167.43 296.07 166.91 295.3 166.36C294.96 166.12 294.64 165.87 294.31 165.63C294.1 165.45 293.88 165.28 293.67 165.11C292.16 163.85 290.73 162.49 289.41 161.03C289.2 160.8 287.44 158.98 287.54 158.83C287.54 158.83 288.29 159.84 287.73 159.08C287.6 158.91 287.47 158.74 287.35 158.56C287.03 158.12 286.72 157.68 286.43 157.24C285.28 155.53 284.26 153.72 283.39 151.85C283.31 151.68 283.07 151.12 283.02 151.01C282.85 150.58 282.68 150.15 282.52 149.72C282.09 148.53 281.71 147.31 281.39 146.08C281.09 144.91 280.84 143.73 280.63 142.55C280.59 142.29 280.54 142.02 280.5 141.76C280.48 141.62 280.46 141.53 280.45 141.47C280.36 140.89 280.34 140.27 280.3 139.7C280.12 137.22 280.15 134.73 280.39 132.25C280.42 131.98 280.45 131.72 280.47 131.45C280.49 131.29 280.5 131.2 280.5 131.13C280.56 130.68 280.65 130.22 280.73 129.79C280.96 128.53 281.24 127.29 281.57 126.06C281.89 124.9 282.25 123.74 282.66 122.61C282.84 122.11 283.04 121.61 283.23 121.11C283.23 121.09 283.24 121.07 283.25 121.05C283.25 121.04 283.26 121.03 283.27 121.01C283.44 120.65 283.6 120.28 283.77 119.92C284.78 117.8 285.97 115.76 287.32 113.83C287.58 113.45 287.86 113.08 288.13 112.71C288.14 112.7 288.15 112.69 288.16 112.67C288.31 112.48 288.46 112.29 288.61 112.11C289.25 111.33 289.91 110.58 290.61 109.84C291.97 108.4 293.45 107.11 294.97 105.85C295.14 105.73 295.3 105.6 295.47 105.48C295.86 105.2 296.25 104.93 296.65 104.66C297.48 104.1 298.34 103.58 299.21 103.09C300.03 102.63 300.86 102.2 301.71 101.8C301.88 101.72 302.1 101.65 302.32 101.57C302.36 101.52 302.46 101.44 302.65 101.37C302.7 101.35 302.76 101.33 302.81 101.31C302.81 101.31 302.83 101.3 302.84 101.29C302.84 101.29 302.83 101.3 302.82 101.31C303 101.24 303.18 101.16 303.37 101.1C305.19 100.41 307.07 99.85 308.97 99.44C309.79 99.26 310.61 99.15 311.43 98.99C311.58 98.97 311.72 98.96 311.87 98.94C312.38 98.89 312.88 98.84 313.39 98.81C315.27 98.69 317.16 98.71 319.04 98.86C319.4 98.89 319.75 98.93 320.1 98.97C320.06 98.96 320.04 98.95 319.99 98.94C320.06 98.96 320.14 98.97 320.21 98.98C320.27 98.98 320.34 98.99 320.4 99C320.46 99 320.52 99.02 320.57 99.03C320.57 99.03 320.59 99.03 320.6 99.03C321.62 99.19 322.62 99.39 323.62 99.64C325.36 100.06 327.04 100.62 328.71 101.26C328.88 101.38 329.2 101.46 329.36 101.53C329.79 101.73 330.22 101.93 330.65 102.14C331.56 102.59 332.45 103.08 333.32 103.6C334.11 104.07 334.89 104.58 335.64 105.1C335.97 105.33 336.76 105.73 336.97 106.07C336.93 106 336.04 105.33 336.75 105.9C337.01 106.11 337.27 106.32 337.53 106.53C339.11 107.85 340.58 109.29 341.96 110.82C342.36 111.27 342.76 111.72 343.14 112.19C343.39 112.49 344.1 113.64 343.47 112.58C344.03 113.53 344.8 114.39 345.41 115.32C346.58 117.1 347.62 118.97 348.53 120.9C348.63 121.11 348.72 121.31 348.81 121.52C348.82 121.55 348.9 121.72 348.97 121.88C349 121.95 349.02 122.01 349.04 122.05C349.14 122.31 349.25 122.57 349.35 122.84C349.71 123.78 350.03 124.74 350.32 125.71C350.9 127.63 351.31 129.58 351.64 131.56C351.64 131.56 351.64 131.54 351.65 131.53C351.65 131.53 351.65 131.57 351.65 131.61C351.67 131.7 351.68 131.79 351.7 131.88C351.72 132.02 351.73 132.08 351.72 132.12C351.72 132.14 351.72 132.18 351.73 132.19C351.78 132.68 351.83 133.17 351.87 133.67C351.95 134.71 351.99 135.75 351.99 136.79C351.99 137.77 351.96 138.76 351.9 139.74H351.94ZM328.85 101.31C328.85 101.31 328.94 101.34 328.99 101.36C329.6 101.6 329.14 101.43 328.85 101.31ZM402.74 137.97C402.3 139.16 401.04 141.56 399.9 143.17C399.79 143.33 399.74 143.41 399.71 143.44C399.69 143.46 399.62 143.52 399.47 143.69C399.15 144.05 398.83 144.4 398.49 144.74C398.19 145.04 397.86 145.32 397.54 145.6H361.18C363.4 133.37 360.83 120.29 353.79 109.83C352.36 107.7 350.77 105.67 349.06 103.75C342.94 96.98 334.78 91.92 325.85 89.88C317.42 87.95 308.35 88.44 300.28 91.62C291.34 95.14 283.92 101.16 278.49 109.07C272.33 118.05 269.41 129.47 270.34 140.31C270.49 142.11 270.75 143.89 271.09 145.65C266.52 145.68 261.96 145.7 257.39 145.72C258.52 124.19 262.36 103.03 268.83 82.34C270.73 76.26 272.86 70.25 275.19 64.31C275.82 62.71 274.75 60.71 273.25 59.95C273.19 59.89 273.15 59.83 273.09 59.78C260.59 48.66 248.01 36.9 233.1 29.04C227.48 26.08 221.49 23.64 215.21 22.59C210.25 21.76 205.23 21.32 200.22 21.01C188.41 20.29 176.55 20.27 164.72 20.54C155.64 20.74 146.45 20.93 137.43 22.09C122.43 24.01 108.39 32.53 97.5901 42.84C96.2001 44.17 94.8601 45.56 93.5701 46.99C93.5501 47.01 93.5401 47.03 93.5301 47.05C92.9401 47.62 92.4801 48.33 92.2901 49.2C92.2001 49.58 92.1701 49.97 92.1701 50.36C92.0901 51.55 92.4201 52.74 93.2501 53.69C93.3301 53.8 93.4301 53.9 93.5201 54.01C93.5401 54.03 93.5501 54.05 93.5801 54.07C93.5901 54.07 93.6001 54.09 93.6101 54.09C94.1801 54.69 94.9001 55.15 95.7801 55.35C111.37 58.85 127.14 61.48 143 63.41C144.44 86.46 148.25 109.38 154.44 131.63C155.77 136.42 157.21 141.17 158.76 145.89C158.53 145.89 158.3 145.89 158.06 145.89C149.21 145.89 140.36 145.89 131.51 145.89C133.82 133.57 131.27 120.38 124.18 109.85C122.75 107.72 121.16 105.69 119.45 103.77C113.33 97 105.17 91.94 96.2401 89.9C87.8101 87.97 78.7401 88.46 70.6701 91.64C61.7301 95.16 54.3101 101.18 48.8801 109.09C42.7201 118.07 39.8001 129.49 40.7301 140.33C40.8801 142.1 41.1301 143.85 41.4701 145.58C38.7301 145.39 36.1001 145.01 33.2701 144.25C32.3301 144 31.4101 143.71 30.5001 143.37C30.3101 143.3 29.9901 143.16 29.8601 143.1C29.5301 142.95 29.2001 142.8 28.8801 142.63C28.1401 142.25 27.4301 141.83 26.7401 141.37C26.4301 141.16 26.1301 140.94 25.8301 140.73C26.7201 141.36 25.7501 140.65 25.4301 140.37C24.8901 139.89 24.3701 139.39 23.8801 138.87C23.5901 138.56 23.3101 138.25 23.0401 137.93C22.8801 137.74 22.6501 137.45 22.5601 137.35C21.4301 135.84 20.4101 134.24 19.5301 132.57C16.8501 127.49 15.6701 121.62 14.9201 115.97C14.7701 114.85 14.6401 113.72 14.5101 112.59C16.6001 112.44 18.6601 111.8 20.5601 110.72C24.5201 108.46 26.9301 104.62 28.6101 100.5C30.2501 96.48 31.6101 91.87 31.9201 87.53C32.2601 82.68 29.9601 78.36 25.8901 75.78C21.5201 73 16.2301 73.01 11.2401 73.36C11.0201 70.87 10.7901 68.39 10.6701 65.9C10.5601 63.52 10.4701 61.01 11.7501 58.92C12.1601 58.25 11.7001 58.84 12.2401 58.31C12.4101 58.15 12.5801 57.98 12.7501 57.83C12.7801 57.81 12.8401 57.78 12.9401 57.72C13.1101 57.62 13.7601 57.27 13.8701 57.2C14.0401 57.15 14.8501 56.88 15.1101 56.81C15.3201 56.75 16.2601 56.56 16.4301 56.51C16.5601 56.51 17.3601 56.41 17.5801 56.4C18.8101 56.31 20.0401 56.3 21.2701 56.32C26.8901 56.41 32.3101 56.48 37.9001 55.7C43.5801 54.91 49.1501 53.5 54.5701 51.65C66.6201 47.56 78.0201 41.71 89.2501 35.79C97.1601 31.63 105 27.38 112.85 23.1C115.54 21.64 118.24 20.2 121 18.87C122.31 18.24 123.63 17.64 124.97 17.05C125.01 17.03 125.04 17.02 125.07 17C125.1 16.99 125.13 16.98 125.16 16.96C125.47 16.84 125.78 16.71 126.1 16.58C126.84 16.29 127.58 16.01 128.32 15.74C131.29 14.66 134.33 13.77 137.41 13.06C139.07 12.68 140.75 12.35 142.43 12.06C143.33 11.91 144.22 11.77 145.12 11.64C145.19 11.63 145.24 11.62 145.29 11.61C145.34 11.61 145.41 11.6 145.51 11.59C146.03 11.53 146.54 11.46 147.06 11.41C156.96 10.31 166.97 10.38 176.91 10.78C188.59 11.25 200.3 12.05 211.91 13.37C212.97 13.49 214.02 13.62 215.08 13.75C215.21 13.77 215.3 13.78 215.36 13.78C215.41 13.78 215.49 13.8 215.59 13.81C216.1 13.88 216.62 13.95 217.13 14.03C218.93 14.3 220.73 14.59 222.52 14.94C225.38 15.49 228.22 16.16 230.99 17.06C232.1 17.42 233.18 17.87 234.27 18.26C234.51 18.37 234.76 18.48 235 18.59C235.5 18.82 236 19.07 236.49 19.32C238.48 20.34 240.38 21.51 242.23 22.77C247.89 26.62 253.34 30.87 258.74 35.06C267.15 41.57 275.27 48.57 284.21 54.37C288.79 57.34 293.64 59.84 298.91 61.35C304.73 63.02 310.85 63.61 316.88 63.9C322.94 64.19 329.02 64.12 335.08 64.52C340.8 64.89 346.37 65.88 351.86 67.58C359.16 69.84 366.12 73.23 372.54 77.41C367.92 79.63 365 84.34 364.47 89.45C363.88 95.12 367.05 100.44 371.1 104.15C375.34 108.04 380.52 110.9 385.94 112.77C391.68 114.75 397.92 115.47 403.96 114.84C405.97 122.51 405.65 130.26 402.76 137.99L402.74 137.97ZM126.46 35.38C126.96 35.18 127.45 34.98 127.95 34.79C130.98 33.63 134.13 32.67 137.34 32.14C137.54 32.11 137.75 32.08 137.96 32.05C138.72 31.96 139.48 31.88 140.24 31.8C142.13 31.62 144.03 31.47 145.93 31.35C146.4 31.32 146.86 31.3 147.33 31.27C146.26 38.7 145.2 46.14 144.13 53.57C143.61 53.51 143.08 53.45 142.56 53.39C141.21 53.22 139.86 53.05 138.51 52.88C138.26 52.85 137.49 52.74 137.35 52.72C136.69 52.63 136.02 52.54 135.36 52.44C125.94 51.12 116.56 49.5 107.25 47.6C107.88 47.05 108.52 46.5 109.17 45.97C109.49 45.7 109.82 45.44 110.14 45.18C110.3 45.06 110.45 44.93 110.61 44.81C111.46 44.19 112.3 43.55 113.16 42.95C114.83 41.78 116.54 40.67 118.28 39.63C120.01 38.6 121.78 37.63 123.58 36.74C124.38 36.35 125.18 35.97 125.99 35.61C126.34 35.45 127.39 35.03 126.47 35.39L126.46 35.38Z" fill="#222222"/>
<path d="M351.76 132.13C351.74 131.99 351.69 131.75 351.69 131.62C351.69 131.61 351.69 131.59 351.69 131.58C351.6 131.79 351.75 132.29 351.77 132.13H351.76Z" fill="#222222"/>
<path d="M320.96 173.26C321.11 173.24 321.34 173.19 321.48 173.19C321.48 173.19 321.5 173.19 321.51 173.19C321 173.08 320.74 173.25 320.97 173.26H320.96Z" fill="#222222"/>
<path d="M320.6 99.04C320.48 99.02 320.36 99.01 320.24 98.99C320.2 98.99 320.16 98.99 320.12 98.98C320.95 99.21 320.87 99.1 320.6 99.04Z" fill="#222222"/>
<path d="M302.83 101.33C302.83 101.33 302.83 101.33 302.82 101.33C302.69 101.44 302.52 101.52 302.33 101.59C302.25 101.69 302.45 101.68 302.84 101.32L302.83 101.33Z" fill="#222222"/>
<path d="M324.47 142.96C324.6 142.78 324.68 142.52 324.47 142.96V142.96Z" fill="#222222"/>
<path d="M309.87 127.22C309.87 127.22 309.83 127.25 309.81 127.26C309.8 127.27 309.78 127.29 309.77 127.3C309.87 127.23 310.01 127.14 310.08 127.08C310.01 127.13 309.94 127.18 309.87 127.22Z" fill="#222222"/>
<path d="M324.32 129.52C324.32 129.52 324.31 129.5 324.3 129.49C324.21 129.41 324.11 129.3 324.02 129.18C323.98 129.19 324.06 129.35 324.32 129.52Z" fill="#222222"/>
<path d="M330.78 121.68C325.41 115.82 316.66 113.4 309.16 116.35C300.62 119.7 294.9 128.48 295.7 137.74C296.45 146.51 302.37 154 310.92 156.39C319.47 158.78 328.29 155.11 333.19 147.86C335.64 144.23 336.89 139.5 336.54 135.14C336.14 130.04 334.15 125.52 330.78 121.68ZM322.06 127.08C321.94 126.99 321.79 126.89 321.73 126.88C321.81 126.88 321.93 126.97 322.06 127.08ZM319.77 125.82C320.37 126.02 319.77 125.87 319.53 125.74C319.61 125.77 319.69 125.8 319.77 125.82ZM317.36 125.15C318.24 125.21 317.43 125.28 317.14 125.13C317.21 125.13 317.28 125.14 317.36 125.15ZM305.68 137.84C305.71 137.99 305.73 138.14 305.73 138.13C305.7 138.1 305.69 137.97 305.68 137.84ZM307.68 142.74C307.68 142.74 307.74 142.81 307.81 142.9C307.73 142.81 307.67 142.74 307.68 142.74ZM325.66 140.97C325.66 140.97 325.68 140.91 325.72 140.82C325.69 140.9 325.66 140.97 325.66 140.97ZM326.54 137.73C326.49 138.65 326.41 137.85 326.54 137.59C326.54 137.64 326.54 137.69 326.54 137.73ZM326.57 137.25C326.57 137.36 326.56 137.48 326.55 137.59C326.35 137.9 326.27 139.11 326.18 139.43C326.08 139.8 325.95 140.15 325.83 140.51C325.83 140.52 325.8 140.6 325.77 140.69C325.45 141.32 325.13 141.94 324.74 142.54C324.62 142.72 324.16 143.62 324.46 142.99C324.46 142.99 324.46 142.98 324.47 142.97C324.46 142.98 324.45 143 324.44 143.01C324.25 143.22 324.07 143.44 323.88 143.65C323.45 144.12 322.96 144.53 322.5 144.97C322.37 145.07 322.22 145.2 322.13 145.26C321.8 145.49 321.45 145.7 321.1 145.91C320.76 146.1 320.41 146.28 320.06 146.45C320.04 146.45 320.03 146.45 320.01 146.46C319.29 146.69 318.58 146.91 317.84 147.06C317.67 147.01 317.07 147.13 316.93 147.14C316.56 147.15 316.19 147.15 315.82 147.14C315.6 147.14 315.05 147 314.8 147.05C314.44 146.98 314.08 146.9 313.73 146.8C313.43 146.72 313.12 146.63 312.82 146.53C312.67 146.48 312.52 146.42 312.37 146.37C311.86 146.12 311.35 145.88 310.87 145.58C310.55 145.39 310.24 145.19 309.94 144.98C309.89 144.94 309.84 144.91 309.79 144.87C309.31 144.39 308.78 143.97 308.32 143.47C308.29 143.43 308.04 143.16 307.87 142.96C307.75 142.79 307.63 142.63 307.52 142.46C307.16 141.92 306.84 141.35 306.55 140.77C306.51 140.69 306.47 140.62 306.43 140.54C306.43 140.51 306.42 140.49 306.41 140.46C306.3 140.02 306.12 139.59 306 139.14C305.88 138.69 305.81 138.24 305.71 137.79C305.71 137.77 305.71 137.76 305.7 137.74C305.7 137.65 305.7 137.58 305.7 137.55C305.63 136.62 305.71 135.71 305.72 134.78C305.72 134.74 305.72 134.71 305.72 134.69C305.73 134.64 305.75 134.58 305.76 134.54C305.83 134.15 305.92 133.76 306.01 133.38C306.12 132.93 306.26 132.49 306.41 132.05C306.46 131.9 306.52 131.76 306.57 131.61C306.98 130.89 307.33 130.16 307.79 129.47C307.89 129.33 307.99 129.19 308.09 129.05C308.4 128.57 307.82 129.41 307.82 129.38C307.87 129.08 308.48 128.61 308.7 128.37C308.78 128.29 309.38 127.68 309.77 127.32C309.64 127.4 309.59 127.43 309.81 127.28C309.98 127.13 310.11 127.02 310.12 127.04C310.12 127.04 310.11 127.07 310.07 127.09C310.13 127.05 310.19 127 310.26 126.96C310.56 126.75 310.88 126.56 311.2 126.38C311.55 126.18 311.92 126 312.28 125.82C312.32 125.81 312.35 125.8 312.39 125.78C313.12 125.54 313.85 125.32 314.6 125.18C314.63 125.18 314.67 125.17 314.7 125.16C315.07 125.16 315.46 125.1 315.84 125.1C316.19 125.1 316.55 125.1 316.9 125.12C316.98 125.12 317.05 125.13 317.13 125.14C317.56 125.43 318.68 125.46 319.18 125.62C319.28 125.65 319.39 125.69 319.49 125.73C319.67 125.87 320.3 126.09 320.44 126.16C320.82 126.36 321.19 126.58 321.54 126.81C321.68 126.9 321.81 126.99 321.94 127.08C322.14 127.21 322.19 127.23 322.18 127.2C322.41 127.41 322.63 127.67 322.73 127.76C323.06 128.08 323.38 128.41 323.69 128.75C323.78 128.86 323.89 129.02 324.01 129.18C324.04 129.18 324.12 129.23 324.23 129.4C324.25 129.43 324.27 129.46 324.29 129.49C324.32 129.52 324.35 129.55 324.38 129.57C324.35 129.55 324.33 129.54 324.31 129.52C324.38 129.62 324.45 129.73 324.52 129.83C324.96 130.5 325.3 131.2 325.68 131.91C325.68 131.93 325.7 131.95 325.71 131.97C325.83 132.28 325.93 132.6 326.03 132.92C326.23 133.58 326.35 134.24 326.5 134.9C326.51 135.01 326.53 135.11 326.53 135.13C326.55 135.51 326.58 135.89 326.58 136.27C326.58 136.59 326.58 136.92 326.56 137.24L326.57 137.25Z" fill="#222222"/>
<path d="M181.64 83.34C178 83.5 174.35 83.66 170.71 83.82C168.75 83.91 166.87 85.48 166.96 87.57C167.05 89.53 168.61 91.41 170.71 91.32C174.35 91.16 178 91 181.64 90.84C183.6 90.75 185.48 89.18 185.39 87.09C185.3 85.13 183.74 83.25 181.64 83.34Z" fill="#222222"/>
<path d="M210.66 31.96C210.66 31.96 210.62 31.96 210.6 31.96C210.65 31.96 210.69 31.97 210.73 31.98C210.71 31.98 210.68 31.98 210.66 31.98V31.96Z" fill="#222222"/>
</svg>
