<svg width="14" height="9" viewBox="0 0 14 9" fill="none" xmlns="http://www.w3.org/2000/svg">
<path d="M0.991029 0.964662C1.17856 0.777191 1.43286 0.671875 1.69803 0.671875C1.96319 0.671875 2.2175 0.777191 2.40503 0.964662L7.35503 5.91466L12.305 0.964662C12.4936 0.782504 12.7462 0.681709 13.0084 0.683987C13.2706 0.686266 13.5214 0.791435 13.7068 0.976843C13.8923 1.16225 13.9974 1.41306 13.9997 1.67526C14.002 1.93746 13.9012 2.19006 13.719 2.37866L8.06203 8.03566C7.8745 8.22313 7.62019 8.32845 7.35503 8.32845C7.08986 8.32845 6.83556 8.22313 6.64803 8.03566L0.991029 2.37866C0.803558 2.19113 0.698242 1.93683 0.698242 1.67166C0.698242 1.4065 0.803558 1.15219 0.991029 0.964662Z" fill="#222222"/>
</svg>
