<svg width="431" height="398" viewBox="0 0 431 398" fill="none" xmlns="http://www.w3.org/2000/svg">
<path d="M76.5253 268.951C75.6553 268.491 74.6053 268.261 73.6353 268.571C73.3353 268.701 73.0353 268.821 72.7353 268.951C72.4053 269.151 72.1153 269.401 71.8653 269.681C70.9953 270.801 69.9953 271.791 68.8953 272.681C67.9553 273.351 66.9553 273.931 65.9053 274.411C65.1453 274.701 64.3853 274.961 63.5953 275.151C61.6853 275.611 60.3653 277.881 60.9753 279.761C61.6153 281.741 63.5453 282.881 65.5853 282.381C67.8853 281.821 70.1553 280.851 72.1353 279.541C74.4053 278.041 76.2253 276.241 77.8653 274.081C78.4153 273.361 78.4753 272.021 78.2453 271.191C78.0053 270.321 77.3353 269.381 76.5253 268.951Z" fill="#222222"/>
<path d="M405.315 352.761C406.275 352.981 407.355 352.931 408.205 352.381C409.035 351.851 409.655 351.101 409.925 350.141C410.555 347.921 411.195 345.701 411.825 343.491C412.095 342.561 411.935 341.431 411.445 340.601C410.985 339.821 410.095 339.081 409.205 338.881C408.245 338.661 407.165 338.711 406.315 339.261C405.485 339.791 404.865 340.541 404.595 341.501C403.965 343.721 403.325 345.941 402.695 348.151C402.425 349.081 402.585 350.211 403.075 351.041C403.535 351.821 404.425 352.561 405.315 352.761Z" fill="#222222"/>
<path d="M137.225 346.131C137.205 345.991 137.155 345.751 137.155 345.621C137.155 345.611 137.155 345.591 137.155 345.581C137.065 345.791 137.215 346.291 137.235 346.131H137.225Z" fill="#222222"/>
<path d="M88.2953 315.331C88.2953 315.331 88.2953 315.331 88.2853 315.331C88.1553 315.441 87.9853 315.521 87.7953 315.591C87.7153 315.691 87.9153 315.681 88.3053 315.321L88.2953 315.331Z" fill="#222222"/>
<path d="M106.065 313.041C105.945 313.021 105.825 313.011 105.705 312.991C105.665 312.991 105.625 312.991 105.585 312.981C106.415 313.211 106.335 313.101 106.065 313.041Z" fill="#222222"/>
<path d="M109.785 343.521C109.785 343.521 109.775 343.501 109.765 343.491C109.675 343.411 109.575 343.301 109.485 343.181C109.445 343.191 109.525 343.351 109.785 343.521Z" fill="#222222"/>
<path d="M95.3353 341.221C95.3353 341.221 95.2953 341.251 95.2753 341.261C95.2653 341.271 95.2453 341.291 95.2353 341.301C95.3353 341.231 95.4753 341.141 95.5453 341.081C95.4753 341.131 95.4053 341.181 95.3353 341.221Z" fill="#222222"/>
<path d="M109.935 356.961C110.065 356.781 110.145 356.521 109.935 356.961V356.961Z" fill="#222222"/>
<path d="M116.235 335.681C110.865 329.821 102.115 327.401 94.6153 330.351C86.0753 333.701 80.3553 342.481 81.1553 351.741C81.9053 360.511 87.8253 368.001 96.3753 370.391C104.925 372.781 113.745 369.111 118.645 361.861C121.095 358.231 122.345 353.501 121.995 349.141C121.595 344.041 119.605 339.521 116.235 335.681ZM107.525 341.081C107.405 340.991 107.255 340.891 107.195 340.881C107.275 340.881 107.395 340.971 107.525 341.081ZM104.995 339.731C105.075 339.761 105.155 339.791 105.235 339.811C105.835 340.011 105.235 339.861 104.995 339.731ZM102.605 339.131C102.675 339.131 102.745 339.141 102.825 339.151C103.705 339.211 102.895 339.281 102.605 339.131ZM91.1453 351.841C91.1753 351.991 91.1953 352.141 91.1953 352.131C91.1653 352.101 91.1553 351.971 91.1453 351.841ZM93.1353 356.741C93.1353 356.741 93.1953 356.811 93.2653 356.901C93.1853 356.811 93.1253 356.741 93.1353 356.741ZM111.125 354.961C111.125 354.961 111.145 354.901 111.185 354.821C111.155 354.901 111.125 354.971 111.125 354.961ZM112.005 351.591C112.005 351.591 112.005 351.691 112.005 351.731C111.955 352.651 111.875 351.851 112.005 351.591ZM112.035 351.251C112.035 351.361 112.025 351.481 112.015 351.591C111.815 351.901 111.735 353.111 111.645 353.431C111.545 353.801 111.415 354.151 111.295 354.511C111.295 354.521 111.265 354.601 111.235 354.691C110.915 355.321 110.595 355.941 110.205 356.541C110.085 356.721 109.625 357.621 109.925 356.991C109.925 356.991 109.925 356.981 109.935 356.971C109.925 356.981 109.915 357.001 109.905 357.011C109.715 357.221 109.535 357.441 109.345 357.651C108.915 358.121 108.435 358.531 107.965 358.971C107.835 359.071 107.685 359.201 107.595 359.261C107.265 359.491 106.915 359.701 106.565 359.911C106.225 360.101 105.875 360.281 105.525 360.451C105.505 360.451 105.495 360.451 105.475 360.461C104.755 360.691 104.045 360.911 103.305 361.061C103.135 361.011 102.535 361.131 102.395 361.141C102.025 361.151 101.655 361.151 101.285 361.141C101.065 361.141 100.515 361.001 100.265 361.051C99.9053 360.981 99.5453 360.901 99.1953 360.801C98.8953 360.721 98.5853 360.631 98.2853 360.531C98.1353 360.481 97.9853 360.421 97.8353 360.371C97.3253 360.121 96.8153 359.881 96.3353 359.591C96.0153 359.401 95.7053 359.201 95.4053 358.991C95.3553 358.951 95.3053 358.921 95.2553 358.881C94.7753 358.401 94.2453 357.981 93.7853 357.481C93.7553 357.441 93.5053 357.171 93.3353 356.971C93.2153 356.801 93.0953 356.641 92.9853 356.471C92.6253 355.931 92.3053 355.361 92.0153 354.781C91.9753 354.701 91.9353 354.631 91.8953 354.551C91.8953 354.521 91.8853 354.501 91.8753 354.471C91.7653 354.031 91.5853 353.601 91.4653 353.151C91.3453 352.701 91.2753 352.251 91.1753 351.801C91.1753 351.781 91.1753 351.771 91.1653 351.751C91.1653 351.661 91.1653 351.591 91.1653 351.561C91.0953 350.631 91.1753 349.721 91.1853 348.791C91.1853 348.751 91.1853 348.721 91.1853 348.701C91.1953 348.651 91.2153 348.591 91.2253 348.551C91.2953 348.161 91.3853 347.771 91.4753 347.391C91.5853 346.941 91.7253 346.501 91.8753 346.061C91.9253 345.911 91.9853 345.771 92.0353 345.621C92.4453 344.901 92.7953 344.171 93.2553 343.481C93.3553 343.341 93.4553 343.201 93.5553 343.061C93.8653 342.581 93.2853 343.421 93.2853 343.391C93.3353 343.091 93.9453 342.621 94.1653 342.381C94.2453 342.301 94.8453 341.691 95.2453 341.331C95.1153 341.411 95.0653 341.441 95.2853 341.291C95.4553 341.141 95.5853 341.031 95.5953 341.051C95.5953 341.051 95.5853 341.081 95.5453 341.101C95.6053 341.061 95.6653 341.011 95.7353 340.971C96.0353 340.761 96.3553 340.571 96.6653 340.391C97.0153 340.191 97.3853 340.011 97.7453 339.831C97.7853 339.821 97.8153 339.811 97.8553 339.791C98.5853 339.551 99.3153 339.331 100.065 339.191C100.095 339.191 100.135 339.181 100.165 339.171C100.535 339.171 100.925 339.111 101.305 339.111C101.655 339.111 102.015 339.111 102.365 339.131C102.445 339.131 102.515 339.141 102.595 339.151C103.025 339.441 104.145 339.471 104.645 339.631C104.745 339.661 104.855 339.701 104.955 339.741C105.135 339.881 105.765 340.101 105.905 340.171C106.285 340.371 106.655 340.591 107.015 340.821C107.155 340.911 107.285 341.001 107.415 341.091C107.615 341.221 107.665 341.241 107.655 341.211C107.885 341.421 108.105 341.681 108.205 341.771C108.535 342.091 108.855 342.421 109.165 342.761C109.255 342.871 109.365 343.031 109.485 343.191C109.515 343.191 109.595 343.241 109.705 343.411C109.725 343.441 109.745 343.471 109.765 343.501C109.795 343.531 109.825 343.561 109.855 343.581C109.825 343.561 109.805 343.551 109.785 343.531C109.855 343.631 109.925 343.741 109.995 343.841C110.435 344.511 110.775 345.211 111.155 345.921C111.155 345.941 111.175 345.961 111.185 345.981C111.305 346.291 111.405 346.611 111.505 346.931C111.705 347.591 111.825 348.251 111.975 348.911C111.985 349.021 112.005 349.121 112.005 349.141C112.025 349.521 112.055 349.901 112.055 350.281C112.055 350.601 112.055 350.931 112.035 351.251Z" fill="#222222"/>
<path d="M346.465 394.971C355.875 391.531 363.875 385.081 369.425 376.751C370.935 374.481 372.215 372.091 373.275 369.611C384.875 369.611 396.475 369.611 408.075 369.611C410.025 369.611 412.005 369.711 413.955 369.611C418.785 369.371 422.935 363.751 425.095 359.871C431.195 348.921 431.795 334.641 427.695 322.921C422.985 309.461 413.135 298.501 402.165 289.701C390.845 280.621 377.795 273.471 363.545 270.301C356.325 268.701 348.935 268.331 341.565 268.151C334.665 267.991 327.655 268.031 320.865 266.691C314.605 265.451 309.215 262.911 303.905 259.441C299.075 256.271 294.845 252.951 290.495 249.531C281.965 242.811 273.425 236.091 264.625 229.731C259.865 226.291 254.845 223.481 249.265 221.591C241.035 218.811 232.175 217.861 223.575 216.981C209.545 215.561 195.375 214.581 181.255 214.521C170.935 214.481 160.485 215.031 150.385 217.281C142.945 218.941 135.845 221.761 129.045 225.191C121.195 229.141 113.575 233.571 105.815 237.681C92.6153 244.671 79.3653 252.041 65.0853 256.611C58.7853 258.631 52.4053 260.061 45.9453 260.391C39.8253 260.701 33.5253 259.561 27.5153 261.141C20.2153 263.061 16.2253 269.131 15.7353 276.451C15.4753 280.351 16.0653 284.331 16.3853 288.211C16.7353 292.481 17.0953 296.741 17.4453 301.011C18.1153 309.141 18.7053 317.281 19.4953 325.401C20.2053 332.751 21.1753 340.221 23.9353 347.121C27.7853 356.731 34.4953 364.461 44.5853 367.571C49.4453 369.071 54.6153 369.571 59.7153 369.721C61.7053 374.221 64.3953 378.421 67.7953 382.151C73.7553 388.711 81.7453 393.541 90.2953 395.871C98.9253 398.221 108.415 398.071 116.845 394.981C126.255 391.541 134.255 385.091 139.805 376.761C141.265 374.571 142.495 372.271 143.535 369.901C162.035 369.901 180.535 369.911 199.035 369.901C218.935 369.901 238.835 369.871 258.735 369.801C268.925 369.761 279.115 369.711 289.305 369.641C291.295 374.171 294.005 378.381 297.415 382.141C303.375 388.701 311.365 393.531 319.915 395.861C328.545 398.211 338.035 398.061 346.465 394.971ZM327.265 387.201C327.265 387.201 327.175 387.201 327.125 387.191C326.495 387.121 326.935 387.161 327.265 387.201ZM327.435 387.231C327.435 387.231 327.505 387.241 327.515 387.251C327.495 387.251 327.465 387.251 327.435 387.231ZM344.765 384.971C344.765 384.971 345.035 384.881 345.205 384.811C345.035 384.901 344.865 384.991 344.765 384.971ZM416.385 321.521C408.385 321.821 400.865 319.621 394.145 314.961C392.575 313.871 391.075 312.631 389.565 310.881C389.405 310.691 389.235 310.501 389.085 310.301C389.055 310.251 389.005 310.191 388.955 310.111C388.675 309.681 388.385 309.251 388.135 308.811C388.005 308.591 387.895 308.361 387.775 308.131C387.755 308.091 387.675 307.911 387.625 307.821C387.415 307.281 387.245 306.711 387.115 306.141C387.065 305.921 387.015 305.681 386.985 305.461C386.985 305.411 386.985 305.341 386.985 305.261C386.985 304.771 386.985 304.291 387.005 303.811C387.005 303.781 387.005 303.741 387.025 303.701C387.065 303.471 387.115 303.251 387.175 303.021C387.235 302.791 387.295 302.551 387.375 302.321C387.385 302.271 387.495 301.971 387.565 301.791C387.655 301.621 387.865 301.171 387.835 301.211C387.945 301.001 388.065 300.791 388.195 300.581C388.325 300.381 388.455 300.181 388.595 299.981C388.505 300.111 388.175 300.441 388.665 299.891C388.985 299.541 389.315 299.201 389.665 298.871C389.695 298.841 389.785 298.771 389.855 298.721C390.055 298.581 390.255 298.451 390.455 298.331C390.625 298.231 390.815 298.161 390.975 298.051C391.005 298.051 391.025 298.041 391.065 298.031C391.595 297.891 392.115 297.751 392.635 297.621C392.685 297.611 392.715 297.601 392.755 297.591C393.065 297.561 393.365 297.531 393.675 297.511C394.205 297.481 394.725 297.491 395.255 297.511C395.485 297.521 395.725 297.541 395.955 297.561C395.995 297.561 396.005 297.561 396.025 297.561C396.335 297.821 396.655 298.071 396.965 298.331C404.605 304.741 412.095 312.361 416.385 321.531V321.521ZM389.105 310.321C389.195 310.441 389.275 310.581 389.105 310.321V310.321ZM386.985 305.591C386.985 305.651 386.985 305.671 386.985 305.591V305.591ZM387.025 303.671C387.055 303.481 387.105 303.251 387.025 303.671V303.671ZM36.5253 295.861C36.8553 296.041 37.1653 296.241 37.4753 296.441C37.7053 296.591 38.5753 297.451 38.7053 297.661C38.7753 297.781 39.1753 298.581 39.1853 298.551C39.2653 298.801 39.3453 299.041 39.4053 299.301C39.4553 299.581 39.4853 299.711 39.4853 299.721C39.7353 301.851 39.1653 303.581 38.5853 305.731C37.5253 309.661 36.4853 313.751 34.0453 316.441C33.7653 316.751 33.4453 317.031 33.1453 317.331C32.9853 317.461 32.8953 317.531 32.8753 317.561C32.7353 317.661 32.5953 317.761 32.4553 317.851C32.0453 318.121 31.6153 318.341 31.1853 318.571C31.1053 318.611 31.0553 318.631 31.0053 318.651C30.8053 318.721 30.6053 318.801 30.3953 318.861C30.0153 318.981 29.6253 319.071 29.2353 319.141C29.2753 319.121 29.0353 319.121 28.7753 319.141C28.0153 311.041 27.5053 302.901 26.8953 294.801C28.9353 294.651 31.0153 294.521 33.0453 294.801C33.5853 294.871 34.8953 295.201 35.7053 295.491C36.1253 295.651 36.1653 295.671 35.8453 295.541C36.0653 295.651 36.2953 295.761 36.5053 295.881L36.5253 295.861ZM97.6453 387.211C97.6453 387.211 97.5553 387.211 97.5053 387.201C96.8753 387.131 97.3153 387.171 97.6453 387.211ZM97.8153 387.231C97.8153 387.231 97.8853 387.241 97.8953 387.251C97.8753 387.251 97.8453 387.251 97.8153 387.231ZM115.145 384.971C115.145 384.971 115.415 384.881 115.585 384.811C115.415 384.901 115.245 384.991 115.145 384.971ZM134.745 365.271C134.755 365.191 134.715 365.201 134.595 365.461C134.455 365.761 134.325 366.061 134.185 366.361C133.315 368.211 132.305 370.001 131.165 371.711C130.885 372.131 130.595 372.541 130.305 372.951C130.175 373.131 130.035 373.311 129.905 373.491C129.455 374.111 129.865 373.581 130.025 373.361C129.505 374.271 128.565 375.121 127.865 375.881C126.445 377.421 124.905 378.851 123.275 380.171C123.225 380.211 122.535 380.731 122.755 380.571C122.665 380.631 122.595 380.681 122.585 380.691C122.205 380.971 121.815 381.241 121.425 381.501C120.515 382.121 119.575 382.691 118.625 383.231C117.735 383.731 116.835 384.191 115.905 384.621C115.845 384.651 115.755 384.701 115.665 384.751C115.615 384.771 115.535 384.801 115.415 384.851C114.905 385.051 114.385 385.251 113.865 385.441C112.025 386.101 110.135 386.611 108.215 386.981C107.795 387.061 107.385 387.121 106.965 387.191C106.975 387.191 106.995 387.191 107.005 387.191C106.985 387.191 106.965 387.191 106.935 387.191C106.835 387.211 106.725 387.231 106.625 387.241C106.525 387.261 106.465 387.261 106.415 387.251C106.395 387.251 106.375 387.251 106.365 387.251C105.305 387.361 104.245 387.431 103.185 387.451C101.365 387.491 99.5553 387.381 97.7453 387.191C97.5453 387.141 97.2953 387.131 97.1053 387.101C96.6353 387.021 96.1753 386.941 95.7053 386.851C94.7253 386.651 93.7553 386.421 92.7853 386.151C91.9253 385.911 91.0653 385.651 90.2253 385.351C89.7253 385.181 89.2353 385.001 88.7453 384.801C88.5653 384.731 88.3853 384.661 88.2153 384.591C88.2153 384.591 88.2053 384.591 88.1953 384.581C86.4653 383.781 84.7753 382.931 83.1553 381.941C82.3453 381.441 81.5453 380.921 80.7753 380.371C80.4353 380.131 80.1153 379.881 79.7853 379.641C79.5753 379.461 79.3553 379.291 79.1453 379.121C77.6353 377.861 76.2053 376.501 74.8853 375.041C74.6753 374.811 72.9153 372.991 73.0153 372.841C73.0153 372.841 73.7653 373.851 73.2053 373.091C73.0753 372.921 72.9453 372.751 72.8253 372.571C72.5053 372.131 72.1953 371.691 71.9053 371.251C70.7553 369.541 69.7353 367.731 68.8653 365.861C68.7853 365.691 68.5453 365.131 68.4953 365.021C68.3253 364.591 68.1553 364.161 67.9953 363.731C67.5653 362.541 67.1853 361.321 66.8653 360.091C66.5653 358.921 66.3153 357.741 66.1053 356.561C66.0653 356.301 66.0153 356.031 65.9753 355.771C65.8653 355.081 65.9053 355.381 65.9453 355.661C65.8353 355.031 65.8253 354.331 65.7753 353.701C65.5953 351.221 65.6253 348.731 65.8653 346.251C65.8953 345.981 65.9253 345.721 65.9453 345.451C65.9653 345.291 65.9753 345.191 65.9753 345.131C66.0353 344.681 66.1253 344.231 66.2053 343.791C66.4353 342.531 66.7153 341.291 67.0453 340.061C67.3653 338.901 67.7253 337.741 68.1353 336.611C68.3153 336.111 68.5153 335.611 68.7053 335.111C68.7053 335.091 68.7153 335.071 68.7253 335.051C68.7253 335.041 68.7353 335.031 68.7453 335.011C68.9153 334.651 69.0753 334.281 69.2453 333.921C70.2553 331.801 71.4453 329.761 72.7953 327.831C73.0553 327.451 73.3353 327.081 73.6053 326.711C73.6153 326.701 73.6253 326.691 73.6353 326.671C73.7853 326.481 73.9353 326.291 74.0853 326.111C74.7253 325.331 75.3853 324.581 76.0853 323.841C77.4453 322.401 78.9253 321.111 80.4453 319.851C80.6153 319.731 80.7753 319.601 80.9453 319.481C81.3353 319.201 81.7253 318.931 82.1253 318.661C82.9553 318.101 83.8153 317.581 84.6853 317.091C85.5053 316.631 86.3353 316.201 87.1853 315.801C87.3553 315.721 87.5753 315.651 87.7953 315.571C87.8353 315.521 87.9353 315.441 88.1253 315.371C88.1753 315.351 88.2353 315.331 88.2853 315.311C88.2853 315.311 88.3053 315.301 88.3153 315.291C88.3153 315.291 88.3053 315.301 88.2953 315.311C88.4753 315.241 88.6553 315.161 88.8453 315.101C90.6653 314.411 92.5453 313.851 94.4453 313.441C95.2653 313.261 96.0853 313.151 96.9053 312.991C97.0553 312.971 97.1953 312.961 97.3453 312.941C97.8553 312.891 98.3553 312.841 98.8653 312.811C100.745 312.691 102.635 312.711 104.515 312.861C104.875 312.891 105.225 312.931 105.575 312.971C105.535 312.961 105.515 312.951 105.465 312.941C105.535 312.961 105.615 312.971 105.685 312.981C105.745 312.981 105.815 312.991 105.875 313.001C105.935 313.001 105.995 313.021 106.045 313.031C106.045 313.031 106.065 313.031 106.075 313.031C107.095 313.191 108.105 313.391 109.095 313.641C110.835 314.061 112.515 314.621 114.185 315.261C114.355 315.381 114.675 315.461 114.835 315.531C115.265 315.731 115.695 315.931 116.125 316.141C117.035 316.591 117.925 317.081 118.795 317.601C119.585 318.071 120.365 318.581 121.115 319.101C121.445 319.331 122.235 319.731 122.445 320.071C122.405 320.001 121.515 319.331 122.225 319.901C122.485 320.111 122.745 320.321 123.005 320.531C124.585 321.851 126.055 323.291 127.435 324.821C127.835 325.271 128.235 325.721 128.615 326.191C128.865 326.491 129.575 327.641 128.945 326.581C129.505 327.531 130.275 328.391 130.885 329.321C132.055 331.101 133.095 332.971 134.005 334.901C134.105 335.111 134.195 335.311 134.285 335.521C134.295 335.551 134.375 335.721 134.445 335.871C134.475 335.941 134.505 336.001 134.515 336.041C134.615 336.301 134.725 336.561 134.825 336.831C135.185 337.771 135.505 338.731 135.795 339.701C136.375 341.621 136.785 343.571 137.115 345.551C137.115 345.551 137.115 345.531 137.125 345.521C137.125 345.521 137.125 345.561 137.125 345.601C137.145 345.691 137.155 345.781 137.175 345.871C137.195 346.001 137.205 346.071 137.195 346.111C137.195 346.131 137.195 346.171 137.205 346.181C137.255 346.671 137.305 347.161 137.345 347.661C137.425 348.701 137.465 349.741 137.465 350.781C137.465 351.761 137.435 352.751 137.375 353.731C137.345 354.171 137.315 354.601 137.265 355.031C137.235 355.301 137.205 355.571 137.175 355.841C137.175 355.841 137.175 355.841 137.175 355.851C136.785 357.821 136.455 359.781 135.875 361.711C135.735 362.181 135.565 362.641 135.405 363.101C135.345 363.251 135.295 363.401 135.255 363.551C135.165 363.811 135.085 364.081 134.985 364.351C134.935 364.491 134.835 364.911 134.705 365.251L134.745 365.271ZM114.315 315.311C114.315 315.311 114.405 315.341 114.455 315.361C115.065 315.601 114.605 315.431 114.315 315.311ZM232.515 359.871C229.275 359.871 226.025 359.871 222.785 359.871C223.855 358.601 224.915 357.341 225.985 356.071C226.635 355.291 227.085 354.471 227.085 353.421C227.085 352.501 226.675 351.401 225.985 350.771C225.275 350.111 224.335 349.631 223.335 349.671C222.395 349.711 221.315 350.021 220.685 350.771C218.155 353.781 215.615 356.791 213.085 359.801C213.065 359.831 213.045 359.851 213.025 359.881C210.045 359.881 207.055 359.881 204.075 359.881C207.735 355.761 211.405 351.641 215.065 347.521C216.365 346.051 216.615 343.641 215.065 342.221C213.645 340.911 211.155 340.651 209.765 342.221C204.695 347.921 199.625 353.631 194.555 359.331C194.405 359.501 194.265 359.691 194.135 359.891C191.285 359.891 188.425 359.891 185.575 359.891C185.575 359.891 185.585 359.881 185.595 359.871C188.765 356.541 191.935 353.221 195.095 349.891C196.445 348.471 196.615 345.981 195.095 344.591C193.625 343.241 191.235 343.071 189.795 344.591C186.625 347.921 183.455 351.241 180.285 354.571C180.205 354.651 180.155 354.741 180.085 354.831C173.965 335.511 169.575 315.481 167.215 295.551C166.535 289.811 166.015 284.041 165.645 278.271C169.575 278.691 173.515 279.091 177.455 279.421C199.605 281.321 221.845 281.951 244.065 282.181C256.305 282.311 268.545 282.311 280.785 282.311C273.655 301.831 268.845 322.131 266.405 342.781C265.735 348.421 265.275 354.081 264.975 359.751C254.155 359.791 243.335 359.831 232.505 359.851L232.515 359.871ZM152.415 266.711C151.755 266.621 151.085 266.531 150.425 266.431C141.005 265.111 131.625 263.491 122.315 261.591C122.945 261.041 123.585 260.491 124.235 259.961C124.555 259.691 124.885 259.431 125.205 259.171C125.365 259.051 125.515 258.921 125.675 258.801C126.525 258.181 127.365 257.541 128.225 256.941C129.895 255.771 131.605 254.661 133.345 253.621C135.075 252.591 136.845 251.621 138.645 250.731C139.445 250.341 140.245 249.961 141.055 249.601C141.405 249.441 142.455 249.021 141.535 249.381C142.035 249.181 142.525 248.981 143.025 248.791C146.055 247.631 149.205 246.671 152.415 246.141C152.615 246.111 152.825 246.081 153.035 246.051C153.795 245.961 154.555 245.881 155.315 245.801C157.205 245.621 159.105 245.471 161.005 245.351C161.475 245.321 161.935 245.301 162.405 245.271C161.335 252.701 160.275 260.141 159.205 267.571C158.685 267.511 158.155 267.451 157.635 267.391C156.285 267.221 154.935 267.051 153.585 266.881C153.335 266.851 152.565 266.741 152.425 266.721L152.415 266.711ZM225.295 245.901C225.445 245.921 225.595 245.941 225.745 245.961C226.245 246.021 226.115 246.011 225.815 245.961C225.885 245.971 225.965 245.981 226.035 245.991C226.535 246.061 227.045 246.141 227.545 246.221C228.425 246.371 229.295 246.531 230.165 246.721C231.305 246.971 232.425 247.281 233.535 247.621C234.395 247.891 235.255 248.181 236.105 248.491C236.535 248.651 236.965 248.811 237.385 248.981C237.725 249.111 239.045 249.601 238.025 249.231C241.635 250.531 245.115 252.681 248.375 254.681C251.915 256.851 255.315 259.241 258.625 261.741C258.945 261.981 259.275 262.231 259.595 262.481C259.495 262.411 260.015 262.801 260.205 262.951C261.065 263.621 261.915 264.301 262.765 264.991C264.395 266.311 266.015 267.651 267.615 269.011C268.905 270.101 270.185 271.211 271.455 272.331C252.495 272.321 233.535 272.231 214.585 271.581C203.625 271.211 192.665 270.641 181.725 269.781C176.675 269.381 171.635 268.921 166.595 268.391C167.715 260.551 168.845 252.711 169.965 244.871C171.965 244.791 173.965 244.711 175.975 244.651C187.575 244.311 199.205 244.281 210.795 244.791C215.755 245.011 220.715 245.321 225.645 245.941C225.655 245.941 225.665 245.941 225.675 245.941C225.555 245.921 225.415 245.901 225.295 245.891V245.901ZM272.485 359.731C273.615 338.201 277.455 317.041 283.925 296.351C285.825 290.271 287.955 284.261 290.285 278.321C290.915 276.721 289.845 274.721 288.345 273.961C288.285 273.901 288.245 273.841 288.185 273.791C275.685 262.671 263.105 250.911 248.195 243.051C242.575 240.091 236.585 237.651 230.305 236.601C225.345 235.771 220.325 235.331 215.315 235.021C203.505 234.301 191.645 234.281 179.815 234.551C170.735 234.751 161.545 234.941 152.525 236.101C137.525 238.021 123.485 246.541 112.685 256.851C111.295 258.181 109.955 259.571 108.665 261.001C108.645 261.021 108.635 261.041 108.625 261.061C108.035 261.631 107.575 262.341 107.385 263.211C107.295 263.591 107.265 263.981 107.265 264.371C107.185 265.561 107.515 266.751 108.345 267.701C108.425 267.811 108.525 267.911 108.615 268.021C108.635 268.041 108.645 268.061 108.675 268.081C108.685 268.081 108.695 268.101 108.705 268.101C109.275 268.701 109.995 269.161 110.875 269.361C126.465 272.861 142.235 275.491 158.095 277.421C159.535 300.471 163.345 323.391 169.535 345.641C170.865 350.431 172.305 355.181 173.855 359.901C173.625 359.901 173.395 359.901 173.155 359.901C164.305 359.901 155.455 359.901 146.605 359.901C148.915 347.581 146.365 334.391 139.275 323.861C137.845 321.731 136.255 319.701 134.545 317.781C128.425 311.011 120.265 305.951 111.335 303.911C102.905 301.981 93.8353 302.471 85.7653 305.651C76.8253 309.171 69.4053 315.191 63.9753 323.101C57.8153 332.081 54.8953 343.501 55.8253 354.341C55.9753 356.111 56.2253 357.861 56.5653 359.591C53.8253 359.401 51.1953 359.021 48.3653 358.261C47.4253 358.011 46.5053 357.721 45.5953 357.381C45.4053 357.311 45.0853 357.171 44.9553 357.111C44.6253 356.961 44.2953 356.811 43.9753 356.641C43.2353 356.261 42.5253 355.841 41.8353 355.381C41.5253 355.171 41.2253 354.951 40.9253 354.741C41.8153 355.371 40.8453 354.661 40.5253 354.381C39.9853 353.901 39.4653 353.401 38.9753 352.881C38.6853 352.571 38.4053 352.261 38.1353 351.941C37.9753 351.751 37.7453 351.461 37.6553 351.361C36.5253 349.851 35.5053 348.251 34.6253 346.581C31.9453 341.501 30.7653 335.631 30.0153 329.981C29.8653 328.861 29.7353 327.731 29.6053 326.601C31.6953 326.451 33.7553 325.811 35.6553 324.731C39.6153 322.471 42.0253 318.631 43.7053 314.511C45.3453 310.491 46.7053 305.881 47.0153 301.541C47.3553 296.691 45.0553 292.371 40.9853 289.791C36.6153 287.011 31.3253 287.021 26.3353 287.371C26.1153 284.881 25.8853 282.401 25.7653 279.911C25.6553 277.531 25.5653 275.021 26.8453 272.931C27.2553 272.261 26.7953 272.851 27.3353 272.321C27.5053 272.161 27.6753 271.991 27.8453 271.841C27.8753 271.821 27.9353 271.791 28.0353 271.731C28.2053 271.631 28.8553 271.281 28.9653 271.211C29.1353 271.161 29.9453 270.891 30.2053 270.821C30.4153 270.761 31.3553 270.571 31.5253 270.521C31.6553 270.521 32.4553 270.421 32.6753 270.411C33.9053 270.321 35.1353 270.311 36.3653 270.331C41.9853 270.421 47.4053 270.491 52.9953 269.711C58.6753 268.921 64.2453 267.511 69.6653 265.661C81.7153 261.571 93.1153 255.721 104.345 249.801C112.255 245.641 120.095 241.391 127.945 237.111C130.635 235.651 133.335 234.211 136.095 232.881C137.405 232.251 138.725 231.651 140.065 231.061C140.105 231.041 140.135 231.031 140.165 231.011C140.195 231.001 140.225 230.991 140.255 230.971C140.565 230.851 140.875 230.721 141.195 230.591C141.935 230.301 142.675 230.021 143.415 229.751C146.385 228.671 149.425 227.781 152.505 227.071C154.165 226.691 155.845 226.361 157.525 226.071C158.425 225.921 159.315 225.781 160.215 225.651C160.285 225.641 160.335 225.631 160.385 225.621C160.435 225.621 160.505 225.611 160.605 225.601C161.125 225.541 161.635 225.471 162.155 225.421C172.055 224.321 182.065 224.391 192.005 224.791C203.685 225.261 215.395 226.061 227.005 227.381C228.065 227.501 229.115 227.631 230.175 227.761C230.305 227.781 230.395 227.791 230.455 227.791C230.505 227.791 230.585 227.811 230.685 227.821C231.195 227.891 231.715 227.961 232.225 228.041C234.025 228.311 235.825 228.601 237.615 228.951C240.475 229.501 243.315 230.171 246.085 231.071C247.195 231.431 248.275 231.881 249.365 232.271C249.605 232.381 249.855 232.491 250.095 232.601C250.595 232.831 251.095 233.081 251.585 233.331C253.575 234.351 255.475 235.521 257.325 236.781C262.985 240.631 268.435 244.881 273.835 249.071C282.245 255.581 290.365 262.581 299.305 268.381C303.885 271.351 308.735 273.851 314.005 275.361C319.825 277.031 325.945 277.621 331.975 277.911C338.035 278.201 344.115 278.131 350.175 278.531C355.895 278.901 361.465 279.891 366.955 281.591C374.255 283.851 381.215 287.241 387.635 291.421C383.015 293.641 380.095 298.351 379.565 303.461C378.975 309.131 382.145 314.451 386.195 318.161C390.435 322.051 395.615 324.911 401.035 326.781C406.775 328.761 413.015 329.481 419.055 328.851C421.065 336.521 420.745 344.271 417.855 352.001C417.415 353.191 416.165 355.591 415.015 357.201C414.905 357.361 414.855 357.441 414.825 357.471C414.805 357.491 414.735 357.551 414.585 357.721C414.265 358.081 413.945 358.431 413.605 358.771C413.305 359.071 412.975 359.351 412.655 359.631C400.535 359.631 388.415 359.631 376.295 359.631C378.515 347.391 375.945 334.321 368.905 323.861C367.475 321.731 365.885 319.701 364.175 317.781C358.055 311.011 349.895 305.951 340.965 303.911C332.535 301.981 323.465 302.471 315.395 305.651C306.455 309.171 299.035 315.191 293.605 323.101C287.445 332.081 284.525 343.501 285.455 354.341C285.605 356.141 285.865 357.921 286.205 359.681C281.635 359.711 277.075 359.731 272.505 359.751L272.485 359.731ZM343.935 315.311C343.935 315.311 344.025 315.341 344.075 315.361C344.685 315.601 344.225 315.431 343.935 315.311ZM318.375 384.831C318.195 384.761 318.015 384.691 317.845 384.621C317.845 384.621 317.835 384.621 317.825 384.611C316.095 383.811 314.405 382.961 312.785 381.971C311.975 381.471 311.175 380.951 310.405 380.401C310.065 380.161 309.745 379.911 309.415 379.671C309.205 379.491 308.985 379.321 308.775 379.151C307.265 377.891 305.835 376.531 304.515 375.071C304.305 374.841 302.545 373.021 302.645 372.871C302.645 372.871 303.395 373.881 302.835 373.121C302.705 372.951 302.575 372.781 302.455 372.601C302.135 372.161 301.825 371.721 301.535 371.281C300.385 369.571 299.365 367.761 298.495 365.891C298.415 365.721 298.175 365.161 298.125 365.051C297.955 364.621 297.785 364.191 297.625 363.761C297.195 362.571 296.815 361.351 296.495 360.121C296.195 358.951 295.945 357.771 295.735 356.591C295.695 356.331 295.645 356.061 295.605 355.801C295.495 355.111 295.535 355.411 295.575 355.691C295.465 355.061 295.455 354.361 295.405 353.731C295.225 351.251 295.255 348.761 295.495 346.281C295.525 346.011 295.555 345.751 295.575 345.481C295.595 345.321 295.605 345.231 295.605 345.161C295.665 344.711 295.755 344.251 295.835 343.821C296.065 342.561 296.345 341.321 296.675 340.091C296.995 338.931 297.355 337.771 297.765 336.641C297.945 336.141 298.145 335.641 298.335 335.141C298.335 335.121 298.345 335.101 298.355 335.081C298.355 335.071 298.365 335.061 298.375 335.041C298.545 334.681 298.705 334.311 298.875 333.951C299.885 331.831 301.075 329.791 302.425 327.861C302.685 327.481 302.965 327.111 303.235 326.741C303.245 326.731 303.255 326.721 303.265 326.701C303.415 326.511 303.565 326.321 303.715 326.141C304.355 325.361 305.015 324.611 305.715 323.871C307.075 322.431 308.555 321.141 310.075 319.881C310.245 319.761 310.405 319.631 310.575 319.511C310.965 319.231 311.355 318.961 311.755 318.691C312.585 318.131 313.445 317.611 314.315 317.121C315.135 316.661 315.965 316.231 316.815 315.831C316.985 315.751 317.205 315.681 317.425 315.601C317.465 315.551 317.565 315.471 317.755 315.401C317.805 315.381 317.865 315.361 317.915 315.341C317.915 315.341 317.935 315.331 317.945 315.321C317.945 315.321 317.935 315.331 317.925 315.341C318.105 315.271 318.285 315.191 318.475 315.131C320.295 314.441 322.175 313.881 324.075 313.471C324.895 313.291 325.715 313.181 326.535 313.021C326.685 313.001 326.825 312.991 326.975 312.971C327.485 312.921 327.985 312.871 328.495 312.841C330.375 312.721 332.265 312.741 334.145 312.891C334.505 312.921 334.855 312.961 335.205 313.001C335.165 312.991 335.145 312.981 335.095 312.971C335.165 312.991 335.245 313.001 335.315 313.011C335.375 313.011 335.445 313.021 335.505 313.031C335.565 313.031 335.625 313.051 335.675 313.061C335.675 313.061 335.695 313.061 335.705 313.061C336.725 313.221 337.725 313.421 338.725 313.671C340.465 314.091 342.145 314.651 343.815 315.291C343.985 315.411 344.305 315.491 344.465 315.561C344.895 315.761 345.325 315.961 345.755 316.171C346.665 316.621 347.555 317.111 348.425 317.631C349.215 318.101 349.995 318.611 350.745 319.131C351.075 319.361 351.865 319.761 352.075 320.101C352.035 320.031 351.145 319.361 351.855 319.931C352.115 320.141 352.375 320.351 352.635 320.561C354.215 321.881 355.685 323.321 357.065 324.851C357.465 325.301 357.865 325.751 358.245 326.221C358.495 326.521 359.205 327.671 358.575 326.611C359.135 327.561 359.905 328.421 360.515 329.351C361.685 331.131 362.725 333.001 363.635 334.931C363.735 335.141 363.825 335.341 363.915 335.551C363.925 335.581 364.005 335.751 364.075 335.911C364.105 335.981 364.125 336.041 364.145 336.081C364.245 336.341 364.355 336.601 364.455 336.871C364.815 337.811 365.135 338.771 365.425 339.741C366.005 341.661 366.415 343.611 366.745 345.591C366.745 345.591 366.745 345.571 366.755 345.561C366.755 345.561 366.755 345.601 366.755 345.641C366.775 345.731 366.785 345.821 366.805 345.911C366.825 346.051 366.835 346.111 366.825 346.151C366.825 346.171 366.825 346.211 366.835 346.221C366.885 346.711 366.935 347.201 366.975 347.701C367.055 348.741 367.095 349.781 367.095 350.821C367.095 351.801 367.065 352.791 367.005 353.771C366.975 354.211 366.945 354.641 366.895 355.071C366.865 355.341 366.835 355.611 366.805 355.881C366.805 355.881 366.805 355.881 366.805 355.891C366.415 357.861 366.085 359.821 365.505 361.751C365.235 362.641 364.945 363.521 364.615 364.391C364.565 364.531 364.465 364.951 364.335 365.291C364.345 365.211 364.305 365.221 364.185 365.481C364.045 365.781 363.915 366.081 363.775 366.381C362.905 368.231 361.895 370.021 360.755 371.731C360.475 372.151 360.185 372.561 359.895 372.971C359.765 373.151 359.625 373.331 359.495 373.511C359.045 374.131 359.455 373.601 359.615 373.381C359.095 374.291 358.155 375.141 357.455 375.901C356.035 377.441 354.495 378.871 352.865 380.191C352.815 380.231 352.115 380.751 352.345 380.591C352.255 380.651 352.185 380.701 352.175 380.711C351.795 380.991 351.405 381.261 351.015 381.521C350.105 382.141 349.165 382.711 348.215 383.251C347.325 383.751 346.425 384.211 345.495 384.641C345.435 384.671 345.345 384.721 345.255 384.771C345.205 384.791 345.125 384.821 345.005 384.871C344.495 385.071 343.975 385.271 343.455 385.461C341.615 386.121 339.725 386.631 337.805 387.001C337.385 387.081 336.975 387.141 336.555 387.211C336.565 387.211 336.585 387.211 336.595 387.211C336.575 387.211 336.555 387.211 336.525 387.211C336.425 387.231 336.315 387.251 336.215 387.261C336.115 387.281 336.055 387.281 336.005 387.271C335.985 387.271 335.965 387.271 335.955 387.271C334.895 387.381 333.835 387.451 332.775 387.471C330.955 387.511 329.145 387.401 327.335 387.211C327.135 387.161 326.885 387.151 326.695 387.121C326.225 387.041 325.765 386.961 325.295 386.871C324.315 386.671 323.345 386.441 322.375 386.171C321.515 385.931 320.655 385.671 319.815 385.371C319.315 385.201 318.825 385.021 318.335 384.821L318.375 384.831Z" fill="#222222"/>
<path d="M366.845 346.131C366.825 345.991 366.775 345.751 366.775 345.621C366.775 345.611 366.775 345.591 366.775 345.581C366.685 345.791 366.835 346.291 366.855 346.131H366.845Z" fill="#222222"/>
<path d="M335.685 313.041C335.565 313.021 335.445 313.011 335.325 312.991C335.285 312.991 335.245 312.991 335.205 312.981C336.035 313.211 335.955 313.101 335.685 313.041Z" fill="#222222"/>
<path d="M317.915 315.331C317.915 315.331 317.915 315.331 317.905 315.331C317.775 315.441 317.605 315.521 317.415 315.591C317.335 315.691 317.535 315.681 317.925 315.321L317.915 315.331Z" fill="#222222"/>
<path d="M339.555 356.961C339.685 356.781 339.765 356.521 339.555 356.961V356.961Z" fill="#222222"/>
<path d="M324.955 341.221C324.955 341.221 324.915 341.251 324.895 341.261C324.885 341.271 324.865 341.291 324.855 341.301C324.955 341.231 325.095 341.141 325.165 341.081C325.095 341.131 325.025 341.181 324.955 341.221Z" fill="#222222"/>
<path d="M339.405 343.521C339.405 343.521 339.395 343.501 339.385 343.491C339.295 343.411 339.195 343.301 339.105 343.181C339.065 343.191 339.145 343.351 339.405 343.521Z" fill="#222222"/>
<path d="M348.275 361.861C350.725 358.231 351.975 353.501 351.625 349.141C351.225 344.041 349.235 339.521 345.865 335.681C340.495 329.821 331.745 327.401 324.245 330.351C315.705 333.701 309.985 342.481 310.785 351.741C311.535 360.511 317.455 368.001 326.005 370.391C334.555 372.781 343.375 369.111 348.275 361.861ZM340.745 354.961C340.745 354.961 340.765 354.901 340.805 354.811C340.775 354.891 340.745 354.961 340.745 354.961ZM341.635 351.591C341.635 351.591 341.635 351.691 341.635 351.731C341.585 352.651 341.505 351.851 341.635 351.591ZM337.145 341.081C337.025 340.991 336.875 340.891 336.815 340.881C336.895 340.881 337.015 340.971 337.145 341.081ZM334.615 339.731C334.695 339.761 334.775 339.791 334.855 339.811C335.455 340.011 334.855 339.861 334.615 339.731ZM332.225 339.131C332.295 339.131 332.365 339.141 332.445 339.151C333.325 339.211 332.515 339.281 332.225 339.131ZM320.765 351.841C320.795 351.991 320.815 352.141 320.815 352.131C320.785 352.101 320.775 351.971 320.765 351.841ZM322.755 356.741C322.755 356.741 322.815 356.811 322.885 356.901C322.805 356.811 322.745 356.741 322.755 356.741ZM325.015 358.971C324.965 358.931 324.915 358.901 324.865 358.861C324.385 358.381 323.855 357.961 323.395 357.461C323.365 357.421 323.115 357.151 322.945 356.951C322.825 356.781 322.705 356.621 322.595 356.451C322.235 355.911 321.915 355.341 321.625 354.761C321.585 354.681 321.545 354.611 321.505 354.531C321.505 354.501 321.495 354.481 321.485 354.451C321.375 354.011 321.195 353.581 321.075 353.131C320.955 352.681 320.885 352.231 320.785 351.781C320.785 351.761 320.785 351.751 320.775 351.731C320.775 351.641 320.775 351.571 320.775 351.541C320.705 350.611 320.785 349.701 320.795 348.771C320.795 348.731 320.795 348.701 320.795 348.681C320.805 348.631 320.825 348.571 320.835 348.531C320.905 348.141 320.995 347.751 321.085 347.371C321.195 346.921 321.335 346.481 321.485 346.041C321.535 345.891 321.595 345.751 321.645 345.601C322.055 344.881 322.405 344.151 322.865 343.461C322.965 343.321 323.065 343.181 323.165 343.041C323.475 342.561 322.895 343.401 322.895 343.371C322.945 343.071 323.555 342.601 323.775 342.361C323.855 342.281 324.455 341.671 324.845 341.311C324.715 341.391 324.665 341.421 324.885 341.271C325.055 341.121 325.185 341.011 325.195 341.031C325.195 341.031 325.185 341.061 325.145 341.081C325.205 341.041 325.265 340.991 325.335 340.951C325.635 340.741 325.955 340.551 326.265 340.371C326.615 340.171 326.985 339.991 327.345 339.811C327.385 339.801 327.415 339.791 327.455 339.771C328.185 339.531 328.915 339.311 329.665 339.171C329.695 339.171 329.735 339.161 329.765 339.151C330.135 339.151 330.525 339.091 330.905 339.091C331.255 339.091 331.615 339.091 331.965 339.111C332.045 339.111 332.115 339.121 332.195 339.131C332.625 339.421 333.745 339.451 334.245 339.611C334.345 339.641 334.455 339.681 334.555 339.721C334.735 339.861 335.365 340.081 335.505 340.151C335.885 340.351 336.255 340.571 336.605 340.801C336.745 340.891 336.875 340.981 337.005 341.071C337.205 341.201 337.255 341.221 337.245 341.191C337.475 341.401 337.695 341.661 337.795 341.751C338.125 342.071 338.445 342.401 338.755 342.741C338.845 342.851 338.955 343.011 339.075 343.171C339.105 343.171 339.185 343.221 339.295 343.391C339.315 343.421 339.335 343.451 339.355 343.481C339.385 343.511 339.415 343.541 339.445 343.561C339.415 343.541 339.395 343.531 339.375 343.511C339.445 343.611 339.515 343.721 339.585 343.821C340.025 344.491 340.365 345.191 340.745 345.901C340.745 345.921 340.765 345.941 340.775 345.961C340.895 346.271 340.995 346.591 341.095 346.911C341.295 347.571 341.415 348.231 341.565 348.891C341.575 349.001 341.595 349.101 341.595 349.121C341.615 349.501 341.645 349.881 341.645 350.261C341.645 350.581 341.645 350.911 341.625 351.231C341.625 351.341 341.615 351.461 341.605 351.571C341.405 351.881 341.325 353.091 341.235 353.411C341.135 353.781 341.005 354.131 340.885 354.491C340.885 354.501 340.855 354.581 340.825 354.671C340.505 355.301 340.185 355.921 339.795 356.521C339.675 356.701 339.215 357.601 339.515 356.971C339.515 356.971 339.515 356.961 339.525 356.951C339.515 356.961 339.505 356.981 339.495 356.991C339.305 357.201 339.125 357.421 338.935 357.631C338.505 358.101 338.015 358.511 337.555 358.951C337.425 359.051 337.275 359.181 337.185 359.241C336.855 359.471 336.505 359.681 336.155 359.891C335.815 360.081 335.465 360.261 335.115 360.431C335.095 360.431 335.085 360.431 335.065 360.441C334.345 360.671 333.635 360.891 332.895 361.041C332.725 360.991 332.125 361.111 331.985 361.121C331.615 361.131 331.245 361.131 330.875 361.121C330.655 361.121 330.105 360.981 329.855 361.031C329.495 360.961 329.135 360.881 328.785 360.781C328.485 360.701 328.175 360.611 327.875 360.511C327.725 360.461 327.575 360.401 327.425 360.351C326.915 360.101 326.405 359.861 325.925 359.561C325.605 359.371 325.295 359.171 324.995 358.961L325.015 358.971Z" fill="#222222"/>
<path d="M196.725 297.331C193.085 297.491 189.435 297.651 185.795 297.811C183.835 297.901 181.955 299.471 182.045 301.561C182.135 303.521 183.695 305.401 185.795 305.311C189.435 305.151 193.085 304.991 196.725 304.831C198.685 304.741 200.565 303.171 200.475 301.081C200.385 299.121 198.825 297.241 196.725 297.331Z" fill="#222222"/>
<path d="M225.745 245.961C225.745 245.961 225.705 245.961 225.685 245.961C225.735 245.961 225.775 245.971 225.815 245.981C225.795 245.981 225.765 245.981 225.745 245.981V245.961Z" fill="#222222"/>
<path d="M371.331 209.532C371.933 207.284 373.252 205.573 375.288 204.397C377.405 203.243 379.587 202.968 381.835 203.57C384.163 204.194 385.875 205.513 386.97 207.527C388.086 209.461 388.333 211.593 387.709 213.921C387.107 216.169 385.777 217.921 383.719 219.176C381.764 220.373 379.662 220.671 377.414 220.068C375.166 219.466 373.414 218.136 372.158 216.079C371.004 213.962 370.729 211.78 371.331 209.532ZM369.33 143.298L379.728 138.211C386.361 134.653 393.41 133.874 400.877 135.875C409.227 138.112 415.314 143.013 419.138 150.577C422.359 156.862 423.146 163.397 421.5 170.184C419.955 176.912 416.056 182.149 409.804 185.895C408.706 186.461 407.487 186.995 406.148 187.497C404.91 187.94 403.877 188.265 403.047 188.473C402.216 188.681 400.931 188.982 399.191 189.376C397.45 189.77 396.307 190.023 395.76 190.135C394.282 190.513 393.235 191.05 392.618 191.745C392.082 192.462 391.639 193.634 391.289 195.261C390.692 197.166 389.532 198.447 387.807 199.104C386.163 199.782 384.537 199.906 382.932 199.475C381.406 199.067 380.061 198.147 378.895 196.716C377.73 195.285 377.325 193.585 377.681 191.615C378.627 188.082 379.658 185.519 380.774 183.925C381.97 182.352 384.033 180.754 386.964 179.129L398.413 174.453C401.745 172.937 404.002 170.616 405.184 167.49C406.387 164.285 406.198 161.136 404.617 158.045C402.94 154.67 400.255 152.488 396.562 151.498C393.27 150.616 390.089 150.926 387.02 152.426L376.765 157.939C374.735 158.772 372.797 158.941 370.95 158.446C368.622 157.823 366.972 156.434 366 154.28C364.905 152.266 364.688 150.186 365.349 148.04C366.01 145.893 367.337 144.313 369.33 143.298Z" fill="#222222"/>
<path d="M19.1572 161.582C19.621 159.851 19.4003 158.201 18.4953 156.634C17.5283 155.05 16.1794 154.026 14.4485 153.562C12.6557 153.081 11.0064 153.302 9.50055 154.224C8.01126 155.084 7.02643 156.41 6.54606 158.203C6.08226 159.934 6.29462 161.614 7.18315 163.243C8.02643 164.794 9.31354 165.802 11.0445 166.266C12.7754 166.729 14.4556 166.517 16.0851 165.629C17.6694 164.662 18.6934 163.313 19.1572 161.582ZM45.9916 118.184L41.0163 110.789C37.9632 105.863 33.5621 102.629 27.8129 101.089C21.3837 99.366 15.4378 100.291 9.97515 103.863C5.4079 106.813 2.36674 110.868 0.851695 116.028C-0.708611 121.109 -0.125055 126.102 2.60236 131.007C3.11673 131.808 3.72382 132.633 4.42365 133.483C5.07822 134.255 5.64228 134.87 6.11583 135.328C6.58938 135.786 7.33062 136.482 8.33954 137.414C9.34846 138.347 10.0135 138.956 10.3348 139.241C11.1748 140.062 11.6665 140.824 11.81 141.525C11.8916 142.209 11.7359 143.161 11.3428 144.381C11.007 145.881 11.2879 147.182 12.1853 148.284C13.0209 149.369 14.0569 150.078 15.2933 150.409C16.4678 150.724 17.7191 150.628 19.0472 150.123C20.3753 149.617 21.2999 148.639 21.8211 147.189C22.55 144.469 22.8493 142.362 22.7192 140.87C22.5272 139.361 21.7668 137.501 20.4378 135.289L14.603 127.763C12.965 125.469 12.3536 123.052 12.7689 120.513C13.2008 117.912 14.5389 115.885 16.7833 114.433C19.2011 112.828 21.8318 112.406 24.6755 113.168C27.2101 113.847 29.212 115.278 30.6812 117.461L35.3965 125.085C36.4297 126.422 37.6572 127.281 39.0791 127.662C40.8718 128.142 42.5068 127.852 43.9839 126.79C45.4898 125.868 46.4354 124.565 46.8209 122.879C47.2063 121.193 46.9299 119.628 45.9916 118.184Z" fill="#222222"/>
<path d="M350.853 98.9141C350.451 97.7893 349.704 96.9688 348.613 96.4528C347.482 95.9511 346.354 95.9015 345.23 96.3039C344.064 96.7207 343.244 97.4673 342.768 98.5439C342.278 99.5802 342.241 100.681 342.658 101.846C343.06 102.971 343.814 103.811 344.92 104.368C345.97 104.898 347.058 104.962 348.183 104.56C349.308 104.157 350.148 103.403 350.704 102.298C351.206 101.167 351.256 100.039 350.853 98.9141ZM349.1 64.9435L343.567 62.7766C340.025 61.2344 336.385 61.1316 332.649 62.4681C328.471 63.9628 325.563 66.7253 323.923 70.7557C322.539 74.1059 322.41 77.4826 323.537 80.8859C324.609 84.2634 326.823 86.7793 330.179 88.4335C330.765 88.6772 331.411 88.8993 332.117 89.0998C332.768 89.2745 333.311 89.3976 333.744 89.4692C334.178 89.5407 334.848 89.6408 335.755 89.7695C336.662 89.8981 337.257 89.9796 337.542 90.0139C338.314 90.1455 338.872 90.3763 339.217 90.7061C339.521 91.0504 339.797 91.6314 340.044 92.4493C340.429 93.3991 341.077 94.0057 341.987 94.2693C342.856 94.5472 343.693 94.5425 344.497 94.2551C345.26 93.982 345.91 93.455 346.446 92.6741C346.982 91.8931 347.118 91.0062 346.854 90.0133C346.221 88.2457 345.586 86.9774 344.949 86.2086C344.271 85.4541 343.148 84.7228 341.581 84.0148L335.527 82.1022C333.759 81.466 332.507 80.3731 331.771 78.8237C331.021 77.234 330.986 75.6153 331.665 73.9676C332.382 72.1705 333.664 70.9415 335.512 70.2804C337.159 69.6911 338.799 69.7161 340.433 70.3553L345.91 72.746C346.984 73.087 347.983 73.0922 348.907 72.7616C350.072 72.3449 350.858 71.5652 351.265 70.4227C351.74 69.3462 351.764 68.2728 351.336 67.2025C350.908 66.1322 350.163 65.3792 349.1 64.9435Z" fill="#222222"/>
<path d="M137.244 137.434C136.915 138.583 137.043 139.685 137.628 140.74C138.254 141.807 139.142 142.506 140.29 142.835C141.48 143.176 142.581 143.048 143.596 142.451C144.599 141.895 145.27 141.022 145.611 139.833C145.941 138.684 145.818 137.562 145.245 136.466C144.701 135.422 143.855 134.735 142.706 134.406C141.558 134.077 140.435 134.199 139.339 134.773C138.272 135.399 137.574 136.286 137.244 137.434ZM118.855 166.051L122.086 171.038C124.064 174.357 126.96 176.563 130.774 177.657C135.04 178.88 139.014 178.332 142.696 176.014C145.775 174.101 147.849 171.433 148.919 168.011C150.018 164.642 149.686 161.307 147.925 158.006C147.592 157.467 147.196 156.91 146.74 156.335C146.312 155.813 145.944 155.396 145.633 155.085C145.323 154.775 144.837 154.302 144.175 153.669C143.513 153.035 143.077 152.622 142.866 152.428C142.316 151.871 141.997 151.358 141.909 150.889C141.863 150.432 141.978 149.799 142.254 148.99C142.495 147.994 142.323 147.124 141.738 146.379C141.193 145.646 140.511 145.162 139.691 144.927C138.911 144.703 138.076 144.752 137.185 145.074C136.294 145.395 135.666 146.037 135.302 146.997C134.785 148.802 134.561 150.203 134.63 151.199C134.741 152.207 135.226 153.456 136.086 154.945L139.888 160.03C140.954 161.578 141.333 163.196 141.027 164.883C140.709 166.612 139.794 167.948 138.281 168.89C136.65 169.932 134.892 170.182 133.005 169.641C131.324 169.159 130.006 168.182 129.052 166.71L125.997 161.574C125.324 160.671 124.516 160.084 123.572 159.813C122.383 159.472 121.29 159.647 120.293 160.338C119.278 160.935 118.633 161.793 118.356 162.912C118.08 164.031 118.246 165.078 118.855 166.051Z" fill="#222222"/>
<path d="M234.496 106.391C234.015 103.322 234.698 100.52 236.546 97.9846C238.504 95.4318 241.017 93.9148 244.086 93.4336C247.264 92.9352 250.066 93.6187 252.492 95.4841C254.901 97.2399 256.355 99.7069 256.853 102.885C257.334 105.954 256.659 108.811 254.828 111.456C253.09 113.974 250.686 115.474 247.618 115.955C244.549 116.437 241.692 115.762 239.047 113.931C236.494 111.973 234.977 109.46 234.496 106.391ZM196.223 26.659L206.158 14.8266C212.325 6.89744 220.505 2.13374 230.698 0.535497C242.096 -1.25179 252.174 1.43489 260.933 8.59553C268.262 14.5205 272.758 22.0687 274.421 31.2404C276.176 40.2852 274.253 48.7841 268.65 56.7369C267.616 58.0219 266.418 59.3327 265.056 60.6692C263.786 61.879 262.7 62.8352 261.8 63.5378C260.899 64.2405 259.494 65.303 257.584 66.7255C255.673 68.148 254.415 69.0752 253.809 69.5071C252.21 70.7684 251.223 71.99 250.846 73.1719C250.58 74.3366 250.673 76.0063 251.127 78.181C251.429 80.8285 250.706 83.0193 248.957 84.7533C247.317 86.4702 245.401 87.5005 243.209 87.8442C241.127 88.1708 238.988 87.7763 236.792 86.6609C234.596 85.5455 233.182 83.6899 232.55 81.0939C231.794 76.2718 231.665 72.5864 232.164 70.0378C232.772 67.472 234.425 64.4056 237.122 60.8386L248.562 48.9385C251.807 45.2855 253.305 41.2328 253.056 36.7802C252.79 32.2181 250.856 28.4789 247.255 25.5626C243.383 22.3519 238.926 21.1418 233.885 21.9324C229.391 22.637 225.678 24.7352 222.744 28.227L213.215 40.5011C211.189 42.6155 208.915 43.8703 206.395 44.2656C203.216 44.764 200.452 43.9623 198.101 41.8605C195.675 39.9951 194.285 37.5743 193.93 34.5981C193.576 31.6218 194.34 28.9755 196.223 26.659Z" fill="#222222"/>
</svg>
