<svg width="18" height="18" viewBox="0 0 18 18" fill="none" xmlns="http://www.w3.org/2000/svg">
<g clip-path="url(#clip0_423_6400)">
<path d="M6.75488 1.125C6.05665 1.12463 5.37549 1.34084 4.80528 1.74381C4.23507 2.14679 3.80388 2.7167 3.57113 3.375H0.00488281V5.625H3.57113C3.80356 6.28373 4.23459 6.85414 4.80481 7.25761C5.37503 7.66109 6.05636 7.87776 6.75488 7.87776C7.45341 7.87776 8.13474 7.66109 8.70496 7.25761C9.27518 6.85414 9.70621 6.28373 9.93863 5.625H18.0049V3.375H9.93863C9.70589 2.7167 9.2747 2.14679 8.70449 1.74381C8.13428 1.34084 7.45312 1.12463 6.75488 1.125ZM5.62988 4.5C5.62988 4.20163 5.74841 3.91548 5.95939 3.70451C6.17037 3.49353 6.45651 3.375 6.75488 3.375C7.05325 3.375 7.3394 3.49353 7.55038 3.70451C7.76136 3.91548 7.87988 4.20163 7.87988 4.5C7.87988 4.79837 7.76136 5.08452 7.55038 5.2955C7.3394 5.50647 7.05325 5.625 6.75488 5.625C6.45651 5.625 6.17037 5.50647 5.95939 5.2955C5.74841 5.08452 5.62988 4.79837 5.62988 4.5ZM11.2549 10.125C10.5566 10.1246 9.87549 10.3408 9.30528 10.7438C8.73507 11.1468 8.30388 11.7167 8.07113 12.375H0.00488281V14.625H8.07113C8.30356 15.2837 8.73459 15.8541 9.30481 16.2576C9.87503 16.6611 10.5564 16.8778 11.2549 16.8778C11.9534 16.8778 12.6347 16.6611 13.205 16.2576C13.7752 15.8541 14.2062 15.2837 14.4386 14.625H18.0049V12.375H14.4386C14.2059 11.7167 13.7747 11.1468 13.2045 10.7438C12.6343 10.3408 11.9531 10.1246 11.2549 10.125ZM10.1299 13.5C10.1299 13.2016 10.2484 12.9155 10.4594 12.7045C10.6704 12.4935 10.9565 12.375 11.2549 12.375C11.5533 12.375 11.8394 12.4935 12.0504 12.7045C12.2614 12.9155 12.3799 13.2016 12.3799 13.5C12.3799 13.7984 12.2614 14.0845 12.0504 14.2955C11.8394 14.5065 11.5533 14.625 11.2549 14.625C10.9565 14.625 10.6704 14.5065 10.4594 14.2955C10.2484 14.0845 10.1299 13.7984 10.1299 13.5Z" fill="black"/>
</g>
<defs>
<clipPath id="clip0_423_6400">
<rect width="18" height="18" fill="white" transform="translate(0.00488281)"/>
</clipPath>
</defs>
</svg>
