<svg width="32" height="40" viewBox="0 0 32 40" fill="none" xmlns="http://www.w3.org/2000/svg">
<path d="M30.3325 37.375C30.3252 37.3883 30.3204 37.3992 30.318 37.4053C30.3228 37.3956 30.3277 37.3859 30.3313 37.375H30.3325Z" fill="#222222"/>
<path d="M31.4789 23.1415V18.2071C31.4789 16.7603 31.4849 15.3135 31.4922 13.8667C31.4982 12.6775 31.5043 11.487 31.4958 10.2977C31.4922 9.858 31.4837 9.41947 31.474 8.97972C31.4643 8.5169 31.4607 8.05528 31.3881 7.5961C31.2138 6.47973 30.4596 5.67312 29.5626 5.04995C28.9077 4.59562 28.1923 4.22026 27.483 3.86069C26.747 3.48775 25.9952 3.1464 25.235 2.82813C23.7195 2.19402 22.1531 1.64738 20.5637 1.2295C19.8737 1.0485 19.1607 0.963463 18.4513 1.06307C17.8969 1.14082 17.3715 1.34854 16.8873 1.62794C16.3813 1.91949 15.9177 2.28027 15.4504 2.6277C15.12 2.87308 14.7846 3.10996 14.4554 3.35656C13.7388 3.89349 13.0355 4.44742 12.3346 5.005C11.7995 5.43017 11.2657 5.85777 10.7331 6.2878C10.1944 6.08128 9.65691 5.87599 9.11823 5.66948C9.11823 5.63911 9.11823 5.60752 9.11823 5.57716C9.11823 5.49941 9.11823 5.42288 9.11702 5.34513C9.28286 5.34756 9.4487 5.34999 9.61333 5.34149C10.1012 5.31476 10.5321 5.12648 10.8069 4.70738C11.0357 4.35874 11.0938 3.90928 11.1301 3.50354C11.1676 3.06866 11.1507 2.61676 11.0466 2.19159C11.0018 2.00938 10.934 1.82716 10.8396 1.66438C10.8311 1.64738 10.8226 1.63037 10.8105 1.61458C10.8008 1.59879 10.7887 1.58299 10.7766 1.56842C10.6047 1.33518 10.382 1.15783 10.0939 1.08615C9.90506 1.03878 9.70775 1.03635 9.51406 1.03149C9.21628 1.0242 8.91849 1.01934 8.61949 1.0157C7.86655 1.00598 7.11361 1.00234 6.36067 1.00112C4.98674 0.998691 3.61159 0.997476 2.23645 1.02785C1.90961 1.03513 1.59487 1.04485 1.30314 1.21978C0.868564 1.48095 0.628882 1.94743 0.552619 2.43698C0.477567 2.91924 0.486041 3.39543 0.557461 3.87648C0.626461 4.34659 0.809248 4.78877 1.20024 5.07788C1.58035 5.3585 2.05124 5.34635 2.50034 5.34878C2.67707 5.34878 2.85381 5.34878 3.02933 5.34878C3.03418 6.19061 3.03418 7.03123 3.03175 7.87307C3.02812 9.03317 3.02328 10.1921 3.01844 11.3522C3.01602 11.8429 3.01481 12.3325 3.01239 12.8233C2.78118 13.0541 2.5645 13.297 2.37323 13.5703C2.00161 14.1024 1.75103 14.7219 1.61787 15.3573C1.36003 16.5927 1.48472 17.8597 1.47624 19.1109C1.45324 21.9352 1.44114 24.7584 1.4593 27.5827C1.47624 30.1884 1.51619 32.7941 1.55856 35.3985C1.5755 36.4359 1.67961 37.7163 2.54513 38.4269C3.13707 38.9128 3.87064 38.9991 4.61027 38.9991H28.1911C28.8884 38.9991 29.6365 39.0307 30.2817 38.7209C31.1823 38.2885 31.3953 37.2122 31.4571 36.3084C31.5019 35.667 31.4777 35.0159 31.4777 34.3733V23.1464L31.4789 23.1415ZM9.91596 6.94984C9.64964 7.16607 9.38454 7.38352 9.11944 7.60096C9.11944 7.28269 9.11944 6.96321 9.11944 6.64494C9.38454 6.74698 9.64964 6.8478 9.91596 6.94984ZM10.0128 4.25184C10.0201 4.24212 10.0261 4.23241 10.0285 4.23362C10.0285 4.23362 10.0225 4.24212 10.0128 4.25184ZM10.0116 4.25427C9.99101 4.28586 10.0007 4.27128 10.0116 4.25427V4.25427ZM10.1109 2.23533C10.1181 2.25112 10.1217 2.25841 10.1109 2.23533V2.23533ZM2.13718 4.42555C2.09724 4.42555 2.0585 4.42434 2.01855 4.4207C2.00766 4.4207 1.99798 4.41948 1.98708 4.41827C1.93503 4.40612 1.87934 4.38425 1.82608 4.37089C1.85756 4.38182 1.84061 4.39154 1.8055 4.37089C1.80066 4.36846 1.79703 4.36603 1.79219 4.3636C1.78735 4.3636 1.7825 4.36117 1.77766 4.36117C1.7825 4.36117 1.78613 4.36239 1.78977 4.3636C1.77524 4.35631 1.76192 4.34902 1.74861 4.34052C1.73529 4.33202 1.72198 4.32351 1.70987 4.31501C1.68324 4.28829 1.65661 4.25549 1.62756 4.23119C1.61787 4.21418 1.60577 4.19839 1.59608 4.18139C1.58519 4.16195 1.57429 4.14251 1.56461 4.12308C1.56461 4.12065 1.54887 4.08785 1.54161 4.07084C1.53798 4.06112 1.53556 4.05262 1.53435 4.04898C1.52708 4.02833 1.52103 4.00646 1.51498 3.98581C1.4944 3.91292 1.47745 3.84004 1.46293 3.76593C1.45566 3.72949 1.44961 3.69305 1.44356 3.65539C1.44114 3.64324 1.42419 3.54849 1.43993 3.62988C1.45566 3.70884 1.43751 3.60316 1.43508 3.58615C1.41451 3.39057 1.40603 3.19256 1.41209 2.99577C1.41451 2.89373 1.42177 2.7929 1.43266 2.69208C1.43266 2.68479 1.43387 2.67993 1.43387 2.67507C1.4363 2.65928 1.43872 2.64349 1.43872 2.64592C1.44719 2.59733 1.45687 2.54874 1.46777 2.50015C1.48108 2.44062 1.51135 2.37745 1.52829 2.3155C1.51861 2.3398 1.51256 2.324 1.52829 2.29121C1.53072 2.28635 1.53314 2.28149 1.53677 2.27663C1.53677 2.27177 1.53919 2.26812 1.53919 2.26327C1.53919 2.26812 1.53798 2.27055 1.53677 2.2742C1.54645 2.25476 1.55614 2.23411 1.56824 2.21467C1.58035 2.19402 1.59366 2.17459 1.60577 2.15394C1.60819 2.14908 1.61061 2.14543 1.61303 2.14179C1.61424 2.14057 1.61545 2.13936 1.61787 2.13693C1.65056 2.1017 1.68566 2.0689 1.71956 2.03489C1.73529 2.02517 1.74982 2.01424 1.76556 2.00573C1.78129 1.99602 1.79703 1.98873 1.81277 1.97901C1.84545 1.97172 1.90598 1.95957 1.93382 1.94621C1.9544 1.94621 1.97376 1.945 1.99434 1.94378C2.03671 1.94257 2.08029 1.94135 2.12266 1.94014C2.34902 1.93406 2.57539 1.93042 2.80055 1.92677C2.80539 2.24626 2.81023 2.56574 2.81628 2.88523C2.8187 3.06501 2.97123 3.23751 3.15886 3.22901C3.34165 3.2205 3.50386 3.07838 3.50144 2.88523C3.49659 2.5621 3.49054 2.24018 3.4857 1.91706C4.12727 1.91098 4.76885 1.90977 5.41042 1.90977C5.42979 2.23533 5.45036 2.55967 5.46973 2.88523C5.48063 3.0638 5.61984 3.23751 5.81231 3.22901C5.98904 3.2205 6.16578 3.07716 6.15488 2.88523C6.13552 2.55967 6.11494 2.23533 6.09557 1.90977C6.74562 1.90977 7.39566 1.9122 8.04571 1.91827C8.05055 1.91827 8.05539 1.91827 8.05903 1.91827V2.99699C8.05903 3.17677 8.21639 3.34927 8.4016 3.34077C8.58681 3.33226 8.74418 3.19013 8.74418 2.99699V1.92677C8.83133 1.92677 8.91849 1.92799 9.00565 1.93042C9.14244 1.93285 9.27923 1.93528 9.41601 1.93771C9.54433 1.94014 9.67749 1.95593 9.8058 1.95228C9.82154 1.95593 9.83606 1.95836 9.8518 1.962C9.87117 1.96686 9.88932 1.97415 9.90869 1.97779C9.92322 1.9863 9.93654 1.99359 9.95106 2.00209C9.94985 1.99966 9.94864 1.99845 9.95106 1.99602C9.95106 1.99602 9.95953 2.00209 9.96801 2.01059C9.99827 2.02639 9.9898 2.02517 9.97527 2.01788C9.98617 2.02882 9.99827 2.04096 10.0007 2.04339C10.0055 2.04704 10.008 2.04947 10.0116 2.0519C10.014 2.05675 10.0176 2.06161 10.0225 2.06769C10.0455 2.10292 10.0661 2.13814 10.0842 2.1758C10.0866 2.18188 10.0903 2.18795 10.0927 2.19402C10.0963 2.22925 10.1266 2.28635 10.1363 2.31672C10.1496 2.36288 10.1617 2.40904 10.1726 2.4552C10.1823 2.49893 10.1907 2.54266 10.1992 2.58639C10.2065 2.62527 10.2101 2.76375 10.2077 2.63013C10.2089 2.73338 10.2271 2.83785 10.2319 2.94111C10.2392 3.13547 10.2319 3.33105 10.215 3.52541C10.2113 3.56185 10.2077 3.5983 10.2028 3.63474C10.2004 3.65053 10.198 3.66754 10.1956 3.68333C10.1835 3.76108 10.1677 3.83882 10.1496 3.91535C10.1338 3.97852 10.1109 4.04047 10.0939 4.10364C10.0939 4.10607 10.0939 4.10607 10.0939 4.1085C10.0939 4.1085 10.0939 4.10971 10.0927 4.11093C10.0818 4.13036 10.0733 4.15102 10.0624 4.17045C10.0515 4.18867 10.0406 4.20811 10.0297 4.22633C10.0237 4.23605 10.0189 4.24334 10.0152 4.24941C9.99827 4.26642 9.97285 4.29193 9.95469 4.31015C9.95711 4.31015 9.95954 4.30894 9.96317 4.30772C9.96075 4.30772 9.95469 4.31137 9.94985 4.31501C9.94138 4.32351 9.93533 4.32959 9.93411 4.3308C9.91717 4.34781 9.91232 4.34659 9.91475 4.33931C9.90264 4.34659 9.88933 4.35388 9.87601 4.36117C9.88085 4.36117 9.88569 4.35874 9.89296 4.35753C9.8869 4.35753 9.88085 4.35996 9.87359 4.36239C9.86996 4.3636 9.86754 4.36603 9.8639 4.36724C9.84212 4.37939 9.82638 4.38061 9.82638 4.37696C9.80943 4.38304 9.79128 4.39033 9.77433 4.39518C9.74406 4.40247 9.7138 4.40733 9.68354 4.41341C9.67385 4.41341 9.66296 4.41584 9.65328 4.41584C9.55886 4.42312 9.46444 4.42191 9.37123 4.4207C9.08312 4.41948 8.79502 4.41827 8.50692 4.41827C7.37024 4.41584 6.23357 4.42069 5.09689 4.42312C4.58606 4.42434 4.07401 4.42555 3.56317 4.42434C3.53896 4.4207 3.51475 4.41827 3.48933 4.41948C3.47843 4.41948 3.46754 4.42312 3.45665 4.42434C3.43486 4.42434 3.41428 4.42434 3.39249 4.42434C3.11165 4.42434 2.83202 4.42434 2.55118 4.42191C2.41439 4.42191 2.27881 4.42191 2.14203 4.41948L2.13718 4.42555ZM4.31974 5.34513C5.52421 5.34392 6.72988 5.33785 7.93434 5.33785C8.02392 5.33785 8.1135 5.33785 8.20308 5.33785C8.20792 6.18332 8.20792 7.0288 8.20671 7.87307C8.20671 8.03342 8.20671 8.19377 8.2055 8.35412C7.65713 8.80844 7.10998 9.26519 6.56525 9.72316C5.68036 10.469 4.80032 11.221 3.92996 11.9838C3.93238 11.2781 3.93601 10.5711 3.93843 9.86529C3.94327 8.7149 3.94812 7.56452 3.94812 6.41292C3.94812 6.05577 3.94812 5.69985 3.94448 5.34271C4.06917 5.34271 4.19506 5.34271 4.31974 5.34271V5.34513ZM2.74244 37.1697C2.71339 37.0943 2.73397 37.1514 2.74244 37.1697V37.1697ZM30.5431 36.3302C30.5214 36.6242 30.508 36.7627 30.4318 37.0628C30.4051 37.1684 30.3688 37.2705 30.3337 37.375C30.3361 37.3701 30.3386 37.3652 30.341 37.3592C30.3386 37.3652 30.3361 37.3701 30.3337 37.3762C30.3277 37.3932 30.3107 37.4272 30.3204 37.4065C30.318 37.4102 30.3168 37.4138 30.3156 37.4187C30.2914 37.4636 30.2696 37.5098 30.2429 37.5547C30.2236 37.5875 30.1994 37.6191 30.18 37.6519C30.1727 37.6616 30.1655 37.6701 30.157 37.6799C30.1291 37.709 30.1025 37.7394 30.0735 37.7661C30.0432 37.794 29.9294 37.8694 30.0456 37.794C29.9875 37.8317 29.9318 37.8706 29.8701 37.9022C29.8556 37.9094 29.8398 37.9167 29.8241 37.924C29.7902 37.9362 29.7563 37.9495 29.7224 37.9605C29.6474 37.9835 29.5711 38.003 29.4936 38.0188C29.4537 38.0273 29.4113 38.0309 29.3714 38.0394C29.3496 38.0419 29.3278 38.0443 29.306 38.0467C29.1147 38.0662 28.9223 38.0722 28.7298 38.0759C28.5192 38.0795 28.3085 38.0783 28.0979 38.0783H5.74452C6.00599 37.8086 6.26625 37.5377 6.52772 37.268C6.65241 37.1393 6.66572 36.9097 6.52772 36.7821C6.39336 36.6582 6.17667 36.6437 6.04352 36.7821C5.63315 37.2073 5.22279 37.6325 4.81242 38.0576C4.80637 38.0637 4.80153 38.071 4.79669 38.0783H4.64053C4.44927 38.0783 4.2568 38.0807 4.06554 38.0649C4.03769 38.0625 4.01106 38.0589 3.98322 38.0576C3.97838 38.0576 3.97475 38.0576 3.97112 38.0576C3.96991 38.0576 3.96869 38.0576 3.96627 38.0576C3.90938 38.0479 3.85248 38.0382 3.7968 38.0261C3.69996 38.0054 3.60796 37.9726 3.51354 37.9435C4.16359 37.2753 4.81484 36.606 5.46489 35.9379C5.59442 35.8055 5.59684 35.5844 5.46489 35.452C5.33537 35.322 5.11021 35.3183 4.98068 35.452C4.30522 36.1456 3.63096 36.8392 2.95549 37.5341C2.93855 37.511 2.91312 37.4782 2.90586 37.4673C2.87439 37.4187 2.84534 37.3689 2.81749 37.3179C2.79207 37.2705 2.77028 37.2207 2.74607 37.1721C2.7376 37.1502 2.72913 37.1284 2.72186 37.1077C2.67828 36.9874 2.64197 36.8647 2.61171 36.7396C2.60202 36.6995 2.59355 36.6619 2.58507 36.6267C2.91554 36.3096 3.24602 35.9913 3.5777 35.6743C3.70722 35.5504 3.71207 35.3123 3.5777 35.1884C3.43849 35.0596 3.23149 35.056 3.09349 35.1884C2.89134 35.3827 2.68918 35.5759 2.48702 35.7702C2.47492 35.4969 2.47371 35.2236 2.46887 34.9503C2.44829 33.6019 2.42771 32.2547 2.40955 30.9063C2.37808 28.4634 2.36355 26.0217 2.36839 23.5788C2.37202 22.0883 2.3805 20.599 2.3926 19.1085C2.39623 18.4622 2.36597 17.8172 2.3696 17.1709C2.37202 16.5453 2.39987 16.0011 2.54029 15.4253C2.68192 14.8434 2.91434 14.3235 3.29928 13.8522C3.68785 13.3748 4.18053 12.9836 4.64295 12.5791C6.5253 10.9306 8.4476 9.32958 10.3856 7.74795C10.5975 7.57423 10.8105 7.40295 11.0236 7.23046C11.0902 7.19766 11.1507 7.14907 11.1955 7.09076C11.8225 6.58298 12.4508 6.07642 13.0839 5.57472C13.2788 5.42045 13.4737 5.26617 13.6686 5.11311C13.7497 5.04995 13.8308 4.98556 13.9119 4.92239C13.9554 4.88838 14.0002 4.85315 14.0438 4.81914C14.0632 4.80456 14.0826 4.78877 14.1019 4.77419C14.108 4.76933 14.1394 4.74504 14.1576 4.73046C14.1806 4.71224 14.2351 4.67094 14.2472 4.66122C14.2823 4.63328 14.3186 4.60655 14.3537 4.57861C14.43 4.52031 14.5062 4.46078 14.5825 4.40247C14.7181 4.29922 14.8537 4.19596 14.9904 4.09392C15.3379 3.83518 15.6913 3.58372 16.0387 3.32497C16.4939 2.98605 16.9478 2.63863 17.4454 2.36531C17.7068 2.22196 17.8158 2.16973 18.0797 2.08591C18.2068 2.04461 18.3363 2.01181 18.467 1.98508C18.6426 1.94985 18.6256 1.9535 18.8072 1.94135C19.5069 1.89519 20.1339 2.05675 20.8082 2.25112C22.3419 2.69086 23.855 3.21686 25.3186 3.8534C25.8621 4.09028 26.3983 4.34052 26.9285 4.60655C26.7191 4.74868 26.5109 4.89202 26.3015 5.03415C26.2277 5.08517 26.1683 5.15077 26.1441 5.23945C26.1211 5.32205 26.132 5.43138 26.1792 5.50427C26.2737 5.65247 26.4891 5.73507 26.6477 5.62696C26.9709 5.40587 27.2953 5.18479 27.6185 4.9637C27.897 5.1119 28.1814 5.26496 28.4586 5.42774C28.0095 5.79946 27.5604 6.16996 27.1113 6.54168C26.9721 6.65587 26.9842 6.90976 27.1113 7.02759C27.259 7.16364 27.4479 7.15028 27.5955 7.02759C28.0846 6.62307 28.5748 6.21855 29.0639 5.81403C29.1704 5.88814 29.2733 5.96224 29.3714 6.03998C29.5142 6.15417 29.651 6.27565 29.7805 6.40563C29.4622 6.65709 29.1438 6.90854 28.8254 7.16C28.7613 7.21102 28.7249 7.32521 28.7249 7.40295C28.7249 7.48677 28.7625 7.5876 28.8254 7.64591C28.8908 7.70543 28.9767 7.75038 29.0675 7.74673C29.1644 7.74187 29.2346 7.70543 29.3096 7.64591C29.6074 7.41024 29.9052 7.17579 30.203 6.94013C30.2393 7.00208 30.2744 7.06525 30.3059 7.13085C30.3168 7.15271 30.3252 7.17458 30.3361 7.19523C30.3361 7.19523 30.3361 7.19644 30.3374 7.19766C30.3531 7.24017 30.37 7.28391 30.3846 7.32764C30.4185 7.42968 30.4463 7.53415 30.4693 7.63983C30.479 7.68356 30.4875 7.72851 30.4947 7.77346C30.4984 7.79532 30.502 7.8184 30.5056 7.84027C30.5056 7.84149 30.5056 7.8427 30.5056 7.84391C30.5177 7.95081 30.5274 8.05893 30.5347 8.16704C30.5891 9.05747 30.5795 9.9564 30.5819 10.848C30.5879 12.9083 30.5625 14.9697 30.5625 17.03V34.4218C30.5625 35.0572 30.5855 35.6986 30.5395 36.3327L30.5431 36.3302Z" fill="#222222"/>
<path d="M26.6162 19.2214C26.6162 19.2044 26.6162 19.1886 26.6162 19.1728C26.6162 19.1728 26.6162 19.1729 26.6162 19.1716C26.6126 19.219 26.615 19.2287 26.6162 19.2227V19.2214Z" fill="#222222"/>
<path d="M27.3789 18.4525C27.0847 17.5912 26.4431 16.9085 25.6188 16.5332C25.2096 16.3497 24.7992 16.1651 24.3901 15.9817C23.4217 15.5468 22.4545 15.1119 21.4861 14.677C20.3518 14.168 19.2176 13.6578 18.0833 13.1488C17.1742 12.7406 16.2651 12.3325 15.356 11.9243C14.7798 11.6656 14.1685 11.3303 13.5475 11.2125C13.0246 11.1141 12.4822 11.1384 11.9823 11.3327C11.3952 11.5611 10.9316 11.951 10.4498 12.3471C9.53948 13.0954 8.63886 13.8546 7.74913 14.626C7.34845 14.9734 6.93083 15.3135 6.55314 15.6865C6.17062 16.0643 5.88252 16.5089 5.68278 17.0081C5.33658 17.8755 5.37652 18.8412 5.39468 19.7572C5.41647 20.8529 5.38863 21.9498 5.38379 23.0455C5.38015 23.9821 5.38015 24.9187 5.38379 25.8553C5.39105 27.6459 5.41647 29.4352 5.44431 31.2246C5.45279 31.7409 5.43826 32.262 5.48426 32.777C5.523 33.2059 5.59926 33.625 5.79173 34.0125C5.94789 34.3283 6.20815 34.6065 6.52167 34.7668C6.87635 34.9478 7.26856 35.0098 7.66319 35.011C8.22123 35.0134 8.78049 35.011 9.33854 35.011H23.6444C24.2424 35.011 24.8404 35.0195 25.4384 35.0086C26.0219 34.9976 26.6707 34.9248 27.0617 34.4352C27.2893 34.1497 27.414 33.8072 27.4733 33.4488C27.5629 32.9046 27.5507 32.3555 27.5507 31.8064C27.5507 29.7559 27.5507 27.7054 27.5507 25.6549C27.5507 24.3101 27.5507 22.9641 27.5507 21.6194C27.5507 21.1602 27.5507 20.7022 27.5507 20.2431C27.5507 19.6405 27.5737 19.0307 27.3764 18.4513L27.3789 18.4525ZM25.7689 17.6823C25.7592 17.6738 25.7483 17.6665 25.7386 17.658C25.7519 17.6665 25.7677 17.6775 25.7689 17.6823ZM12.2038 12.2244C12.2244 12.2147 12.2644 12.2013 12.2038 12.2244V12.2244ZM6.34251 18.0954C6.34251 18.0954 6.34251 18.1014 6.34251 18.1039C6.34251 18.1002 6.34251 18.0978 6.34251 18.0954ZM6.56767 33.5205C6.56767 33.5205 6.56404 33.5132 6.56283 33.5096C6.53256 33.4452 6.55556 33.4828 6.56767 33.5205ZM26.6029 33.1512C26.6029 33.1512 26.6017 33.1597 26.6005 33.1633C26.6041 33.1342 26.6114 33.0941 26.6029 33.1512ZM26.632 32.788C26.6271 32.8912 26.6199 32.9945 26.609 33.0977C26.6065 33.1196 26.5969 33.1548 26.5981 33.1791C26.5908 33.2229 26.5835 33.2678 26.5751 33.3115C26.5593 33.3917 26.54 33.4707 26.5158 33.5484C26.5049 33.5837 26.4928 33.6189 26.4806 33.6529C26.4806 33.6553 26.4807 33.6553 26.4794 33.6578C26.4516 33.7149 26.4225 33.7695 26.3874 33.823C26.385 33.8254 26.3838 33.829 26.3814 33.8315C26.3644 33.8509 26.3475 33.8703 26.3293 33.8886C26.316 33.9019 26.3015 33.9141 26.287 33.9274C26.287 33.9274 26.2858 33.9274 26.2845 33.9299C26.2458 33.9554 26.2047 33.9772 26.1623 33.9979C26.1623 33.9979 26.1623 33.9979 26.1611 33.9979C26.1344 34.0076 26.1078 34.0161 26.0812 34.0234C26.0194 34.0416 25.9565 34.055 25.8936 34.0659C25.8887 34.0659 25.8827 34.0671 25.8778 34.0683C25.8584 34.0708 25.8391 34.0732 25.8197 34.0744C25.7495 34.0805 25.6805 34.0854 25.6103 34.0878C25.4566 34.0939 25.3028 34.0951 25.1491 34.0951C24.9457 34.0951 24.7436 34.0951 24.5402 34.0951H8.25997C8.06387 34.0951 7.86776 34.0951 7.67166 34.0951C7.59661 34.0951 7.52277 34.0926 7.44772 34.0878C7.40535 34.0854 7.36177 34.0769 7.3194 34.0756C7.47798 34.0817 7.31456 34.0732 7.27219 34.0647C7.19835 34.0489 7.12451 34.0295 7.05309 34.0052C7.0434 34.0015 7.03372 33.9979 7.02403 33.9942C6.99861 33.9821 6.97319 33.97 6.94777 33.9566C6.91751 33.9396 6.88846 33.9226 6.8594 33.9031C6.85214 33.8983 6.84125 33.8886 6.83156 33.8813C6.78435 33.8375 6.73835 33.7938 6.69477 33.7452C6.69356 33.7428 6.69235 33.7416 6.69114 33.7391C6.67177 33.7088 6.65241 33.6796 6.63425 33.6493C6.6173 33.6201 6.60156 33.5909 6.58704 33.5618C6.58099 33.5484 6.57493 33.5363 6.56888 33.5229C6.52288 33.3516 6.46114 33.1901 6.42967 33.0127C6.42604 32.9945 6.42362 32.9751 6.41999 32.9568C6.41999 32.9568 6.41999 32.9568 6.41999 32.9556C6.42362 32.9155 6.40788 32.8645 6.40425 32.8256C6.39336 32.7114 6.38609 32.5973 6.38125 32.4831C6.36067 31.9668 6.36309 31.4493 6.35583 30.933C6.34251 30.0244 6.3292 29.1145 6.3183 28.2059C6.29894 26.4299 6.29288 24.6539 6.30015 22.8779C6.30499 21.8053 6.33041 20.7302 6.30741 19.6575C6.29772 19.2081 6.28562 18.7586 6.32315 18.3104C6.32799 18.2569 6.33283 18.2035 6.33888 18.1512C6.34009 18.1403 6.3413 18.1269 6.3413 18.1148C6.3413 18.1124 6.34372 18.1039 6.34736 18.0832C6.36672 17.9678 6.38609 17.8536 6.41272 17.7406C6.43572 17.6422 6.46236 17.5451 6.49383 17.4491C6.51078 17.3981 6.52772 17.3483 6.54709 17.2985C6.55557 17.2766 6.56283 17.2523 6.57372 17.2304C6.57735 17.2244 6.58099 17.2171 6.5822 17.2134C6.6282 17.1126 6.68025 17.0154 6.73593 16.9195C6.76498 16.8709 6.79525 16.8223 6.82672 16.7749C6.84004 16.7555 6.85214 16.736 6.86546 16.7178C6.87272 16.7069 6.91025 16.6583 6.92235 16.6413C7.07367 16.4554 7.24314 16.2878 7.42229 16.1286C7.8145 15.7788 8.21034 15.4338 8.60739 15.09C9.49349 14.3247 10.3893 13.5716 11.2947 12.8305C11.3504 12.7844 11.4061 12.7394 11.4618 12.6945C11.4836 12.6763 11.5066 12.658 11.5284 12.6398C11.5417 12.6289 11.5502 12.6216 11.5562 12.6167C11.5623 12.6131 11.5683 12.6082 11.5768 12.6022C11.6894 12.5196 11.8032 12.4406 11.9242 12.3714C11.9799 12.3386 12.0368 12.3082 12.0949 12.2778C12.1288 12.2608 12.1627 12.245 12.1966 12.2292C12.1966 12.2292 12.1978 12.2292 12.199 12.2292C12.3164 12.1855 12.435 12.1442 12.5573 12.115C12.6118 12.1017 12.6675 12.092 12.7231 12.0822C12.7292 12.0822 12.7304 12.0798 12.7352 12.0786C12.7522 12.0786 12.7704 12.0786 12.7837 12.0774C12.8987 12.0689 13.0137 12.0689 13.1287 12.0774C13.1613 12.0798 13.194 12.0835 13.2267 12.0859C13.2364 12.0859 13.2449 12.0859 13.2521 12.0859C13.2921 12.092 13.3357 12.1053 13.3683 12.1126C13.4906 12.1381 13.6117 12.1721 13.7303 12.2134C13.7799 12.2304 13.8296 12.2487 13.8792 12.2669C13.9046 12.2766 13.9324 12.2851 13.9567 12.2973C13.9615 12.2997 13.9651 12.3021 13.9688 12.3033C13.976 12.307 13.9833 12.3094 13.9906 12.313C14.0051 12.3191 14.0184 12.3252 14.0329 12.3313C14.1007 12.3616 14.1673 12.392 14.2351 12.4224C14.919 12.7297 15.603 13.0371 16.2869 13.3432C17.3582 13.8242 18.4283 14.3053 19.4996 14.7863C20.5721 15.2686 21.6459 15.7496 22.7184 16.2319C23.4314 16.5514 24.1431 16.8721 24.8561 17.1916C24.9566 17.2365 25.0571 17.2815 25.1576 17.3276C25.3549 17.4175 25.5437 17.5232 25.7192 17.6495C25.7229 17.652 25.7289 17.6556 25.7362 17.6605C25.7483 17.6702 25.7592 17.6787 25.7701 17.6884C25.8052 17.7163 25.8391 17.7455 25.8718 17.7759C25.9492 17.8451 26.0219 17.9192 26.0909 17.997C26.0969 18.0042 26.1332 18.0383 26.1587 18.0686C26.1587 18.0698 26.1611 18.0783 26.1768 18.1002C26.1913 18.1209 26.2059 18.1403 26.2192 18.1609C26.2809 18.2508 26.3378 18.3456 26.3874 18.4428C26.408 18.4829 26.4274 18.5242 26.4468 18.5655C26.4516 18.5752 26.4552 18.5825 26.4589 18.5873C26.4637 18.6019 26.4673 18.6177 26.4698 18.6262C26.5085 18.7282 26.54 18.8339 26.5654 18.9396C26.5787 18.9918 26.5896 19.0441 26.5993 19.0963C26.6041 19.1218 26.609 19.1473 26.6126 19.1741C26.6126 19.1716 26.6126 19.1716 26.6126 19.1692C26.6126 19.1716 26.6126 19.1741 26.6126 19.1753C26.6162 19.1947 26.6138 19.2166 26.6126 19.2227C26.6138 19.3211 26.6356 19.4267 26.6368 19.5239C26.638 19.6199 26.6368 19.7159 26.6368 19.8118C26.6368 20.0001 26.6368 20.1896 26.6368 20.3779C26.6368 21.4408 26.6368 22.5025 26.6368 23.5655C26.6368 25.2394 26.6368 26.9134 26.6368 28.5873C26.6368 29.7061 26.6368 30.8249 26.6368 31.9437C26.6368 32.2255 26.6416 32.5086 26.6295 32.7916L26.632 32.788Z" fill="#222222"/>
<path d="M1.53556 2.27663C1.53314 2.28999 1.53072 2.30214 1.52708 2.3155C1.53072 2.307 1.53314 2.29364 1.53677 2.2742C1.53677 2.2742 1.53677 2.27541 1.53677 2.27663L1.53556 2.27663Z" fill="#222222"/>
<path d="M1.79219 4.36482C1.80308 4.36603 1.81398 4.36846 1.82608 4.37089C1.81761 4.36846 1.8055 4.36603 1.79098 4.3636C1.79098 4.3636 1.79098 4.3636 1.79219 4.3636V4.36482Z" fill="#222222"/>
<path d="M9.9668 2.01424C9.9668 2.01424 9.96559 2.01424 9.96438 2.01302C9.95953 2.01059 9.9559 2.00816 9.95106 2.00573C9.95469 2.01059 9.96559 2.01788 9.97406 2.02153C9.97164 2.0191 9.96922 2.01667 9.9668 2.01424Z" fill="#222222"/>
<path d="M9.91111 4.34295C9.91111 4.34295 9.91475 4.34052 9.91596 4.34052C9.92201 4.33688 9.93533 4.32594 9.94622 4.31987C9.94743 4.31865 9.94985 4.31622 9.95106 4.31501C9.92927 4.32108 9.91475 4.33688 9.91111 4.34417V4.34295Z" fill="#222222"/>
<path d="M9.82275 4.38061C9.83848 4.37453 9.85422 4.36967 9.86996 4.36482C9.86996 4.36482 9.87117 4.36482 9.87238 4.3636C9.83727 4.37089 9.82275 4.37696 9.82275 4.38061Z" fill="#222222"/>
<path d="M18.6886 5.82254C18.6752 5.83104 18.6607 5.83955 18.6462 5.84683C18.6522 5.84562 18.6656 5.83712 18.6898 5.82254C18.6898 5.82254 18.6898 5.82254 18.6886 5.82254Z" fill="#222222"/>
<path d="M26.8099 7.74795C26.4455 7.47948 26.0182 7.31063 25.6079 7.1272C24.5099 6.63765 23.4132 6.14567 22.3153 5.6549C21.2476 5.1775 20.1206 4.6187 18.9173 4.80942C18.4331 4.88717 17.9756 5.12405 17.5846 5.41438C17.0798 5.78974 16.6452 6.24163 16.2433 6.72511C16.2131 6.75427 16.1864 6.78585 16.1646 6.82594C16.1368 6.87939 16.1186 6.94134 16.1126 7.00451C16.0956 7.11019 16.1126 7.21952 16.1755 7.31063C16.2118 7.37015 16.2603 7.41996 16.3281 7.45154C17.6596 8.07594 18.9912 8.70033 20.3228 9.32472C21.7294 9.98434 23.136 10.644 24.5414 11.3036C25.3694 11.6923 26.1974 12.0798 27.0254 12.4685C27.1622 12.5329 27.2893 12.5511 27.4321 12.4916C27.5507 12.4418 27.6754 12.3313 27.696 12.1952C27.7868 11.6097 27.857 11.0181 27.8618 10.4253C27.8655 9.92603 27.8304 9.40246 27.6754 8.92506C27.5156 8.43186 27.2251 8.05285 26.8099 7.74673V7.74795ZM26.362 8.54726C26.3548 8.54241 26.3475 8.53755 26.3427 8.53269C26.3487 8.53633 26.356 8.54119 26.362 8.54726ZM19.1243 5.69985C19.1316 5.69985 19.1389 5.69863 19.1461 5.69742C19.1183 5.70106 19.0566 5.70592 19.1243 5.69985ZM23.1372 9.64056C21.7633 8.99673 20.3905 8.35169 19.0166 7.70786C18.444 7.4394 17.8715 7.17093 17.2989 6.90247C17.5083 6.67652 17.7286 6.46272 17.9659 6.26714C17.9853 6.25135 18.0034 6.23677 18.0228 6.22098C18.0228 6.22098 18.0228 6.22098 18.0252 6.21977C18.0264 6.21977 18.0276 6.21734 18.03 6.21612C18.0724 6.18576 18.1148 6.15417 18.1571 6.1238C18.2491 6.06063 18.3424 5.99989 18.4404 5.94523C18.5058 5.90879 18.5796 5.88085 18.6462 5.84562C18.6365 5.84926 18.651 5.8359 18.6716 5.8274C18.6777 5.82497 18.6825 5.82254 18.6886 5.82132C18.691 5.82011 18.6934 5.81889 18.6958 5.81768C18.6934 5.81889 18.6922 5.82011 18.691 5.82132C18.7091 5.81404 18.7261 5.80796 18.7442 5.80067C18.7963 5.78124 18.8483 5.76423 18.9016 5.74965C18.9391 5.73872 18.9779 5.729 19.0166 5.7205C19.042 5.71442 19.1328 5.71078 19.157 5.69499C19.1655 5.69499 19.1752 5.69256 19.1837 5.69256C19.2599 5.68648 19.3362 5.68406 19.4124 5.68406C19.5371 5.68406 19.6606 5.69377 19.7841 5.70714C19.7901 5.70714 19.7974 5.70957 19.8059 5.71078C19.8325 5.71564 19.8603 5.7205 19.8882 5.72536C19.9632 5.73872 20.0383 5.75573 20.1121 5.77395C20.3639 5.8359 20.6109 5.91851 20.853 6.01204C20.9183 6.03755 20.9849 6.06428 21.0503 6.091C21.0672 6.09829 21.0854 6.10558 21.1023 6.11287C21.112 6.11651 21.1302 6.12502 21.1362 6.12745C21.2657 6.18332 21.3941 6.24042 21.5224 6.29751C22.5707 6.76641 23.6202 7.23532 24.6685 7.70422C25.0958 7.89494 25.5364 8.07108 25.9504 8.29095C26.04 8.33832 26.1284 8.38935 26.2131 8.44401C26.2603 8.47438 26.3051 8.50596 26.3499 8.53876C26.3632 8.54848 26.3693 8.55334 26.3741 8.55577C26.3874 8.56792 26.3995 8.58128 26.4117 8.591C26.4601 8.63351 26.5521 8.70154 26.5956 8.76592C26.5981 8.77443 26.6041 8.78779 26.6126 8.80115C26.6283 8.82423 26.6429 8.8461 26.6574 8.87039C26.684 8.91291 26.7082 8.95786 26.73 9.0028C26.7385 9.01981 26.7458 9.0356 26.753 9.05261C26.753 9.05261 26.753 9.05261 26.753 9.05504C26.7712 9.10849 26.7918 9.16072 26.8075 9.21539C26.8414 9.32472 26.8668 9.43648 26.8874 9.54945C26.8922 9.57739 26.8971 9.60533 26.9019 9.63448C26.9031 9.6442 26.9128 9.71223 26.914 9.71709C26.9152 9.72924 26.9164 9.74017 26.9164 9.74138C26.9201 9.77783 26.9237 9.81427 26.9273 9.85071C26.9382 9.97705 26.9443 10.1034 26.9467 10.2309C26.9527 10.5237 26.9394 10.8177 26.9164 11.1092C26.908 11.2064 26.8971 11.3036 26.8874 11.4008C25.6381 10.8152 24.3877 10.2285 23.1384 9.64299L23.1372 9.64056Z" fill="#222222"/>
<path d="M19.9414 22.6775C19.5311 21.9 19.0408 21.1724 18.5046 20.4775C17.984 19.8033 17.4175 19.1631 16.7977 18.5788C16.6149 18.4063 16.3353 18.4027 16.1525 18.5788C15.6756 19.0368 15.2434 19.5421 14.8306 20.0584C14.3452 20.6646 13.8816 21.2902 13.464 21.945C13.073 22.556 12.7292 23.1962 12.5125 23.8922C12.2426 24.7596 12.1675 25.6864 12.3346 26.5805C12.642 28.2229 13.9579 29.564 15.5824 29.9248C17.219 30.288 18.9077 29.5858 19.8991 28.2508C20.9486 26.838 20.8784 24.8677 20.2295 23.3031C20.1412 23.0905 20.0468 22.8815 19.9402 22.6762L19.9414 22.6775ZM17.7032 28.8631C17.7165 28.857 17.7407 28.8461 17.7407 28.8473C17.7407 28.8473 17.725 28.8546 17.7032 28.8631ZM19.7889 25.8577C19.7841 25.9513 19.7768 26.0448 19.7671 26.1383C19.7659 26.1541 19.7635 26.1711 19.7611 26.1881C19.7611 26.193 19.7599 26.1966 19.7587 26.2027C19.7502 26.2513 19.7429 26.3011 19.7332 26.3497C19.6957 26.5453 19.6449 26.7384 19.5783 26.9267C19.5638 26.968 19.5492 27.0093 19.5323 27.0494C19.5299 27.0555 19.5226 27.0737 19.5178 27.0871C19.5166 27.0907 19.5141 27.0944 19.5141 27.0956C19.4718 27.1903 19.427 27.2839 19.3761 27.375C19.3023 27.5098 19.2212 27.6556 19.1219 27.7771C19.1219 27.7771 19.1171 27.7831 19.0989 27.8038C19.0844 27.8208 19.0711 27.839 19.0566 27.856C19.0311 27.8864 19.0057 27.9168 18.9791 27.9459C18.9149 28.0176 18.8483 28.0868 18.7806 28.1536C18.7237 28.2083 18.6656 28.2618 18.605 28.314C18.5711 28.3431 18.536 28.3723 18.5009 28.4002C18.4997 28.4002 18.4985 28.4027 18.4961 28.4039C18.4791 28.4172 18.461 28.4294 18.444 28.4415C18.3024 28.5448 18.1535 28.6371 17.9986 28.7197C17.9235 28.7598 17.8473 28.7975 17.771 28.8327C17.7504 28.8424 17.7298 28.8509 17.7093 28.8606C17.7056 28.8618 17.7032 28.8631 17.7008 28.8643C17.6572 28.8813 17.5906 28.9044 17.5822 28.908C17.4175 28.9675 17.2493 29.0149 17.0774 29.0501C17.0386 29.0586 16.9999 29.0659 16.9612 29.072C16.9333 29.0769 16.7917 29.1109 16.9152 29.0805C16.8304 29.1012 16.7324 29.0999 16.6452 29.1048C16.4709 29.1133 16.2954 29.1084 16.1211 29.0914C16.1029 29.089 16.0835 29.0878 16.0654 29.0854C16.0291 29.0793 15.994 29.0744 15.9576 29.0671C15.8632 29.0501 15.77 29.0295 15.6768 29.004C15.5945 28.9821 15.5134 28.9578 15.4335 28.9311C15.396 28.9189 15.3584 28.9056 15.3221 28.891C15.3015 28.8837 15.2798 28.8752 15.2592 28.8667C15.2434 28.8606 15.2338 28.857 15.2277 28.8546C15.0764 28.7938 14.9299 28.7112 14.7919 28.6286C14.7193 28.5849 14.6479 28.5387 14.5777 28.4913C14.5401 28.4658 14.5038 28.4391 14.4675 28.4124C14.4614 28.4087 14.4566 28.4051 14.4518 28.4027C14.4433 28.3942 14.4336 28.3857 14.4263 28.3796C14.2859 28.2654 14.154 28.1415 14.0305 28.0091C13.9724 27.9471 13.9167 27.8827 13.8634 27.8171C13.855 27.8062 13.8489 27.7989 13.8453 27.7941C13.8441 27.7916 13.8441 27.7916 13.8417 27.7892C13.8114 27.7479 13.7823 27.7066 13.7533 27.6653C13.654 27.5195 13.5645 27.3652 13.4882 27.2061C13.47 27.1697 13.4543 27.1332 13.4373 27.0956C13.4337 27.0859 13.4047 27.0142 13.3986 26.9972C13.3635 26.9012 13.3308 26.8052 13.303 26.7068C13.2763 26.6145 13.2533 26.5222 13.234 26.4287C13.2243 26.3849 13.2158 26.3412 13.2086 26.2975C13.2037 26.272 13.2001 26.2477 13.1952 26.2222C13.1952 26.2222 13.1892 26.1796 13.1868 26.1602C13.1868 26.1493 13.1843 26.1395 13.1843 26.1359C13.1819 26.1104 13.1795 26.0849 13.1771 26.0594C13.1735 26.0144 13.1698 25.9707 13.1662 25.9258C13.1601 25.8237 13.1565 25.7205 13.1565 25.6184C13.1565 25.4228 13.171 25.2285 13.1916 25.0353C13.1928 25.022 13.2001 24.9709 13.2025 24.9503C13.211 24.8993 13.2195 24.8482 13.2291 24.7972C13.2485 24.6952 13.2703 24.5931 13.2945 24.4923C13.3417 24.2967 13.3998 24.1036 13.4676 23.9141C13.4991 23.8242 13.5342 23.7355 13.5705 23.6468C13.5778 23.6298 13.5947 23.5898 13.602 23.574C13.6177 23.5375 13.6347 23.5023 13.6516 23.4671C13.7763 23.2047 13.9191 22.9508 14.0704 22.7018C14.2472 22.409 14.436 22.1223 14.6309 21.8417C14.7326 21.6959 14.8355 21.5514 14.9408 21.408C14.9953 21.3339 15.051 21.2586 15.1054 21.1857C15.1296 21.1529 15.1539 21.1213 15.1781 21.0885C15.1926 21.0691 15.2919 20.9379 15.2229 21.0302C15.6126 20.514 16.0339 20.0159 16.4806 19.5482C16.9612 20.0293 17.4115 20.5419 17.8267 21.0813C17.8436 21.1043 17.8848 21.1578 17.8908 21.1651C17.9247 21.2088 17.9574 21.2537 17.9901 21.2987C18.047 21.3764 18.1039 21.4554 18.1608 21.5344C18.2879 21.7129 18.4114 21.8951 18.5312 22.0786C18.7551 22.4236 18.9646 22.7771 19.1558 23.1403C19.1994 23.2241 19.2418 23.3091 19.2829 23.3954C19.3047 23.4415 19.3253 23.4877 19.3459 23.5339C19.3531 23.5509 19.3604 23.5691 19.3689 23.5861C19.3253 23.4889 19.3761 23.6055 19.3822 23.6177C19.456 23.8011 19.5214 23.9882 19.5783 24.1789C19.634 24.3684 19.6812 24.5616 19.7187 24.7547C19.7284 24.8045 19.7369 24.8543 19.7453 24.9053C19.749 24.9309 19.7526 24.9552 19.7574 24.9807C19.7574 24.9819 19.7574 24.9843 19.7574 24.9879C19.7587 25.0025 19.7623 25.022 19.7623 25.0293C19.7647 25.0548 19.7683 25.0791 19.7708 25.1046C19.7768 25.1617 19.7817 25.2175 19.7853 25.2746C19.7986 25.469 19.801 25.6646 19.7913 25.8589L19.7889 25.8577Z" fill="#222222"/>
<path d="M15.54 27.3009C15.4734 27.2693 15.4081 27.2341 15.3463 27.1928C15.3318 27.183 15.3185 27.1733 15.3052 27.1636C15.2834 27.1381 15.2495 27.1174 15.2253 27.0944C15.1708 27.0433 15.1284 26.9814 15.0752 26.9304C15.0776 26.9328 15.08 26.934 15.0812 26.9364C15.0788 26.934 15.0764 26.9304 15.0752 26.9279C15.0667 26.9158 15.0582 26.9036 15.0498 26.8915C15.0268 26.8575 15.0062 26.8223 14.9856 26.787C14.9674 26.7542 14.9505 26.7214 14.9348 26.6874C14.9311 26.6801 14.9287 26.6753 14.9275 26.6716C14.9226 26.6595 14.919 26.6485 14.9178 26.6473C14.8924 26.5781 14.8718 26.5064 14.8561 26.4335C14.8524 26.4153 14.8488 26.3971 14.8452 26.3789C14.8428 26.3655 14.827 26.3023 14.8415 26.3582C14.8549 26.4141 14.8415 26.3521 14.8415 26.3376C14.8403 26.3193 14.8391 26.3011 14.8379 26.2817C14.8343 26.2039 14.8379 26.1262 14.8464 26.0484C14.867 25.8699 14.6745 25.6974 14.5038 25.7047C14.3004 25.7144 14.1842 25.8565 14.1612 26.0484C14.0753 26.7882 14.5208 27.5791 15.1938 27.89C15.356 27.9653 15.5703 27.9411 15.6623 27.7673C15.7422 27.6155 15.7131 27.3774 15.54 27.2972V27.3009ZM14.9287 26.6765C14.9335 26.6862 14.9396 26.702 14.9384 26.702C14.9384 26.702 14.9335 26.6898 14.9287 26.6765ZM15.304 27.1648C15.304 27.1648 15.2955 27.1587 15.2919 27.1563C15.258 27.132 15.2906 27.1515 15.304 27.1648Z" fill="#222222"/>
<path d="M15.0812 26.9389C15.0982 26.9595 15.1236 26.9802 15.0812 26.9389V26.9389Z" fill="#222222"/>
<path d="M29.4658 35.3062C29.3774 35.3098 29.2854 35.339 29.2237 35.407C29.1607 35.4763 29.1365 35.5504 29.1244 35.6415C29.1268 35.6232 29.1293 35.6062 29.1317 35.588C29.1196 35.6706 29.0966 35.7508 29.0675 35.8285C29.0361 35.8966 28.9973 35.961 28.9537 36.0229C28.9029 36.0836 28.8472 36.1407 28.7867 36.1918C28.7237 36.2367 28.6572 36.2768 28.5857 36.3096C28.5119 36.3363 28.4368 36.3582 28.3582 36.3703C28.2795 36.3825 28.1923 36.4627 28.1536 36.5283C28.1112 36.6024 28.0918 36.7105 28.1185 36.7931C28.1451 36.8757 28.1972 36.9559 28.2758 36.9984C28.363 37.0445 28.4429 37.0482 28.5397 37.0336C28.8545 36.9862 29.1571 36.8113 29.375 36.5817C29.4839 36.4675 29.582 36.3351 29.651 36.1918C29.7357 36.0144 29.7817 35.8456 29.8047 35.6512C29.8144 35.5698 29.7599 35.4641 29.7043 35.4082C29.6449 35.3487 29.5469 35.3038 29.4622 35.3074L29.4658 35.3062Z" fill="#222222"/>
<path d="M7.79029 17.03C7.35087 17.4564 7.09909 18.0686 7.1124 18.6821C7.11603 18.8619 7.26735 19.0344 7.45498 19.0259C7.63656 19.0174 7.80119 18.8752 7.79756 18.6821C7.79635 18.6213 7.79756 18.5606 7.80119 18.4999C7.80119 18.4853 7.80361 18.4695 7.80482 18.4549C7.80482 18.4525 7.80603 18.4403 7.80724 18.4294C7.80724 18.427 7.80724 18.4246 7.80724 18.4233C7.80966 18.4088 7.81208 18.393 7.81571 18.3784C7.82661 18.3189 7.84113 18.2593 7.85808 18.2022C7.87503 18.1439 7.9065 18.0844 7.91982 18.0249C7.92345 18.0164 7.92829 18.0067 7.93192 17.9982C7.94524 17.9702 7.95855 17.9435 7.97308 17.9168C8.00092 17.8633 8.0324 17.8111 8.06629 17.7601C8.08324 17.7358 8.10018 17.7115 8.11713 17.6872C8.12561 17.6775 8.13287 17.6677 8.14134 17.658C8.1825 17.6082 8.22729 17.5621 8.27329 17.5171C8.40281 17.392 8.40765 17.1551 8.27329 17.0312C8.13529 16.9037 7.92708 16.8976 7.78908 17.0312L7.79029 17.03ZM7.91376 18.0383C7.91376 18.0383 7.91861 18.0285 7.91982 18.0249C7.91376 18.0443 7.89561 18.0771 7.91376 18.0383Z" fill="#222222"/>
<path d="M25.6817 31.6595C25.511 31.6206 25.2992 31.7117 25.2605 31.9C25.2411 31.9935 25.212 32.0858 25.1769 32.1745C25.1321 32.2717 25.0777 32.3652 25.0147 32.4527C24.9469 32.5365 24.8731 32.6143 24.7896 32.6835C24.7254 32.737 24.6891 32.8463 24.6891 32.9265C24.6891 33.0103 24.7266 33.1111 24.7896 33.1694C24.8549 33.2289 24.9409 33.2739 25.0317 33.2702C25.1273 33.2654 25.2011 33.2314 25.2738 33.1694C25.5982 32.8973 25.8342 32.4989 25.9202 32.0834C25.9396 31.9923 25.9335 31.9 25.8851 31.8186C25.8439 31.7469 25.7616 31.6789 25.6805 31.6607L25.6817 31.6595Z" fill="#222222"/>
<path d="M20.462 11.2222C20.7113 11.34 20.9595 11.4566 21.2089 11.5745C21.2936 11.6146 21.3795 11.6352 21.4727 11.6097C21.5526 11.5878 21.6386 11.5259 21.6773 11.4518C21.7197 11.3716 21.7403 11.2756 21.7124 11.187C21.6858 11.1056 21.635 11.0193 21.5551 10.9817C21.3057 10.8638 21.0575 10.7472 20.8082 10.6294C20.7234 10.5893 20.6375 10.5686 20.5443 10.5942C20.4644 10.616 20.3784 10.678 20.3397 10.7521C20.2973 10.8322 20.2768 10.9282 20.3046 11.0169C20.3312 11.0971 20.3821 11.1845 20.462 11.2222Z" fill="#222222"/>
<path d="M1.82608 4.37089C1.87934 4.38425 1.93503 4.40612 1.98708 4.41827C1.99798 4.41948 2.00766 4.4207 2.01855 4.4207C2.0585 4.42434 2.09724 4.42555 2.13718 4.42555L2.14203 4.41948C2.27881 4.42191 2.41439 4.42191 2.55118 4.42191C2.83202 4.42434 3.11165 4.42434 3.39249 4.42434C3.41428 4.42434 3.43486 4.42434 3.45665 4.42434C3.46754 4.42312 3.47843 4.41948 3.48933 4.41948C3.51475 4.41827 3.53896 4.42069 3.56317 4.42434C4.07401 4.42555 4.58606 4.42434 5.09689 4.42312C6.23357 4.42069 7.37024 4.41584 8.50692 4.41827C8.79502 4.41827 9.08312 4.41948 9.37123 4.4207C9.46444 4.42191 9.55886 4.42312 9.65328 4.41584C9.66296 4.41584 9.67385 4.41341 9.68354 4.41341C9.7138 4.40733 9.74406 4.40247 9.77433 4.39518C9.79127 4.39033 9.80943 4.38304 9.82638 4.37696C9.82638 4.38061 9.84212 4.37939 9.8639 4.36724C9.86754 4.36603 9.86996 4.3636 9.87359 4.36239C9.88085 4.35996 9.8869 4.35753 9.89296 4.35753C9.88569 4.35874 9.88085 4.36117 9.87601 4.36117C9.88933 4.35388 9.90264 4.34659 9.91475 4.33931C9.91232 4.34659 9.91717 4.34781 9.93411 4.3308C9.93533 4.32959 9.94138 4.32351 9.94985 4.31501C9.95469 4.31137 9.96075 4.30772 9.96317 4.30772C9.95954 4.30894 9.95711 4.31015 9.95469 4.31015C9.97285 4.29193 9.99827 4.26642 10.0152 4.24941C10.0189 4.24334 10.0237 4.23605 10.0297 4.22633C10.0406 4.20811 10.0515 4.18867 10.0624 4.17045C10.0733 4.15102 10.0818 4.13036 10.0927 4.11093C10.0939 4.10971 10.0939 4.1085 10.0939 4.1085C10.0939 4.10607 10.0939 4.10607 10.0939 4.10364C10.1109 4.04047 10.1338 3.97852 10.1496 3.91535C10.1677 3.83882 10.1835 3.76108 10.1956 3.68333C10.198 3.66754 10.2004 3.65053 10.2028 3.63474C10.2077 3.5983 10.2113 3.56185 10.215 3.52541C10.2319 3.33105 10.2392 3.13547 10.2319 2.94111C10.2271 2.83785 10.2089 2.73338 10.2077 2.63013C10.2101 2.76375 10.2065 2.62527 10.1992 2.58639C10.1907 2.54266 10.1823 2.49893 10.1726 2.4552C10.1617 2.40904 10.1496 2.36288 10.1363 2.31672C10.1266 2.28635 10.0963 2.22925 10.0927 2.19402C10.0903 2.18795 10.0866 2.18188 10.0842 2.1758C10.0661 2.13814 10.0455 2.10292 10.0225 2.06769C10.0176 2.06161 10.014 2.05675 10.0116 2.0519C10.008 2.04947 10.0055 2.04704 10.0007 2.04339C9.99827 2.04096 9.98617 2.02882 9.97527 2.01788C9.9898 2.02517 9.99827 2.02639 9.96801 2.01059C9.95953 2.00209 9.95106 1.99602 9.95106 1.99602C9.94864 1.99845 9.94985 1.99966 9.95106 2.00209C9.93654 1.99359 9.92322 1.9863 9.90869 1.97779C9.88932 1.97415 9.87117 1.96686 9.8518 1.962C9.83606 1.95836 9.82154 1.95593 9.8058 1.95228C9.67749 1.95593 9.54433 1.94014 9.41601 1.93771C9.27923 1.93528 9.14244 1.93285 9.00565 1.93042C8.91849 1.92799 8.83133 1.92677 8.74418 1.92677V2.99699C8.74418 3.19013 8.58681 3.33226 8.4016 3.34077C8.21639 3.34927 8.05903 3.17677 8.05903 2.99699V1.91827C8.05539 1.91827 8.05055 1.91827 8.04571 1.91827C7.39566 1.9122 6.74562 1.90977 6.09557 1.90977C6.11494 2.23533 6.13552 2.55967 6.15488 2.88523C6.16578 3.07716 5.98904 3.2205 5.81231 3.22901C5.61984 3.23751 5.48063 3.0638 5.46973 2.88523C5.45036 2.55967 5.42979 2.23533 5.41042 1.90977C4.76885 1.90977 4.12727 1.91098 3.4857 1.91706C3.49054 2.24018 3.49659 2.5621 3.50144 2.88523C3.50386 3.07838 3.34165 3.2205 3.15886 3.22901C2.97123 3.23751 2.8187 3.06501 2.81628 2.88523C2.81023 2.56574 2.80539 2.24626 2.80055 1.92677C2.57539 1.93042 2.34902 1.93406 2.12266 1.94014C2.08029 1.94135 2.03671 1.94257 1.99434 1.94378C1.97376 1.945 1.9544 1.94621 1.93382 1.94621C1.90598 1.95957 1.84545 1.97172 1.81277 1.97901C1.79703 1.98873 1.78129 1.99602 1.76556 2.00573C1.74982 2.01424 1.73529 2.02517 1.71956 2.03489C1.68566 2.0689 1.65056 2.1017 1.61787 2.13693C1.61545 2.13936 1.61424 2.14057 1.61303 2.14179C1.61061 2.14543 1.60819 2.14908 1.60577 2.15394C1.59366 2.17459 1.58035 2.19402 1.56824 2.21467C1.55614 2.23411 1.54645 2.25476 1.53677 2.2742M1.82608 4.37089C1.85756 4.38182 1.84061 4.39154 1.8055 4.37089C1.80066 4.36846 1.79703 4.36603 1.79219 4.3636M1.82608 4.37089C1.81398 4.36846 1.80308 4.36603 1.79219 4.36482V4.3636M1.82608 4.37089C1.81761 4.36846 1.8055 4.36603 1.79098 4.3636C1.79098 4.3636 1.79098 4.3636 1.79219 4.3636M1.79219 4.3636C1.78735 4.3636 1.7825 4.36117 1.77766 4.36117C1.7825 4.36117 1.78613 4.36239 1.78977 4.3636C1.77524 4.35631 1.76192 4.34902 1.74861 4.34052C1.73529 4.33202 1.72198 4.32351 1.70987 4.31501C1.68324 4.28828 1.65661 4.25549 1.62756 4.23119C1.61787 4.21418 1.60577 4.19839 1.59608 4.18139C1.58519 4.16195 1.57429 4.14251 1.56461 4.12308C1.56461 4.12065 1.54887 4.08785 1.54161 4.07084C1.53798 4.06112 1.53556 4.05262 1.53435 4.04898C1.52708 4.02833 1.52103 4.00646 1.51498 3.98581C1.4944 3.91292 1.47745 3.84004 1.46293 3.76593C1.45566 3.72949 1.44961 3.69305 1.44356 3.65539C1.44114 3.64324 1.42419 3.54849 1.43993 3.62988C1.45566 3.70884 1.43751 3.60316 1.43508 3.58615C1.41451 3.39057 1.40603 3.19256 1.41209 2.99577C1.41451 2.89373 1.42177 2.7929 1.43266 2.69208C1.43266 2.68479 1.43387 2.67993 1.43387 2.67507C1.4363 2.65928 1.43872 2.64349 1.43872 2.64592C1.44719 2.59733 1.45687 2.54874 1.46777 2.50015C1.48108 2.44062 1.51135 2.37745 1.52829 2.3155C1.51861 2.3398 1.51256 2.324 1.52829 2.29121C1.53072 2.28635 1.53314 2.28149 1.53677 2.27663M1.53677 2.27663C1.53677 2.27177 1.53919 2.26812 1.53919 2.26327C1.53919 2.26812 1.53798 2.27055 1.53677 2.2742M1.53677 2.27663C1.53677 2.27541 1.53677 2.2742 1.53677 2.2742M1.53677 2.27663L1.53556 2.27663C1.53314 2.28999 1.53072 2.30214 1.52708 2.3155C1.53072 2.307 1.53314 2.29363 1.53677 2.2742M7.91982 18.0249C7.9065 18.0844 7.87503 18.1439 7.85808 18.2022C7.84113 18.2593 7.82661 18.3189 7.81571 18.3784C7.81208 18.393 7.80966 18.4088 7.80724 18.4233C7.80724 18.4246 7.80724 18.427 7.80724 18.4294C7.80603 18.4403 7.80482 18.4525 7.80482 18.4549C7.80361 18.4695 7.80119 18.4853 7.80119 18.4999C7.79756 18.5606 7.79635 18.6213 7.79756 18.6821C7.80119 18.8752 7.63656 19.0174 7.45498 19.0259C7.26735 19.0344 7.11604 18.8619 7.1124 18.6821C7.09909 18.0686 7.35087 17.4564 7.79029 17.03L7.78908 17.0312C7.92708 16.8976 8.13529 16.9037 8.27329 17.0312C8.40765 17.1551 8.40281 17.392 8.27329 17.5171C8.22729 17.5621 8.1825 17.6082 8.14134 17.658C8.13287 17.6677 8.12561 17.6775 8.11713 17.6872C8.10018 17.7115 8.08324 17.7358 8.06629 17.7601C8.0324 17.8111 8.00092 17.8633 7.97308 17.9168C7.95855 17.9435 7.94524 17.9702 7.93192 17.9982C7.92829 18.0067 7.92345 18.0164 7.91982 18.0249ZM7.91982 18.0249C7.91861 18.0285 7.91376 18.0383 7.91376 18.0383C7.89561 18.0771 7.91376 18.0443 7.91982 18.0249ZM30.3325 37.375C30.3252 37.3883 30.3204 37.3992 30.318 37.4053C30.3228 37.3956 30.3277 37.3859 30.3313 37.375H30.3325ZM31.4789 23.1415V18.2071C31.4789 16.7603 31.4849 15.3135 31.4922 13.8667C31.4982 12.6775 31.5043 11.487 31.4958 10.2977C31.4922 9.858 31.4837 9.41947 31.474 8.97972C31.4643 8.5169 31.4607 8.05528 31.3881 7.5961C31.2138 6.47973 30.4596 5.67312 29.5626 5.04995C28.9077 4.59562 28.1923 4.22026 27.483 3.86069C26.747 3.48775 25.9952 3.1464 25.235 2.82813C23.7195 2.19402 22.1531 1.64738 20.5637 1.2295C19.8737 1.0485 19.1607 0.963463 18.4513 1.06307C17.8969 1.14082 17.3715 1.34854 16.8873 1.62794C16.3813 1.91949 15.9177 2.28027 15.4504 2.6277C15.12 2.87308 14.7847 3.10996 14.4554 3.35656C13.7388 3.89349 13.0355 4.44742 12.3346 5.005C11.7995 5.43017 11.2657 5.85777 10.7331 6.2878C10.1944 6.08128 9.65691 5.87599 9.11823 5.66948C9.11823 5.63911 9.11823 5.60752 9.11823 5.57716C9.11823 5.49941 9.11823 5.42288 9.11702 5.34513C9.28286 5.34756 9.4487 5.34999 9.61333 5.34149C10.1012 5.31476 10.5321 5.12648 10.8069 4.70738C11.0357 4.35874 11.0938 3.90928 11.1301 3.50354C11.1676 3.06866 11.1507 2.61676 11.0466 2.19159C11.0018 2.00938 10.934 1.82716 10.8396 1.66438C10.8311 1.64738 10.8226 1.63037 10.8105 1.61458C10.8008 1.59879 10.7887 1.58299 10.7766 1.56842C10.6047 1.33518 10.382 1.15783 10.0939 1.08615C9.90506 1.03878 9.70775 1.03635 9.51407 1.03149C9.21628 1.0242 8.91849 1.01934 8.61949 1.0157C7.86655 1.00598 7.11361 1.00234 6.36067 1.00112C4.98674 0.998691 3.61159 0.997476 2.23645 1.02785C1.90961 1.03513 1.59487 1.04485 1.30314 1.21978C0.868564 1.48095 0.628882 1.94743 0.552619 2.43698C0.477567 2.91924 0.486041 3.39543 0.557461 3.87648C0.626461 4.34659 0.809248 4.78877 1.20024 5.07788C1.58035 5.3585 2.05124 5.34635 2.50034 5.34878C2.67707 5.34878 2.85381 5.34878 3.02933 5.34878C3.03418 6.19061 3.03418 7.03123 3.03175 7.87307C3.02812 9.03317 3.02328 10.1921 3.01844 11.3522C3.01602 11.8429 3.01481 12.3325 3.01239 12.8233C2.78118 13.0541 2.5645 13.297 2.37323 13.5703C2.00161 14.1024 1.75103 14.7219 1.61787 15.3573C1.36003 16.5927 1.48472 17.8597 1.47624 19.1109C1.45324 21.9352 1.44114 24.7584 1.4593 27.5827C1.47624 30.1884 1.51619 32.7941 1.55856 35.3985C1.5755 36.4359 1.67961 37.7163 2.54513 38.4269C3.13707 38.9128 3.87064 38.9991 4.61027 38.9991H28.1911C28.8884 38.9991 29.6365 39.0307 30.2817 38.7209C31.1823 38.2885 31.3953 37.2122 31.4571 36.3084C31.5019 35.667 31.4777 35.0159 31.4777 34.3733V23.1464L31.4789 23.1415ZM9.91596 6.94984C9.64964 7.16607 9.38454 7.38352 9.11944 7.60096C9.11944 7.28269 9.11944 6.96321 9.11944 6.64494C9.38454 6.74698 9.64964 6.8478 9.91596 6.94984ZM10.0128 4.25184C10.0201 4.24212 10.0261 4.23241 10.0285 4.23362C10.0285 4.23362 10.0225 4.24212 10.0128 4.25184ZM10.0116 4.25427C9.99101 4.28586 10.0007 4.27128 10.0116 4.25427ZM10.1109 2.23533C10.1181 2.25112 10.1217 2.25841 10.1109 2.23533ZM4.31974 5.34513C5.52421 5.34392 6.72988 5.33785 7.93434 5.33785C8.02392 5.33785 8.1135 5.33785 8.20308 5.33785C8.20792 6.18332 8.20792 7.0288 8.20671 7.87307C8.20671 8.03342 8.20671 8.19377 8.2055 8.35412C7.65713 8.80844 7.10998 9.26519 6.56525 9.72316C5.68036 10.469 4.80032 11.221 3.92996 11.9838C3.93238 11.2781 3.93601 10.5711 3.93843 9.86529C3.94327 8.7149 3.94812 7.56452 3.94812 6.41292C3.94812 6.05577 3.94812 5.69985 3.94448 5.34271C4.06917 5.34271 4.19506 5.34271 4.31974 5.34271V5.34513ZM2.74244 37.1697C2.71339 37.0943 2.73397 37.1514 2.74244 37.1697ZM30.5431 36.3302C30.5214 36.6242 30.508 36.7627 30.4318 37.0628C30.4051 37.1684 30.3688 37.2705 30.3337 37.375C30.3361 37.3701 30.3386 37.3652 30.341 37.3592C30.3386 37.3652 30.3361 37.3701 30.3337 37.3762C30.3277 37.3932 30.3107 37.4272 30.3204 37.4065C30.318 37.4102 30.3168 37.4138 30.3156 37.4187C30.2914 37.4636 30.2696 37.5098 30.2429 37.5547C30.2236 37.5875 30.1994 37.6191 30.18 37.6519C30.1727 37.6616 30.1655 37.6701 30.157 37.6799C30.1291 37.709 30.1025 37.7394 30.0735 37.7661C30.0432 37.794 29.9294 37.8694 30.0456 37.794C29.9875 37.8317 29.9318 37.8706 29.8701 37.9022C29.8556 37.9094 29.8398 37.9167 29.8241 37.924C29.7902 37.9362 29.7563 37.9495 29.7224 37.9605C29.6474 37.9835 29.5711 38.003 29.4936 38.0188C29.4537 38.0273 29.4113 38.0309 29.3714 38.0394C29.3496 38.0419 29.3278 38.0443 29.306 38.0467C29.1147 38.0662 28.9223 38.0722 28.7298 38.0759C28.5192 38.0795 28.3085 38.0783 28.0979 38.0783H5.74452C6.00599 37.8086 6.26625 37.5377 6.52772 37.268C6.65241 37.1393 6.66572 36.9097 6.52772 36.7821C6.39336 36.6582 6.17667 36.6437 6.04352 36.7821C5.63315 37.2073 5.22279 37.6325 4.81242 38.0576C4.80637 38.0637 4.80153 38.071 4.79669 38.0783H4.64053C4.44927 38.0783 4.2568 38.0807 4.06554 38.0649C4.03769 38.0625 4.01106 38.0589 3.98322 38.0576C3.97838 38.0576 3.97475 38.0576 3.97112 38.0576C3.96991 38.0576 3.96869 38.0576 3.96627 38.0576C3.90938 38.0479 3.85248 38.0382 3.7968 38.0261C3.69996 38.0054 3.60796 37.9726 3.51354 37.9435C4.16359 37.2753 4.81484 36.606 5.46489 35.9379C5.59442 35.8055 5.59684 35.5844 5.46489 35.452C5.33537 35.322 5.11021 35.3183 4.98068 35.452C4.30522 36.1456 3.63096 36.8392 2.95549 37.5341C2.93855 37.511 2.91312 37.4782 2.90586 37.4673C2.87439 37.4187 2.84534 37.3689 2.81749 37.3179C2.79207 37.2705 2.77028 37.2207 2.74607 37.1721C2.7376 37.1502 2.72913 37.1284 2.72186 37.1077C2.67828 36.9874 2.64197 36.8647 2.61171 36.7396C2.60202 36.6995 2.59355 36.6619 2.58507 36.6267C2.91554 36.3096 3.24602 35.9913 3.5777 35.6743C3.70722 35.5504 3.71207 35.3123 3.5777 35.1884C3.43849 35.0596 3.23149 35.056 3.09349 35.1884C2.89134 35.3827 2.68918 35.5759 2.48702 35.7702C2.47492 35.4969 2.47371 35.2236 2.46887 34.9503C2.44829 33.6019 2.42771 32.2547 2.40955 30.9063C2.37808 28.4634 2.36355 26.0217 2.36839 23.5788C2.37202 22.0883 2.3805 20.599 2.3926 19.1085C2.39623 18.4622 2.36597 17.8172 2.3696 17.1709C2.37202 16.5453 2.39987 16.0011 2.54029 15.4253C2.68192 14.8434 2.91434 14.3235 3.29928 13.8522C3.68785 13.3748 4.18053 12.9836 4.64295 12.5791C6.5253 10.9306 8.4476 9.32958 10.3856 7.74795C10.5975 7.57423 10.8105 7.40295 11.0236 7.23046C11.0902 7.19766 11.1507 7.14907 11.1955 7.09076C11.8225 6.58298 12.4508 6.07642 13.0839 5.57472C13.2788 5.42045 13.4737 5.26617 13.6686 5.11311C13.7497 5.04995 13.8308 4.98556 13.9119 4.92239C13.9554 4.88838 14.0002 4.85315 14.0438 4.81914C14.0632 4.80456 14.0826 4.78877 14.1019 4.77419C14.108 4.76933 14.1394 4.74504 14.1576 4.73046C14.1806 4.71224 14.2351 4.67094 14.2472 4.66122C14.2823 4.63328 14.3186 4.60655 14.3537 4.57861C14.43 4.52031 14.5062 4.46078 14.5825 4.40247C14.7181 4.29922 14.8537 4.19596 14.9904 4.09392C15.3379 3.83518 15.6913 3.58372 16.0387 3.32497C16.4939 2.98605 16.9478 2.63863 17.4454 2.36531C17.7068 2.22196 17.8158 2.16973 18.0797 2.08591C18.2068 2.04461 18.3363 2.01181 18.467 1.98508C18.6426 1.94985 18.6256 1.9535 18.8072 1.94135C19.5069 1.89519 20.1339 2.05675 20.8082 2.25112C22.3419 2.69086 23.855 3.21686 25.3186 3.8534C25.8621 4.09028 26.3983 4.34052 26.9285 4.60655C26.7191 4.74868 26.5109 4.89203 26.3015 5.03415C26.2277 5.08517 26.1683 5.15077 26.1441 5.23945C26.1211 5.32205 26.132 5.43138 26.1792 5.50427C26.2737 5.65247 26.4891 5.73508 26.6477 5.62696C26.9709 5.40587 27.2953 5.18479 27.6185 4.9637C27.897 5.1119 28.1814 5.26496 28.4586 5.42774C28.0095 5.79946 27.5604 6.16996 27.1113 6.54168C26.9721 6.65587 26.9842 6.90976 27.1113 7.02759C27.259 7.16364 27.4479 7.15028 27.5955 7.02759C28.0846 6.62307 28.5748 6.21855 29.0639 5.81403C29.1704 5.88814 29.2733 5.96224 29.3714 6.03998C29.5142 6.15417 29.651 6.27565 29.7805 6.40563C29.4622 6.65709 29.1438 6.90854 28.8254 7.16C28.7613 7.21102 28.7249 7.32521 28.7249 7.40295C28.7249 7.48677 28.7625 7.5876 28.8254 7.64591C28.8908 7.70543 28.9767 7.75038 29.0675 7.74673C29.1644 7.74187 29.2346 7.70543 29.3096 7.64591C29.6074 7.41024 29.9052 7.17579 30.203 6.94013C30.2393 7.00208 30.2744 7.06525 30.3059 7.13085C30.3168 7.15271 30.3252 7.17458 30.3361 7.19523C30.3361 7.19523 30.3361 7.19644 30.3374 7.19766C30.3531 7.24017 30.37 7.28391 30.3846 7.32764C30.4185 7.42968 30.4463 7.53415 30.4693 7.63983C30.479 7.68356 30.4875 7.72851 30.4947 7.77346C30.4984 7.79532 30.502 7.8184 30.5056 7.84027C30.5056 7.84148 30.5056 7.8427 30.5056 7.84391C30.5177 7.95081 30.5274 8.05893 30.5347 8.16704C30.5891 9.05747 30.5795 9.9564 30.5819 10.848C30.5879 12.9083 30.5625 14.9697 30.5625 17.03V34.4218C30.5625 35.0572 30.5855 35.6986 30.5395 36.3327L30.5431 36.3302ZM26.6162 19.2214C26.6162 19.2044 26.6162 19.1886 26.6162 19.1728C26.6162 19.1728 26.6162 19.1729 26.6162 19.1716C26.6126 19.219 26.615 19.2287 26.6162 19.2227V19.2214ZM27.3789 18.4525C27.0847 17.5912 26.4431 16.9085 25.6188 16.5332C25.2096 16.3497 24.7992 16.1651 24.3901 15.9817C23.4217 15.5468 22.4545 15.1119 21.4861 14.677C20.3518 14.168 19.2176 13.6578 18.0833 13.1488C17.1742 12.7406 16.2651 12.3325 15.356 11.9243C14.7798 11.6656 14.1685 11.3303 13.5475 11.2125C13.0246 11.1141 12.4822 11.1384 11.9823 11.3327C11.3952 11.5611 10.9316 11.951 10.4498 12.3471C9.53948 13.0954 8.63886 13.8546 7.74913 14.626C7.34845 14.9734 6.93083 15.3135 6.55314 15.6865C6.17062 16.0643 5.88252 16.5089 5.68278 17.0081C5.33658 17.8755 5.37652 18.8412 5.39468 19.7572C5.41647 20.8529 5.38863 21.9498 5.38379 23.0455C5.38015 23.9821 5.38015 24.9187 5.38379 25.8553C5.39105 27.6459 5.41647 29.4352 5.44431 31.2246C5.45279 31.7408 5.43826 32.262 5.48426 32.777C5.523 33.2059 5.59926 33.625 5.79173 34.0125C5.94789 34.3283 6.20815 34.6065 6.52167 34.7668C6.87635 34.9478 7.26856 35.0098 7.66319 35.011C8.22123 35.0134 8.78049 35.011 9.33854 35.011H23.6444C24.2424 35.011 24.8404 35.0195 25.4384 35.0086C26.0219 34.9976 26.6707 34.9248 27.0617 34.4352C27.2893 34.1497 27.414 33.8072 27.4733 33.4488C27.5629 32.9046 27.5507 32.3555 27.5507 31.8064C27.5507 29.7559 27.5507 27.7054 27.5507 25.6549C27.5507 24.3101 27.5507 22.9641 27.5507 21.6194C27.5507 21.1602 27.5507 20.7022 27.5507 20.2431C27.5507 19.6405 27.5737 19.0307 27.3764 18.4513L27.3789 18.4525ZM25.7689 17.6823C25.7592 17.6738 25.7483 17.6665 25.7386 17.658C25.7519 17.6665 25.7677 17.6775 25.7689 17.6823ZM12.2038 12.2244C12.2244 12.2147 12.2644 12.2013 12.2038 12.2244ZM6.34251 18.0954C6.34251 18.0954 6.34251 18.1014 6.34251 18.1039C6.34251 18.1002 6.34251 18.0978 6.34251 18.0954ZM6.56767 33.5205C6.56767 33.5205 6.56404 33.5132 6.56283 33.5096C6.53256 33.4452 6.55556 33.4828 6.56767 33.5205ZM26.6029 33.1512C26.6029 33.1512 26.6017 33.1597 26.6005 33.1633C26.6041 33.1342 26.6114 33.0941 26.6029 33.1512ZM26.632 32.788C26.6271 32.8912 26.6199 32.9945 26.609 33.0977C26.6065 33.1196 26.5969 33.1548 26.5981 33.1791C26.5908 33.2229 26.5835 33.2678 26.5751 33.3115C26.5593 33.3917 26.54 33.4707 26.5158 33.5484C26.5049 33.5837 26.4928 33.6189 26.4806 33.6529C26.4806 33.6553 26.4807 33.6553 26.4794 33.6578C26.4516 33.7149 26.4225 33.7695 26.3874 33.823C26.385 33.8254 26.3838 33.829 26.3814 33.8315C26.3644 33.8509 26.3475 33.8703 26.3293 33.8886C26.316 33.9019 26.3015 33.9141 26.287 33.9274C26.287 33.9274 26.2858 33.9274 26.2845 33.9299C26.2458 33.9554 26.2047 33.9772 26.1623 33.9979C26.1623 33.9979 26.1623 33.9979 26.1611 33.9979C26.1344 34.0076 26.1078 34.0161 26.0812 34.0234C26.0194 34.0416 25.9565 34.055 25.8936 34.0659C25.8887 34.0659 25.8827 34.0671 25.8778 34.0683C25.8584 34.0708 25.8391 34.0732 25.8197 34.0744C25.7495 34.0805 25.6805 34.0854 25.6103 34.0878C25.4566 34.0939 25.3028 34.0951 25.1491 34.0951C24.9457 34.0951 24.7436 34.0951 24.5402 34.0951H8.25997C8.06387 34.0951 7.86776 34.0951 7.67166 34.0951C7.59661 34.0951 7.52277 34.0926 7.44772 34.0878C7.40535 34.0854 7.36177 34.0769 7.3194 34.0756C7.47798 34.0817 7.31456 34.0732 7.27219 34.0647C7.19835 34.0489 7.12451 34.0295 7.05309 34.0052C7.0434 34.0015 7.03372 33.9979 7.02404 33.9942C6.99861 33.9821 6.97319 33.97 6.94777 33.9566C6.91751 33.9396 6.88846 33.9226 6.8594 33.9031C6.85214 33.8983 6.84125 33.8886 6.83156 33.8813C6.78435 33.8375 6.73835 33.7938 6.69477 33.7452C6.69356 33.7428 6.69235 33.7416 6.69114 33.7391C6.67177 33.7088 6.65241 33.6796 6.63425 33.6493C6.6173 33.6201 6.60156 33.5909 6.58704 33.5618C6.58099 33.5484 6.57493 33.5363 6.56888 33.5229C6.52288 33.3516 6.46114 33.1901 6.42967 33.0127C6.42604 32.9945 6.42362 32.9751 6.41999 32.9568C6.41999 32.9568 6.41999 32.9568 6.41999 32.9556C6.42362 32.9155 6.40788 32.8645 6.40425 32.8256C6.39336 32.7114 6.38609 32.5973 6.38125 32.4831C6.36067 31.9668 6.36309 31.4493 6.35583 30.933C6.34251 30.0244 6.3292 29.1145 6.3183 28.2059C6.29894 26.4299 6.29288 24.6539 6.30015 22.8779C6.30499 21.8053 6.33041 20.7302 6.30741 19.6575C6.29772 19.2081 6.28562 18.7586 6.32315 18.3104C6.32799 18.2569 6.33283 18.2035 6.33888 18.1512C6.34009 18.1403 6.3413 18.1269 6.3413 18.1148C6.3413 18.1124 6.34372 18.1039 6.34736 18.0832C6.36672 17.9678 6.38609 17.8536 6.41272 17.7406C6.43572 17.6422 6.46236 17.5451 6.49383 17.4491C6.51078 17.3981 6.52772 17.3483 6.54709 17.2985C6.55557 17.2766 6.56283 17.2523 6.57372 17.2304C6.57735 17.2244 6.58099 17.2171 6.5822 17.2134C6.6282 17.1126 6.68025 17.0154 6.73593 16.9195C6.76498 16.8709 6.79525 16.8223 6.82672 16.7749C6.84004 16.7555 6.85214 16.736 6.86546 16.7178C6.87272 16.7069 6.91025 16.6583 6.92235 16.6413C7.07366 16.4554 7.24314 16.2878 7.42229 16.1286C7.8145 15.7788 8.21034 15.4338 8.60739 15.09C9.49349 14.3247 10.3893 13.5716 11.2947 12.8305C11.3504 12.7844 11.4061 12.7394 11.4618 12.6945C11.4836 12.6763 11.5066 12.658 11.5284 12.6398C11.5417 12.6289 11.5502 12.6216 11.5562 12.6167C11.5623 12.6131 11.5683 12.6082 11.5768 12.6022C11.6894 12.5196 11.8031 12.4406 11.9242 12.3714C11.9799 12.3386 12.0368 12.3082 12.0949 12.2778C12.1288 12.2608 12.1627 12.245 12.1966 12.2292C12.1966 12.2292 12.1978 12.2292 12.199 12.2292C12.3164 12.1855 12.435 12.1442 12.5573 12.115C12.6118 12.1017 12.6675 12.092 12.7231 12.0822C12.7292 12.0822 12.7304 12.0798 12.7352 12.0786C12.7522 12.0786 12.7704 12.0786 12.7837 12.0774C12.8987 12.0689 13.0137 12.0689 13.1287 12.0774C13.1613 12.0798 13.194 12.0835 13.2267 12.0859C13.2364 12.0859 13.2449 12.0859 13.2521 12.0859C13.2921 12.092 13.3357 12.1053 13.3683 12.1126C13.4906 12.1381 13.6117 12.1721 13.7303 12.2134C13.7799 12.2304 13.8296 12.2487 13.8792 12.2669C13.9046 12.2766 13.9324 12.2851 13.9567 12.2973C13.9615 12.2997 13.9651 12.3021 13.9688 12.3033C13.976 12.307 13.9833 12.3094 13.9906 12.313C14.0051 12.3191 14.0184 12.3252 14.0329 12.3313C14.1007 12.3616 14.1673 12.392 14.2351 12.4224C14.919 12.7297 15.603 13.0371 16.2869 13.3432C17.3582 13.8242 18.4283 14.3053 19.4996 14.7863C20.5721 15.2686 21.6459 15.7496 22.7184 16.2319C23.4314 16.5514 24.1431 16.8721 24.8561 17.1916C24.9566 17.2365 25.0571 17.2815 25.1576 17.3276C25.3549 17.4175 25.5437 17.5232 25.7192 17.6495C25.7229 17.652 25.7289 17.6556 25.7362 17.6605C25.7483 17.6702 25.7592 17.6787 25.7701 17.6884C25.8052 17.7163 25.8391 17.7455 25.8718 17.7759C25.9492 17.8451 26.0219 17.9192 26.0909 17.997C26.0969 18.0042 26.1332 18.0383 26.1587 18.0686C26.1587 18.0698 26.1611 18.0783 26.1768 18.1002C26.1913 18.1209 26.2059 18.1403 26.2192 18.1609C26.2809 18.2508 26.3378 18.3456 26.3874 18.4428C26.408 18.4829 26.4274 18.5242 26.4468 18.5655C26.4516 18.5752 26.4552 18.5825 26.4589 18.5873C26.4637 18.6019 26.4673 18.6177 26.4698 18.6262C26.5085 18.7282 26.54 18.8339 26.5654 18.9396C26.5787 18.9919 26.5896 19.0441 26.5993 19.0963C26.6041 19.1218 26.609 19.1473 26.6126 19.1741C26.6126 19.1716 26.6126 19.1716 26.6126 19.1692C26.6126 19.1716 26.6126 19.1741 26.6126 19.1753C26.6162 19.1947 26.6138 19.2166 26.6126 19.2227C26.6138 19.3211 26.6356 19.4267 26.6368 19.5239C26.638 19.6199 26.6368 19.7159 26.6368 19.8118C26.6368 20.0001 26.6368 20.1896 26.6368 20.3779C26.6368 21.4408 26.6368 22.5025 26.6368 23.5655C26.6368 25.2394 26.6368 26.9134 26.6368 28.5873C26.6368 29.7061 26.6368 30.8249 26.6368 31.9437C26.6368 32.2255 26.6416 32.5086 26.6295 32.7916L26.632 32.788ZM9.9668 2.01424C9.9668 2.01424 9.96559 2.01424 9.96438 2.01302C9.95953 2.01059 9.9559 2.00816 9.95106 2.00573C9.95469 2.01059 9.96559 2.01788 9.97406 2.02153C9.97164 2.0191 9.96922 2.01667 9.9668 2.01424ZM9.91111 4.34295C9.91111 4.34295 9.91475 4.34052 9.91596 4.34052C9.92201 4.33688 9.93533 4.32594 9.94622 4.31987C9.94743 4.31865 9.94985 4.31622 9.95106 4.31501C9.92927 4.32108 9.91475 4.33688 9.91111 4.34417V4.34295ZM9.82275 4.38061C9.83848 4.37453 9.85422 4.36968 9.86996 4.36482C9.86996 4.36482 9.87117 4.36482 9.87238 4.3636C9.83727 4.37089 9.82275 4.37696 9.82275 4.38061ZM18.6886 5.82254C18.6752 5.83104 18.6607 5.83955 18.6462 5.84683C18.6522 5.84562 18.6656 5.83712 18.6898 5.82254C18.6898 5.82254 18.6898 5.82254 18.6886 5.82254ZM26.8099 7.74795C26.4455 7.47948 26.0182 7.31063 25.6079 7.1272C24.5099 6.63765 23.4132 6.14567 22.3153 5.6549C21.2476 5.1775 20.1206 4.6187 18.9173 4.80942C18.4331 4.88717 17.9756 5.12405 17.5846 5.41438C17.0798 5.78974 16.6452 6.24163 16.2433 6.72511C16.2131 6.75427 16.1864 6.78585 16.1646 6.82594C16.1368 6.87939 16.1186 6.94134 16.1126 7.00451C16.0956 7.11019 16.1126 7.21952 16.1755 7.31063C16.2118 7.37015 16.2603 7.41996 16.3281 7.45154C17.6596 8.07594 18.9912 8.70033 20.3228 9.32472C21.7294 9.98434 23.136 10.644 24.5414 11.3036C25.3694 11.6923 26.1974 12.0798 27.0254 12.4685C27.1622 12.5329 27.2893 12.5511 27.4321 12.4916C27.5507 12.4418 27.6754 12.3313 27.696 12.1952C27.7868 11.6097 27.857 11.0181 27.8618 10.4253C27.8655 9.92603 27.8304 9.40246 27.6754 8.92506C27.5156 8.43186 27.2251 8.05285 26.8099 7.74673V7.74795ZM26.362 8.54726C26.3548 8.54241 26.3475 8.53755 26.3427 8.53269C26.3487 8.53633 26.356 8.54119 26.362 8.54726ZM19.1243 5.69985C19.1316 5.69985 19.1389 5.69863 19.1461 5.69742C19.1183 5.70106 19.0566 5.70592 19.1243 5.69985ZM23.1372 9.64056C21.7633 8.99673 20.3905 8.35169 19.0166 7.70786C18.444 7.4394 17.8715 7.17093 17.2989 6.90247C17.5083 6.67652 17.7286 6.46272 17.9659 6.26714C17.9853 6.25135 18.0034 6.23678 18.0228 6.22098C18.0228 6.22098 18.0228 6.22098 18.0252 6.21977C18.0264 6.21977 18.0276 6.21734 18.03 6.21612C18.0724 6.18576 18.1148 6.15417 18.1571 6.1238C18.2491 6.06063 18.3424 5.99989 18.4404 5.94523C18.5058 5.90879 18.5796 5.88085 18.6462 5.84562C18.6365 5.84926 18.651 5.8359 18.6716 5.8274C18.6777 5.82497 18.6825 5.82254 18.6886 5.82132C18.691 5.82011 18.6934 5.81889 18.6958 5.81768C18.6934 5.81889 18.6922 5.82011 18.691 5.82132C18.7091 5.81404 18.7261 5.80796 18.7442 5.80067C18.7963 5.78124 18.8483 5.76423 18.9016 5.74965C18.9391 5.73872 18.9779 5.729 19.0166 5.7205C19.042 5.71442 19.1328 5.71078 19.157 5.69499C19.1655 5.69499 19.1752 5.69256 19.1837 5.69256C19.2599 5.68648 19.3362 5.68406 19.4124 5.68406C19.5371 5.68406 19.6606 5.69377 19.7841 5.70714C19.7901 5.70714 19.7974 5.70957 19.8059 5.71078C19.8325 5.71564 19.8603 5.7205 19.8882 5.72536C19.9632 5.73872 20.0383 5.75573 20.1121 5.77395C20.3639 5.8359 20.6109 5.91851 20.853 6.01204C20.9183 6.03755 20.9849 6.06428 21.0503 6.091C21.0672 6.09829 21.0854 6.10558 21.1023 6.11287C21.112 6.11651 21.1302 6.12502 21.1362 6.12745C21.2657 6.18332 21.3941 6.24042 21.5224 6.29751C22.5707 6.76641 23.6202 7.23532 24.6685 7.70422C25.0958 7.89494 25.5364 8.07108 25.9504 8.29095C26.04 8.33832 26.1284 8.38935 26.2131 8.44401C26.2603 8.47438 26.3051 8.50596 26.3499 8.53876C26.3632 8.54848 26.3693 8.55334 26.3741 8.55577C26.3874 8.56792 26.3995 8.58128 26.4117 8.591C26.4601 8.63351 26.5521 8.70154 26.5956 8.76592C26.5981 8.77443 26.6041 8.78779 26.6126 8.80115C26.6283 8.82423 26.6429 8.8461 26.6574 8.87039C26.684 8.91291 26.7082 8.95786 26.73 9.0028C26.7385 9.01981 26.7458 9.0356 26.753 9.05261C26.753 9.05261 26.753 9.05261 26.753 9.05504C26.7712 9.10849 26.7918 9.16072 26.8075 9.21539C26.8414 9.32472 26.8668 9.43648 26.8874 9.54945C26.8922 9.57739 26.8971 9.60533 26.9019 9.63448C26.9031 9.6442 26.9128 9.71223 26.914 9.71709C26.9152 9.72924 26.9164 9.74017 26.9164 9.74138C26.9201 9.77783 26.9237 9.81427 26.9273 9.85071C26.9382 9.97705 26.9443 10.1034 26.9467 10.2309C26.9528 10.5237 26.9394 10.8177 26.9164 11.1092C26.908 11.2064 26.8971 11.3036 26.8874 11.4008C25.6381 10.8152 24.3877 10.2285 23.1384 9.64299L23.1372 9.64056ZM19.9414 22.6775C19.5311 21.9 19.0408 21.1724 18.5046 20.4775C17.984 19.8033 17.4175 19.1631 16.7977 18.5788C16.6149 18.4063 16.3353 18.4027 16.1525 18.5788C15.6756 19.0368 15.2434 19.5421 14.8306 20.0584C14.3452 20.6646 13.8816 21.2902 13.464 21.945C13.073 22.556 12.7292 23.1962 12.5125 23.8922C12.2426 24.7596 12.1675 25.6864 12.3346 26.5805C12.642 28.2229 13.9579 29.564 15.5824 29.9248C17.219 30.288 18.9077 29.5858 19.8991 28.2508C20.9486 26.838 20.8784 24.8677 20.2295 23.3031C20.1412 23.0905 20.0468 22.8815 19.9402 22.6762L19.9414 22.6775ZM17.7032 28.8631C17.7165 28.857 17.7407 28.8461 17.7407 28.8473C17.7407 28.8473 17.725 28.8546 17.7032 28.8631ZM19.7889 25.8577C19.7841 25.9513 19.7768 26.0448 19.7671 26.1383C19.7659 26.1541 19.7635 26.1711 19.7611 26.1881C19.7611 26.193 19.7599 26.1966 19.7587 26.2027C19.7502 26.2513 19.7429 26.3011 19.7332 26.3497C19.6957 26.5453 19.6449 26.7384 19.5783 26.9267C19.5638 26.968 19.5492 27.0093 19.5323 27.0494C19.5299 27.0555 19.5226 27.0737 19.5178 27.0871C19.5166 27.0907 19.5141 27.0944 19.5141 27.0956C19.4718 27.1903 19.427 27.2839 19.3761 27.375C19.3023 27.5098 19.2212 27.6556 19.1219 27.7771C19.1219 27.7771 19.1171 27.7831 19.0989 27.8038C19.0844 27.8208 19.0711 27.839 19.0566 27.856C19.0311 27.8864 19.0057 27.9168 18.9791 27.9459C18.9149 28.0176 18.8483 28.0868 18.7806 28.1536C18.7237 28.2083 18.6656 28.2618 18.605 28.314C18.5711 28.3431 18.536 28.3723 18.5009 28.4002C18.4997 28.4002 18.4985 28.4027 18.4961 28.4039C18.4791 28.4172 18.461 28.4294 18.444 28.4415C18.3024 28.5448 18.1535 28.6371 17.9986 28.7197C17.9235 28.7598 17.8473 28.7975 17.771 28.8327C17.7504 28.8424 17.7298 28.8509 17.7093 28.8606C17.7056 28.8618 17.7032 28.8631 17.7008 28.8643C17.6572 28.8813 17.5906 28.9044 17.5822 28.908C17.4175 28.9675 17.2493 29.0149 17.0774 29.0501C17.0386 29.0586 16.9999 29.0659 16.9612 29.072C16.9333 29.0769 16.7917 29.1109 16.9152 29.0805C16.8304 29.1012 16.7324 29.0999 16.6452 29.1048C16.4709 29.1133 16.2954 29.1084 16.1211 29.0914C16.1029 29.089 16.0835 29.0878 16.0654 29.0854C16.0291 29.0793 15.994 29.0744 15.9576 29.0671C15.8632 29.0501 15.77 29.0295 15.6768 29.004C15.5945 28.9821 15.5134 28.9578 15.4335 28.9311C15.396 28.9189 15.3584 28.9056 15.3221 28.891C15.3015 28.8837 15.2798 28.8752 15.2592 28.8667C15.2434 28.8606 15.2338 28.857 15.2277 28.8546C15.0764 28.7938 14.9299 28.7112 14.7919 28.6286C14.7193 28.5849 14.6479 28.5387 14.5777 28.4913C14.5401 28.4658 14.5038 28.4391 14.4675 28.4124C14.4614 28.4087 14.4566 28.4051 14.4518 28.4027C14.4433 28.3942 14.4336 28.3857 14.4263 28.3796C14.2859 28.2654 14.154 28.1415 14.0305 28.0091C13.9724 27.9471 13.9167 27.8827 13.8634 27.8171C13.855 27.8062 13.8489 27.7989 13.8453 27.7941C13.8441 27.7916 13.8441 27.7916 13.8417 27.7892C13.8114 27.7479 13.7823 27.7066 13.7533 27.6653C13.654 27.5195 13.5645 27.3653 13.4882 27.2061C13.47 27.1697 13.4543 27.1332 13.4373 27.0956C13.4337 27.0859 13.4047 27.0142 13.3986 26.9972C13.3635 26.9012 13.3308 26.8052 13.303 26.7068C13.2763 26.6145 13.2533 26.5222 13.234 26.4287C13.2243 26.3849 13.2158 26.3412 13.2086 26.2975C13.2037 26.272 13.2001 26.2477 13.1952 26.2222C13.1952 26.2222 13.1892 26.1796 13.1868 26.1602C13.1868 26.1493 13.1843 26.1395 13.1843 26.1359C13.1819 26.1104 13.1795 26.0849 13.1771 26.0594C13.1735 26.0144 13.1698 25.9707 13.1662 25.9258C13.1601 25.8237 13.1565 25.7205 13.1565 25.6184C13.1565 25.4228 13.171 25.2285 13.1916 25.0353C13.1928 25.022 13.2001 24.9709 13.2025 24.9503C13.211 24.8993 13.2195 24.8483 13.2291 24.7972C13.2485 24.6952 13.2703 24.5931 13.2945 24.4923C13.3417 24.2967 13.3998 24.1036 13.4676 23.9141C13.4991 23.8242 13.5342 23.7355 13.5705 23.6468C13.5778 23.6298 13.5947 23.5897 13.602 23.574C13.6177 23.5375 13.6347 23.5023 13.6516 23.4671C13.7763 23.2047 13.9191 22.9508 14.0704 22.7018C14.2472 22.409 14.436 22.1223 14.6309 21.8417C14.7326 21.6959 14.8355 21.5514 14.9408 21.408C14.9953 21.3339 15.051 21.2586 15.1054 21.1857C15.1296 21.1529 15.1539 21.1213 15.1781 21.0885C15.1926 21.0691 15.2919 20.9379 15.2229 21.0302C15.6126 20.514 16.0339 20.0159 16.4806 19.5482C16.9612 20.0293 17.4115 20.5419 17.8267 21.0813C17.8436 21.1043 17.8848 21.1578 17.8908 21.1651C17.9247 21.2088 17.9574 21.2538 17.9901 21.2987C18.047 21.3764 18.1039 21.4554 18.1608 21.5344C18.2879 21.7129 18.4114 21.8951 18.5312 22.0786C18.7551 22.4236 18.9646 22.7771 19.1558 23.1403C19.1994 23.2241 19.2418 23.3091 19.2829 23.3954C19.3047 23.4415 19.3253 23.4877 19.3459 23.5339C19.3531 23.5509 19.3604 23.5691 19.3689 23.5861C19.3253 23.4889 19.3761 23.6055 19.3822 23.6177C19.456 23.8011 19.5214 23.9882 19.5783 24.1789C19.634 24.3684 19.6812 24.5616 19.7187 24.7547C19.7284 24.8045 19.7369 24.8543 19.7453 24.9053C19.749 24.9309 19.7526 24.9552 19.7574 24.9807C19.7574 24.9819 19.7574 24.9843 19.7574 24.9879C19.7587 25.0025 19.7623 25.022 19.7623 25.0293C19.7647 25.0548 19.7683 25.0791 19.7708 25.1046C19.7768 25.1617 19.7817 25.2175 19.7853 25.2746C19.7986 25.469 19.801 25.6646 19.7913 25.8589L19.7889 25.8577ZM15.54 27.3009C15.4734 27.2693 15.4081 27.2341 15.3463 27.1928C15.3318 27.183 15.3185 27.1733 15.3052 27.1636C15.2834 27.1381 15.2495 27.1174 15.2253 27.0944C15.1708 27.0433 15.1284 26.9814 15.0752 26.9304C15.0776 26.9328 15.08 26.934 15.0812 26.9364C15.0788 26.934 15.0764 26.9304 15.0752 26.9279C15.0667 26.9158 15.0582 26.9036 15.0498 26.8915C15.0268 26.8575 15.0062 26.8223 14.9856 26.787C14.9674 26.7542 14.9505 26.7214 14.9348 26.6874C14.9311 26.6801 14.9287 26.6753 14.9275 26.6716C14.9226 26.6595 14.919 26.6485 14.9178 26.6473C14.8924 26.5781 14.8718 26.5064 14.8561 26.4335C14.8524 26.4153 14.8488 26.3971 14.8452 26.3789C14.8428 26.3655 14.827 26.3023 14.8415 26.3582C14.8549 26.4141 14.8415 26.3521 14.8415 26.3376C14.8403 26.3193 14.8391 26.3011 14.8379 26.2817C14.8343 26.2039 14.8379 26.1262 14.8464 26.0484C14.867 25.8699 14.6745 25.6974 14.5038 25.7047C14.3004 25.7144 14.1842 25.8565 14.1612 26.0484C14.0753 26.7882 14.5208 27.5791 15.1938 27.89C15.356 27.9653 15.5703 27.9411 15.6623 27.7673C15.7422 27.6155 15.7131 27.3774 15.54 27.2972V27.3009ZM14.9287 26.6765C14.9335 26.6862 14.9396 26.702 14.9384 26.702C14.9384 26.702 14.9335 26.6898 14.9287 26.6765ZM15.304 27.1648C15.304 27.1648 15.2955 27.1587 15.2919 27.1563C15.258 27.132 15.2906 27.1515 15.304 27.1648ZM15.0812 26.9389C15.0982 26.9595 15.1236 26.9802 15.0812 26.9389ZM29.4658 35.3062C29.3774 35.3098 29.2854 35.339 29.2237 35.407C29.1607 35.4763 29.1365 35.5504 29.1244 35.6415C29.1268 35.6233 29.1293 35.6062 29.1317 35.588C29.1196 35.6706 29.0966 35.7508 29.0675 35.8285C29.0361 35.8966 28.9973 35.961 28.9537 36.0229C28.9029 36.0836 28.8472 36.1407 28.7867 36.1918C28.7237 36.2367 28.6572 36.2768 28.5857 36.3096C28.5119 36.3363 28.4368 36.3582 28.3582 36.3703C28.2795 36.3825 28.1923 36.4627 28.1536 36.5283C28.1112 36.6024 28.0918 36.7105 28.1185 36.7931C28.1451 36.8757 28.1972 36.9559 28.2758 36.9984C28.363 37.0445 28.4429 37.0482 28.5397 37.0336C28.8545 36.9862 29.1571 36.8113 29.375 36.5817C29.4839 36.4675 29.582 36.3351 29.651 36.1918C29.7357 36.0144 29.7817 35.8456 29.8047 35.6512C29.8144 35.5698 29.7599 35.4641 29.7043 35.4082C29.6449 35.3487 29.5469 35.3038 29.4622 35.3074L29.4658 35.3062ZM25.6817 31.6595C25.511 31.6206 25.2992 31.7117 25.2605 31.9C25.2411 31.9935 25.212 32.0858 25.1769 32.1745C25.1321 32.2717 25.0777 32.3652 25.0147 32.4527C24.9469 32.5365 24.8731 32.6143 24.7896 32.6835C24.7254 32.737 24.6891 32.8463 24.6891 32.9265C24.6891 33.0103 24.7266 33.1111 24.7896 33.1694C24.8549 33.2289 24.9409 33.2739 25.0317 33.2702C25.1273 33.2654 25.2011 33.2314 25.2738 33.1694C25.5982 32.8973 25.8342 32.4989 25.9202 32.0834C25.9396 31.9923 25.9335 31.9 25.8851 31.8186C25.8439 31.7469 25.7616 31.6789 25.6805 31.6607L25.6817 31.6595ZM20.462 11.2222C20.7113 11.34 20.9595 11.4566 21.2089 11.5745C21.2936 11.6146 21.3795 11.6352 21.4727 11.6097C21.5526 11.5878 21.6386 11.5259 21.6773 11.4518C21.7197 11.3716 21.7403 11.2756 21.7124 11.187C21.6858 11.1056 21.635 11.0193 21.5551 10.9817C21.3057 10.8638 21.0575 10.7472 20.8082 10.6294C20.7234 10.5893 20.6375 10.5686 20.5443 10.5942C20.4644 10.616 20.3784 10.678 20.3397 10.7521C20.2973 10.8322 20.2768 10.9282 20.3046 11.0169C20.3312 11.0971 20.3821 11.1845 20.462 11.2222Z" stroke="#C0BEBE" stroke-width="0.5"/>
</svg>
