<svg width="258" height="314" viewBox="0 0 258 314" fill="none" xmlns="http://www.w3.org/2000/svg">
<path d="M247.4 300.07C247.34 300.18 247.3 300.27 247.28 300.32C247.32 300.24 247.36 300.16 247.39 300.07H247.4Z" fill="#222222"/>
<path d="M256.87 182.9V142.28C256.87 130.37 256.92 118.46 256.98 106.55C257.03 96.76 257.08 86.96 257.01 77.17C256.98 73.55 256.91 69.94 256.83 66.32C256.75 62.51 256.72 58.71 256.12 54.93C254.68 45.74 248.45 39.1 241.04 33.97C235.63 30.23 229.72 27.14 223.86 24.18C217.78 21.11 211.57 18.3 205.29 15.68C192.77 10.46 179.83 5.96002 166.7 2.52002C161 1.03002 155.11 0.330023 149.25 1.15002C144.67 1.79002 140.33 3.50002 136.33 5.80002C132.15 8.20002 128.32 11.17 124.46 14.03C121.73 16.05 118.96 18 116.24 20.03C110.32 24.45 104.51 29.01 98.7198 33.6C94.2998 37.1 89.8898 40.62 85.4898 44.16C81.0398 42.46 76.5998 40.77 72.1498 39.07C72.1498 38.82 72.1498 38.56 72.1498 38.31C72.1498 37.67 72.1498 37.04 72.1398 36.4C73.5098 36.42 74.8798 36.44 76.2398 36.37C80.2698 36.15 83.8298 34.6 86.0998 31.15C87.9898 28.28 88.4698 24.58 88.7698 21.24C89.0798 17.66 88.9398 13.94 88.0798 10.44C87.7098 8.94002 87.1498 7.44002 86.3698 6.10002C86.2998 5.96002 86.2298 5.82002 86.1298 5.69002C86.0498 5.56002 85.9498 5.43002 85.8498 5.31002C84.4298 3.39002 82.5898 1.93002 80.2098 1.34002C78.6498 0.950018 77.0198 0.930021 75.4198 0.890021C72.9598 0.830021 70.4998 0.790024 68.0298 0.760024C61.8098 0.680024 55.5898 0.650021 49.3698 0.640021C38.0198 0.620021 26.6598 0.610022 15.2998 0.860022C12.5998 0.920022 9.99976 1.00002 7.58976 2.44002C3.99976 4.59002 2.01976 8.43002 1.38976 12.46C0.769763 16.43 0.839764 20.35 1.42976 24.31C1.99976 28.18 3.50976 31.82 6.73976 34.2C9.87976 36.51 13.7698 36.41 17.4798 36.43C18.9398 36.43 20.3998 36.43 21.8498 36.43C21.8898 43.36 21.8898 50.28 21.8698 57.21C21.8398 66.76 21.7998 76.3 21.7598 85.85C21.7398 89.89 21.7298 93.92 21.7098 97.96C19.7998 99.86 18.0098 101.86 16.4298 104.11C13.3598 108.49 11.2898 113.59 10.1898 118.82C8.05977 128.99 9.08977 139.42 9.01977 149.72C8.82977 172.97 8.72977 196.21 8.87977 219.46C9.01977 240.91 9.34976 262.36 9.69976 283.8C9.83976 292.34 10.6998 302.88 17.8498 308.73C22.7398 312.73 28.7998 313.44 34.9098 313.44H229.71C235.47 313.44 241.65 313.7 246.98 311.15C254.42 307.59 256.18 298.73 256.69 291.29C257.06 286.01 256.86 280.65 256.86 275.36V182.94L256.87 182.9ZM78.7398 49.61C76.5398 51.39 74.3498 53.18 72.1598 54.97C72.1598 52.35 72.1598 49.72 72.1598 47.1C74.3498 47.94 76.5398 48.77 78.7398 49.61ZM79.5398 27.4C79.5998 27.32 79.6498 27.24 79.6698 27.25C79.6698 27.25 79.6198 27.32 79.5398 27.4ZM79.5298 27.42C79.3598 27.68 79.4398 27.56 79.5298 27.42V27.42ZM80.3498 10.8C80.4098 10.93 80.4398 10.99 80.3498 10.8V10.8ZM14.4798 28.83C14.1498 28.83 13.8298 28.82 13.4998 28.79C13.4098 28.79 13.3298 28.78 13.2398 28.77C12.8098 28.67 12.3498 28.49 11.9098 28.38C12.1698 28.47 12.0298 28.55 11.7398 28.38C11.6998 28.36 11.6698 28.34 11.6298 28.32C11.5898 28.32 11.5498 28.3 11.5098 28.3C11.5498 28.3 11.5798 28.31 11.6098 28.32C11.4898 28.26 11.3798 28.2 11.2698 28.13C11.1598 28.06 11.0498 27.99 10.9498 27.92C10.7298 27.7 10.5098 27.43 10.2698 27.23C10.1898 27.09 10.0898 26.96 10.0098 26.82C9.91976 26.66 9.82976 26.5 9.74976 26.34C9.74976 26.32 9.61976 26.05 9.55976 25.91C9.52976 25.83 9.50976 25.76 9.49976 25.73C9.43976 25.56 9.38976 25.38 9.33976 25.21C9.16976 24.61 9.02977 24.01 8.90977 23.4C8.84977 23.1 8.79976 22.8 8.74976 22.49C8.72976 22.39 8.58977 21.61 8.71977 22.28C8.84977 22.93 8.69976 22.06 8.67976 21.92C8.50976 20.31 8.43977 18.68 8.48977 17.06C8.50977 16.22 8.56977 15.39 8.65977 14.56C8.65977 14.5 8.66976 14.46 8.66976 14.42C8.68976 14.29 8.70977 14.16 8.70977 14.18C8.77977 13.78 8.85976 13.38 8.94976 12.98C9.05976 12.49 9.30976 11.97 9.44976 11.46C9.36976 11.66 9.31976 11.53 9.44976 11.26C9.46976 11.22 9.48977 11.18 9.51977 11.14C9.51977 11.1 9.53976 11.07 9.53976 11.03C9.53976 11.07 9.52977 11.09 9.51977 11.12C9.59977 10.96 9.67976 10.79 9.77976 10.63C9.87976 10.46 9.98976 10.3 10.0898 10.13C10.1098 10.09 10.1298 10.06 10.1498 10.03C10.1598 10.02 10.1698 10.01 10.1898 9.99002C10.4598 9.70002 10.7498 9.43002 11.0298 9.15002C11.1598 9.07002 11.2798 8.98003 11.4098 8.91003C11.5398 8.83003 11.6698 8.77002 11.7998 8.69002C12.0698 8.63002 12.5698 8.53002 12.7998 8.42002C12.9698 8.42002 13.1298 8.41002 13.2998 8.40002C13.6498 8.39002 14.0098 8.38002 14.3598 8.37002C16.2298 8.32002 18.0998 8.29002 19.9598 8.26002C19.9998 10.89 20.0398 13.52 20.0898 16.15C20.1098 17.63 21.3698 19.05 22.9198 18.98C24.4298 18.91 25.7698 17.74 25.7498 16.15C25.7098 13.49 25.6598 10.84 25.6198 8.18002C30.9198 8.13002 36.2198 8.12002 41.5198 8.12002C41.6798 10.8 41.8498 13.47 42.0098 16.15C42.0998 17.62 43.2498 19.05 44.8398 18.98C46.2998 18.91 47.7598 17.73 47.6698 16.15C47.5098 13.47 47.3398 10.8 47.1798 8.12002C52.5498 8.12002 57.9198 8.14002 63.2898 8.19002C63.3298 8.19002 63.3698 8.19002 63.3998 8.19002V17.07C63.3998 18.55 64.6998 19.97 66.2298 19.9C67.7598 19.83 69.0598 18.66 69.0598 17.07V8.26002C69.7798 8.26002 70.4998 8.27002 71.2198 8.29002C72.3498 8.31002 73.4798 8.33002 74.6098 8.35002C75.6698 8.37002 76.7698 8.50002 77.8298 8.47002C77.9598 8.50002 78.0798 8.52002 78.2098 8.55002C78.3698 8.59002 78.5198 8.65002 78.6798 8.68002C78.7998 8.75002 78.9098 8.81002 79.0298 8.88002C79.0198 8.86002 79.0098 8.85002 79.0298 8.83002C79.0298 8.83002 79.0998 8.88002 79.1698 8.95002C79.4198 9.08002 79.3498 9.07002 79.2298 9.01002C79.3198 9.10002 79.4198 9.20002 79.4398 9.22002C79.4798 9.25002 79.4998 9.27002 79.5298 9.29002C79.5498 9.33002 79.5798 9.37002 79.6198 9.42002C79.8098 9.71002 79.9798 10 80.1298 10.31C80.1498 10.36 80.1798 10.41 80.1998 10.46C80.2298 10.75 80.4798 11.22 80.5598 11.47C80.6698 11.85 80.7698 12.23 80.8598 12.61C80.9398 12.97 81.0098 13.33 81.0798 13.69C81.1398 14.01 81.1698 15.15 81.1498 14.05C81.1598 14.9 81.3098 15.76 81.3498 16.61C81.4098 18.21 81.3498 19.82 81.2098 21.42C81.1798 21.72 81.1498 22.02 81.1098 22.32C81.0898 22.45 81.0698 22.59 81.0498 22.72C80.9498 23.36 80.8198 24 80.6698 24.63C80.5398 25.15 80.3498 25.66 80.2098 26.18C80.2098 26.2 80.2098 26.2 80.2098 26.22C80.2098 26.22 80.2098 26.23 80.1998 26.24C80.1098 26.4 80.0398 26.57 79.9498 26.73C79.8598 26.88 79.7698 27.04 79.6798 27.19C79.6298 27.27 79.5898 27.33 79.5598 27.38C79.4198 27.52 79.2098 27.73 79.0598 27.88C79.0798 27.88 79.0998 27.87 79.1298 27.86C79.1098 27.86 79.0598 27.89 79.0198 27.92C78.9498 27.99 78.8998 28.04 78.8898 28.05C78.7498 28.19 78.7098 28.18 78.7298 28.12C78.6298 28.18 78.5198 28.24 78.4098 28.3C78.4498 28.3 78.4898 28.28 78.5498 28.27C78.4998 28.27 78.4498 28.29 78.3898 28.31C78.3598 28.32 78.3398 28.34 78.3098 28.35C78.1298 28.45 77.9998 28.46 77.9998 28.43C77.8598 28.48 77.7098 28.54 77.5698 28.58C77.3198 28.64 77.0698 28.68 76.8198 28.73C76.7398 28.73 76.6498 28.75 76.5698 28.75C75.7898 28.81 75.0098 28.8 74.2398 28.79C71.8598 28.78 69.4798 28.77 67.0998 28.77C57.7098 28.75 48.3198 28.79 38.9298 28.81C34.7098 28.82 30.4798 28.83 26.2598 28.82C26.0598 28.79 25.8598 28.77 25.6498 28.78C25.5598 28.78 25.4698 28.81 25.3798 28.82C25.1998 28.82 25.0298 28.82 24.8498 28.82C22.5298 28.82 20.2198 28.82 17.8998 28.8C16.7698 28.8 15.6498 28.8 14.5198 28.78L14.4798 28.83ZM32.5098 36.4C42.4598 36.39 52.4198 36.34 62.3698 36.34C63.1098 36.34 63.8498 36.34 64.5898 36.34C64.6298 43.3 64.6298 50.26 64.6198 57.21C64.6198 58.53 64.6198 59.85 64.6098 61.17C60.0798 64.91 55.5598 68.67 51.0598 72.44C43.7498 78.58 36.4798 84.77 29.2898 91.05C29.3098 85.24 29.3398 79.42 29.3598 73.61C29.3998 64.14 29.4398 54.67 29.4398 45.19C29.4398 42.25 29.4398 39.32 29.4098 36.38C30.4398 36.38 31.4798 36.38 32.5098 36.38V36.4ZM19.4798 298.38C19.2398 297.76 19.4098 298.23 19.4798 298.38V298.38ZM249.14 291.47C248.96 293.89 248.85 295.03 248.22 297.5C248 298.37 247.7 299.21 247.41 300.07C247.43 300.03 247.45 299.99 247.47 299.94C247.45 299.99 247.43 300.03 247.41 300.08C247.36 300.22 247.22 300.5 247.3 300.33C247.28 300.36 247.27 300.39 247.26 300.43C247.06 300.8 246.88 301.18 246.66 301.55C246.5 301.82 246.3 302.08 246.14 302.35C246.08 302.43 246.02 302.5 245.95 302.58C245.72 302.82 245.5 303.07 245.26 303.29C245.01 303.52 244.07 304.14 245.03 303.52C244.55 303.83 244.09 304.15 243.58 304.41C243.46 304.47 243.33 304.53 243.2 304.59C242.92 304.69 242.64 304.8 242.36 304.89C241.74 305.08 241.11 305.24 240.47 305.37C240.14 305.44 239.79 305.47 239.46 305.54C239.28 305.56 239.1 305.58 238.92 305.6C237.34 305.76 235.75 305.81 234.16 305.84C232.42 305.87 230.68 305.86 228.94 305.86H44.2798C46.4398 303.64 48.5898 301.41 50.7498 299.19C51.7798 298.13 51.8898 296.24 50.7498 295.19C49.6398 294.17 47.8498 294.05 46.7498 295.19C43.3598 298.69 39.9698 302.19 36.5798 305.69C36.5298 305.74 36.4898 305.8 36.4498 305.86H35.1598C33.5798 305.86 31.9898 305.88 30.4098 305.75C30.1798 305.73 29.9598 305.7 29.7298 305.69C29.6898 305.69 29.6598 305.69 29.6298 305.69C29.6198 305.69 29.6098 305.69 29.5898 305.69C29.1198 305.61 28.6498 305.53 28.1898 305.43C27.3898 305.26 26.6298 304.99 25.8498 304.75C31.2198 299.25 36.5998 293.74 41.9698 288.24C43.0398 287.15 43.0598 285.33 41.9698 284.24C40.8998 283.17 39.0398 283.14 37.9698 284.24C32.3898 289.95 26.8198 295.66 21.2398 301.38C21.0998 301.19 20.8898 300.92 20.8298 300.83C20.5698 300.43 20.3298 300.02 20.0998 299.6C19.8898 299.21 19.7098 298.8 19.5098 298.4C19.4398 298.22 19.3698 298.04 19.3098 297.87C18.9498 296.88 18.6498 295.87 18.3998 294.84C18.3198 294.51 18.2498 294.2 18.1798 293.91C20.9098 291.3 23.6398 288.68 26.3798 286.07C27.4498 285.05 27.4898 283.09 26.3798 282.07C25.2298 281.01 23.5198 280.98 22.3798 282.07C20.7098 283.67 19.0398 285.26 17.3698 286.86C17.2698 284.61 17.2598 282.36 17.2198 280.11C17.0498 269.01 16.8798 257.92 16.7298 246.82C16.4698 226.71 16.3498 206.61 16.3898 186.5C16.4198 174.23 16.4898 161.97 16.5898 149.7C16.6198 144.38 16.3698 139.07 16.3998 133.75C16.4198 128.6 16.6498 124.12 17.8098 119.38C18.9798 114.59 20.8998 110.31 24.0798 106.43C27.2898 102.5 31.3598 99.28 35.1798 95.95C50.7298 82.38 66.6098 69.2 82.6198 56.18C84.3698 54.75 86.1298 53.34 87.8898 51.92C88.4398 51.65 88.9398 51.25 89.3098 50.77C94.4898 46.59 99.6798 42.42 104.91 38.29C106.52 37.02 108.13 35.75 109.74 34.49C110.41 33.97 111.08 33.44 111.75 32.92C112.11 32.64 112.48 32.35 112.84 32.07C113 31.95 113.16 31.82 113.32 31.7C113.37 31.66 113.63 31.46 113.78 31.34C113.97 31.19 114.42 30.85 114.52 30.77C114.81 30.54 115.11 30.32 115.4 30.09C116.03 29.61 116.66 29.12 117.29 28.64C118.41 27.79 119.53 26.94 120.66 26.1C123.53 23.97 126.45 21.9 129.32 19.77C133.08 16.98 136.83 14.12 140.94 11.87C143.1 10.69 144 10.26 146.18 9.57002C147.23 9.23002 148.3 8.96002 149.38 8.74002C150.83 8.45002 150.69 8.48002 152.19 8.38002C157.97 8.00002 163.15 9.33002 168.72 10.93C181.39 14.55 193.89 18.88 205.98 24.12C210.47 26.07 214.9 28.13 219.28 30.32C217.55 31.49 215.83 32.67 214.1 33.84C213.49 34.26 213 34.8 212.8 35.53C212.61 36.21 212.7 37.11 213.09 37.71C213.87 38.93 215.65 39.61 216.96 38.72C219.63 36.9 222.31 35.08 224.98 33.26C227.28 34.48 229.63 35.74 231.92 37.08C228.21 40.14 224.5 43.19 220.79 46.25C219.64 47.19 219.74 49.28 220.79 50.25C222.01 51.37 223.57 51.26 224.79 50.25C228.83 46.92 232.88 43.59 236.92 40.26C237.8 40.87 238.65 41.48 239.46 42.12C240.64 43.06 241.77 44.06 242.84 45.13C240.21 47.2 237.58 49.27 234.95 51.34C234.42 51.76 234.12 52.7 234.12 53.34C234.12 54.03 234.43 54.86 234.95 55.34C235.49 55.83 236.2 56.2 236.95 56.17C237.75 56.13 238.33 55.83 238.95 55.34C241.41 53.4 243.87 51.47 246.33 49.53C246.63 50.04 246.92 50.56 247.18 51.1C247.27 51.28 247.34 51.46 247.43 51.63C247.43 51.63 247.43 51.64 247.44 51.65C247.57 52 247.71 52.36 247.83 52.72C248.11 53.56 248.34 54.42 248.53 55.29C248.61 55.65 248.68 56.02 248.74 56.39C248.77 56.57 248.8 56.76 248.83 56.94C248.83 56.95 248.83 56.96 248.83 56.97C248.93 57.85 249.01 58.74 249.07 59.63C249.52 66.96 249.44 74.36 249.46 81.7C249.51 98.66 249.3 115.63 249.3 132.59V275.76C249.3 280.99 249.49 286.27 249.11 291.49L249.14 291.47Z" fill="#222222"/>
<path d="M216.7 150.63C216.7 150.49 216.7 150.36 216.7 150.23C216.7 150.23 216.7 150.23 216.7 150.22C216.67 150.61 216.69 150.69 216.7 150.64V150.63Z" fill="#222222"/>
<path d="M223 144.3C220.57 137.21 215.27 131.59 208.46 128.5C205.08 126.99 201.69 125.47 198.31 123.96C190.31 120.38 182.32 116.8 174.32 113.22C164.95 109.03 155.58 104.83 146.21 100.64C138.7 97.28 131.19 93.92 123.68 90.56C118.92 88.43 113.87 85.67 108.74 84.7C104.42 83.89 99.9398 84.09 95.8098 85.69C90.9598 87.57 87.1298 90.78 83.1497 94.04C75.6298 100.2 68.1898 106.45 60.8398 112.8C57.5298 115.66 54.0798 118.46 50.9598 121.53C47.7998 124.64 45.4198 128.3 43.7698 132.41C40.9098 139.55 41.2398 147.5 41.3898 155.04C41.5698 164.06 41.3398 173.09 41.2998 182.11C41.2698 189.82 41.2698 197.53 41.2998 205.24C41.3598 219.98 41.5698 234.71 41.7998 249.44C41.8698 253.69 41.7498 257.98 42.1298 262.22C42.4498 265.75 43.0798 269.2 44.6698 272.39C45.9598 274.99 48.1098 277.28 50.6998 278.6C53.6298 280.09 56.8698 280.6 60.1298 280.61C64.7398 280.63 69.3598 280.61 73.9698 280.61H192.15C197.09 280.61 202.03 280.68 206.97 280.59C211.79 280.5 217.15 279.9 220.38 275.87C222.26 273.52 223.29 270.7 223.78 267.75C224.52 263.27 224.42 258.75 224.42 254.23C224.42 237.35 224.42 220.47 224.42 203.59C224.42 192.52 224.42 181.44 224.42 170.37C224.42 166.59 224.42 162.82 224.42 159.04C224.42 154.08 224.61 149.06 222.98 144.29L223 144.3ZM209.7 137.96C209.62 137.89 209.53 137.83 209.45 137.76C209.56 137.83 209.69 137.92 209.7 137.96ZM97.6398 93.03C97.8098 92.95 98.1398 92.84 97.6398 93.03V93.03ZM49.2198 141.36C49.2198 141.36 49.2198 141.41 49.2198 141.43C49.2198 141.4 49.2198 141.38 49.2198 141.36ZM51.0798 268.34C51.0798 268.34 51.0497 268.28 51.0397 268.25C50.7897 267.72 50.9798 268.03 51.0798 268.34ZM216.59 265.3C216.59 265.3 216.58 265.37 216.57 265.4C216.6 265.16 216.66 264.83 216.59 265.3ZM216.83 262.31C216.79 263.16 216.73 264.01 216.64 264.86C216.62 265.04 216.54 265.33 216.55 265.53C216.49 265.89 216.43 266.26 216.36 266.62C216.23 267.28 216.07 267.93 215.87 268.57C215.78 268.86 215.68 269.15 215.58 269.43C215.58 269.45 215.58 269.45 215.57 269.47C215.34 269.94 215.1 270.39 214.81 270.83C214.79 270.85 214.78 270.88 214.76 270.9C214.62 271.06 214.48 271.22 214.33 271.37C214.22 271.48 214.1 271.58 213.98 271.69C213.98 271.69 213.97 271.69 213.96 271.71C213.64 271.92 213.3 272.1 212.95 272.27C212.95 272.27 212.95 272.27 212.94 272.27C212.72 272.35 212.5 272.42 212.28 272.48C211.77 272.63 211.25 272.74 210.73 272.83C210.69 272.83 210.64 272.84 210.6 272.85C210.44 272.87 210.28 272.89 210.12 272.9C209.54 272.95 208.97 272.99 208.39 273.01C207.12 273.06 205.85 273.07 204.58 273.07C202.9 273.07 201.23 273.07 199.55 273.07H65.0598C63.4398 273.07 61.8198 273.07 60.1998 273.07C59.5798 273.07 58.9698 273.05 58.3498 273.01C57.9998 272.99 57.6397 272.92 57.2897 272.91C58.5998 272.96 57.2497 272.89 56.8997 272.82C56.2897 272.69 55.6798 272.53 55.0898 272.33C55.0098 272.3 54.9298 272.27 54.8498 272.24C54.6398 272.14 54.4298 272.04 54.2198 271.93C53.9698 271.79 53.7298 271.65 53.4898 271.49C53.4298 271.45 53.3398 271.37 53.2598 271.31C52.8698 270.95 52.4898 270.59 52.1298 270.19C52.1198 270.17 52.1098 270.16 52.0998 270.14C51.9398 269.89 51.7798 269.65 51.6298 269.4C51.4898 269.16 51.3598 268.92 51.2398 268.68C51.1898 268.57 51.1398 268.47 51.0898 268.36C50.7098 266.95 50.1998 265.62 49.9398 264.16C49.9098 264.01 49.8898 263.85 49.8598 263.7C49.8598 263.7 49.8598 263.7 49.8598 263.69C49.8898 263.36 49.7598 262.94 49.7298 262.62C49.6398 261.68 49.5798 260.74 49.5397 259.8C49.3698 255.55 49.3898 251.29 49.3298 247.04C49.2198 239.56 49.1098 232.07 49.0198 224.59C48.8598 209.97 48.8097 195.35 48.8698 180.73C48.9098 171.9 49.1197 163.05 48.9297 154.22C48.8497 150.52 48.7498 146.82 49.0598 143.13C49.0998 142.69 49.1398 142.25 49.1898 141.82C49.1998 141.73 49.2098 141.62 49.2098 141.52C49.2098 141.5 49.2298 141.43 49.2598 141.26C49.4198 140.31 49.5798 139.37 49.7998 138.44C49.9898 137.63 50.2098 136.83 50.4698 136.04C50.6098 135.62 50.7498 135.21 50.9098 134.8C50.9798 134.62 51.0398 134.42 51.1298 134.24C51.1598 134.19 51.1898 134.13 51.1998 134.1C51.5798 133.27 52.0098 132.47 52.4698 131.68C52.7098 131.28 52.9598 130.88 53.2198 130.49C53.3298 130.33 53.4297 130.17 53.5397 130.02C53.5998 129.93 53.9098 129.53 54.0098 129.39C55.2598 127.86 56.6598 126.48 58.1398 125.17C61.3798 122.29 64.6497 119.45 67.9297 116.62C75.2497 110.32 82.6498 104.12 90.1298 98.02C90.5898 97.64 91.0498 97.27 91.5098 96.9C91.6898 96.75 91.8798 96.6 92.0598 96.45C92.1698 96.36 92.2397 96.3 92.2897 96.26C92.3398 96.23 92.3898 96.19 92.4598 96.14C93.3898 95.46 94.3298 94.81 95.3298 94.24C95.7898 93.97 96.2598 93.72 96.7398 93.47C97.0198 93.33 97.2998 93.2 97.5798 93.07C97.5798 93.07 97.5898 93.07 97.5998 93.07C98.5698 92.71 99.5498 92.37 100.56 92.13C101.01 92.02 101.47 91.94 101.93 91.86C101.98 91.86 101.99 91.84 102.03 91.83C102.17 91.83 102.32 91.83 102.43 91.82C103.38 91.75 104.33 91.75 105.28 91.82C105.55 91.84 105.82 91.87 106.09 91.89C106.17 91.89 106.24 91.89 106.3 91.89C106.63 91.94 106.99 92.05 107.26 92.11C108.27 92.32 109.27 92.6 110.25 92.94C110.66 93.08 111.07 93.23 111.48 93.38C111.69 93.46 111.92 93.53 112.12 93.63C112.16 93.65 112.19 93.67 112.22 93.68C112.28 93.71 112.34 93.73 112.4 93.76C112.52 93.81 112.63 93.86 112.75 93.91C113.31 94.16 113.86 94.41 114.42 94.66C120.07 97.19 125.72 99.72 131.37 102.24C140.22 106.2 149.06 110.16 157.91 114.12C166.77 118.09 175.64 122.05 184.5 126.02C190.39 128.65 196.27 131.29 202.16 133.92C202.99 134.29 203.82 134.66 204.65 135.04C206.28 135.78 207.84 136.65 209.29 137.69C209.32 137.71 209.37 137.74 209.43 137.78C209.53 137.86 209.62 137.93 209.71 138.01C210 138.24 210.28 138.48 210.55 138.73C211.19 139.3 211.79 139.91 212.36 140.55C212.41 140.61 212.71 140.89 212.92 141.14C212.92 141.15 212.94 141.22 213.07 141.4C213.19 141.57 213.31 141.73 213.42 141.9C213.93 142.64 214.4 143.42 214.81 144.22C214.98 144.55 215.14 144.89 215.3 145.23C215.34 145.31 215.37 145.37 215.4 145.41C215.44 145.53 215.47 145.66 215.49 145.73C215.81 146.57 216.07 147.44 216.28 148.31C216.39 148.74 216.48 149.17 216.56 149.6C216.6 149.81 216.64 150.02 216.67 150.24C216.67 150.22 216.67 150.22 216.67 150.2C216.67 150.22 216.67 150.24 216.67 150.25C216.7 150.41 216.68 150.59 216.67 150.64C216.68 151.45 216.86 152.32 216.87 153.12C216.88 153.91 216.87 154.7 216.87 155.49C216.87 157.04 216.87 158.6 216.87 160.15C216.87 168.9 216.87 177.64 216.87 186.39C216.87 200.17 216.87 213.95 216.87 227.73C216.87 236.94 216.87 246.15 216.87 255.36C216.87 257.68 216.91 260.01 216.81 262.34L216.83 262.31Z" fill="#222222"/>
<path d="M9.50976 11.14C9.48976 11.25 9.46977 11.35 9.43977 11.46C9.46977 11.39 9.48977 11.28 9.51977 11.12C9.51977 11.12 9.51977 11.13 9.51977 11.14L9.50976 11.14Z" fill="#222222"/>
<path d="M11.6298 28.33C11.7198 28.34 11.8098 28.36 11.9098 28.38C11.8398 28.36 11.7398 28.34 11.6198 28.32C11.6198 28.32 11.6198 28.32 11.6298 28.32V28.33Z" fill="#222222"/>
<path d="M79.1598 8.98003C79.1598 8.98003 79.1498 8.98002 79.1398 8.97002C79.0998 8.95002 79.0698 8.93003 79.0298 8.91003C79.0598 8.95003 79.1498 9.01002 79.2198 9.04002C79.1998 9.02002 79.1798 9.00003 79.1598 8.98003Z" fill="#222222"/>
<path d="M78.6998 28.15C78.6998 28.15 78.7298 28.13 78.7398 28.13C78.7898 28.1 78.8998 28.01 78.9898 27.96C78.9998 27.95 79.0198 27.93 79.0298 27.92C78.8498 27.97 78.7298 28.1 78.6998 28.16V28.15Z" fill="#222222"/>
<path d="M77.9698 28.46C78.0998 28.41 78.2298 28.37 78.3598 28.33C78.3598 28.33 78.3698 28.33 78.3798 28.32C78.0898 28.38 77.9698 28.43 77.9698 28.46Z" fill="#222222"/>
<path d="M151.21 40.33C151.1 40.4 150.98 40.47 150.86 40.53C150.91 40.52 151.02 40.45 151.22 40.33C151.22 40.33 151.22 40.33 151.21 40.33Z" fill="#222222"/>
<path d="M218.3 56.18C215.29 53.97 211.76 52.58 208.37 51.07C199.3 47.04 190.24 42.99 181.17 38.95C172.35 35.02 163.04 30.42 153.1 31.99C149.1 32.63 145.32 34.58 142.09 36.97C137.92 40.06 134.33 43.78 131.01 47.76C130.76 48 130.54 48.26 130.36 48.59C130.13 49.03 129.98 49.54 129.93 50.06C129.79 50.93 129.93 51.83 130.45 52.58C130.75 53.07 131.15 53.48 131.71 53.74C142.71 58.88 153.71 64.02 164.71 69.16C176.33 74.59 187.95 80.02 199.56 85.45C206.4 88.65 213.24 91.84 220.08 95.04C221.21 95.57 222.26 95.72 223.44 95.23C224.42 94.82 225.45 93.91 225.62 92.79C226.37 87.97 226.95 83.1 226.99 78.22C227.02 74.11 226.73 69.8 225.45 65.87C224.13 61.81 221.73 58.69 218.3 56.17V56.18ZM214.6 62.76C214.54 62.72 214.48 62.68 214.44 62.64C214.49 62.67 214.55 62.71 214.6 62.76ZM154.81 39.32C154.87 39.32 154.93 39.31 154.99 39.3C154.76 39.33 154.25 39.37 154.81 39.32ZM187.96 71.76C176.61 66.46 165.27 61.15 153.92 55.85C149.19 53.64 144.46 51.43 139.73 49.22C141.46 47.36 143.28 45.6 145.24 43.99C145.4 43.86 145.55 43.74 145.71 43.61C145.71 43.61 145.71 43.61 145.73 43.6C145.74 43.6 145.75 43.58 145.77 43.57C146.12 43.32 146.47 43.06 146.82 42.81C147.58 42.29 148.35 41.79 149.16 41.34C149.7 41.04 150.31 40.81 150.86 40.52C150.78 40.55 150.9 40.44 151.07 40.37C151.12 40.35 151.16 40.33 151.21 40.32C151.23 40.31 151.25 40.3 151.27 40.29C151.25 40.3 151.24 40.31 151.23 40.32C151.38 40.26 151.52 40.21 151.67 40.15C152.1 39.99 152.53 39.85 152.97 39.73C153.28 39.64 153.6 39.56 153.92 39.49C154.13 39.44 154.88 39.41 155.08 39.28C155.15 39.28 155.23 39.26 155.3 39.26C155.93 39.21 156.56 39.19 157.19 39.19C158.22 39.19 159.24 39.27 160.26 39.38C160.31 39.38 160.37 39.4 160.44 39.41C160.66 39.45 160.89 39.49 161.12 39.53C161.74 39.64 162.36 39.78 162.97 39.93C165.05 40.44 167.09 41.12 169.09 41.89C169.63 42.1 170.18 42.32 170.72 42.54C170.86 42.6 171.01 42.66 171.15 42.72C171.23 42.75 171.38 42.82 171.43 42.84C172.5 43.3 173.56 43.77 174.62 44.24C183.28 48.1 191.95 51.96 200.61 55.82C204.14 57.39 207.78 58.84 211.2 60.65C211.94 61.04 212.67 61.46 213.37 61.91C213.76 62.16 214.13 62.42 214.5 62.69C214.61 62.77 214.66 62.81 214.7 62.83C214.81 62.93 214.91 63.04 215.01 63.12C215.41 63.47 216.17 64.03 216.53 64.56C216.55 64.63 216.6 64.74 216.67 64.85C216.8 65.04 216.92 65.22 217.04 65.42C217.26 65.77 217.46 66.14 217.64 66.51C217.71 66.65 217.77 66.78 217.83 66.92C217.83 66.92 217.83 66.92 217.83 66.94C217.98 67.38 218.15 67.81 218.28 68.26C218.56 69.16 218.77 70.08 218.94 71.01C218.98 71.24 219.02 71.47 219.06 71.71C219.07 71.79 219.15 72.35 219.16 72.39C219.17 72.49 219.18 72.58 219.18 72.59C219.21 72.89 219.24 73.19 219.27 73.49C219.36 74.53 219.41 75.57 219.43 76.62C219.48 79.03 219.37 81.45 219.18 83.85C219.11 84.65 219.02 85.45 218.94 86.25C208.62 81.43 198.29 76.6 187.97 71.78L187.96 71.76Z" fill="#222222"/>
<path d="M161.56 179.08C158.17 172.68 154.12 166.69 149.69 160.97C145.39 155.42 140.71 150.15 135.59 145.34C134.08 143.92 131.77 143.89 130.26 145.34C126.32 149.11 122.75 153.27 119.34 157.52C115.33 162.51 111.5 167.66 108.05 173.05C104.82 178.08 101.98 183.35 100.19 189.08C97.9598 196.22 97.3398 203.85 98.7198 211.21C101.26 224.73 112.13 235.77 125.55 238.74C139.07 241.73 153.02 235.95 161.21 224.96C169.88 213.33 169.3 197.11 163.94 184.23C163.21 182.48 162.43 180.76 161.55 179.07L161.56 179.08ZM143.07 230C143.18 229.95 143.38 229.86 143.38 229.87C143.38 229.87 143.25 229.93 143.07 230ZM160.3 205.26C160.26 206.03 160.2 206.8 160.12 207.57C160.11 207.7 160.09 207.84 160.07 207.98C160.07 208.02 160.06 208.05 160.05 208.1C159.98 208.5 159.92 208.91 159.84 209.31C159.53 210.92 159.11 212.51 158.56 214.06C158.44 214.4 158.32 214.74 158.18 215.07C158.16 215.12 158.1 215.27 158.06 215.38C158.05 215.41 158.03 215.44 158.03 215.45C157.68 216.23 157.31 217 156.89 217.75C156.28 218.86 155.61 220.06 154.79 221.06C154.79 221.06 154.75 221.11 154.6 221.28C154.48 221.42 154.37 221.57 154.25 221.71C154.04 221.96 153.83 222.21 153.61 222.45C153.08 223.04 152.53 223.61 151.97 224.16C151.5 224.61 151.02 225.05 150.52 225.48C150.24 225.72 149.95 225.96 149.66 226.19C149.65 226.19 149.64 226.21 149.62 226.22C149.48 226.33 149.33 226.43 149.19 226.53C148.02 227.38 146.79 228.14 145.51 228.82C144.89 229.15 144.26 229.46 143.63 229.75C143.46 229.83 143.29 229.9 143.12 229.98C143.09 229.99 143.07 230 143.05 230.01C142.69 230.15 142.14 230.34 142.07 230.37C140.71 230.86 139.32 231.25 137.9 231.54C137.58 231.61 137.26 231.67 136.94 231.72C136.71 231.76 135.54 232.04 136.56 231.79C135.86 231.96 135.05 231.95 134.33 231.99C132.89 232.06 131.44 232.02 130 231.88C129.85 231.86 129.69 231.85 129.54 231.83C129.24 231.78 128.95 231.74 128.65 231.68C127.87 231.54 127.1 231.37 126.33 231.16C125.65 230.98 124.98 230.78 124.32 230.56C124.01 230.46 123.7 230.35 123.4 230.23C123.23 230.17 123.05 230.1 122.88 230.03C122.75 229.98 122.67 229.95 122.62 229.93C121.37 229.43 120.16 228.75 119.02 228.07C118.42 227.71 117.83 227.33 117.25 226.94C116.94 226.73 116.64 226.51 116.34 226.29C116.29 226.26 116.25 226.23 116.21 226.21C116.14 226.14 116.06 226.07 116 226.02C114.84 225.08 113.75 224.06 112.73 222.97C112.25 222.46 111.79 221.93 111.35 221.39C111.28 221.3 111.23 221.24 111.2 221.2C111.19 221.18 111.19 221.18 111.17 221.16C110.92 220.82 110.68 220.48 110.44 220.14C109.62 218.94 108.88 217.67 108.25 216.36C108.1 216.06 107.97 215.76 107.83 215.45C107.8 215.37 107.56 214.78 107.51 214.64C107.22 213.85 106.95 213.06 106.72 212.25C106.5 211.49 106.31 210.73 106.15 209.96C106.07 209.6 106 209.24 105.94 208.88C105.9 208.67 105.87 208.47 105.83 208.26C105.83 208.26 105.78 207.91 105.76 207.75C105.76 207.66 105.74 207.58 105.74 207.55C105.72 207.34 105.7 207.13 105.68 206.92C105.65 206.55 105.62 206.19 105.59 205.82C105.54 204.98 105.51 204.13 105.51 203.29C105.51 201.68 105.63 200.08 105.8 198.49C105.81 198.38 105.87 197.96 105.89 197.79C105.96 197.37 106.03 196.95 106.11 196.53C106.27 195.69 106.45 194.85 106.65 194.02C107.04 192.41 107.52 190.82 108.08 189.26C108.34 188.52 108.63 187.79 108.93 187.06C108.99 186.92 109.13 186.59 109.19 186.46C109.32 186.16 109.46 185.87 109.6 185.58C110.63 183.42 111.81 181.33 113.06 179.28C114.52 176.87 116.08 174.51 117.69 172.2C118.53 171 119.38 169.81 120.25 168.63C120.7 168.02 121.16 167.4 121.61 166.8C121.81 166.53 122.01 166.27 122.21 166C122.33 165.84 123.15 164.76 122.58 165.52C125.8 161.27 129.28 157.17 132.97 153.32C136.94 157.28 140.66 161.5 144.09 165.94C144.23 166.13 144.57 166.57 144.62 166.63C144.9 166.99 145.17 167.36 145.44 167.73C145.91 168.37 146.38 169.02 146.85 169.67C147.9 171.14 148.92 172.64 149.91 174.15C151.76 176.99 153.49 179.9 155.07 182.89C155.43 183.58 155.78 184.28 156.12 184.99C156.3 185.37 156.47 185.75 156.64 186.13C156.7 186.27 156.76 186.42 156.83 186.56C156.47 185.76 156.89 186.72 156.94 186.82C157.55 188.33 158.09 189.87 158.56 191.44C159.02 193 159.41 194.59 159.72 196.18C159.8 196.59 159.87 197 159.94 197.42C159.97 197.63 160 197.83 160.04 198.04C160.04 198.05 160.04 198.07 160.04 198.1C160.05 198.22 160.08 198.38 160.08 198.44C160.1 198.65 160.13 198.85 160.15 199.06C160.2 199.53 160.24 199.99 160.27 200.46C160.38 202.06 160.4 203.67 160.32 205.27L160.3 205.26Z" fill="#222222"/>
<path d="M125.2 217.14C124.65 216.88 124.11 216.59 123.6 216.25C123.48 216.17 123.37 216.09 123.26 216.01C123.08 215.8 122.8 215.63 122.6 215.44C122.15 215.02 121.8 214.51 121.36 214.09C121.38 214.11 121.4 214.12 121.41 214.14C121.39 214.12 121.37 214.09 121.36 214.07C121.29 213.97 121.22 213.87 121.15 213.77C120.96 213.49 120.79 213.2 120.62 212.91C120.47 212.64 120.33 212.37 120.2 212.09C120.17 212.03 120.15 211.99 120.14 211.96C120.1 211.86 120.07 211.77 120.06 211.76C119.85 211.19 119.68 210.6 119.55 210C119.52 209.85 119.49 209.7 119.46 209.55C119.44 209.44 119.31 208.92 119.43 209.38C119.54 209.84 119.43 209.33 119.43 209.21C119.42 209.06 119.41 208.91 119.4 208.75C119.37 208.11 119.4 207.47 119.47 206.83C119.64 205.36 118.05 203.94 116.64 204C114.96 204.08 114 205.25 113.81 206.83C113.1 212.92 116.78 219.43 122.34 221.99C123.68 222.61 125.45 222.41 126.21 220.98C126.87 219.73 126.63 217.77 125.2 217.11V217.14ZM120.15 212C120.19 212.08 120.24 212.21 120.23 212.21C120.23 212.21 120.19 212.11 120.15 212ZM123.25 216.02C123.25 216.02 123.18 215.97 123.15 215.95C122.87 215.75 123.14 215.91 123.25 216.02Z" fill="#222222"/>
<path d="M121.41 214.16C121.55 214.33 121.76 214.5 121.41 214.16V214.16Z" fill="#222222"/>
<path d="M240.24 283.04C239.51 283.07 238.75 283.31 238.24 283.87C237.72 284.44 237.52 285.05 237.42 285.8C237.44 285.65 237.46 285.51 237.48 285.36C237.38 286.04 237.19 286.7 236.95 287.34C236.69 287.9 236.37 288.43 236.01 288.94C235.59 289.44 235.13 289.91 234.63 290.33C234.11 290.7 233.56 291.03 232.97 291.3C232.36 291.52 231.74 291.7 231.09 291.8C230.44 291.9 229.72 292.56 229.4 293.1C229.05 293.71 228.89 294.6 229.11 295.28C229.33 295.96 229.76 296.62 230.41 296.97C231.13 297.35 231.79 297.38 232.59 297.26C235.19 296.87 237.69 295.43 239.49 293.54C240.39 292.6 241.2 291.51 241.77 290.33C242.47 288.87 242.85 287.48 243.04 285.88C243.12 285.21 242.67 284.34 242.21 283.88C241.72 283.39 240.91 283.02 240.21 283.05L240.24 283.04Z" fill="#222222"/>
<path d="M61.1798 132.59C57.5498 136.1 55.4698 141.14 55.5798 146.19C55.6098 147.67 56.8598 149.09 58.4098 149.02C59.9098 148.95 61.2698 147.78 61.2398 146.19C61.2298 145.69 61.2398 145.19 61.2698 144.69C61.2698 144.57 61.2898 144.44 61.2998 144.32C61.2998 144.3 61.3098 144.2 61.3198 144.11C61.3198 144.09 61.3198 144.07 61.3198 144.06C61.3398 143.94 61.3598 143.81 61.3898 143.69C61.4798 143.2 61.5998 142.71 61.7398 142.24C61.8798 141.76 62.1398 141.27 62.2498 140.78C62.2798 140.71 62.3198 140.63 62.3498 140.56C62.4598 140.33 62.5698 140.11 62.6898 139.89C62.9198 139.45 63.1798 139.02 63.4598 138.6C63.5998 138.4 63.7398 138.2 63.8798 138C63.9498 137.92 64.0098 137.84 64.0798 137.76C64.4198 137.35 64.7898 136.97 65.1698 136.6C66.2398 135.57 66.2798 133.62 65.1698 132.6C64.0298 131.55 62.3098 131.5 61.1698 132.6L61.1798 132.59ZM62.1998 140.89C62.1998 140.89 62.2398 140.81 62.2498 140.78C62.1998 140.94 62.0498 141.21 62.1998 140.89Z" fill="#222222"/>
<path d="M208.98 253.02C207.57 252.7 205.82 253.45 205.5 255C205.34 255.77 205.1 256.53 204.81 257.26C204.44 258.06 203.99 258.83 203.47 259.55C202.91 260.24 202.3 260.88 201.61 261.45C201.08 261.89 200.78 262.79 200.78 263.45C200.78 264.14 201.09 264.97 201.61 265.45C202.15 265.94 202.86 266.31 203.61 266.28C204.4 266.24 205.01 265.96 205.61 265.45C208.29 263.21 210.24 259.93 210.95 256.51C211.11 255.76 211.06 255 210.66 254.33C210.32 253.74 209.64 253.18 208.97 253.03L208.98 253.02Z" fill="#222222"/>
<path d="M165.86 84.78C167.92 85.75 169.97 86.71 172.03 87.68C172.73 88.01 173.44 88.18 174.21 87.97C174.87 87.79 175.58 87.28 175.9 86.67C176.25 86.01 176.42 85.22 176.19 84.49C175.97 83.82 175.55 83.11 174.89 82.8C172.83 81.83 170.78 80.87 168.72 79.9C168.02 79.57 167.31 79.4 166.54 79.61C165.88 79.79 165.17 80.3 164.85 80.91C164.5 81.57 164.33 82.36 164.56 83.09C164.78 83.75 165.2 84.47 165.86 84.78Z" fill="#222222"/>
</svg>
