<svg width="32" height="40" viewBox="0 0 32 40" fill="none" xmlns="http://www.w3.org/2000/svg">
<path d="M13.2723 2.00045C13.2164 1.99326 13.2407 1.99686 13.2723 2.00045V2.00045Z" fill="#222222"/>
<path d="M10.8527 12.0041C10.8746 12.0964 10.8782 12.0748 10.866 12.0377C10.8636 12.0317 10.8624 12.0269 10.86 12.0209C10.8575 12.0149 10.8551 12.0101 10.8527 12.0041Z" fill="#222222"/>
<path d="M10.584 11.7058C10.6119 11.7286 10.6314 11.7454 10.584 11.7058V11.7058Z" fill="#222222"/>
<path d="M10.7992 11.9167C10.7214 11.8412 10.7688 11.8771 10.7992 11.9167V11.9167Z" fill="#222222"/>
<path d="M12.4248 17.5001C12.4285 17.5073 12.4309 17.5157 12.4333 17.524C12.4333 17.5264 12.4358 17.5276 12.4358 17.53C12.4102 17.4438 12.4139 17.4689 12.4236 17.5001H12.4248Z" fill="#222222"/>
<path d="M8.95345 2.41492C8.95345 2.41492 8.95102 2.41492 8.9498 2.41612C8.91819 2.4281 8.85253 2.46763 8.95345 2.41492Z" fill="#222222"/>
<path d="M19.5815 17.9217C19.5925 17.9074 19.6034 17.893 19.6156 17.8822C19.6156 17.8822 19.6168 17.8798 19.618 17.8786C19.5706 17.9146 19.5682 17.9301 19.5815 17.9217Z" fill="#222222"/>
<path d="M13.0984 18.2224C13.1349 18.2392 13.1957 18.2464 13.0984 18.2224V18.2224Z" fill="#222222"/>
<path d="M7.28038 4.27526C7.28038 4.27526 7.28038 4.27526 7.28038 4.27646C7.3351 4.17105 7.29254 4.24651 7.28038 4.27526Z" fill="#222222"/>
<path d="M31.4899 37.3984C31.4547 36.9037 31.2905 36.4221 30.9951 36.0196C30.3312 35.1128 29.2612 34.5977 28.184 34.3294C27.4423 34.1449 26.6714 34.0658 25.9078 34.0635H25.1856C25.188 33.8682 25.1856 33.6741 25.1649 33.4825C25.1029 32.9458 24.9047 32.4726 24.5606 32.0534C23.8943 31.24 22.7708 30.9034 21.7446 30.8998C20.7366 30.8962 19.7299 30.8998 18.7219 30.8998C18.7243 29.3773 18.728 27.8547 18.7328 26.3322C18.7377 24.7534 18.7414 23.1745 18.7414 21.5945C18.7414 20.8267 18.7389 20.06 18.7365 19.2921C19.1244 19.2346 19.5074 19.1328 19.8369 18.9148C20.1907 18.6812 20.4558 18.3554 20.6248 17.9721C20.812 17.5504 20.9141 17.106 21.0102 16.6568C21.0418 16.5058 21.0746 16.3561 21.1075 16.2052C21.1148 16.1812 21.1208 16.156 21.1233 16.1309C21.2011 15.7691 21.2789 15.4074 21.3519 15.0444C21.5914 13.8657 21.775 12.6773 21.8686 11.4794C21.955 10.3738 21.9829 9.2765 21.7701 8.18281C21.4382 6.47461 20.5348 4.90296 19.2411 3.72183C17.9972 2.58503 16.4433 1.79801 14.8067 1.37275C13.2261 0.961871 11.5457 0.875622 9.93953 1.18947C9.58571 1.25895 9.23675 1.34999 8.8963 1.46499C8.43791 1.61952 8.03545 1.83634 7.66825 2.14779C6.96182 2.74554 6.50343 3.60683 6.22378 4.46932C5.95628 5.29587 5.8274 6.20508 5.91616 7.07236C5.95628 7.46527 6.0341 7.84261 6.18852 8.20677C6.39279 8.68833 6.66758 9.12436 7.02505 9.51128C7.5953 10.1306 8.33699 10.563 9.09206 10.926C9.41427 11.0805 9.74134 11.2255 10.0587 11.3896C10.1937 11.4591 10.3274 11.5333 10.4551 11.616C10.4843 11.6352 10.5146 11.6543 10.5438 11.6747C10.5548 11.6819 10.5706 11.6951 10.5852 11.707C10.5754 11.6987 10.5621 11.6879 10.5463 11.6735C10.5998 11.719 10.6557 11.7621 10.7055 11.8113C10.7457 11.8508 10.7785 11.8975 10.8186 11.9358C10.8113 11.9286 10.8052 11.9239 10.7992 11.9167C10.8016 11.9203 10.804 11.9239 10.8065 11.9263C10.8223 11.9502 10.8381 11.9754 10.8514 12.0017C10.8514 12.0017 10.8514 12.0029 10.8514 12.0041C10.8502 11.9981 10.849 11.9909 10.8466 11.9838C10.849 11.9957 10.8539 12.0077 10.8587 12.0197C10.8612 12.0257 10.8636 12.0317 10.8648 12.0365C10.8685 12.046 10.8733 12.0556 10.8758 12.0652C10.8843 12.0928 10.8904 12.1203 10.8964 12.1491C10.9828 13.1637 11.0423 14.1807 11.1214 15.1965C11.153 15.599 11.1919 16.0015 11.2393 16.4016C11.2965 16.8772 11.3646 17.3599 11.5506 17.8067C11.7427 18.2667 12.0321 18.6656 12.4686 18.9292C12.6425 19.0346 12.8261 19.1077 13.0145 19.1616C13.0206 20.6613 13.0206 22.1599 13.0182 23.6597C13.0157 25.2589 13.0097 26.8569 13.0048 28.4561C13.0024 29.2707 13.0011 30.084 12.9999 30.8986H10.4563C9.64529 30.8986 8.84523 31.0567 8.15704 31.4999C7.71567 31.7839 7.31808 32.1696 7.08584 32.6427C6.95331 32.9147 6.87549 33.1854 6.8378 33.4837C6.81348 33.6753 6.81591 33.8694 6.81835 34.0623H6.18852C4.86441 34.0623 3.50383 34.321 2.33901 34.9643C1.76025 35.2841 1.22161 35.719 0.872649 36.282C0.718231 36.5311 0.600289 36.8138 0.548006 37.1013C0.485995 37.4487 0.501802 37.8009 0.501802 38.1531V38.5232C0.501802 38.7712 0.714583 38.9808 0.967488 38.982C2.85698 38.9868 4.74647 38.9916 6.63596 38.994C8.61421 38.9976 10.5925 38.9988 12.5707 39C14.583 39 16.5965 39 18.6088 39C20.6017 39 22.5945 38.9976 24.5861 38.994C26.5048 38.9916 28.4223 38.988 30.3409 38.9832C30.5695 38.9832 30.7981 38.9832 31.0267 38.982C31.2784 38.982 31.4924 38.7724 31.4924 38.5232C31.4924 38.1495 31.5131 37.771 31.4863 37.3984H31.4899ZM23.8967 32.6943C23.8967 32.6943 23.9004 32.6978 23.9016 32.7002C23.9356 32.7398 23.915 32.7158 23.8967 32.6943ZM23.0067 32.0438C22.9994 32.0414 22.9933 32.039 22.9933 32.039C22.9933 32.039 22.9994 32.0402 23.0067 32.0438ZM12.2473 1.91899C12.4418 1.92498 12.6364 1.93696 12.8309 1.95253C12.9209 1.95972 13.0097 1.9693 13.0996 1.97889C13.1483 1.98488 13.1969 1.98967 13.2468 1.99566C13.2711 1.99925 13.2954 2.00165 13.3197 2.00524C13.3003 2.00285 13.2844 2.00165 13.2723 1.99925C13.2893 2.00165 13.3075 2.00404 13.3185 2.00524C14.1003 2.11665 14.87 2.30951 15.6104 2.58263C15.6968 2.61497 15.7819 2.64732 15.8682 2.68206C15.9035 2.69643 16.0676 2.76711 15.9193 2.70242C15.9655 2.72278 16.0117 2.74195 16.0579 2.76112C16.2415 2.84138 16.4239 2.92643 16.6026 3.01747C16.8081 3.12168 17.0099 3.23429 17.2081 3.35168C17.0622 3.49423 16.9175 3.63558 16.7716 3.77813C16.7084 3.84042 16.6695 3.93386 16.6695 4.02131C16.6695 4.10876 16.7072 4.20579 16.7716 4.26448C16.8385 4.32438 16.9248 4.3687 17.0184 4.36511C17.1108 4.36151 17.1984 4.33037 17.2653 4.26448C17.444 4.08959 17.624 3.9135 17.8027 3.7386C17.8234 3.75298 17.8428 3.76616 17.8635 3.78053C17.9036 3.80928 17.9449 3.83923 17.9851 3.86917C18.0009 3.88115 18.0167 3.89193 18.0313 3.90391C18.1881 4.0261 18.3425 4.15188 18.4909 4.28485C18.514 4.30521 18.5371 4.32797 18.5602 4.34833C18.2939 4.57114 18.0276 4.79276 17.7601 5.01557C17.6957 5.06947 17.658 5.17728 17.658 5.25874C17.658 5.3402 17.6957 5.44322 17.7601 5.50191C17.827 5.56181 17.9133 5.60613 18.007 5.60254C18.1042 5.59775 18.1796 5.56301 18.2538 5.50191C18.5201 5.2791 18.7876 5.05749 19.0538 4.83468C19.1475 4.93531 19.2399 5.03713 19.3286 5.14254C19.3554 5.17489 19.3821 5.20723 19.4089 5.23957C19.432 5.26832 19.539 5.41087 19.4454 5.2839C19.5049 5.36535 19.5682 5.44441 19.6265 5.52587C19.6557 5.5666 19.6825 5.60733 19.7104 5.64806C19.7019 5.65524 19.6922 5.66123 19.6837 5.66962C19.5074 5.84332 19.3298 6.01821 19.1535 6.1919C19.0903 6.2542 19.0514 6.34643 19.0514 6.43508C19.0514 6.52372 19.0891 6.61955 19.1535 6.67825C19.2204 6.73815 19.3067 6.78247 19.4004 6.77887C19.4928 6.77528 19.5803 6.74414 19.6472 6.67825C19.7931 6.5345 19.939 6.39076 20.0849 6.24701C20.1445 6.35362 20.2029 6.46143 20.2576 6.57164C20.3001 6.65669 20.3403 6.74174 20.3792 6.82919C20.395 6.86273 20.4594 7.03163 20.4059 6.88669C20.4278 6.94418 20.4533 6.99929 20.4752 7.05679C20.6296 7.4485 20.7512 7.85339 20.84 8.26427C20.8631 8.37328 20.885 8.48229 20.9032 8.5913C20.9117 8.63802 20.919 8.68354 20.9263 8.73025C20.9312 8.75781 20.9348 8.78656 20.9385 8.81411C20.9385 8.8165 20.9385 8.8177 20.9385 8.8201C20.9385 8.82489 20.9385 8.82848 20.9397 8.83327C20.9689 9.06447 20.9883 9.29566 20.9993 9.52806C21.026 10.0971 20.9932 10.6673 20.9543 11.2351C20.9324 11.5525 20.9056 11.87 20.8716 12.1862C20.857 12.324 20.8412 12.4605 20.8242 12.5983C20.8157 12.6713 20.8059 12.7444 20.7962 12.8175C20.7962 12.8223 20.7938 12.8355 20.7926 12.8486C20.7926 12.8462 20.7926 12.8438 20.7926 12.8403C20.7865 12.8882 20.7792 12.9361 20.7719 12.9828C20.6406 13.8992 20.4509 14.8048 20.2588 15.7104C20.2296 15.7116 20.2016 15.714 20.1725 15.714C20.1384 15.714 20.1031 15.7128 20.0691 15.7104C20.0642 15.7104 20.0594 15.7104 20.0545 15.7092C20.0399 15.6984 19.9731 15.6948 19.9572 15.6913C19.9135 15.6805 19.8697 15.6685 19.8271 15.6541C19.8198 15.6517 19.8113 15.6493 19.804 15.6457C19.7846 15.6314 19.7396 15.6182 19.7226 15.6098C19.6642 15.5798 19.6107 15.5451 19.556 15.5104C19.5463 15.5032 19.5341 15.4948 19.5305 15.4912C19.5013 15.4672 19.4745 15.4409 19.4478 15.4145C19.4271 15.3942 19.4077 15.3726 19.3882 15.3511C19.3797 15.3391 19.3675 15.3235 19.3639 15.3187C19.3213 15.2576 19.2836 15.1941 19.2496 15.127C19.2387 15.1055 19.2168 15.0528 19.2143 15.0516C19.2034 15.0228 19.1912 14.9929 19.1815 14.9641C19.1572 14.8935 19.1377 14.8216 19.1207 14.7497C19.1122 14.7138 19.1049 14.6766 19.0976 14.6395C19.094 14.6215 19.0903 14.6024 19.0879 14.5844C19.0879 14.5796 19.0842 14.5592 19.0806 14.5413C19.0782 14.5221 19.0721 14.4742 19.0709 14.4634C19.0672 14.4263 19.0636 14.3879 19.0611 14.3508C19.0551 14.2693 19.0514 14.1879 19.049 14.1052C19.0441 13.9196 19.0465 13.7339 19.0526 13.5494C19.0782 12.7744 19.1779 12.0041 19.2338 11.2315C19.2873 10.5008 19.2873 9.77602 19.1815 9.0489C19.0818 8.36849 18.8617 7.68928 18.4848 7.1059C18.1115 6.52612 17.6033 6.05654 17.033 5.66842C15.8998 4.89697 14.5563 4.51604 13.2832 4.03089C13.2018 3.99975 13.1203 3.9686 13.0388 3.93626C13.0011 3.92188 12.9647 3.90631 12.927 3.89194C12.9112 3.88595 12.8662 3.86678 12.8492 3.85959C12.696 3.7949 12.5452 3.72902 12.3956 3.65834C12.0892 3.5134 11.7889 3.35288 11.5032 3.1696C11.4314 3.12288 11.3597 3.07616 11.2892 3.02705C11.2588 3.00549 11.2296 2.98273 11.1992 2.96236C11.2721 3.01387 11.187 2.95278 11.1615 2.93122C11.1044 2.8845 11.0484 2.83539 10.9961 2.78268C10.9657 2.75273 10.9353 2.72159 10.9074 2.68924C10.8977 2.67846 10.8879 2.66648 10.8782 2.6557C10.8782 2.6557 10.8782 2.6557 10.8782 2.65331C10.86 2.62216 10.8369 2.59341 10.8174 2.56227C10.8065 2.5443 10.7736 2.46763 10.7797 2.49279C10.7773 2.4832 10.7748 2.47602 10.7736 2.47242C10.77 2.45805 10.7676 2.44367 10.7627 2.4293C10.7627 2.4281 10.7627 2.4269 10.7627 2.42571C10.759 2.36701 10.7566 2.30951 10.7615 2.24961C10.7615 2.24362 10.7651 2.22685 10.7663 2.21368C10.7724 2.18253 10.7785 2.15139 10.787 2.12024C10.7955 2.0867 10.8065 2.05316 10.8174 2.02081C10.8198 2.01363 10.8235 2.00285 10.8271 1.99206C10.8271 1.99087 10.8283 1.98967 10.8296 1.98727C10.832 1.98368 10.8332 1.98009 10.8356 1.97649C10.9317 1.96571 11.0278 1.95733 11.1238 1.94894C11.4971 1.92019 11.8728 1.91181 12.2485 1.92378L12.2473 1.91899ZM12.8346 18.0679C12.8224 18.0571 12.809 18.0463 12.7969 18.0355C12.7604 18.0032 12.7264 17.9697 12.6935 17.9349C12.6777 17.917 12.6607 17.9002 12.6461 17.8822C12.6425 17.8786 12.6412 17.8762 12.6388 17.8738C12.589 17.8043 12.5428 17.7325 12.5014 17.6582C12.4783 17.6163 12.4576 17.5744 12.4382 17.5312C12.4382 17.5348 12.4406 17.5372 12.4418 17.542C12.4406 17.536 12.4382 17.5312 12.4358 17.5252C12.4321 17.5181 12.4297 17.5109 12.4272 17.5025C12.4224 17.4917 12.4175 17.4809 12.4139 17.4701C12.3361 17.2665 12.2826 17.0533 12.2412 16.84C12.2205 16.7334 12.2047 16.6256 12.1877 16.519C12.1841 16.4903 12.1804 16.4615 12.1768 16.4328C12.1695 16.3705 12.1622 16.307 12.1549 16.2447C12.0637 15.4481 12.0175 14.6491 11.9616 13.8501C11.9226 13.2799 11.8777 12.7097 11.8302 12.1395C11.829 12.1239 11.8266 12.1083 11.8242 12.0916C11.784 11.7585 11.6515 11.4722 11.4205 11.2207C11.2162 10.9991 10.9499 10.829 10.6873 10.6828C10.0587 10.3354 9.38266 10.0803 8.76377 9.71493C8.59476 9.6143 8.4294 9.50769 8.27012 9.39269C8.25431 9.38072 8.23851 9.36874 8.22148 9.35676C8.18136 9.32441 8.14123 9.29327 8.10111 9.25973C8.02086 9.19384 7.94426 9.12436 7.86887 9.05249C7.79957 8.98541 7.73148 8.91593 7.66582 8.84525C7.62934 8.80572 7.59408 8.76499 7.56004 8.72427C7.54423 8.7051 7.52721 8.68473 7.5114 8.66557C7.50775 8.66078 7.50289 8.65479 7.49803 8.6476C7.3655 8.47031 7.24756 8.28104 7.14785 8.08459C7.12353 8.03667 7.09922 7.98756 7.07733 7.93844C7.07368 7.92886 7.06882 7.92047 7.06517 7.91089C7.04572 7.86537 7.04815 7.87376 7.07612 7.93724C7.06031 7.91808 7.05058 7.87615 7.04085 7.85219C7.00924 7.77194 6.98128 7.69168 6.95696 7.60902C6.90832 7.44371 6.8913 7.276 6.85118 7.10949C6.89008 7.27361 6.85361 7.11908 6.84874 7.07356C6.8451 7.03523 6.84145 6.9957 6.8378 6.95736C6.82929 6.85315 6.82564 6.75013 6.82321 6.64591C6.81956 6.44346 6.82807 6.24102 6.8451 6.03977C6.85361 5.94394 6.86698 5.84811 6.87671 5.75347C6.8609 5.91519 6.88157 5.72951 6.88765 5.69118C6.89616 5.63847 6.90589 5.58577 6.91562 5.53306C6.95574 5.31983 7.00559 5.1078 7.06639 4.89937C7.12718 4.68974 7.19892 4.4837 7.2816 4.28125C7.28038 4.28365 7.27917 4.28604 7.27795 4.28844C7.28889 4.26808 7.29619 4.24651 7.30592 4.22615C7.32659 4.18063 7.34726 4.13511 7.36914 4.09079C7.42021 3.98537 7.47371 3.88115 7.53207 3.77933C7.63178 3.60324 7.74364 3.43673 7.86523 3.27382C7.87982 3.25585 7.89562 3.23668 7.91021 3.21871C7.94426 3.17918 7.9783 3.13965 8.01357 3.10132C8.08287 3.02466 8.15582 2.95158 8.23243 2.8821C8.27012 2.84737 8.30903 2.81382 8.34793 2.78148C8.36252 2.7695 8.37712 2.75752 8.39171 2.74554C8.47803 2.68924 8.5595 2.62695 8.64826 2.57424C8.72851 2.52633 8.8124 2.4832 8.89752 2.44367C8.92062 2.43289 8.94494 2.42451 8.96804 2.41253C8.96317 2.41492 8.96074 2.41612 8.95588 2.41852C9.00451 2.39935 9.05437 2.38258 9.10422 2.36581C9.34618 2.28196 9.59301 2.21128 9.84105 2.15258C9.83375 2.21847 9.82889 2.28435 9.8301 2.35024C9.83497 2.75273 10.0186 3.09054 10.2909 3.38043C10.5378 3.64277 10.8502 3.85121 11.1566 4.03928C11.457 4.22375 11.7719 4.38427 12.0941 4.52922C12.7738 4.83588 13.4778 5.08025 14.1793 5.33421C14.3435 5.3941 14.5076 5.454 14.6718 5.51629C14.7532 5.54743 14.8347 5.57858 14.9162 5.61092C14.9599 5.62769 15.0037 5.64566 15.0475 5.66363C15.0657 5.67082 15.084 5.67801 15.1022 5.68639C15.4062 5.81696 15.7065 5.95472 15.9959 6.11404C16.143 6.1943 16.2877 6.28055 16.4299 6.37159C16.498 6.41471 16.5649 6.46023 16.6306 6.50575C16.661 6.52732 16.6914 6.54888 16.7205 6.57044C16.7351 6.58122 16.7497 6.5932 16.7655 6.60278C16.7668 6.60278 16.768 6.60398 16.7692 6.60518C16.7704 6.60638 16.7728 6.60758 16.774 6.60877C17.0294 6.81002 17.2677 7.03044 17.4756 7.2796C17.4829 7.28798 17.5133 7.32632 17.5242 7.33949C17.5255 7.34189 17.5267 7.34309 17.5279 7.34428C17.5425 7.36345 17.5571 7.38382 17.5717 7.40298C17.6191 7.46887 17.6641 7.53595 17.7078 7.60423C17.8015 7.75277 17.8817 7.9073 17.9559 8.06542C17.9608 8.075 17.9632 8.08219 17.9656 8.08578C17.9668 8.08938 17.9681 8.09177 17.9705 8.09776C17.9875 8.13969 18.0045 8.18162 18.0203 8.22354C18.0519 8.30859 18.0811 8.39364 18.1079 8.47989C18.1577 8.64041 18.1991 8.80452 18.2331 8.96864C18.2501 9.05129 18.2647 9.13515 18.2781 9.2178C18.283 9.24415 18.2866 9.27171 18.2903 9.29806C18.289 9.28967 18.3012 9.38551 18.3036 9.40587C18.3231 9.58196 18.3352 9.75805 18.3425 9.93414C18.3571 10.2995 18.3462 10.6661 18.3231 11.0302C18.2732 11.8268 18.1675 12.6186 18.1334 13.4164C18.1018 14.1591 18.1067 14.9521 18.4702 15.6242C18.7827 16.2028 19.4077 16.5969 20.0715 16.6304C20.0107 16.9071 19.9439 17.1814 19.8478 17.4474C19.832 17.4917 19.8126 17.5348 19.7967 17.5791C19.849 17.427 19.7967 17.5791 19.7785 17.6163C19.7396 17.6953 19.6958 17.7732 19.6472 17.8463C19.6387 17.8583 19.6302 17.8702 19.6217 17.8822C19.6253 17.8798 19.6265 17.8774 19.6302 17.875C19.6265 17.8774 19.6229 17.8822 19.6192 17.8858C19.6156 17.8906 19.6131 17.8954 19.6095 17.899C19.5998 17.9134 19.5913 17.9217 19.5852 17.9253C19.5767 17.9361 19.5682 17.9481 19.5596 17.9565C19.5305 17.9888 19.5001 18.0188 19.4685 18.0487C19.4526 18.0631 19.4356 18.0775 19.4198 18.0918C19.4186 18.093 19.4174 18.0942 19.4162 18.0954C19.3481 18.1398 19.2824 18.1841 19.2095 18.2212C19.1693 18.2416 19.0174 18.2883 19.1633 18.2464C19.1049 18.2631 19.0478 18.2895 18.9894 18.3075C18.8885 18.3386 18.7851 18.3626 18.6806 18.3829C18.6502 18.3889 18.6198 18.3937 18.5882 18.3985C18.5809 18.3997 18.5699 18.4021 18.559 18.4057C18.4994 18.4177 18.4301 18.4177 18.3717 18.4225C17.7297 18.4824 17.0853 18.5027 16.4409 18.5015C15.743 18.5003 15.0438 18.4716 14.3471 18.4237C14.1635 18.4105 13.9799 18.3973 13.7976 18.3817C13.7453 18.3769 13.6529 18.3865 13.6042 18.3638L13.6626 18.3722C13.6407 18.3698 13.62 18.3662 13.5981 18.3626C13.5568 18.3554 13.5155 18.3482 13.4741 18.3398C13.3647 18.3171 13.2565 18.2871 13.1519 18.2488C13.1312 18.2416 13.1094 18.2296 13.0875 18.2248C13.0923 18.226 13.096 18.2272 13.1008 18.2284C13.0461 18.2033 12.9938 18.1745 12.9428 18.1434C12.9075 18.1218 12.8735 18.0942 12.837 18.0727L12.8346 18.0679ZM14.2085 19.3257C15.4025 19.4119 16.6099 19.4503 17.8063 19.3772C17.8112 20.8051 17.8112 22.233 17.8088 23.6609C17.8063 25.2601 17.8003 26.8581 17.7954 28.4573C17.793 29.2719 17.7917 30.0852 17.7905 30.8998C16.5041 30.8998 15.2189 30.8998 13.9325 30.8998C13.9349 29.3773 13.9386 27.8547 13.9435 26.3322C13.9483 24.7534 13.952 23.1745 13.952 21.5945C13.952 20.8326 13.9495 20.0696 13.9471 19.3077C14.0334 19.3149 14.121 19.3209 14.2073 19.3269L14.2085 19.3257ZM7.75337 33.9149C7.75337 33.8934 7.77403 33.5543 7.77039 33.5052C7.77039 33.504 7.77039 33.5028 7.77039 33.5004C7.77647 33.4705 7.78255 33.4417 7.78862 33.4118C7.79957 33.3639 7.81294 33.316 7.82875 33.268C7.83604 33.2453 7.87495 33.1722 7.88711 33.1291C7.87739 33.153 7.85915 33.171 7.87982 33.1303C7.88346 33.1231 7.88711 33.1159 7.89076 33.1087C7.89076 33.1063 7.89076 33.1039 7.89076 33.1015C7.89076 33.1027 7.89076 33.1051 7.89076 33.1075C7.90414 33.08 7.91751 33.0524 7.9321 33.0261C7.94304 33.0045 8.09381 32.747 8.10719 32.7541C8.0391 32.8368 8.10476 32.7541 8.10719 32.7541C8.123 32.735 8.1388 32.717 8.15582 32.6978C8.19838 32.6499 8.24337 32.6032 8.29079 32.5577C8.32726 32.523 8.36374 32.4894 8.40265 32.4559C8.42575 32.4355 8.45007 32.4175 8.47317 32.3972C8.4756 32.396 8.47682 32.3948 8.47804 32.3924C8.57895 32.3217 8.67987 32.2534 8.78809 32.1935C8.88657 32.1384 8.98749 32.0893 9.09084 32.0438C9.11516 32.0354 9.13826 32.0246 9.16258 32.0162C9.23189 31.9911 9.30241 31.9671 9.37415 31.9456C9.48601 31.912 9.6003 31.8845 9.71581 31.8617C9.76809 31.8521 9.81916 31.8437 9.87144 31.8354C9.87266 31.8354 9.87388 31.8354 9.87631 31.8354C9.91886 31.8318 9.96142 31.827 10.004 31.8234C10.1146 31.815 10.2265 31.8138 10.3371 31.8138H13.3343C14.887 31.8138 16.4397 31.8138 17.9924 31.8138H21.6923C21.7555 31.8138 21.8188 31.8138 21.882 31.8162C21.9501 31.8186 22.0182 31.8222 22.0851 31.827C22.1179 31.8294 22.1519 31.833 22.1847 31.8366C22.192 31.8366 22.2042 31.8378 22.2164 31.8378C22.3246 31.8437 22.4401 31.8761 22.5434 31.9012C22.665 31.93 22.7854 31.9647 22.9046 32.0067C22.9337 32.0174 22.9617 32.027 22.9909 32.0378C23.0091 32.045 23.0189 32.0486 23.0261 32.051C23.0651 32.0689 23.1246 32.0977 23.1283 32.0989C23.2328 32.1504 23.335 32.2079 23.4335 32.2714C23.4736 32.2977 23.5125 32.3265 23.5514 32.354C23.5709 32.3708 23.5915 32.3864 23.611 32.4032C23.6949 32.475 23.7751 32.5529 23.8481 32.6356C23.8602 32.6487 23.8712 32.6619 23.8821 32.6763C23.8992 32.7182 23.9478 32.7661 23.9733 32.8045C24.0207 32.8775 24.0536 32.9626 24.0961 33.0381C24.0925 33.0261 24.1095 33.044 24.1192 33.0716C24.1204 33.0752 24.1217 33.0788 24.1229 33.0824C24.1253 33.086 24.1265 33.0896 24.129 33.092C24.1265 33.0896 24.1253 33.0872 24.1241 33.0848C24.1302 33.1015 24.1375 33.1183 24.1435 33.1363C24.1618 33.189 24.1788 33.2417 24.1922 33.2956C24.2043 33.3411 24.2153 33.3866 24.2238 33.4334C24.2274 33.4549 24.2287 33.4897 24.2372 33.5112C24.2372 33.5208 24.2396 33.5292 24.2396 33.5388C24.2554 33.7125 24.253 33.8874 24.2505 34.0623C23.5356 34.0623 22.8207 34.0623 22.1057 34.0623C20.0448 34.0623 17.9839 34.0623 15.9217 34.0623C13.8596 34.0623 11.84 34.0623 9.79971 34.0623H7.75337V33.9137V33.9149ZM25.3157 38.0752C23.3289 38.0776 21.3434 38.08 19.3566 38.0812C17.3431 38.0824 15.3308 38.0824 13.3173 38.0812C11.8558 38.0812 10.3943 38.0788 8.93278 38.0776C8.99114 37.977 9.05315 37.8776 9.11638 37.7805C9.18082 37.6823 9.24769 37.5865 9.317 37.4918C9.35104 37.4451 9.3863 37.3984 9.42157 37.3529C9.42643 37.3469 9.43372 37.3373 9.43616 37.3337C9.45683 37.3074 9.4775 37.2822 9.49817 37.2571C9.55774 37.184 9.6003 37.1121 9.6003 37.0139C9.6003 36.93 9.56261 36.8294 9.49817 36.7707C9.3705 36.6557 9.12732 36.621 9.00451 36.7707C8.67744 37.1684 8.38928 37.5925 8.15461 38.0489C8.14974 38.0573 8.14731 38.0668 8.14367 38.0764C7.88225 38.0764 7.62205 38.0764 7.36063 38.0764C7.22445 38.0764 7.08827 38.0764 6.95209 38.0764L8.31754 36.3526C8.43305 36.2065 8.46223 36.0088 8.31754 35.8663C8.19716 35.7477 7.94061 35.7189 7.82389 35.8663C7.24026 36.6018 6.65785 37.3385 6.07422 38.074C5.72648 38.074 5.37873 38.0728 5.02977 38.0716C5.2693 37.7769 5.50762 37.4835 5.74715 37.1888C5.80673 37.1145 5.84928 37.0438 5.84928 36.9456C5.84928 36.8617 5.81159 36.7611 5.74715 36.7024C5.6207 36.5874 5.37509 36.5527 5.2535 36.7024C4.89967 37.1385 4.54585 37.5733 4.19203 38.0093C4.17622 38.0297 4.16163 38.0489 4.14825 38.0692C3.31537 38.068 2.48249 38.0668 1.6496 38.0644C1.57786 38.0644 1.50734 38.0644 1.4356 38.0644C1.4356 37.9147 1.4356 37.7638 1.4356 37.614C1.4356 37.5386 1.43561 37.4631 1.4429 37.3876C1.44533 37.3601 1.46722 37.2523 1.4429 37.3768C1.44898 37.3445 1.45384 37.311 1.46114 37.2786C1.47451 37.2139 1.49275 37.1504 1.51342 37.087C1.52315 37.0558 1.53652 37.0247 1.54625 36.9935C1.54747 36.9899 1.54868 36.9863 1.5499 36.9839C1.5499 36.9839 1.5499 36.9827 1.55112 36.9815C1.61069 36.8594 1.67635 36.742 1.75417 36.6306C1.76511 36.6162 1.77605 36.6006 1.787 36.5862C1.79186 36.5814 1.82347 36.5395 1.83199 36.5299C1.87819 36.4748 1.92682 36.4221 1.97668 36.3718C2.07516 36.2724 2.17973 36.1813 2.28916 36.0927C2.30497 36.0795 2.33293 36.0592 2.33901 36.0544C2.37062 36.0316 2.40224 36.0088 2.43507 35.9873C2.50072 35.943 2.5676 35.8998 2.63569 35.8579C2.77673 35.7729 2.92142 35.6938 3.06976 35.6219C3.14636 35.5848 3.22418 35.55 3.30199 35.5153C3.31172 35.5105 3.31902 35.5069 3.3251 35.5045C3.33118 35.5021 3.33969 35.4997 3.34941 35.4949C3.38954 35.4794 3.43088 35.4626 3.471 35.447C3.63758 35.3847 3.80659 35.3284 3.97681 35.2781C4.32942 35.1751 4.68932 35.102 5.05287 35.0457C5.06625 35.0433 5.07598 35.0421 5.08327 35.0409C5.09057 35.0409 5.10029 35.0385 5.11367 35.0373C5.15987 35.0314 5.20608 35.0266 5.25228 35.0218C5.34469 35.0122 5.43831 35.0038 5.53193 34.9978C5.71797 34.9846 5.90521 34.9786 6.09246 34.9786C7.18554 34.9762 8.27863 34.9786 9.37171 34.9786C11.3512 34.9786 13.3319 34.9786 15.3113 34.9786C17.3856 34.9786 19.4599 34.9786 21.5343 34.9786C22.9082 34.9786 24.2834 34.9786 25.6573 34.9786H25.9054C26.2324 34.9786 26.5595 34.9942 26.8854 35.0266C26.9571 35.0338 27.0301 35.0421 27.1018 35.0517C27.1176 35.0541 27.2076 35.0673 27.227 35.0697C27.3839 35.0936 27.5407 35.1224 27.6964 35.1559C27.97 35.2146 28.2411 35.2889 28.5049 35.3799C28.5694 35.4027 28.6338 35.4255 28.6983 35.4506C28.7238 35.4602 28.7481 35.471 28.7737 35.4806C28.7809 35.483 28.787 35.4854 28.7919 35.4878C28.7968 35.4902 28.8028 35.4925 28.8101 35.4961C28.9281 35.5488 29.046 35.6028 29.1603 35.6638C29.2588 35.7166 29.3561 35.7717 29.4509 35.8316C29.502 35.8639 29.5518 35.8962 29.6017 35.931C29.6211 35.9442 29.6406 35.9585 29.66 35.9717C29.671 35.9801 29.6831 35.9885 29.6941 35.9969C29.857 36.1442 30.0163 36.282 30.1622 36.4473C30.1634 36.4497 30.1646 36.4497 30.1658 36.4509C30.1792 36.47 30.1938 36.488 30.206 36.506C30.2364 36.5491 30.2655 36.5922 30.2935 36.6365C30.3434 36.7168 30.3847 36.8019 30.4273 36.8857C30.392 36.8162 30.4455 36.9288 30.4552 36.9576C30.471 37.0007 30.4844 37.045 30.4978 37.0894C30.5124 37.1385 30.5245 37.1888 30.5343 37.2391C30.5379 37.2595 30.5428 37.2798 30.5464 37.3002C30.5464 37.3062 30.5489 37.3134 30.5501 37.3193C30.5501 37.5661 30.5549 37.8141 30.5586 38.062C28.8101 38.0656 27.0617 38.0692 25.3132 38.0716L25.3157 38.0752Z" fill="#222222"/>
<path d="M24.1241 33.0836C24.1144 33.0692 24.1059 33.0548 24.0973 33.0392C24.0998 33.0452 24.1071 33.0608 24.1253 33.086C24.1253 33.086 24.1253 33.0848 24.1253 33.0836H24.1241Z" fill="#222222"/>
<path d="M7.89076 33.1087C7.89076 33.1147 7.89076 33.1207 7.88711 33.1291C7.88954 33.1219 7.89198 33.1147 7.89076 33.1075V33.1087Z" fill="#222222"/>
<path d="M27.6502 35.8675C27.5663 35.8411 27.4568 35.8591 27.3815 35.9022C27.3085 35.9442 27.2404 36.0256 27.221 36.1071C27.2003 36.1945 27.2052 36.2939 27.2562 36.3718C27.3061 36.4485 27.3754 36.5012 27.4641 36.5299C27.4775 36.5347 27.4909 36.5395 27.5055 36.5443C27.5651 36.5719 27.621 36.6042 27.6757 36.6413C27.7256 36.6833 27.7718 36.7288 27.8143 36.7779C27.8411 36.815 27.8654 36.8534 27.8873 36.8941C27.9262 36.9684 28.0149 37.0307 28.0952 37.0522C28.1791 37.075 28.2897 37.0642 28.3639 37.0175C28.4381 36.9708 28.5037 36.9001 28.5244 36.8126C28.5463 36.7204 28.5341 36.6329 28.4891 36.5479C28.3165 36.2221 28.004 35.9789 27.6502 35.8675Z" fill="#222222"/>
<path d="M21.8431 32.935C21.8881 32.9554 21.9294 32.9806 21.9695 33.0081C22.0048 33.0381 22.0388 33.0704 22.0692 33.1063C22.0972 33.1471 22.1227 33.189 22.1446 33.2333C22.158 33.2716 22.1702 33.3112 22.1787 33.3507C22.1957 33.4322 22.2687 33.516 22.3392 33.5555C22.4146 33.5987 22.524 33.6166 22.6079 33.5903C22.6918 33.5639 22.7732 33.5124 22.8158 33.4322C22.8608 33.3471 22.8705 33.2621 22.8511 33.1674C22.8316 33.0716 22.7939 32.9818 22.7526 32.8931C22.7112 32.8045 22.6529 32.7278 22.5909 32.6511C22.5459 32.596 22.496 32.5457 22.4401 32.5014C22.3623 32.4403 22.2845 32.3828 22.1945 32.3421C22.1544 32.3169 22.1106 32.3037 22.0644 32.3013C22.0182 32.2906 21.972 32.293 21.9258 32.3073C21.8443 32.3289 21.7568 32.3912 21.7179 32.4655C21.6753 32.5457 21.6534 32.6415 21.6826 32.7302C21.7093 32.8104 21.7616 32.8979 21.8431 32.935Z" fill="#222222"/>
<path d="M11.7488 9.92815C11.6637 9.88742 11.5737 9.86826 11.4801 9.89341C11.3986 9.91498 11.3111 9.97727 11.2721 10.0515C11.1895 10.2073 11.2223 10.4373 11.3974 10.5223C11.4861 10.5654 11.57 10.6169 11.6503 10.6744C11.7403 10.7475 11.8217 10.8278 11.8947 10.9164C11.9628 11.0087 12.0199 11.1057 12.0686 11.2087C12.0795 11.2375 12.0917 11.2662 12.1014 11.295C12.1293 11.38 12.1816 11.4543 12.2619 11.4998C12.3373 11.5429 12.4467 11.5609 12.5306 11.5345C12.7032 11.4794 12.8358 11.295 12.7738 11.1117C12.6035 10.6062 12.2363 10.1653 11.75 9.92696L11.7488 9.92815Z" fill="#222222"/>
<path d="M14.8359 25.7273C15.0171 25.7189 15.1946 25.5763 15.1849 25.3835C15.1642 24.9918 15.1435 24.5988 15.1217 24.2071C15.1119 24.0274 14.9685 23.8549 14.7727 23.8633C14.5915 23.8717 14.414 24.0143 14.4237 24.2071C14.4444 24.5988 14.4651 24.9918 14.487 25.3835C14.4967 25.5632 14.6402 25.7357 14.8359 25.7273Z" fill="#222222"/>
<path d="M10.7992 11.9167C10.7214 11.8412 10.7688 11.8771 10.7992 11.9167ZM10.7992 11.9167C10.8052 11.9239 10.8113 11.9286 10.8186 11.9358C10.7785 11.8975 10.7457 11.8508 10.7055 11.8113C10.6557 11.7621 10.5998 11.719 10.5463 11.6735C10.5621 11.6879 10.5754 11.6987 10.5852 11.707C10.5706 11.6951 10.5548 11.6819 10.5438 11.6747C10.5146 11.6543 10.4843 11.6352 10.4551 11.616C10.3274 11.5333 10.1937 11.4591 10.0587 11.3896C9.74134 11.2255 9.41427 11.0805 9.09206 10.926C8.33699 10.563 7.5953 10.1306 7.02505 9.51129C6.66758 9.12436 6.39279 8.68833 6.18852 8.20677C6.0341 7.84261 5.95628 7.46527 5.91616 7.07236C5.8274 6.20508 5.95628 5.29587 6.22378 4.46932C6.50343 3.60683 6.96182 2.74554 7.66825 2.14779C8.03545 1.83634 8.43791 1.61952 8.8963 1.46499C9.23675 1.34999 9.58571 1.25895 9.93953 1.18947C11.5457 0.875622 13.2261 0.961871 14.8067 1.37275C16.4433 1.79801 17.9972 2.58503 19.2411 3.72183C20.5348 4.90296 21.4382 6.47461 21.7701 8.18281C21.9829 9.2765 21.9549 10.3738 21.8686 11.4794C21.775 12.6773 21.5914 13.8657 21.3519 15.0444C21.2789 15.4074 21.2011 15.7691 21.1233 16.1309C21.1208 16.156 21.1148 16.1812 21.1075 16.2052C21.0746 16.3561 21.0418 16.5058 21.0102 16.6568C20.9141 17.106 20.812 17.5504 20.6248 17.9721C20.4558 18.3554 20.1907 18.6812 19.8369 18.9148C19.5074 19.1328 19.1244 19.2346 18.7365 19.2921C18.7389 20.06 18.7414 20.8267 18.7414 21.5945C18.7414 23.1745 18.7377 24.7534 18.7328 26.3322C18.728 27.8547 18.7243 29.3773 18.7219 30.8998C19.7299 30.8998 20.7366 30.8962 21.7446 30.8998C22.7708 30.9034 23.8943 31.24 24.5606 32.0534C24.9047 32.4726 25.1029 32.9458 25.1649 33.4825C25.1856 33.6741 25.188 33.8682 25.1856 34.0635H25.9078C26.6714 34.0658 27.4423 34.1449 28.1839 34.3294C29.2612 34.5977 30.3312 35.1128 30.9951 36.0196C31.2905 36.4221 31.4547 36.9037 31.4899 37.3984H31.4863C31.5131 37.771 31.4924 38.1495 31.4924 38.5232C31.4924 38.7724 31.2784 38.982 31.0267 38.982C30.7981 38.9832 30.5695 38.9832 30.3409 38.9832C28.4223 38.988 26.5048 38.9916 24.5861 38.994C22.5945 38.9976 20.6017 39 18.6088 39C16.5965 39 14.583 39 12.5707 39C10.5925 38.9988 8.61421 38.9976 6.63596 38.994C4.74647 38.9916 2.85698 38.9868 0.967488 38.982C0.714583 38.9808 0.501802 38.7712 0.501802 38.5232V38.1531C0.501802 37.8009 0.485995 37.4487 0.548006 37.1013C0.600289 36.8138 0.718231 36.5311 0.872649 36.282C1.22161 35.719 1.76025 35.2841 2.33901 34.9643C3.50383 34.321 4.86441 34.0623 6.18852 34.0623H6.81835C6.81591 33.8694 6.81348 33.6753 6.8378 33.4837C6.87549 33.1854 6.95331 32.9147 7.08584 32.6427C7.31808 32.1696 7.71567 31.7839 8.15704 31.4999C8.84523 31.0567 9.64529 30.8986 10.4563 30.8986H12.9999C13.0011 30.084 13.0024 29.2707 13.0048 28.4561C13.0097 26.8569 13.0157 25.2589 13.0182 23.6597C13.0206 22.1599 13.0206 20.6613 13.0145 19.1616C12.8261 19.1077 12.6425 19.0346 12.4686 18.9292C12.0321 18.6656 11.7427 18.2667 11.5506 17.8067C11.3646 17.3599 11.2965 16.8772 11.2393 16.4016C11.1919 16.0015 11.153 15.599 11.1214 15.1965C11.0423 14.1807 10.9828 13.1637 10.8964 12.1491C10.8904 12.1203 10.8843 12.0928 10.8758 12.0652C10.8733 12.0556 10.8685 12.046 10.8648 12.0365C10.8636 12.0317 10.8612 12.0257 10.8587 12.0197C10.8539 12.0077 10.849 11.9957 10.8466 11.9838C10.849 11.9909 10.8502 11.9981 10.8514 12.0041C10.8514 12.0029 10.8514 12.0017 10.8514 12.0017C10.8381 11.9754 10.8223 11.9502 10.8065 11.9263C10.804 11.9239 10.8016 11.9203 10.7992 11.9167ZM7.88711 33.1291C7.87495 33.1722 7.83604 33.2453 7.82875 33.268C7.81294 33.316 7.79957 33.3639 7.78862 33.4118C7.78255 33.4417 7.77647 33.4705 7.77039 33.5004C7.77039 33.5028 7.77039 33.504 7.77039 33.5052C7.77403 33.5543 7.75336 33.8934 7.75336 33.9149V33.9137V34.0623H9.79971C11.84 34.0623 13.8596 34.0623 15.9217 34.0623C17.9839 34.0623 20.0448 34.0623 22.1057 34.0623C22.8207 34.0623 23.5356 34.0623 24.2505 34.0623C24.253 33.8874 24.2554 33.7125 24.2396 33.5388C24.2396 33.5292 24.2372 33.5208 24.2372 33.5112C24.2287 33.4897 24.2274 33.4549 24.2238 33.4334C24.2153 33.3866 24.2043 33.3411 24.1922 33.2956C24.1788 33.2417 24.1618 33.189 24.1435 33.1363C24.1375 33.1183 24.1302 33.1015 24.1241 33.0848C24.1253 33.0872 24.1265 33.0896 24.129 33.092C24.1265 33.0896 24.1253 33.086 24.1229 33.0824C24.1217 33.0788 24.1204 33.0752 24.1192 33.0716C24.1095 33.044 24.0925 33.0261 24.0961 33.0381C24.0536 32.9626 24.0207 32.8775 23.9733 32.8045C23.9478 32.7661 23.8992 32.7182 23.8821 32.6763C23.8712 32.6619 23.8602 32.6487 23.8481 32.6356C23.7751 32.5529 23.6949 32.475 23.611 32.4032C23.5915 32.3864 23.5709 32.3708 23.5514 32.3541C23.5125 32.3265 23.4736 32.2977 23.4335 32.2714C23.335 32.2079 23.2328 32.1504 23.1283 32.0989C23.1246 32.0977 23.0651 32.0689 23.0261 32.051C23.0189 32.0486 23.0091 32.045 22.9909 32.0378C22.9617 32.027 22.9337 32.0174 22.9046 32.0067C22.7854 31.9647 22.665 31.93 22.5434 31.9012C22.4401 31.8761 22.3246 31.8437 22.2164 31.8378C22.2042 31.8378 22.192 31.8366 22.1847 31.8366C22.1519 31.833 22.1179 31.8294 22.085 31.827C22.0182 31.8222 21.9501 31.8186 21.882 31.8162C21.8188 31.8138 21.7555 31.8138 21.6923 31.8138H17.9924C16.4397 31.8138 14.887 31.8138 13.3343 31.8138H10.3371C10.2265 31.8138 10.1146 31.815 10.004 31.8234C9.96142 31.827 9.91886 31.8318 9.87631 31.8354C9.87388 31.8354 9.87266 31.8354 9.87144 31.8354C9.81916 31.8437 9.76809 31.8521 9.71581 31.8617C9.6003 31.8845 9.48601 31.912 9.37415 31.9456C9.30241 31.9671 9.23189 31.9911 9.16258 32.0162C9.13826 32.0246 9.11516 32.0354 9.09084 32.0438C8.98749 32.0893 8.88657 32.1384 8.78809 32.1935C8.67987 32.2534 8.57895 32.3217 8.47804 32.3924C8.47682 32.3948 8.4756 32.396 8.47317 32.3972C8.45007 32.4175 8.42575 32.4355 8.40265 32.4559C8.36374 32.4894 8.32726 32.523 8.29079 32.5577C8.24337 32.6032 8.19838 32.6499 8.15582 32.6978C8.1388 32.717 8.123 32.735 8.10719 32.7541M7.88711 33.1291C7.87739 33.153 7.85915 33.171 7.87982 33.1303C7.88346 33.1231 7.88711 33.1159 7.89076 33.1087M7.88711 33.1291C7.89076 33.1207 7.89076 33.1147 7.89076 33.1087M7.88711 33.1291C7.88955 33.1219 7.89198 33.1147 7.89076 33.1075M7.89076 33.1087C7.89076 33.1063 7.89076 33.1039 7.89076 33.1015C7.89076 33.1027 7.89076 33.1051 7.89076 33.1075M7.89076 33.1087V33.1075M7.89076 33.1075C7.90414 33.08 7.91751 33.0524 7.9321 33.0261C7.94304 33.0045 8.09381 32.747 8.10719 32.7541M8.10719 32.7541C8.0391 32.8368 8.10476 32.7541 8.10719 32.7541ZM13.2723 2.00045C13.2164 1.99326 13.2407 1.99686 13.2723 2.00045ZM10.8527 12.0041C10.8746 12.0964 10.8782 12.0748 10.866 12.0377C10.8636 12.0317 10.8624 12.0269 10.86 12.0209C10.8575 12.0149 10.8551 12.0101 10.8527 12.0041ZM10.584 11.7058C10.6119 11.7286 10.6314 11.7454 10.584 11.7058ZM12.4248 17.5001C12.4285 17.5073 12.4309 17.5157 12.4333 17.524C12.4333 17.5264 12.4358 17.5276 12.4358 17.53C12.4102 17.4438 12.4139 17.4689 12.4236 17.5001H12.4248ZM8.95345 2.41492C8.95345 2.41492 8.95102 2.41492 8.9498 2.41612C8.91819 2.4281 8.85253 2.46763 8.95345 2.41492ZM19.5815 17.9217C19.5925 17.9074 19.6034 17.893 19.6156 17.8822C19.6156 17.8822 19.6168 17.8798 19.618 17.8786C19.5706 17.9146 19.5682 17.9301 19.5815 17.9217ZM13.0984 18.2224C13.1349 18.2392 13.1957 18.2464 13.0984 18.2224ZM7.28038 4.27526C7.28038 4.27526 7.28038 4.27526 7.28038 4.27646C7.3351 4.17105 7.29254 4.24651 7.28038 4.27526ZM23.8967 32.6943C23.8967 32.6943 23.9004 32.6978 23.9016 32.7002C23.9356 32.7398 23.915 32.7158 23.8967 32.6943ZM23.0067 32.0438C22.9994 32.0414 22.9933 32.039 22.9933 32.039C22.9933 32.039 22.9994 32.0402 23.0067 32.0438ZM12.2473 1.91899C12.4418 1.92498 12.6364 1.93696 12.8309 1.95253C12.9209 1.95972 13.0097 1.9693 13.0996 1.97889C13.1483 1.98488 13.1969 1.98967 13.2468 1.99566C13.2711 1.99925 13.2954 2.00165 13.3197 2.00524C13.3003 2.00285 13.2844 2.00165 13.2723 1.99925C13.2893 2.00165 13.3075 2.00404 13.3185 2.00524C14.1003 2.11665 14.87 2.30951 15.6104 2.58263C15.6968 2.61497 15.7819 2.64732 15.8682 2.68206C15.9035 2.69643 16.0676 2.76711 15.9193 2.70242C15.9655 2.72278 16.0117 2.74195 16.0579 2.76112C16.2415 2.84138 16.4239 2.92643 16.6026 3.01747C16.8081 3.12168 17.0099 3.23429 17.2081 3.35168C17.0622 3.49423 16.9175 3.63558 16.7716 3.77813C16.7084 3.84042 16.6695 3.93386 16.6695 4.02131C16.6695 4.10876 16.7072 4.20579 16.7716 4.26448C16.8385 4.32438 16.9248 4.3687 17.0184 4.36511C17.1108 4.36151 17.1984 4.33037 17.2653 4.26448C17.444 4.08959 17.624 3.9135 17.8027 3.7386C17.8234 3.75298 17.8428 3.76616 17.8635 3.78053C17.9036 3.80928 17.9449 3.83923 17.9851 3.86917C18.0009 3.88115 18.0167 3.89193 18.0313 3.90391C18.1881 4.0261 18.3425 4.15188 18.4909 4.28485C18.514 4.30521 18.5371 4.32797 18.5602 4.34833C18.2939 4.57114 18.0276 4.79276 17.7601 5.01557C17.6957 5.06947 17.658 5.17728 17.658 5.25874C17.658 5.3402 17.6957 5.44322 17.7601 5.50191C17.827 5.56181 17.9133 5.60613 18.007 5.60254C18.1042 5.59775 18.1796 5.56301 18.2538 5.50191C18.5201 5.2791 18.7876 5.05749 19.0538 4.83468C19.1475 4.93531 19.2399 5.03713 19.3286 5.14254C19.3554 5.17489 19.3821 5.20723 19.4089 5.23957C19.432 5.26832 19.539 5.41087 19.4454 5.2839C19.5049 5.36535 19.5682 5.44441 19.6265 5.52587C19.6557 5.5666 19.6825 5.60733 19.7104 5.64806C19.7019 5.65524 19.6922 5.66123 19.6837 5.66962C19.5074 5.84332 19.3298 6.01821 19.1535 6.1919C19.0903 6.2542 19.0514 6.34643 19.0514 6.43508C19.0514 6.52372 19.0891 6.61955 19.1535 6.67825C19.2204 6.73815 19.3067 6.78247 19.4004 6.77887C19.4928 6.77528 19.5803 6.74414 19.6472 6.67825C19.7931 6.5345 19.939 6.39075 20.0849 6.24701C20.1445 6.35362 20.2029 6.46143 20.2576 6.57164C20.3001 6.65669 20.3402 6.74174 20.3792 6.82919C20.395 6.86273 20.4594 7.03163 20.4059 6.88669C20.4278 6.94418 20.4533 6.99929 20.4752 7.05679C20.6296 7.4485 20.7512 7.85339 20.84 8.26427C20.8631 8.37328 20.885 8.48229 20.9032 8.5913C20.9117 8.63802 20.919 8.68354 20.9263 8.73025C20.9312 8.75781 20.9348 8.78656 20.9385 8.81411C20.9385 8.8165 20.9385 8.8177 20.9385 8.8201C20.9385 8.82489 20.9385 8.82848 20.9397 8.83327C20.9689 9.06447 20.9883 9.29566 20.9993 9.52806C21.026 10.0971 20.9932 10.6673 20.9543 11.2351C20.9324 11.5525 20.9056 11.87 20.8716 12.1862C20.857 12.324 20.8412 12.4605 20.8242 12.5983C20.8157 12.6713 20.8059 12.7444 20.7962 12.8175C20.7962 12.8223 20.7938 12.8355 20.7926 12.8486C20.7926 12.8462 20.7926 12.8438 20.7926 12.8403C20.7865 12.8882 20.7792 12.9361 20.7719 12.9828C20.6406 13.8992 20.4509 14.8048 20.2588 15.7104C20.2296 15.7116 20.2016 15.714 20.1725 15.714C20.1384 15.714 20.1031 15.7128 20.0691 15.7104C20.0642 15.7104 20.0594 15.7104 20.0545 15.7092C20.0399 15.6984 19.9731 15.6948 19.9572 15.6913C19.9135 15.6805 19.8697 15.6685 19.8271 15.6541C19.8198 15.6517 19.8113 15.6493 19.804 15.6457C19.7846 15.6314 19.7396 15.6182 19.7226 15.6098C19.6642 15.5798 19.6107 15.5451 19.556 15.5104C19.5463 15.5032 19.5341 15.4948 19.5305 15.4912C19.5013 15.4672 19.4745 15.4409 19.4478 15.4145C19.4271 15.3942 19.4077 15.3726 19.3882 15.3511C19.3797 15.3391 19.3675 15.3235 19.3639 15.3187C19.3213 15.2576 19.2836 15.1941 19.2496 15.127C19.2387 15.1055 19.2168 15.0528 19.2143 15.0516C19.2034 15.0228 19.1912 14.9929 19.1815 14.9641C19.1572 14.8935 19.1377 14.8216 19.1207 14.7497C19.1122 14.7138 19.1049 14.6766 19.0976 14.6395C19.094 14.6215 19.0903 14.6024 19.0879 14.5844C19.0879 14.5796 19.0842 14.5592 19.0806 14.5413C19.0782 14.5221 19.0721 14.4742 19.0709 14.4634C19.0672 14.4263 19.0636 14.3879 19.0611 14.3508C19.0551 14.2693 19.0514 14.1879 19.049 14.1052C19.0441 13.9196 19.0465 13.7339 19.0526 13.5494C19.0782 12.7744 19.1779 12.0041 19.2338 11.2315C19.2873 10.5008 19.2873 9.77602 19.1815 9.0489C19.0818 8.36849 18.8617 7.68928 18.4848 7.1059C18.1115 6.52612 17.6033 6.05654 17.033 5.66842C15.8998 4.89697 14.5563 4.51604 13.2832 4.03089C13.2018 3.99975 13.1203 3.9686 13.0388 3.93626C13.0011 3.92188 12.9647 3.90631 12.927 3.89194C12.9112 3.88595 12.8662 3.86678 12.8492 3.85959C12.696 3.7949 12.5452 3.72902 12.3956 3.65834C12.0892 3.5134 11.7889 3.35288 11.5032 3.1696C11.4314 3.12288 11.3597 3.07616 11.2892 3.02705C11.2588 3.00549 11.2296 2.98273 11.1992 2.96236C11.2721 3.01387 11.187 2.95278 11.1615 2.93122C11.1044 2.8845 11.0484 2.83539 10.9961 2.78268C10.9657 2.75273 10.9353 2.72159 10.9074 2.68924C10.8977 2.67846 10.8879 2.66648 10.8782 2.6557C10.8782 2.6557 10.8782 2.6557 10.8782 2.65331C10.86 2.62216 10.8369 2.59341 10.8174 2.56227C10.8065 2.5443 10.7736 2.46763 10.7797 2.49279C10.7773 2.4832 10.7748 2.47602 10.7736 2.47242C10.77 2.45805 10.7676 2.44367 10.7627 2.4293C10.7627 2.4281 10.7627 2.4269 10.7627 2.42571C10.759 2.36701 10.7566 2.30951 10.7615 2.24961C10.7615 2.24362 10.7651 2.22685 10.7663 2.21368C10.7724 2.18253 10.7785 2.15139 10.787 2.12024C10.7955 2.0867 10.8065 2.05316 10.8174 2.02081C10.8198 2.01363 10.8235 2.00285 10.8271 1.99206C10.8271 1.99087 10.8283 1.98967 10.8296 1.98727C10.832 1.98368 10.8332 1.98009 10.8356 1.97649C10.9317 1.96571 11.0278 1.95733 11.1238 1.94894C11.4971 1.92019 11.8728 1.91181 12.2485 1.92378L12.2473 1.91899ZM12.8346 18.0679C12.8224 18.0571 12.809 18.0463 12.7969 18.0355C12.7604 18.0032 12.7264 17.9697 12.6935 17.9349C12.6777 17.917 12.6607 17.9002 12.6461 17.8822C12.6425 17.8786 12.6412 17.8762 12.6388 17.8738C12.589 17.8044 12.5428 17.7325 12.5014 17.6582C12.4783 17.6163 12.4576 17.5744 12.4382 17.5312C12.4382 17.5348 12.4406 17.5372 12.4418 17.542C12.4406 17.536 12.4382 17.5312 12.4358 17.5252C12.4321 17.5181 12.4297 17.5109 12.4272 17.5025C12.4224 17.4917 12.4175 17.4809 12.4139 17.4701C12.3361 17.2665 12.2826 17.0533 12.2412 16.84C12.2205 16.7334 12.2047 16.6256 12.1877 16.519C12.1841 16.4903 12.1804 16.4615 12.1768 16.4328C12.1695 16.3705 12.1622 16.307 12.1549 16.2447C12.0637 15.4481 12.0175 14.6491 11.9616 13.8501C11.9226 13.2799 11.8777 12.7097 11.8302 12.1395C11.829 12.1239 11.8266 12.1083 11.8242 12.0916C11.784 11.7585 11.6515 11.4722 11.4205 11.2207C11.2162 10.9991 10.9499 10.829 10.6873 10.6828C10.0587 10.3354 9.38266 10.0803 8.76377 9.71493C8.59476 9.6143 8.4294 9.50769 8.27012 9.39269C8.25431 9.38072 8.23851 9.36874 8.22148 9.35676C8.18136 9.32441 8.14123 9.29327 8.10111 9.25973C8.02086 9.19384 7.94426 9.12436 7.86887 9.05249C7.79957 8.98541 7.73148 8.91593 7.66582 8.84525C7.62934 8.80572 7.59408 8.76499 7.56004 8.72427C7.54423 8.7051 7.52721 8.68473 7.5114 8.66557C7.50775 8.66078 7.50289 8.65479 7.49803 8.6476C7.3655 8.47031 7.24756 8.28104 7.14785 8.08459C7.12353 8.03667 7.09922 7.98756 7.07733 7.93844C7.07368 7.92886 7.06882 7.92047 7.06517 7.91089C7.04572 7.86537 7.04815 7.87376 7.07612 7.93724C7.06031 7.91808 7.05058 7.87615 7.04085 7.85219C7.00924 7.77194 6.98127 7.69168 6.95696 7.60902C6.90832 7.44371 6.8913 7.276 6.85118 7.10949C6.89008 7.27361 6.85361 7.11908 6.84874 7.07356C6.8451 7.03523 6.84145 6.9957 6.8378 6.95736C6.82929 6.85315 6.82564 6.75013 6.82321 6.64591C6.81956 6.44346 6.82807 6.24102 6.8451 6.03977C6.85361 5.94394 6.86698 5.84811 6.87671 5.75347C6.8609 5.91519 6.88157 5.72951 6.88765 5.69118C6.89616 5.63847 6.90589 5.58577 6.91562 5.53306C6.95574 5.31983 7.00559 5.1078 7.06639 4.89937C7.12718 4.68974 7.19892 4.4837 7.2816 4.28125C7.28038 4.28365 7.27917 4.28604 7.27795 4.28844C7.28889 4.26808 7.29619 4.24651 7.30592 4.22615C7.32659 4.18063 7.34726 4.13511 7.36914 4.09079C7.42021 3.98537 7.47371 3.88115 7.53207 3.77933C7.63178 3.60324 7.74364 3.43673 7.86523 3.27382C7.87982 3.25585 7.89562 3.23668 7.91021 3.21871C7.94426 3.17918 7.9783 3.13965 8.01357 3.10132C8.08287 3.02466 8.15582 2.95158 8.23243 2.8821C8.27012 2.84737 8.30903 2.81382 8.34793 2.78148C8.36253 2.7695 8.37712 2.75752 8.39171 2.74554C8.47803 2.68924 8.5595 2.62695 8.64826 2.57424C8.72851 2.52633 8.8124 2.4832 8.89752 2.44367C8.92062 2.43289 8.94494 2.42451 8.96804 2.41253C8.96318 2.41492 8.96074 2.41612 8.95588 2.41852C9.00451 2.39935 9.05437 2.38258 9.10422 2.36581C9.34618 2.28196 9.593 2.21128 9.84105 2.15258C9.83375 2.21847 9.82889 2.28435 9.8301 2.35024C9.83497 2.75273 10.0186 3.09054 10.2909 3.38043C10.5378 3.64277 10.8502 3.85121 11.1566 4.03928C11.457 4.22375 11.7719 4.38427 12.0941 4.52922C12.7738 4.83588 13.4778 5.08025 14.1793 5.33421C14.3435 5.3941 14.5076 5.454 14.6718 5.51629C14.7532 5.54743 14.8347 5.57858 14.9162 5.61092C14.9599 5.62769 15.0037 5.64566 15.0475 5.66363C15.0657 5.67082 15.084 5.67801 15.1022 5.68639C15.4062 5.81696 15.7065 5.95472 15.9959 6.11404C16.143 6.1943 16.2877 6.28055 16.4299 6.37159C16.498 6.41471 16.5649 6.46023 16.6306 6.50575C16.661 6.52732 16.6914 6.54888 16.7205 6.57044C16.7351 6.58122 16.7497 6.5932 16.7655 6.60278C16.7668 6.60278 16.768 6.60398 16.7692 6.60518C16.7704 6.60638 16.7728 6.60758 16.774 6.60877C17.0294 6.81002 17.2677 7.03044 17.4756 7.2796C17.4829 7.28798 17.5133 7.32632 17.5242 7.33949C17.5255 7.34189 17.5267 7.34309 17.5279 7.34428C17.5425 7.36345 17.5571 7.38382 17.5717 7.40298C17.6191 7.46887 17.6641 7.53595 17.7078 7.60423C17.8015 7.75277 17.8817 7.9073 17.9559 8.06542C17.9608 8.075 17.9632 8.08219 17.9656 8.08578C17.9668 8.08938 17.968 8.09177 17.9705 8.09776C17.9875 8.13969 18.0045 8.18162 18.0203 8.22354C18.0519 8.30859 18.0811 8.39364 18.1079 8.47989C18.1577 8.64041 18.1991 8.80452 18.2331 8.96864C18.2501 9.05129 18.2647 9.13514 18.2781 9.2178C18.283 9.24415 18.2866 9.27171 18.2903 9.29806C18.289 9.28967 18.3012 9.38551 18.3036 9.40587C18.3231 9.58196 18.3352 9.75805 18.3425 9.93414C18.3571 10.2995 18.3462 10.6661 18.3231 11.0302C18.2732 11.8268 18.1675 12.6186 18.1334 13.4164C18.1018 14.1591 18.1067 14.9521 18.4702 15.6242C18.7827 16.2028 19.4077 16.5969 20.0715 16.6304C20.0107 16.9071 19.9439 17.1814 19.8478 17.4474C19.832 17.4917 19.8126 17.5348 19.7967 17.5791C19.849 17.427 19.7967 17.5791 19.7785 17.6163C19.7396 17.6953 19.6958 17.7732 19.6472 17.8463C19.6387 17.8583 19.6302 17.8702 19.6217 17.8822C19.6253 17.8798 19.6265 17.8774 19.6302 17.875C19.6265 17.8774 19.6229 17.8822 19.6192 17.8858C19.6156 17.8906 19.6131 17.8954 19.6095 17.899C19.5998 17.9134 19.5913 17.9217 19.5852 17.9253C19.5767 17.9361 19.5682 17.9481 19.5596 17.9565C19.5305 17.9888 19.5001 18.0188 19.4685 18.0487C19.4526 18.0631 19.4356 18.0775 19.4198 18.0918C19.4186 18.093 19.4174 18.0942 19.4162 18.0954C19.3481 18.1398 19.2824 18.1841 19.2095 18.2212C19.1693 18.2416 19.0174 18.2883 19.1633 18.2464C19.1049 18.2631 19.0478 18.2895 18.9894 18.3075C18.8885 18.3386 18.7851 18.3626 18.6806 18.3829C18.6502 18.3889 18.6198 18.3937 18.5882 18.3985C18.5809 18.3997 18.5699 18.4021 18.559 18.4057C18.4994 18.4177 18.4301 18.4177 18.3717 18.4225C17.7297 18.4824 17.0853 18.5027 16.4409 18.5015C15.743 18.5003 15.0438 18.4716 14.3471 18.4237C14.1635 18.4105 13.9799 18.3973 13.7976 18.3817C13.7453 18.3769 13.6529 18.3865 13.6042 18.3638L13.6626 18.3722C13.6407 18.3698 13.62 18.3662 13.5981 18.3626C13.5568 18.3554 13.5155 18.3482 13.4741 18.3398C13.3647 18.3171 13.2565 18.2871 13.1519 18.2488C13.1312 18.2416 13.1094 18.2296 13.0875 18.2248C13.0923 18.226 13.096 18.2272 13.1008 18.2284C13.0461 18.2033 12.9938 18.1745 12.9428 18.1434C12.9075 18.1218 12.8735 18.0942 12.837 18.0727L12.8346 18.0679ZM14.2085 19.3257C15.4025 19.4119 16.6099 19.4503 17.8063 19.3772C17.8112 20.8051 17.8112 22.233 17.8088 23.6609C17.8063 25.2601 17.8003 26.8581 17.7954 28.4573C17.793 29.2719 17.7917 30.0852 17.7905 30.8998C16.5041 30.8998 15.2189 30.8998 13.9325 30.8998C13.9349 29.3773 13.9386 27.8547 13.9435 26.3322C13.9483 24.7534 13.952 23.1745 13.952 21.5945C13.952 20.8326 13.9495 20.0696 13.9471 19.3077C14.0334 19.3149 14.121 19.3209 14.2073 19.3269L14.2085 19.3257ZM25.3157 38.0752C23.3289 38.0776 21.3434 38.08 19.3566 38.0812C17.3431 38.0824 15.3308 38.0824 13.3173 38.0812C11.8558 38.0812 10.3943 38.0788 8.93278 38.0776C8.99114 37.977 9.05315 37.8776 9.11638 37.7805C9.18082 37.6823 9.24769 37.5865 9.317 37.4918C9.35104 37.4451 9.3863 37.3984 9.42156 37.3529C9.42643 37.3469 9.43372 37.3373 9.43615 37.3337C9.45682 37.3074 9.4775 37.2822 9.49817 37.2571C9.55774 37.184 9.6003 37.1121 9.6003 37.0139C9.6003 36.93 9.56261 36.8294 9.49817 36.7707C9.3705 36.6557 9.12732 36.621 9.00451 36.7707C8.67744 37.1684 8.38928 37.5925 8.15461 38.0489C8.14975 38.0573 8.14731 38.0668 8.14367 38.0764C7.88225 38.0764 7.62205 38.0764 7.36063 38.0764C7.22445 38.0764 7.08827 38.0764 6.95209 38.0764L8.31754 36.3526C8.43305 36.2065 8.46223 36.0088 8.31754 35.8663C8.19716 35.7477 7.94061 35.719 7.82389 35.8663C7.24026 36.6018 6.65785 37.3385 6.07422 38.074C5.72648 38.074 5.37873 38.0728 5.02977 38.0716C5.2693 37.7769 5.50762 37.4835 5.74715 37.1888C5.80673 37.1145 5.84928 37.0438 5.84928 36.9456C5.84928 36.8617 5.81159 36.7611 5.74715 36.7024C5.6207 36.5874 5.37509 36.5527 5.2535 36.7024C4.89967 37.1385 4.54585 37.5733 4.19203 38.0093C4.17622 38.0297 4.16163 38.0489 4.14825 38.0692C3.31537 38.068 2.48249 38.0668 1.6496 38.0644C1.57786 38.0644 1.50734 38.0644 1.4356 38.0644C1.4356 37.9147 1.4356 37.7638 1.4356 37.614C1.4356 37.5386 1.43561 37.4631 1.4429 37.3876C1.44533 37.3601 1.46722 37.2523 1.4429 37.3768C1.44898 37.3445 1.45384 37.311 1.46114 37.2786C1.47451 37.2139 1.49275 37.1504 1.51342 37.087C1.52315 37.0558 1.53652 37.0247 1.54625 36.9935C1.54747 36.9899 1.54868 36.9863 1.5499 36.9839C1.5499 36.9839 1.5499 36.9827 1.55112 36.9815C1.61069 36.8594 1.67635 36.742 1.75417 36.6306C1.76511 36.6162 1.77605 36.6006 1.787 36.5862C1.79186 36.5814 1.82347 36.5395 1.83199 36.5299C1.87819 36.4748 1.92682 36.4221 1.97668 36.3718C2.07516 36.2724 2.17973 36.1813 2.28916 36.0927C2.30497 36.0795 2.33293 36.0592 2.33901 36.0544C2.37062 36.0316 2.40224 36.0088 2.43507 35.9873C2.50072 35.943 2.5676 35.8998 2.63569 35.8579C2.77673 35.7729 2.92142 35.6938 3.06976 35.6219C3.14636 35.5848 3.22418 35.55 3.30199 35.5153C3.31172 35.5105 3.31902 35.5069 3.3251 35.5045C3.33118 35.5021 3.33969 35.4997 3.34941 35.4949C3.38954 35.4794 3.43088 35.4626 3.471 35.447C3.63758 35.3847 3.80659 35.3284 3.97681 35.2781C4.32942 35.1751 4.68932 35.102 5.05287 35.0457C5.06625 35.0433 5.07598 35.0421 5.08327 35.0409C5.09057 35.0409 5.10029 35.0385 5.11367 35.0373C5.15987 35.0314 5.20608 35.0266 5.25228 35.0218C5.34469 35.0122 5.43831 35.0038 5.53193 34.9978C5.71797 34.9846 5.90521 34.9786 6.09246 34.9786C7.18554 34.9763 8.27863 34.9786 9.37171 34.9786C11.3512 34.9786 13.3319 34.9786 15.3113 34.9786C17.3856 34.9786 19.4599 34.9786 21.5343 34.9786C22.9082 34.9786 24.2834 34.9786 25.6573 34.9786H25.9054C26.2324 34.9786 26.5595 34.9942 26.8854 35.0266C26.9571 35.0338 27.0301 35.0421 27.1018 35.0517C27.1176 35.0541 27.2076 35.0673 27.227 35.0697C27.3839 35.0936 27.5407 35.1224 27.6964 35.1559C27.97 35.2146 28.2411 35.2889 28.5049 35.3799C28.5694 35.4027 28.6338 35.4255 28.6983 35.4506C28.7238 35.4602 28.7481 35.471 28.7737 35.4806C28.7809 35.483 28.787 35.4854 28.7919 35.4878C28.7968 35.4902 28.8028 35.4925 28.8101 35.4961C28.9281 35.5488 29.046 35.6028 29.1603 35.6638C29.2588 35.7166 29.3561 35.7717 29.4509 35.8316C29.502 35.8639 29.5518 35.8962 29.6017 35.931C29.6211 35.9442 29.6406 35.9585 29.66 35.9717C29.671 35.9801 29.6831 35.9885 29.6941 35.9969C29.857 36.1442 30.0163 36.282 30.1622 36.4473C30.1634 36.4497 30.1646 36.4497 30.1658 36.4509C30.1792 36.47 30.1938 36.488 30.206 36.506C30.2364 36.5491 30.2655 36.5922 30.2935 36.6365C30.3434 36.7168 30.3847 36.8019 30.4273 36.8857C30.392 36.8162 30.4455 36.9288 30.4552 36.9576C30.471 37.0007 30.4844 37.045 30.4978 37.0894C30.5124 37.1385 30.5245 37.1888 30.5343 37.2391C30.5379 37.2595 30.5428 37.2798 30.5464 37.3002C30.5464 37.3062 30.5489 37.3134 30.5501 37.3193C30.5501 37.5661 30.5549 37.8141 30.5586 38.062C28.8101 38.0656 27.0617 38.0692 25.3132 38.0716L25.3157 38.0752ZM24.1241 33.0836C24.1144 33.0692 24.1059 33.0548 24.0973 33.0392C24.0998 33.0452 24.1071 33.0608 24.1253 33.086C24.1253 33.086 24.1253 33.0848 24.1253 33.0836H24.1241ZM27.6502 35.8675C27.5663 35.8411 27.4568 35.8591 27.3815 35.9022C27.3085 35.9442 27.2404 36.0256 27.221 36.1071C27.2003 36.1945 27.2052 36.2939 27.2562 36.3718C27.3061 36.4485 27.3754 36.5012 27.4641 36.5299C27.4775 36.5347 27.4909 36.5395 27.5055 36.5443C27.5651 36.5719 27.621 36.6042 27.6757 36.6413C27.7256 36.6833 27.7718 36.7288 27.8143 36.7779C27.8411 36.815 27.8654 36.8534 27.8873 36.8941C27.9262 36.9684 28.0149 37.0307 28.0952 37.0522C28.1791 37.075 28.2897 37.0642 28.3639 37.0175C28.4381 36.9708 28.5037 36.9001 28.5244 36.8126C28.5463 36.7204 28.5341 36.6329 28.4891 36.5479C28.3165 36.2221 28.004 35.9789 27.6502 35.8675ZM21.8431 32.935C21.8881 32.9554 21.9294 32.9806 21.9695 33.0081C22.0048 33.0381 22.0388 33.0704 22.0692 33.1063C22.0972 33.1471 22.1227 33.189 22.1446 33.2333C22.158 33.2716 22.1702 33.3112 22.1787 33.3507C22.1957 33.4322 22.2687 33.516 22.3392 33.5555C22.4146 33.5987 22.524 33.6166 22.6079 33.5903C22.6918 33.5639 22.7732 33.5124 22.8158 33.4322C22.8608 33.3471 22.8705 33.2621 22.8511 33.1674C22.8316 33.0716 22.7939 32.9818 22.7526 32.8931C22.7112 32.8045 22.6529 32.7278 22.5909 32.6511C22.5459 32.596 22.496 32.5457 22.4401 32.5014C22.3623 32.4403 22.2845 32.3828 22.1945 32.3421C22.1544 32.3169 22.1106 32.3037 22.0644 32.3013C22.0182 32.2906 21.972 32.293 21.9258 32.3073C21.8443 32.3289 21.7568 32.3912 21.7179 32.4655C21.6753 32.5457 21.6534 32.6415 21.6826 32.7302C21.7093 32.8104 21.7616 32.8979 21.8431 32.935ZM11.7488 9.92815C11.6637 9.88742 11.5737 9.86826 11.4801 9.89341C11.3986 9.91498 11.3111 9.97727 11.2721 10.0515C11.1895 10.2073 11.2223 10.4373 11.3974 10.5223C11.4861 10.5654 11.57 10.6169 11.6503 10.6744C11.7403 10.7475 11.8217 10.8278 11.8947 10.9164C11.9628 11.0087 12.0199 11.1057 12.0686 11.2087C12.0795 11.2375 12.0917 11.2662 12.1014 11.295C12.1293 11.38 12.1816 11.4543 12.2619 11.4998C12.3373 11.5429 12.4467 11.5609 12.5306 11.5345C12.7032 11.4794 12.8358 11.295 12.7738 11.1117C12.6035 10.6062 12.2363 10.1653 11.75 9.92696L11.7488 9.92815ZM14.8359 25.7273C15.0171 25.7189 15.1946 25.5763 15.1849 25.3835C15.1642 24.9918 15.1435 24.5988 15.1217 24.2071C15.1119 24.0274 14.9685 23.8549 14.7727 23.8633C14.5915 23.8717 14.414 24.0143 14.4237 24.2071C14.4444 24.5988 14.4651 24.9918 14.487 25.3835C14.4967 25.5632 14.6402 25.7357 14.8359 25.7273Z" stroke="#C0BEBE" stroke-width="0.5"/>
</svg>
