<svg width="253" height="251" viewBox="0 0 253 251" fill="none" xmlns="http://www.w3.org/2000/svg">
<path d="M120.981 220.932C118.95 221.065 117.18 219.532 117.041 217.496C116.754 213.28 120.796 200.307 129.232 191.563C131.863 188.837 134.736 186.747 137.775 185.317C132.342 182.548 126.94 180.342 120.786 180.342C120.767 180.342 120.747 180.343 120.729 180.342C118.69 180.342 117.036 178.691 117.032 176.653C117.028 174.611 118.68 172.953 120.722 172.949H120.787C130.443 172.949 138.174 177.099 145.651 181.112C152.103 184.575 158.198 187.847 165.085 188.173C167.124 188.269 168.699 190.001 168.602 192.041C168.506 194.08 166.799 195.657 164.735 195.558C158.376 195.257 152.809 193.067 147.539 190.445C142.973 190.514 138.704 192.513 134.84 196.403C127.516 203.776 124.345 215.066 124.417 216.999C124.553 219.032 123.015 220.793 120.981 220.932Z" fill="black"/>
<path d="M137.243 166.947L133.383 163.087C131.939 161.642 131.939 159.302 133.383 157.859C134.105 157.137 135.051 156.776 135.997 156.776C136.943 156.776 137.889 157.137 138.611 157.859L142.471 161.719C143.915 163.163 143.915 165.503 142.471 166.947C141.027 168.39 138.686 168.39 137.243 166.947Z" fill="black"/>
<path d="M140.253 108.607C142.25 109.033 143.523 110.998 143.097 112.994C142.671 114.991 140.706 116.261 138.711 115.838C133.291 114.682 129.015 114.796 126.902 115.201C124.629 121.692 121.66 128.125 112.765 132.397C110.924 133.281 108.716 132.505 107.832 130.665C106.948 128.825 107.724 126.616 109.564 125.732C116.723 122.294 118.39 117.343 120.698 110.491C122.905 103.934 125.653 95.7737 134.377 88.0596C135.08 87.4381 135.953 87.1325 136.824 87.1325C137.846 87.1325 138.864 87.5539 139.595 88.3805C140.947 89.9099 140.803 92.2462 139.274 93.5986C134.046 98.2214 131.446 102.909 129.604 107.534C129.919 107.526 130.234 107.517 130.558 107.517C133.503 107.518 136.838 107.879 140.253 108.607Z" fill="black"/>
<path d="M182.985 121.206L179.124 117.345C177.681 115.901 177.681 113.561 179.124 112.117C179.846 111.396 180.793 111.035 181.739 111.035C182.684 111.035 183.631 111.396 184.353 112.117L188.213 115.978C189.657 117.422 189.657 119.762 188.213 121.206C186.769 122.648 184.429 122.648 182.985 121.206Z" fill="black"/>
<path d="M5.97355 177.913C8.92642 179.951 13.7902 181.403 19.3933 182.156C14.045 173.88 9.69187 164.925 6.64585 155.751C6.00263 153.813 7.05149 151.721 8.98951 151.078C9.37593 150.95 9.76876 150.888 10.1547 150.888C11.7043 150.888 13.1475 151.87 13.6626 153.421C17.0891 163.741 22.2777 173.767 28.7355 182.744C37.2944 182.714 46.0983 181.169 51.8616 177.771C52.4506 177.423 53.0973 177.258 53.7355 177.258C55.0008 177.258 56.234 177.908 56.9235 179.078C57.9605 180.837 57.375 183.103 55.6164 184.14C49.9098 187.504 42.2706 189.367 34.4061 189.969C36.2707 192.147 38.2077 194.246 40.2206 196.237C43.2529 199.236 46.3699 202.256 49.5761 205.229C50.1542 204.699 50.7669 204.181 51.4185 203.677C54.9845 200.923 59.4215 198.826 62.7223 198.336C62.9066 198.308 63.089 198.296 63.2699 198.296C65.0709 198.296 66.6491 199.614 66.9217 201.449C67.2214 203.469 65.827 205.349 63.8081 205.649C61.7301 205.958 58.0631 207.671 55.1067 210.215C62.0135 216.247 69.3521 221.895 77.2353 226.513C77.9376 226.924 78.6425 227.317 79.3473 227.707C83.5038 225.342 87.6578 222.249 90.484 218.513C91.6733 216.941 92.5482 215.366 93.1136 213.777C93.1333 213.711 93.1545 213.647 93.1776 213.584C94.0683 210.964 94.121 208.301 93.3398 205.541C92.7838 203.577 93.9258 201.534 95.891 200.978C96.2276 200.883 96.5657 200.837 96.8989 200.837C98.5111 200.837 99.9932 201.9 100.454 203.529C101.472 207.128 101.527 210.733 100.659 214.236C101.323 215.086 102.352 216.307 103.234 217.354C107.946 222.94 114.86 231.145 117.088 238.973C119.069 239.1 121.069 239.165 123.09 239.165C137.273 239.165 150.307 235.744 162.795 230.453C157.586 227.13 153.059 222.924 149.318 219.446L148.39 218.585C146.893 217.197 146.804 214.857 148.192 213.36C148.921 212.574 149.911 212.177 150.904 212.177C151.803 212.177 152.705 212.502 153.417 213.162L154.353 214.032C159.274 218.607 164.874 223.812 171.102 226.642C180.167 222.172 189.007 216.868 197.86 211.351C201.699 208.96 205.283 206.19 208.611 203.062C205.476 200.468 202.408 197.458 199.496 194.093C194.98 199.274 186.67 205.603 178.799 208.064C176.85 208.673 174.777 207.587 174.167 205.639C173.558 203.691 174.644 201.617 176.592 201.008C184.759 198.454 192.27 191.436 194.825 188.192C186.26 176.336 181.859 163.698 182.664 152.976C182.809 151.035 184.43 149.556 186.346 149.556C186.439 149.556 186.532 149.56 186.627 149.566C188.662 149.719 190.189 151.493 190.036 153.529C189.298 163.364 194.288 175.959 203.386 187.22C206.641 191.251 210.169 194.796 213.752 197.708C218.545 192.181 222.686 185.774 226.138 178.52C227.015 176.676 229.221 175.893 231.064 176.77C232.907 177.647 233.691 179.853 232.814 181.696C229.185 189.323 224.837 196.098 219.815 201.996C223.822 204.408 227.746 205.926 231.285 206.335C233.313 206.57 234.767 208.404 234.532 210.432C234.298 212.461 232.467 213.915 230.436 213.68C225.439 213.102 220.038 210.944 214.664 207.499C210.709 211.346 206.412 214.733 201.77 217.625C195.766 221.367 189.763 225.013 183.684 228.388C184.655 228.195 185.636 227.93 186.631 227.565C188.546 226.862 190.672 227.845 191.375 229.761C192.079 231.678 191.096 233.801 189.179 234.505C182.793 236.85 176.86 236.497 171.456 234.693C156.464 241.764 140.715 246.558 123.09 246.558C121.205 246.558 119.351 246.505 117.527 246.405C117.353 247.212 117.104 248.004 116.749 248.773C115.895 250.627 113.7 251.436 111.845 250.582C109.997 249.73 109.188 247.547 110.028 245.698C98.7344 244.188 88.6234 240.763 79.3734 236.077C73.3331 239.006 67.7285 240.528 65.1369 240.528C63.0954 240.528 61.4403 238.873 61.4403 236.831C61.4403 234.789 63.0949 233.135 65.1369 233.135C66.1247 233.135 68.387 232.577 71.23 231.512C63.9614 227.044 57.2173 221.846 50.8142 216.29C50.691 216.724 50.6008 217.164 50.5559 217.612C50.3524 219.643 48.541 221.123 46.5089 220.921C44.4777 220.718 42.9956 218.906 43.1991 216.874C43.3993 214.875 44.0055 212.927 44.9829 211.061C41.5879 207.924 38.2772 204.714 35.0212 201.493C31.4606 197.971 28.1129 194.146 25.0023 190.102C15.5809 189.653 6.82477 187.484 1.77467 183.998C0.0944275 182.838 -0.327974 180.536 0.831783 178.856C1.99154 177.175 4.2943 176.753 5.97355 177.913ZM108.89 238.057C106.17 232.305 100.56 225.651 97.583 222.121C97.4716 221.989 97.3671 221.864 97.2607 221.739C96.9807 222.153 96.6889 222.565 96.3804 222.974C93.8662 226.298 90.6043 229.172 87.1176 231.581C94.1925 234.719 101.419 236.871 108.89 238.057Z" fill="black"/>
<path d="M202.338 117.988C202.515 117.963 202.691 117.95 202.865 117.95C204.675 117.95 206.256 119.281 206.52 121.125C207.022 124.634 205.756 128.195 202.863 131.421C201.052 133.44 197.431 136.396 194.774 136.396C194.735 136.396 194.696 136.395 194.657 136.395C192.616 136.326 191.018 134.617 191.086 132.576C191.146 130.795 192.455 129.351 194.144 129.057C195.456 128.442 199.634 125.203 199.201 122.17C198.912 120.149 200.316 118.277 202.338 117.988Z" fill="black"/>
<path d="M62.2004 130.07C57.138 128.547 48.1768 119.754 46.8081 116.333C46.0495 114.437 46.9712 112.286 48.8669 111.528C49.3174 111.347 49.7821 111.262 50.239 111.262C51.6881 111.262 53.0618 112.12 53.6518 113.536C54.6908 115.547 61.6937 122.197 64.3311 122.991C66.2864 123.579 67.3939 125.641 66.8054 127.596C66.2164 129.551 64.1537 130.658 62.2004 130.07Z" fill="black"/>
<path d="M81.937 68.815C87.1256 62.5366 93.0067 55.4208 103.805 50.3101C104.315 50.0686 104.854 49.9538 105.383 49.9538C106.768 49.9538 108.096 50.7355 108.727 52.0702C109.6 53.9151 108.812 56.1192 106.967 56.9926C100.806 59.9081 96.4958 63.5953 92.8539 67.4827C93.6459 67.6828 94.4626 67.8962 95.3089 68.118C103.245 70.197 113.121 72.7852 117.449 67.5729C118.18 66.6926 119.234 66.2382 120.295 66.2382C121.127 66.2382 121.965 66.5176 122.655 67.0909C124.225 68.3955 124.441 70.7259 123.137 72.2967C115.801 81.1297 102.874 77.7436 93.435 75.2698C91.2027 74.6852 89.067 74.1273 87.3784 73.835C80.2725 82.4299 72.7959 91.2215 53.9983 92.5459C51.9627 92.6893 50.1942 91.155 50.0508 89.1184C49.9074 87.0818 51.4417 85.3143 53.4783 85.1708C69.3428 84.054 74.9005 77.3286 81.937 68.815Z" fill="black"/>
<path d="M252.022 108.185C250.985 109.943 248.719 110.528 246.96 109.491C246.33 109.12 245.174 108.415 243.691 107.488C244.357 113.1 244.704 118.917 244.704 124.946C244.704 130.211 244.443 135.391 243.924 140.467C246.807 145.672 248.6 151.241 247.753 157.536C247.481 159.559 245.617 160.98 243.597 160.706C242.364 160.541 241.358 159.784 240.82 158.761C240.318 160.844 239.774 162.905 239.176 164.937C238.6 166.896 236.545 168.018 234.587 167.441C232.628 166.864 231.507 164.81 232.083 162.851C234.035 156.215 235.445 149.275 236.305 142.095C234.57 139.294 232.471 136.497 230.326 133.641C230.239 133.525 230.152 133.408 230.065 133.293C229.498 134.022 228.862 134.819 228.149 135.71C222.367 142.947 212.689 155.06 216.246 164.461C216.969 166.37 216.007 168.504 214.097 169.226C212.188 169.95 210.054 168.987 209.332 167.077C204.284 153.736 215.608 139.564 222.373 131.095C223.464 129.73 224.739 128.134 225.516 127.029C222.349 122.398 219.603 117.486 218.311 111.921C217.848 109.932 219.086 107.946 221.075 107.483C221.356 107.418 221.638 107.387 221.915 107.387C223.595 107.387 225.115 108.54 225.512 110.248C227.082 117.006 231.737 123.206 236.239 129.202C236.56 129.63 236.883 130.06 237.204 130.49C237.272 128.654 237.31 126.807 237.31 124.947C237.31 116.945 236.683 109.342 235.456 102.156C229.012 97.832 222.04 92.7548 220.263 90.009C219.154 88.2947 219.643 86.0028 221.357 84.8938C221.979 84.4921 222.675 84.2999 223.364 84.2999C224.574 84.2999 225.76 84.8938 226.466 85.9865C227.041 86.824 229.579 88.9015 233.098 91.4822C231.209 84.5887 228.699 78.1448 225.551 72.2001C223.975 69.225 222.236 66.3727 220.345 63.6406C214.288 61.8308 208.594 61.8017 203.171 63.5332C194.934 66.1627 187.982 72.5283 182.088 79.2247C189.702 80.9961 197.87 82.0647 205.793 82.8582C207.825 83.0618 209.306 84.8736 209.103 86.9048C208.899 88.9365 207.083 90.4196 205.056 90.215C182.216 87.927 157.362 83.3373 146.208 66.6418C145.073 64.9448 145.53 62.6485 147.228 61.5148C147.858 61.0934 148.572 60.8913 149.278 60.8913C150.471 60.8913 151.642 61.4685 152.355 62.5351C156.998 69.4853 164.889 73.9986 174.218 77.0461C181.255 68.637 189.879 60.016 200.921 56.4904C204.368 55.3898 207.868 54.8372 211.436 54.8372C212.074 54.8372 212.713 54.8575 213.356 54.8929C206.473 47.3617 198.148 41.0034 188.43 35.9075C186.191 34.733 183.955 33.52 181.668 32.2671C175.502 33.8818 168.727 37.2728 163.465 40.3593C166.489 41.2967 169.617 42.4437 172.832 43.8927C174.693 44.7316 175.522 46.921 174.683 48.7822C173.844 50.6433 171.654 51.4708 169.794 50.6334C159.602 46.0397 150.045 44.6419 142.366 43.5186C135.538 42.5206 129.641 41.6585 125.271 38.8904C123.546 37.7982 123.034 35.5142 124.126 33.7896C124.83 32.6781 126.028 32.0704 127.253 32.0704C127.929 32.0704 128.614 32.2557 129.227 32.6446C132.267 34.5698 137.196 35.2904 143.436 36.2032C146.54 36.6572 149.935 37.1555 153.564 37.8741C155.815 36.3536 160.654 33.2297 166.493 30.3157C168.702 29.2136 170.827 28.2565 172.869 27.4388C156.985 18.7941 140.563 10.7265 123.089 10.7265C108.126 10.7265 94.5769 12.9046 82.5712 17.2168C83.1543 20.3846 83.3771 23.5928 83.2297 26.8237C84.8084 27.0676 86.57 27.4925 88.5751 27.9785C94.1033 29.3176 100.982 30.9851 106.606 29.0352C108.536 28.3664 110.641 29.3876 111.309 31.3168C111.978 33.2454 110.957 35.3515 109.028 36.0204C101.354 38.682 92.9607 36.6483 86.8337 35.1642C85.3935 34.8153 83.6265 34.387 82.2696 34.1573C81.5786 37.3753 80.5332 40.6008 79.1245 43.8149C74.6516 54.0191 67.49 61.6908 64.7219 63.8073C63.0998 65.0469 60.7798 64.7378 59.5397 63.1162C58.2996 61.4946 58.6092 59.1746 60.2308 57.934C61.3767 57.0577 68.0942 50.562 72.3528 40.8472C73.9113 37.291 74.9532 33.7659 75.4875 30.2793C75.5023 30.0777 75.5299 29.8776 75.5767 29.6829C76.0203 26.4357 76.0198 23.2231 75.5733 20.0519C70.7524 22.2383 66.2109 24.8028 61.9642 27.7508C60.2879 28.9145 57.9842 28.499 56.8195 26.8217C55.6553 25.1449 56.0708 22.8411 57.7486 21.6769C62.7243 18.2233 68.0592 15.2537 73.7368 12.7705C72.9595 10.6447 71.9752 8.5406 70.7804 6.46063C69.7636 4.69019 70.3748 2.4308 72.1453 1.41397C72.7259 1.08078 73.3582 0.922577 73.9832 0.922577C75.2637 0.922577 76.5088 1.58896 77.1924 2.77878C78.5631 5.16533 79.7012 7.5977 80.6091 10.0656C93.2782 5.59364 107.481 3.33426 123.089 3.33426C144.432 3.33426 164.275 14.2576 181.781 23.8954C182.128 24.0862 182.464 24.271 182.807 24.4593C184.728 24.1088 186.545 23.9275 188.248 23.9275C190.057 23.9275 191.744 24.1256 193.301 24.5229C195.279 25.0271 196.474 27.04 195.97 29.018C195.77 29.8012 195.332 30.4582 194.755 30.9388C207.002 37.8391 217.107 46.6913 224.942 57.3618C230.458 59.3644 236.159 62.5563 242.096 66.9696C243.735 68.188 244.076 70.5036 242.858 72.1419C241.639 73.7803 239.324 74.1213 237.685 72.9034C235.873 71.5564 234.094 70.3424 232.344 69.2521C236.843 77.8747 240.125 87.408 242.17 97.7709C244.998 99.6345 247.93 101.482 250.714 103.124C252.474 104.16 253.059 106.425 252.022 108.185Z" fill="black"/>
<path d="M37.4506 54.7377C39.227 59.9957 41.617 64.4632 44.3224 67.456C45.6912 68.9707 45.5729 71.3079 44.0587 72.6777C42.5441 74.0459 40.2068 73.9281 38.8371 72.414C36.5664 69.9017 34.6126 66.7862 32.9841 63.3868C30.875 67.5423 28.5634 71.7328 26.3095 75.8124C20.2268 86.8244 14.0012 98.1026 10.8945 109.998C12.0523 113.955 13.4777 117.356 15.1348 120.332C15.2398 120.225 15.3364 120.126 15.4463 120.015C20.7867 114.577 31.8993 103.263 31.8993 94.7249C31.8993 92.6829 33.5539 91.0282 35.5959 91.0282C37.6379 91.0282 39.2925 92.6829 39.2925 94.7249C39.2925 106.286 27.2109 118.587 20.7206 125.195C20.2766 125.648 19.8123 126.121 19.3879 126.559C24.8298 133.131 31.7716 137.349 39.4374 142.004C40.7889 142.825 42.1542 143.654 43.5284 144.506C45.2633 145.583 45.7971 147.861 44.7207 149.596C43.6442 151.331 41.3661 151.864 39.6306 150.789C38.2772 149.949 36.9316 149.132 35.5998 148.323C26.8142 142.988 18.2745 137.8 11.7699 128.762C11.7413 128.724 11.7102 128.689 11.6826 128.649C11.6654 128.624 11.654 128.6 11.6373 128.575C10.6712 127.219 9.75051 125.777 8.88156 124.235C8.87811 124.472 8.87072 124.709 8.87072 124.946C8.87072 128.991 9.18074 133.143 9.79192 137.284C10.0896 139.304 8.69377 141.182 6.67442 141.481C4.66247 141.778 2.77571 140.383 2.47751 138.363C1.8136 133.866 1.47745 129.351 1.47745 124.946C1.47745 119.794 2.13594 114.824 3.26416 109.995C1.58983 103.595 0.507946 96.0093 0.179684 86.8782C0.106245 84.8376 1.70073 83.1248 3.74127 83.0509C3.78661 83.0494 3.83196 83.0484 3.87632 83.0484C5.85673 83.0484 7.49655 84.6173 7.56802 86.612C7.67892 89.6965 7.87706 92.5754 8.15308 95.2764C11.4929 87.3503 15.6967 79.7348 19.8379 72.2375C22.7198 67.0198 25.442 62.092 27.8325 57.138C28.3539 56.0581 28.8937 54.993 29.4486 53.9407C26.7102 44.3314 26.2996 34.6846 28.4427 30.7564C29.1135 29.5256 30.3832 28.8282 31.6927 28.8282C32.2906 28.8282 32.8969 28.9736 33.4588 29.2802C35.2509 30.2576 35.9123 32.5017 34.9344 34.2943C34.4618 35.2051 34.1375 38.9964 35.0084 44.6892C37.7744 40.6249 40.8205 36.8312 44.1336 33.345C44.8602 32.58 45.8361 32.1946 46.8139 32.1946C47.7283 32.1946 48.6445 32.5322 49.3597 33.2114C50.8398 34.6176 50.8995 36.9578 49.4933 38.4375C44.9139 43.2574 40.8821 48.725 37.4506 54.7377Z" fill="black"/>
<path d="M146.784 125.518C149.301 123.001 152.607 121.743 155.913 121.743C159.22 121.743 162.527 123.002 165.044 125.518L169.781 130.255C170.954 131.429 171.6 132.989 171.6 134.648C171.6 136.307 170.954 137.867 169.781 139.041L160.306 148.516C159.133 149.689 157.573 150.335 155.913 150.335C154.254 150.335 152.694 149.688 151.52 148.516L146.783 143.778C141.75 138.744 141.75 130.553 146.783 125.519L146.784 125.518ZM152.012 138.55L155.914 142.452L163.718 134.648L159.816 130.746C157.665 128.595 154.164 128.594 152.012 130.746C149.86 132.898 149.86 136.399 152.012 138.55Z" fill="black"/>
<path d="M25.2613 163C23.7896 161.586 23.7423 159.246 25.1569 157.774C25.8829 157.018 26.8519 156.638 27.8229 156.638C28.7441 156.638 29.6667 156.98 30.3834 157.669C32.5373 159.738 36.9023 160.661 39.4717 160.195C41.4763 159.834 43.4044 161.164 43.7687 163.173C44.1329 165.182 42.7997 167.106 40.7907 167.47C36.3562 168.274 29.405 166.982 25.2613 163Z" fill="black"/>
<path d="M94.245 91.9742C94.97 91.228 95.9331 90.8534 96.8972 90.8534C97.8253 90.8534 98.7544 91.2004 99.4725 91.8983C100.937 93.3208 100.971 95.661 99.5484 97.1254C95.8686 100.914 87.9109 119.989 92.5209 131.305C95.3082 138.147 96.4127 150.304 95.4028 163.03C94.8858 169.542 92.9822 185.468 86.4831 192.69C85.1173 194.208 82.7795 194.33 81.2624 192.964C79.7453 191.598 79.6221 189.261 80.9879 187.744C84.3947 183.958 87.0942 174.264 88.0322 162.445C88.5221 156.27 88.4792 150.195 87.9706 145.004C81.0076 156.96 70.5077 161.486 64.2535 164.178C62.7965 164.804 61.5382 165.346 60.6737 165.827C58.8874 166.82 56.6379 166.175 55.6472 164.391C54.6555 162.606 55.2983 160.355 57.083 159.364C58.2733 158.703 59.6904 158.093 61.3307 157.387C68.8994 154.129 80.2486 149.236 85.206 132.831C80.2397 118.27 88.8652 97.5128 94.245 91.9742Z" fill="black"/>
</svg>
