<svg width="404" height="184" viewBox="0 0 404 184" fill="none" xmlns="http://www.w3.org/2000/svg">
<path d="M72.8598 60.94C70.5598 61.5 68.2898 62.47 66.3098 63.78C64.0398 65.28 62.2199 67.08 60.5799 69.24C60.0299 69.96 59.9698 71.3 60.1998 72.13C60.4398 73 61.1098 73.94 61.9198 74.37C62.7898 74.83 63.8398 75.06 64.8098 74.75C65.1098 74.62 65.4099 74.5 65.7099 74.37C66.0399 74.17 66.3298 73.92 66.5798 73.64C67.4499 72.52 68.4499 71.53 69.5499 70.64C70.4899 69.97 71.4898 69.39 72.5398 68.91C73.2898 68.62 74.0599 68.36 74.8499 68.17C76.7599 67.71 78.0798 65.44 77.4698 63.56C76.8298 61.58 74.8998 60.44 72.8598 60.94Z" fill="#222222"/>
<path d="M382.01 124.88C381.05 124.66 379.97 124.71 379.12 125.26C378.29 125.79 377.67 126.54 377.4 127.5C376.77 129.72 376.13 131.94 375.5 134.15C375.23 135.08 375.39 136.21 375.88 137.04C376.34 137.82 377.23 138.56 378.12 138.76C379.08 138.98 380.16 138.93 381.01 138.38C381.84 137.85 382.46 137.1 382.73 136.14C383.36 133.92 384 131.7 384.63 129.49C384.9 128.56 384.74 127.43 384.25 126.6C383.79 125.82 382.9 125.08 382.01 124.88Z" fill="#222222"/>
<path d="M110.03 132.13C110.01 131.99 109.96 131.75 109.96 131.62C109.96 131.61 109.96 131.59 109.96 131.58C109.87 131.79 110.02 132.29 110.04 132.13H110.03Z" fill="#222222"/>
<path d="M61.0998 101.33C61.0998 101.33 61.0998 101.33 61.0898 101.33C60.9598 101.44 60.7898 101.52 60.5998 101.59C60.5198 101.69 60.7198 101.68 61.1098 101.32L61.0998 101.33Z" fill="#222222"/>
<path d="M79.2298 173.26C79.3798 173.24 79.6098 173.19 79.7498 173.19C79.7498 173.19 79.7698 173.19 79.7798 173.19C79.2698 173.08 79.0098 173.25 79.2398 173.26H79.2298Z" fill="#222222"/>
<path d="M78.8698 99.04C78.7498 99.02 78.6298 99.01 78.5098 98.99C78.4698 98.99 78.4298 98.99 78.3898 98.98C79.2198 99.21 79.1398 99.1 78.8698 99.04Z" fill="#222222"/>
<path d="M82.5898 129.52C82.5898 129.52 82.5799 129.5 82.5699 129.49C82.4799 129.41 82.3798 129.3 82.2898 129.18C82.2498 129.19 82.3298 129.35 82.5898 129.52Z" fill="#222222"/>
<path d="M68.1398 127.22C68.1398 127.22 68.0998 127.25 68.0798 127.26C68.0698 127.27 68.0498 127.29 68.0398 127.3C68.1398 127.23 68.2799 127.14 68.3499 127.08C68.2799 127.13 68.2098 127.18 68.1398 127.22Z" fill="#222222"/>
<path d="M82.7399 142.96C82.8699 142.78 82.9499 142.52 82.7399 142.96V142.96Z" fill="#222222"/>
<path d="M89.0499 121.68C83.6798 115.82 74.9298 113.4 67.4298 116.35C58.8898 119.7 53.1699 128.48 53.9699 137.74C54.7199 146.51 60.6398 154 69.1998 156.39C77.7498 158.78 86.5698 155.11 91.4698 147.86C93.9198 144.23 95.1699 139.5 94.8199 135.14C94.4199 130.04 92.4298 125.52 89.0598 121.68H89.0499ZM80.3298 127.08C80.2098 126.99 80.0598 126.89 79.9998 126.88C80.0798 126.88 80.1999 126.97 80.3298 127.08ZM78.0398 125.82C78.6398 126.02 78.0398 125.87 77.7999 125.74C77.8799 125.77 77.9598 125.8 78.0398 125.82ZM75.6299 125.15C76.5098 125.21 75.6999 125.28 75.4099 125.13C75.4799 125.13 75.5499 125.14 75.6299 125.15ZM63.9498 137.84C63.9798 137.99 63.9999 138.14 63.9999 138.13C63.9699 138.1 63.9598 137.97 63.9498 137.84ZM65.9498 142.74C65.9498 142.74 66.0098 142.81 66.0798 142.9C65.9998 142.81 65.9398 142.74 65.9498 142.74ZM83.9298 140.97C83.9298 140.97 83.9499 140.91 83.9899 140.83C83.9599 140.91 83.9298 140.98 83.9298 140.97ZM84.8098 137.73C84.7598 138.65 84.6798 137.85 84.8098 137.59C84.8098 137.64 84.8098 137.69 84.8098 137.73ZM84.8398 137.25C84.8398 137.36 84.8299 137.48 84.8199 137.59C84.6199 137.9 84.5398 139.11 84.4498 139.43C84.3498 139.8 84.2199 140.15 84.0999 140.51C84.0999 140.52 84.0698 140.6 84.0398 140.69C83.7198 141.32 83.3998 141.94 83.0098 142.54C82.8898 142.72 82.4298 143.62 82.7298 142.99C82.7298 142.99 82.7299 142.98 82.7399 142.97C82.7299 142.98 82.7199 143 82.7099 143.01C82.5199 143.22 82.3398 143.44 82.1498 143.65C81.7198 144.12 81.2399 144.53 80.7699 144.97C80.6399 145.07 80.4898 145.2 80.3998 145.26C80.0698 145.49 79.7198 145.7 79.3698 145.91C79.0298 146.1 78.6798 146.28 78.3298 146.45C78.3099 146.45 78.2998 146.45 78.2798 146.46C77.5598 146.69 76.8498 146.91 76.1098 147.06C75.9398 147.01 75.3398 147.13 75.1998 147.14C74.8298 147.15 74.4598 147.15 74.0898 147.14C73.8698 147.14 73.3199 147 73.0699 147.05C72.7099 146.98 72.3498 146.9 71.9998 146.8C71.6998 146.72 71.3898 146.63 71.0898 146.53C70.9398 146.48 70.7898 146.42 70.6398 146.37C70.1298 146.12 69.6199 145.88 69.1398 145.59C68.8198 145.4 68.5099 145.2 68.2099 144.99C68.1599 144.95 68.1098 144.92 68.0598 144.88C67.5798 144.4 67.0498 143.98 66.5898 143.48C66.5598 143.44 66.3098 143.17 66.1398 142.97C66.0198 142.8 65.8998 142.64 65.7898 142.47C65.4298 141.93 65.1099 141.36 64.8199 140.78C64.7799 140.7 64.7398 140.63 64.6998 140.55C64.6998 140.52 64.6898 140.5 64.6798 140.47C64.5698 140.03 64.3899 139.6 64.2699 139.15C64.1499 138.7 64.0799 138.25 63.9799 137.8C63.9799 137.78 63.9799 137.77 63.9699 137.75C63.9699 137.66 63.9699 137.59 63.9699 137.56C63.8999 136.63 63.9799 135.72 63.9898 134.79C63.9898 134.75 63.9898 134.72 63.9898 134.7C63.9998 134.65 64.0199 134.59 64.0299 134.55C64.0998 134.16 64.1898 133.77 64.2799 133.39C64.3899 132.94 64.5298 132.5 64.6798 132.06C64.7298 131.91 64.7898 131.77 64.8398 131.62C65.2498 130.9 65.5998 130.17 66.0598 129.48C66.1598 129.34 66.2598 129.2 66.3598 129.06C66.6698 128.58 66.0898 129.42 66.0898 129.39C66.1398 129.09 66.7498 128.62 66.9698 128.38C67.0499 128.3 67.6498 127.69 68.0499 127.33C67.9199 127.41 67.8698 127.44 68.0898 127.29C68.2598 127.14 68.3898 127.03 68.3998 127.05C68.3998 127.05 68.3899 127.08 68.3499 127.1C68.4099 127.06 68.4698 127.01 68.5398 126.97C68.8398 126.76 69.1599 126.57 69.4698 126.39C69.8198 126.19 70.1898 126.01 70.5499 125.83C70.5899 125.82 70.6199 125.81 70.6599 125.79C71.3899 125.55 72.1198 125.33 72.8698 125.19C72.8998 125.19 72.9398 125.18 72.9698 125.17C73.3399 125.17 73.7299 125.11 74.1098 125.11C74.4598 125.11 74.8198 125.11 75.1698 125.13C75.2498 125.13 75.3198 125.14 75.3998 125.15C75.8298 125.44 76.9498 125.47 77.4498 125.63C77.5498 125.66 77.6598 125.7 77.7598 125.74C77.9398 125.88 78.5699 126.1 78.7099 126.17C79.0899 126.37 79.4599 126.59 79.8199 126.82C79.9599 126.91 80.0899 127 80.2198 127.09C80.4198 127.22 80.4699 127.24 80.4599 127.21C80.6899 127.42 80.9098 127.68 81.0098 127.77C81.3398 128.09 81.6599 128.42 81.9698 128.76C82.0598 128.87 82.1698 129.03 82.2898 129.19C82.3198 129.19 82.3998 129.24 82.5098 129.41C82.5298 129.44 82.5499 129.47 82.5699 129.5C82.5999 129.53 82.6299 129.56 82.6599 129.58C82.6299 129.56 82.6098 129.55 82.5898 129.53C82.6598 129.63 82.7299 129.74 82.7999 129.84C83.2399 130.51 83.5799 131.21 83.9599 131.92C83.9599 131.94 83.9799 131.96 83.9899 131.98C84.1099 132.29 84.2098 132.61 84.3098 132.93C84.5098 133.59 84.6298 134.25 84.7798 134.91C84.7898 135.02 84.8098 135.12 84.8098 135.14C84.8298 135.52 84.8598 135.9 84.8598 136.28C84.8598 136.6 84.8598 136.93 84.8398 137.25Z" fill="#222222"/>
<path d="M400.51 108.93C395.8 95.47 385.95 84.51 374.98 75.71C363.66 66.63 350.61 59.48 336.36 56.31C329.14 54.71 321.75 54.34 314.38 54.16C307.48 54 300.47 54.04 293.68 52.7C287.42 51.46 282.03 48.92 276.72 45.45C271.89 42.28 267.66 38.96 263.31 35.54C254.78 28.82 246.24 22.1 237.44 15.74C232.68 12.3 227.66 9.49 222.08 7.6C213.85 4.82 204.99 3.87 196.39 2.99C182.35 1.56 168.17 0.569998 154.05 0.519998C143.73 0.479998 133.28 1.02999 123.18 3.27999C122.58 3.40999 121.98 3.56999 121.39 3.72C121.4 3.75999 121.42 3.79999 121.43 3.83999C10.1498 54.46 0.909851 122.82 0.909851 122.82C-1.45015 145.25 23.3798 154.24 26.3198 155.22C26.3198 155.25 26.3198 155.28 26.3198 155.31C28.3798 155.53 30.4598 155.65 32.5198 155.71C34.5098 160.21 37.1998 164.41 40.5998 168.14C46.5598 174.7 54.5498 179.53 63.0998 181.86C71.7298 184.21 81.2198 184.06 89.6498 180.97C99.0598 177.53 107.06 171.08 112.61 162.75C114.07 160.56 115.3 158.26 116.34 155.89C134.84 155.89 153.34 155.9 171.84 155.89C191.74 155.89 211.64 155.86 231.54 155.79C241.73 155.75 251.92 155.7 262.11 155.63C264.1 160.16 266.81 164.37 270.22 168.13C276.18 174.69 284.17 179.52 292.72 181.85C301.35 184.2 310.84 184.05 319.27 180.96C328.68 177.52 336.68 171.07 342.23 162.74C343.74 160.47 345.02 158.08 346.08 155.6C357.68 155.6 369.28 155.6 380.88 155.6C382.83 155.6 384.81 155.7 386.76 155.6C391.59 155.36 395.74 149.74 397.9 145.86C404 134.91 404.6 120.63 400.5 108.91L400.51 108.93ZM360.99 86.57C361.12 86.37 361.25 86.17 361.39 85.97C361.3 86.1 360.97 86.43 361.46 85.88C361.78 85.53 362.11 85.19 362.46 84.86C362.49 84.83 362.58 84.76 362.65 84.71C362.85 84.57 363.05 84.44 363.25 84.32C363.42 84.22 363.61 84.15 363.77 84.04C363.8 84.04 363.82 84.03 363.86 84.02C364.39 83.88 364.91 83.74 365.43 83.61C365.48 83.6 365.51 83.59 365.55 83.58C365.86 83.55 366.16 83.52 366.47 83.5C367 83.47 367.52 83.48 368.05 83.5C368.28 83.51 368.52 83.53 368.75 83.55C368.79 83.55 368.8 83.55 368.82 83.55C369.13 83.81 369.45 84.06 369.76 84.32C377.4 90.73 384.89 98.35 389.18 107.52C381.18 107.82 373.66 105.62 366.94 100.96C365.37 99.87 363.87 98.63 362.36 96.88C362.2 96.69 362.03 96.5 361.88 96.3C361.85 96.25 361.81 96.19 361.75 96.11C361.47 95.68 361.18 95.25 360.93 94.81C360.8 94.59 360.69 94.36 360.57 94.13C360.55 94.09 360.47 93.91 360.42 93.82C360.21 93.28 360.04 92.71 359.91 92.14C359.86 91.92 359.81 91.68 359.78 91.46C359.78 91.41 359.78 91.34 359.78 91.26C359.78 90.77 359.78 90.29 359.8 89.81C359.8 89.78 359.8 89.74 359.82 89.7C359.86 89.47 359.91 89.25 359.97 89.02C360.03 88.79 360.09 88.55 360.17 88.32C360.18 88.27 360.29 87.97 360.36 87.79C360.45 87.62 360.65 87.17 360.63 87.21C360.74 87 360.86 86.79 360.99 86.58V86.57ZM361.91 96.32C362 96.44 362.08 96.58 361.91 96.32V96.32ZM359.83 89.67C359.86 89.48 359.91 89.25 359.83 89.67V89.67ZM40.2299 71.37C40.4599 71.1 40.6998 70.83 40.9298 70.56C41.7998 74.29 41.5499 78.63 39.9099 82.89C36.4699 91.82 28.2998 97.03 21.3498 94.91C25.8298 87.99 31.9698 80.18 40.2398 71.37H40.2299ZM70.3098 173.19C69.6798 173.12 70.1198 173.16 70.4498 173.2C70.3998 173.2 70.3598 173.2 70.3098 173.19ZM87.9599 170.97C87.9599 170.97 88.2298 170.88 88.3998 170.81C88.2298 170.9 88.0599 170.99 87.9599 170.97ZM110.21 139.74C110.18 140.18 110.15 140.61 110.1 141.04C110.07 141.31 110.04 141.58 110.01 141.85C110.01 141.85 110.01 141.85 110.01 141.86C109.62 143.83 109.29 145.79 108.71 147.72C108.57 148.19 108.4 148.65 108.24 149.11C108.18 149.26 108.13 149.41 108.09 149.56C108 149.82 107.92 150.09 107.82 150.36C107.77 150.5 107.67 150.92 107.54 151.26C107.55 151.18 107.51 151.19 107.39 151.45C107.25 151.75 107.12 152.05 106.98 152.35C106.11 154.2 105.1 155.99 103.96 157.7C103.68 158.12 103.39 158.53 103.1 158.94C102.97 159.12 102.83 159.3 102.7 159.48C102.25 160.1 102.66 159.57 102.82 159.35C102.3 160.26 101.36 161.11 100.66 161.87C99.2399 163.41 97.6999 164.84 96.0699 166.16C96.0199 166.2 95.3298 166.72 95.5499 166.56C95.4599 166.62 95.3899 166.67 95.3799 166.68C94.9999 166.96 94.6098 167.23 94.2198 167.49C93.3098 168.11 92.3698 168.68 91.4198 169.22C90.5298 169.72 89.6298 170.18 88.6998 170.61C88.6398 170.64 88.5499 170.69 88.4599 170.74C88.4099 170.76 88.3299 170.79 88.2099 170.84C87.6999 171.04 87.1798 171.24 86.6599 171.43C84.8199 172.09 82.9298 172.6 81.0098 172.97C80.5898 173.05 80.1798 173.11 79.7598 173.18C79.7698 173.18 79.7898 173.18 79.7999 173.18C79.7799 173.18 79.7598 173.18 79.7298 173.18C79.6298 173.2 79.5198 173.22 79.4198 173.23C79.3198 173.25 79.2599 173.25 79.2099 173.24C79.1899 173.24 79.1699 173.24 79.1599 173.24C78.0999 173.35 77.0398 173.42 75.9798 173.44C74.1598 173.48 72.3498 173.37 70.5398 173.18C70.3398 173.13 70.0898 173.12 69.8998 173.09C69.4298 173.01 68.9698 172.93 68.4998 172.84C67.5198 172.64 66.5499 172.41 65.5798 172.14C64.7198 171.9 63.8598 171.64 63.0198 171.34C62.5198 171.17 62.0299 170.99 61.5398 170.79C61.3598 170.72 61.1798 170.65 61.0098 170.58C61.0098 170.58 60.9998 170.58 60.9898 170.57C59.2598 169.77 57.5698 168.92 55.9498 167.93C55.1398 167.43 54.3398 166.91 53.5698 166.36C53.2298 166.12 52.9099 165.87 52.5798 165.63C52.3699 165.45 52.1498 165.28 51.9398 165.11C50.4299 163.85 48.9998 162.49 47.6798 161.03C47.4698 160.8 45.7098 158.98 45.8098 158.83C45.8098 158.83 46.5598 159.84 45.9998 159.08C45.8698 158.91 45.7398 158.74 45.6199 158.56C45.2999 158.12 44.9898 157.68 44.6998 157.24C43.5498 155.53 42.5299 153.72 41.6599 151.85C41.5798 151.68 41.3398 151.12 41.2898 151.01C41.1199 150.58 40.9498 150.15 40.7898 149.72C40.3598 148.53 39.9799 147.31 39.6599 146.08C39.3599 144.91 39.1098 143.73 38.8998 142.55C38.8598 142.29 38.8098 142.02 38.7698 141.76C38.7498 141.62 38.7298 141.53 38.7198 141.47C38.6298 140.89 38.6098 140.27 38.5698 139.7C38.3898 137.22 38.4198 134.73 38.6599 132.25C38.6898 131.98 38.7198 131.72 38.7398 131.45C38.7598 131.29 38.7698 131.19 38.7698 131.13C38.8298 130.68 38.9198 130.23 38.9998 129.79C39.2298 128.53 39.5098 127.29 39.8398 126.06C40.1598 124.9 40.5198 123.74 40.9298 122.61C41.1098 122.11 41.3098 121.61 41.4998 121.11C41.4998 121.09 41.5098 121.07 41.5198 121.05C41.5198 121.04 41.5299 121.03 41.5398 121.01C41.7098 120.65 41.8699 120.28 42.0398 119.92C43.0498 117.8 44.2398 115.76 45.5898 113.83C45.8498 113.45 46.1298 113.08 46.3998 112.71C46.4098 112.7 46.4198 112.69 46.4298 112.67C46.5798 112.48 46.7298 112.29 46.8798 112.11C47.5198 111.33 48.1798 110.58 48.8798 109.84C50.2398 108.4 51.7198 107.11 53.2398 105.85C53.4098 105.73 53.5698 105.6 53.7398 105.48C54.1298 105.2 54.5198 104.93 54.9198 104.66C55.7498 104.1 56.6099 103.58 57.4799 103.09C58.2999 102.63 59.1299 102.2 59.9799 101.8C60.1498 101.72 60.3698 101.65 60.5898 101.57C60.6298 101.52 60.7298 101.44 60.9198 101.37C60.9698 101.35 61.0299 101.33 61.0798 101.31C61.0798 101.31 61.0998 101.3 61.1098 101.29C61.1098 101.29 61.0998 101.3 61.0898 101.31C61.2698 101.24 61.4498 101.16 61.6398 101.1C63.4598 100.41 65.3399 99.85 67.2399 99.44C68.0599 99.26 68.8798 99.15 69.6998 98.99C69.8498 98.97 69.9898 98.96 70.1398 98.94C70.6498 98.89 71.1498 98.84 71.6599 98.81C73.5398 98.69 75.4298 98.71 77.3098 98.86C77.6698 98.89 78.0198 98.93 78.3698 98.97C78.3298 98.96 78.3098 98.95 78.2598 98.94C78.3298 98.96 78.4098 98.97 78.4798 98.98C78.5398 98.98 78.6098 98.99 78.6698 99C78.7298 99 78.7898 99.02 78.8398 99.03C78.8398 99.03 78.8598 99.03 78.8698 99.03C79.8898 99.19 80.8998 99.39 81.8898 99.64C83.6298 100.06 85.3098 100.62 86.9798 101.26C87.1498 101.38 87.4698 101.46 87.6299 101.53C88.0599 101.73 88.4898 101.93 88.9198 102.14C89.8298 102.59 90.7198 103.08 91.5898 103.6C92.3798 104.07 93.1599 104.58 93.9099 105.1C94.2399 105.33 95.0299 105.73 95.2399 106.07C95.1999 106 94.3099 105.33 95.0199 105.9C95.2799 106.11 95.5398 106.32 95.7999 106.53C97.3799 107.85 98.8498 109.29 100.23 110.82C100.63 111.27 101.03 111.72 101.41 112.19C101.66 112.49 102.37 113.64 101.74 112.58C102.3 113.53 103.07 114.39 103.68 115.32C104.85 117.1 105.89 118.97 106.8 120.9C106.9 121.11 106.99 121.31 107.08 121.52C107.09 121.55 107.17 121.72 107.24 121.87C107.27 121.94 107.3 122 107.31 122.04C107.41 122.3 107.52 122.56 107.62 122.83C107.98 123.77 108.3 124.73 108.59 125.7C109.17 127.62 109.58 129.57 109.91 131.55C109.91 131.55 109.91 131.53 109.92 131.52C109.92 131.52 109.92 131.56 109.92 131.6C109.94 131.69 109.95 131.78 109.97 131.87C109.99 132 110 132.07 109.99 132.11C109.99 132.13 109.99 132.17 110 132.18C110.05 132.67 110.1 133.16 110.14 133.66C110.22 134.7 110.26 135.74 110.26 136.78C110.26 137.76 110.23 138.75 110.17 139.73L110.21 139.74ZM87.1198 101.31C87.1198 101.31 87.2098 101.34 87.2598 101.36C87.8698 101.6 87.4098 101.43 87.1198 101.31ZM237.79 145.78C226.97 145.82 216.15 145.86 205.32 145.88C202.08 145.88 198.83 145.88 195.59 145.88C196.66 144.61 197.72 143.35 198.79 142.08C199.44 141.3 199.89 140.48 199.89 139.43C199.89 138.51 199.48 137.41 198.79 136.78C198.08 136.12 197.14 135.64 196.14 135.68C195.2 135.72 194.12 136.03 193.49 136.78C190.96 139.79 188.42 142.8 185.89 145.81C185.87 145.84 185.85 145.86 185.83 145.89C182.85 145.89 179.86 145.89 176.88 145.89L187.87 133.53C189.17 132.06 189.42 129.65 187.87 128.23C186.45 126.92 183.96 126.66 182.57 128.23C177.5 133.93 172.43 139.64 167.36 145.34C167.2 145.51 167.07 145.7 166.94 145.9C164.09 145.9 161.23 145.9 158.38 145.9C158.38 145.9 158.39 145.89 158.4 145.88C161.57 142.55 164.74 139.23 167.9 135.9C169.25 134.48 169.42 131.99 167.9 130.6C166.43 129.25 164.04 129.08 162.6 130.6C159.43 133.93 156.26 137.25 153.09 140.58C153.01 140.66 152.96 140.75 152.89 140.84C146.77 121.52 142.38 101.49 140.02 81.56C139.34 75.82 138.82 70.05 138.45 64.28C142.38 64.7 146.32 65.1 150.26 65.43C172.41 67.33 194.65 67.96 216.87 68.19C229.11 68.32 241.35 68.32 253.59 68.32C246.46 87.84 241.65 108.14 239.21 128.79C238.54 134.43 238.08 140.09 237.78 145.76L237.79 145.78ZM198.1 31.9C198.25 31.92 198.4 31.94 198.55 31.96C199.05 32.02 198.92 32.01 198.62 31.96C198.69 31.97 198.77 31.98 198.84 31.99C199.34 32.06 199.85 32.14 200.35 32.22C201.23 32.37 202.1 32.53 202.97 32.72C204.11 32.97 205.23 33.28 206.34 33.62C207.2 33.89 208.06 34.18 208.91 34.49C209.34 34.65 209.77 34.81 210.19 34.98C210.53 35.11 211.85 35.6 210.83 35.23C214.44 36.53 217.92 38.68 221.18 40.68C224.72 42.85 228.12 45.24 231.43 47.74C231.75 47.98 232.08 48.23 232.4 48.48C232.3 48.41 232.82 48.8 233.01 48.95C233.87 49.62 234.72 50.3 235.57 50.99C237.2 52.31 238.82 53.65 240.42 55.01C241.71 56.1 242.99 57.21 244.26 58.33C225.3 58.32 206.34 58.23 187.39 57.58C176.43 57.21 165.47 56.64 154.53 55.78C149.48 55.38 144.44 54.92 139.4 54.39C140.52 46.55 141.65 38.71 142.77 30.87C144.77 30.79 146.77 30.71 148.78 30.65C160.38 30.31 172.01 30.28 183.6 30.79C188.56 31.01 193.52 31.32 198.45 31.94C198.46 31.94 198.47 31.94 198.48 31.94C198.36 31.92 198.22 31.9 198.1 31.89V31.9ZM299.93 173.19C299.3 173.12 299.74 173.16 300.07 173.2C300.02 173.2 299.98 173.2 299.93 173.19ZM317.58 170.97C317.58 170.97 317.85 170.88 318.02 170.81C317.85 170.9 317.68 170.99 317.58 170.97ZM339.83 139.74C339.8 140.18 339.77 140.61 339.72 141.04C339.69 141.31 339.66 141.58 339.63 141.85C339.63 141.85 339.63 141.85 339.63 141.86C339.24 143.83 338.91 145.79 338.33 147.72C338.06 148.61 337.77 149.49 337.44 150.36C337.39 150.5 337.29 150.92 337.16 151.26C337.17 151.18 337.13 151.19 337.01 151.45C336.87 151.75 336.74 152.05 336.6 152.35C335.73 154.2 334.72 155.99 333.58 157.7C333.3 158.12 333.01 158.53 332.72 158.94C332.59 159.12 332.45 159.3 332.32 159.48C331.87 160.1 332.28 159.57 332.44 159.35C331.92 160.26 330.98 161.11 330.28 161.87C328.86 163.41 327.32 164.84 325.69 166.16C325.64 166.2 324.94 166.72 325.17 166.56C325.08 166.62 325.01 166.67 325 166.68C324.62 166.96 324.23 167.23 323.84 167.49C322.93 168.11 321.99 168.68 321.04 169.22C320.15 169.72 319.25 170.18 318.32 170.61C318.26 170.64 318.17 170.69 318.08 170.74C318.03 170.76 317.95 170.79 317.83 170.84C317.32 171.04 316.8 171.24 316.28 171.43C314.44 172.09 312.55 172.6 310.63 172.97C310.21 173.05 309.8 173.11 309.38 173.18C309.39 173.18 309.41 173.18 309.42 173.18C309.4 173.18 309.38 173.18 309.35 173.18C309.25 173.2 309.14 173.22 309.04 173.23C308.94 173.25 308.88 173.25 308.83 173.24C308.81 173.24 308.79 173.24 308.78 173.24C307.72 173.35 306.66 173.42 305.6 173.44C303.78 173.48 301.97 173.37 300.16 173.18C299.96 173.13 299.71 173.12 299.52 173.09C299.05 173.01 298.59 172.93 298.12 172.84C297.14 172.64 296.17 172.41 295.2 172.14C294.34 171.9 293.48 171.64 292.64 171.34C292.14 171.17 291.65 170.99 291.16 170.79C290.98 170.72 290.8 170.65 290.63 170.58C290.63 170.58 290.62 170.58 290.61 170.57C288.88 169.77 287.19 168.92 285.57 167.93C284.76 167.43 283.96 166.91 283.19 166.36C282.85 166.12 282.53 165.87 282.2 165.63C281.99 165.45 281.77 165.28 281.56 165.11C280.05 163.85 278.62 162.49 277.3 161.03C277.09 160.8 275.33 158.98 275.43 158.83C275.43 158.83 276.18 159.84 275.62 159.08C275.49 158.91 275.36 158.74 275.24 158.56C274.92 158.12 274.61 157.68 274.32 157.24C273.17 155.53 272.15 153.72 271.28 151.85C271.2 151.68 270.96 151.12 270.91 151.01C270.74 150.58 270.57 150.15 270.41 149.72C269.98 148.53 269.6 147.31 269.28 146.08C268.98 144.91 268.73 143.73 268.52 142.55C268.48 142.29 268.43 142.02 268.39 141.76C268.37 141.62 268.35 141.53 268.34 141.47C268.25 140.89 268.23 140.27 268.19 139.7C268.01 137.22 268.04 134.73 268.28 132.25C268.31 131.98 268.34 131.72 268.36 131.45C268.38 131.29 268.39 131.2 268.39 131.13C268.45 130.68 268.54 130.22 268.62 129.79C268.85 128.53 269.13 127.29 269.46 126.06C269.78 124.9 270.14 123.74 270.55 122.61C270.73 122.11 270.93 121.61 271.12 121.11C271.12 121.09 271.13 121.07 271.14 121.05C271.14 121.04 271.15 121.03 271.16 121.01C271.33 120.65 271.49 120.28 271.66 119.92C272.67 117.8 273.86 115.76 275.21 113.83C275.47 113.45 275.75 113.08 276.02 112.71C276.03 112.7 276.04 112.69 276.05 112.67C276.2 112.48 276.35 112.29 276.5 112.11C277.14 111.33 277.8 110.58 278.5 109.84C279.86 108.4 281.34 107.11 282.86 105.85C283.03 105.73 283.19 105.6 283.36 105.48C283.75 105.2 284.14 104.93 284.54 104.66C285.37 104.1 286.23 103.58 287.1 103.09C287.92 102.63 288.75 102.2 289.6 101.8C289.77 101.72 289.99 101.65 290.21 101.57C290.25 101.52 290.35 101.44 290.54 101.37C290.59 101.35 290.65 101.33 290.7 101.31C290.57 101.42 290.4 101.5 290.21 101.57C290.13 101.67 290.33 101.66 290.72 101.3C290.72 101.3 290.72 101.3 290.71 101.3C290.71 101.3 290.73 101.29 290.74 101.28C290.74 101.28 290.73 101.29 290.72 101.3C290.9 101.23 291.08 101.15 291.27 101.09C293.09 100.4 294.97 99.84 296.87 99.43C297.69 99.25 298.51 99.14 299.33 98.98C299.48 98.96 299.62 98.95 299.77 98.93C300.28 98.88 300.78 98.83 301.29 98.8C303.17 98.68 305.06 98.7 306.94 98.85C307.3 98.88 307.65 98.92 308 98.96C307.96 98.95 307.94 98.94 307.89 98.93C307.96 98.95 308.04 98.96 308.11 98.97C308.17 98.97 308.24 98.98 308.3 98.99C308.36 98.99 308.42 99.01 308.47 99.02C308.47 99.02 308.49 99.02 308.5 99.02C309.52 99.18 310.52 99.38 311.52 99.63C313.26 100.05 314.94 100.61 316.61 101.25C316.78 101.37 317.1 101.45 317.26 101.52C317.69 101.72 318.12 101.92 318.55 102.13C319.46 102.58 320.35 103.07 321.22 103.59C322.01 104.06 322.79 104.57 323.54 105.09C323.87 105.32 324.66 105.72 324.87 106.06C324.83 105.99 323.94 105.32 324.65 105.89C324.91 106.1 325.17 106.31 325.43 106.52C327.01 107.84 328.48 109.28 329.86 110.81C330.26 111.26 330.66 111.71 331.04 112.18C331.29 112.48 332 113.63 331.37 112.57C331.93 113.52 332.7 114.38 333.31 115.31C334.48 117.09 335.52 118.96 336.43 120.89C336.53 121.1 336.62 121.3 336.71 121.51C336.72 121.54 336.8 121.71 336.87 121.87C336.9 121.94 336.92 122 336.94 122.04C337.04 122.3 337.15 122.56 337.25 122.83C337.61 123.77 337.93 124.73 338.22 125.7C338.8 127.62 339.21 129.57 339.54 131.55C339.54 131.55 339.54 131.53 339.55 131.52C339.55 131.52 339.55 131.56 339.55 131.6C339.57 131.69 339.58 131.78 339.6 131.87C339.62 132.01 339.63 132.07 339.62 132.11C339.62 132.13 339.62 132.17 339.63 132.18C339.68 132.67 339.73 133.16 339.77 133.66C339.85 134.7 339.89 135.74 339.89 136.78C339.89 137.76 339.86 138.75 339.8 139.73L339.83 139.74ZM316.74 101.31C316.74 101.31 316.83 101.34 316.88 101.36C317.49 101.6 317.03 101.43 316.74 101.31ZM390.64 137.97C390.2 139.16 388.94 141.56 387.8 143.17C387.69 143.33 387.64 143.41 387.61 143.44C387.59 143.46 387.52 143.52 387.37 143.69C387.05 144.05 386.73 144.4 386.39 144.74C386.09 145.04 385.76 145.32 385.44 145.6H349.08C351.3 133.37 348.73 120.29 341.69 109.83C340.26 107.7 338.67 105.67 336.96 103.75C330.84 96.98 322.68 91.92 313.75 89.88C305.32 87.95 296.25 88.44 288.18 91.62C279.24 95.14 271.82 101.16 266.39 109.07C260.23 118.05 257.31 129.47 258.24 140.31C258.39 142.11 258.65 143.89 258.99 145.65C254.42 145.68 249.86 145.7 245.29 145.72C246.42 124.19 250.26 103.03 256.73 82.34C258.63 76.26 260.76 70.25 263.09 64.31C263.72 62.71 262.65 60.71 261.15 59.95C261.09 59.89 261.05 59.83 260.99 59.78C248.49 48.66 235.91 36.9 221 29.04C215.38 26.08 209.39 23.64 203.11 22.59C198.15 21.76 193.13 21.32 188.12 21.01C176.31 20.29 164.45 20.27 152.62 20.54C143.54 20.74 134.35 20.93 125.33 22.09C110.33 24.01 96.2899 32.53 85.4899 42.84C84.0999 44.17 82.7598 45.56 81.4698 46.99C81.4499 47.01 81.4398 47.03 81.4298 47.05C80.8398 47.62 80.3799 48.33 80.1898 49.2C80.0999 49.58 80.0699 49.97 80.0699 50.36C79.9899 51.55 80.3198 52.74 81.1498 53.69C81.2298 53.8 81.3298 53.9 81.4198 54.01C81.4398 54.03 81.4498 54.05 81.4798 54.07C81.4898 54.07 81.4998 54.09 81.5098 54.09C82.0798 54.69 82.7998 55.15 83.6798 55.35C99.2698 58.85 115.04 61.48 130.9 63.41C132.34 86.46 136.15 109.38 142.34 131.63C143.67 136.42 145.11 141.17 146.66 145.89C146.43 145.89 146.2 145.89 145.96 145.89C137.11 145.89 128.26 145.89 119.41 145.89C121.72 133.57 119.17 120.38 112.08 109.85C110.65 107.72 109.06 105.69 107.35 103.77C101.23 97 93.0698 91.94 84.1398 89.9C75.7098 87.97 66.6398 88.46 58.5698 91.64C49.6298 95.16 42.2098 101.18 36.7798 109.09C30.6198 118.07 27.6998 129.49 28.6298 140.33C28.7798 142.1 29.0299 143.85 29.3699 145.58C28.1898 145.5 27.0398 145.37 25.8798 145.2V145.16C25.8798 145.16 -1.99015 136.18 18.0398 100.39C19.2398 101.45 20.5998 102.32 22.1199 102.9C31.0899 106.35 42.0198 99.67 46.5198 87.98C49.6398 79.88 48.8398 71.52 45.0698 65.99C78.6798 30.24 125.07 13.17 125.07 13.17L125.05 13.1C125.13 13.08 125.22 13.06 125.31 13.04C126.97 12.66 128.65 12.33 130.33 12.04C131.23 11.89 132.12 11.75 133.02 11.62C133.09 11.61 133.14 11.6 133.19 11.59C133.24 11.59 133.31 11.58 133.41 11.57C133.93 11.51 134.44 11.44 134.96 11.39C144.86 10.29 154.87 10.36 164.81 10.76C176.49 11.23 188.2 12.03 199.81 13.35C200.87 13.47 201.92 13.6 202.98 13.73C203.11 13.75 203.2 13.76 203.26 13.76C203.31 13.76 203.39 13.78 203.49 13.79C204 13.86 204.52 13.93 205.03 14.01C206.83 14.28 208.63 14.57 210.42 14.92C213.28 15.47 216.12 16.14 218.89 17.04C220 17.4 221.08 17.85 222.17 18.24C222.41 18.35 222.66 18.46 222.9 18.57C223.4 18.8 223.9 19.05 224.39 19.3C226.38 20.32 228.28 21.49 230.13 22.75C235.79 26.6 241.24 30.85 246.64 35.04C255.05 41.55 263.17 48.55 272.11 54.35C276.69 57.32 281.54 59.82 286.81 61.33C292.63 63 298.75 63.59 304.78 63.88C310.84 64.17 316.92 64.1 322.98 64.5C328.7 64.87 334.27 65.86 339.76 67.56C347.06 69.82 354.02 73.21 360.44 77.39C355.82 79.61 352.9 84.32 352.37 89.43C351.78 95.1 354.95 100.42 359 104.13C363.24 108.02 368.42 110.88 373.84 112.75C379.58 114.73 385.82 115.45 391.86 114.82C393.87 122.49 393.55 130.24 390.66 137.97H390.64ZM114.35 35.38C114.85 35.18 115.34 34.98 115.84 34.79C118.87 33.63 122.02 32.67 125.23 32.14C125.43 32.11 125.64 32.08 125.85 32.05C126.61 31.96 127.37 31.88 128.13 31.8C130.02 31.62 131.92 31.47 133.82 31.35C134.29 31.32 134.75 31.3 135.22 31.27C134.15 38.7 133.09 46.14 132.02 53.57C131.5 53.51 130.97 53.45 130.45 53.39C129.1 53.22 127.75 53.05 126.4 52.88C126.15 52.85 125.38 52.74 125.24 52.72C124.58 52.63 123.91 52.54 123.25 52.44C113.83 51.12 104.45 49.5 95.1398 47.6C95.7698 47.05 96.4098 46.5 97.0598 45.97C97.3798 45.7 97.7098 45.44 98.0298 45.18C98.1898 45.06 98.3398 44.93 98.4998 44.81C99.3498 44.19 100.19 43.55 101.05 42.95C102.72 41.78 104.43 40.67 106.17 39.63C107.9 38.6 109.67 37.63 111.47 36.74C112.27 36.35 113.07 35.97 113.88 35.61C114.23 35.45 115.28 35.03 114.36 35.39L114.35 35.38Z" fill="#222222"/>
<path d="M339.65 132.13C339.63 131.99 339.58 131.75 339.58 131.62C339.58 131.61 339.58 131.59 339.58 131.58C339.49 131.79 339.64 132.29 339.66 132.13H339.65Z" fill="#222222"/>
<path d="M308.85 173.26C309 173.24 309.23 173.19 309.37 173.19C309.37 173.19 309.39 173.19 309.4 173.19C308.89 173.08 308.63 173.25 308.86 173.26H308.85Z" fill="#222222"/>
<path d="M308.49 99.04C308.37 99.02 308.25 99.01 308.13 98.99C308.09 98.99 308.05 98.99 308.01 98.98C308.84 99.21 308.76 99.1 308.49 99.04Z" fill="#222222"/>
<path d="M312.36 142.96C312.49 142.78 312.57 142.52 312.36 142.96V142.96Z" fill="#222222"/>
<path d="M297.76 127.22C297.76 127.22 297.72 127.25 297.7 127.26C297.69 127.27 297.67 127.29 297.66 127.3C297.76 127.23 297.9 127.14 297.97 127.08C297.9 127.13 297.83 127.18 297.76 127.22Z" fill="#222222"/>
<path d="M312.21 129.52C312.21 129.52 312.2 129.5 312.19 129.49C312.1 129.41 312 129.3 311.91 129.18C311.87 129.19 311.95 129.35 312.21 129.52Z" fill="#222222"/>
<path d="M318.67 121.68C313.3 115.82 304.55 113.4 297.05 116.35C288.51 119.7 282.79 128.48 283.59 137.74C284.34 146.51 290.26 154 298.81 156.39C307.36 158.78 316.18 155.11 321.08 147.86C323.53 144.23 324.78 139.5 324.43 135.14C324.03 130.04 322.04 125.52 318.67 121.68ZM309.95 127.08C309.83 126.99 309.68 126.89 309.62 126.88C309.7 126.88 309.82 126.97 309.95 127.08ZM307.66 125.82C308.26 126.02 307.66 125.87 307.42 125.74C307.5 125.77 307.58 125.8 307.66 125.82ZM305.25 125.15C306.13 125.21 305.32 125.28 305.03 125.13C305.1 125.13 305.17 125.14 305.25 125.15ZM293.57 137.84C293.6 137.99 293.62 138.14 293.62 138.13C293.59 138.1 293.58 137.97 293.57 137.84ZM295.57 142.74C295.57 142.74 295.63 142.81 295.7 142.9C295.62 142.81 295.56 142.74 295.57 142.74ZM313.55 140.97C313.55 140.97 313.57 140.91 313.61 140.82C313.58 140.9 313.55 140.97 313.55 140.97ZM314.43 137.73C314.38 138.65 314.3 137.85 314.43 137.59C314.43 137.64 314.43 137.69 314.43 137.73ZM314.46 137.25C314.46 137.36 314.45 137.48 314.44 137.59C314.24 137.9 314.16 139.11 314.07 139.43C313.97 139.8 313.84 140.15 313.72 140.51C313.72 140.52 313.69 140.6 313.66 140.69C313.34 141.32 313.02 141.94 312.63 142.54C312.51 142.72 312.05 143.62 312.35 142.99C312.35 142.99 312.35 142.98 312.36 142.97C312.35 142.98 312.34 143 312.33 143.01C312.14 143.22 311.96 143.44 311.77 143.65C311.34 144.12 310.85 144.53 310.39 144.97C310.26 145.07 310.11 145.2 310.02 145.26C309.69 145.49 309.34 145.7 308.99 145.91C308.65 146.1 308.3 146.28 307.95 146.45C307.93 146.45 307.92 146.45 307.9 146.46C307.18 146.69 306.47 146.91 305.73 147.06C305.56 147.01 304.96 147.13 304.82 147.14C304.45 147.15 304.08 147.15 303.71 147.14C303.49 147.14 302.94 147 302.69 147.05C302.33 146.98 301.97 146.9 301.62 146.8C301.32 146.72 301.01 146.63 300.71 146.53C300.56 146.48 300.41 146.42 300.26 146.37C299.75 146.12 299.24 145.88 298.76 145.58C298.44 145.39 298.13 145.19 297.83 144.98C297.78 144.94 297.73 144.91 297.68 144.87C297.2 144.39 296.67 143.97 296.21 143.47C296.18 143.43 295.93 143.16 295.76 142.96C295.64 142.79 295.52 142.63 295.41 142.46C295.05 141.92 294.73 141.35 294.44 140.77C294.4 140.69 294.36 140.62 294.32 140.54C294.32 140.51 294.31 140.49 294.3 140.46C294.19 140.02 294.01 139.59 293.89 139.14C293.77 138.69 293.7 138.24 293.6 137.79C293.6 137.77 293.6 137.76 293.59 137.74C293.59 137.65 293.59 137.58 293.59 137.55C293.52 136.62 293.6 135.71 293.61 134.78C293.61 134.74 293.61 134.71 293.61 134.69C293.62 134.64 293.64 134.58 293.65 134.54C293.72 134.15 293.81 133.76 293.9 133.38C294.01 132.93 294.15 132.49 294.3 132.05C294.35 131.9 294.41 131.76 294.46 131.61C294.87 130.89 295.22 130.16 295.68 129.47C295.78 129.33 295.88 129.19 295.98 129.05C296.29 128.57 295.71 129.41 295.71 129.38C295.76 129.08 296.37 128.61 296.59 128.37C296.67 128.29 297.27 127.68 297.66 127.32C297.53 127.4 297.48 127.43 297.7 127.28C297.87 127.13 298 127.02 298.01 127.04C298.01 127.04 298 127.07 297.96 127.09C298.02 127.05 298.08 127 298.15 126.96C298.45 126.75 298.77 126.56 299.09 126.38C299.44 126.18 299.81 126 300.17 125.82C300.21 125.81 300.24 125.8 300.28 125.78C301.01 125.54 301.74 125.32 302.49 125.18C302.52 125.18 302.56 125.17 302.59 125.16C302.96 125.16 303.35 125.1 303.73 125.1C304.08 125.1 304.44 125.1 304.79 125.12C304.87 125.12 304.94 125.13 305.02 125.14C305.45 125.43 306.57 125.46 307.07 125.62C307.17 125.65 307.28 125.69 307.38 125.73C307.56 125.87 308.19 126.09 308.33 126.16C308.71 126.36 309.08 126.58 309.43 126.81C309.57 126.9 309.7 126.99 309.83 127.08C310.03 127.21 310.08 127.23 310.07 127.2C310.3 127.41 310.52 127.67 310.62 127.76C310.95 128.08 311.27 128.41 311.58 128.75C311.67 128.86 311.78 129.02 311.9 129.18C311.93 129.18 312.01 129.23 312.12 129.4C312.14 129.43 312.16 129.46 312.18 129.49C312.21 129.52 312.24 129.55 312.27 129.57C312.24 129.55 312.22 129.54 312.2 129.52C312.27 129.62 312.34 129.73 312.41 129.83C312.85 130.5 313.19 131.2 313.57 131.91C313.57 131.93 313.59 131.95 313.6 131.97C313.72 132.28 313.82 132.6 313.92 132.92C314.12 133.58 314.24 134.24 314.39 134.9C314.4 135.01 314.42 135.11 314.42 135.13C314.44 135.51 314.47 135.89 314.47 136.27C314.47 136.59 314.47 136.92 314.45 137.24L314.46 137.25Z" fill="#222222"/>
<path d="M169.53 83.34C165.89 83.5 162.24 83.66 158.6 83.82C156.64 83.91 154.76 85.48 154.85 87.57C154.94 89.53 156.5 91.41 158.6 91.32C162.24 91.16 165.89 91 169.53 90.84C171.49 90.75 173.37 89.18 173.28 87.09C173.19 85.13 171.63 83.25 169.53 83.34Z" fill="#222222"/>
<path d="M198.62 31.97C198.62 31.97 198.57 31.97 198.55 31.97C198.53 31.97 198.51 31.97 198.49 31.97C198.54 31.97 198.58 31.98 198.62 31.99V31.97Z" fill="#222222"/>
</svg>
