<svg width="125" height="90" viewBox="0 0 125 90" fill="none" xmlns="http://www.w3.org/2000/svg">
<rect x="0.5" y="0.5" width="124" height="89" rx="9.5" stroke="#C0BEBE"/>
<path d="M44.2149 28.0866C43.8891 28.1662 43.5675 28.3041 43.287 28.4902C42.9655 28.7034 42.7076 28.9592 42.4753 29.2661C42.3974 29.3685 42.3889 29.5589 42.4215 29.6768C42.4555 29.8005 42.5504 29.9341 42.6651 29.9952C42.7884 30.0605 42.9371 30.0932 43.0745 30.0492C43.117 30.0307 43.1595 30.0136 43.202 29.9952C43.2488 29.9668 43.2899 29.9312 43.3253 29.8914C43.4485 29.7323 43.5902 29.5916 43.746 29.4651C43.8792 29.3699 44.0208 29.2875 44.1696 29.2192C44.2758 29.178 44.3849 29.1411 44.4968 29.1141C44.7674 29.0487 44.9544 28.7261 44.868 28.459C44.7773 28.1776 44.5039 28.0156 44.2149 28.0866Z" fill="#222222"/>
<path d="M88.0096 37.1732C87.8736 37.1419 87.7206 37.149 87.6002 37.2272C87.4826 37.3025 87.3948 37.4091 87.3565 37.5455C87.2673 37.861 87.1766 38.1765 87.0874 38.4906C87.0491 38.6227 87.0718 38.7833 87.1412 38.9013C87.2064 39.0121 87.3324 39.1173 87.4585 39.1457C87.5945 39.177 87.7475 39.1699 87.8679 39.0917C87.9855 39.0164 88.0733 38.9098 88.1116 38.7734C88.2008 38.4579 88.2915 38.1424 88.3807 37.8283C88.419 37.6962 88.3963 37.5356 88.3269 37.4176C88.2617 37.3068 88.1357 37.2016 88.0096 37.1732Z" fill="#222222"/>
<path d="M49.4805 38.2035C49.4776 38.1836 49.4706 38.1495 49.4706 38.131C49.4706 38.1296 49.4706 38.1268 49.4706 38.1253C49.4578 38.1552 49.4791 38.2262 49.4819 38.2035H49.4805Z" fill="#222222"/>
<path d="M42.549 33.8265C42.549 33.8265 42.549 33.8265 42.5476 33.8265C42.5291 33.8421 42.5051 33.8535 42.4781 33.8634C42.4668 33.8776 42.4951 33.8762 42.5504 33.8251L42.549 33.8265Z" fill="#222222"/>
<path d="M45.1173 44.0485C45.1385 44.0457 45.1711 44.0386 45.191 44.0386C45.191 44.0386 45.1938 44.0386 45.1952 44.0386C45.123 44.0229 45.0861 44.0471 45.1187 44.0485H45.1173Z" fill="#222222"/>
<path d="M45.0663 33.5011C45.0493 33.4982 45.0323 33.4968 45.0153 33.4939C45.0096 33.4939 45.004 33.4939 44.9983 33.4925C45.1159 33.5252 45.1046 33.5096 45.0663 33.5011Z" fill="#222222"/>
<path d="M45.5933 37.8326C45.5933 37.8326 45.5919 37.8298 45.5905 37.8283C45.5777 37.817 45.5635 37.8013 45.5508 37.7843C45.5451 37.7857 45.5565 37.8084 45.5933 37.8326Z" fill="#222222"/>
<path d="M43.5463 37.5057C43.5463 37.5057 43.5406 37.51 43.5378 37.5114C43.5364 37.5128 43.5335 37.5157 43.5321 37.5171C43.5463 37.5072 43.5661 37.4944 43.576 37.4858C43.5661 37.4929 43.5562 37.5001 43.5463 37.5057Z" fill="#222222"/>
<path d="M45.6145 39.7426C45.633 39.717 45.6443 39.68 45.6145 39.7426V39.7426Z" fill="#222222"/>
<path d="M46.5084 36.7184C45.7477 35.8857 44.5082 35.5418 43.4457 35.961C42.2359 36.4371 41.4256 37.6848 41.5389 39.0007C41.6452 40.2471 42.4838 41.3115 43.6964 41.6511C44.9076 41.9908 46.1571 41.4692 46.8512 40.4389C47.1983 39.923 47.3754 39.2509 47.3258 38.6313C47.2691 37.9065 46.9872 37.2641 46.5098 36.7184H46.5084ZM45.2731 37.4858C45.2561 37.473 45.2349 37.4588 45.2264 37.4574C45.2377 37.4574 45.2547 37.4702 45.2731 37.4858ZM44.9487 37.3068C45.0337 37.3352 44.9487 37.3139 44.9147 37.2954C44.9261 37.2997 44.9374 37.3039 44.9487 37.3068ZM44.6073 37.2116C44.732 37.2201 44.6172 37.23 44.5762 37.2087C44.5861 37.2087 44.596 37.2101 44.6073 37.2116ZM42.9527 39.015C42.957 39.0363 42.9598 39.0576 42.9598 39.0562C42.9555 39.0519 42.9541 39.0334 42.9527 39.015ZM43.236 39.7113C43.236 39.7113 43.2445 39.7212 43.2545 39.734C43.2431 39.7212 43.2346 39.7113 43.236 39.7113ZM45.7831 39.4598C45.7831 39.4598 45.7859 39.4512 45.7916 39.4399C45.7874 39.4512 45.7831 39.4612 45.7831 39.4598ZM45.9078 38.9993C45.9007 39.1301 45.8894 39.0164 45.9078 38.9794C45.9078 38.9865 45.9078 38.9936 45.9078 38.9993ZM45.912 38.9311C45.912 38.9467 45.9106 38.9638 45.9092 38.9794C45.8809 39.0235 45.8695 39.1954 45.8568 39.2409C45.8426 39.2935 45.8242 39.3432 45.8072 39.3944C45.8072 39.3958 45.8029 39.4072 45.7987 39.42C45.7534 39.5095 45.708 39.5976 45.6528 39.6829C45.6358 39.7085 45.5706 39.8364 45.6131 39.7468C45.6131 39.7468 45.6131 39.7454 45.6145 39.744C45.6131 39.7454 45.6117 39.7482 45.6103 39.7497C45.5834 39.7795 45.5579 39.8108 45.531 39.8406C45.47 39.9074 45.402 39.9657 45.3355 40.0282C45.317 40.0424 45.2958 40.0609 45.283 40.0694C45.2363 40.1021 45.1867 40.1319 45.1371 40.1618C45.089 40.1888 45.0394 40.2144 44.9898 40.2385C44.987 40.2385 44.9856 40.2385 44.9827 40.24C44.8807 40.2726 44.7801 40.3039 44.6753 40.3252C44.6512 40.3181 44.5662 40.3352 44.5464 40.3366C44.494 40.338 44.4416 40.338 44.3892 40.3366C44.358 40.3366 44.2801 40.3167 44.2447 40.3238C44.1937 40.3138 44.1427 40.3025 44.0931 40.2883C44.0506 40.2769 44.0067 40.2641 43.9642 40.2499C43.9429 40.2428 43.9217 40.2343 43.9004 40.2272C43.8282 40.1916 43.7559 40.1575 43.6879 40.1163C43.6426 40.0893 43.5987 40.0609 43.5562 40.031C43.5491 40.0254 43.542 40.0211 43.5349 40.0154C43.4669 39.9472 43.3919 39.8875 43.3267 39.8165C43.3224 39.8108 43.287 39.7724 43.263 39.744C43.246 39.7198 43.229 39.6971 43.2134 39.6729C43.1624 39.5962 43.117 39.5152 43.076 39.4328C43.0703 39.4214 43.0646 39.4114 43.059 39.4001C43.059 39.3958 43.0575 39.393 43.0561 39.3887C43.0405 39.3262 43.015 39.2651 42.998 39.2011C42.981 39.1372 42.9711 39.0732 42.957 39.0093C42.957 39.0064 42.957 39.005 42.9555 39.0022C42.9555 38.9894 42.9555 38.9794 42.9555 38.9752C42.9456 38.843 42.957 38.7137 42.9584 38.5815C42.9584 38.5758 42.9584 38.5716 42.9584 38.5687C42.9598 38.5616 42.9626 38.5531 42.964 38.5474C42.974 38.492 42.9867 38.4366 42.9995 38.3826C43.015 38.3186 43.0349 38.2561 43.0561 38.1936C43.0632 38.1722 43.0717 38.1523 43.0788 38.131C43.1369 38.0287 43.1865 37.925 43.2516 37.8269C43.2658 37.807 43.28 37.7871 43.2941 37.7672C43.338 37.699 43.2559 37.8184 43.2559 37.8141C43.263 37.7715 43.3494 37.7047 43.3805 37.6706C43.3919 37.6592 43.4769 37.5725 43.5335 37.5214C43.5151 37.5327 43.508 37.537 43.5392 37.5157C43.5633 37.4944 43.5817 37.4787 43.5831 37.4816C43.5831 37.4816 43.5817 37.4858 43.576 37.4887C43.5845 37.483 43.593 37.4759 43.6029 37.4702C43.6454 37.4404 43.6908 37.4134 43.7347 37.3878C43.7843 37.3594 43.8367 37.3338 43.8877 37.3082C43.8933 37.3068 43.8976 37.3054 43.9033 37.3025C44.0067 37.2684 44.1101 37.2371 44.2163 37.2173C44.2206 37.2173 44.2263 37.2158 44.2305 37.2144C44.2829 37.2144 44.3382 37.2059 44.392 37.2059C44.4416 37.2059 44.4926 37.2059 44.5422 37.2087C44.5535 37.2087 44.5634 37.2101 44.5747 37.2116C44.6357 37.2528 44.7943 37.257 44.8651 37.2798C44.8793 37.284 44.8949 37.2897 44.9091 37.2954C44.9346 37.3153 45.0238 37.3466 45.0436 37.3565C45.0975 37.3849 45.1499 37.4162 45.2009 37.4489C45.2207 37.4617 45.2391 37.4745 45.2575 37.4873C45.2859 37.5057 45.293 37.5086 45.2915 37.5043C45.3241 37.5342 45.3553 37.5711 45.3695 37.5839C45.4162 37.6294 45.4615 37.6763 45.5055 37.7246C45.5182 37.7402 45.5338 37.763 45.5508 37.7857C45.555 37.7857 45.5664 37.7928 45.582 37.817C45.5848 37.8212 45.5876 37.8255 45.5905 37.8298C45.5947 37.834 45.599 37.8383 45.6032 37.8411C45.599 37.8383 45.5961 37.8369 45.5933 37.834C45.6032 37.8482 45.6131 37.8639 45.623 37.8781C45.6854 37.9733 45.7335 38.0728 45.7874 38.1737C45.7874 38.1765 45.7902 38.1793 45.7916 38.1822C45.8086 38.2262 45.8228 38.2717 45.8369 38.3172C45.8653 38.411 45.8823 38.5048 45.9035 38.5986C45.9049 38.6142 45.9078 38.6284 45.9078 38.6313C45.9106 38.6853 45.9149 38.7393 45.9149 38.7933C45.9149 38.8387 45.9149 38.8856 45.912 38.9311Z" fill="#222222"/>
<path d="M90.6303 34.9065C89.9631 32.9937 88.5677 31.4362 87.0137 30.1856C85.4101 28.8952 83.5614 27.8791 81.5427 27.4287C80.5199 27.2013 79.4731 27.1487 78.429 27.1231C77.4516 27.1004 76.4585 27.1061 75.4966 26.9156C74.6098 26.7394 73.8463 26.3785 73.094 25.8853C72.4098 25.4348 71.8106 24.963 71.1944 24.477C69.986 23.522 68.7762 22.567 67.5296 21.6632C66.8553 21.1744 66.1441 20.775 65.3537 20.5064C64.1878 20.1114 62.9327 19.9764 61.7144 19.8513C59.7254 19.6481 57.7167 19.5074 55.7164 19.5003C54.2545 19.4946 52.7741 19.5728 51.3433 19.8925C51.2583 19.911 51.1733 19.9337 51.0898 19.955C51.0912 19.9607 51.094 19.9664 51.0954 19.9721C35.3313 27.1657 34.0224 36.8804 34.0224 36.8804C33.688 40.068 37.2055 41.3456 37.622 41.4848C37.622 41.4891 37.622 41.4934 37.622 41.4976C37.9138 41.5289 38.2085 41.5459 38.5003 41.5545C38.7822 42.194 39.1633 42.7908 39.6449 43.3209C40.4892 44.2532 41.6211 44.9396 42.8323 45.2707C44.0548 45.6046 45.3992 45.5833 46.5934 45.1442C47.9264 44.6553 49.0597 43.7387 49.846 42.5549C50.0528 42.2437 50.227 41.9169 50.3744 41.5801C52.9951 41.5801 55.6158 41.5815 58.2366 41.5801C61.0556 41.5801 63.8747 41.5758 66.6938 41.5658C68.1373 41.5602 69.5808 41.5531 71.0244 41.5431C71.3063 42.1869 71.6902 42.7852 72.1732 43.3195C73.0175 44.2517 74.1494 44.9381 75.3606 45.2693C76.5832 45.6032 77.9275 45.5819 79.1217 45.1428C80.4548 44.6539 81.5881 43.7373 82.3743 42.5535C82.5882 42.2309 82.7695 41.8913 82.9197 41.5388C84.563 41.5388 86.2062 41.5388 87.8495 41.5388C88.1258 41.5388 88.4062 41.5531 88.6825 41.5388C89.3667 41.5047 89.9546 40.7061 90.2606 40.1547C91.1247 38.5986 91.2097 36.5692 90.6289 34.9037L90.6303 34.9065ZM85.0319 31.7289C85.0503 31.7005 85.0687 31.6721 85.0885 31.6437C85.0758 31.6621 85.029 31.709 85.0984 31.6309C85.1438 31.5811 85.1905 31.5328 85.2401 31.4859C85.2444 31.4817 85.2571 31.4717 85.267 31.4646C85.2954 31.4447 85.3237 31.4262 85.352 31.4092C85.3761 31.395 85.403 31.385 85.4257 31.3694C85.4299 31.3694 85.4328 31.368 85.4384 31.3665C85.5135 31.3467 85.5872 31.3268 85.6608 31.3083C85.6679 31.3069 85.6722 31.3054 85.6778 31.304C85.7218 31.2998 85.7643 31.2955 85.8082 31.2926C85.8833 31.2884 85.9569 31.2898 86.032 31.2926C86.0646 31.2941 86.0986 31.2969 86.1312 31.2998C86.1368 31.2998 86.1382 31.2998 86.1411 31.2998C86.185 31.3367 86.2303 31.3722 86.2742 31.4092C87.3565 32.3201 88.4176 33.403 89.0253 34.7062C87.892 34.7488 86.8267 34.4361 85.8748 33.7739C85.6523 33.619 85.4398 33.4428 85.2259 33.1941C85.2033 33.1671 85.1792 33.1401 85.1579 33.1117C85.1537 33.1046 85.148 33.096 85.1395 33.0847C85.0999 33.0236 85.0588 32.9625 85.0234 32.8999C85.0049 32.8687 84.9894 32.836 84.9724 32.8033C84.9695 32.7976 84.9582 32.772 84.9511 32.7592C84.9214 32.6825 84.8973 32.6015 84.8789 32.5205C84.8718 32.4892 84.8647 32.4551 84.8605 32.4239C84.8605 32.4167 84.8605 32.4068 84.8605 32.3954C84.8605 32.3258 84.8605 32.2576 84.8633 32.1894C84.8633 32.1851 84.8633 32.1794 84.8661 32.1737C84.8718 32.141 84.8789 32.1098 84.8874 32.0771C84.8959 32.0444 84.9044 32.0103 84.9157 31.9776C84.9171 31.9705 84.9327 31.9279 84.9426 31.9023C84.9554 31.8781 84.9837 31.8142 84.9809 31.8199C84.9965 31.79 85.0134 31.7602 85.0319 31.7303V31.7289ZM85.1622 33.1145C85.1749 33.1316 85.1863 33.1515 85.1622 33.1145V33.1145ZM84.8675 32.1695C84.8718 32.1425 84.8789 32.1098 84.8675 32.1695V32.1695ZM39.5925 29.5688C39.6251 29.5305 39.6591 29.4921 39.6917 29.4537C39.8149 29.9838 39.7795 30.6006 39.5472 31.206C39.0599 32.475 37.9025 33.2154 36.9179 32.9141C37.5526 31.9307 38.4224 30.8208 39.5939 29.5688H39.5925ZM43.8537 44.0386C43.7644 44.0286 43.8268 44.0343 43.8735 44.04C43.8664 44.04 43.8608 44.04 43.8537 44.0386ZM46.354 43.7231C46.354 43.7231 46.3923 43.7103 46.4163 43.7004C46.3923 43.7131 46.3682 43.7259 46.354 43.7231ZM49.506 39.285C49.5017 39.3475 49.4975 39.4086 49.4904 39.4697C49.4861 39.5081 49.4819 39.5465 49.4776 39.5848C49.4776 39.5848 49.4776 39.5848 49.4776 39.5862C49.4224 39.8662 49.3756 40.1447 49.2935 40.419C49.2737 40.4858 49.2496 40.5512 49.2269 40.6165C49.2184 40.6379 49.2113 40.6592 49.2057 40.6805C49.1929 40.7174 49.1816 40.7558 49.1674 40.7942C49.1603 40.8141 49.1462 40.8738 49.1277 40.9221C49.1292 40.9107 49.1235 40.9121 49.1065 40.9491C49.0867 40.9917 49.0682 41.0344 49.0484 41.077C48.9252 41.3399 48.7821 41.5943 48.6206 41.8373C48.5809 41.897 48.5398 41.9552 48.4988 42.0135C48.4803 42.0391 48.4605 42.0647 48.4421 42.0902C48.3784 42.1783 48.4364 42.103 48.4591 42.0718C48.3854 42.2011 48.2523 42.3219 48.1531 42.4299C47.952 42.6487 47.7338 42.852 47.5029 43.0395C47.4958 43.0452 47.3981 43.1191 47.4292 43.0964C47.4165 43.1049 47.4066 43.112 47.4051 43.1134C47.3513 43.1532 47.2961 43.1916 47.2408 43.2285C47.1119 43.3167 46.9787 43.3977 46.8442 43.4744C46.7181 43.5455 46.5906 43.6108 46.4588 43.6719C46.4503 43.6762 46.4376 43.6833 46.4248 43.6904C46.4178 43.6932 46.4064 43.6975 46.3894 43.7046C46.3172 43.733 46.2435 43.7615 46.1698 43.7885C45.9092 43.8823 45.6414 43.9547 45.3695 44.0073C45.31 44.0187 45.2519 44.0272 45.1924 44.0372C45.1938 44.0372 45.1966 44.0372 45.198 44.0372C45.1952 44.0372 45.1924 44.0372 45.1881 44.0372C45.174 44.04 45.1584 44.0428 45.1442 44.0443C45.1301 44.0471 45.1216 44.0471 45.1145 44.0457C45.1116 44.0457 45.1088 44.0457 45.1074 44.0457C44.9572 44.0613 44.8071 44.0713 44.6569 44.0741C44.3991 44.0798 44.1427 44.0642 43.8863 44.0372C43.8579 44.0301 43.8225 44.0286 43.7956 44.0244C43.729 44.013 43.6639 44.0016 43.5973 43.9888C43.4584 43.9604 43.321 43.9277 43.1836 43.8894C43.0618 43.8553 42.94 43.8183 42.821 43.7757C42.7501 43.7515 42.6807 43.7259 42.6113 43.6975C42.5858 43.6876 42.5603 43.6776 42.5362 43.6677C42.5362 43.6677 42.5348 43.6677 42.5334 43.6662C42.2883 43.5526 42.0489 43.4318 41.8194 43.2911C41.7047 43.22 41.5913 43.1461 41.4823 43.068C41.4341 43.0339 41.3888 42.9983 41.342 42.9642C41.3123 42.9386 41.2811 42.9145 41.2514 42.8903C41.0374 42.7113 40.8349 42.518 40.6479 42.3105C40.6181 42.2778 40.3688 42.0192 40.383 41.9979C40.383 41.9979 40.4892 42.1414 40.4099 42.0334C40.3915 42.0092 40.3731 41.9851 40.3561 41.9595C40.3107 41.897 40.2668 41.8344 40.2257 41.7719C40.0628 41.5289 39.9183 41.2717 39.7951 41.0059C39.7837 40.9818 39.7497 40.9022 39.7427 40.8866C39.7186 40.8255 39.6945 40.7643 39.6718 40.7032C39.6109 40.5341 39.5571 40.3607 39.5118 40.1859C39.4693 40.0197 39.4338 39.852 39.4041 39.6843C39.3984 39.6473 39.3913 39.609 39.3857 39.572C39.3828 39.5521 39.38 39.5393 39.3786 39.5308C39.3658 39.4484 39.363 39.3603 39.3573 39.2793C39.3318 38.9268 39.3361 38.573 39.3701 38.2206C39.3743 38.1822 39.3786 38.1452 39.3814 38.1069C39.3843 38.0841 39.3857 38.0699 39.3857 38.0614C39.3942 37.9974 39.4069 37.9335 39.4183 37.871C39.4508 37.6919 39.4905 37.5157 39.5373 37.3409C39.5826 37.176 39.6336 37.0112 39.6917 36.8506C39.7172 36.7795 39.7455 36.7085 39.7724 36.6374C39.7724 36.6346 39.7738 36.6318 39.7752 36.6289C39.7752 36.6275 39.7767 36.6261 39.7781 36.6232C39.8022 36.5721 39.8248 36.5195 39.8489 36.4683C39.992 36.1671 40.1606 35.8771 40.3518 35.6029C40.3886 35.5489 40.4283 35.4963 40.4666 35.4437C40.468 35.4423 40.4694 35.4409 40.4708 35.438C40.4921 35.411 40.5133 35.384 40.5345 35.3584C40.6252 35.2476 40.7187 35.141 40.8179 35.0358C41.0105 34.8312 41.2202 34.6479 41.4355 34.4688C41.4596 34.4518 41.4823 34.4333 41.5063 34.4162C41.5616 34.3765 41.6168 34.3381 41.6735 34.2997C41.7911 34.2201 41.9129 34.1462 42.0362 34.0766C42.1523 34.0112 42.2699 33.9501 42.3903 33.8933C42.4144 33.8819 42.4456 33.872 42.4767 33.8606C42.4824 33.8535 42.4966 33.8421 42.5235 33.8322C42.5306 33.8293 42.5391 33.8265 42.5461 33.8236C42.5461 33.8236 42.549 33.8222 42.5504 33.8208C42.5504 33.8208 42.549 33.8222 42.5476 33.8236C42.5731 33.8137 42.5986 33.8023 42.6255 33.7938C42.8833 33.6957 43.1496 33.6162 43.4188 33.5579C43.5349 33.5323 43.6511 33.5167 43.7673 33.4939C43.7885 33.4911 43.8083 33.4897 43.8296 33.4868C43.9018 33.4797 43.9727 33.4726 44.0449 33.4684C44.3112 33.4513 44.579 33.4542 44.8453 33.4755C44.8963 33.4797 44.9459 33.4854 44.9955 33.4911C44.9898 33.4897 44.987 33.4883 44.9799 33.4868C44.9898 33.4897 45.0011 33.4911 45.0111 33.4925C45.0196 33.4925 45.0295 33.4939 45.038 33.4954C45.0465 33.4954 45.055 33.4982 45.0621 33.4996C45.0621 33.4996 45.0649 33.4996 45.0663 33.4996C45.2108 33.5224 45.3539 33.5508 45.4941 33.5863C45.7406 33.646 45.9786 33.7256 46.2152 33.8165C46.2393 33.8336 46.2846 33.845 46.3073 33.8549C46.3682 33.8833 46.4291 33.9118 46.49 33.9416C46.6189 34.0055 46.745 34.0752 46.8682 34.1491C46.9802 34.2159 47.0906 34.2883 47.1969 34.3622C47.2436 34.3949 47.3556 34.4518 47.3853 34.5001C47.3796 34.4901 47.2536 34.3949 47.3541 34.4759C47.391 34.5058 47.4278 34.5356 47.4646 34.5655C47.6885 34.753 47.8967 34.9577 48.0922 35.1751C48.1489 35.2391 48.2055 35.303 48.2594 35.3698C48.2948 35.4124 48.3954 35.5759 48.3061 35.4252C48.3854 35.5602 48.4945 35.6825 48.5809 35.8146C48.7467 36.0676 48.894 36.3333 49.0229 36.6076C49.0371 36.6374 49.0498 36.6659 49.0626 36.6957C49.064 36.7 49.0753 36.7241 49.0852 36.7454C49.0895 36.7554 49.0937 36.7639 49.0952 36.7696C49.1093 36.8066 49.1249 36.8435 49.1391 36.8819C49.1901 37.0155 49.2354 37.1519 49.2765 37.2897C49.3586 37.5626 49.4167 37.8397 49.4635 38.1211C49.4635 38.1211 49.4635 38.1182 49.4649 38.1168C49.4649 38.1168 49.4649 38.1225 49.4649 38.1282C49.4677 38.141 49.4691 38.1538 49.472 38.1666C49.4748 38.185 49.4762 38.195 49.4748 38.2007C49.4748 38.2035 49.4748 38.2092 49.4762 38.2106C49.4833 38.2802 49.4904 38.3499 49.4961 38.4209C49.5074 38.5687 49.5131 38.7165 49.5131 38.8643C49.5131 39.0036 49.5088 39.1443 49.5003 39.2835L49.506 39.285ZM46.235 33.8236C46.235 33.8236 46.2478 33.8279 46.2548 33.8307C46.3413 33.8649 46.2761 33.8407 46.235 33.8236ZM67.5792 40.1433C66.0464 40.149 64.5136 40.1547 62.9794 40.1575C62.5204 40.1575 62.06 40.1575 61.601 40.1575C61.7526 39.977 61.9028 39.798 62.0544 39.6175C62.1464 39.5067 62.2102 39.3901 62.2102 39.2409C62.2102 39.1102 62.1521 38.9538 62.0544 38.8643C61.9538 38.7705 61.8206 38.7023 61.679 38.708C61.5458 38.7137 61.3928 38.7577 61.3036 38.8643C60.9451 39.2921 60.5853 39.7198 60.2269 40.1476C60.2241 40.1518 60.2213 40.1547 60.2184 40.159C59.7963 40.159 59.3727 40.159 58.9506 40.159L60.5074 38.4025C60.6916 38.1936 60.727 37.8511 60.5074 37.6493C60.3063 37.4631 59.9535 37.4262 59.7566 37.6493C59.0384 38.4593 58.3202 39.2708 57.6019 40.0808C57.5793 40.1049 57.5609 40.1319 57.5424 40.1604C57.1387 40.1604 56.7336 40.1604 56.3298 40.1604C56.3298 40.1604 56.3312 40.159 56.3326 40.1575C56.7817 39.6843 57.2308 39.2125 57.6784 38.7393C57.8697 38.5375 57.8938 38.1836 57.6784 37.9861C57.4702 37.7942 57.1316 37.7701 56.9276 37.9861C56.4786 38.4593 56.0295 38.9311 55.5804 39.4043C55.5691 39.4157 55.562 39.4285 55.5521 39.4413C54.6851 36.6957 54.0632 33.8492 53.7289 31.017C53.6326 30.2012 53.5589 29.3813 53.5065 28.5613C54.0632 28.621 54.6214 28.6778 55.1795 28.7247C58.3173 28.9947 61.4679 29.0842 64.6156 29.1169C66.3495 29.1354 68.0835 29.1354 69.8174 29.1354C68.8074 31.9094 68.126 34.7943 67.7803 37.7289C67.6854 38.5304 67.6202 39.3347 67.5777 40.1405L67.5792 40.1433ZM61.9566 23.9597C61.9779 23.9626 61.9991 23.9654 62.0204 23.9683C62.0912 23.9768 62.0728 23.9754 62.0303 23.9683C62.0402 23.9697 62.0515 23.9711 62.0614 23.9725C62.1323 23.9825 62.2045 23.9938 62.2754 24.0052C62.4 24.0265 62.5233 24.0493 62.6465 24.0763C62.808 24.1118 62.9667 24.1558 63.1239 24.2042C63.2457 24.2425 63.3676 24.2837 63.488 24.3278C63.5489 24.3505 63.6098 24.3733 63.6693 24.3974C63.7175 24.4159 63.9045 24.4855 63.76 24.433C64.2714 24.6177 64.7643 24.9232 65.2262 25.2075C65.7276 25.5158 66.2093 25.8555 66.6782 26.2108C66.7235 26.2449 66.7703 26.2804 66.8156 26.3159C66.8014 26.306 66.8751 26.3614 66.902 26.3827C67.0238 26.4779 67.1443 26.5746 67.2647 26.6726C67.4956 26.8602 67.7251 27.0506 67.9517 27.2439C68.1345 27.3988 68.3158 27.5566 68.4957 27.7157C65.8098 27.7143 63.1239 27.7015 60.4394 27.6091C58.8868 27.5566 57.3342 27.4755 55.7844 27.3533C55.069 27.2965 54.3551 27.2311 53.6411 27.1558C53.7997 26.0416 53.9598 24.9275 54.1185 23.8133C54.4018 23.802 54.6851 23.7906 54.9699 23.7821C56.6131 23.7338 58.2607 23.7295 59.9025 23.802C60.6052 23.8332 61.3078 23.8773 62.0062 23.9654C62.0076 23.9654 62.009 23.9654 62.0104 23.9654C61.9934 23.9626 61.9736 23.9597 61.9566 23.9583V23.9597ZM76.382 44.0386C76.2928 44.0286 76.3551 44.0343 76.4018 44.04C76.3948 44.04 76.3891 44.04 76.382 44.0386ZM78.8823 43.7231C78.8823 43.7231 78.9206 43.7103 78.9447 43.7004C78.9206 43.7131 78.8965 43.7259 78.8823 43.7231ZM82.0343 39.285C82.0301 39.3475 82.0258 39.4086 82.0187 39.4697C82.0145 39.5081 82.0102 39.5465 82.006 39.5848C82.006 39.5848 82.006 39.5848 82.006 39.5862C81.9507 39.8662 81.904 40.1447 81.8218 40.419C81.7836 40.5455 81.7425 40.6705 81.6957 40.7942C81.6887 40.8141 81.6745 40.8738 81.6561 40.9221C81.6575 40.9107 81.6518 40.9121 81.6348 40.9491C81.615 40.9917 81.5966 41.0344 81.5767 41.077C81.4535 41.3399 81.3104 41.5943 81.1489 41.8373C81.1093 41.897 81.0682 41.9552 81.0271 42.0135C81.0087 42.0391 80.9888 42.0647 80.9704 42.0902C80.9067 42.1783 80.9648 42.103 80.9874 42.0718C80.9138 42.2011 80.7806 42.3219 80.6814 42.4299C80.4803 42.6487 80.2621 42.852 80.0312 43.0395C80.0241 43.0452 79.925 43.1191 79.9576 43.0964C79.9448 43.1049 79.9349 43.112 79.9335 43.1134C79.8796 43.1532 79.8244 43.1916 79.7691 43.2285C79.6402 43.3167 79.5071 43.3977 79.3725 43.4744C79.2464 43.5455 79.1189 43.6108 78.9872 43.6719C78.9787 43.6762 78.9659 43.6833 78.9532 43.6904C78.9461 43.6932 78.9347 43.6975 78.9178 43.7046C78.8455 43.733 78.7718 43.7615 78.6982 43.7885C78.4375 43.8823 78.1698 43.9547 77.8978 44.0073C77.8383 44.0187 77.7802 44.0272 77.7207 44.0372C77.7221 44.0372 77.725 44.0372 77.7264 44.0372C77.7235 44.0372 77.7207 44.0372 77.7165 44.0372C77.7023 44.04 77.6867 44.0428 77.6725 44.0443C77.6584 44.0471 77.6499 44.0471 77.6428 44.0457C77.64 44.0457 77.6371 44.0457 77.6357 44.0457C77.4856 44.0613 77.3354 44.0713 77.1852 44.0741C76.9274 44.0798 76.671 44.0642 76.4146 44.0372C76.3863 44.0301 76.3508 44.0286 76.3239 44.0244C76.2573 44.013 76.1922 44.0016 76.1256 43.9888C75.9868 43.9604 75.8494 43.9277 75.712 43.8894C75.5901 43.8553 75.4683 43.8183 75.3493 43.7757C75.2785 43.7515 75.2091 43.7259 75.1396 43.6975C75.1141 43.6876 75.0886 43.6776 75.0646 43.6677C75.0646 43.6677 75.0631 43.6677 75.0617 43.6662C74.8166 43.5526 74.5772 43.4318 74.3478 43.2911C74.233 43.22 74.1197 43.1461 74.0106 43.068C73.9624 43.0339 73.9171 42.9983 73.8704 42.9642C73.8406 42.9386 73.8094 42.9145 73.7797 42.8903C73.5658 42.7113 73.3632 42.518 73.1762 42.3105C73.1465 42.2778 72.8971 42.0192 72.9113 41.9979C72.9113 41.9979 73.0175 42.1414 72.9382 42.0334C72.9198 42.0092 72.9014 41.9851 72.8844 41.9595C72.8391 41.897 72.7951 41.8344 72.7541 41.7719C72.5911 41.5289 72.4467 41.2717 72.3234 41.0059C72.3121 40.9818 72.2781 40.9022 72.271 40.8866C72.2469 40.8255 72.2228 40.7643 72.2002 40.7032C72.1392 40.5341 72.0854 40.3607 72.0401 40.1859C71.9976 40.0197 71.9622 39.852 71.9324 39.6843C71.9268 39.6473 71.9197 39.609 71.914 39.572C71.9112 39.5521 71.9083 39.5393 71.9069 39.5308C71.8942 39.4484 71.8913 39.3603 71.8857 39.2793C71.8602 38.9268 71.8644 38.573 71.8984 38.2206C71.9027 38.1822 71.9069 38.1452 71.9098 38.1069C71.9126 38.0841 71.914 38.0713 71.914 38.0614C71.9225 37.9974 71.9353 37.9321 71.9466 37.871C71.9792 37.6919 72.0188 37.5157 72.0656 37.3409C72.1109 37.176 72.1619 37.0112 72.22 36.8506C72.2455 36.7795 72.2738 36.7085 72.3007 36.6374C72.3007 36.6346 72.3022 36.6318 72.3036 36.6289C72.3036 36.6275 72.305 36.6261 72.3064 36.6232C72.3305 36.5721 72.3532 36.5195 72.3772 36.4683C72.5203 36.1671 72.6889 35.8771 72.8801 35.6029C72.917 35.5489 72.9566 35.4963 72.9949 35.4437C72.9963 35.4423 72.9977 35.4409 72.9991 35.438C73.0204 35.411 73.0416 35.384 73.0629 35.3584C73.1535 35.2476 73.247 35.141 73.3462 35.0358C73.5389 34.8312 73.7485 34.6479 73.9638 34.4688C73.9879 34.4518 74.0106 34.4333 74.0347 34.4162C74.0899 34.3765 74.1452 34.3381 74.2018 34.2997C74.3194 34.2201 74.4412 34.1462 74.5645 34.0766C74.6807 34.0112 74.7982 33.9501 74.9186 33.8933C74.9427 33.8819 74.9739 33.872 75.0051 33.8606C75.0107 33.8535 75.0249 33.8421 75.0518 33.8322C75.0589 33.8293 75.0674 33.8265 75.0745 33.8236C75.0561 33.8393 75.032 33.8506 75.0051 33.8606C74.9937 33.8748 75.0221 33.8734 75.0773 33.8222C75.0773 33.8222 75.0773 33.8222 75.0759 33.8222C75.0759 33.8222 75.0787 33.8208 75.0801 33.8194C75.0801 33.8194 75.0787 33.8208 75.0773 33.8222C75.1028 33.8123 75.1283 33.8009 75.1552 33.7924C75.413 33.6943 75.6794 33.6147 75.9485 33.5565C76.0647 33.5309 76.1808 33.5153 76.297 33.4925C76.3183 33.4897 76.3381 33.4883 76.3593 33.4854C76.4316 33.4783 76.5024 33.4712 76.5747 33.4669C76.841 33.4499 77.1087 33.4527 77.3751 33.4741C77.4261 33.4783 77.4756 33.484 77.5252 33.4897C77.5196 33.4883 77.5167 33.4868 77.5096 33.4854C77.5196 33.4883 77.5309 33.4897 77.5408 33.4911C77.5493 33.4911 77.5592 33.4925 77.5677 33.4939C77.5762 33.4939 77.5847 33.4968 77.5918 33.4982C77.5918 33.4982 77.5946 33.4982 77.5961 33.4982C77.7405 33.5209 77.8822 33.5494 78.0239 33.5849C78.2704 33.6446 78.5083 33.7242 78.7449 33.8151C78.769 33.8322 78.8143 33.8435 78.837 33.8535C78.8979 33.8819 78.9588 33.9103 79.0197 33.9402C79.1487 34.0041 79.2747 34.0738 79.398 34.1477C79.5099 34.2144 79.6204 34.2869 79.7266 34.3608C79.7734 34.3935 79.8853 34.4504 79.9151 34.4987C79.9094 34.4887 79.7833 34.3935 79.8839 34.4745C79.9207 34.5044 79.9575 34.5342 79.9944 34.564C80.2182 34.7516 80.4264 34.9563 80.6219 35.1737C80.6786 35.2376 80.7353 35.3016 80.7891 35.3684C80.8245 35.411 80.9251 35.5745 80.8358 35.4238C80.9152 35.5588 81.0243 35.681 81.1107 35.8132C81.2764 36.0662 81.4237 36.3319 81.5527 36.6062C81.5668 36.636 81.5796 36.6644 81.5923 36.6943C81.5937 36.6985 81.6051 36.7227 81.615 36.7454C81.6192 36.7554 81.6221 36.7639 81.6249 36.7696C81.6391 36.8066 81.6547 36.8435 81.6688 36.8819C81.7198 37.0155 81.7651 37.1519 81.8062 37.2897C81.8884 37.5626 81.9465 37.8397 81.9932 38.1211C81.9932 38.1211 81.9932 38.1182 81.9946 38.1168C81.9946 38.1168 81.9946 38.1225 81.9946 38.1282C81.9975 38.141 81.9989 38.1538 82.0017 38.1666C82.0046 38.1864 82.006 38.195 82.0046 38.2007C82.0046 38.2035 82.0046 38.2092 82.006 38.2106C82.0131 38.2802 82.0201 38.3499 82.0258 38.4209C82.0371 38.5687 82.0428 38.7165 82.0428 38.8643C82.0428 39.0036 82.0386 39.1443 82.0301 39.2835L82.0343 39.285ZM78.7633 33.8236C78.7633 33.8236 78.7761 33.8279 78.7832 33.8307C78.8696 33.8649 78.8044 33.8407 78.7633 33.8236ZM89.2321 39.0334C89.1698 39.2025 88.9913 39.5436 88.8298 39.7724C88.8142 39.7951 88.8071 39.8065 88.8029 39.8108C88.8001 39.8136 88.7901 39.8221 88.7689 39.8463C88.7236 39.8975 88.6782 39.9472 88.6301 39.9955C88.5876 40.0382 88.5408 40.0779 88.4955 40.1177H83.3447C83.6592 38.3797 83.2951 36.5209 82.2978 35.0344C82.0952 34.7317 81.87 34.4432 81.6277 34.1704C80.7608 33.2083 79.6048 32.4892 78.3398 32.1993C77.1456 31.925 75.8607 31.9947 74.7175 32.4466C73.451 32.9468 72.3999 33.8023 71.6307 34.9264C70.758 36.2026 70.3444 37.8255 70.4761 39.366C70.4974 39.6218 70.5342 39.8747 70.5824 40.1248C69.935 40.1291 69.289 40.1319 68.6416 40.1348C68.8017 37.0751 69.3457 34.0681 70.2622 31.1278C70.5314 30.2638 70.8331 29.4097 71.1632 28.5655C71.2524 28.3382 71.1009 28.0539 70.8884 27.9459C70.8799 27.9374 70.8742 27.9289 70.8657 27.9218C69.0949 26.3415 67.3128 24.6703 65.2007 23.5533C64.4045 23.1326 63.556 22.7859 62.6663 22.6367C61.9637 22.5187 61.2526 22.4562 60.5428 22.4121C58.8698 22.3098 57.1897 22.307 55.5138 22.3453C54.2276 22.3738 52.9257 22.4008 51.6479 22.5656C49.523 22.8385 47.534 24.0493 46.0041 25.5144C45.8072 25.7034 45.6174 25.901 45.4346 26.1042C45.4318 26.107 45.4304 26.1099 45.429 26.1127C45.3454 26.1937 45.2802 26.2946 45.2533 26.4182C45.2405 26.4722 45.2363 26.5277 45.2363 26.5831C45.225 26.7522 45.2717 26.9213 45.3893 27.0563C45.4006 27.072 45.4148 27.0862 45.4275 27.1018C45.4304 27.1046 45.4318 27.1075 45.436 27.1103C45.4375 27.1103 45.4389 27.1132 45.4403 27.1132C45.521 27.1984 45.623 27.2638 45.7477 27.2922C47.9562 27.7896 50.1902 28.1634 52.437 28.4376C52.6409 31.7133 53.1807 34.9705 54.0576 38.1324C54.246 38.8132 54.45 39.4882 54.6695 40.159C54.637 40.159 54.6044 40.159 54.5704 40.159C53.3167 40.159 52.063 40.159 50.8093 40.159C51.1365 38.4081 50.7753 36.5337 49.7709 35.0373C49.5683 34.7346 49.3431 34.4461 49.1008 34.1732C48.2339 33.2111 47.0779 32.4921 45.8129 32.2022C44.6187 31.9279 43.3338 31.9975 42.1906 32.4494C40.9241 32.9497 39.873 33.8052 39.1038 34.9293C38.2311 36.2054 37.8175 37.8283 37.9492 39.3688C37.9705 39.6203 38.0059 39.869 38.0541 40.1149C37.8869 40.1035 37.724 40.0851 37.5597 40.0609V40.0552C37.5597 40.0552 33.6115 38.7791 36.449 33.6929C36.619 33.8435 36.8117 33.9672 37.027 34.0496C38.2977 34.5399 39.8461 33.5906 40.4836 31.9293C40.9255 30.7782 40.8122 29.5902 40.2781 28.8043C45.0394 23.7238 51.6111 21.298 51.6111 21.298L51.6082 21.288C51.6196 21.2852 51.6323 21.2824 51.6451 21.2795C51.8802 21.2255 52.1182 21.1786 52.3562 21.1374C52.4837 21.1161 52.6098 21.0962 52.7373 21.0777C52.7472 21.0763 52.7543 21.0749 52.7614 21.0734C52.7684 21.0734 52.7784 21.072 52.7925 21.0706C52.8662 21.0621 52.9384 21.0521 53.0121 21.045C54.4146 20.8887 55.8326 20.8987 57.2407 20.9555C58.8953 21.0223 60.5542 21.136 62.1989 21.3236C62.349 21.3406 62.4978 21.3591 62.6479 21.3776C62.6663 21.3804 62.6791 21.3818 62.6876 21.3818C62.6947 21.3818 62.706 21.3847 62.7202 21.3861C62.7924 21.396 62.8661 21.406 62.9383 21.4174C63.1933 21.4557 63.4483 21.4969 63.7019 21.5467C64.107 21.6248 64.5094 21.7201 64.9018 21.848C65.059 21.8991 65.212 21.9631 65.3664 22.0185C65.4004 22.0341 65.4358 22.0498 65.4698 22.0654C65.5406 22.0981 65.6115 22.1336 65.6809 22.1691C65.9628 22.3141 66.232 22.4803 66.494 22.6594C67.2958 23.2065 68.0679 23.8105 68.8329 24.406C70.0242 25.3311 71.1745 26.3259 72.441 27.1501C73.0898 27.5722 73.7769 27.9275 74.5234 28.142C75.3479 28.3794 76.2148 28.4632 77.0691 28.5044C77.9275 28.5456 78.7888 28.5357 79.6473 28.5925C80.4576 28.6451 81.2467 28.7858 82.0244 29.0274C83.0585 29.3486 84.0445 29.8303 84.954 30.4243C84.2995 30.7398 83.8858 31.4092 83.8107 32.1354C83.7272 32.9411 84.1762 33.6972 84.75 34.2244C85.3506 34.7772 86.0844 35.1836 86.8522 35.4494C87.6654 35.7308 88.5493 35.8331 89.405 35.7436C89.6897 36.8336 89.6444 37.9349 89.235 39.0334H89.2321ZM50.0925 24.4543C50.1633 24.4258 50.2327 24.3974 50.3035 24.3704C50.7328 24.2056 51.179 24.0691 51.6337 23.9938C51.6621 23.9896 51.6918 23.9853 51.7216 23.981C51.8292 23.9683 51.9369 23.9569 52.0446 23.9455C52.3123 23.9199 52.5815 23.8986 52.8506 23.8816C52.9172 23.8773 52.9824 23.8745 53.0489 23.8702C52.8974 24.9261 52.7472 25.9834 52.5956 27.0393C52.522 27.0307 52.4469 27.0222 52.3732 27.0137C52.182 26.9895 51.9907 26.9654 51.7995 26.9412C51.7641 26.9369 51.655 26.9213 51.6352 26.9185C51.5417 26.9057 51.4467 26.8929 51.3532 26.8787C50.0188 26.6911 48.69 26.4609 47.3711 26.1909C47.4604 26.1127 47.551 26.0345 47.6431 25.9592C47.6885 25.9209 47.7352 25.8839 47.7805 25.847C47.8032 25.8299 47.8245 25.8114 47.8471 25.7944C47.9675 25.7063 48.0865 25.6153 48.2084 25.53C48.4449 25.3638 48.6872 25.206 48.9337 25.0582C49.1787 24.9119 49.4295 24.774 49.6845 24.6475C49.7978 24.5921 49.9111 24.5381 50.0259 24.487C50.0755 24.4642 50.2242 24.4045 50.0939 24.4557L50.0925 24.4543Z" fill="#222222"/>
<path d="M82.0088 38.2035C82.006 38.1836 81.9989 38.1495 81.9989 38.131C81.9989 38.1296 81.9989 38.1268 81.9989 38.1253C81.9861 38.1552 82.0074 38.2262 82.0102 38.2035H82.0088Z" fill="#222222"/>
<path d="M77.6456 44.0485C77.6669 44.0457 77.6995 44.0386 77.7193 44.0386C77.7193 44.0386 77.7221 44.0386 77.7235 44.0386C77.6513 44.0229 77.6145 44.0471 77.647 44.0485H77.6456Z" fill="#222222"/>
<path d="M77.5946 33.5011C77.5776 33.4982 77.5606 33.4968 77.5436 33.4939C77.538 33.4939 77.5323 33.4939 77.5266 33.4925C77.6442 33.5252 77.6329 33.5096 77.5946 33.5011Z" fill="#222222"/>
<path d="M78.1429 39.7426C78.1613 39.717 78.1726 39.68 78.1429 39.7426V39.7426Z" fill="#222222"/>
<path d="M76.0746 37.5057C76.0746 37.5057 76.0689 37.51 76.0661 37.5114C76.0647 37.5128 76.0619 37.5157 76.0604 37.5171C76.0746 37.5072 76.0944 37.4944 76.1044 37.4858C76.0944 37.4929 76.0845 37.5001 76.0746 37.5057Z" fill="#222222"/>
<path d="M78.1216 37.8326C78.1216 37.8326 78.1202 37.8298 78.1188 37.8283C78.106 37.817 78.0919 37.8013 78.0791 37.7843C78.0734 37.7857 78.0848 37.8084 78.1216 37.8326Z" fill="#222222"/>
<path d="M79.0368 36.7184C78.276 35.8857 77.0365 35.5418 75.974 35.961C74.7642 36.4371 73.9539 37.6848 74.0673 39.0007C74.1735 40.2471 75.0121 41.3115 76.2234 41.6511C77.4346 41.9908 78.684 41.4692 79.3782 40.4389C79.7252 39.923 79.9023 39.2509 79.8527 38.6313C79.7961 37.9065 79.5141 37.2641 79.0368 36.7184ZM77.8015 37.4858C77.7845 37.473 77.7632 37.4588 77.7547 37.4574C77.766 37.4574 77.783 37.4702 77.8015 37.4858ZM77.4771 37.3068C77.562 37.3352 77.4771 37.3139 77.4431 37.2954C77.4544 37.2997 77.4657 37.3039 77.4771 37.3068ZM77.1357 37.2116C77.2603 37.2201 77.1456 37.23 77.1045 37.2087C77.1144 37.2087 77.1243 37.2101 77.1357 37.2116ZM75.481 39.015C75.4853 39.0363 75.4881 39.0576 75.4881 39.0562C75.4839 39.0519 75.4825 39.0334 75.481 39.015ZM75.7644 39.7113C75.7644 39.7113 75.7729 39.7212 75.7828 39.734C75.7715 39.7212 75.763 39.7113 75.7644 39.7113ZM78.3114 39.4598C78.3114 39.4598 78.3143 39.4512 78.3199 39.4384C78.3157 39.4498 78.3114 39.4598 78.3114 39.4598ZM78.4361 38.9993C78.429 39.1301 78.4177 39.0164 78.4361 38.9794C78.4361 38.9865 78.4361 38.9936 78.4361 38.9993ZM78.4403 38.9311C78.4403 38.9467 78.4389 38.9638 78.4375 38.9794C78.4092 39.0235 78.3979 39.1954 78.3851 39.2409C78.3709 39.2935 78.3525 39.3432 78.3355 39.3944C78.3355 39.3958 78.3313 39.4072 78.327 39.42C78.2817 39.5095 78.2364 39.5976 78.1811 39.6829C78.1641 39.7085 78.0989 39.8364 78.1414 39.7468C78.1414 39.7468 78.1414 39.7454 78.1429 39.744C78.1414 39.7454 78.14 39.7482 78.1386 39.7497C78.1117 39.7795 78.0862 39.8108 78.0593 39.8406C77.9984 39.9074 77.929 39.9657 77.8638 40.0282C77.8454 40.0424 77.8241 40.0609 77.8114 40.0694C77.7646 40.1021 77.715 40.1319 77.6655 40.1618C77.6173 40.1888 77.5677 40.2144 77.5181 40.2385C77.5153 40.2385 77.5139 40.2385 77.5111 40.24C77.4091 40.2726 77.3085 40.3039 77.2036 40.3252C77.1796 40.3181 77.0946 40.3352 77.0747 40.3366C77.0223 40.338 76.9699 40.338 76.9175 40.3366C76.8863 40.3366 76.8084 40.3167 76.773 40.3238C76.722 40.3138 76.671 40.3025 76.6214 40.2883C76.5789 40.2769 76.535 40.2641 76.4925 40.2499C76.4713 40.2428 76.45 40.2343 76.4288 40.2272C76.3565 40.1916 76.2843 40.1575 76.2163 40.1149C76.1709 40.0879 76.127 40.0595 76.0845 40.0296C76.0774 40.0239 76.0704 40.0197 76.0633 40.014C75.9953 39.9458 75.9202 39.8861 75.855 39.815C75.8508 39.8094 75.8154 39.771 75.7913 39.7426C75.7743 39.7184 75.7573 39.6957 75.7417 39.6715C75.6907 39.5948 75.6454 39.5138 75.6043 39.4313C75.5986 39.42 75.593 39.41 75.5873 39.3987C75.5873 39.3944 75.5859 39.3915 75.5845 39.3873C75.5689 39.3248 75.5434 39.2637 75.5264 39.1997C75.5094 39.1358 75.4995 39.0718 75.4853 39.0079C75.4853 39.005 75.4853 39.0036 75.4839 39.0007C75.4839 38.988 75.4839 38.978 75.4839 38.9737C75.474 38.8416 75.4853 38.7123 75.4867 38.5801C75.4867 38.5744 75.4867 38.5701 75.4867 38.5673C75.4881 38.5602 75.491 38.5517 75.4924 38.546C75.5023 38.4906 75.515 38.4351 75.5278 38.3811C75.5434 38.3172 75.5632 38.2547 75.5845 38.1921C75.5915 38.1708 75.6 38.1509 75.6071 38.1296C75.6652 38.0273 75.7148 37.9235 75.7799 37.8255C75.7941 37.8056 75.8083 37.7857 75.8224 37.7658C75.8664 37.6976 75.7842 37.817 75.7842 37.8127C75.7913 37.7701 75.8777 37.7033 75.9089 37.6692C75.9202 37.6578 76.0052 37.5711 76.0604 37.5199C76.042 37.5313 76.0349 37.5356 76.0661 37.5143C76.0902 37.4929 76.1086 37.4773 76.11 37.4802C76.11 37.4802 76.1086 37.4844 76.1029 37.4873C76.1114 37.4816 76.1199 37.4745 76.1299 37.4688C76.1724 37.4389 76.2177 37.4119 76.263 37.3864C76.3126 37.3579 76.365 37.3324 76.416 37.3068C76.4217 37.3054 76.4259 37.3039 76.4316 37.3011C76.535 37.267 76.6384 37.2357 76.7447 37.2158C76.7489 37.2158 76.7546 37.2144 76.7588 37.213C76.8112 37.213 76.8665 37.2045 76.9203 37.2045C76.9699 37.2045 77.0209 37.2045 77.0705 37.2073C77.0818 37.2073 77.0917 37.2087 77.1031 37.2101C77.164 37.2514 77.3226 37.2556 77.3935 37.2784C77.4076 37.2826 77.4232 37.2883 77.4374 37.294C77.4629 37.3139 77.5521 37.3452 77.572 37.3551C77.6258 37.3835 77.6782 37.4148 77.7278 37.4475C77.7476 37.4603 77.766 37.473 77.7845 37.4858C77.8128 37.5043 77.8199 37.5072 77.8185 37.5029C77.851 37.5327 77.8822 37.5697 77.8964 37.5825C77.9431 37.628 77.9884 37.6749 78.0324 37.7232C78.0451 37.7388 78.0607 37.7615 78.0777 37.7843C78.0819 37.7843 78.0933 37.7914 78.1089 37.8155C78.1117 37.8198 78.1145 37.8241 78.1174 37.8283C78.1216 37.8326 78.1259 37.8369 78.1301 37.8397C78.1259 37.8369 78.123 37.8354 78.1202 37.8326C78.1301 37.8468 78.14 37.8624 78.1499 37.8766C78.2123 37.9719 78.2604 38.0713 78.3143 38.1722C78.3143 38.1751 78.3171 38.1779 78.3185 38.1808C78.3355 38.2248 78.3497 38.2703 78.3639 38.3158C78.3922 38.4096 78.4092 38.5034 78.4304 38.5971C78.4319 38.6128 78.4347 38.627 78.4347 38.6298C78.4375 38.6838 78.4418 38.7378 78.4418 38.7918C78.4418 38.8373 78.4418 38.8842 78.4389 38.9297L78.4403 38.9311Z" fill="#222222"/>
<path d="M57.9093 31.2699C57.3937 31.2926 56.8766 31.3154 56.361 31.3381C56.0833 31.3509 55.817 31.574 55.8298 31.871C55.8425 32.1496 56.0635 32.4167 56.361 32.404C56.8766 32.3812 57.3937 32.3585 57.9093 32.3357C58.187 32.323 58.4533 32.0998 58.4406 31.8028C58.4278 31.5243 58.2068 31.2571 57.9093 31.2699Z" fill="#222222"/>
<path d="M62.0303 23.9697C62.0303 23.9697 62.0232 23.9697 62.0204 23.9697C62.0175 23.9697 62.0147 23.9697 62.0119 23.9697C62.0189 23.9697 62.0246 23.9711 62.0303 23.9725V23.9697Z" fill="#222222"/>
<path d="M16.8084 70.5V56.4H18.4484V62.64H26.9084V56.4H28.5484V70.5H26.9084V64.06H18.4484V70.5H16.8084ZM34.8632 70.68C34.1965 70.68 33.5965 70.5533 33.0632 70.3C32.5432 70.0333 32.1299 69.6733 31.8232 69.22C31.5165 68.7667 31.3632 68.26 31.3632 67.7C31.3632 66.98 31.5432 66.4133 31.9032 66C32.2765 65.5867 32.8832 65.2933 33.7232 65.12C34.5765 64.9467 35.7365 64.86 37.2032 64.86H38.1032V65.92H37.2232C36.4099 65.92 35.7299 65.9467 35.1832 66C34.6365 66.0533 34.2032 66.1467 33.8832 66.28C33.5632 66.4133 33.3365 66.5867 33.2032 66.8C33.0699 67.0133 33.0032 67.28 33.0032 67.6C33.0032 68.1467 33.1899 68.5933 33.5632 68.94C33.9499 69.2867 34.4699 69.46 35.1232 69.46C35.6565 69.46 36.1232 69.3333 36.5232 69.08C36.9365 68.8267 37.2565 68.48 37.4832 68.04C37.7232 67.6 37.8432 67.0933 37.8432 66.52V64.24C37.8432 63.4133 37.6765 62.82 37.3432 62.46C37.0099 62.0867 36.4632 61.9 35.7032 61.9C35.1165 61.9 34.5499 61.9867 34.0032 62.16C33.4565 62.32 32.8965 62.5867 32.3232 62.96L31.7632 61.78C32.1099 61.54 32.5032 61.3333 32.9432 61.16C33.3832 60.9733 33.8432 60.8333 34.3232 60.74C34.8032 60.6467 35.2632 60.6 35.7032 60.6C36.5432 60.6 37.2365 60.74 37.7832 61.02C38.3299 61.2867 38.7365 61.7 39.0032 62.26C39.2699 62.8067 39.4032 63.5133 39.4032 64.38V70.5H37.8832V68.24H38.0632C37.9565 68.7467 37.7499 69.18 37.4432 69.54C37.1499 69.9 36.7832 70.18 36.3432 70.38C35.9032 70.58 35.4099 70.68 34.8632 70.68ZM46.3087 70.68C45.162 70.68 44.302 70.3733 43.7287 69.76C43.1553 69.1467 42.8687 68.2733 42.8687 67.14V62.04H40.9687V60.78H42.8687V57.8H44.4887V60.78H47.5687V62.04H44.4887V66.98C44.4887 67.74 44.6487 68.32 44.9687 68.72C45.2887 69.1067 45.8087 69.3 46.5287 69.3C46.742 69.3 46.9553 69.2733 47.1687 69.22C47.382 69.1667 47.5753 69.1133 47.7487 69.06L48.0287 70.3C47.8553 70.3933 47.602 70.48 47.2687 70.56C46.9353 70.64 46.6153 70.68 46.3087 70.68ZM53.4232 70.68C52.4499 70.68 51.6099 70.4667 50.9032 70.04C50.1965 69.6133 49.6499 69.02 49.2632 68.26C48.8899 67.4867 48.7032 66.5933 48.7032 65.58C48.7032 64.5533 48.8899 63.6667 49.2632 62.92C49.6499 62.1733 50.1965 61.6 50.9032 61.2C51.6099 60.8 52.4499 60.6 53.4232 60.6C54.0232 60.6 54.6165 60.7067 55.2032 60.92C55.7899 61.1333 56.2765 61.4333 56.6632 61.82L56.1032 63C55.7165 62.6267 55.2899 62.3533 54.8232 62.18C54.3699 62.0067 53.9365 61.92 53.5232 61.92C52.5099 61.92 51.7299 62.24 51.1832 62.88C50.6365 63.5067 50.3632 64.4133 50.3632 65.6C50.3632 66.76 50.6365 67.68 51.1832 68.36C51.7299 69.0267 52.5099 69.36 53.5232 69.36C53.9365 69.36 54.3699 69.2733 54.8232 69.1C55.2899 68.9267 55.7165 68.6467 56.1032 68.26L56.6632 69.44C56.2765 69.8267 55.7832 70.1333 55.1832 70.36C54.5965 70.5733 54.0099 70.68 53.4232 70.68ZM58.561 70.5V56.4H60.181V62.94H59.921C60.201 62.1667 60.6543 61.5867 61.281 61.2C61.921 60.8 62.6543 60.6 63.481 60.6C64.2543 60.6 64.8943 60.74 65.401 61.02C65.921 61.3 66.3077 61.7267 66.561 62.3C66.8143 62.86 66.941 63.5733 66.941 64.44V70.5H65.321V64.54C65.321 63.94 65.241 63.4467 65.081 63.06C64.9343 62.6733 64.6943 62.3867 64.361 62.2C64.041 62.0133 63.621 61.92 63.101 61.92C62.5143 61.92 62.001 62.0467 61.561 62.3C61.121 62.5533 60.781 62.9067 60.541 63.36C60.301 63.8133 60.181 64.3467 60.181 64.96V70.5H58.561ZM74.8482 70.68C73.9682 70.68 73.2082 70.4533 72.5682 70C71.9415 69.5467 71.5215 68.94 71.3082 68.18H71.5082V70.5H69.9282V56.4H71.5482V63.04H71.3082C71.5349 62.2933 71.9615 61.7 72.5882 61.26C73.2149 60.82 73.9682 60.6 74.8482 60.6C75.7282 60.6 76.4882 60.8067 77.1282 61.22C77.7682 61.62 78.2615 62.2 78.6082 62.96C78.9682 63.7067 79.1482 64.6 79.1482 65.64C79.1482 66.6667 78.9682 67.56 78.6082 68.32C78.2615 69.0667 77.7615 69.6467 77.1082 70.06C76.4682 70.4733 75.7149 70.68 74.8482 70.68ZM74.5082 69.38C75.4282 69.38 76.1549 69.06 76.6882 68.42C77.2349 67.7667 77.5082 66.84 77.5082 65.64C77.5082 64.4267 77.2349 63.5 76.6882 62.86C76.1549 62.22 75.4282 61.9 74.5082 61.9C73.6015 61.9 72.8749 62.22 72.3282 62.86C71.7815 63.5 71.5082 64.4267 71.5082 65.64C71.5082 66.84 71.7815 67.7667 72.3282 68.42C72.8749 69.06 73.6015 69.38 74.5082 69.38ZM84.6484 70.68C83.9817 70.68 83.3817 70.5533 82.8484 70.3C82.3284 70.0333 81.915 69.6733 81.6084 69.22C81.3017 68.7667 81.1484 68.26 81.1484 67.7C81.1484 66.98 81.3284 66.4133 81.6884 66C82.0617 65.5867 82.6684 65.2933 83.5084 65.12C84.3617 64.9467 85.5217 64.86 86.9884 64.86H87.8884V65.92H87.0084C86.195 65.92 85.515 65.9467 84.9684 66C84.4217 66.0533 83.9884 66.1467 83.6684 66.28C83.3484 66.4133 83.1217 66.5867 82.9884 66.8C82.855 67.0133 82.7884 67.28 82.7884 67.6C82.7884 68.1467 82.975 68.5933 83.3484 68.94C83.735 69.2867 84.255 69.46 84.9084 69.46C85.4417 69.46 85.9084 69.3333 86.3084 69.08C86.7217 68.8267 87.0417 68.48 87.2684 68.04C87.5084 67.6 87.6284 67.0933 87.6284 66.52V64.24C87.6284 63.4133 87.4617 62.82 87.1284 62.46C86.795 62.0867 86.2484 61.9 85.4884 61.9C84.9017 61.9 84.335 61.9867 83.7884 62.16C83.2417 62.32 82.6817 62.5867 82.1084 62.96L81.5484 61.78C81.895 61.54 82.2884 61.3333 82.7284 61.16C83.1684 60.9733 83.6284 60.8333 84.1084 60.74C84.5884 60.6467 85.0484 60.6 85.4884 60.6C86.3284 60.6 87.0217 60.74 87.5684 61.02C88.115 61.2867 88.5217 61.7 88.7884 62.26C89.055 62.8067 89.1884 63.5133 89.1884 64.38V70.5H87.6684V68.24H87.8484C87.7417 68.7467 87.535 69.18 87.2284 69.54C86.935 69.9 86.5684 70.18 86.1284 70.38C85.6884 70.58 85.195 70.68 84.6484 70.68ZM96.3138 70.68C95.3405 70.68 94.5005 70.4667 93.7938 70.04C93.0872 69.6133 92.5405 69.02 92.1538 68.26C91.7805 67.4867 91.5938 66.5933 91.5938 65.58C91.5938 64.5533 91.7805 63.6667 92.1538 62.92C92.5405 62.1733 93.0872 61.6 93.7938 61.2C94.5005 60.8 95.3405 60.6 96.3138 60.6C96.9138 60.6 97.5072 60.7067 98.0938 60.92C98.6805 61.1333 99.1672 61.4333 99.5538 61.82L98.9938 63C98.6072 62.6267 98.1805 62.3533 97.7138 62.18C97.2605 62.0067 96.8272 61.92 96.4138 61.92C95.4005 61.92 94.6205 62.24 94.0738 62.88C93.5272 63.5067 93.2538 64.4133 93.2538 65.6C93.2538 66.76 93.5272 67.68 94.0738 68.36C94.6205 69.0267 95.4005 69.36 96.4138 69.36C96.8272 69.36 97.2605 69.2733 97.7138 69.1C98.1805 68.9267 98.6072 68.6467 98.9938 68.26L99.5538 69.44C99.1672 69.8267 98.6738 70.1333 98.0738 70.36C97.4872 70.5733 96.9005 70.68 96.3138 70.68ZM101.452 70.5V56.4H103.072V65.1H103.112L107.612 60.78H109.672L104.332 65.9V65.02L110.092 70.5H108.032L103.112 65.94H103.072V70.5H101.452Z" fill="#222222"/>
</svg>
