<svg width="57" height="27" viewBox="0 0 57 27" fill="none" xmlns="http://www.w3.org/2000/svg">
<path d="M10.2149 9.08663C9.8891 9.16621 9.56752 9.30405 9.28703 9.49022C8.96546 9.70339 8.70764 9.95919 8.47531 10.2661C8.3974 10.3685 8.3889 10.5589 8.42148 10.6768C8.45548 10.8005 8.55039 10.9341 8.66514 10.9952C8.78839 11.0605 8.93713 11.0932 9.07454 11.0492C9.11704 11.0307 9.15954 11.0136 9.20204 10.9952C9.24879 10.9668 9.28987 10.9312 9.32528 10.8914C9.44853 10.7323 9.59019 10.5916 9.74602 10.4651C9.87918 10.3699 10.0208 10.2875 10.1696 10.2192C10.2758 10.178 10.3849 10.1411 10.4968 10.1141C10.7674 10.0487 10.9544 9.72612 10.868 9.45895C10.7773 9.17758 10.5039 9.01557 10.2149 9.08663Z" fill="#C0BEBE"/>
<path d="M54.0096 18.1732C53.8736 18.1419 53.7206 18.149 53.6002 18.2272C53.4826 18.3025 53.3948 18.4091 53.3565 18.5455C53.2673 18.861 53.1766 19.1765 53.0874 19.4906C53.0491 19.6227 53.0718 19.7833 53.1412 19.9013C53.2064 20.0121 53.3324 20.1173 53.4585 20.1457C53.5945 20.177 53.7475 20.1699 53.8679 20.0917C53.9855 20.0164 54.0733 19.9098 54.1116 19.7734C54.2008 19.4579 54.2915 19.1424 54.3807 18.8283C54.419 18.6962 54.3963 18.5356 54.3269 18.4176C54.2617 18.3068 54.1357 18.2016 54.0096 18.1732Z" fill="#C0BEBE"/>
<path d="M15.4805 19.2035C15.4776 19.1836 15.4706 19.1495 15.4706 19.131C15.4706 19.1296 15.4706 19.1268 15.4706 19.1253C15.4578 19.1552 15.4791 19.2262 15.4819 19.2035H15.4805Z" fill="#C0BEBE"/>
<path d="M8.54898 14.8265C8.54898 14.8265 8.54898 14.8265 8.54756 14.8265C8.52914 14.8421 8.50506 14.8535 8.47815 14.8634C8.46681 14.8776 8.49515 14.8762 8.55039 14.8251L8.54898 14.8265Z" fill="#C0BEBE"/>
<path d="M11.1173 25.0485C11.1385 25.0457 11.1711 25.0386 11.191 25.0386C11.191 25.0386 11.1938 25.0386 11.1952 25.0386C11.123 25.0229 11.0861 25.0471 11.1187 25.0485H11.1173Z" fill="#C0BEBE"/>
<path d="M11.0663 14.5011C11.0493 14.4982 11.0323 14.4968 11.0153 14.4939C11.0096 14.4939 11.004 14.4939 10.9983 14.4925C11.1159 14.5252 11.1046 14.5096 11.0663 14.5011Z" fill="#C0BEBE"/>
<path d="M11.5933 18.8326C11.5933 18.8326 11.5919 18.8298 11.5905 18.8283C11.5777 18.817 11.5635 18.8013 11.5508 18.7843C11.5451 18.7857 11.5565 18.8084 11.5933 18.8326Z" fill="#C0BEBE"/>
<path d="M9.54628 18.5057C9.54628 18.5057 9.54061 18.51 9.53778 18.5114C9.53636 18.5128 9.53352 18.5157 9.53211 18.5171C9.54627 18.5072 9.56611 18.4944 9.57603 18.4858C9.56611 18.4929 9.55619 18.5001 9.54628 18.5057Z" fill="#C0BEBE"/>
<path d="M11.6145 20.7426C11.633 20.717 11.6443 20.68 11.6145 20.7426V20.7426Z" fill="#C0BEBE"/>
<path d="M12.5084 17.7184C11.7477 16.8857 10.5082 16.5418 9.44569 16.961C8.2359 17.4371 7.4256 18.6848 7.53893 20.0007C7.64518 21.2471 8.48381 22.3115 9.69644 22.6511C10.9076 22.9908 12.1571 22.4692 12.8512 21.4389C13.1983 20.923 13.3754 20.2509 13.3258 19.6313C13.2691 18.9065 12.9872 18.2641 12.5098 17.7184H12.5084ZM11.2731 18.4858C11.2561 18.473 11.2349 18.4588 11.2264 18.4574C11.2377 18.4574 11.2547 18.4702 11.2731 18.4858ZM10.9487 18.3068C11.0337 18.3352 10.9487 18.3139 10.9147 18.2954C10.9261 18.2997 10.9374 18.3039 10.9487 18.3068ZM10.6073 18.2116C10.732 18.2201 10.6172 18.23 10.5762 18.2087C10.5861 18.2087 10.596 18.2101 10.6073 18.2116ZM8.95271 20.015C8.95696 20.0363 8.9598 20.0576 8.9598 20.0562C8.95555 20.0519 8.95413 20.0334 8.95271 20.015ZM9.23604 20.7113C9.23604 20.7113 9.24454 20.7212 9.25445 20.734C9.24312 20.7212 9.23462 20.7113 9.23604 20.7113ZM11.7831 20.4598C11.7831 20.4598 11.7859 20.4512 11.7916 20.4399C11.7874 20.4512 11.7831 20.4612 11.7831 20.4598ZM11.9078 19.9993C11.9007 20.1301 11.8894 20.0164 11.9078 19.9794C11.9078 19.9865 11.9078 19.9936 11.9078 19.9993ZM11.912 19.9311C11.912 19.9467 11.9106 19.9638 11.9092 19.9794C11.8809 20.0235 11.8695 20.1954 11.8568 20.2409C11.8426 20.2935 11.8242 20.3432 11.8072 20.3944C11.8072 20.3958 11.8029 20.4072 11.7987 20.42C11.7534 20.5095 11.708 20.5976 11.6528 20.6829C11.6358 20.7085 11.5706 20.8364 11.6131 20.7468C11.6131 20.7468 11.6131 20.7454 11.6145 20.744C11.6131 20.7454 11.6117 20.7482 11.6103 20.7497C11.5834 20.7795 11.5579 20.8108 11.531 20.8406C11.47 20.9074 11.402 20.9657 11.3355 21.0282C11.317 21.0424 11.2958 21.0609 11.283 21.0694C11.2363 21.1021 11.1867 21.1319 11.1371 21.1618C11.089 21.1888 11.0394 21.2144 10.9898 21.2385C10.987 21.2385 10.9856 21.2385 10.9827 21.24C10.8807 21.2726 10.7801 21.3039 10.6753 21.3252C10.6512 21.3181 10.5662 21.3352 10.5464 21.3366C10.494 21.338 10.4416 21.338 10.3892 21.3366C10.358 21.3366 10.2801 21.3167 10.2447 21.3238C10.1937 21.3138 10.1427 21.3025 10.0931 21.2883C10.0506 21.2769 10.0067 21.2641 9.96418 21.2499C9.94293 21.2428 9.92168 21.2343 9.90043 21.2272C9.82818 21.1916 9.75593 21.1575 9.68794 21.1163C9.6426 21.0893 9.59869 21.0609 9.55619 21.031C9.54911 21.0254 9.54202 21.0211 9.53494 21.0154C9.46694 20.9472 9.39186 20.8875 9.3267 20.8165C9.32245 20.8108 9.28703 20.7724 9.26295 20.744C9.24595 20.7198 9.22895 20.6971 9.21337 20.6729C9.16237 20.5962 9.11704 20.5152 9.07596 20.4328C9.07029 20.4214 9.06463 20.4114 9.05896 20.4001C9.05896 20.3958 9.05754 20.393 9.05613 20.3887C9.04054 20.3262 9.01505 20.2651 8.99805 20.2011C8.98105 20.1372 8.97113 20.0732 8.95696 20.0093C8.95696 20.0064 8.95696 20.005 8.95555 20.0022C8.95555 19.9894 8.95555 19.9794 8.95555 19.9752C8.94563 19.843 8.95696 19.7137 8.95838 19.5815C8.95838 19.5758 8.95838 19.5716 8.95838 19.5687C8.9598 19.5616 8.96263 19.5531 8.96405 19.5474C8.97396 19.492 8.98671 19.4366 8.99946 19.3826C9.01504 19.3186 9.03488 19.2561 9.05613 19.1936C9.06321 19.1722 9.07171 19.1523 9.07879 19.131C9.13687 19.0287 9.18645 18.925 9.25162 18.8269C9.26578 18.807 9.27995 18.7871 9.29412 18.7672C9.33803 18.699 9.25587 18.8184 9.25587 18.8141C9.26295 18.7715 9.34937 18.7047 9.38053 18.6706C9.39186 18.6592 9.47686 18.5725 9.53353 18.5214C9.51511 18.5327 9.50803 18.537 9.53919 18.5157C9.56327 18.4944 9.58169 18.4787 9.58311 18.4816C9.58311 18.4816 9.58169 18.4858 9.57603 18.4887C9.58452 18.483 9.59302 18.4759 9.60294 18.4702C9.64544 18.4404 9.69077 18.4134 9.73468 18.3878C9.78427 18.3594 9.83668 18.3338 9.88768 18.3082C9.89335 18.3068 9.8976 18.3054 9.90326 18.3025C10.0067 18.2684 10.1101 18.2371 10.2163 18.2173C10.2206 18.2173 10.2263 18.2158 10.2305 18.2144C10.2829 18.2144 10.3382 18.2059 10.392 18.2059C10.4416 18.2059 10.4926 18.2059 10.5422 18.2087C10.5535 18.2087 10.5634 18.2101 10.5747 18.2116C10.6357 18.2528 10.7943 18.257 10.8651 18.2798C10.8793 18.284 10.8949 18.2897 10.9091 18.2954C10.9346 18.3153 11.0238 18.3466 11.0436 18.3565C11.0975 18.3849 11.1499 18.4162 11.2009 18.4489C11.2207 18.4617 11.2391 18.4745 11.2575 18.4873C11.2859 18.5057 11.293 18.5086 11.2915 18.5043C11.3241 18.5342 11.3553 18.5711 11.3695 18.5839C11.4162 18.6294 11.4615 18.6763 11.5055 18.7246C11.5182 18.7402 11.5338 18.763 11.5508 18.7857C11.555 18.7857 11.5664 18.7928 11.582 18.817C11.5848 18.8212 11.5876 18.8255 11.5905 18.8298C11.5947 18.834 11.599 18.8383 11.6032 18.8411C11.599 18.8383 11.5961 18.8369 11.5933 18.834C11.6032 18.8482 11.6131 18.8639 11.623 18.8781C11.6854 18.9733 11.7335 19.0728 11.7874 19.1737C11.7874 19.1765 11.7902 19.1793 11.7916 19.1822C11.8086 19.2262 11.8228 19.2717 11.8369 19.3172C11.8653 19.411 11.8823 19.5048 11.9035 19.5986C11.9049 19.6142 11.9078 19.6284 11.9078 19.6313C11.9106 19.6853 11.9149 19.7393 11.9149 19.7933C11.9149 19.8387 11.9149 19.8856 11.912 19.9311Z" fill="#C0BEBE"/>
<path d="M56.6303 15.9065C55.9631 13.9937 54.5677 12.4362 53.0137 11.1856C51.4101 9.89524 49.5614 8.87914 47.5427 8.42865C46.5199 8.20127 45.4731 8.14869 44.429 8.12311C43.4516 8.10038 42.4585 8.10606 41.4966 7.91563C40.6098 7.73941 39.8463 7.37845 39.094 6.88533C38.4098 6.43483 37.8106 5.96303 37.1944 5.47701C35.986 4.52202 34.7762 3.56704 33.5296 2.66321C32.8553 2.17435 32.1441 1.77502 31.3537 1.50643C30.1878 1.11136 28.9327 0.976355 27.7144 0.851297C25.7254 0.648079 23.7167 0.507389 21.7164 0.500283C20.2545 0.494599 18.7741 0.572759 17.3433 0.892509C17.2583 0.910983 17.1733 0.933721 17.0898 0.955038C17.0912 0.960722 17.094 0.966406 17.0954 0.97209C1.33132 8.16575 0.022368 17.8804 0.022368 17.8804C-0.311953 21.068 3.2055 22.3456 3.62199 22.4848C3.62199 22.4891 3.62199 22.4934 3.62199 22.4976C3.91381 22.5289 4.20847 22.5459 4.50029 22.5545C4.7822 23.194 5.16327 23.7908 5.64492 24.3209C6.48922 25.2532 7.62109 25.9396 8.8323 26.2707C10.0548 26.6046 11.3992 26.5833 12.5934 26.1442C13.9264 25.6553 15.0597 24.7387 15.846 23.5549C16.0528 23.2437 16.227 22.9169 16.3744 22.5801C18.9951 22.5801 21.6158 22.5815 24.2366 22.5801C27.0556 22.5801 29.8747 22.5758 32.6938 22.5658C34.1373 22.5602 35.5808 22.5531 37.0244 22.5431C37.3063 23.1869 37.6902 23.7852 38.1732 24.3195C39.0175 25.2517 40.1494 25.9381 41.3606 26.2693C42.5832 26.6032 43.9275 26.5819 45.1217 26.1428C46.4548 25.6539 47.5881 24.7373 48.3743 23.5535C48.5882 23.2309 48.7695 22.8913 48.9197 22.5388C50.563 22.5388 52.2062 22.5388 53.8495 22.5388C54.1258 22.5388 54.4062 22.5531 54.6825 22.5388C55.3667 22.5047 55.9546 21.7061 56.2606 21.1547C57.1247 19.5986 57.2097 17.5692 56.6289 15.9037L56.6303 15.9065ZM51.0319 12.7289C51.0503 12.7005 51.0687 12.6721 51.0885 12.6437C51.0758 12.6621 51.029 12.709 51.0984 12.6309C51.1438 12.5811 51.1905 12.5328 51.2401 12.4859C51.2444 12.4817 51.2571 12.4717 51.267 12.4646C51.2954 12.4447 51.3237 12.4262 51.352 12.4092C51.3761 12.395 51.403 12.385 51.4257 12.3694C51.4299 12.3694 51.4328 12.368 51.4384 12.3665C51.5135 12.3467 51.5872 12.3268 51.6608 12.3083C51.6679 12.3069 51.6722 12.3054 51.6778 12.304C51.7218 12.2998 51.7643 12.2955 51.8082 12.2926C51.8833 12.2884 51.9569 12.2898 52.032 12.2926C52.0646 12.2941 52.0986 12.2969 52.1312 12.2998C52.1368 12.2998 52.1382 12.2998 52.1411 12.2998C52.185 12.3367 52.2303 12.3722 52.2742 12.4092C53.3565 13.3201 54.4176 14.403 55.0253 15.7062C53.892 15.7488 52.8267 15.4361 51.8748 14.7739C51.6523 14.619 51.4398 14.4428 51.2259 14.1941C51.2033 14.1671 51.1792 14.1401 51.1579 14.1117C51.1537 14.1046 51.148 14.096 51.1395 14.0847C51.0999 14.0236 51.0588 13.9625 51.0234 13.8999C51.0049 13.8687 50.9894 13.836 50.9724 13.8033C50.9695 13.7976 50.9582 13.772 50.9511 13.7592C50.9214 13.6825 50.8973 13.6015 50.8789 13.5205C50.8718 13.4892 50.8647 13.4551 50.8605 13.4239C50.8605 13.4167 50.8605 13.4068 50.8605 13.3954C50.8605 13.3258 50.8605 13.2576 50.8633 13.1894C50.8633 13.1851 50.8633 13.1794 50.8661 13.1737C50.8718 13.141 50.8789 13.1098 50.8874 13.0771C50.8959 13.0444 50.9044 13.0103 50.9157 12.9776C50.9171 12.9705 50.9327 12.9279 50.9426 12.9023C50.9554 12.8781 50.9837 12.8142 50.9809 12.8199C50.9965 12.79 51.0134 12.7602 51.0319 12.7303V12.7289ZM51.1622 14.1145C51.1749 14.1316 51.1863 14.1515 51.1622 14.1145V14.1145ZM50.8675 13.1695C50.8718 13.1425 50.8789 13.1098 50.8675 13.1695V13.1695ZM5.5925 10.5688C5.62508 10.5305 5.65908 10.4921 5.69166 10.4537C5.81491 10.9838 5.77949 11.6006 5.54717 12.206C5.05985 13.475 3.90248 14.2154 2.91793 13.9141C3.55257 12.9307 4.42238 11.8208 5.59392 10.5688H5.5925ZM9.85368 25.0386C9.76443 25.0286 9.82676 25.0343 9.87351 25.04C9.86643 25.04 9.86076 25.04 9.85368 25.0386ZM12.354 24.7231C12.354 24.7231 12.3923 24.7103 12.4163 24.7004C12.3923 24.7131 12.3682 24.7259 12.354 24.7231ZM15.506 20.285C15.5017 20.3475 15.4975 20.4086 15.4904 20.4697C15.4861 20.5081 15.4819 20.5465 15.4776 20.5848C15.4776 20.5848 15.4776 20.5848 15.4776 20.5862C15.4224 20.8662 15.3756 21.1447 15.2935 21.419C15.2737 21.4858 15.2496 21.5512 15.2269 21.6165C15.2184 21.6379 15.2113 21.6592 15.2057 21.6805C15.1929 21.7174 15.1816 21.7558 15.1674 21.7942C15.1603 21.8141 15.1462 21.8738 15.1277 21.9221C15.1292 21.9107 15.1235 21.9121 15.1065 21.9491C15.0867 21.9917 15.0682 22.0344 15.0484 22.077C14.9252 22.3399 14.7821 22.5943 14.6206 22.8373C14.5809 22.897 14.5398 22.9552 14.4988 23.0135C14.4803 23.0391 14.4605 23.0647 14.4421 23.0902C14.3784 23.1783 14.4364 23.103 14.4591 23.0718C14.3854 23.2011 14.2523 23.3219 14.1531 23.4299C13.952 23.6487 13.7338 23.852 13.5029 24.0395C13.4958 24.0452 13.3981 24.1191 13.4292 24.0964C13.4165 24.1049 13.4066 24.112 13.4051 24.1134C13.3513 24.1532 13.2961 24.1916 13.2408 24.2285C13.1119 24.3167 12.9787 24.3977 12.8442 24.4744C12.7181 24.5455 12.5906 24.6108 12.4588 24.6719C12.4503 24.6762 12.4376 24.6833 12.4248 24.6904C12.4178 24.6932 12.4064 24.6975 12.3894 24.7046C12.3172 24.733 12.2435 24.7615 12.1698 24.7885C11.9092 24.8823 11.6414 24.9547 11.3695 25.0073C11.31 25.0187 11.2519 25.0272 11.1924 25.0372C11.1938 25.0372 11.1966 25.0372 11.198 25.0372C11.1952 25.0372 11.1924 25.0372 11.1881 25.0372C11.174 25.04 11.1584 25.0428 11.1442 25.0443C11.1301 25.0471 11.1216 25.0471 11.1145 25.0457C11.1116 25.0457 11.1088 25.0457 11.1074 25.0457C10.9572 25.0613 10.8071 25.0713 10.6569 25.0741C10.3991 25.0798 10.1427 25.0642 9.88626 25.0372C9.85793 25.0301 9.82251 25.0286 9.7956 25.0244C9.72902 25.013 9.66385 25.0016 9.59727 24.9888C9.45844 24.9604 9.32103 24.9277 9.18362 24.8894C9.06179 24.8553 8.93996 24.8183 8.82097 24.7757C8.75014 24.7515 8.68072 24.7259 8.61131 24.6975C8.58581 24.6876 8.56031 24.6776 8.53623 24.6677C8.53623 24.6677 8.53481 24.6677 8.53339 24.6662C8.28832 24.5526 8.04891 24.4318 7.81942 24.2911C7.70467 24.22 7.59135 24.1461 7.48227 24.068C7.4341 24.0339 7.38877 23.9983 7.34202 23.9642C7.31227 23.9386 7.28111 23.9145 7.25136 23.8903C7.03745 23.7113 6.83487 23.518 6.64788 23.3105C6.61813 23.2778 6.36881 23.0192 6.38297 22.9979C6.38297 22.9979 6.48922 23.1414 6.40989 23.0334C6.39147 23.0092 6.37306 22.9851 6.35606 22.9595C6.31073 22.897 6.26681 22.8344 6.22573 22.7719C6.06282 22.5289 5.91832 22.2717 5.79508 22.0059C5.78374 21.9818 5.74974 21.9022 5.74266 21.8866C5.71858 21.8255 5.6945 21.7643 5.67183 21.7032C5.61092 21.5341 5.55709 21.3607 5.51175 21.1859C5.46926 21.0197 5.43384 20.852 5.40409 20.6843C5.39842 20.6473 5.39134 20.609 5.38567 20.572C5.38284 20.5521 5.38001 20.5393 5.37859 20.5308C5.36584 20.4484 5.36301 20.3603 5.35734 20.2793C5.33184 19.9268 5.33609 19.573 5.37009 19.2206C5.37434 19.1822 5.37859 19.1452 5.38142 19.1069C5.38426 19.0841 5.38567 19.0699 5.38567 19.0614C5.39417 18.9974 5.40692 18.9335 5.41826 18.871C5.45084 18.6919 5.4905 18.5157 5.53725 18.3409C5.58258 18.176 5.63358 18.0112 5.69166 17.8506C5.71716 17.7795 5.74549 17.7085 5.77241 17.6374C5.77241 17.6346 5.77383 17.6318 5.77524 17.6289C5.77524 17.6275 5.77666 17.6261 5.77808 17.6232C5.80216 17.5721 5.82483 17.5195 5.84891 17.4683C5.99199 17.1671 6.16056 16.8771 6.35181 16.6029C6.38864 16.5489 6.4283 16.4963 6.46655 16.4437C6.46797 16.4423 6.46939 16.4409 6.4708 16.438C6.49205 16.411 6.5133 16.384 6.53455 16.3584C6.62521 16.2476 6.71871 16.141 6.81787 16.0358C7.01053 15.8312 7.22019 15.6479 7.43552 15.4688C7.4596 15.4518 7.48227 15.4333 7.50635 15.4162C7.5616 15.3765 7.61684 15.3381 7.67351 15.2997C7.79109 15.2201 7.91292 15.1462 8.03616 15.0766C8.15233 15.0112 8.2699 14.9501 8.39032 14.8933C8.4144 14.8819 8.44556 14.872 8.47673 14.8606C8.4824 14.8535 8.49656 14.8421 8.52348 14.8322C8.53056 14.8293 8.53906 14.8265 8.54614 14.8236C8.54614 14.8236 8.54898 14.8222 8.55039 14.8208C8.55039 14.8208 8.54898 14.8222 8.54756 14.8236C8.57306 14.8137 8.59856 14.8023 8.62547 14.7938C8.8833 14.6957 9.14962 14.6162 9.41878 14.5579C9.53494 14.5323 9.6511 14.5167 9.76727 14.4939C9.78852 14.4911 9.80835 14.4897 9.8296 14.4868C9.90184 14.4797 9.97268 14.4726 10.0449 14.4684C10.3112 14.4513 10.579 14.4542 10.8453 14.4755C10.8963 14.4797 10.9459 14.4854 10.9955 14.4911C10.9898 14.4897 10.987 14.4883 10.9799 14.4868C10.9898 14.4897 11.0011 14.4911 11.0111 14.4925C11.0196 14.4925 11.0295 14.4939 11.038 14.4954C11.0465 14.4954 11.055 14.4982 11.0621 14.4996C11.0621 14.4996 11.0649 14.4996 11.0663 14.4996C11.2108 14.5224 11.3539 14.5508 11.4941 14.5863C11.7406 14.646 11.9786 14.7256 12.2152 14.8165C12.2393 14.8336 12.2846 14.845 12.3073 14.8549C12.3682 14.8833 12.4291 14.9118 12.49 14.9416C12.6189 15.0055 12.745 15.0752 12.8682 15.1491C12.9802 15.2159 13.0906 15.2883 13.1969 15.3622C13.2436 15.3949 13.3556 15.4518 13.3853 15.5001C13.3796 15.4901 13.2536 15.3949 13.3541 15.4759C13.391 15.5058 13.4278 15.5356 13.4646 15.5655C13.6885 15.753 13.8967 15.9577 14.0922 16.1751C14.1489 16.2391 14.2055 16.303 14.2594 16.3698C14.2948 16.4124 14.3954 16.5759 14.3061 16.4252C14.3854 16.5602 14.4945 16.6825 14.5809 16.8146C14.7467 17.0676 14.894 17.3333 15.0229 17.6076C15.0371 17.6374 15.0498 17.6659 15.0626 17.6957C15.064 17.7 15.0753 17.7241 15.0852 17.7454C15.0895 17.7554 15.0937 17.7639 15.0952 17.7696C15.1093 17.8066 15.1249 17.8435 15.1391 17.8819C15.1901 18.0155 15.2354 18.1519 15.2765 18.2897C15.3586 18.5626 15.4167 18.8397 15.4635 19.1211C15.4635 19.1211 15.4635 19.1182 15.4649 19.1168C15.4649 19.1168 15.4649 19.1225 15.4649 19.1282C15.4677 19.141 15.4691 19.1538 15.472 19.1666C15.4748 19.185 15.4762 19.195 15.4748 19.2007C15.4748 19.2035 15.4748 19.2092 15.4762 19.2106C15.4833 19.2802 15.4904 19.3499 15.4961 19.4209C15.5074 19.5687 15.5131 19.7165 15.5131 19.8643C15.5131 20.0036 15.5088 20.1443 15.5003 20.2835L15.506 20.285ZM12.235 14.8236C12.235 14.8236 12.2478 14.8279 12.2548 14.8307C12.3413 14.8649 12.2761 14.8407 12.235 14.8236ZM33.5792 21.1433C32.0464 21.149 30.5136 21.1547 28.9794 21.1575C28.5204 21.1575 28.06 21.1575 27.601 21.1575C27.7526 20.977 27.9028 20.798 28.0544 20.6175C28.1464 20.5067 28.2102 20.3901 28.2102 20.2409C28.2102 20.1102 28.1521 19.9538 28.0544 19.8643C27.9538 19.7705 27.8206 19.7023 27.679 19.708C27.5458 19.7137 27.3928 19.7577 27.3036 19.8643C26.9451 20.2921 26.5853 20.7198 26.2269 21.1476C26.2241 21.1518 26.2213 21.1547 26.2184 21.159C25.7963 21.159 25.3727 21.159 24.9506 21.159L26.5074 19.4025C26.6916 19.1936 26.727 18.8511 26.5074 18.6493C26.3063 18.4631 25.9535 18.4262 25.7566 18.6493C25.0384 19.4593 24.3202 20.2708 23.6019 21.0808C23.5793 21.1049 23.5609 21.1319 23.5424 21.1604C23.1387 21.1604 22.7336 21.1604 22.3298 21.1604C22.3298 21.1604 22.3312 21.159 22.3326 21.1575C22.7817 20.6843 23.2308 20.2125 23.6784 19.7393C23.8697 19.5375 23.8938 19.1836 23.6784 18.9861C23.4702 18.7942 23.1316 18.7701 22.9276 18.9861C22.4786 19.4593 22.0295 19.9311 21.5804 20.4043C21.5691 20.4157 21.562 20.4285 21.5521 20.4413C20.6851 17.6957 20.0632 14.8492 19.7289 12.017C19.6326 11.2012 19.5589 10.3813 19.5065 9.56128C20.0632 9.62096 20.6214 9.6778 21.1795 9.7247C24.3173 9.99471 27.4679 10.0842 30.6156 10.1169C32.3495 10.1354 34.0835 10.1354 35.8174 10.1354C34.8074 12.9094 34.126 15.7943 33.7803 18.7289C33.6854 19.5304 33.6202 20.3347 33.5777 21.1405L33.5792 21.1433ZM27.9566 4.95972C27.9779 4.96256 27.9991 4.96541 28.0204 4.96825C28.0912 4.97678 28.0728 4.97536 28.0303 4.96825C28.0402 4.96967 28.0515 4.97109 28.0614 4.97251C28.1323 4.98246 28.2045 4.99383 28.2754 5.0052C28.4 5.02652 28.5233 5.04925 28.6465 5.07625C28.808 5.11178 28.9667 5.15584 29.1239 5.20415C29.2457 5.24252 29.3676 5.28374 29.488 5.32779C29.5489 5.35053 29.6098 5.37327 29.6693 5.39742C29.7175 5.4159 29.9045 5.48553 29.76 5.43295C30.2714 5.6177 30.7643 5.92323 31.2262 6.20746C31.7276 6.51584 32.2093 6.85548 32.6782 7.21076C32.7235 7.24487 32.7703 7.28039 32.8156 7.31592C32.8014 7.30597 32.8751 7.3614 32.902 7.38271C33.0238 7.47793 33.1443 7.57457 33.2647 7.67262C33.4956 7.86021 33.7251 8.05064 33.9517 8.24391C34.1345 8.39881 34.3158 8.55655 34.4957 8.71572C31.8098 8.71429 29.1239 8.7015 26.4394 8.60913C24.8868 8.55655 23.3342 8.47555 21.7844 8.35333C21.069 8.29649 20.3551 8.23112 19.6411 8.1558C19.7997 7.04165 19.9598 5.9275 20.1185 4.81335C20.4018 4.80198 20.6851 4.79061 20.9699 4.78208C22.6131 4.73377 24.2607 4.7295 25.9025 4.80198C26.6052 4.83324 27.3078 4.8773 28.0062 4.96541C28.0076 4.96541 28.009 4.96541 28.0104 4.96541C27.9934 4.96257 27.9736 4.95972 27.9566 4.9583V4.95972ZM42.382 25.0386C42.2928 25.0286 42.3551 25.0343 42.4018 25.04C42.3948 25.04 42.3891 25.04 42.382 25.0386ZM44.8823 24.7231C44.8823 24.7231 44.9206 24.7103 44.9447 24.7004C44.9206 24.7131 44.8965 24.7259 44.8823 24.7231ZM48.0343 20.285C48.0301 20.3475 48.0258 20.4086 48.0187 20.4697C48.0145 20.5081 48.0102 20.5465 48.006 20.5848C48.006 20.5848 48.006 20.5848 48.006 20.5862C47.9507 20.8662 47.904 21.1447 47.8218 21.419C47.7836 21.5455 47.7425 21.6705 47.6957 21.7942C47.6887 21.8141 47.6745 21.8738 47.6561 21.9221C47.6575 21.9107 47.6518 21.9121 47.6348 21.9491C47.615 21.9917 47.5966 22.0344 47.5767 22.077C47.4535 22.3399 47.3104 22.5943 47.1489 22.8373C47.1093 22.897 47.0682 22.9552 47.0271 23.0135C47.0087 23.0391 46.9888 23.0647 46.9704 23.0902C46.9067 23.1783 46.9648 23.103 46.9874 23.0718C46.9138 23.2011 46.7806 23.3219 46.6814 23.4299C46.4803 23.6487 46.2621 23.852 46.0312 24.0395C46.0241 24.0452 45.925 24.1191 45.9576 24.0964C45.9448 24.1049 45.9349 24.112 45.9335 24.1134C45.8796 24.1532 45.8244 24.1916 45.7691 24.2285C45.6402 24.3167 45.5071 24.3977 45.3725 24.4744C45.2464 24.5455 45.1189 24.6108 44.9872 24.6719C44.9787 24.6762 44.9659 24.6833 44.9532 24.6904C44.9461 24.6932 44.9347 24.6975 44.9178 24.7046C44.8455 24.733 44.7718 24.7615 44.6982 24.7885C44.4375 24.8823 44.1698 24.9547 43.8978 25.0073C43.8383 25.0187 43.7802 25.0272 43.7207 25.0372C43.7221 25.0372 43.725 25.0372 43.7264 25.0372C43.7235 25.0372 43.7207 25.0372 43.7165 25.0372C43.7023 25.04 43.6867 25.0428 43.6725 25.0443C43.6584 25.0471 43.6499 25.0471 43.6428 25.0457C43.64 25.0457 43.6371 25.0457 43.6357 25.0457C43.4856 25.0613 43.3354 25.0713 43.1852 25.0741C42.9274 25.0798 42.671 25.0642 42.4146 25.0372C42.3863 25.0301 42.3508 25.0286 42.3239 25.0244C42.2573 25.013 42.1922 25.0016 42.1256 24.9888C41.9868 24.9604 41.8494 24.9277 41.712 24.8894C41.5901 24.8553 41.4683 24.8183 41.3493 24.7757C41.2785 24.7515 41.2091 24.7259 41.1396 24.6975C41.1141 24.6876 41.0886 24.6776 41.0646 24.6677C41.0646 24.6677 41.0631 24.6677 41.0617 24.6662C40.8166 24.5526 40.5772 24.4318 40.3478 24.2911C40.233 24.22 40.1197 24.1461 40.0106 24.068C39.9624 24.0339 39.9171 23.9983 39.8704 23.9642C39.8406 23.9386 39.8094 23.9145 39.7797 23.8903C39.5658 23.7113 39.3632 23.518 39.1762 23.3105C39.1465 23.2778 38.8971 23.0192 38.9113 22.9979C38.9113 22.9979 39.0175 23.1414 38.9382 23.0334C38.9198 23.0092 38.9014 22.9851 38.8844 22.9595C38.8391 22.897 38.7951 22.8344 38.7541 22.7719C38.5911 22.5289 38.4467 22.2717 38.3234 22.0059C38.3121 21.9818 38.2781 21.9022 38.271 21.8866C38.2469 21.8255 38.2228 21.7643 38.2002 21.7032C38.1392 21.5341 38.0854 21.3607 38.0401 21.1859C37.9976 21.0197 37.9622 20.852 37.9324 20.6843C37.9268 20.6473 37.9197 20.609 37.914 20.572C37.9112 20.5521 37.9083 20.5393 37.9069 20.5308C37.8942 20.4484 37.8913 20.3603 37.8857 20.2793C37.8602 19.9268 37.8644 19.573 37.8984 19.2206C37.9027 19.1822 37.9069 19.1452 37.9098 19.1069C37.9126 19.0841 37.914 19.0713 37.914 19.0614C37.9225 18.9974 37.9353 18.9321 37.9466 18.871C37.9792 18.6919 38.0188 18.5157 38.0656 18.3409C38.1109 18.176 38.1619 18.0112 38.22 17.8506C38.2455 17.7795 38.2738 17.7085 38.3007 17.6374C38.3007 17.6346 38.3022 17.6318 38.3036 17.6289C38.3036 17.6275 38.305 17.6261 38.3064 17.6232C38.3305 17.5721 38.3532 17.5195 38.3772 17.4683C38.5203 17.1671 38.6889 16.8771 38.8801 16.6029C38.917 16.5489 38.9566 16.4963 38.9949 16.4437C38.9963 16.4423 38.9977 16.4409 38.9991 16.438C39.0204 16.411 39.0416 16.384 39.0629 16.3584C39.1535 16.2476 39.247 16.141 39.3462 16.0358C39.5389 15.8312 39.7485 15.6479 39.9638 15.4688C39.9879 15.4518 40.0106 15.4333 40.0347 15.4162C40.0899 15.3765 40.1452 15.3381 40.2018 15.2997C40.3194 15.2201 40.4412 15.1462 40.5645 15.0766C40.6807 15.0112 40.7982 14.9501 40.9186 14.8933C40.9427 14.8819 40.9739 14.872 41.0051 14.8606C41.0107 14.8535 41.0249 14.8421 41.0518 14.8322C41.0589 14.8293 41.0674 14.8265 41.0745 14.8236C41.0561 14.8393 41.032 14.8506 41.0051 14.8606C40.9937 14.8748 41.0221 14.8734 41.0773 14.8222C41.0773 14.8222 41.0773 14.8222 41.0759 14.8222C41.0759 14.8222 41.0787 14.8208 41.0801 14.8194C41.0801 14.8194 41.0787 14.8208 41.0773 14.8222C41.1028 14.8123 41.1283 14.8009 41.1552 14.7924C41.413 14.6943 41.6794 14.6147 41.9485 14.5565C42.0647 14.5309 42.1808 14.5153 42.297 14.4925C42.3183 14.4897 42.3381 14.4883 42.3593 14.4854C42.4316 14.4783 42.5024 14.4712 42.5747 14.4669C42.841 14.4499 43.1087 14.4527 43.3751 14.4741C43.4261 14.4783 43.4756 14.484 43.5252 14.4897C43.5196 14.4883 43.5167 14.4868 43.5096 14.4854C43.5196 14.4883 43.5309 14.4897 43.5408 14.4911C43.5493 14.4911 43.5592 14.4925 43.5677 14.4939C43.5762 14.4939 43.5847 14.4968 43.5918 14.4982C43.5918 14.4982 43.5946 14.4982 43.5961 14.4982C43.7405 14.5209 43.8822 14.5494 44.0239 14.5849C44.2704 14.6446 44.5083 14.7242 44.7449 14.8151C44.769 14.8322 44.8143 14.8435 44.837 14.8535C44.8979 14.8819 44.9588 14.9103 45.0197 14.9402C45.1487 15.0041 45.2747 15.0738 45.398 15.1477C45.5099 15.2144 45.6204 15.2869 45.7266 15.3608C45.7734 15.3935 45.8853 15.4504 45.9151 15.4987C45.9094 15.4887 45.7833 15.3935 45.8839 15.4745C45.9207 15.5044 45.9575 15.5342 45.9944 15.564C46.2182 15.7516 46.4264 15.9563 46.6219 16.1737C46.6786 16.2376 46.7353 16.3016 46.7891 16.3684C46.8245 16.411 46.9251 16.5745 46.8358 16.4238C46.9152 16.5588 47.0243 16.681 47.1107 16.8132C47.2764 17.0662 47.4237 17.3319 47.5527 17.6062C47.5668 17.636 47.5796 17.6644 47.5923 17.6943C47.5937 17.6985 47.6051 17.7227 47.615 17.7454C47.6192 17.7554 47.6221 17.7639 47.6249 17.7696C47.6391 17.8066 47.6547 17.8435 47.6688 17.8819C47.7198 18.0155 47.7651 18.1519 47.8062 18.2897C47.8884 18.5626 47.9465 18.8397 47.9932 19.1211C47.9932 19.1211 47.9932 19.1182 47.9946 19.1168C47.9946 19.1168 47.9946 19.1225 47.9946 19.1282C47.9975 19.141 47.9989 19.1538 48.0017 19.1666C48.0046 19.1864 48.006 19.195 48.0046 19.2007C48.0046 19.2035 48.0046 19.2092 48.006 19.2106C48.0131 19.2802 48.0201 19.3499 48.0258 19.4209C48.0371 19.5687 48.0428 19.7165 48.0428 19.8643C48.0428 20.0036 48.0386 20.1443 48.0301 20.2835L48.0343 20.285ZM44.7633 14.8236C44.7633 14.8236 44.7761 14.8279 44.7832 14.8307C44.8696 14.8649 44.8044 14.8407 44.7633 14.8236ZM55.2321 20.0334C55.1698 20.2025 54.9913 20.5436 54.8298 20.7724C54.8142 20.7951 54.8071 20.8065 54.8029 20.8108C54.8001 20.8136 54.7901 20.8221 54.7689 20.8463C54.7236 20.8975 54.6782 20.9472 54.6301 20.9955C54.5876 21.0382 54.5408 21.0779 54.4955 21.1177H49.3447C49.6592 19.3797 49.2951 17.5209 48.2978 16.0344C48.0952 15.7317 47.87 15.4432 47.6277 15.1704C46.7608 14.2083 45.6048 13.4892 44.3398 13.1993C43.1456 12.925 41.8607 12.9947 40.7175 13.4466C39.451 13.9468 38.3999 14.8023 37.6307 15.9264C36.758 17.2026 36.3444 18.8255 36.4761 20.366C36.4974 20.6218 36.5342 20.8747 36.5824 21.1248C35.935 21.1291 35.289 21.1319 34.6416 21.1348C34.8017 18.0751 35.3457 15.0681 36.2622 12.1278C36.5314 11.2638 36.8331 10.4097 37.1632 9.56554C37.2524 9.33816 37.1009 9.05394 36.8884 8.94593C36.8799 8.93741 36.8742 8.92888 36.8657 8.92178C35.0949 7.3415 33.3128 5.67028 31.2007 4.55329C30.4045 4.13264 29.556 3.78589 28.6663 3.63667C27.9637 3.51872 27.2526 3.45619 26.5428 3.41213C24.8698 3.30981 23.1897 3.30697 21.5138 3.34534C20.2276 3.37376 18.9257 3.40077 17.6479 3.56561C15.523 3.83847 13.534 5.04925 12.0041 6.51442C11.8072 6.70342 11.6174 6.90096 11.4346 7.10418C11.4318 7.10702 11.4304 7.10986 11.429 7.1127C11.3454 7.19371 11.2802 7.29461 11.2533 7.41824C11.2405 7.47224 11.2363 7.52767 11.2363 7.58309C11.225 7.7522 11.2717 7.92132 11.3893 8.05632C11.4006 8.07195 11.4148 8.08616 11.4275 8.1018C11.4304 8.10464 11.4318 8.10748 11.436 8.11032C11.4375 8.11032 11.4389 8.11316 11.4403 8.11316C11.521 8.19843 11.623 8.2638 11.7477 8.29223C13.9562 8.78961 16.1902 9.16337 18.437 9.43764C18.6409 12.7133 19.1807 15.9705 20.0576 19.1324C20.246 19.8132 20.45 20.4882 20.6695 21.159C20.637 21.159 20.6044 21.159 20.5704 21.159C19.3167 21.159 18.063 21.159 16.8093 21.159C17.1365 19.4081 16.7753 17.5337 15.7709 16.0373C15.5683 15.7346 15.3431 15.4461 15.1008 15.1732C14.2339 14.2111 13.0779 13.4921 11.8129 13.2022C10.6187 12.9279 9.33378 12.9975 8.19057 13.4494C6.92412 13.9497 5.87299 14.8052 5.10377 15.9293C4.23113 17.2054 3.81748 18.8283 3.94923 20.3688C3.97048 20.6203 4.00589 20.869 4.05406 21.1149C3.8869 21.1035 3.72398 21.0851 3.55966 21.0609V21.0552C3.55966 21.0552 -0.388451 19.7791 2.44903 14.6929C2.61902 14.8435 2.81168 14.9672 3.02701 15.0496C4.29771 15.5399 5.84607 14.5906 6.48355 12.9293C6.92554 11.7782 6.81221 10.5902 6.27814 9.80429C11.0394 4.72382 17.6111 2.29799 17.6111 2.29799L17.6082 2.28804C17.6196 2.2852 17.6323 2.28235 17.6451 2.27951C17.8802 2.22551 18.1182 2.17861 18.3562 2.1374C18.4837 2.11608 18.6098 2.09619 18.7373 2.07771C18.7472 2.07629 18.7543 2.07487 18.7614 2.07345C18.7684 2.07345 18.7784 2.07203 18.7925 2.07061C18.8662 2.06208 18.9384 2.05213 19.0121 2.04503C20.4146 1.88871 21.8326 1.89865 23.2407 1.9555C24.8953 2.02229 26.5542 2.13598 28.1989 2.32357C28.349 2.34062 28.4978 2.35909 28.6479 2.37757C28.6663 2.38041 28.6791 2.38183 28.6876 2.38183C28.6947 2.38183 28.706 2.38467 28.7202 2.38609C28.7924 2.39604 28.8661 2.40599 28.9383 2.41736C29.1933 2.45573 29.4483 2.49694 29.7019 2.54668C30.107 2.62484 30.5094 2.72005 30.9018 2.84795C31.059 2.89911 31.212 2.96307 31.3664 3.01849C31.4004 3.03412 31.4358 3.04975 31.4698 3.06539C31.5406 3.09807 31.6115 3.1336 31.6809 3.16913C31.9628 3.31408 32.232 3.48035 32.494 3.65941C33.2958 4.20654 34.0679 4.81051 34.8329 5.40595C36.0242 6.33109 37.1745 7.32587 38.441 8.15011C39.0898 8.57218 39.7769 8.92746 40.5234 9.14205C41.3479 9.37937 42.2148 9.46322 43.0691 9.50443C43.9275 9.54564 44.7888 9.5357 45.6473 9.59254C46.4576 9.64512 47.2467 9.78581 48.0244 10.0274C49.0585 10.3486 50.0445 10.8303 50.954 11.4243C50.2995 11.7398 49.8858 12.4092 49.8107 13.1354C49.7272 13.9411 50.1762 14.6972 50.75 15.2244C51.3506 15.7772 52.0844 16.1836 52.8522 16.4494C53.6654 16.7308 54.5493 16.8331 55.405 16.7436C55.6897 17.8336 55.6444 18.9349 55.235 20.0334H55.2321ZM16.0925 5.45427C16.1633 5.42585 16.2327 5.39742 16.3035 5.37042C16.7328 5.20557 17.179 5.06915 17.6337 4.99383C17.6621 4.98957 17.6918 4.9853 17.7216 4.98104C17.8292 4.96825 17.9369 4.95688 18.0446 4.94551C18.3123 4.91993 18.5815 4.89862 18.8506 4.88156C18.9172 4.8773 18.9824 4.87446 19.0489 4.87019C18.8974 5.92608 18.7472 6.98338 18.5956 8.03927C18.522 8.03074 18.4469 8.02221 18.3732 8.01369C18.182 7.98953 17.9907 7.96537 17.7995 7.94121C17.7641 7.93695 17.655 7.92132 17.6352 7.91847C17.5417 7.90568 17.4467 7.89289 17.3532 7.87868C16.0188 7.6911 14.69 7.46088 13.3711 7.19087C13.4604 7.1127 13.551 7.03454 13.6431 6.95922C13.6885 6.92085 13.7352 6.8839 13.7805 6.84696C13.8032 6.8299 13.8245 6.81143 13.8471 6.79437C13.9675 6.70627 14.0865 6.61532 14.2084 6.53005C14.4449 6.36378 14.6872 6.20604 14.9337 6.05824C15.1787 5.91187 15.4295 5.77402 15.6845 5.64754C15.7978 5.59212 15.9111 5.53812 16.0259 5.48696C16.0755 5.46422 16.2242 5.40453 16.0939 5.45569L16.0925 5.45427Z" fill="#C0BEBE"/>
<path d="M48.0088 19.2035C48.006 19.1836 47.9989 19.1495 47.9989 19.131C47.9989 19.1296 47.9989 19.1268 47.9989 19.1253C47.9861 19.1552 48.0074 19.2262 48.0102 19.2035H48.0088Z" fill="#C0BEBE"/>
<path d="M43.6456 25.0485C43.6669 25.0457 43.6995 25.0386 43.7193 25.0386C43.7193 25.0386 43.7221 25.0386 43.7235 25.0386C43.6513 25.0229 43.6145 25.0471 43.647 25.0485H43.6456Z" fill="#C0BEBE"/>
<path d="M43.5946 14.5011C43.5776 14.4982 43.5606 14.4968 43.5436 14.4939C43.538 14.4939 43.5323 14.4939 43.5266 14.4925C43.6442 14.5252 43.6329 14.5096 43.5946 14.5011Z" fill="#C0BEBE"/>
<path d="M44.1429 20.7426C44.1613 20.717 44.1726 20.68 44.1429 20.7426V20.7426Z" fill="#C0BEBE"/>
<path d="M42.0746 18.5057C42.0746 18.5057 42.0689 18.51 42.0661 18.5114C42.0647 18.5128 42.0619 18.5157 42.0604 18.5171C42.0746 18.5072 42.0944 18.4944 42.1044 18.4858C42.0944 18.4929 42.0845 18.5001 42.0746 18.5057Z" fill="#C0BEBE"/>
<path d="M44.1216 18.8326C44.1216 18.8326 44.1202 18.8298 44.1188 18.8283C44.106 18.817 44.0919 18.8013 44.0791 18.7843C44.0734 18.7857 44.0848 18.8084 44.1216 18.8326Z" fill="#C0BEBE"/>
<path d="M45.0368 17.7184C44.276 16.8857 43.0365 16.5418 41.974 16.961C40.7642 17.4371 39.9539 18.6848 40.0673 20.0007C40.1735 21.2471 41.0121 22.3115 42.2234 22.6511C43.4346 22.9908 44.684 22.4692 45.3782 21.4389C45.7252 20.923 45.9023 20.2509 45.8527 19.6313C45.7961 18.9065 45.5141 18.2641 45.0368 17.7184ZM43.8015 18.4858C43.7845 18.473 43.7632 18.4588 43.7547 18.4574C43.766 18.4574 43.783 18.4702 43.8015 18.4858ZM43.4771 18.3068C43.562 18.3352 43.4771 18.3139 43.4431 18.2954C43.4544 18.2997 43.4657 18.3039 43.4771 18.3068ZM43.1357 18.2116C43.2603 18.2201 43.1456 18.23 43.1045 18.2087C43.1144 18.2087 43.1243 18.2101 43.1357 18.2116ZM41.481 20.015C41.4853 20.0363 41.4881 20.0576 41.4881 20.0562C41.4839 20.0519 41.4825 20.0334 41.481 20.015ZM41.7644 20.7113C41.7644 20.7113 41.7729 20.7212 41.7828 20.734C41.7715 20.7212 41.763 20.7113 41.7644 20.7113ZM44.3114 20.4598C44.3114 20.4598 44.3143 20.4512 44.3199 20.4384C44.3157 20.4498 44.3114 20.4598 44.3114 20.4598ZM44.4361 19.9993C44.429 20.1301 44.4177 20.0164 44.4361 19.9794C44.4361 19.9865 44.4361 19.9936 44.4361 19.9993ZM44.4403 19.9311C44.4403 19.9467 44.4389 19.9638 44.4375 19.9794C44.4092 20.0235 44.3979 20.1954 44.3851 20.2409C44.3709 20.2935 44.3525 20.3432 44.3355 20.3944C44.3355 20.3958 44.3313 20.4072 44.327 20.42C44.2817 20.5095 44.2364 20.5976 44.1811 20.6829C44.1641 20.7085 44.0989 20.8364 44.1414 20.7468C44.1414 20.7468 44.1414 20.7454 44.1429 20.744C44.1414 20.7454 44.14 20.7482 44.1386 20.7497C44.1117 20.7795 44.0862 20.8108 44.0593 20.8406C43.9984 20.9074 43.929 20.9657 43.8638 21.0282C43.8454 21.0424 43.8241 21.0609 43.8114 21.0694C43.7646 21.1021 43.715 21.1319 43.6655 21.1618C43.6173 21.1888 43.5677 21.2144 43.5181 21.2385C43.5153 21.2385 43.5139 21.2385 43.5111 21.24C43.4091 21.2726 43.3085 21.3039 43.2036 21.3252C43.1796 21.3181 43.0946 21.3352 43.0747 21.3366C43.0223 21.338 42.9699 21.338 42.9175 21.3366C42.8863 21.3366 42.8084 21.3167 42.773 21.3238C42.722 21.3138 42.671 21.3025 42.6214 21.2883C42.5789 21.2769 42.535 21.2641 42.4925 21.2499C42.4713 21.2428 42.45 21.2343 42.4288 21.2272C42.3565 21.1916 42.2843 21.1575 42.2163 21.1149C42.1709 21.0879 42.127 21.0595 42.0845 21.0296C42.0774 21.0239 42.0704 21.0197 42.0633 21.014C41.9953 20.9458 41.9202 20.8861 41.855 20.815C41.8508 20.8094 41.8154 20.771 41.7913 20.7426C41.7743 20.7184 41.7573 20.6957 41.7417 20.6715C41.6907 20.5948 41.6454 20.5138 41.6043 20.4313C41.5986 20.42 41.593 20.41 41.5873 20.3987C41.5873 20.3944 41.5859 20.3915 41.5845 20.3873C41.5689 20.3248 41.5434 20.2637 41.5264 20.1997C41.5094 20.1358 41.4995 20.0718 41.4853 20.0079C41.4853 20.005 41.4853 20.0036 41.4839 20.0007C41.4839 19.988 41.4839 19.978 41.4839 19.9737C41.474 19.8416 41.4853 19.7123 41.4867 19.5801C41.4867 19.5744 41.4867 19.5701 41.4867 19.5673C41.4881 19.5602 41.491 19.5517 41.4924 19.546C41.5023 19.4906 41.515 19.4351 41.5278 19.3811C41.5434 19.3172 41.5632 19.2547 41.5845 19.1921C41.5915 19.1708 41.6 19.1509 41.6071 19.1296C41.6652 19.0273 41.7148 18.9235 41.7799 18.8255C41.7941 18.8056 41.8083 18.7857 41.8224 18.7658C41.8664 18.6976 41.7842 18.817 41.7842 18.8127C41.7913 18.7701 41.8777 18.7033 41.9089 18.6692C41.9202 18.6578 42.0052 18.5711 42.0604 18.5199C42.042 18.5313 42.0349 18.5356 42.0661 18.5143C42.0902 18.4929 42.1086 18.4773 42.11 18.4802C42.11 18.4802 42.1086 18.4844 42.1029 18.4873C42.1114 18.4816 42.1199 18.4745 42.1299 18.4688C42.1724 18.4389 42.2177 18.4119 42.263 18.3864C42.3126 18.3579 42.365 18.3324 42.416 18.3068C42.4217 18.3054 42.4259 18.3039 42.4316 18.3011C42.535 18.267 42.6384 18.2357 42.7447 18.2158C42.7489 18.2158 42.7546 18.2144 42.7588 18.213C42.8112 18.213 42.8665 18.2045 42.9203 18.2045C42.9699 18.2045 43.0209 18.2045 43.0705 18.2073C43.0818 18.2073 43.0917 18.2087 43.1031 18.2101C43.164 18.2514 43.3226 18.2556 43.3935 18.2784C43.4076 18.2826 43.4232 18.2883 43.4374 18.294C43.4629 18.3139 43.5521 18.3452 43.572 18.3551C43.6258 18.3835 43.6782 18.4148 43.7278 18.4475C43.7476 18.4603 43.766 18.473 43.7845 18.4858C43.8128 18.5043 43.8199 18.5072 43.8185 18.5029C43.851 18.5327 43.8822 18.5697 43.8964 18.5825C43.9431 18.628 43.9884 18.6749 44.0324 18.7232C44.0451 18.7388 44.0607 18.7615 44.0777 18.7843C44.0819 18.7843 44.0933 18.7914 44.1089 18.8155C44.1117 18.8198 44.1145 18.8241 44.1174 18.8283C44.1216 18.8326 44.1259 18.8369 44.1301 18.8397C44.1259 18.8369 44.123 18.8354 44.1202 18.8326C44.1301 18.8468 44.14 18.8624 44.1499 18.8766C44.2123 18.9719 44.2604 19.0713 44.3143 19.1722C44.3143 19.1751 44.3171 19.1779 44.3185 19.1808C44.3355 19.2248 44.3497 19.2703 44.3639 19.3158C44.3922 19.4096 44.4092 19.5034 44.4304 19.5971C44.4319 19.6128 44.4347 19.627 44.4347 19.6298C44.4375 19.6838 44.4418 19.7378 44.4418 19.7918C44.4418 19.8373 44.4418 19.8842 44.4389 19.9297L44.4403 19.9311Z" fill="#C0BEBE"/>
<path d="M23.9093 12.2699C23.3937 12.2926 22.8766 12.3154 22.361 12.3381C22.0833 12.3509 21.817 12.574 21.8298 12.871C21.8425 13.1496 22.0635 13.4167 22.361 13.404C22.8766 13.3812 23.3937 13.3585 23.9093 13.3357C24.187 13.323 24.4533 13.0998 24.4406 12.8028C24.4278 12.5243 24.2068 12.2571 23.9093 12.2699Z" fill="#C0BEBE"/>
<path d="M28.0303 4.96967C28.0303 4.96967 28.0232 4.96967 28.0204 4.96967C28.0175 4.96967 28.0147 4.96967 28.0119 4.96967C28.0189 4.96967 28.0246 4.97109 28.0303 4.97252V4.96967Z" fill="#C0BEBE"/>
</svg>
