<svg width="5431" height="30" viewBox="0 0 5431 30" fill="none" xmlns="http://www.w3.org/2000/svg">
<path d="M1 20C218.16 26.6667 399.127 26.6667 543.9 20C688.673 13.3333 869.64 13.3333 1086.8 20C1303.96 26.6667 1484.93 26.6667 1629.7 20C1774.47 13.3333 1955.44 13.3333 2172.6 20C2389.76 26.6667 2570.73 26.6667 2715.5 20C2860.27 13.3333 3041.24 13.3333 3258.4 20C3475.56 26.6667 3656.53 17.1667 3801.3 10.5C3946.07 3.83333 4127.04 3.83333 4344.2 10.5C4561.36 17.1667 4742.33 26.6667 4887.1 20C5031.87 13.3333 5212.84 13.3333 5430 20" stroke="#FAFAFA" stroke-width="10"/>
</svg>
