<svg width="415" height="177" viewBox="0 0 415 177" fill="none" xmlns="http://www.w3.org/2000/svg">
<path d="M412.03 102.11C407.32 88.6501 397.47 77.6901 386.5 68.8901C375.18 59.8101 362.13 52.6601 347.88 49.4901C340.66 47.8901 333.27 47.5201 325.9 47.3401C319 47.1801 311.99 47.2201 305.2 45.8801C298.94 44.6401 293.55 42.1001 288.24 38.6301C283.41 35.4601 279.18 32.1401 274.83 28.7201C266.3 22.0001 257.76 15.2801 248.96 8.92015C244.2 5.48014 239.18 2.67015 233.6 0.780146C229.43 -0.629854 222.82 4.63015 223.36 8.41015C225.73 8.91015 228.09 9.49014 230.39 10.2401C231.5 10.6001 232.58 11.0501 233.67 11.4401C233.91 11.5501 234.16 11.6601 234.4 11.7701C234.9 12.0001 235.4 12.2501 235.89 12.5001C237.88 13.5201 239.78 14.6901 241.63 15.9501C247.29 19.8001 252.74 24.0501 258.14 28.2401C266.55 34.7501 274.67 41.7502 283.61 47.5502C288.19 50.5202 293.04 53.0201 298.31 54.5301C304.13 56.2001 310.25 56.7901 316.28 57.0802C322.34 57.3702 328.42 57.3001 334.48 57.7001C340.2 58.0701 345.77 59.0601 351.26 60.7601C358.56 63.0201 365.52 66.4101 371.94 70.5901C367.32 72.8101 364.4 77.5201 363.87 82.6301C363.28 88.3001 366.45 93.6201 370.5 97.3301C374.74 101.22 379.92 104.08 385.34 105.95C391.08 107.93 397.32 108.65 403.36 108.02C405.37 115.69 405.05 123.44 402.16 131.17C401.72 132.36 400.46 134.76 399.32 136.37C399.21 136.53 399.16 136.61 399.13 136.64C399.11 136.66 399.04 136.72 398.89 136.89C398.57 137.25 398.25 137.6 397.91 137.94C397.61 138.24 397.28 138.52 396.96 138.8H360.6C362.82 126.57 360.25 113.49 353.21 103.03C351.78 100.9 350.19 98.8701 348.48 96.9501C342.36 90.1801 334.2 85.1201 325.27 83.0801C316.84 81.1501 307.77 81.6402 299.7 84.8202C290.76 88.3401 283.34 94.3602 277.91 102.27C271.75 111.25 268.83 122.67 269.76 133.51C269.91 135.31 270.17 137.09 270.51 138.85C265.94 138.88 261.38 138.9 256.81 138.92C257.94 117.39 261.78 96.2301 268.25 75.5401C270.15 69.4601 272.28 63.4501 274.61 57.5101C275.24 55.9101 274.17 53.9101 272.67 53.1502C272.61 53.0901 272.57 53.0302 272.51 52.9802C260.01 41.8602 247.43 30.1001 232.52 22.2401C229.75 20.7801 226.89 19.4501 223.95 18.3501C223.85 21.8601 224.45 25.2901 223.64 28.5101C223.77 28.5601 223.84 28.9101 223.67 28.8501L223.74 29.0201C227.26 30.3301 229.53 31.9301 232.71 33.8801C236.25 36.0501 239.65 38.4402 242.96 40.9402C243.28 41.1802 243.61 41.4301 243.93 41.6801C243.83 41.6101 244.35 42.0001 244.54 42.1502C245.4 42.8201 246.25 43.5002 247.1 44.1902C248.73 45.5102 250.35 46.8501 251.95 48.2101C253.24 49.3001 254.52 50.4101 255.79 51.5301C236.83 51.5201 217.87 51.4301 198.92 50.7801C187.96 50.4101 177 49.8402 166.06 48.9802C161.01 48.5802 155.97 48.1201 150.93 47.5901C150.98 47.2301 150.68 47.9802 150.73 47.6202C150.14 47.5602 149.55 47.5001 148.96 47.4501C147.08 47.1801 145.22 46.9002 143.35 46.6202C143.29 47.0302 143.58 46.3402 143.52 46.7602C143 46.7001 142.47 46.6402 141.95 46.5802C140.6 46.4102 139.25 46.2401 137.9 46.0701C137.65 46.0401 136.88 45.9302 136.74 45.9102C136.08 45.8202 135.41 45.7301 134.75 45.6301C125.33 44.3101 115.95 42.6902 106.64 40.7901C106.11 41.2301 107.16 40.3401 106.64 40.7901C102.5 40.0501 100.82 38.2701 96.6801 37.5401C95.7201 38.5001 93.8901 39.1802 92.9901 40.1902C92.9701 40.2102 92.9601 40.2301 92.9501 40.2501C92.3601 40.8201 91.9001 41.5302 91.7101 42.4002C91.6201 42.7802 91.5901 43.1701 91.5901 43.5601C91.5101 44.7501 91.8401 45.9401 92.6701 46.8901C92.7501 47.0001 92.8501 47.1001 92.9401 47.2101C92.9601 47.2301 92.9701 47.2501 93.0001 47.2701C93.0101 47.2701 93.0201 47.2901 93.0301 47.2901C93.6001 47.8901 94.3201 48.3502 95.2001 48.5502C110.79 52.0502 126.56 54.6801 142.42 56.6101C143.86 79.6601 147.67 102.58 153.86 124.83C155.19 129.62 156.63 134.37 158.18 139.09C157.95 139.09 157.72 139.09 157.48 139.09C148.63 139.09 139.78 139.09 130.93 139.09C133.24 126.77 130.69 113.58 123.6 103.05C122.17 100.92 120.58 98.8901 118.87 96.9701C112.75 90.2001 104.59 85.1402 95.6601 83.1002C87.2301 81.1702 78.1601 81.6601 70.0901 84.8401C61.1501 88.3601 53.7301 94.3801 48.3001 102.29C42.1401 111.27 39.2201 122.69 40.1501 133.53C40.3001 135.3 40.5501 137.05 40.8901 138.78C38.1501 138.59 35.5201 138.21 32.6901 137.45C31.7501 137.2 30.8301 136.91 29.9201 136.57C29.7301 136.5 29.4101 136.36 29.2801 136.3C28.9501 136.15 28.6201 136 28.3001 135.83C27.5601 135.45 26.8501 135.03 26.1601 134.57C25.8501 134.36 25.5501 134.14 25.2501 133.93C26.1401 134.56 25.1701 133.85 24.8501 133.57C24.3101 133.09 23.7901 132.59 23.3001 132.07C23.0101 131.76 22.7301 131.45 22.4601 131.13C22.3001 130.94 22.0701 130.65 21.9801 130.55C20.8501 129.04 19.8301 127.44 18.9501 125.77C16.2701 120.69 15.0901 114.82 14.3401 109.17C14.1901 108.05 14.0601 106.92 13.9301 105.79C16.0201 105.64 18.0801 105 19.9801 103.92C23.9401 101.66 26.3501 97.8201 28.0301 93.7001C29.6701 89.6801 31.0301 85.0701 31.3401 80.7301C31.6801 75.8801 29.3801 71.5601 25.3101 68.9801C20.9401 66.2001 15.6501 66.2101 10.6601 66.5601C10.4401 64.0701 10.2101 61.5902 10.0901 59.1002C9.98007 56.7202 9.89007 54.2102 11.1701 52.1202C11.5801 51.4502 11.1201 52.0401 11.6601 51.5102C11.8301 51.3502 12.0001 51.1801 12.1701 51.0301C12.2001 51.0101 12.2601 50.9801 12.3601 50.9201C12.5301 50.8201 13.1801 50.4701 13.2901 50.4002C13.4601 50.3502 14.2701 50.0802 14.5301 50.0102C14.7401 49.9501 15.6801 49.7601 15.8501 49.7101C15.9801 49.7101 16.7801 49.6101 17.0001 49.6001C18.2301 49.5101 19.4601 49.5001 20.6901 49.5201C26.3101 49.6101 31.7301 49.6801 37.3201 48.9002C43.0001 48.1101 48.5701 46.7001 53.9901 44.8501C62.3601 42.0101 116.94 54.2201 97.1601 47.1001C91.1701 46.1701 102.68 38.7701 96.6201 38.0301C103.23 37.7201 66.4701 32.3001 49.4501 35.8302C42.9701 37.1801 36.7701 39.2801 30.3101 39.6101C24.1901 39.9202 17.8901 38.7801 11.8801 40.3601C4.58006 42.2801 0.590065 48.3501 0.100065 55.6701C-0.159935 59.5701 0.430065 63.5501 0.750065 67.4301C1.10006 71.7001 1.46006 75.9601 1.81006 80.2301C2.48006 88.3601 3.07007 96.5001 3.86006 104.62C4.57007 111.97 5.54006 119.44 8.30007 126.34C12.1501 135.95 18.8601 143.68 28.9501 146.79C33.8101 148.29 38.9801 148.79 44.0801 148.94C46.0701 153.44 48.7601 157.64 52.1601 161.37C58.1201 167.93 66.1101 172.76 74.6601 175.09C83.2901 177.44 92.7801 177.29 101.21 174.2C110.62 170.76 118.62 164.31 124.17 155.98C125.63 153.79 126.86 151.49 127.9 149.12C146.4 149.12 164.9 149.13 183.4 149.12C203.3 149.12 223.2 149.09 243.1 149.02C253.29 148.98 263.48 148.93 273.67 148.86C275.66 153.39 278.37 157.6 281.78 161.36C287.74 167.92 295.73 172.75 304.28 175.08C312.91 177.43 322.4 177.28 330.83 174.19C340.24 170.75 348.24 164.3 353.79 155.97C355.3 153.7 356.58 151.31 357.64 148.83C369.24 148.83 380.84 148.83 392.44 148.83C394.39 148.83 396.37 148.93 398.32 148.83C403.15 148.59 407.3 142.97 409.46 139.09C415.56 128.14 416.16 113.86 412.06 102.14L412.03 102.11ZM371.36 82.8401C371.39 82.6501 371.44 82.4201 371.36 82.8401V82.8401ZM371.32 84.7601V84.8101C371.32 84.8101 371.32 84.7901 371.32 84.7601ZM373.44 89.5001C373.53 89.6201 373.61 89.7601 373.44 89.5001V89.5001ZM378.48 94.1401C376.91 93.0501 375.41 91.8101 373.9 90.0601C373.74 89.8701 373.57 89.6801 373.42 89.4801C373.39 89.4301 373.35 89.3701 373.29 89.2901C373.01 88.8601 372.72 88.4302 372.47 87.9902C372.34 87.7701 372.23 87.5401 372.11 87.3101C372.09 87.2701 372.01 87.0901 371.96 87.0001C371.75 86.4601 371.58 85.8902 371.45 85.3202C371.4 85.1002 371.35 84.8601 371.32 84.6401C371.32 84.5901 371.32 84.5201 371.32 84.4401C371.32 83.9501 371.32 83.4702 371.34 82.9902C371.34 82.9602 371.34 82.9202 371.36 82.8801C371.4 82.6501 371.45 82.4301 371.51 82.2001C371.57 81.9701 371.63 81.7301 371.71 81.5001C371.72 81.4501 371.83 81.1501 371.9 80.9701C371.99 80.8001 372.19 80.3501 372.17 80.3901C372.28 80.1801 372.4 79.9701 372.53 79.7601C372.66 79.5601 372.79 79.3601 372.93 79.1601C372.84 79.2901 372.51 79.6202 373 79.0702C373.32 78.7202 373.65 78.3801 374 78.0501C374.03 78.0201 374.12 77.9501 374.19 77.9001C374.39 77.7601 374.59 77.6301 374.79 77.5101C374.96 77.4101 375.15 77.3401 375.31 77.2301C375.34 77.2301 375.36 77.2202 375.4 77.2102C375.93 77.0702 376.45 76.9301 376.97 76.8001C377.02 76.7901 377.05 76.7802 377.09 76.7701C377.4 76.7402 377.7 76.7101 378.01 76.6901C378.54 76.6601 379.06 76.6702 379.59 76.6901C379.82 76.7001 380.06 76.7202 380.29 76.7402C380.33 76.7402 380.34 76.7402 380.36 76.7402C380.67 77.0002 380.99 77.2501 381.3 77.5101C388.94 83.9201 396.43 91.5402 400.72 100.71C392.72 101.01 385.2 98.8101 378.48 94.1501V94.1401ZM13.1301 98.3101C12.3701 90.2101 11.8601 82.0701 11.2501 73.9701C13.2901 73.8201 15.3701 73.6901 17.4001 73.9701C17.9401 74.0401 19.2501 74.3701 20.0601 74.6601C20.4801 74.8202 20.5201 74.8401 20.2001 74.7102C20.4201 74.8202 20.6501 74.9301 20.8601 75.0501C21.1901 75.2301 21.5001 75.4302 21.8101 75.6301C22.0401 75.7802 22.9101 76.6402 23.0401 76.8502C23.1101 76.9702 23.5101 77.7701 23.5201 77.7402C23.6001 77.9902 23.6801 78.2301 23.7401 78.4902C23.7901 78.7701 23.8201 78.9001 23.8201 78.9101C24.0701 81.0401 23.5001 82.7701 22.9201 84.9201C21.8601 88.8501 20.8201 92.9401 18.3801 95.6301C18.1001 95.9401 17.7801 96.2201 17.4801 96.5201C17.3201 96.6501 17.2301 96.7201 17.2101 96.7501C17.0701 96.8501 16.9301 96.9501 16.7901 97.0401C16.3801 97.3101 15.9501 97.5301 15.5201 97.7601C15.4401 97.8001 15.3901 97.8201 15.3401 97.8401C15.1401 97.9101 14.9401 97.9902 14.7301 98.0501C14.3501 98.1702 13.9601 98.2601 13.5701 98.3301C13.6101 98.3102 13.3701 98.3102 13.1101 98.3301L13.1301 98.3101ZM98.7901 94.5401C99.4001 94.7801 98.9401 94.6102 98.6501 94.4902C98.7001 94.5101 98.7401 94.5201 98.7901 94.5401ZM81.8401 166.37C81.2101 166.3 81.6501 166.34 81.9801 166.38C81.9301 166.38 81.8901 166.38 81.8401 166.37ZM82.1501 166.41C82.1501 166.41 82.2201 166.42 82.2301 166.43C82.2201 166.43 82.1901 166.42 82.1501 166.41ZM99.4801 164.15C99.4801 164.15 99.7501 164.06 99.9201 163.99C99.7501 164.08 99.5801 164.17 99.4801 164.15ZM121.74 132.92C121.71 133.36 121.68 133.79 121.63 134.22C121.6 134.49 121.57 134.76 121.54 135.03C121.54 135.03 121.54 135.03 121.54 135.04C121.15 137.01 120.82 138.97 120.24 140.9C120.1 141.37 119.93 141.83 119.77 142.29C119.71 142.44 119.66 142.59 119.62 142.74C119.53 143 119.45 143.27 119.35 143.54C119.3 143.68 119.2 144.1 119.07 144.44C119.08 144.36 119.04 144.37 118.92 144.63C118.78 144.93 118.65 145.23 118.51 145.53C117.64 147.38 116.63 149.17 115.49 150.88C115.21 151.3 114.92 151.71 114.63 152.12C114.5 152.3 114.36 152.48 114.23 152.66C113.78 153.28 114.19 152.75 114.35 152.53C113.83 153.44 112.89 154.29 112.19 155.05C110.77 156.59 109.23 158.02 107.6 159.34C107.55 159.38 106.86 159.9 107.08 159.74C106.99 159.8 106.92 159.85 106.91 159.86C106.53 160.14 106.14 160.41 105.75 160.67C104.84 161.29 103.9 161.86 102.95 162.4C102.06 162.9 101.16 163.36 100.23 163.79C100.17 163.82 100.08 163.87 99.9901 163.92C99.9401 163.94 99.8601 163.97 99.7401 164.02C99.2301 164.22 98.7101 164.42 98.1901 164.61C96.3501 165.27 94.4601 165.78 92.5401 166.15C92.1201 166.23 91.7101 166.29 91.2901 166.36C91.3001 166.36 91.3201 166.36 91.3301 166.36C91.3101 166.36 91.2901 166.36 91.2601 166.36C91.1601 166.38 91.0501 166.4 90.9501 166.41C90.8501 166.43 90.7901 166.43 90.7401 166.42C90.7201 166.42 90.7001 166.42 90.6901 166.42C89.6301 166.53 88.5701 166.6 87.5101 166.62C85.6901 166.66 83.8801 166.55 82.0701 166.36C81.8701 166.31 81.6201 166.3 81.4301 166.27C80.9601 166.19 80.5001 166.11 80.0301 166.02C79.0501 165.82 78.0801 165.59 77.1101 165.32C76.2501 165.08 75.3901 164.82 74.5501 164.52C74.0501 164.35 73.5601 164.17 73.0701 163.97C72.8901 163.9 72.7101 163.83 72.5401 163.76C72.5401 163.76 72.5301 163.76 72.5201 163.75C70.7901 162.95 69.1001 162.1 67.4801 161.11C66.6701 160.61 65.8701 160.09 65.1001 159.54C64.7601 159.3 64.4401 159.05 64.1101 158.81C63.9001 158.63 63.6801 158.46 63.4701 158.29C61.9601 157.03 60.5301 155.67 59.2101 154.21C59.0001 153.98 57.2401 152.16 57.3401 152.01C57.3401 152.01 58.0901 153.02 57.5301 152.26C57.4001 152.09 57.2701 151.92 57.1501 151.74C56.8301 151.3 56.5201 150.86 56.2301 150.42C55.0801 148.71 54.0601 146.9 53.1901 145.03C53.1101 144.86 52.8701 144.3 52.8201 144.19C52.6501 143.76 52.4801 143.33 52.3201 142.9C51.8901 141.71 51.5101 140.49 51.1901 139.26C50.8901 138.09 50.6401 136.91 50.4301 135.73C50.3901 135.47 50.3401 135.2 50.3001 134.94C50.2801 134.8 50.2601 134.71 50.2501 134.65C50.2501 134.71 50.2601 134.77 50.2701 134.83C50.2401 134.61 50.2001 134.38 50.2501 134.65C50.1601 134.07 50.1401 133.45 50.1001 132.88C49.9201 130.4 49.9501 127.91 50.1901 125.43C50.2201 125.16 50.2501 124.9 50.2701 124.63C50.2901 124.47 50.3001 124.37 50.3001 124.31C50.3601 123.86 50.4501 123.41 50.5301 122.97C50.7601 121.71 51.0401 120.47 51.3701 119.24C51.6901 118.08 52.0501 116.92 52.4601 115.79C52.6401 115.29 52.8401 114.79 53.0301 114.29C53.0301 114.27 53.0401 114.25 53.0501 114.23C53.0501 114.22 53.0601 114.21 53.0701 114.19C53.2401 113.83 53.4001 113.46 53.5701 113.1C54.5801 110.98 55.7701 108.94 57.1201 107.01C57.3801 106.63 57.6601 106.26 57.9301 105.89C57.9401 105.88 57.9501 105.87 57.9601 105.85C58.1101 105.66 58.2601 105.47 58.4101 105.29C59.0501 104.51 59.7101 103.76 60.4101 103.02C61.7701 101.58 63.2501 100.29 64.7701 99.0301C64.9401 98.9101 65.1001 98.7802 65.2701 98.6601C65.6601 98.3801 66.0501 98.1101 66.4501 97.8401C67.2801 97.2801 68.1401 96.7601 69.0101 96.2701C69.8301 95.8102 70.6601 95.3801 71.5101 94.9801C71.6801 94.9001 71.9001 94.8301 72.1201 94.7501C72.1601 94.7001 72.2601 94.6201 72.4501 94.5501C72.5001 94.5302 72.5601 94.5101 72.6101 94.4902C72.6101 94.4902 72.6301 94.4801 72.6401 94.4701C72.6401 94.4701 72.6301 94.4801 72.6201 94.4902C72.8001 94.4202 72.9801 94.3401 73.1701 94.2801C74.9901 93.5901 76.8701 93.0301 78.7701 92.6201C79.5901 92.4401 80.4101 92.3301 81.2301 92.1701C81.3801 92.1501 81.5201 92.1401 81.6701 92.1201C82.1801 92.0701 82.6801 92.0201 83.1901 91.9902C85.0701 91.8701 86.9601 91.8901 88.8401 92.0401C89.2001 92.0701 89.5501 92.1101 89.9001 92.1501C89.8601 92.1401 89.8401 92.1301 89.7901 92.1201C89.8601 92.1401 89.9401 92.1501 90.0101 92.1601C90.0701 92.1601 90.1401 92.1701 90.2001 92.1801C90.2601 92.1801 90.3201 92.2001 90.3701 92.2102C90.3701 92.2102 90.3901 92.2102 90.4001 92.2102C91.4201 92.3702 92.4301 92.5702 93.4201 92.8202C95.1601 93.2402 96.8401 93.8001 98.5101 94.4401C98.6801 94.5602 99.0001 94.6402 99.1601 94.7102C99.5901 94.9101 100.02 95.1102 100.45 95.3202C101.36 95.7701 102.25 96.2601 103.12 96.7801C103.91 97.2501 104.69 97.7601 105.44 98.2801C105.77 98.5101 106.56 98.9101 106.77 99.2501C106.73 99.1801 105.84 98.5101 106.55 99.0801C106.81 99.2901 107.07 99.5002 107.33 99.7102C108.91 101.03 110.38 102.47 111.76 104C112.16 104.45 112.56 104.9 112.94 105.37C113.19 105.67 113.9 106.82 113.27 105.76C113.83 106.71 114.6 107.57 115.21 108.5C116.38 110.28 117.42 112.15 118.33 114.08C118.43 114.29 118.52 114.49 118.61 114.7C118.62 114.73 118.7 114.9 118.77 115.05C118.8 115.12 118.83 115.18 118.84 115.22C118.94 115.48 119.05 115.74 119.15 116.01C119.51 116.95 119.83 117.91 120.12 118.88C120.7 120.8 121.11 122.75 121.44 124.73C121.44 124.73 121.44 124.71 121.45 124.7C121.45 124.7 121.45 124.74 121.45 124.78C121.47 124.87 121.48 124.96 121.5 125.05C121.52 125.18 121.53 125.25 121.52 125.29C121.52 125.31 121.52 125.35 121.53 125.36C121.58 125.85 121.63 126.34 121.67 126.84C121.75 127.88 121.79 128.92 121.79 129.96C121.79 130.94 121.76 131.93 121.7 132.91L121.74 132.92ZM249.32 138.95C238.5 138.99 227.68 139.03 216.85 139.05C213.61 139.05 210.36 139.05 207.12 139.05C208.19 137.78 209.25 136.52 210.32 135.25C210.97 134.47 211.42 133.65 211.42 132.6C211.42 131.68 211.01 130.58 210.32 129.95C209.61 129.29 208.67 128.81 207.67 128.85C206.73 128.89 205.65 129.2 205.02 129.95C202.49 132.96 199.95 135.97 197.42 138.98C197.4 139.01 197.38 139.03 197.36 139.06C194.38 139.06 191.39 139.06 188.41 139.06C192.07 134.94 195.74 130.82 199.4 126.7C200.7 125.23 200.95 122.82 199.4 121.4C197.98 120.09 195.49 119.83 194.1 121.4C189.03 127.1 183.96 132.81 178.89 138.51C178.73 138.68 178.6 138.87 178.47 139.07C175.62 139.07 172.76 139.07 169.91 139.07C169.91 139.07 169.92 139.06 169.93 139.05C173.1 135.72 176.27 132.4 179.43 129.07C180.78 127.65 180.95 125.16 179.43 123.77C177.96 122.42 175.57 122.25 174.13 123.77C170.96 127.1 167.79 130.42 164.62 133.75C164.54 133.83 164.49 133.92 164.42 134.01C158.3 114.69 153.91 94.6601 151.55 74.7301C150.87 68.9901 150.35 63.2201 149.98 57.4501C153.91 57.8701 157.85 58.2702 161.79 58.6002C183.94 60.5002 206.18 61.1301 228.4 61.3601C240.64 61.4902 252.88 61.4902 265.12 61.4902C257.99 81.0102 253.18 101.31 250.74 121.96C250.07 127.6 249.61 133.26 249.31 138.93L249.32 138.95ZM328.41 94.5401C329.02 94.7801 328.56 94.6102 328.27 94.4902C328.32 94.5101 328.36 94.5201 328.41 94.5401ZM311.46 166.37C310.83 166.3 311.27 166.34 311.6 166.38C311.55 166.38 311.51 166.38 311.46 166.37ZM311.77 166.41C311.77 166.41 311.84 166.42 311.85 166.43C311.84 166.43 311.81 166.42 311.77 166.41ZM329.1 164.15C329.1 164.15 329.37 164.06 329.54 163.99C329.37 164.08 329.2 164.17 329.1 164.15ZM351.36 132.92C351.33 133.36 351.3 133.79 351.25 134.22C351.22 134.49 351.19 134.76 351.16 135.03C351.16 135.03 351.16 135.03 351.16 135.04C350.77 137.01 350.44 138.97 349.86 140.9C349.59 141.79 349.3 142.67 348.97 143.54C348.92 143.68 348.82 144.1 348.69 144.44C348.7 144.36 348.66 144.37 348.54 144.63C348.4 144.93 348.27 145.23 348.13 145.53C347.26 147.38 346.25 149.17 345.11 150.88C344.83 151.3 344.54 151.71 344.25 152.12C344.12 152.3 343.98 152.48 343.85 152.66C343.4 153.28 343.81 152.75 343.97 152.53C343.45 153.44 342.51 154.29 341.81 155.05C340.39 156.59 338.85 158.02 337.22 159.34C337.17 159.38 336.47 159.9 336.7 159.74C336.61 159.8 336.54 159.85 336.53 159.86C336.15 160.14 335.76 160.41 335.37 160.67C334.46 161.29 333.52 161.86 332.57 162.4C331.68 162.9 330.78 163.36 329.85 163.79C329.79 163.82 329.7 163.87 329.61 163.92C329.56 163.94 329.48 163.97 329.36 164.02C328.85 164.22 328.33 164.42 327.81 164.61C325.97 165.27 324.08 165.78 322.16 166.15C321.74 166.23 321.33 166.29 320.91 166.36C320.92 166.36 320.94 166.36 320.95 166.36C320.93 166.36 320.91 166.36 320.88 166.36C320.78 166.38 320.67 166.4 320.57 166.41C320.47 166.43 320.41 166.43 320.36 166.42C320.34 166.42 320.32 166.42 320.31 166.42C319.25 166.53 318.19 166.6 317.13 166.62C315.31 166.66 313.5 166.55 311.69 166.36C311.49 166.31 311.24 166.3 311.05 166.27C310.58 166.19 310.12 166.11 309.65 166.02C308.67 165.82 307.7 165.59 306.73 165.32C305.87 165.08 305.01 164.82 304.17 164.52C303.67 164.35 303.18 164.17 302.69 163.97C302.51 163.9 302.33 163.83 302.16 163.76C302.16 163.76 302.15 163.76 302.14 163.75C300.41 162.95 298.72 162.1 297.1 161.11C296.29 160.61 295.49 160.09 294.72 159.54C294.38 159.3 294.06 159.05 293.73 158.81C293.52 158.63 293.3 158.46 293.09 158.29C291.58 157.03 290.15 155.67 288.83 154.21C288.62 153.98 286.86 152.16 286.96 152.01C286.96 152.01 287.71 153.02 287.15 152.26C287.02 152.09 286.89 151.92 286.77 151.74C286.45 151.3 286.14 150.86 285.85 150.42C284.7 148.71 283.68 146.9 282.81 145.03C282.73 144.86 282.49 144.3 282.44 144.19C282.27 143.76 282.1 143.33 281.94 142.9C281.51 141.71 281.13 140.49 280.81 139.26C280.51 138.09 280.26 136.91 280.05 135.73C280.01 135.47 279.96 135.2 279.92 134.94C279.9 134.8 279.88 134.71 279.87 134.65C279.87 134.71 279.87 134.77 279.89 134.83C279.86 134.61 279.82 134.38 279.87 134.65C279.78 134.07 279.76 133.45 279.72 132.88C279.54 130.4 279.57 127.91 279.81 125.43C279.84 125.16 279.87 124.9 279.89 124.63C279.91 124.47 279.92 124.38 279.92 124.31C279.98 123.86 280.07 123.4 280.15 122.97C280.38 121.71 280.66 120.47 280.99 119.24C281.31 118.08 281.67 116.92 282.08 115.79C282.26 115.29 282.46 114.79 282.65 114.29C282.65 114.27 282.66 114.25 282.67 114.23C282.67 114.22 282.68 114.21 282.69 114.19C282.86 113.83 283.02 113.46 283.19 113.1C284.2 110.98 285.39 108.94 286.74 107.01C287 106.63 287.28 106.26 287.55 105.89C287.56 105.88 287.57 105.87 287.58 105.85C287.73 105.66 287.88 105.47 288.03 105.29C288.67 104.51 289.33 103.76 290.03 103.02C291.39 101.58 292.87 100.29 294.39 99.0301C294.56 98.9101 294.72 98.7802 294.89 98.6601C295.28 98.3801 295.67 98.1101 296.07 97.8401C296.9 97.2801 297.76 96.7601 298.63 96.2701C299.45 95.8102 300.28 95.3801 301.13 94.9801C301.3 94.9001 301.52 94.8301 301.74 94.7501C301.78 94.7001 301.88 94.6201 302.07 94.5501C302.12 94.5302 302.18 94.5101 302.23 94.4902C302.23 94.4902 302.25 94.4801 302.26 94.4701C302.26 94.4701 302.25 94.4801 302.24 94.4902C302.42 94.4202 302.6 94.3401 302.79 94.2801C304.61 93.5901 306.49 93.0301 308.39 92.6201C309.21 92.4401 310.03 92.3301 310.85 92.1701C311 92.1501 311.14 92.1401 311.29 92.1201C311.8 92.0701 312.3 92.0201 312.81 91.9902C314.69 91.8701 316.58 91.8901 318.46 92.0401C318.82 92.0701 319.17 92.1101 319.52 92.1501C319.48 92.1401 319.46 92.1301 319.41 92.1201C319.48 92.1401 319.56 92.1501 319.63 92.1601C319.69 92.1601 319.76 92.1701 319.82 92.1801C319.88 92.1801 319.94 92.2001 319.99 92.2102C319.99 92.2102 320.01 92.2102 320.02 92.2102C321.04 92.3702 322.04 92.5702 323.04 92.8202C324.78 93.2402 326.46 93.8001 328.13 94.4401C328.3 94.5602 328.62 94.6402 328.78 94.7102C329.21 94.9101 329.64 95.1102 330.07 95.3202C330.98 95.7701 331.87 96.2601 332.74 96.7801C333.53 97.2501 334.31 97.7601 335.06 98.2801C335.39 98.5101 336.18 98.9101 336.39 99.2501C336.35 99.1801 335.46 98.5101 336.17 99.0801C336.43 99.2901 336.69 99.5002 336.95 99.7102C338.53 101.03 340 102.47 341.38 104C341.78 104.45 342.18 104.9 342.56 105.37C342.81 105.67 343.52 106.82 342.89 105.76C343.45 106.71 344.22 107.57 344.83 108.5C346 110.28 347.04 112.15 347.95 114.08C348.05 114.29 348.14 114.49 348.23 114.7C348.24 114.73 348.32 114.9 348.39 115.06C348.42 115.13 348.44 115.19 348.46 115.23C348.56 115.49 348.67 115.75 348.77 116.02C349.13 116.96 349.45 117.92 349.74 118.89C350.32 120.81 350.73 122.76 351.06 124.74C351.06 124.74 351.06 124.72 351.07 124.71C351.07 124.71 351.07 124.75 351.07 124.79C351.09 124.88 351.1 124.97 351.12 125.06C351.14 125.2 351.15 125.26 351.14 125.3C351.14 125.32 351.14 125.36 351.15 125.37C351.2 125.86 351.25 126.35 351.29 126.85C351.37 127.89 351.41 128.93 351.41 129.97C351.41 130.95 351.38 131.94 351.32 132.92H351.36Z" fill="#FAFAFA"/>
</svg>
