<svg width="251" height="250" viewBox="0 0 251 250" fill="none" xmlns="http://www.w3.org/2000/svg">
<g clip-path="url(#clip0_595_2538)">
<path d="M183.762 15.2412C183.762 15.2412 183.792 15.2231 183.804 15.2111C183.997 15.0784 184.184 14.813 183.762 15.2412Z" fill="#222222"/>
<path d="M160.771 151.671C160.771 151.671 160.79 151.665 160.802 151.659C160.892 151.61 161.043 151.562 161.121 151.526C161.218 151.454 160.94 151.484 160.778 151.665L160.771 151.671Z" fill="#222222"/>
<path d="M86.8867 149.162C86.9531 149.24 86.9772 149.264 86.8867 149.162V149.162Z" fill="#222222"/>
<path d="M164.299 149.095C163.955 149.475 164.124 149.3 164.299 149.095V149.095Z" fill="#222222"/>
<path d="M249.734 121.99C248.202 114.132 246.392 106.315 244.07 98.643C241.586 90.4283 238.57 82.1653 234.132 74.789C232.153 71.5019 229.837 68.3233 227.027 65.6997C223.614 62.5151 219.639 59.9578 215.375 58.0881C206.383 54.1376 196.577 52.7504 186.837 52.2678C184.811 52.1653 182.784 52.111 180.764 52.0809C180.619 52.0628 180.468 52.0447 180.305 52.0447H138.33C140.025 43.1846 141.714 34.3245 143.408 25.4584H168.521C178.888 25.4283 192.476 21.152 193.821 9.13153C194.044 7.14722 193.899 5.09655 193.899 3.10017C193.899 1.46567 192.518 0.0905204 190.884 0.084489C173.889 0.0422695 156.887 0.0121126 139.892 4.99175e-05C122.427 -0.0120128 104.967 -0.00598145 87.5016 0.018144C78.226 0.0302067 68.9505 0.0543322 59.6689 0.084489C58.0405 0.084489 56.6534 1.45964 56.6534 3.10017C56.6534 5.33781 56.5268 7.6056 56.8404 9.83117C57.2565 12.7805 58.8245 15.4705 60.869 17.6056C65.4405 22.3764 72.2313 24.5899 78.6422 25.2775C81.0666 25.5368 83.5212 25.4584 85.9517 25.4584H107.144C108.839 34.3185 110.528 43.1786 112.222 52.0447H107.343C93.629 52.0447 79.9026 51.8698 66.1883 52.105C56.8404 52.2678 46.9074 52.5151 38.1445 56.146C30.0872 59.4813 22.9948 65.4705 18.1701 72.7142C12.0607 81.8758 8.46631 92.7684 5.57146 103.311C4.2145 108.245 3.0445 113.227 2.00718 118.233C1.01811 122.992 -0.0795175 127.877 0.849245 132.732C3.28574 145.507 19.7321 143.685 29.7012 143.727C39.8211 143.776 49.947 143.812 60.0669 143.842C66.3572 143.86 72.6535 143.872 78.9437 143.884C79.004 144.952 79.1548 146.019 79.384 147.051C80.2886 151.092 82.906 154.668 86.609 156.568C90.4266 158.528 94.6181 158.758 98.8277 158.758C101.065 158.758 103.297 158.758 105.534 158.758C101.56 165.603 97.5793 172.443 93.6049 179.288C92.5254 179.361 91.4639 179.602 90.4085 179.879C87.3267 180.7 84.257 181.568 81.1933 182.455C79.2453 183.022 77.2973 183.595 75.3553 184.198C73.2204 184.861 71.0492 185.495 69.0349 186.478C67.7262 187.117 66.6346 187.98 65.742 189.011C65.6636 189.077 65.5852 189.15 65.5128 189.234C65.3259 189.439 65.163 189.68 65.0304 189.934C64.4695 190.742 63.993 191.622 63.6071 192.569C62.6783 194.831 62.3225 197.322 61.84 199.711C60.8932 204.391 60.0006 209.077 59.1442 213.77C58.9029 215.109 58.6617 216.448 58.4265 217.793C58.2215 218.969 58.0224 220.151 58.137 221.351C58.4446 224.487 60.5615 226.417 62.7929 228.372C64.572 229.934 66.3572 231.49 68.1363 233.052C70.4401 235.066 72.7379 237.081 75.0417 239.095C76.3866 240.271 77.7013 241.496 79.1005 242.612C80.6083 243.806 82.2728 244.849 84.1605 245.217C84.1725 245.217 84.1786 245.223 84.1906 245.229C84.2871 245.253 84.3836 245.265 84.4801 245.277C84.8239 245.332 85.1676 245.362 85.5235 245.368C87.6102 245.38 89.5883 244.548 91.5182 243.854C97.0606 241.858 102.591 239.807 108.019 237.509C110.292 236.544 112.53 235.609 114.418 233.981C116.257 232.401 117.005 230.157 117.704 227.913C118.404 225.651 118.989 223.347 119.55 221.05C120.105 218.77 120.629 216.478 121.112 214.186C121.414 212.762 121.715 211.339 122.017 209.916C122.246 208.842 122.475 207.762 122.704 206.689C123.018 205.211 123.422 203.703 123.452 202.189C123.512 199.198 121.757 196.996 119.52 195.247C114.116 191.007 108.61 186.918 102.917 183.082C101.849 182.364 100.764 181.592 99.6298 180.929C103.924 173.54 108.218 166.152 112.512 158.764C120.406 158.764 128.301 158.764 136.195 158.764C140.043 166.043 144.108 173.197 148.215 180.338C149.24 182.123 150.259 183.914 151.279 185.712C150.923 185.941 150.573 186.188 150.229 186.429C147.576 188.305 144.952 190.229 142.341 192.165C140.712 193.372 139.096 194.59 137.492 195.826C135.725 197.189 133.807 198.51 132.311 200.181C131.377 201.224 130.677 202.376 130.188 203.607C130.032 203.854 129.911 204.119 129.851 204.403C129.821 204.524 129.815 204.638 129.803 204.759C129.501 205.869 129.35 207.027 129.374 208.239C129.429 211.068 130.05 213.92 130.496 216.713C131.22 221.261 131.992 225.802 132.8 230.332C133.228 232.732 133.427 235.7 134.917 237.726C136.648 240.078 139.337 240.911 141.955 241.906C144.168 242.75 146.388 243.589 148.601 244.433C151.393 245.495 154.186 246.556 156.978 247.618C158.582 248.227 160.186 248.914 161.827 249.427C163.449 249.934 165.083 250.157 166.688 249.946C166.989 249.958 167.291 249.928 167.568 249.837C167.719 249.789 167.852 249.723 167.984 249.662C168.473 249.518 168.961 249.337 169.444 249.095C171.096 248.251 172.568 246.815 173.991 245.609C178.345 241.924 182.7 238.209 186.843 234.276C188.767 232.449 190.757 230.567 191.812 228.076C192.705 225.959 192.53 223.637 192.373 221.387C192.205 218.981 191.939 216.586 191.65 214.192C191.366 211.834 191.041 209.481 190.697 207.129C190.468 205.585 190.238 204.035 190.009 202.491C189.641 200.012 189.533 197.352 188.477 195.048C187.319 192.533 184.786 191.399 182.296 190.609C175.951 188.583 169.546 186.737 163.069 185.181C161.187 184.729 159.245 184.18 157.291 184.071C153.076 176.629 148.722 169.264 144.627 161.755C144.09 160.766 143.553 159.771 143.022 158.782C145.218 158.782 147.413 158.782 149.614 158.782C153.287 158.782 157.014 158.945 160.615 158.064C163.166 157.443 165.566 156.267 167.532 154.512C169.154 153.064 170.258 151.218 171.048 149.216C171.717 147.527 171.995 145.706 172.055 143.884C174.781 143.884 177.507 143.878 180.233 143.872C194.744 143.836 209.254 143.794 223.764 143.746C231.96 143.715 245.096 144.922 249.203 135.688C251.121 131.375 250.614 126.532 249.758 122.021L249.734 121.99ZM140.001 234.481C140.001 234.481 140.049 234.505 140.103 234.548C140.049 234.512 140.001 234.481 140.001 234.481ZM160.808 242.624C155.362 240.567 149.916 238.486 144.47 236.417C143.408 236.013 142.311 235.663 141.273 235.199C141.213 235.169 141.08 235.103 140.966 235.042C140.731 234.928 140.501 234.801 140.278 234.656C140.272 234.656 140.212 234.614 140.152 234.572C140.085 234.505 140.013 234.439 139.941 234.373C139.922 234.361 139.922 234.355 139.904 234.343C139.85 234.234 139.778 234.126 139.717 234.023C139.711 234.011 139.693 233.981 139.681 233.939C139.651 233.842 139.597 233.691 139.585 233.649C139.542 233.522 139.506 233.396 139.47 233.269C139.44 233.154 139.41 233.046 139.386 232.931C139.331 232.678 139.289 232.413 139.241 232.159C138.65 228.981 138.089 225.79 137.546 222.606C137.136 220.193 136.738 217.787 136.352 215.368C136.147 214.065 135.942 212.762 135.743 211.46C135.689 211.116 135.64 210.772 135.586 210.428C135.556 210.205 135.496 209.65 135.55 210.187C135.52 209.904 135.49 209.614 135.466 209.331C140.465 211.098 145.483 212.835 150.549 214.421C153.239 215.259 155.971 216.146 158.757 216.598C159.028 216.641 159.3 216.683 159.571 216.725C159.668 217.395 159.764 218.058 159.855 218.727C159.891 219.005 159.927 219.282 159.969 219.554C159.981 219.656 160.06 220.217 160.072 220.308C160.156 220.935 160.235 221.556 160.319 222.183C160.687 225 161.037 227.817 161.399 230.639C161.947 234.928 162.508 239.216 163.172 243.492C162.376 243.233 161.592 242.913 160.814 242.618L160.808 242.624ZM161.549 210.844C161.567 210.838 161.585 210.826 161.604 210.82C161.585 210.832 161.567 210.838 161.555 210.844H161.549ZM161.712 210.772C161.766 210.754 161.821 210.73 161.875 210.712C161.821 210.73 161.766 210.748 161.712 210.772ZM185.667 226.761C185.637 226.809 185.601 226.858 185.57 226.906C185.504 226.99 185.438 227.069 185.371 227.147C185.076 227.485 184.774 227.805 184.461 228.124C180.643 232.057 176.397 235.609 172.236 239.174C171.163 240.097 170.077 241.007 168.991 241.924C168.792 240.621 168.599 239.312 168.413 238.01C168.31 237.292 168.214 236.568 168.111 235.85C168.099 235.766 168.02 235.187 168.008 235.084C167.966 234.789 167.93 234.493 167.894 234.204C167.713 232.835 167.538 231.466 167.357 230.097C166.736 225.259 166.133 220.422 165.451 215.591C165.469 215.579 165.488 215.573 165.506 215.561C167.429 214.439 169.197 213.046 170.952 211.683C172.93 210.145 174.86 208.534 176.771 206.912C179.123 204.91 181.421 202.859 183.731 200.808C183.966 202.328 184.141 203.86 184.364 205.374C184.557 206.683 184.756 207.992 184.949 209.3C185.022 209.777 185.088 210.247 185.154 210.724C185.185 210.941 185.215 211.152 185.245 211.369C185.245 211.405 185.257 211.448 185.263 211.484C185.721 215.066 186.186 218.661 186.385 222.274C186.439 223.233 186.439 224.186 186.421 225.145C186.373 225.302 186.348 225.495 186.306 225.639C186.294 225.682 186.288 225.7 186.282 225.724C186.264 225.748 186.246 225.784 186.216 225.832C186.041 226.152 185.866 226.466 185.661 226.767L185.667 226.761ZM159.167 190.434C160.44 190.724 161.712 191.031 162.979 191.345C165.288 191.918 167.592 192.521 169.884 193.154C173.02 194.023 176.144 194.946 179.244 195.935C179.473 196.007 179.702 196.08 179.926 196.158C178.038 197.835 176.15 199.512 174.244 201.164C172.308 202.835 170.354 204.493 168.364 206.098C167.894 206.478 167.423 206.852 166.947 207.226C166.887 207.274 166.82 207.322 166.76 207.376C166.531 207.551 166.308 207.72 166.079 207.895C165.276 208.498 164.462 209.089 163.624 209.644C162.985 210.066 162.333 210.477 161.646 210.814C161.61 210.826 161.567 210.844 161.531 210.857C161.35 210.857 161.169 210.863 160.988 210.857C160.844 210.85 160.596 210.82 160.403 210.796C158.015 210.374 155.687 209.711 153.365 209.005C147.992 207.364 142.679 205.525 137.377 203.649C138.131 202.937 138.951 202.292 139.76 201.653C140.091 201.393 140.423 201.134 140.755 200.875C140.779 200.857 140.809 200.832 140.833 200.814C141.032 200.657 141.237 200.507 141.436 200.35C144.385 198.094 147.377 195.893 150.386 193.715C151.393 192.986 152.406 192.256 153.426 191.538C153.649 191.381 153.878 191.218 154.107 191.062C154.499 190.802 154.903 190.567 155.307 190.332C155.319 190.326 155.392 190.29 155.452 190.259C155.512 190.235 155.573 190.211 155.585 190.211C155.76 190.163 155.922 190.121 156.097 190.078C156.091 190.078 156.085 190.078 156.073 190.078C156.079 190.078 156.085 190.078 156.097 190.078C156.363 190.012 156.357 190.066 156.176 190.078C156.411 190.078 156.64 190.06 156.875 190.066C157.056 190.066 157.231 190.091 157.412 190.103C157.424 190.103 157.472 190.109 157.527 190.115C157.593 190.127 157.665 190.139 157.683 190.145C157.816 190.169 157.949 190.193 158.082 190.223C158.449 190.296 158.811 190.38 159.173 190.464L159.167 190.434ZM179.992 17.3824C180.088 17.3402 180.221 17.2799 180.239 17.2678C180.179 17.3161 180.088 17.3523 179.992 17.3824ZM66.6346 14.7347C66.6828 14.7709 66.7492 14.8191 66.8336 14.8855C66.8155 14.8855 66.719 14.807 66.6346 14.7347ZM82.5743 19.4331C81.9411 19.4331 81.3078 19.4331 80.6746 19.4029C79.9207 19.3728 79.1669 19.3125 78.413 19.222C78.3768 19.222 78.3346 19.2099 78.2984 19.2099C78.2079 19.1677 77.9727 19.1617 77.8702 19.1496C77.4239 19.0773 76.9776 18.9988 76.5374 18.9144C75.0116 18.6068 73.5098 18.1906 72.0504 17.6599C71.7729 17.5573 71.3568 17.298 71.0492 17.2739C71.0191 17.2618 70.9949 17.2497 70.9648 17.2377C70.8321 17.1774 70.7055 17.1231 70.5788 17.0628C69.8853 16.7371 69.2038 16.3873 68.5404 15.9952C67.9614 15.6575 67.3945 15.2896 66.8457 14.8915C66.7914 14.8553 66.7371 14.8131 66.6828 14.7769C66.6467 14.7467 66.6225 14.7347 66.5984 14.7166C66.5622 14.6864 66.5321 14.6563 66.52 14.6442C66.2245 14.3969 65.935 14.1436 65.6576 13.8782C65.2053 13.45 64.7952 12.9856 64.3851 12.5151C64.3247 12.4247 64.2584 12.3402 64.1981 12.2497C63.993 11.9542 63.8061 11.6526 63.6312 11.339C63.4865 11.0857 63.3658 10.8263 63.2331 10.567C63.203 10.4765 63.1668 10.3861 63.1306 10.2956C62.9135 9.67436 62.8411 9.04106 62.6723 8.4138C62.9195 9.32454 62.6964 8.44999 62.6843 8.14239C62.6723 7.73829 62.6783 7.33419 62.6783 6.93009V6.12188C70.1205 6.09776 77.5687 6.07966 85.0108 6.0676C84.0519 6.97231 83.087 7.87701 82.1281 8.78171C81.2656 9.59595 81.2475 11.1701 82.1281 11.9783C83.0568 12.8288 84.4017 12.8469 85.3244 11.9783C87.4232 10.0061 89.522 8.03383 91.6207 6.06157C93.9245 6.06157 96.2283 6.06157 98.5261 6.05554C95.9208 8.38968 93.3154 10.7238 90.704 13.058C89.8175 13.8481 89.8356 15.4584 90.704 16.2546C91.6449 17.1231 92.9596 17.099 93.9004 16.2546C97.6999 12.8529 101.499 9.44516 105.299 6.04348C106.975 6.04348 108.658 6.04348 110.335 6.04348C111.173 6.04348 112.005 6.04348 112.844 6.04348C111.921 6.96024 111.004 7.88304 110.081 8.79981C109.243 9.63817 109.183 11.1701 110.081 11.9964C110.986 12.8227 112.385 12.8891 113.278 11.9964C115.262 10.0121 117.252 8.02779 119.236 6.04348C133.759 6.04348 148.287 6.04348 162.81 6.0676C171.157 6.07966 179.509 6.09776 187.856 6.12188C187.856 6.70089 187.856 7.28594 187.856 7.86495C187.856 8.1243 187.844 8.38364 187.826 8.63696C187.826 8.69124 187.82 8.7395 187.814 8.79378C187.699 9.23407 187.651 9.69848 187.525 10.1388C187.458 10.374 187.38 10.6092 187.295 10.8444C187.271 10.9168 187.235 10.9892 187.205 11.0616C187.006 11.4717 186.801 11.8758 186.56 12.2618C186.445 12.4488 186.324 12.6358 186.198 12.8167C186.156 12.877 186.107 12.9373 186.065 13.0037C185.715 13.3836 185.396 13.7877 185.022 14.1496C184.684 14.4814 184.334 14.789 183.972 15.0905C183.888 15.1629 183.773 15.2353 183.695 15.3137C183.719 15.2896 183.737 15.2715 183.755 15.2534C183.514 15.4222 183.279 15.5851 183.038 15.7479C182.091 16.3631 181.09 16.8758 180.07 17.3463C179.992 17.3824 179.95 17.4005 179.92 17.4186C179.865 17.4367 179.811 17.4548 179.763 17.4729C179.509 17.5754 179.25 17.6659 178.991 17.7624C178.357 17.9856 177.724 18.1846 177.079 18.3656C176.373 18.5586 175.662 18.7274 174.95 18.8722C174.582 18.9446 174.214 19.0109 173.846 19.0773C173.696 19.1014 173.545 19.1255 173.394 19.1496C173.352 19.1557 173.279 19.1677 173.213 19.1858C173.237 19.1798 173.255 19.1738 173.285 19.1677C171.784 19.5175 170.053 19.4512 168.521 19.4572H152.081C143.107 19.4572 134.133 19.4572 125.165 19.4572C120.032 19.4572 114.906 19.4572 109.774 19.4572C109.647 19.4512 109.521 19.4452 109.394 19.4572H82.5804L82.5743 19.4331ZM113.266 25.4645C115.817 25.4645 118.368 25.4645 120.919 25.4645C126.371 25.4645 131.829 25.4645 137.281 25.4645C135.586 34.3245 133.898 43.1846 132.203 52.0507H118.344C116.649 43.1906 114.96 34.3306 113.266 25.4645ZM64.1318 220.989C64.0775 220.796 64.1197 220.814 64.1318 220.989V220.989ZM64.186 221.2C64.186 221.2 64.2041 221.23 64.2162 221.279C64.1921 221.236 64.18 221.206 64.186 221.2ZM67.7986 224.753C66.8879 223.957 65.9471 223.185 65.0846 222.34C64.8856 222.147 64.6987 221.942 64.5117 221.737C64.4876 221.713 64.4755 221.701 64.4574 221.683C64.4454 221.659 64.4393 221.641 64.4152 221.598C64.3971 221.562 64.2886 221.399 64.2283 221.297C64.2041 221.218 64.18 221.134 64.1499 221.056C64.1438 221.031 64.1378 221.013 64.1318 220.995C64.1318 220.718 64.1197 220.44 64.1318 220.163C64.1318 220.072 64.18 219.898 64.1619 219.795C64.1981 219.578 64.2343 219.367 64.2765 219.15C64.8615 215.796 65.4767 212.455 66.1159 209.107C66.5863 206.647 67.0628 204.186 67.5634 201.731C67.9373 199.891 68.2328 197.998 68.7394 196.176C72.6896 199.469 76.6701 202.744 80.7349 205.893C83.1473 207.762 85.5717 209.717 88.2313 211.236C88.3942 211.333 88.5691 211.411 88.7379 211.496C86.808 220.29 84.5887 229.023 82.7975 237.847C82.2487 237.376 81.7059 236.906 81.1571 236.429C76.7002 232.539 72.2494 228.637 67.7986 224.741V224.753ZM114.574 215.881C113.748 219.505 112.892 223.142 111.764 226.689C111.607 227.183 111.444 227.678 111.257 228.167C111.245 228.197 111.221 228.269 111.191 228.347C111.179 228.372 111.058 228.649 111.016 228.727C110.956 228.836 110.89 228.939 110.823 229.047C110.757 229.113 110.691 229.192 110.624 229.258C110.437 229.451 110.232 229.626 110.027 229.795C109.967 229.837 109.876 229.904 109.81 229.952C109.135 230.404 108.387 230.754 107.651 231.098C107.144 231.333 106.632 231.562 106.125 231.785C105.902 231.882 105.679 231.978 105.45 232.075C105.462 232.075 105.48 232.063 105.492 232.057C105.432 232.075 105.377 232.105 105.323 232.129C105.317 232.129 105.311 232.135 105.299 232.141C105.19 232.189 105.13 232.214 105.106 232.22C105.052 232.244 104.997 232.262 104.943 232.286C103.622 232.835 102.295 233.366 100.963 233.884C98.297 234.928 95.6132 235.929 92.9234 236.918C91.5604 237.419 90.1914 237.913 88.8224 238.402C90.6196 229.723 92.8028 221.128 94.6844 212.473C94.7568 212.461 94.8292 212.449 94.9016 212.437C99.3222 211.689 103.646 209.988 107.844 208.462C110.877 207.358 113.887 206.176 116.902 205.012C116.589 206.478 116.269 207.943 115.956 209.415C115.497 211.568 115.057 213.727 114.568 215.875L114.574 215.881ZM106.644 192.998C108.236 194.15 109.822 195.314 111.39 196.496C111.981 196.942 112.566 197.388 113.157 197.841C113.121 197.811 113.085 197.787 113.049 197.756C113.097 197.799 113.151 197.835 113.199 197.877C113.392 198.028 113.41 198.04 113.35 197.992C113.368 198.01 113.392 198.022 113.41 198.04C113.622 198.209 113.839 198.372 114.05 198.54C114.375 198.794 114.695 199.053 115.021 199.306C112.813 200.163 110.606 201.031 108.381 201.858C103.948 203.51 99.4609 205.211 94.8533 206.303C94.4432 206.399 94.0271 206.49 93.6109 206.568C93.4843 206.592 93.3637 206.61 93.237 206.635C93.0501 206.647 92.8631 206.653 92.6761 206.659C92.7364 206.683 92.8028 206.707 92.8752 206.743C92.8028 206.707 92.7003 206.707 92.6158 206.677C92.6038 206.677 92.5857 206.665 92.5736 206.659C92.5495 206.659 92.5314 206.659 92.5073 206.659C92.5374 206.671 92.5616 206.689 92.5977 206.701C92.5676 206.689 92.5374 206.671 92.5073 206.659C92.4831 206.659 92.459 206.659 92.4349 206.659C92.1756 206.659 92.1092 206.544 92.2781 206.55C92.0972 206.466 91.9162 206.381 91.7353 206.285C89.5159 205.109 87.4835 203.528 85.4933 202.008C85.2943 201.858 85.0892 201.701 84.8902 201.544C84.8118 201.484 84.7274 201.417 84.649 201.357C84.1062 200.935 83.5574 200.507 83.0206 200.078C81.8446 199.144 80.6746 198.203 79.5046 197.256C77.1525 195.35 74.8186 193.414 72.4906 191.478C72.6052 191.442 72.7138 191.393 72.8284 191.351C73.0575 191.267 73.2927 191.182 73.5279 191.104C74.0104 190.935 74.4989 190.778 74.9874 190.621C75.874 190.338 76.7605 190.06 77.6471 189.783C81.2053 188.691 84.7817 187.666 88.364 186.671C89.5642 186.339 90.7643 186.007 91.9645 185.688C92.2479 185.609 92.5374 185.537 92.8209 185.464C93.1345 185.386 93.4541 185.32 93.7738 185.265C93.6954 185.29 94.2261 185.241 94.3829 185.241C94.4311 185.241 94.5095 185.241 94.5879 185.241C94.6181 185.253 94.6543 185.265 94.7086 185.284C94.9739 185.362 95.2333 185.446 95.4986 185.531C95.583 185.573 95.6675 185.615 95.7519 185.657C96.2826 185.929 96.7892 186.243 97.2898 186.568C98.3935 187.286 99.4911 188.022 100.583 188.758C102.621 190.139 104.642 191.556 106.638 192.998H106.644ZM165.994 144.162C165.976 144.415 165.952 144.662 165.928 144.916C165.904 145.072 165.873 145.229 165.843 145.386C165.705 146.092 165.512 146.785 165.252 147.455C165.192 147.581 165.138 147.708 165.071 147.829C164.878 148.203 164.667 148.571 164.432 148.92C164.396 148.975 164.348 149.035 164.299 149.095C164.348 149.041 164.402 148.987 164.474 148.908C164.342 149.053 164.227 149.21 164.1 149.355C163.805 149.686 163.485 150.006 163.154 150.296C163.099 150.344 163.039 150.392 162.985 150.434C162.828 150.543 162.677 150.651 162.514 150.76C162.08 151.037 161.622 151.291 161.157 151.514C161.151 151.514 161.133 151.52 161.127 151.526C161.103 151.544 161.061 151.568 160.97 151.598C160.916 151.616 160.862 151.635 160.808 151.659C160.783 151.671 160.759 151.689 160.747 151.701C160.753 151.689 160.765 151.677 160.777 151.671C160.566 151.749 160.355 151.828 160.138 151.894C159.535 152.087 158.92 152.244 158.293 152.37C157.985 152.431 157.677 152.479 157.37 152.533C157.364 152.533 157.358 152.533 157.346 152.533C157.195 152.551 157.044 152.569 156.887 152.581C156.055 152.666 155.223 152.702 154.385 152.708C153.335 152.714 152.28 152.708 151.23 152.708C147.69 152.708 144.156 152.708 140.616 152.708C131.093 152.708 121.57 152.708 112.041 152.708C108.351 152.708 104.66 152.708 100.975 152.708H97.6577C97.2295 152.708 96.7953 152.708 96.3671 152.708C95.6494 152.696 94.9377 152.66 94.2261 152.594C94.1236 152.581 93.7677 152.491 93.6532 152.527C93.2913 152.467 92.9294 152.401 92.5736 152.322C92.0188 152.201 91.4639 152.051 90.9211 151.876C90.6799 151.797 90.4387 151.707 90.1974 151.616C90.0768 151.562 89.9622 151.508 89.8476 151.454C89.4013 151.236 88.9731 150.989 88.557 150.718C88.4123 150.621 88.2736 150.519 88.1288 150.416C88.0564 150.356 87.9841 150.296 87.9177 150.235C87.58 149.94 87.2604 149.62 86.9649 149.282C86.8382 149.138 86.7176 148.975 86.5849 148.824C86.7417 148.999 86.8322 149.095 86.8865 149.156C86.802 149.059 86.6573 148.89 86.5849 148.782C86.3557 148.444 86.1507 148.088 85.9637 147.726C85.8853 147.575 85.819 147.425 85.7466 147.274C85.4812 146.586 85.2822 145.881 85.1375 145.163C85.1073 145.012 85.0772 144.855 85.053 144.705C85.053 144.68 85.041 144.65 85.041 144.608C85.035 144.548 85.0289 144.481 85.0229 144.451C85.0048 144.288 84.9927 144.119 84.9807 143.957C84.9807 143.939 84.9807 143.914 84.9807 143.896C93.2973 143.908 101.614 143.914 109.931 143.92C112.922 143.92 115.913 143.92 118.899 143.92C118.404 144.463 117.916 145.006 117.421 145.543C117.017 145.983 116.758 146.532 116.758 147.141C116.758 147.696 117.005 148.36 117.421 148.739C117.849 149.138 118.416 149.427 119.019 149.403C119.604 149.379 120.213 149.186 120.617 148.739C122.053 147.165 123.482 145.585 124.917 144.011C124.948 143.981 124.966 143.945 124.99 143.914C126.54 143.914 128.09 143.914 129.64 143.914C128.862 144.885 128.084 145.863 127.306 146.834C126.92 147.322 126.642 147.787 126.642 148.432C126.642 148.987 126.89 149.65 127.306 150.03C127.734 150.428 128.301 150.718 128.904 150.694C129.465 150.67 130.134 150.489 130.502 150.03C132.136 147.992 133.765 145.953 135.399 143.908C145.604 143.902 155.802 143.884 166.006 143.866C166.006 143.963 166.006 144.065 165.994 144.162ZM243.835 132.901C243.89 132.762 243.914 132.678 243.835 132.901V132.901ZM244.444 130.072C244.426 130.314 244.396 130.555 244.384 130.796C244.384 130.814 244.384 130.826 244.384 130.844C244.384 130.863 244.372 130.881 244.366 130.911C244.263 131.333 244.197 131.761 244.077 132.183C244.004 132.431 243.92 132.672 243.829 132.919C243.799 133.004 243.757 133.1 243.727 133.154C243.6 133.378 243.485 133.607 243.353 133.824C243.317 133.878 243.28 133.932 243.244 133.987C243.214 134.041 243.148 134.144 243.087 134.222C243.069 134.246 243.051 134.27 243.039 134.3C243.057 134.276 243.063 134.264 243.075 134.24C243.063 134.252 243.051 134.27 243.045 134.282C242.828 134.512 242.623 134.741 242.388 134.958C242.346 135 242.297 135.036 242.255 135.072C242.249 135.072 242.243 135.084 242.231 135.097C242.141 135.175 242.05 135.253 241.96 135.332C242.056 135.247 242.122 135.193 242.171 135.151C242.098 135.211 242.002 135.284 241.948 135.32C241.544 135.567 241.152 135.814 240.729 136.025C240.585 136.098 240.44 136.164 240.295 136.23C240.289 136.23 240.283 136.23 240.277 136.23C239.843 136.363 239.421 136.532 238.986 136.659C238.021 136.942 237.038 137.123 236.043 137.292C235.983 137.304 235.935 137.31 235.899 137.316C235.862 137.316 235.814 137.322 235.76 137.328C235.476 137.358 235.193 137.395 234.91 137.419C234.312 137.479 233.715 137.521 233.124 137.557C231.767 137.636 230.41 137.66 229.053 137.66C225.236 137.678 221.418 137.69 217.595 137.702C210.454 137.726 203.307 137.75 196.167 137.768C171.699 137.835 147.238 137.877 122.77 137.883C105.058 137.883 87.3448 137.871 69.632 137.835C58.2516 137.811 46.8712 137.774 35.4849 137.72C32.0352 137.708 28.5855 137.69 25.1418 137.672C23.9417 137.672 22.7475 137.666 21.5474 137.654C20.4317 137.648 19.3159 137.624 18.2063 137.569C17.6032 137.539 17.0001 137.497 16.397 137.443C16.1075 137.419 15.824 137.388 15.5406 137.358C15.4441 137.346 15.227 137.316 15.1124 137.304C14.1535 137.153 13.2006 136.978 12.2658 136.719C11.8195 136.598 11.3913 136.448 10.951 136.303C10.8123 136.255 10.6797 136.194 10.5409 136.146C11.331 136.436 10.4505 136.098 10.2937 136.019C9.93182 135.838 9.576 135.639 9.23826 135.422C9.18399 135.386 9.12971 135.35 9.07543 135.308C9.05131 135.29 9.00306 135.259 8.94878 135.223C8.88244 135.175 8.82213 135.133 8.75579 135.091C8.8161 135.133 8.85229 135.157 8.8945 135.187C8.84625 135.151 8.79801 135.115 8.76785 135.084C8.53868 134.867 8.3095 134.656 8.09239 134.421C8.03811 134.361 7.98986 134.3 7.94162 134.24C8.09842 134.421 7.74259 133.969 7.65816 133.83C7.45311 133.498 7.29028 133.154 7.11538 132.805C7.50739 133.589 7.06713 132.624 6.99476 132.388C6.86811 131.978 6.78368 131.556 6.68718 131.14C6.67512 131.074 6.651 130.905 6.6329 130.79C6.60878 130.555 6.58466 130.326 6.56656 130.091C6.42182 127.793 6.67512 125.826 7.02491 123.951C7.44105 121.713 7.91146 119.481 8.39393 117.262C10.6193 107.021 13.484 96.2546 17.5067 86.912C19.5029 82.2739 21.8429 77.7021 24.8946 73.6611C24.9126 73.643 25.4313 72.9856 25.5399 72.8529C25.8957 72.4247 26.2636 72.0025 26.6435 71.5923C27.3793 70.7902 28.1693 70.0423 28.9715 69.3064C29.7434 68.6008 30.5274 67.9132 31.3295 67.2437C31.6492 66.9783 31.9749 66.719 32.3005 66.4596C32.3307 66.4355 32.3548 66.4114 32.3789 66.3933C32.4031 66.3752 32.4332 66.3571 32.4634 66.333C32.7227 66.146 32.982 65.947 33.2414 65.76C34.7491 64.6744 36.3352 63.6912 37.9877 62.8348C38.6632 62.485 39.3507 62.1653 40.0442 61.8637C40.1166 61.8396 40.8765 61.532 41.0333 61.4717C41.5459 61.2787 42.0586 61.1038 42.5772 60.9349C44.3744 60.3499 46.2139 59.9035 48.0714 59.5477C48.5901 59.4512 49.1087 59.3607 49.6334 59.2763C49.8988 59.2341 50.1702 59.1918 50.4355 59.1496C50.4777 59.1436 50.7612 59.1014 50.9059 59.0833C52.0036 58.9385 53.1012 58.8239 54.2049 58.7214C59.9463 58.2027 65.7239 58.1303 71.4835 58.1062C78.5879 58.076 85.6984 58.1062 92.8028 58.1062H167.737C171.494 58.1062 175.264 58.1665 179.021 58.1183C189.352 58.1906 199.689 58.7878 209.489 62.2196C213.343 63.5706 217.353 65.5911 220.562 68.0941C222.064 69.2703 223.469 70.5791 224.741 72.0085C225.055 72.3583 225.357 72.7142 225.652 73.0821C225.73 73.1786 226.08 73.6309 226.141 73.6973C226.713 74.4572 227.262 75.2413 227.787 76.0374C232.298 82.8951 235.066 90.175 237.539 97.9434C240.217 106.357 242.243 114.97 243.932 123.631C244.324 125.7 244.607 127.666 244.456 130.109L244.444 130.072Z" fill="#222222"/>
<path d="M242.16 135.133C242.16 135.133 242.208 135.097 242.226 135.078C242.233 135.072 242.245 135.06 242.251 135.054C242.275 135.036 242.251 135.054 242.16 135.133Z" fill="#222222"/>
<path d="M243.076 134.228C243.076 134.228 243.088 134.216 243.088 134.21C243.143 134.131 243.191 134.053 243.245 133.975C243.287 133.902 243.257 133.932 243.076 134.228Z" fill="#222222"/>
<path d="M8.87695 135.175C8.87695 135.175 8.91314 135.199 8.93123 135.211C8.97345 135.241 9.01566 135.271 9.05788 135.296C9.1001 135.326 9.06391 135.296 8.87695 135.169V135.175Z" fill="#222222"/>
<path d="M230.761 106.858C229.893 103.733 228.946 100.633 227.878 97.5694C225.502 90.7358 222.673 83.5223 217.909 77.9433C213.971 73.3353 208.392 69.9819 202.494 68.6671C197.742 67.6116 192.802 67.3764 187.953 67.2376C184.13 67.1291 180.3 67.117 176.471 67.117H80.024C76.4296 67.117 72.8351 67.1049 69.2407 67.1351C63.4148 67.1894 57.5708 67.3281 51.7993 68.1966C47.8731 68.7877 44.0133 69.9095 40.5576 71.8999C35.6484 74.7226 31.9635 78.7033 29.2014 83.5887C26.994 87.4849 25.2632 91.6526 23.7313 95.8504C22.6699 98.7515 21.7291 101.689 20.8666 104.656C20.3359 106.466 19.8414 108.281 19.371 110.109C18.8704 112.045 18.2914 113.999 18.0743 115.989C17.3506 122.756 23.0076 128.516 29.6235 128.661C36.2998 128.697 42.976 128.721 49.6522 128.739C58.6866 128.764 67.7269 128.776 76.7613 128.788C87.1827 128.8 97.5981 128.806 108.02 128.812C118.978 128.812 129.93 128.812 140.888 128.812C151.364 128.812 161.84 128.8 172.315 128.782C181.47 128.77 190.625 128.752 199.774 128.733C206.625 128.715 213.476 128.697 220.327 128.661C223.132 128.649 225.816 128.166 228.119 126.454C230.936 124.361 232.631 121.321 232.95 117.823C233.119 115.971 232.649 114.162 232.214 112.382C231.756 110.531 231.28 108.691 230.767 106.852L230.761 106.858ZM53.8498 73.9566C53.5543 74.0048 53.6507 73.9867 53.8498 73.9566V73.9566ZM40.9496 78.8721C40.6963 79.0772 40.7566 79.0229 40.9496 78.8721V78.8721ZM226.527 119.168C226.714 118.625 226.34 119.548 226.262 119.68C226.111 119.946 225.948 120.205 225.773 120.458C225.671 120.579 225.568 120.7 225.46 120.814C225.249 121.037 225.02 121.242 224.79 121.441C224.724 121.484 224.38 121.731 224.284 121.791C224.055 121.93 223.813 122.051 223.572 122.171C223.554 122.159 222.957 122.394 222.848 122.425C222.71 122.461 222.046 122.581 222.082 122.593C220.653 122.732 219.17 122.642 217.734 122.648C214.49 122.66 211.245 122.672 208.006 122.684C199.798 122.708 191.59 122.726 183.382 122.738C173.449 122.756 163.51 122.768 153.577 122.774C142.957 122.78 132.33 122.786 121.71 122.786C111.144 122.786 100.577 122.786 90.0172 122.774C80.4341 122.768 70.8449 122.756 61.2618 122.738C53.5362 122.726 45.8045 122.708 38.0789 122.678C35.2625 122.666 32.44 122.654 29.6235 122.636C29.4245 122.636 29.2315 122.624 29.0325 122.612C29.0204 122.612 28.9601 122.606 28.8938 122.593C28.7852 122.569 28.5983 122.533 28.55 122.527C28.4113 122.497 28.2726 122.461 28.1399 122.425C28.0374 122.394 27.4584 122.171 27.4162 122.171C27.1328 122.033 26.8553 121.888 26.596 121.725C26.4814 121.653 26.3668 121.574 26.2583 121.496C26.2522 121.496 26.2462 121.49 26.2402 121.484C26.2342 121.478 26.2342 121.478 26.2221 121.466C25.9869 121.255 25.7517 121.043 25.5346 120.814C25.426 120.7 25.3235 120.579 25.221 120.458C24.9918 120.133 24.7867 119.795 24.6058 119.445C24.5455 119.324 24.4188 118.993 24.4128 118.999C24.3163 118.709 24.2259 118.42 24.1595 118.124C24.1294 117.992 24.1052 117.859 24.0811 117.726C24.0811 117.714 24.0811 117.708 24.0811 117.696C24.063 117.316 24.0449 116.942 24.063 116.568C24.063 116.526 24.0811 116.333 24.0932 116.218C24.1052 116.152 24.1173 116.08 24.1173 116.074C24.2259 115.645 24.3163 115.217 24.4188 114.789C24.6661 113.764 24.9254 112.738 25.1908 111.719C26.7287 105.784 28.5138 99.8914 30.8056 94.1978C30.9081 93.9385 31.0167 93.6791 31.1252 93.4198C31.1554 93.3414 31.1916 93.2569 31.2278 93.1785C31.469 92.6417 31.6921 92.1049 31.9394 91.5682C32.3375 90.6936 32.7476 89.8311 33.1757 88.9747C33.8874 87.5633 34.6533 86.1761 35.4916 84.8432C35.8052 84.3486 36.1309 83.854 36.4686 83.3776C36.6194 83.1604 36.7762 82.9554 36.933 82.7382C36.933 82.7382 36.933 82.7322 36.939 82.7262C37.3612 82.2135 37.7894 81.7069 38.2659 81.2425C38.8388 80.6755 39.4479 80.1387 40.0631 79.614C40.3646 79.3607 40.6662 79.1134 40.9737 78.8661C41.0039 78.842 41.0401 78.8179 41.0763 78.7877C41.2632 78.649 41.4562 78.5103 41.6432 78.3776C42.0111 78.1182 45.8769 75.6031 46.0699 75.8926C46.0699 75.8926 46.0156 75.9228 45.9432 75.953C46.0156 75.9228 46.088 75.8926 46.1603 75.8685C46.3533 75.7961 46.5463 75.7177 46.7453 75.6514C47.1735 75.4946 47.6017 75.3559 48.036 75.2232C48.9527 74.9397 49.8874 74.7045 50.8283 74.5054C51.8415 74.2883 52.8607 74.1315 53.8799 73.9747C53.9342 73.9686 53.9885 73.9626 54.0488 73.9505C54.3564 73.9144 54.67 73.8782 54.9776 73.842C55.5867 73.7756 56.1958 73.7153 56.8049 73.6671C63.2761 73.1182 69.7835 73.1725 76.2728 73.1725H173.274C178.461 73.1725 183.653 73.1484 188.84 73.3233C191.349 73.4077 193.864 73.5344 196.361 73.7937C196.855 73.842 197.344 73.9144 197.832 73.9626C197.886 73.9686 197.935 73.9747 197.989 73.9867C198.254 74.0289 198.514 74.0651 198.779 74.1074C199.696 74.2581 200.606 74.433 201.505 74.6502C202.319 74.8492 203.127 75.0784 203.923 75.3498C204.273 75.4704 204.617 75.6031 204.967 75.7358C204.979 75.7358 204.985 75.7358 204.991 75.7479C205.166 75.8263 205.347 75.9047 205.522 75.9891C206.879 76.6285 208.163 77.4186 209.369 78.3052C209.424 78.3474 209.502 78.3896 209.574 78.4379C209.604 78.4741 209.665 78.5283 209.761 78.6068C210.081 78.8661 210.395 79.1255 210.708 79.3908C211.372 79.9578 212.017 80.5428 212.644 81.152C213.096 81.5863 213.513 82.0507 213.911 82.5392C213.935 82.5694 213.983 82.6297 214.037 82.696C214.14 82.8347 214.303 83.0458 214.357 83.1303C214.689 83.5887 215.002 84.0531 215.31 84.5296C216.136 85.8142 216.89 87.1472 217.589 88.5042C218.018 89.3305 218.422 90.1689 218.814 91.0072C219.037 91.4897 219.26 91.9783 219.471 92.4668C219.562 92.6719 219.646 92.877 219.736 93.082C219.748 93.1062 219.755 93.1182 219.761 93.1423C219.815 93.275 219.875 93.4077 219.929 93.5404C220.943 95.9952 221.853 98.4922 222.686 101.019C223.735 104.186 224.67 107.394 225.526 110.621C226.015 112.479 226.545 114.343 226.913 116.224C226.913 116.23 226.913 116.236 226.913 116.242C226.925 116.399 226.937 116.556 226.943 116.719C226.955 117.051 226.943 117.376 226.919 117.708C226.919 117.726 226.919 117.726 226.919 117.738C226.895 117.871 226.871 118.004 226.841 118.136C226.756 118.492 226.648 118.842 226.527 119.186V119.168Z" fill="#222222"/>
<path d="M45.9375 75.9409C45.9013 75.953 45.8651 75.9711 45.8289 75.9831C45.5334 76.0977 45.7746 76.0073 45.9375 75.9409Z" fill="#222222"/>
<path d="M105.106 232.226C105.179 232.195 105.251 232.165 105.323 232.135C105.366 232.117 105.408 232.099 105.45 232.081C105.257 232.153 105.046 232.25 105.106 232.226Z" fill="#222222"/>
<path d="M113.201 197.877C113.201 197.877 113.17 197.853 113.152 197.841C113.231 197.901 113.309 197.961 113.351 197.992C113.303 197.955 113.249 197.913 113.201 197.877Z" fill="#222222"/>
<path d="M92.2841 206.562C92.2841 206.562 92.3143 206.562 92.3324 206.568C92.0067 206.429 91.7052 206.279 92.2841 206.562Z" fill="#222222"/>
<path d="M92.5734 206.665C92.6036 206.665 92.6398 206.665 92.6699 206.665C92.5192 206.604 92.4106 206.58 92.3262 206.568C92.4106 206.604 92.495 206.64 92.5674 206.665H92.5734Z" fill="#222222"/>
<path d="M92.2795 206.556C92.3579 206.592 92.4302 206.629 92.5086 206.665C92.4242 206.622 92.3518 206.586 92.2855 206.556C92.2855 206.556 92.2795 206.556 92.2734 206.556H92.2795Z" fill="#222222"/>
<path d="M176.616 218.372C175.036 218.372 173.528 219.759 173.6 221.387C173.673 223.022 174.927 224.403 176.616 224.403C178.196 224.403 179.703 223.016 179.631 221.387C179.559 219.753 178.304 218.372 176.616 218.372Z" fill="#222222"/>
<path d="M144.815 227.461C143.235 227.461 141.727 228.848 141.799 230.476C141.872 232.111 143.126 233.492 144.815 233.492C146.395 233.492 147.903 232.105 147.83 230.476C147.758 228.842 146.504 227.461 144.815 227.461Z" fill="#222222"/>
<path d="M152.727 218.884C151.147 218.884 149.639 220.271 149.711 221.9C149.784 223.534 151.038 224.916 152.727 224.916C154.307 224.916 155.815 223.528 155.742 221.9C155.67 220.265 154.416 218.884 152.727 218.884Z" fill="#222222"/>
<path d="M148.993 198.661C147.412 198.661 145.905 200.048 145.977 201.677C146.049 203.311 147.304 204.692 148.993 204.692C150.573 204.692 152.08 203.305 152.008 201.677C151.936 200.042 150.681 198.661 148.993 198.661Z" fill="#222222"/>
<path d="M154.108 195.084C154.18 196.719 155.435 198.1 157.123 198.1C158.704 198.1 160.211 196.713 160.139 195.084C160.067 193.45 158.812 192.069 157.123 192.069C155.543 192.069 154.036 193.456 154.108 195.084Z" fill="#222222"/>
<path d="M167.895 199.855C169.475 199.855 170.983 198.468 170.91 196.84C170.838 195.205 169.584 193.824 167.895 193.824C166.315 193.824 164.807 195.211 164.879 196.84C164.952 198.474 166.206 199.855 167.895 199.855Z" fill="#222222"/>
<path d="M157.184 204.318C157.257 205.953 158.511 207.334 160.2 207.334C161.78 207.334 163.287 205.947 163.215 204.318C163.143 202.684 161.888 201.303 160.2 201.303C158.62 201.303 157.112 202.69 157.184 204.318Z" fill="#222222"/>
<path d="M72.057 210.85C73.6371 210.85 75.1449 209.463 75.0725 207.835C75.0001 206.2 73.7457 204.819 72.057 204.819C70.4769 204.819 68.9692 206.206 69.0416 207.835C69.1139 209.469 70.3684 210.85 72.057 210.85Z" fill="#222222"/>
<path d="M81.2895 217.002C82.8696 217.002 84.3773 215.615 84.3049 213.987C84.2325 212.352 82.9781 210.971 81.2895 210.971C79.7093 210.971 78.2016 212.358 78.274 213.987C78.3464 215.621 79.6008 217.002 81.2895 217.002Z" fill="#222222"/>
<path d="M79.5297 224.819C77.9496 224.819 76.4419 226.206 76.5142 227.835C76.5866 229.469 77.841 230.85 79.5297 230.85C81.1098 230.85 82.6175 229.463 82.5451 227.835C82.4728 226.2 81.2183 224.819 79.5297 224.819Z" fill="#222222"/>
<path d="M69.1977 218.227C67.6176 218.227 66.1098 219.614 66.1822 221.242C66.2546 222.877 67.509 224.258 69.1977 224.258C70.7778 224.258 72.2855 222.871 72.2131 221.242C72.1407 219.608 70.8863 218.227 69.1977 218.227Z" fill="#222222"/>
<path d="M77.9319 217.726C77.8595 216.092 76.6051 214.71 74.9164 214.71C73.3363 214.71 71.8286 216.098 71.9009 217.726C71.9733 219.361 73.2277 220.742 74.9164 220.742C76.4965 220.742 78.0042 219.355 77.9319 217.726Z" fill="#222222"/>
<path d="M100.192 213.172C98.6117 213.172 97.104 214.56 97.1763 216.188C97.2487 217.823 98.5031 219.204 100.192 219.204C101.772 219.204 103.28 217.817 103.207 216.188C103.135 214.554 101.88 213.172 100.192 213.172Z" fill="#222222"/>
<path d="M98.3285 220.368C96.7484 220.368 95.2407 221.755 95.3131 223.384C95.3854 225.018 96.6399 226.399 98.3285 226.399C99.9086 226.399 101.416 225.012 101.344 223.384C101.272 221.749 100.017 220.368 98.3285 220.368Z" fill="#222222"/>
<path d="M95.7406 227.847C94.1605 227.847 92.6528 229.234 92.7252 230.862C92.7975 232.497 94.052 233.878 95.7406 233.878C97.3207 233.878 98.8285 232.491 98.7561 230.862C98.6837 229.228 97.4293 227.847 95.7406 227.847Z" fill="#222222"/>
<path d="M106.62 223.83C105.039 223.83 103.532 225.217 103.604 226.846C103.676 228.48 104.931 229.861 106.62 229.861C108.2 229.861 109.707 228.474 109.635 226.846C109.563 225.211 108.308 223.83 106.62 223.83Z" fill="#222222"/>
<path d="M108.598 216.357C107.018 216.357 105.51 217.744 105.583 219.373C105.655 221.007 106.909 222.388 108.598 222.388C110.178 222.388 111.686 221.001 111.614 219.373C111.541 217.738 110.287 216.357 108.598 216.357Z" fill="#222222"/>
<path d="M110.467 209.047C108.887 209.047 107.379 210.434 107.452 212.063C107.524 213.697 108.779 215.078 110.467 215.078C112.047 215.078 113.555 213.691 113.483 212.063C113.41 210.428 112.156 209.047 110.467 209.047Z" fill="#222222"/>
<path d="M84.807 190.308C83.2269 190.308 81.7192 191.695 81.7916 193.323C81.8639 194.958 83.1184 196.339 84.807 196.339C86.3871 196.339 87.8949 194.952 87.8225 193.323C87.7501 191.689 86.4957 190.308 84.807 190.308Z" fill="#222222"/>
<path d="M100.082 199.53C101.663 199.53 103.17 198.142 103.098 196.514C103.026 194.879 101.771 193.498 100.082 193.498C98.5023 193.498 96.9946 194.885 97.067 196.514C97.1393 198.148 98.3938 199.53 100.082 199.53Z" fill="#222222"/>
<path d="M120.328 82.871C120.032 81.7974 118.687 80.8324 117.548 81.2908C106.222 85.8746 94.9015 90.4524 83.5754 95.0362C82.4416 95.4946 81.6455 96.5441 81.9953 97.8167C82.2908 98.8903 83.6357 99.8553 84.7756 99.3969C96.1017 94.8131 107.422 90.2353 118.748 85.6514C119.882 85.193 120.678 84.1436 120.328 82.871Z" fill="#222222"/>
<path d="M152.497 89.1074C153.619 88.6188 153.872 86.9783 153.311 86.0133C152.636 84.8613 151.339 84.7105 150.217 85.199C135.405 91.6888 120.593 98.1785 105.775 104.668C101.542 106.52 97.308 108.378 93.0803 110.229C91.9585 110.718 91.7052 112.358 92.2661 113.323C92.9416 114.475 94.2382 114.626 95.36 114.138C110.172 107.648 124.984 101.158 139.802 94.6683C144.036 92.8167 148.269 90.959 152.497 89.1074Z" fill="#222222"/>
<path d="M168.648 93.6731C157.768 98.7093 146.883 103.745 136.003 108.782C134.893 109.294 134.616 110.893 135.189 111.876C135.852 113.016 137.173 113.203 138.283 112.69C149.162 107.654 160.048 102.618 170.928 97.5814C172.038 97.0687 172.315 95.4704 171.742 94.4873C171.079 93.3474 169.758 93.1604 168.648 93.6731Z" fill="#222222"/>
<path d="M130.695 35.0422C130.683 34.7406 130.592 34.4632 130.423 34.2038C130.279 33.9384 130.086 33.7274 129.838 33.5705C129.621 33.3715 129.362 33.2328 129.066 33.1664C128.487 33.0337 127.836 33.0639 127.323 33.3956C126.823 33.7153 126.449 34.1676 126.286 34.7467C125.997 35.7479 125.713 36.7551 125.424 37.7563C125.327 38.0579 125.315 38.3594 125.382 38.661C125.394 38.9626 125.484 39.24 125.647 39.4994C125.792 39.7647 125.985 39.9758 126.232 40.1327C126.449 40.3317 126.708 40.4704 127.004 40.5368C127.583 40.6695 128.234 40.6393 128.747 40.3076C129.247 39.9879 129.621 39.5356 129.784 38.9565C130.074 37.9553 130.357 36.9481 130.646 35.9469C130.743 35.6453 130.755 35.3438 130.689 35.0422H130.695Z" fill="#222222"/>
<path d="M15.8418 128.607C15.7574 128.607 15.6729 128.607 15.5885 128.601C15.5644 128.595 15.5342 128.583 15.5101 128.577C15.4799 128.559 15.4498 128.546 15.4196 128.528C15.3352 128.456 15.2568 128.372 15.1844 128.293C15.1543 128.203 15.1241 128.118 15.1 128.028C15.0276 127.732 14.8949 127.479 14.6959 127.256C14.5391 127.008 14.328 126.815 14.0627 126.671C13.8033 126.508 13.5199 126.417 13.2244 126.399C12.9228 126.333 12.6213 126.345 12.3197 126.442C11.7709 126.616 11.2462 126.96 10.9688 127.479C10.8904 127.66 10.818 127.841 10.7396 128.022C10.6311 128.42 10.6311 128.824 10.7396 129.222C10.7758 129.397 10.8301 129.566 10.8964 129.735C11.0291 130.06 11.1558 130.392 11.3487 130.694C11.5417 130.989 11.7588 131.267 11.9941 131.526C12.2353 131.791 12.5308 131.996 12.8143 132.214C13.2304 132.533 13.731 132.744 14.2255 132.913C14.3944 132.967 14.5693 133.01 14.7442 133.034C15.106 133.088 15.4679 133.154 15.8418 133.13C16.1554 133.142 16.4449 133.076 16.7102 132.937C16.9937 132.847 17.2349 132.69 17.44 132.467C17.6631 132.262 17.8139 132.021 17.9104 131.737C18.0491 131.466 18.1154 131.176 18.1034 130.869C18.0793 130.284 17.8863 129.674 17.44 129.27C17.0118 128.878 16.4388 128.571 15.8418 128.607Z" fill="#222222"/>
</g>
<defs>
<clipPath id="clip0_595_2538">
<rect width="250" height="250" fill="white" transform="translate(0.5)"/>
</clipPath>
</defs>
</svg>
