<svg width="243" height="243" viewBox="0 0 243 243" fill="none" xmlns="http://www.w3.org/2000/svg">
<g clip-path="url(#clip0_633_2532)">
<path d="M237.374 87.4032C233.602 75.4913 228.022 64.1444 220.913 53.8744C217.247 48.5776 213.198 43.5456 208.819 38.8197C208.519 38.496 208.213 38.1782 207.907 37.8545C207.777 37.625 207.63 37.4072 207.43 37.2248C207.289 37.0953 207.136 36.9776 206.971 36.8776C198.991 28.6557 189.892 21.4874 179.958 15.7786C169.841 9.96387 158.824 5.62049 147.448 3.01328C136.272 0.459042 124.696 -0.500269 113.249 0.24717C101.844 0.994609 90.5382 3.33698 79.8154 7.29193C68.8924 11.3234 58.5521 16.885 49.2476 23.8945C39.3605 31.3394 30.7092 40.1851 23.4175 50.1784C14.9722 61.7549 8.64563 74.8145 4.73785 88.6038C0.718259 102.799 -0.800123 117.783 0.400458 132.491C1.58927 147.081 5.3558 161.353 11.7883 174.518C16.9791 185.141 23.8883 194.934 32.0099 203.521C40.0491 212.02 49.3536 219.364 59.4231 225.303C69.5163 231.253 80.4686 235.837 91.7976 238.827C103.191 241.841 115.056 243.277 126.838 242.953C138.85 242.623 150.85 240.493 162.196 236.538C174.249 232.336 185.537 226.186 195.648 218.399C205.841 210.548 214.804 201.273 222.143 190.691C229.035 180.745 234.361 169.692 237.892 158.116C241.358 146.757 243.077 134.81 242.994 122.933C242.912 110.909 240.999 98.862 237.374 87.3973V87.4032ZM228.364 167.303C228.217 167.656 228.305 167.438 228.364 167.303V167.303ZM236.421 136.593C236.344 137.299 236.256 138.005 236.162 138.712C236.162 138.7 236.162 138.688 236.162 138.676C236.162 138.694 236.162 138.712 236.156 138.735C236.15 138.788 236.138 138.865 236.132 138.918C236.12 139 236.109 139.088 236.097 139.171C236.044 139.541 235.991 139.918 235.932 140.289C235.067 145.998 233.766 151.648 232.054 157.162C231.606 158.592 231.136 160.017 230.63 161.429C227.646 160.223 224.668 159.022 221.684 157.815C221.172 157.609 220.666 157.404 220.154 157.198C219.495 156.933 218.482 157.15 217.894 157.492C217.288 157.845 216.705 158.545 216.546 159.246C216.158 160.941 217.064 162.235 218.594 162.853C221.908 164.195 225.221 165.531 228.54 166.873C228.487 166.997 228.44 167.126 228.387 167.25C228.387 167.261 228.381 167.267 228.376 167.279C228.299 167.462 228.217 167.65 228.14 167.832C227.987 168.18 227.834 168.533 227.681 168.88C227.081 170.234 226.451 171.581 225.798 172.911C223.208 178.179 220.219 183.252 216.858 188.06C215.987 189.308 215.093 190.538 214.175 191.75C214.11 191.833 213.621 192.468 213.668 192.415C213.48 192.651 213.298 192.892 213.109 193.128C212.621 193.746 212.121 194.358 211.62 194.97C209.967 196.977 208.236 198.925 206.453 200.82C204.399 198.766 202.339 196.706 200.285 194.652L199.138 193.504C198.055 192.421 196.066 192.339 194.995 193.504C193.924 194.675 193.835 196.488 194.995 197.647C197.443 200.096 199.891 202.544 202.333 204.987C201.174 206.105 199.991 207.199 198.785 208.271C197.619 209.306 196.442 210.319 195.236 211.307C194.665 211.778 194.094 212.243 193.517 212.702C193.229 212.932 192.935 213.161 192.646 213.391C192.605 213.426 192.57 213.45 192.541 213.479C192.523 213.491 192.499 213.508 192.47 213.532C192.287 213.673 192.099 213.815 191.917 213.956C186.903 217.758 181.606 221.183 176.056 224.143C174.214 225.126 172.343 226.056 170.453 226.933C169.253 224.102 168.046 221.265 166.846 218.435C166.634 217.934 166.422 217.434 166.21 216.934C165.945 216.31 165.08 215.757 164.456 215.586C163.756 215.392 162.82 215.48 162.196 215.88C161.573 216.286 161.019 216.887 160.849 217.634C160.66 218.458 160.819 219.123 161.143 219.894C162.467 223.007 163.785 226.121 165.11 229.234C164.756 229.375 164.409 229.517 164.056 229.652C162.685 230.182 161.302 230.682 159.907 231.159C154.34 233.06 148.625 234.519 142.828 235.531C141.481 235.767 140.127 235.973 138.767 236.167C138.632 236.185 138.226 236.238 138.108 236.255C137.773 236.297 137.443 236.338 137.108 236.379C136.36 236.467 135.607 236.544 134.854 236.62C131.941 236.903 129.016 237.073 126.091 237.132C125.885 237.132 125.679 237.132 125.473 237.138V227.021C125.473 225.491 124.125 224.02 122.542 224.09C120.953 224.161 119.611 225.379 119.611 227.021V237.085C116.074 236.967 112.549 236.691 109.035 236.261C108.741 236.226 108.447 236.185 108.153 236.149C108.106 236.144 107.599 236.073 107.476 236.055C106.74 235.949 105.999 235.837 105.263 235.72C103.874 235.496 102.485 235.249 101.102 234.978C98.3008 234.425 95.5171 233.778 92.7628 233.036C90.0085 232.295 87.2837 231.459 84.5824 230.529C83.6937 230.223 82.8109 229.905 81.9282 229.575C83.0346 226.839 84.141 224.102 85.2474 221.365C85.4534 220.853 85.6594 220.341 85.8654 219.829C86.1302 219.17 85.9124 218.158 85.5711 217.569C85.218 216.963 84.5176 216.381 83.8173 216.222C82.1224 215.833 80.8276 216.74 80.2097 218.27C78.9797 221.318 77.7438 224.373 76.5138 227.421C71.476 225.22 66.5737 222.76 61.8537 219.941C59.4114 218.482 57.0161 216.946 54.6797 215.327C53.5262 214.527 52.3903 213.709 51.2663 212.873C50.7778 212.514 50.3011 212.143 49.8185 211.778C49.7126 211.696 49.2771 211.36 49.2064 211.301C48.9122 211.072 48.6238 210.842 48.3354 210.607C46.3757 209.03 44.4688 207.388 42.6091 205.693C44.7337 203.568 46.8582 201.444 48.9828 199.319L50.1422 198.16C51.2251 197.077 51.3074 195.087 50.1422 194.016C48.971 192.945 47.1584 192.857 45.999 194.016C43.4566 196.559 40.9142 199.101 38.3718 201.644C37.5125 200.779 36.6592 199.913 35.8235 199.025C33.8755 196.947 31.9981 194.799 30.209 192.586C29.7676 192.039 29.3321 191.486 28.8966 190.938C28.8731 190.909 28.8378 190.862 28.8024 190.815C28.7318 190.726 28.6671 190.638 28.5965 190.544C28.3434 190.214 28.0962 189.885 27.849 189.555C27.0075 188.425 26.1835 187.283 25.3831 186.124C21.7284 180.833 18.6152 175.401 15.9962 169.751C19.1684 168.403 22.3464 167.055 25.5185 165.708C26.0187 165.496 26.5249 165.278 27.0251 165.066C27.6489 164.801 28.2022 163.936 28.3728 163.312C28.567 162.612 28.4788 161.676 28.0786 161.052C27.6725 160.429 27.0722 159.875 26.3248 159.705C25.5008 159.516 24.8358 159.675 24.0649 159.999C20.6102 161.464 17.1556 162.93 13.701 164.395C12.1179 160.417 10.7643 156.326 9.64611 152.095C8.73979 148.681 7.99825 145.233 7.40973 141.749C7.09193 139.859 6.88595 138.4 6.69762 136.822C6.48576 135.016 6.3092 133.209 6.17973 131.396C6.01494 129.113 5.92078 126.817 5.89135 124.528H17.2204C18.7505 124.528 20.2218 123.18 20.1512 121.597C20.0806 120.008 18.8623 118.666 17.2204 118.666H5.93843C6.03848 115.741 6.23269 112.816 6.53872 109.903C6.627 109.073 6.72116 108.249 6.8271 107.419C6.85064 107.249 6.86829 107.084 6.89184 106.919C6.90361 106.837 6.92126 106.684 6.92715 106.654C6.99777 106.136 7.07428 105.624 7.15078 105.106C7.41562 103.358 7.72165 101.61 8.06299 99.8743C8.75744 96.349 9.60491 92.8531 10.6054 89.4043C11.4764 86.3968 12.471 83.4306 13.5774 80.4997C16.5553 81.7062 19.5391 82.9068 22.517 84.1133C23.0291 84.3193 23.5411 84.5253 24.0531 84.7313C24.7122 84.9961 25.7245 84.7784 26.313 84.437C26.9192 84.0839 27.5018 83.3835 27.6607 82.6832C28.0491 80.9882 27.1428 79.6934 25.6127 79.0755C22.3287 77.7513 19.0507 76.4212 15.7667 75.097C16.5318 73.3549 17.3557 71.5952 18.2738 69.7707C21.2988 63.75 24.8711 58.0118 28.8672 52.5855C29.3145 51.9793 29.7676 51.3849 30.2208 50.7846C30.2384 50.7611 30.2679 50.7199 30.3032 50.6787C30.3914 50.5669 30.4797 50.4492 30.568 50.3373C30.8093 50.0254 31.0565 49.7194 31.3036 49.4074C32.2571 48.2127 33.234 47.0415 34.2286 45.8821C35.5292 44.3696 36.8828 42.9041 38.26 41.4622C40.4493 43.6516 42.6327 45.835 44.822 48.0244C45.2104 48.4128 45.5929 48.7954 45.9813 49.1838C47.0642 50.2667 49.0534 50.3491 50.1245 49.1838C51.1956 48.0126 51.2839 46.1999 50.1245 45.0405C47.5527 42.4686 44.975 39.8908 42.4031 37.319C43.8156 35.9712 45.2516 34.6529 46.7288 33.3758C47.8116 32.4459 48.9063 31.5278 50.0245 30.6391C50.2834 30.4272 50.5483 30.2212 50.8131 30.0152C50.8837 29.9623 51.1956 29.7151 51.3192 29.6209C51.8783 29.1913 52.4374 28.7675 53.0083 28.3438C57.5811 24.9597 62.3952 21.9111 67.4153 19.2274C69.7399 17.9856 72.0999 16.8262 74.501 15.7433C75.7252 18.6212 76.9434 21.4991 78.1675 24.3771C78.3794 24.8773 78.5971 25.3835 78.809 25.8837C79.0738 26.5076 79.939 27.0608 80.5628 27.2315C81.2631 27.4257 82.1989 27.3374 82.8227 26.9372C83.4465 26.5311 83.9997 25.9308 84.1704 25.1834C84.3587 24.3594 84.1998 23.6944 83.8762 22.9234C82.5402 19.7806 81.2102 16.6437 79.8742 13.501C80.6746 13.1949 81.4809 12.8889 82.2872 12.6005C87.5132 10.7231 92.8746 9.21643 98.3126 8.1041C99.6485 7.83338 100.99 7.58031 102.332 7.35667C103.003 7.24484 103.68 7.13891 104.351 7.03297C104.669 6.98589 104.986 6.93881 105.304 6.89172C105.457 6.86818 105.61 6.85053 105.763 6.82698C105.828 6.8211 105.893 6.80933 105.957 6.80344C108.7 6.45621 111.454 6.19137 114.214 6.03246C116.009 5.92653 117.81 5.87356 119.611 5.8559V16.2612C119.611 17.7914 120.959 19.2627 122.542 19.1921C124.131 19.1215 125.473 17.9032 125.473 16.2612V5.95595C127.25 6.02658 129.027 6.13251 130.799 6.28553C132.158 6.40324 133.518 6.54449 134.877 6.70928C135.195 6.75047 135.519 6.79167 135.837 6.83287C135.848 6.83287 135.854 6.83287 135.872 6.83287C136.001 6.85053 136.131 6.86818 136.254 6.88584C136.972 6.98589 137.69 7.09771 138.408 7.20953C141.163 7.65093 143.899 8.19238 146.612 8.828C152.092 10.1169 157.471 11.8119 162.703 13.8835C162.844 13.9365 162.979 13.9953 163.115 14.0542C161.902 17.0498 160.69 20.0514 159.477 23.047C159.271 23.559 159.066 24.0652 158.86 24.5772C158.595 25.2363 158.812 26.2486 159.154 26.8372C159.507 27.4433 160.207 28.026 160.908 28.1849C162.603 28.5733 163.897 27.667 164.515 26.1368C165.828 22.8881 167.14 19.6335 168.452 16.3848C168.982 16.632 169.518 16.885 170.041 17.144C172.631 18.4093 175.173 19.7689 177.663 21.2167C180.188 22.688 182.653 24.2535 185.055 25.9073C186.255 26.7312 187.438 27.5787 188.603 28.4497C188.88 28.6557 189.157 28.8617 189.427 29.0677C189.563 29.1736 189.704 29.2737 189.839 29.3796C189.827 29.3679 190.075 29.5621 190.192 29.6504C190.269 29.7092 190.351 29.7739 190.375 29.7916C190.51 29.8975 190.646 30.0035 190.781 30.1153C191.122 30.386 191.458 30.6567 191.799 30.9275C195.071 33.57 198.19 36.3891 201.168 39.3494C199.179 41.3386 197.196 43.322 195.207 45.3112C194.824 45.6938 194.441 46.0763 194.059 46.4589C192.976 47.5418 192.894 49.531 194.059 50.6022C195.23 51.6733 197.043 51.7616 198.202 50.6022C200.544 48.2598 202.893 45.9116 205.235 43.5692C207.224 45.7409 209.149 47.9714 210.985 50.2667C211.244 50.5904 211.503 50.9141 211.756 51.2437C211.832 51.3437 212.126 51.7204 212.203 51.8146C212.686 52.4443 213.162 53.074 213.633 53.7155C214.551 54.9573 215.446 56.2227 216.317 57.4998C219.783 62.5788 222.885 67.911 225.568 73.4491C225.733 73.7845 225.886 74.1259 226.045 74.4614C223.079 75.7208 220.119 76.9803 217.152 78.2339C216.652 78.4457 216.152 78.6576 215.652 78.8695C215.028 79.1343 214.475 79.9995 214.304 80.6233C214.11 81.3237 214.198 82.2594 214.598 82.8833C215.004 83.5071 215.605 84.0604 216.352 84.231C217.176 84.4194 217.841 84.2605 218.612 83.9368C221.872 82.5537 225.139 81.1648 228.399 79.7817C228.599 80.2761 228.805 80.7704 228.999 81.2648C230.088 84.0368 231.077 86.85 231.954 89.6926C233.69 95.3072 235.014 101.051 235.903 106.86C235.956 107.196 236.003 107.531 236.05 107.867C236.067 107.99 236.115 108.337 236.138 108.49C236.232 109.197 236.321 109.897 236.397 110.603C236.556 112.028 236.691 113.452 236.803 114.882C236.897 116.141 236.968 117.407 237.027 118.672H226.769C225.239 118.672 223.767 120.02 223.838 121.603C223.909 123.192 225.127 124.534 226.769 124.534H237.133C237.115 127.1 237.015 129.666 236.827 132.22C236.721 133.68 236.585 135.139 236.421 136.593Z" fill="#222222"/>
<path d="M236.132 138.918C236.138 138.859 236.15 138.794 236.155 138.735C236.155 138.729 236.155 138.718 236.155 138.718C236.108 139.047 236.114 139.024 236.126 138.924L236.132 138.918Z" fill="#222222"/>
<path d="M184.124 78.999C181.794 75.6384 179.222 72.4309 176.444 69.4294C171.183 63.7795 165.08 58.8593 158.388 55.0044C152.009 51.332 145.052 48.5717 137.878 46.9356C130.875 45.3348 123.613 44.711 116.444 45.1759C109.241 45.6408 102.096 47.1004 95.3225 49.6017C88.4544 52.1383 81.9513 55.6047 76.1014 60.0187C69.7925 64.78 64.3016 70.3887 59.6464 76.7802C54.3673 84.0309 50.4243 92.2351 47.9878 100.863C45.4807 109.744 44.5214 119.143 45.2747 128.348C46.028 137.576 48.4056 146.569 52.4664 154.902C55.7092 161.553 60.0407 167.685 65.1137 173.064C70.1691 178.432 76.0484 183.075 82.3986 186.824C88.731 190.562 95.6226 193.451 102.732 195.335C109.918 197.236 117.416 198.154 124.849 197.942C132.387 197.73 139.944 196.4 147.071 193.91C154.61 191.28 161.678 187.46 168.011 182.593C174.514 177.59 180.211 171.717 184.889 164.966C189.197 158.745 192.528 151.812 194.741 144.579C196.936 137.417 198.019 129.866 197.972 122.38C197.919 114.835 196.725 107.249 194.447 100.051C192.081 92.5765 188.591 85.4434 184.13 78.999H184.124ZM191.916 128.171C191.852 129.054 191.769 129.937 191.669 130.814C191.622 131.237 191.569 131.655 191.516 132.079C191.516 132.085 191.516 132.097 191.516 132.102C191.481 132.355 191.445 132.603 191.404 132.85C190.869 136.387 190.068 139.877 189.003 143.296C188.468 145.027 187.861 146.739 187.191 148.422C187.096 148.658 186.92 149.464 186.72 149.576C186.743 149.564 187.008 148.905 186.79 149.405C186.755 149.494 186.714 149.582 186.678 149.67C186.578 149.906 186.472 150.141 186.372 150.371C186.008 151.189 185.625 152.001 185.231 152.807C183.618 156.091 181.753 159.252 179.652 162.253C179.122 163.006 178.58 163.748 178.027 164.484C177.945 164.59 177.509 165.137 177.774 164.813C178.057 164.466 177.568 165.072 177.515 165.143C177.227 165.508 176.933 165.867 176.638 166.226C175.426 167.697 174.155 169.121 172.831 170.498C171.506 171.87 170.129 173.194 168.705 174.465C167.981 175.107 167.246 175.742 166.498 176.354C166.121 176.666 165.745 176.972 165.362 177.278C165.174 177.431 164.986 177.596 164.786 177.731C165.321 177.361 164.738 177.767 164.544 177.914C161.466 180.245 158.218 182.346 154.81 184.164C153.133 185.059 151.42 185.889 149.672 186.648C149.502 186.724 148.801 187.001 149.555 186.701C149.372 186.771 149.19 186.854 149.007 186.93C148.548 187.119 148.095 187.301 147.63 187.478C146.777 187.807 145.918 188.119 145.047 188.413C141.598 189.59 138.061 190.497 134.477 191.127C133.617 191.28 132.67 191.309 131.834 191.539C131.87 191.527 131.881 191.527 131.911 191.515C131.858 191.527 131.805 191.539 131.764 191.544C131.546 191.574 131.322 191.597 131.099 191.627C130.628 191.68 130.151 191.733 129.68 191.774C127.915 191.945 126.149 192.045 124.378 192.08C120.823 192.156 117.268 191.974 113.743 191.539C113.614 191.521 113.484 191.503 113.355 191.491C113.249 191.468 113.125 191.462 113.031 191.444C112.596 191.38 112.166 191.315 111.73 191.244C110.865 191.103 110 190.95 109.141 190.779C107.393 190.438 105.657 190.032 103.933 189.567C102.243 189.108 100.572 188.596 98.9125 188.025C98.0532 187.731 97.2057 187.419 96.3583 187.095C95.9816 186.948 95.5991 186.801 95.2224 186.648C95.0223 186.565 94.8163 186.483 94.6162 186.401C94.5574 186.377 94.5044 186.354 94.4515 186.33C94.4515 186.33 94.4515 186.33 94.4456 186.33C94.4161 186.318 94.3867 186.306 94.3573 186.295C94.2337 186.242 94.169 186.189 94.1513 186.159C93.8865 186.036 93.5628 185.953 93.3333 185.853C92.9037 185.665 92.4799 185.471 92.0562 185.271C91.2617 184.9 90.479 184.517 89.7021 184.123C88.1425 183.334 86.6124 182.493 85.1116 181.598C83.5874 180.692 82.0867 179.727 80.6271 178.714C79.9091 178.22 79.2029 177.708 78.5026 177.19C78.326 177.061 78.1553 176.931 77.9788 176.796C77.8846 176.725 77.2843 176.325 77.6845 176.572C78.0729 176.813 77.4727 176.407 77.3903 176.343C77.2196 176.207 77.0489 176.072 76.8783 175.936C74.1299 173.729 71.5404 171.334 69.1274 168.768C67.9092 167.467 66.738 166.126 65.6199 164.743C65.3668 164.425 65.1137 164.107 64.8607 163.789C64.8489 163.777 64.8489 163.777 64.843 163.766C64.8312 163.748 64.8254 163.736 64.8018 163.713C64.6488 163.513 64.5017 163.312 64.3486 163.112C63.8249 162.412 63.3129 161.694 62.8126 160.976C60.7881 158.045 58.9872 154.961 57.4335 151.754C57.0157 150.883 56.6096 150.006 56.2271 149.123C56.1918 149.035 56.1506 148.952 56.1153 148.864C56.1153 148.858 56.1152 148.852 56.1094 148.846C56.0093 148.593 55.9034 148.34 55.7975 148.081C55.5915 147.569 55.3973 147.057 55.203 146.545C54.4262 144.45 53.7494 142.319 53.1785 140.159C52.6194 138.041 52.1545 135.893 51.7896 133.733C51.7014 133.191 51.6131 132.65 51.5366 132.108C51.513 131.926 51.3247 131.143 51.4954 131.838C51.4247 131.543 51.413 131.208 51.3777 130.902C51.2482 129.813 51.1481 128.718 51.0657 127.624C50.7479 123.198 50.8245 118.749 51.2894 114.34C51.3424 113.834 51.4012 113.328 51.4659 112.816C51.4777 112.716 51.4895 112.616 51.5013 112.516C51.5483 112.216 51.5895 111.91 51.6307 111.61C51.7955 110.521 51.9838 109.438 52.1957 108.361C52.6194 106.201 53.1373 104.065 53.7494 101.946C54.3732 99.7919 55.0853 97.6732 55.9034 95.5839C56.0858 95.1072 56.28 94.6363 56.4742 94.1596C56.4919 94.1184 56.539 94.0007 56.5743 93.9183C56.5802 93.9007 56.5861 93.8889 56.592 93.883C56.7155 93.5946 56.845 93.3062 56.9686 93.0179C57.4159 92.0115 57.8867 91.0168 58.3811 90.034C60.2525 86.3027 62.4536 82.742 64.9313 79.3815C65.2079 79.0049 65.4904 78.6341 65.7729 78.2574C65.8023 78.2162 65.8317 78.1809 65.8612 78.1397C66.0024 77.9573 66.1495 77.7748 66.2908 77.5924C66.8852 76.8449 67.4972 76.1093 68.1211 75.3795C69.3099 73.9964 70.5517 72.6604 71.8405 71.3657C73.1117 70.0944 74.4241 68.8703 75.7836 67.6932C76.4781 67.0929 77.1902 66.4985 77.9082 65.9217C78.0788 65.7805 78.2554 65.6451 78.4261 65.5098C78.5026 65.4509 78.5791 65.392 78.6497 65.3332C78.9028 65.1272 78.4261 65.5098 78.4319 65.5039C78.7203 65.1743 79.2147 64.9095 79.5619 64.6505C82.3927 62.5553 85.3765 60.6661 88.4839 59.0065C90.0023 58.1943 91.5559 57.4351 93.1273 56.7288C93.4922 56.564 93.9159 56.4346 94.269 56.2345C94.269 56.2345 94.2808 56.2345 94.2867 56.2286C94.5103 56.1344 94.7398 56.0402 94.9694 55.952C95.7933 55.6224 96.6231 55.3046 97.4529 55.0044C100.69 53.8391 104.009 52.9092 107.375 52.2207C108.205 52.05 109.041 51.897 109.882 51.7557C110.271 51.691 110.659 51.6262 111.048 51.5674C111.26 51.538 111.466 51.5026 111.677 51.4732C111.725 51.4673 111.777 51.4614 111.825 51.4497C113.502 51.2437 115.179 51.073 116.862 50.9788C120.282 50.7787 123.719 50.8258 127.132 51.1142C127.979 51.1848 128.827 51.2731 129.674 51.3732C129.88 51.3967 130.086 51.4261 130.286 51.4497C130.304 51.4497 130.322 51.4497 130.339 51.4556C130.793 51.5203 131.246 51.585 131.693 51.6615C133.382 51.9323 135.059 52.2677 136.725 52.6562C140.115 53.4566 143.446 54.5042 146.689 55.7872C147.065 55.9343 147.436 56.0873 147.813 56.2462C147.836 56.258 147.854 56.2639 147.883 56.2757C148.113 56.3757 148.342 56.4758 148.572 56.5758C149.372 56.9289 150.167 57.2997 150.955 57.6822C152.574 58.4709 154.163 59.3184 155.716 60.2247C157.264 61.1252 158.777 62.0845 160.254 63.1027C161.001 63.6147 161.737 64.1444 162.467 64.6799C162.649 64.8153 162.832 64.9506 163.014 65.0919C163.085 65.1449 163.155 65.1978 163.226 65.2567C163.573 65.5333 163.926 65.804 164.274 66.0865C167.11 68.3759 169.77 70.8772 172.26 73.5491C173.602 74.9969 174.896 76.4918 176.132 78.0338C176.285 78.2221 176.438 78.4163 176.585 78.6046C176.632 78.6635 176.685 78.7282 176.732 78.7871C176.721 78.7753 176.715 78.7694 176.703 78.7518C177.033 79.1461 177.333 79.5816 177.639 79.9995C178.21 80.7763 178.769 81.5591 179.31 82.3536C181.458 85.4964 183.377 88.7981 185.037 92.2292C185.443 93.0649 185.831 93.9065 186.202 94.754C186.296 94.9659 186.384 95.1778 186.478 95.3897C186.49 95.4191 186.502 95.4367 186.508 95.4603C186.514 95.4779 186.52 95.4897 186.525 95.5074C186.702 95.9311 186.873 96.3607 187.043 96.7845C187.726 98.5148 188.338 100.269 188.891 102.046C189.968 105.524 190.786 109.079 191.334 112.675C191.363 112.863 191.393 113.052 191.416 113.246C191.416 113.287 191.445 113.44 191.463 113.575C191.481 113.711 191.51 113.917 191.516 113.987C191.546 114.24 191.575 114.493 191.604 114.747C191.704 115.635 191.787 116.518 191.857 117.407C191.993 119.178 192.058 120.956 192.063 122.733C192.063 124.534 191.999 126.341 191.869 128.142L191.916 128.171Z" fill="#222222"/>
<path d="M131.911 191.527C132.164 191.474 132.441 191.38 131.911 191.527V191.527Z" fill="#222222"/>
<path d="M94.1575 186.177C94.2693 186.23 94.3693 186.283 94.4517 186.348C94.2281 186.153 94.1398 186.136 94.1575 186.171V186.177Z" fill="#222222"/>
<path d="M115.115 174.071C115.327 174.1 115.85 174.13 115.115 174.071V174.071Z" fill="#222222"/>
<path d="M163.826 81.365C155.905 72.8665 145.535 66.6693 134.189 64.068C123.383 61.5902 111.866 62.2376 101.449 66.0631C90.3556 70.1416 80.8745 77.4453 73.9006 86.9619C65.6319 98.25 61.6476 112.616 62.7481 126.559C63.0836 130.831 63.8781 135.028 65.1198 139.094C64.1252 139.5 63.1306 139.906 62.136 140.307C61.8477 140.377 61.6005 140.507 61.3886 140.701C61.1473 140.854 60.959 141.06 60.8236 141.319C60.547 141.79 60.4293 142.484 60.6 143.014C60.7707 143.544 61.1003 144.062 61.6123 144.326C62.1007 144.585 62.7716 144.768 63.3072 144.55C64.3901 144.109 65.4788 143.667 66.5617 143.226C67.0855 144.562 67.6446 145.88 68.2743 147.175C66.7442 148.017 65.214 148.852 63.6839 149.694C62.6775 150.247 62.2655 151.724 62.8952 152.701C63.5544 153.725 64.8256 154.084 65.9026 153.49C67.3856 152.678 68.8687 151.86 70.3518 151.047C71.1463 152.389 72.0055 153.696 72.9118 154.973C71.7172 155.72 70.5225 156.468 69.3219 157.215C68.8452 157.515 68.4626 157.98 68.3096 158.528C68.1625 159.052 68.2272 159.752 68.5333 160.223C68.8334 160.694 69.2866 161.105 69.8457 161.235C70.4106 161.364 71.0345 161.329 71.5406 161.011C72.8942 160.164 74.2478 159.316 75.6014 158.475C76.3724 159.405 77.1727 160.317 77.9967 161.194C85.7592 169.457 95.9583 175.442 106.899 178.367C118.034 181.339 130.081 181.145 141.004 177.367C152.815 173.282 163.103 165.349 170.247 155.114C176.903 145.58 180.458 133.945 180.411 122.327C180.358 110.421 176.556 98.6149 169.794 88.8335C167.981 86.2145 165.98 83.7191 163.821 81.3768L163.826 81.365ZM147.213 75.4679C148.401 76.1623 149.561 76.898 150.691 77.6749C151.226 78.0398 151.75 78.4164 152.268 78.799C152.515 78.9814 152.821 79.158 153.039 79.3757C153.051 79.3875 153.062 79.3993 153.074 79.4052C153.227 79.5288 153.38 79.6465 153.533 79.7701C155.717 81.5298 157.771 83.4543 159.683 85.5083C160.737 86.65 161.755 87.8212 162.72 89.0395C162.844 89.1984 163.567 90.0459 163.032 89.4338C163.256 89.6927 163.456 89.987 163.656 90.2636C164.103 90.8757 164.544 91.4937 164.968 92.1175C165.457 92.8355 165.927 93.5712 166.387 94.3069C166.31 94.3716 166.239 94.4363 166.169 94.4952C165.916 94.7071 165.657 94.913 165.398 95.119C165.392 95.119 165.368 95.1426 165.345 95.1602C165.251 95.2309 165.039 95.3898 165.009 95.4192C163.95 96.2078 162.855 96.9553 161.725 97.638C160.601 98.3148 159.448 98.9327 158.253 99.4742C158.171 99.5095 158.088 99.5448 158.012 99.5801C157.965 99.6037 157.9 99.6272 157.859 99.6508C157.841 99.6566 157.824 99.6625 157.812 99.6743C157.824 99.6684 157.829 99.6625 157.841 99.6566C157.841 99.6566 157.841 99.6566 157.835 99.6566C157.535 99.7743 157.229 99.8979 156.923 100.01C156.311 100.233 155.693 100.434 155.069 100.616C154.445 100.793 153.81 100.951 153.174 101.081C152.862 101.146 152.556 101.199 152.244 101.252C152.209 101.257 152.156 101.263 152.109 101.269C152.168 101.269 152.162 101.275 151.968 101.299C151.944 101.299 151.921 101.299 151.897 101.305C151.874 101.305 151.838 101.31 151.821 101.322C151.832 101.322 151.85 101.316 151.862 101.31C150.779 101.422 149.702 101.475 148.613 101.44C148.125 101.422 147.636 101.387 147.148 101.334C147.077 101.328 146.93 101.293 146.836 101.287C146.6 101.246 146.371 101.204 146.136 101.157C145.17 100.963 144.223 100.687 143.299 100.339C143.246 100.316 143.187 100.298 143.134 100.275C142.963 100.18 142.757 100.116 142.593 100.033C142.139 99.8155 141.692 99.5801 141.263 99.3212C140.886 99.0975 140.515 98.8621 140.156 98.609C140.009 98.5031 139.856 98.3736 139.697 98.2677C139.609 98.1971 139.526 98.1264 139.438 98.0499C138.738 97.4496 138.085 96.7905 137.49 96.0842C137.431 96.0136 137.372 95.943 137.314 95.8724C137.225 95.7546 137.137 95.6369 137.055 95.5133C136.772 95.1131 136.507 94.6953 136.26 94.2715C136.042 93.8949 135.836 93.5065 135.648 93.1121C135.607 93.0297 135.572 92.9473 135.536 92.8649C135.466 92.6648 135.371 92.4647 135.301 92.2646C134.977 91.3642 134.724 90.4343 134.548 89.4926C134.524 89.3808 134.436 88.5451 134.471 89.0689C134.506 89.5868 134.448 88.8453 134.436 88.7217C134.383 88.192 134.353 87.6564 134.347 87.1208C134.342 86.6029 134.353 86.0909 134.389 85.5789C134.406 85.3494 134.424 85.1198 134.448 84.8903C134.459 84.7844 134.471 84.6843 134.483 84.5784C134.736 83.2365 135.024 81.93 135.495 80.647C135.548 80.5057 135.601 80.3586 135.66 80.2173C135.713 80.082 135.736 79.9937 135.736 79.9584C135.831 79.7112 135.995 79.4581 136.101 79.2404C136.407 78.6224 136.737 78.0221 137.096 77.4336C137.455 76.845 137.861 76.2918 138.249 75.7268C138.255 75.7209 138.255 75.7151 138.261 75.7092C138.361 75.5797 138.467 75.4561 138.567 75.3266C138.785 75.0618 139.009 74.8028 139.244 74.5498C139.897 73.8259 140.598 73.1549 141.333 72.5193C141.363 72.5193 141.386 72.5252 141.421 72.5311C141.398 72.5311 141.374 72.5193 141.351 72.5134C141.351 72.5134 141.357 72.5075 141.363 72.5017C141.38 72.5134 141.404 72.5193 141.421 72.5311C141.421 72.5311 141.433 72.5311 141.439 72.5311C141.439 72.5311 141.439 72.5311 141.427 72.5311C141.539 72.5782 141.651 72.6311 141.769 72.6782C142.398 72.9548 143.022 73.2432 143.64 73.5492C144.858 74.1437 146.053 74.7852 147.23 75.4679H147.213ZM146.977 101.299C147.148 101.328 147.301 101.357 146.977 101.299V101.299ZM79.6975 88.9453C79.6975 88.9453 79.7093 88.9276 79.7151 88.9218C79.8387 88.7687 79.9623 88.6098 80.0859 88.4568C80.5391 87.8918 81.004 87.3327 81.4807 86.7854C82.3752 85.7555 83.3051 84.7549 84.2703 83.7897C85.2472 82.8187 86.2536 81.877 87.2953 80.9765C87.8014 80.541 88.3134 80.1173 88.8313 79.6994C88.9314 79.6229 89.0314 79.5405 89.1256 79.464C89.1727 79.4228 89.2256 79.3875 89.2727 79.3463C89.5199 79.1521 89.4728 79.1933 89.1256 79.4581C89.2786 79.2109 89.8024 78.9461 90.0319 78.7754C92.1859 77.1864 94.4576 75.7563 96.8175 74.4968C97.9593 73.8906 99.1186 73.3197 100.302 72.7959C100.572 72.6723 100.884 72.5782 101.143 72.431C101.137 72.431 101.131 72.4369 101.126 72.4428C101.231 72.4016 101.337 72.3545 101.443 72.3133C102.126 72.8901 102.791 73.4845 103.403 74.1378C103.821 74.5792 104.227 75.0382 104.61 75.5149C104.668 75.5915 104.733 75.668 104.792 75.7445C104.81 75.768 104.827 75.7916 104.851 75.8269C105.027 76.0741 105.21 76.3212 105.381 76.5743C106.063 77.5866 106.669 78.6518 107.181 79.7642C107.223 79.8524 107.27 79.9525 107.311 80.0526C107.317 80.0761 107.329 80.0996 107.334 80.1173C107.446 80.4057 107.552 80.6882 107.652 80.9765C107.852 81.5533 108.029 82.1418 108.176 82.7363C108.323 83.3189 108.423 83.9016 108.535 84.4901C108.541 84.5254 108.547 84.5548 108.559 84.5784C108.559 84.6314 108.559 84.6784 108.564 84.702C108.594 84.9609 108.617 85.2258 108.635 85.4906C108.712 86.5382 108.7 87.5917 108.606 88.6393C108.588 88.8511 108.529 89.0748 108.535 89.2867C108.535 89.1336 108.535 89.0277 108.535 88.9688C108.535 89.0807 108.529 89.2867 108.506 89.4161C108.417 89.9223 108.3 90.4225 108.164 90.9169C108.047 91.3465 107.911 91.7762 107.764 92.194C107.705 92.3529 107.646 92.5118 107.582 92.6707C107.587 92.659 107.593 92.6531 107.599 92.6472C107.587 92.6648 107.576 92.6943 107.564 92.7119C107.546 92.759 107.529 92.812 107.511 92.8591C107.487 92.9238 107.464 92.965 107.44 92.9885C107.434 93.0062 107.429 93.0297 107.417 93.0474C107.022 93.889 106.558 94.6953 106.028 95.4604C105.951 95.5722 105.869 95.684 105.787 95.7958C105.722 95.8606 105.651 95.9724 105.598 96.0371C105.286 96.4138 104.957 96.7787 104.61 97.1259C104.304 97.432 103.986 97.7321 103.662 98.0146C103.515 98.1441 103.285 98.2736 103.156 98.4266C103.085 98.4737 103.021 98.5266 102.95 98.5737C102.179 99.1152 101.367 99.5978 100.519 100.004C100.384 100.069 100.249 100.133 100.107 100.192C100.025 100.216 99.8837 100.292 99.8131 100.316C99.3305 100.498 98.8362 100.663 98.3418 100.81C97.8945 100.94 97.4414 101.051 96.9882 101.146C96.741 101.199 96.4938 101.246 96.2467 101.287C96.2467 101.287 96.2055 101.287 96.1643 101.293C96.129 101.305 96.076 101.316 95.9877 101.328C95.9642 101.328 95.9348 101.328 95.9112 101.328C95.8994 101.328 95.8759 101.334 95.8759 101.34C95.8759 101.34 95.8877 101.334 95.8877 101.328C94.8695 101.428 93.8455 101.475 92.8215 101.44C92.2683 101.416 91.721 101.375 91.1736 101.316C91.1501 101.316 91.1207 101.31 91.0912 101.305C91.0618 101.305 91.0324 101.305 91.0088 101.293C90.9971 101.293 90.9853 101.293 90.9735 101.287C90.9382 101.287 90.897 101.275 90.8617 101.275C90.8853 101.275 90.897 101.275 90.9147 101.275C90.6028 101.222 90.2908 101.175 89.9848 101.11C88.5488 100.828 87.1423 100.41 85.7769 99.892C85.6239 99.8332 85.4709 99.7743 85.3237 99.7155C85.2708 99.6919 85.2178 99.6743 85.1707 99.6508C84.8588 99.5095 84.541 99.3682 84.2291 99.2211C83.5641 98.9033 82.9108 98.562 82.2693 98.203C80.9746 97.4732 79.7269 96.6669 78.5263 95.7958C78.238 95.5899 77.9555 95.378 77.6789 95.1661C77.6612 95.1543 77.6553 95.1485 77.6377 95.1308C77.4788 95.0013 77.314 94.8718 77.1551 94.7424C76.8491 94.4952 76.5548 94.2362 76.2546 93.9773C77.1374 92.5354 78.0732 91.1288 79.0795 89.7693C79.2796 89.4985 79.4856 89.2278 79.6916 88.9571L79.6975 88.9453ZM105.745 95.8488C105.745 95.8488 105.704 95.9077 105.681 95.9371C105.469 96.2314 105.628 95.9959 105.745 95.8488ZM103.315 98.2971C103.315 98.2971 103.285 98.3148 103.274 98.3265C103.415 98.2206 103.586 98.1029 103.315 98.2971ZM85.1531 99.6331C84.9824 99.5566 85.0236 99.5801 85.1531 99.6331V99.6331ZM78.2909 120.761C78.3262 120.761 78.3615 120.773 78.3674 120.773C79.0913 120.885 79.8093 121.015 80.5273 121.173C81.822 121.462 83.105 121.838 84.3468 122.309C84.4527 122.351 84.5645 122.392 84.6705 122.439C84.7234 122.456 84.7764 122.48 84.8176 122.498C84.8176 122.498 84.8235 122.498 84.8294 122.498C84.8294 122.498 84.8412 122.498 84.847 122.504C85.159 122.645 85.4709 122.786 85.7828 122.939C86.283 123.186 86.7774 123.451 87.26 123.734C87.7014 123.993 88.131 124.263 88.5488 124.552C88.7666 124.699 88.9843 124.858 89.2021 125.011C89.2315 125.034 89.2904 125.081 89.3433 125.123C89.4022 125.17 89.4493 125.211 89.461 125.217C90.2202 125.841 90.9323 126.517 91.5915 127.247C91.7563 127.43 91.9211 127.618 92.08 127.806C92.1035 127.836 92.127 127.865 92.1506 127.895C92.2918 128.289 92.7921 128.766 93.0157 129.119C93.257 129.495 93.4806 129.878 93.6925 130.266C93.8455 130.549 93.9632 130.89 94.1103 131.196C94.0927 131.12 94.1574 131.167 94.2104 131.314C94.2339 131.373 94.2575 131.432 94.281 131.496C94.2869 131.508 94.2928 131.52 94.3046 131.532C94.2987 131.52 94.2928 131.514 94.2869 131.502C94.3046 131.549 94.3222 131.591 94.3399 131.638C94.4223 131.855 94.4988 132.073 94.5694 132.291C94.7165 132.726 94.8401 133.168 94.9519 133.615C95.052 134.033 95.1285 134.451 95.2109 134.875C95.2109 134.904 95.2168 134.922 95.2226 134.939C95.2462 135.192 95.2756 135.451 95.2933 135.704C95.3521 136.587 95.3404 137.476 95.258 138.359C95.258 138.388 95.2462 138.494 95.2344 138.6C95.2168 138.706 95.1814 138.953 95.1638 139.035C95.0755 139.524 94.9637 140.001 94.8342 140.477C94.7165 140.901 94.587 141.325 94.4399 141.737C94.3693 141.931 94.2928 142.125 94.2163 142.319C94.3281 141.996 94.1692 142.431 94.1221 142.525C93.7101 143.414 93.2276 144.268 92.6802 145.08C92.539 145.286 92.3978 145.492 92.2447 145.698C92.2212 145.733 92.1977 145.762 92.1682 145.798C91.8033 146.21 91.4679 146.639 91.0854 147.04C90.6616 147.487 90.2202 147.911 89.7612 148.317C89.5081 148.54 89.2433 148.758 88.9784 148.97C88.9667 148.976 88.9667 148.982 88.9549 148.988C88.7901 149.105 88.6312 149.223 88.4664 149.335C87.36 150.1 86.1889 150.706 84.9824 151.295C85.1884 151.189 84.4292 151.524 84.2997 151.571C83.9643 151.695 83.6229 151.813 83.2816 151.924C82.5989 152.142 81.9044 152.33 81.21 152.489C80.8981 152.56 80.5861 152.625 80.2742 152.678C80.1153 152.707 79.9623 152.731 79.8034 152.76C79.7975 152.76 79.4797 152.801 79.3797 152.819C79.3385 152.819 79.3032 152.825 79.2855 152.831C79.0913 152.854 78.8912 152.872 78.697 152.884C78.6793 152.884 78.6558 152.884 78.6381 152.884C78.2144 152.313 77.7966 151.736 77.3905 151.148C75.8721 148.941 74.5185 146.622 73.3532 144.215C73.0237 143.532 72.7118 142.837 72.4057 142.143C72.4116 142.161 72.4175 142.172 72.4293 142.196C72.4234 142.172 72.4116 142.155 72.4057 142.131C72.3763 142.055 72.3174 141.919 72.3116 141.902C72.2645 141.778 72.2115 141.66 72.1644 141.537C71.9879 141.101 71.8231 140.66 71.6583 140.218C71.0874 138.671 70.5931 137.099 70.1752 135.504C69.7338 133.839 69.3748 132.15 69.0924 130.443C69.0276 130.054 68.9688 129.666 68.9158 129.278C68.9158 129.266 68.9158 129.266 68.9158 129.254C68.8864 129.054 68.8628 128.854 68.8393 128.654C68.7392 127.794 68.6568 126.935 68.598 126.076C68.4744 124.293 68.4391 122.504 68.4803 120.714C68.5686 120.714 68.6568 120.714 68.751 120.709C71.5288 120.438 74.3243 120.367 77.1021 120.62C77.4023 120.65 77.7083 120.679 78.0084 120.714C78.0496 120.714 78.2085 120.738 78.3086 120.75L78.2909 120.761ZM131.046 173.871C130.428 173.977 129.769 174.012 129.157 174.165C130.04 173.941 129.057 174.171 128.804 174.2C128.427 174.242 128.05 174.283 127.668 174.318C126.285 174.448 124.896 174.524 123.507 174.554C120.835 174.601 118.163 174.459 115.515 174.13C115.362 174.112 115.203 174.083 115.05 174.071C115.073 174.071 115.091 174.071 115.115 174.071C115.103 174.071 115.091 174.071 115.085 174.071C114.773 174.024 114.467 173.977 114.155 173.93C113.479 173.818 112.796 173.694 112.125 173.565C110.836 173.306 109.559 173.006 108.294 172.664C106.97 172.305 105.657 171.899 104.356 171.452C104.268 171.423 104.186 171.387 104.098 171.358C104.109 171.093 104.115 170.822 104.133 170.557C104.151 170.316 104.174 170.075 104.198 169.828C104.209 169.704 104.227 169.586 104.239 169.463C104.239 169.445 104.239 169.433 104.239 169.421C104.239 169.41 104.239 169.41 104.239 169.398C104.433 168.315 104.633 167.244 104.927 166.185C105.057 165.714 105.204 165.249 105.363 164.79C105.457 164.519 105.551 164.254 105.657 163.989C105.71 163.848 105.881 163.46 105.869 163.483C106.299 162.559 106.752 161.653 107.287 160.782C107.564 160.335 107.852 159.899 108.158 159.469C108.235 159.363 108.382 159.169 108.417 159.128C108.576 158.934 108.735 158.74 108.9 158.545C109.553 157.792 110.265 157.086 111.019 156.438C111.201 156.28 111.389 156.132 111.578 155.979C111.648 155.932 111.713 155.879 111.784 155.832C112.219 155.52 112.666 155.22 113.125 154.938C113.549 154.679 113.985 154.432 114.432 154.208C114.638 154.102 114.844 154.002 115.05 153.902C115.156 153.855 115.262 153.808 115.362 153.761C115.374 153.761 115.374 153.755 115.385 153.749C115.391 153.749 115.397 153.749 115.403 153.743C116.333 153.384 117.274 153.078 118.246 152.86C118.505 152.801 118.769 152.748 119.028 152.701C119.099 152.689 119.393 152.648 119.505 152.625C119.652 152.613 119.799 152.595 119.946 152.584C120.211 152.56 120.482 152.548 120.747 152.536C121.247 152.519 121.747 152.525 122.242 152.554C122.471 152.566 122.701 152.584 122.93 152.607C122.977 152.607 123.06 152.613 123.148 152.619C123.177 152.625 123.219 152.636 123.289 152.648C124.307 152.831 125.314 153.066 126.297 153.402C126.514 153.478 126.732 153.555 126.944 153.637C127.015 153.666 127.338 153.802 127.415 153.831C127.568 153.902 127.78 154.002 127.833 154.025C128.074 154.143 128.315 154.267 128.556 154.39C129.48 154.879 130.351 155.444 131.199 156.056C131.234 156.085 131.258 156.097 131.275 156.109C131.293 156.127 131.305 156.138 131.34 156.162C131.546 156.332 131.758 156.503 131.964 156.686C132.37 157.039 132.764 157.41 133.147 157.792C133.5 158.151 133.841 158.516 134.165 158.898C134.324 159.081 134.477 159.275 134.636 159.464C134.642 159.469 134.659 159.493 134.677 159.516C134.736 159.593 134.824 159.717 134.842 159.74C135.56 160.723 136.207 161.759 136.772 162.83C137.055 163.371 137.319 163.919 137.573 164.472C137.573 164.478 137.578 164.49 137.584 164.507C137.626 164.613 137.731 164.854 137.743 164.902C137.849 165.166 137.949 165.431 138.043 165.702C138.455 166.855 138.797 168.033 139.067 169.227C139.203 169.822 139.32 170.428 139.421 171.028C139.432 171.099 139.468 171.305 139.497 171.47C139.509 171.534 139.515 171.605 139.526 171.67C139.373 171.723 139.22 171.782 139.067 171.834C136.443 172.723 133.753 173.4 131.022 173.871H131.046ZM156.835 161.441C156.317 161.9 155.787 162.353 155.258 162.789C154.963 163.036 154.663 163.277 154.363 163.513C154.228 163.619 154.092 163.736 153.951 163.836C154.581 163.383 153.922 163.854 153.792 163.954C151.456 165.714 148.984 167.297 146.4 168.668C145.959 168.904 145.506 169.121 145.053 169.345C144.335 165.366 143.005 161.512 140.815 158.075C138.196 153.967 134.459 150.524 129.969 148.57C125.308 146.545 120.158 146.051 115.262 147.575C110.424 149.082 106.346 152.16 103.332 156.203C100.584 159.893 98.9951 164.39 98.4301 168.962C98.1182 168.809 97.8004 168.662 97.4943 168.503C96.3291 167.909 95.1815 167.273 94.0633 166.602C92.9156 165.914 91.7857 165.19 90.6852 164.425C90.1496 164.054 89.6199 163.672 89.0903 163.277C88.9902 163.201 88.8902 163.13 88.7901 163.054C88.7313 162.877 88.0545 162.477 87.9132 162.365C86.2359 161.011 84.6411 159.558 83.1227 158.027C87.0481 157.062 90.7263 155.226 93.8102 152.536C97.2648 149.517 99.8955 145.286 100.767 140.76C101.632 136.258 100.984 131.696 98.9009 127.612C96.7822 123.469 93.1334 120.114 89.0138 118.019C82.8225 114.864 75.7367 114.199 68.8981 114.841C68.8981 114.823 68.8981 114.811 68.8981 114.794C68.8981 114.788 68.8981 114.782 68.8981 114.776C68.8981 114.77 68.8981 114.764 68.8981 114.758C68.9276 114.564 68.957 114.37 68.9864 114.176C69.1159 113.322 69.263 112.469 69.4337 111.622C69.7692 109.927 70.1811 108.243 70.6696 106.584C71.1345 105.001 71.6701 103.435 72.2704 101.893C72.3881 101.587 72.5117 101.287 72.6352 100.981C72.5764 101.14 72.9001 100.357 72.9766 100.198C73.1237 99.8685 73.2885 99.5507 73.4356 99.227C77.3669 102.376 81.7632 104.989 86.642 106.336C91.4561 107.667 96.847 107.743 101.543 105.889C105.84 104.194 109.506 101.263 111.831 97.2319C114.291 92.965 114.938 88.0507 114.232 83.2248C113.52 78.3811 111.119 73.7964 107.746 70.2123C108.812 69.9239 109.889 69.6649 110.971 69.4472C111.595 69.3177 112.219 69.2059 112.849 69.0999C113.149 69.047 113.449 68.9999 113.743 68.9587C113.861 68.941 113.985 68.9234 114.102 68.9057C114.155 68.8998 114.197 68.8939 114.232 68.8881C115.491 68.735 116.751 68.6114 118.016 68.5349C120.617 68.3819 123.224 68.4172 125.82 68.6409C126.426 68.6938 127.026 68.7527 127.632 68.8233C127.78 68.841 127.927 68.8586 128.068 68.8763C128.415 68.9351 128.762 68.9763 129.11 69.0352C130.404 69.2471 131.693 69.5001 132.97 69.8003C133.688 69.971 134.406 70.1593 135.118 70.3594C132.246 73.4669 130.098 77.3041 129.121 81.4003C127.956 86.2851 128.374 91.3583 130.493 95.9136C132.317 99.8391 135.642 103.164 139.532 105.048C144.176 107.302 149.308 107.749 154.345 106.801C159.854 105.766 164.845 102.947 169.229 99.4977C169.253 99.5448 169.276 99.5919 169.306 99.6449C169.594 100.239 169.871 100.845 170.141 101.452C170.224 101.634 170.3 101.817 170.377 101.999C170.583 102.476 170.347 101.899 170.312 101.846C170.512 102.164 170.618 102.593 170.753 102.941C171.277 104.277 171.754 105.636 172.178 107.007C172.966 109.573 173.566 112.204 173.978 114.858C168.017 114.288 161.743 114.652 156.146 116.954C151.426 118.896 147.265 122.003 144.564 126.388C142.316 130.031 141.204 134.527 141.71 138.794C142.269 143.526 144.317 147.811 147.613 151.259C150.997 154.808 155.452 157.115 160.201 158.169C160.107 158.269 160.013 158.375 159.919 158.475C158.918 159.505 157.882 160.493 156.811 161.447L156.835 161.441ZM150.685 145.886C150.732 145.945 150.779 145.998 150.785 146.004C150.761 145.992 150.72 145.939 150.685 145.886ZM174.402 126.682C174.355 127.312 174.296 127.942 174.226 128.571C174.19 128.871 174.155 129.172 174.12 129.472C174.12 129.478 174.12 129.484 174.12 129.489C174.09 129.678 174.067 129.866 174.037 130.054C173.625 132.75 173.007 135.41 172.195 138.006C171.789 139.312 171.33 140.601 170.824 141.872C170.765 142.019 170.706 142.166 170.647 142.314C170.624 142.372 170.6 142.431 170.577 142.49C170.453 142.784 170.477 142.726 170.647 142.319C170.647 142.573 170.365 142.973 170.265 143.196C169.976 143.838 169.676 144.479 169.364 145.109C168.129 147.61 166.698 150.018 165.092 152.295C164.945 152.501 164.798 152.701 164.65 152.901C164.233 152.878 163.815 152.842 163.403 152.801C163.403 152.801 163.385 152.801 163.379 152.801C163.291 152.79 163.167 152.772 163.12 152.766C162.767 152.713 162.414 152.648 162.067 152.578C160.819 152.325 159.589 151.971 158.4 151.518C158.288 151.477 158.177 151.43 158.065 151.389C158.024 151.371 157.9 151.318 157.812 151.283C157.747 151.253 157.688 151.224 157.665 151.212C157.559 151.165 157.447 151.112 157.341 151.059C156.729 150.765 156.134 150.447 155.552 150.1C155.04 149.794 154.54 149.464 154.051 149.117C153.951 149.041 153.845 148.97 153.745 148.893C153.727 148.876 153.716 148.87 153.692 148.846C153.445 148.64 153.198 148.434 152.962 148.222C152.144 147.487 151.409 146.686 150.702 145.845C150.667 145.804 150.644 145.78 150.626 145.757C150.602 145.721 150.585 145.692 150.579 145.68C150.449 145.503 150.32 145.321 150.196 145.139C149.902 144.703 149.62 144.256 149.361 143.797C149.137 143.402 148.931 142.996 148.737 142.584C148.719 142.543 148.701 142.502 148.678 142.461C148.613 142.237 148.49 142.013 148.413 141.796C148.095 140.919 147.848 140.012 147.677 139.094C147.642 138.906 147.636 138.682 147.577 138.494C147.589 138.529 147.595 138.541 147.601 138.571C147.589 138.518 147.577 138.465 147.577 138.418C147.53 137.964 147.507 137.505 147.501 137.046C147.495 136.587 147.501 136.134 147.536 135.675C147.548 135.475 147.566 135.275 147.589 135.081C147.589 135.028 147.601 134.98 147.607 134.927C147.772 134.021 147.972 133.132 148.26 132.256C148.325 132.061 148.39 131.873 148.46 131.685C148.472 131.655 148.513 131.543 148.554 131.432C148.49 131.602 148.69 131.126 148.737 131.02C148.849 130.778 148.966 130.543 149.09 130.313C149.508 129.525 150.002 128.789 150.52 128.065C150.579 127.989 150.661 127.883 150.685 127.847C150.844 127.659 151.003 127.471 151.167 127.288C151.503 126.918 151.85 126.553 152.209 126.211C152.58 125.858 152.962 125.517 153.357 125.193C153.41 125.152 153.463 125.111 153.516 125.064C153.739 124.905 153.957 124.74 154.186 124.581C155.093 123.957 156.046 123.404 157.035 122.916C157.341 122.762 157.653 122.621 157.971 122.48C158.489 122.25 158.088 122.433 157.982 122.48C158.183 122.403 158.383 122.321 158.583 122.245C159.307 121.974 160.036 121.733 160.784 121.527C161.484 121.332 162.196 121.162 162.914 121.015C163.338 120.932 163.762 120.856 164.185 120.785C164.315 120.767 164.444 120.75 164.568 120.726C164.586 120.726 164.592 120.726 164.603 120.72C164.633 120.72 164.65 120.72 164.692 120.709C167.817 120.361 170.948 120.385 174.078 120.691C174.237 120.709 174.39 120.697 174.543 120.679C174.567 121.309 174.579 121.939 174.579 122.574C174.579 123.934 174.526 125.299 174.42 126.659L174.402 126.682Z" fill="#222222"/>
<path d="M101.137 72.4426C100.49 72.8252 100.937 72.525 101.137 72.4426V72.4426Z" fill="#222222"/>
<path d="M72.2998 141.907C72.3292 141.984 72.3645 142.06 72.3939 142.137C72.3939 142.137 72.3939 142.143 72.3939 142.149C72.3175 141.96 72.2939 141.902 72.2939 141.913L72.2998 141.907Z" fill="#222222"/>
<path d="M151.897 101.298C151.962 101.287 152.032 101.269 152.109 101.263C152.056 101.263 151.944 101.275 151.862 101.298C151.874 101.298 151.885 101.298 151.903 101.298H151.897Z" fill="#222222"/>
<path d="M157.835 99.6564C157.835 99.6564 157.847 99.6564 157.853 99.6505C157.906 99.627 157.953 99.6034 158.006 99.5799C158.1 99.5387 158.13 99.5211 157.835 99.6564Z" fill="#222222"/>
<path d="M147.589 138.6C147.648 138.882 147.76 139.141 147.589 138.6V138.6Z" fill="#222222"/>
<path d="M94.2634 131.484C94.1987 131.396 94.1457 131.296 94.0928 131.19C94.1045 131.237 94.1575 131.337 94.2693 131.496C94.2693 131.496 94.2693 131.49 94.2693 131.484H94.2634Z" fill="#222222"/>
<path d="M84.8173 122.497C84.7703 122.48 84.7174 122.462 84.6703 122.439C84.5585 122.397 84.4938 122.374 84.8173 122.497Z" fill="#222222"/>
<path d="M90.9204 101.269C90.9204 101.269 90.9557 101.275 90.9793 101.281C91.0205 101.281 91.0617 101.293 91.1028 101.298C91.2735 101.31 91.3912 101.269 90.9263 101.275L90.9204 101.269Z" fill="#222222"/>
<path d="M107.452 92.9767C107.487 92.8826 107.529 92.7884 107.576 92.7001C107.576 92.6884 107.587 92.6707 107.593 92.6589C107.387 92.9297 107.393 93.0415 107.452 92.9767Z" fill="#222222"/>
<path d="M95.8936 101.322C95.8936 101.322 95.9112 101.322 95.9171 101.322C95.9759 101.305 96.0878 101.293 96.1702 101.281C96.2996 101.234 96.0466 101.193 95.8936 101.322Z" fill="#222222"/>
<path d="M122.536 102.481C121.006 102.481 119.534 103.829 119.605 105.412C119.676 107.001 120.894 108.343 122.536 108.343C124.066 108.343 125.537 106.996 125.467 105.412C125.396 103.823 124.178 102.481 122.536 102.481Z" fill="#222222"/>
<path d="M105.545 114.182C104.015 114.182 102.544 115.529 102.614 117.113C102.685 118.702 103.903 120.043 105.545 120.043C107.075 120.043 108.547 118.696 108.476 117.113C108.405 115.524 107.187 114.182 105.545 114.182Z" fill="#222222"/>
<path d="M110.836 133.126C109.306 133.126 107.835 134.474 107.905 136.057C107.976 137.646 109.194 138.988 110.836 138.988C112.366 138.988 113.838 137.641 113.767 136.057C113.696 134.468 112.478 133.126 110.836 133.126Z" fill="#222222"/>
<path d="M132.005 133.126C130.475 133.126 129.004 134.474 129.074 136.057C129.145 137.646 130.363 138.988 132.005 138.988C133.535 138.988 135.007 137.641 134.936 136.057C134.865 134.468 133.647 133.126 132.005 133.126Z" fill="#222222"/>
<path d="M138.973 113.346C137.443 113.346 135.972 114.694 136.042 116.277C136.113 117.866 137.331 119.208 138.973 119.208C140.503 119.208 141.975 117.86 141.904 116.277C141.834 114.688 140.615 113.346 138.973 113.346Z" fill="#222222"/>
<path d="M125.149 73.4255C124.584 73.296 123.954 73.3255 123.454 73.6492C123.307 73.761 123.159 73.8787 123.006 73.9905C122.736 74.2671 122.547 74.5908 122.441 74.9616C122.171 75.6325 121.971 76.3329 121.859 77.0509C121.723 77.9455 121.635 78.8224 121.7 79.7228C121.741 80.3114 121.918 80.8528 122.341 81.2766C122.724 81.6591 123.348 81.9475 123.895 81.9181C124.466 81.8945 125.054 81.7062 125.449 81.2766C125.825 80.8646 126.131 80.2996 126.09 79.7228C126.049 79.1637 126.067 78.6046 126.126 78.0455C126.243 77.3864 126.42 76.7449 126.673 76.1269C126.873 75.6325 126.708 74.8733 126.449 74.4319C126.184 73.9787 125.661 73.5432 125.137 73.4196L125.149 73.4255Z" fill="#222222"/>
<path d="M170.871 52.9917C171.495 53.3448 172.089 53.7391 172.66 54.1688C173.584 54.9162 174.426 55.7578 175.173 56.6818C175.603 57.2527 175.997 57.8471 176.35 58.4709C176.915 59.4715 178.369 59.8952 179.358 59.2596C180.37 58.6063 180.752 57.3233 180.146 56.2522C178.498 53.3213 176.021 50.8435 173.09 49.1956C172.089 48.6306 170.642 48.9249 170.083 49.9843C169.535 51.026 169.8 52.3914 170.871 52.9917Z" fill="#222222"/>
<path d="M35.8351 95.3308C34.6757 95.066 33.4516 95.6781 33.1338 96.8669C32.151 100.486 31.174 104.106 30.1912 107.725C29.891 108.832 30.5678 110.162 31.7272 110.427C32.8866 110.692 34.1107 110.08 34.4285 108.891C35.4114 105.271 36.3883 101.652 37.3711 98.0322C37.6713 96.9258 36.9945 95.5957 35.8351 95.3308Z" fill="#222222"/>
<path d="M172.077 187.407C172.001 187.472 171.924 187.531 171.848 187.595C171.66 187.743 171.695 187.719 171.942 187.525C171.824 187.66 171.607 187.772 171.465 187.878C171.142 188.107 170.812 188.331 170.477 188.543C169.806 188.967 169.111 189.349 168.399 189.696C168.223 189.785 168.04 189.867 167.858 189.95C167.799 189.979 167.734 190.003 167.669 190.032C167.31 190.173 166.951 190.314 166.587 190.438C165.839 190.697 165.074 190.909 164.297 191.085C163.173 191.338 162.408 192.698 162.761 193.787C163.144 194.964 164.262 195.594 165.463 195.323C169.052 194.517 172.336 192.827 175.185 190.52C176.085 189.797 175.997 188.16 175.185 187.413C174.231 186.536 173.037 186.636 172.077 187.413V187.407Z" fill="#222222"/>
</g>
<defs>
<clipPath id="clip0_633_2532">
<rect width="243" height="243" fill="white"/>
</clipPath>
</defs>
</svg>
