<svg width="69" height="38" viewBox="0 0 69 38" fill="none" xmlns="http://www.w3.org/2000/svg">
<path d="M8.43373 35.3257C8.77957 35.3257 9.05963 35.2321 9.2718 35.0426C9.48397 34.8532 9.59006 34.6042 9.59006 34.2955V19.9302C9.59006 19.6215 9.48397 19.3725 9.2718 19.1831C9.05963 18.9936 8.77957 18.9 8.43373 18.9C8.08789 18.9 7.80783 18.9936 7.59566 19.1831C7.38348 19.3725 7.2774 19.6215 7.2774 19.9302V34.2955C7.2774 34.6042 7.38348 34.8532 7.59566 35.0426C7.80783 35.2321 8.08789 35.3257 8.43373 35.3257Z" fill="#222222"/>
<path d="M8.43373 35.8259C7.96483 35.8259 7.5702 35.6876 7.26679 35.4151C6.94854 35.132 6.78092 34.7446 6.78092 34.2955V19.9302C6.78092 19.481 6.94854 19.0937 7.26679 18.8106C7.57232 18.5381 7.96483 18.3998 8.43373 18.3998C8.90263 18.3998 9.29726 18.5381 9.60067 18.8106C9.91892 19.0937 10.0865 19.481 10.0865 19.9302V34.2955C10.0865 34.7446 9.91892 35.132 9.60067 35.4151C9.29514 35.6876 8.90263 35.8259 8.43373 35.8259ZM8.43373 19.4002C8.21095 19.4002 8.04546 19.4513 7.92664 19.5577C7.85663 19.6215 7.776 19.7194 7.776 19.9302V34.2955C7.776 34.5062 7.85663 34.6063 7.92664 34.668C8.04546 34.7744 8.21095 34.8255 8.43373 34.8255C8.65651 34.8255 8.822 34.7744 8.94082 34.668C9.01083 34.6042 9.09146 34.5062 9.09146 34.2955V19.9302C9.09146 19.7194 9.01083 19.6194 8.94082 19.5577C8.822 19.4513 8.65651 19.4002 8.43373 19.4002Z" fill="#222222"/>
<path d="M7.51079 30.7005L8.85595 29.219L2.19167 23.2528C1.97526 23.0506 1.73338 22.9548 1.46393 22.9697C1.19659 22.9846 0.967446 23.0995 0.780736 23.3188C0.579174 23.5359 0.483697 23.7764 0.498549 24.0382C0.513401 24.3 0.627973 24.532 0.846509 24.7342L7.51079 30.7005Z" fill="#222222"/>
<path d="M7.54686 31.4007L0.515522 25.1046C0.195145 24.8045 0.0254083 24.4554 0.00206951 24.0637C-0.0191476 23.6678 0.123007 23.2911 0.417924 22.9761C0.681015 22.6717 1.03746 22.4908 1.43846 22.4695C1.83947 22.4461 2.21713 22.5929 2.53114 22.8867L9.56248 29.1828L7.54686 31.4007ZM1.51909 23.4678C1.51909 23.4678 1.49999 23.4678 1.49151 23.4678C1.35996 23.4741 1.256 23.5295 1.15628 23.6444C1.00351 23.8083 0.990784 23.9254 0.995028 24.0084C0.999271 24.0893 1.02473 24.217 1.18598 24.3681L7.47472 29.998L8.14942 29.2552L1.86068 23.6231C1.71641 23.489 1.60396 23.4656 1.51909 23.4656V23.4678Z" fill="#222222"/>
<path d="M0.905916 35.1661C1.15203 35.3853 1.42998 35.4896 1.73975 35.479C2.05164 35.4683 2.31473 35.3406 2.53326 35.0958L7.64445 29.3063L6.04469 27.6524L0.808318 33.5569C0.589782 33.8038 0.485818 34.0742 0.496427 34.37C0.507036 34.6659 0.642825 34.9319 0.903795 35.1682L0.905916 35.1661Z" fill="#222222"/>
<path d="M1.69731 35.9771C1.27934 35.9771 0.903795 35.8302 0.57493 35.5386H0.572809C0.209997 35.2065 0.0169215 34.8213 0.00206951 34.3849C-0.0127824 33.9592 0.133615 33.5676 0.439141 33.2228L6.02984 26.916L8.3234 29.2893L2.90669 35.4258C2.59904 35.7727 2.20228 35.9643 1.75672 35.9771C1.73763 35.9771 1.71853 35.9771 1.69731 35.9771ZM1.2369 34.7936C1.38754 34.9256 1.54243 34.9852 1.72277 34.9809C1.89887 34.9745 2.03254 34.9085 2.16197 34.7638L6.96551 29.3212L6.05954 28.3846L1.17962 33.889C1.04595 34.038 0.988663 34.187 0.992906 34.353C0.99715 34.453 1.02473 34.6084 1.23478 34.7979L1.2369 34.7936Z" fill="#222222"/>
<path d="M64.8584 35.479C65.5585 35.479 66.1802 35.2874 66.7212 34.9043C67.2623 34.5211 67.6845 33.9975 67.9879 33.3356C68.2913 32.6736 68.4419 31.9095 68.4419 31.0474V17.9655C68.4419 17.6143 68.3316 17.327 68.1067 17.1035C67.8839 16.88 67.5975 16.7672 67.2474 16.7672C66.8973 16.7672 66.6109 16.88 66.3881 17.1035C66.1654 17.327 66.0529 17.6143 66.0529 17.9655V31.0474C66.0529 31.6391 65.9426 32.1244 65.7177 32.5097C65.4949 32.8928 65.2085 33.0844 64.8584 33.0844H64.2622C63.9439 33.0844 63.6851 33.1972 63.4856 33.4207C63.2862 33.6442 63.1865 33.9315 63.1865 34.2827C63.1865 34.634 63.3371 34.9213 63.6405 35.1448C63.9439 35.3683 64.3322 35.4811 64.8117 35.4811H64.8605L64.8584 35.479Z" fill="#222222"/>
<path d="M64.8584 35.9792H64.8096C64.2261 35.9792 63.7318 35.8344 63.3435 35.5471C62.9149 35.2299 62.6879 34.7915 62.6879 34.2827C62.6879 33.8081 62.83 33.4058 63.1122 33.0887C63.405 32.7587 63.8018 32.5863 64.2601 32.5863H64.8563C64.9284 32.5863 65.096 32.5863 65.287 32.2585C65.4631 31.9542 65.5543 31.5476 65.5543 31.0495V17.9677C65.5543 17.4824 65.7156 17.0716 66.0338 16.7523C66.3542 16.433 66.7616 16.2712 67.2453 16.2712C67.729 16.2712 68.1385 16.433 68.4568 16.7523C68.775 17.0716 68.9363 17.4824 68.9363 17.9677V31.0495C68.9363 31.9818 68.7687 32.8205 68.4377 33.5463C68.1003 34.287 67.6187 34.883 67.0055 35.3151C66.3818 35.7578 65.6583 35.9813 64.8563 35.9813L64.8584 35.9792ZM64.2622 33.5825C64.0861 33.5825 63.9609 33.6336 63.8569 33.7506C63.7424 33.8805 63.6851 34.055 63.6851 34.2806C63.6851 34.4743 63.7593 34.6105 63.9354 34.7425C64.1497 34.9 64.4425 34.9809 64.8096 34.9809H64.8584C65.4588 34.9809 65.9744 34.8234 66.4348 34.4977C66.9016 34.1678 67.2708 33.7059 67.536 33.1291C67.8075 32.5352 67.9455 31.835 67.9455 31.0495V17.9677C67.9455 17.7484 67.8861 17.5867 67.7566 17.4568C67.6272 17.3291 67.466 17.2674 67.2495 17.2674C67.0331 17.2674 66.8698 17.327 66.7403 17.4568C66.613 17.5867 66.5515 17.7484 66.5515 17.9655V31.0474C66.5515 31.7264 66.4157 32.3032 66.1484 32.7609C65.7537 33.4399 65.2297 33.5825 64.8584 33.5825H64.2622Z" fill="#222222"/>
<path d="M39.2685 35.479C38.5683 35.479 37.9467 35.2874 37.4056 34.9043C36.8646 34.5211 36.4424 33.9975 36.139 33.3356C35.8356 32.6736 35.6849 31.9095 35.6849 31.0474V17.9655C35.6849 17.6143 35.7953 17.327 36.0202 17.1035C36.2429 16.88 36.5294 16.7672 36.8794 16.7672C37.2295 16.7672 37.516 16.88 37.7387 17.1035C37.9615 17.327 38.074 17.6143 38.074 17.9655V31.0474C38.074 31.6391 38.1843 32.1244 38.4092 32.5097C38.632 32.8928 38.9184 33.0844 39.2685 33.0844H39.8647C40.1829 33.0844 40.4418 33.1972 40.6412 33.4207C40.8407 33.6442 40.9404 33.9315 40.9404 34.2827C40.9404 34.634 40.7897 34.9213 40.4863 35.1448C40.1829 35.3683 39.7947 35.4811 39.3152 35.4811H39.2664L39.2685 35.479Z" fill="#222222"/>
<path d="M39.3152 35.9792H39.2664C38.4644 35.9792 37.7409 35.7557 37.1171 35.313C36.506 34.8787 36.0244 34.2849 35.6849 33.5442C35.3539 32.8205 35.1863 31.9797 35.1863 31.0495V17.9677C35.1863 17.4802 35.3476 17.0716 35.6658 16.7523C35.9841 16.433 36.3936 16.2712 36.8773 16.2712C37.3611 16.2712 37.7684 16.433 38.0888 16.7523C38.4071 17.0737 38.5704 17.4824 38.5704 17.9677V31.0495C38.5704 31.5476 38.6596 31.9563 38.8378 32.2585C39.0287 32.5863 39.1963 32.5863 39.2685 32.5863H39.8647C40.323 32.5863 40.7197 32.7609 41.0125 33.0887C41.2947 33.4058 41.4369 33.8081 41.4369 34.2827C41.4369 34.7915 41.2098 35.2299 40.7813 35.5471C40.393 35.8344 39.8986 35.9792 39.3152 35.9792ZM36.8794 17.2674C36.6609 17.2674 36.4997 17.327 36.3702 17.4568C36.2429 17.5867 36.1814 17.7484 36.1814 17.9655V31.0474C36.1814 31.835 36.3193 32.5331 36.5909 33.127C36.854 33.7059 37.2253 34.1657 37.6921 34.4956C38.1525 34.8213 38.668 34.9788 39.2685 34.9788H39.3173C39.6843 34.9788 39.9793 34.8979 40.1914 34.7404C40.3675 34.6105 40.4418 34.4722 40.4418 34.2785C40.4418 34.0529 40.3845 33.8783 40.2699 33.7485C40.166 33.6314 40.0408 33.5803 39.8647 33.5803H39.2685C38.8972 33.5803 38.3731 33.4377 37.9785 32.7566C37.7112 32.299 37.5775 31.7221 37.5775 31.0431V17.9613C37.5775 17.7421 37.5181 17.5803 37.3886 17.4504C37.2592 17.3227 37.098 17.261 36.8816 17.261L36.8794 17.2674Z" fill="#222222"/>
<path d="M64.8584 13.5702C65.5585 13.5702 66.1802 13.7617 66.7212 14.1449C67.2623 14.528 67.6845 15.0516 67.9879 15.7136C68.2913 16.3755 68.4419 17.1397 68.4419 18.0017V31.0836C68.4419 31.4348 68.3316 31.7221 68.1067 31.9456C67.8839 32.1691 67.5975 32.2819 67.2474 32.2819C66.8973 32.2819 66.6109 32.1691 66.3881 31.9456C66.1654 31.7221 66.0529 31.4348 66.0529 31.0836V18.0017C66.0529 17.41 65.9426 16.9247 65.7177 16.5394C65.4949 16.1563 65.2085 15.9647 64.8584 15.9647H64.2622C63.9439 15.9647 63.6851 15.8519 63.4856 15.6284C63.2862 15.4049 63.1865 15.1176 63.1865 14.7664C63.1865 14.4152 63.3371 14.1278 63.6405 13.9043C63.9439 13.6808 64.3322 13.568 64.8117 13.568H64.8605L64.8584 13.5702Z" fill="#222222"/>
<path d="M67.2474 32.7821C66.7637 32.7821 66.3542 32.6204 66.0359 32.3011C65.7177 31.9797 65.5543 31.571 65.5543 31.0857V18.0039C65.5543 17.5058 65.4652 17.0971 65.2891 16.7949C65.0981 16.4671 64.9305 16.4671 64.8584 16.4671H64.2622C63.8039 16.4671 63.4071 16.2925 63.1143 15.9647C62.8321 15.6476 62.69 15.2453 62.69 14.7706C62.69 14.2619 62.917 13.8235 63.3456 13.5063C63.7339 13.219 64.2261 13.0742 64.8117 13.0742H64.8605C65.6625 13.0742 66.386 13.2977 67.0098 13.7404C67.6208 14.1747 68.1025 14.7685 68.4419 15.5092C68.7729 16.2329 68.9405 17.0737 68.9405 18.0039V31.0857C68.9405 31.5732 68.7793 31.9818 68.461 32.3011C68.1428 32.6204 67.7354 32.7821 67.2495 32.7821H67.2474ZM64.8117 14.0704C64.4446 14.0704 64.1497 14.1512 63.9376 14.3088C63.7615 14.4386 63.6872 14.5769 63.6872 14.7706C63.6872 14.9963 63.7445 15.1708 63.8591 15.3006C63.963 15.4177 64.0882 15.4688 64.2643 15.4688H64.8605C65.2318 15.4688 65.7559 15.6114 66.1505 16.2925C66.4178 16.7502 66.5515 17.327 66.5515 18.006V31.0878C66.5515 31.3071 66.6109 31.4689 66.7403 31.5987C66.8698 31.7264 67.031 31.7881 67.2474 31.7881C67.4638 31.7881 67.6272 31.7285 67.7566 31.5987C67.8839 31.4689 67.9455 31.3071 67.9455 31.09V18.0081C67.9455 17.2206 67.8075 16.5224 67.536 15.9286C67.2729 15.3496 66.9016 14.8898 66.4348 14.5599C65.9744 14.2343 65.4588 14.0767 64.8584 14.0767H64.8096L64.8117 14.0704Z" fill="#222222"/>
<path d="M22.7552 36.9966C21.4652 36.9966 20.328 36.7135 19.3393 36.1452C18.3527 35.579 17.5762 34.7957 17.0118 33.7975C16.4474 32.7992 16.1631 31.654 16.1631 30.3599C16.1631 29.0658 16.4453 27.8972 17.0118 26.8968C17.5762 25.8985 18.3527 25.1152 19.3393 24.549C20.3259 23.9829 21.4652 23.6976 22.7552 23.6976C24.0452 23.6976 25.1591 23.9807 26.1457 24.549C27.1323 25.1152 27.9089 25.8985 28.4732 26.8968C29.0376 27.8951 29.3219 29.0487 29.3219 30.3599C29.3219 31.6711 29.044 32.7992 28.486 33.7975C27.928 34.7957 27.1557 35.579 26.1691 36.1452C25.1825 36.7114 24.0431 36.9966 22.7531 36.9966H22.7552ZM22.7552 34.8404C23.5827 34.8404 24.3147 34.6489 24.9533 34.2657C25.5898 33.8826 26.0884 33.3547 26.4449 32.6842C26.8013 32.0138 26.9817 31.239 26.9817 30.3599C26.9817 29.4808 26.8035 28.7039 26.4449 28.0249C26.0863 27.3459 25.5898 26.8159 24.9533 26.4307C24.3168 26.0475 23.5848 25.856 22.7552 25.856C21.9257 25.856 21.1958 26.0475 20.5572 26.4307C19.9206 26.8138 19.4178 27.3459 19.0529 28.0249C18.6858 28.7039 18.5033 29.4829 18.5033 30.3599C18.5033 31.2368 18.6858 32.0138 19.0529 32.6842C19.4199 33.3547 19.9206 33.8826 20.5572 34.2657C21.1937 34.6489 21.9257 34.8404 22.7552 34.8404Z" fill="#222222"/>
<path d="M22.7552 37.4968C21.3825 37.4968 20.1519 37.1882 19.0932 36.5794C18.0323 35.9707 17.1858 35.1171 16.579 34.0444C15.9743 32.9758 15.6666 31.7349 15.6666 30.3599C15.6666 28.9849 15.9743 27.7205 16.579 26.652C17.1858 25.5792 18.0323 24.7278 19.0932 24.117C20.1519 23.5082 21.3846 23.1996 22.7552 23.1996C24.1259 23.1996 25.3331 23.5082 26.394 24.1148C27.4548 24.7236 28.3014 25.5771 28.9082 26.6499C29.5129 27.7205 29.8205 28.9678 29.8205 30.3578C29.8205 31.7477 29.5171 32.9695 28.9209 34.0401C28.3205 35.115 27.4782 35.9685 26.4173 36.5773C25.3586 37.1861 24.1259 37.4947 22.7552 37.4947V37.4968ZM22.7552 24.2C21.5607 24.2 20.4935 24.4639 19.5875 24.9854C18.6837 25.5048 17.9623 26.2327 17.4446 27.1458C16.9248 28.0632 16.6617 29.1445 16.6617 30.362C16.6617 31.5795 16.9248 32.6374 17.4446 33.5527C17.9623 34.4679 18.6837 35.1959 19.5875 35.7131C20.4935 36.2346 21.5586 36.4985 22.7552 36.4985C23.9519 36.4985 25.017 36.2346 25.923 35.7131C26.8268 35.1938 27.5418 34.4679 28.0531 33.5548C28.5666 32.6374 28.8254 31.5625 28.8254 30.3599C28.8254 29.1573 28.5624 28.0632 28.0425 27.1437C27.5248 26.2284 26.8035 25.5026 25.8996 24.9833C24.9936 24.4639 23.9349 24.2 22.7552 24.2ZM22.7552 35.3406C21.8387 35.3406 21.0133 35.1235 20.3026 34.6936C19.5918 34.2657 19.0253 33.6697 18.6179 32.9248C18.2127 32.184 18.0069 31.3199 18.0069 30.362C18.0069 29.4042 18.2127 28.5379 18.6158 27.7887C19.0232 27.033 19.5897 26.4328 20.3026 26.005C21.0133 25.5771 21.8387 25.3579 22.7552 25.3579C23.6718 25.3579 24.4972 25.575 25.2079 26.005C25.9208 26.4349 26.4852 27.0352 26.8841 27.7929C27.2787 28.5421 27.4803 29.4063 27.4803 30.362C27.4803 31.3177 27.2787 32.1798 26.8841 32.9226C26.4852 33.6697 25.9208 34.2679 25.2079 34.6957C24.495 35.1235 23.6697 35.3428 22.7552 35.3428V35.3406ZM22.7552 26.3562C22.0233 26.3562 21.3698 26.5264 20.8139 26.8606C20.2495 27.2012 19.8167 27.6588 19.4899 28.2633C19.1653 28.8657 18.9998 29.5702 18.9998 30.362C18.9998 31.1538 19.1632 31.8541 19.4878 32.4458C19.8146 33.044 20.2474 33.4995 20.8118 33.8379C21.3676 34.1721 22.0211 34.3424 22.7531 34.3424C23.4851 34.3424 24.1386 34.1721 24.6945 33.8379C25.2589 33.4995 25.6874 33.044 26.0036 32.448C26.3218 31.8541 26.481 31.1517 26.481 30.3599C26.481 29.5681 26.3197 28.8614 26.0015 28.2569C25.6832 27.6546 25.2546 27.1969 24.6924 26.8585C24.1365 26.5243 23.483 26.354 22.751 26.354L22.7552 26.3562Z" fill="#222222"/>
<path d="M22.7425 34.7979C25.1915 34.7979 27.1769 32.8061 27.1769 30.3493C27.1769 27.8924 25.1915 25.9007 22.7425 25.9007C20.2935 25.9007 18.3081 27.8924 18.3081 30.3493C18.3081 32.8061 20.2935 34.7979 22.7425 34.7979Z" fill="#222222"/>
<path d="M22.7425 35.2981C20.0225 35.2981 17.8095 33.078 17.8095 30.3493C17.8095 27.6205 20.0225 25.4005 22.7425 25.4005C25.4625 25.4005 27.6755 27.6205 27.6755 30.3493C27.6755 33.078 25.4625 35.2981 22.7425 35.2981ZM22.7425 26.3987C20.572 26.3987 18.8046 28.1697 18.8046 30.3493C18.8046 32.5289 20.5699 34.2998 22.7425 34.2998C24.9151 34.2998 26.6804 32.5289 26.6804 30.3493C26.6804 28.1697 24.9151 26.3987 22.7425 26.3987Z" fill="#222222"/>
<path d="M52.6501 36.9966C51.3601 36.9966 50.2229 36.7135 49.2341 36.1452C48.2475 35.579 47.471 34.7957 46.9066 33.7975C46.3423 32.7992 46.0579 31.654 46.0579 30.3599C46.0579 29.0658 46.3401 27.8972 46.9066 26.8968C47.471 25.8985 48.2475 25.1152 49.2341 24.549C50.2207 23.9829 51.3601 23.6976 52.6501 23.6976C53.9401 23.6976 55.054 23.9807 56.0406 24.549C57.0272 25.1152 57.8037 25.8985 58.3681 26.8968C58.9325 27.8951 59.2168 29.0487 59.2168 30.3599C59.2168 31.6711 58.9388 32.7992 58.3808 33.7975C57.8228 34.7957 57.0505 35.579 56.0639 36.1452C55.0773 36.7114 53.938 36.9966 52.648 36.9966H52.6501ZM52.6501 34.8404C53.4775 34.8404 54.2095 34.6489 54.8482 34.2657C55.4847 33.8826 55.9833 33.3547 56.3397 32.6842C56.6962 32.0138 56.8765 31.239 56.8765 30.3599C56.8765 29.4808 56.6983 28.7039 56.3397 28.0249C55.9812 27.3459 55.4847 26.8159 54.8482 26.4307C54.2117 26.0475 53.4797 25.856 52.6501 25.856C51.8205 25.856 51.0906 26.0475 50.452 26.4307C49.8155 26.8138 49.3126 27.3459 48.9477 28.0249C48.5807 28.7039 48.3982 29.4829 48.3982 30.3599C48.3982 31.2368 48.5807 32.0138 48.9477 32.6842C49.3148 33.3547 49.8155 33.8826 50.452 34.2657C51.0885 34.6489 51.8205 34.8404 52.6501 34.8404Z" fill="#222222"/>
<path d="M52.6501 37.4968C51.2773 37.4968 50.0467 37.1882 48.988 36.5794C47.9272 35.9707 47.0806 35.1171 46.4738 34.0444C45.8691 32.9758 45.5615 31.7349 45.5615 30.3599C45.5615 28.9849 45.8691 27.7205 46.4738 26.652C47.0806 25.5792 47.9272 24.7278 48.988 24.117C50.0467 23.5082 51.2795 23.1996 52.6501 23.1996C54.0207 23.1996 55.228 23.5082 56.2888 24.1148C57.3497 24.7236 58.1962 25.5771 58.803 26.6499C59.4098 27.7205 59.7154 28.9678 59.7154 30.3578C59.7154 31.7477 59.412 32.9695 58.8158 34.0401C58.2153 35.115 57.373 35.9685 56.3121 36.5773C55.2534 37.1861 54.0207 37.4947 52.6501 37.4947V37.4968ZM52.6501 24.2C51.4556 24.2 50.3883 24.4639 49.4824 24.9854C48.5785 25.5048 47.8571 26.2327 47.3395 27.1458C46.8196 28.0632 46.5565 29.1445 46.5565 30.362C46.5565 31.5795 46.8196 32.6374 47.3395 33.5527C47.8571 34.4679 48.5785 35.1959 49.4824 35.7131C50.3883 36.2346 51.4534 36.4985 52.6501 36.4985C53.8467 36.4985 54.9118 36.2346 55.8178 35.7131C56.7216 35.1938 57.4367 34.4679 57.948 33.5548C58.4614 32.6374 58.7203 31.5625 58.7203 30.3599C58.7203 29.1573 58.4572 28.0632 57.9374 27.1437C57.4197 26.2284 56.6983 25.5026 55.7945 24.9833C54.8885 24.4639 53.8298 24.2 52.6501 24.2ZM52.6501 35.3406C51.7335 35.3406 50.9082 35.1235 50.1974 34.6936C49.4866 34.2657 48.9201 33.6697 48.5128 32.9248C48.1075 32.184 47.9017 31.3199 47.9017 30.362C47.9017 29.4042 48.1075 28.5379 48.5106 27.7887C48.918 27.033 49.4845 26.4328 50.1974 26.005C50.9082 25.5771 51.7335 25.3579 52.6501 25.3579C53.5667 25.3579 54.392 25.575 55.1028 26.005C55.8157 26.4349 56.38 27.0352 56.7789 27.7929C57.1736 28.5421 57.3751 29.4063 57.3751 30.362C57.3751 31.3177 57.1736 32.1798 56.7789 32.9226C56.38 33.6697 55.8157 34.2679 55.1028 34.6957C54.3899 35.1235 53.5645 35.3428 52.6501 35.3428V35.3406ZM52.6501 26.3562C51.9181 26.3562 51.2646 26.5264 50.7087 26.8606C50.1443 27.2012 49.7115 27.6588 49.3848 28.2633C49.0602 28.8657 48.8947 29.5702 48.8947 30.362C48.8947 31.1538 49.058 31.8541 49.3827 32.4458C49.7094 33.044 50.1422 33.4995 50.7066 33.8379C51.2625 34.1721 51.916 34.3424 52.648 34.3424C53.3799 34.3424 54.0334 34.1721 54.5893 33.8379C55.1537 33.4995 55.5823 33.044 55.8984 32.448C56.2167 31.8541 56.3758 31.1517 56.3758 30.3599C56.3758 29.5681 56.2146 28.8614 55.8963 28.2569C55.578 27.6546 55.1495 27.1969 54.5872 26.8585C54.0313 26.5243 53.3778 26.354 52.6458 26.354L52.6501 26.3562Z" fill="#222222"/>
<path d="M52.6374 34.7979C55.0864 34.7979 57.0717 32.8061 57.0717 30.3493C57.0717 27.8924 55.0864 25.9007 52.6374 25.9007C50.1883 25.9007 48.203 27.8924 48.203 30.3493C48.203 32.8061 50.1883 34.7979 52.6374 34.7979Z" fill="#222222"/>
<path d="M52.6374 35.2981C49.9173 35.2981 47.7044 33.078 47.7044 30.3493C47.7044 27.6205 49.9173 25.4005 52.6374 25.4005C55.3574 25.4005 57.5703 27.6205 57.5703 30.3493C57.5703 33.078 55.3574 35.2981 52.6374 35.2981ZM52.6374 26.3987C50.4668 26.3987 48.6995 28.1697 48.6995 30.3493C48.6995 32.5289 50.4647 34.2998 52.6374 34.2998C54.81 34.2998 56.5752 32.5289 56.5752 30.3493C56.5752 28.1697 54.81 26.3987 52.6374 26.3987Z" fill="#222222"/>
<path d="M68.9724 20.7071L65.6604 20.5347C65.8025 17.791 65.2997 16.7416 64.9793 16.5543C64.8881 16.5011 64.7459 16.4841 64.4213 16.4586C63.7827 16.4075 62.8173 16.3308 61.8286 15.4922C60.6341 14.479 60.2118 13.0487 59.8384 11.7886C59.6432 11.1309 59.5032 10.454 59.4204 9.77501C58.994 7.00582 58.4084 5.22638 58.0371 4.54312C57.8971 4.2877 57.774 4.08123 57.5533 3.95139C57.4557 3.89392 57.3412 3.85348 57.216 3.8322H27.8325C27.6415 3.8173 27.4824 3.83645 27.3572 3.88967C26.1924 4.36645 25.2207 7.52304 24.6414 9.40891C24.2298 10.7477 23.8734 11.9035 23.4087 12.6868C22.9717 13.419 22.3988 13.9107 22.2885 14.0022C22.1633 14.1044 21.4907 14.6365 20.5508 14.9282C20.0734 15.0771 19.422 15.124 18.1151 15.207C16.1737 15.3304 12.1361 15.5901 10.8822 16.6437C10.2817 17.1482 10.0038 18.3721 10.095 20.0898L6.78304 20.2686C6.62816 17.3994 7.29225 15.3219 8.75199 14.0938C10.8397 12.3377 15.0916 12.0653 17.905 11.8865C18.5521 11.8461 19.3563 11.7928 19.5897 11.7439C19.8549 11.6566 20.101 11.4949 20.188 11.4289C20.2601 11.365 20.4426 11.1841 20.5635 10.9819C20.8245 10.5413 21.1555 9.46851 21.4759 8.42979C22.3733 5.51373 23.4894 1.88248 26.1097 0.811832C26.6825 0.577695 27.3148 0.475527 27.9831 0.509583H57.4218L57.513 0.520226C58.1368 0.588338 58.716 0.779904 59.2401 1.08854C60.2691 1.69517 60.7486 2.57637 60.9544 2.95312C61.6461 4.22384 62.2869 6.53754 62.7091 9.30035L62.7155 9.35357C62.777 9.85803 62.8809 10.3625 63.0252 10.8499C63.2904 11.7439 63.5387 12.5889 63.9779 12.9593C64.1391 13.0955 64.2261 13.1125 64.6908 13.1487C65.2021 13.1892 65.9023 13.2445 66.6576 13.6872C68.4122 14.7132 69.1718 17.012 68.9787 20.7156L68.9724 20.7071Z" fill="#222222"/>
</svg>
