<svg width="449" height="241" viewBox="0 0 449 241" fill="none" xmlns="http://www.w3.org/2000/svg">
<path d="M54.7581 226.817C57.0036 226.817 58.822 226.207 60.1995 224.973C61.5771 223.739 62.2659 222.117 62.2659 220.107V126.538C62.2659 124.528 61.5771 122.905 60.1995 121.672C58.822 120.438 57.0036 119.828 54.7581 119.828C52.5127 119.828 50.6943 120.438 49.3167 121.672C47.9391 122.905 47.2504 124.528 47.2504 126.538V220.107C47.2504 222.117 47.9391 223.739 49.3167 224.973C50.6943 226.207 52.5127 226.817 54.7581 226.817Z" fill="#222222"/>
<path d="M54.7581 230.075C51.7137 230.075 49.1514 229.174 47.1815 227.399C45.1151 225.555 44.0268 223.032 44.0268 220.107V126.538C44.0268 123.613 45.1151 121.089 47.1815 119.245C49.1652 117.471 51.7137 116.57 54.7581 116.57C57.8026 116.57 60.3648 117.471 62.3348 119.245C64.4011 121.089 65.4894 123.613 65.4894 126.538V220.107C65.4894 223.032 64.4011 225.555 62.3348 227.399C60.3511 229.174 57.8026 230.075 54.7581 230.075ZM54.7581 123.086C53.3117 123.086 52.2372 123.418 51.4657 124.112C51.0111 124.528 50.4877 125.165 50.4877 126.538V220.107C50.4877 221.479 51.0111 222.131 51.4657 222.533C52.2372 223.226 53.3117 223.559 54.7581 223.559C56.2046 223.559 57.2791 223.226 58.0505 222.533C58.5051 222.117 59.0286 221.479 59.0286 220.107V126.538C59.0286 125.165 58.5051 124.514 58.0505 124.112C57.2791 123.418 56.2046 123.086 54.7581 123.086Z" fill="#222222"/>
<path d="M48.7657 196.69L57.4995 187.041L14.23 148.18C12.8249 146.863 11.2544 146.239 9.5049 146.336C7.76916 146.433 6.28139 147.182 5.06912 148.61C3.76043 150.024 3.14052 151.59 3.23695 153.296C3.33338 155.001 4.07727 156.512 5.49617 157.829L48.7657 196.69Z" fill="#222222"/>
<path d="M48.9999 201.252L3.34716 160.242C1.26703 158.287 0.16497 156.013 0.0134368 153.462C-0.12432 150.883 0.798653 148.429 2.71348 146.377C4.42167 144.395 6.73599 143.216 9.3396 143.078C11.9432 142.925 14.3953 143.882 16.4341 145.795L62.0868 186.805L48.9999 201.252ZM9.86307 149.58C9.86307 149.58 9.73909 149.58 9.68399 149.58C8.82989 149.622 8.15488 149.982 7.50743 150.731C6.51557 151.798 6.43292 152.561 6.46047 153.102C6.48802 153.628 6.65333 154.46 7.70029 155.445L48.5315 192.115L52.9122 187.277L12.081 150.592C11.1442 149.719 10.4141 149.566 9.86307 149.566V149.58Z" fill="#222222"/>
<path d="M5.88189 225.777C7.47987 227.205 9.28449 227.885 11.2957 227.815C13.3208 227.746 15.029 226.914 16.4479 225.32L49.6336 187.609L39.2467 176.837L5.24821 215.296C3.82931 216.904 3.1543 218.665 3.22318 220.592C3.29206 222.519 4.1737 224.252 5.86812 225.791L5.88189 225.777Z" fill="#222222"/>
<path d="M11.0202 231.059C8.30642 231.059 5.86812 230.103 3.73288 228.203H3.7191C1.36346 226.041 0.109867 223.531 0.0134368 220.689C-0.0829932 217.916 0.867531 215.365 2.85123 213.119L39.1502 172.04L54.0418 187.498L18.8724 227.469C16.8749 229.729 14.2989 230.976 11.406 231.059C11.282 231.059 11.158 231.059 11.0202 231.059ZM8.0309 223.351C9.00898 224.211 10.0146 224.599 11.1855 224.571C12.3289 224.529 13.1968 224.1 14.0371 223.157L45.2253 187.706L39.3431 181.606L7.65896 217.459C6.79109 218.429 6.41914 219.4 6.4467 220.481C6.47425 221.133 6.65333 222.145 8.01713 223.379L8.0309 223.351Z" fill="#222222"/>
<path d="M421.109 227.815C425.655 227.815 429.692 226.568 433.205 224.072C436.717 221.576 439.459 218.166 441.429 213.854C443.399 209.542 444.377 204.565 444.377 198.95V113.741C444.377 111.454 443.66 109.582 442.2 108.126C440.754 106.671 438.894 105.936 436.621 105.936C434.348 105.936 432.488 106.671 431.042 108.126C429.595 109.582 428.865 111.454 428.865 113.741V198.95C428.865 202.804 428.149 205.965 426.689 208.475C425.242 210.97 423.382 212.218 421.109 212.218H417.238C415.172 212.218 413.492 212.953 412.197 214.409C410.902 215.864 410.254 217.736 410.254 220.024C410.254 222.311 411.232 224.183 413.202 225.639C415.172 227.094 417.693 227.829 420.806 227.829H421.123L421.109 227.815Z" fill="#222222"/>
<path d="M421.109 231.073H420.793C417.004 231.073 413.795 230.131 411.274 228.259C408.491 226.193 407.017 223.337 407.017 220.024C407.017 216.932 407.94 214.312 409.772 212.246C411.673 210.097 414.249 208.974 417.225 208.974H421.096C421.564 208.974 422.652 208.974 423.892 206.839C425.036 204.856 425.628 202.208 425.628 198.964V113.755C425.628 110.594 426.675 107.918 428.741 105.839C430.821 103.759 433.466 102.705 436.607 102.705C439.748 102.705 442.407 103.759 444.473 105.839C446.539 107.918 447.586 110.594 447.586 113.755V198.964C447.586 205.037 446.498 210.499 444.349 215.227C442.159 220.051 439.032 223.933 435.05 226.748C431 229.631 426.303 231.087 421.096 231.087L421.109 231.073ZM417.238 215.462C416.095 215.462 415.282 215.795 414.607 216.558C413.863 217.403 413.492 218.54 413.492 220.01C413.492 221.271 413.974 222.159 415.117 223.018C416.508 224.044 418.409 224.571 420.793 224.571H421.109C425.008 224.571 428.355 223.545 431.345 221.424C434.375 219.275 436.772 216.266 438.494 212.509C440.258 208.641 441.153 204.08 441.153 198.964V113.755C441.153 112.327 440.767 111.273 439.927 110.428C439.087 109.596 438.04 109.194 436.635 109.194C435.23 109.194 434.169 109.582 433.329 110.428C432.502 111.273 432.103 112.327 432.103 113.741V198.95C432.103 203.373 431.221 207.13 429.485 210.111C426.923 214.533 423.52 215.462 421.109 215.462H417.238Z" fill="#222222"/>
<path d="M254.961 227.815C250.415 227.815 246.378 226.568 242.866 224.072C239.353 221.576 236.611 218.166 234.641 213.854C232.671 209.542 231.693 204.565 231.693 198.95V113.741C231.693 111.454 232.41 109.582 233.87 108.126C235.316 106.671 237.176 105.936 239.449 105.936C241.722 105.936 243.582 106.671 245.028 108.126C246.475 109.582 247.205 111.454 247.205 113.741V198.95C247.205 202.804 247.921 205.965 249.381 208.475C250.828 210.97 252.688 212.218 254.961 212.218H258.832C260.898 212.218 262.579 212.953 263.873 214.409C265.168 215.864 265.816 217.736 265.816 220.024C265.816 222.311 264.838 224.183 262.868 225.639C260.898 227.094 258.377 227.829 255.264 227.829H254.947L254.961 227.815Z" fill="#222222"/>
<path d="M255.264 231.073H254.947C249.74 231.073 245.042 229.618 240.992 226.734C237.025 223.906 233.898 220.037 231.693 215.213C229.544 210.499 228.456 205.023 228.456 198.964V113.755C228.456 110.58 229.503 107.918 231.569 105.839C233.636 103.759 236.294 102.705 239.435 102.705C242.576 102.705 245.221 103.759 247.301 105.839C249.368 107.932 250.428 110.594 250.428 113.755V198.964C250.428 202.208 251.007 204.87 252.164 206.839C253.404 208.974 254.492 208.974 254.961 208.974H258.832C261.807 208.974 264.383 210.111 266.284 212.246C268.116 214.312 269.039 216.932 269.039 220.024C269.039 223.337 267.565 226.193 264.783 228.259C262.262 230.131 259.052 231.073 255.264 231.073ZM239.449 109.194C238.03 109.194 236.983 109.582 236.143 110.428C235.316 111.273 234.917 112.327 234.917 113.741V198.95C234.917 204.08 235.812 208.627 237.576 212.495C239.284 216.266 241.695 219.261 244.725 221.41C247.715 223.531 251.062 224.557 254.961 224.557H255.277C257.661 224.557 259.575 224.03 260.953 223.004C262.096 222.159 262.579 221.258 262.579 219.996C262.579 218.526 262.207 217.389 261.463 216.544C260.788 215.781 259.975 215.448 258.832 215.448H254.961C252.55 215.448 249.147 214.52 246.585 210.083C244.849 207.102 243.981 203.345 243.981 198.922V113.714C243.981 112.286 243.596 111.232 242.755 110.386C241.915 109.554 240.868 109.152 239.463 109.152L239.449 109.194Z" fill="#222222"/>
<path d="M421.109 85.1119C425.655 85.1119 429.692 86.3597 433.205 88.8552C436.717 91.3507 439.459 94.7613 441.429 99.0731C443.399 103.385 444.377 108.362 444.377 113.977V199.186C444.377 201.473 443.66 203.345 442.2 204.801C440.754 206.257 438.894 206.991 436.621 206.991C434.348 206.991 432.488 206.257 431.042 204.801C429.595 203.345 428.865 201.473 428.865 199.186V113.977C428.865 110.123 428.149 106.962 426.689 104.452C425.242 101.957 423.382 100.709 421.109 100.709H417.238C415.172 100.709 413.492 99.9742 412.197 98.5185C410.902 97.0628 410.254 95.1911 410.254 92.9035C410.254 90.6159 411.232 88.7443 413.202 87.2886C415.172 85.8328 417.693 85.098 420.806 85.098H421.123L421.109 85.1119Z" fill="#222222"/>
<path d="M436.621 210.249C433.48 210.249 430.821 209.196 428.755 207.116C426.689 205.023 425.628 202.361 425.628 199.2V113.991C425.628 110.747 425.049 108.085 423.906 106.116C422.666 103.981 421.578 103.981 421.109 103.981H417.238C414.263 103.981 411.687 102.844 409.786 100.709C407.954 98.6433 407.031 96.0229 407.031 92.9313C407.031 89.6177 408.505 86.7617 411.287 84.696C413.808 82.8243 417.004 81.8816 420.806 81.8816H421.123C426.33 81.8816 431.028 83.3373 435.078 86.221C439.045 89.0493 442.173 92.9174 444.377 97.7421C446.526 102.456 447.614 107.932 447.614 113.991V199.2C447.614 202.375 446.567 205.037 444.501 207.116C442.434 209.196 439.789 210.249 436.635 210.249H436.621ZM420.806 88.37C418.423 88.37 416.508 88.8968 415.131 89.9227C413.987 90.7684 413.505 91.6696 413.505 92.9313C413.505 94.4008 413.877 95.5377 414.621 96.3834C415.296 97.146 416.109 97.4787 417.252 97.4787H421.123C423.534 97.4787 426.937 98.4076 429.499 102.844C431.235 105.825 432.103 109.582 432.103 114.005V199.214C432.103 200.642 432.488 201.695 433.329 202.541C434.169 203.373 435.216 203.775 436.621 203.775C438.026 203.775 439.087 203.387 439.927 202.541C440.754 201.695 441.153 200.642 441.153 199.227V114.019C441.153 108.889 440.258 104.341 438.494 100.473C436.786 96.7023 434.375 93.7076 431.345 91.5587C428.355 89.4375 425.008 88.4116 421.109 88.4116H420.793L420.806 88.37Z" fill="#222222"/>
<path d="M147.744 237.7C139.369 237.7 131.985 235.856 125.565 232.155C119.16 228.467 114.118 223.365 110.453 216.863C106.789 210.36 104.943 202.901 104.943 194.472C104.943 186.043 106.775 178.431 110.453 171.915C114.118 165.413 119.16 160.311 125.565 156.623C131.971 152.935 139.369 151.077 147.744 151.077C156.12 151.077 163.352 152.921 169.758 156.623C176.163 160.311 181.205 165.413 184.87 171.915C188.534 178.417 190.38 185.932 190.38 194.472C190.38 203.012 188.575 210.36 184.952 216.863C181.329 223.365 176.315 228.467 169.909 232.155C163.504 235.843 156.106 237.7 147.73 237.7H147.744ZM147.744 223.656C153.117 223.656 157.869 222.408 162.016 219.913C166.149 217.417 169.386 213.979 171.7 209.612C174.014 205.244 175.185 200.198 175.185 194.472C175.185 188.746 174.028 183.686 171.7 179.263C169.372 174.84 166.149 171.388 162.016 168.879C157.883 166.383 153.131 165.136 147.744 165.136C142.358 165.136 137.619 166.383 133.473 168.879C129.34 171.374 126.075 174.84 123.706 179.263C121.322 183.686 120.138 188.76 120.138 194.472C120.138 200.184 121.322 205.244 123.706 209.612C126.089 213.979 129.34 217.417 133.473 219.913C137.605 222.408 142.358 223.656 147.744 223.656Z" fill="#222222"/>
<path d="M147.744 240.958C138.831 240.958 130.841 238.948 123.967 234.983C117.079 231.018 111.583 225.458 107.643 218.471C103.717 211.511 101.72 203.428 101.72 194.472C101.72 185.516 103.717 177.281 107.643 170.321C111.583 163.333 117.079 157.788 123.967 153.809C130.841 149.843 138.845 147.833 147.744 147.833C156.643 147.833 164.482 149.843 171.37 153.795C178.257 157.76 183.754 163.319 187.694 170.307C191.62 177.281 193.617 185.405 193.617 194.458C193.617 203.511 191.647 211.469 187.776 218.443C183.878 225.445 178.409 231.004 171.521 234.969C164.647 238.934 156.643 240.945 147.744 240.945V240.958ZM147.744 154.349C139.988 154.349 133.059 156.068 127.177 159.465C121.309 162.848 116.625 167.59 113.264 173.537C109.889 179.513 108.18 186.556 108.18 194.486C108.18 202.416 109.889 209.307 113.264 215.268C116.625 221.23 121.309 225.971 127.177 229.34C133.059 232.737 139.975 234.456 147.744 234.456C155.514 234.456 162.429 232.737 168.311 229.34C174.18 225.957 178.822 221.23 182.142 215.282C185.476 209.307 187.157 202.305 187.157 194.472C187.157 186.639 185.448 179.513 182.073 173.523C178.712 167.562 174.028 162.834 168.16 159.451C162.278 156.068 155.404 154.349 147.744 154.349ZM147.744 226.914C141.793 226.914 136.434 225.5 131.819 222.699C127.205 219.913 123.526 216.031 120.882 211.178C118.25 206.354 116.914 200.725 116.914 194.486C116.914 188.247 118.25 182.604 120.868 177.724C123.513 172.802 127.191 168.893 131.819 166.106C136.434 163.319 141.793 161.891 147.744 161.891C153.695 161.891 159.054 163.306 163.669 166.106C168.298 168.907 171.962 172.816 174.552 177.752C177.114 182.632 178.423 188.261 178.423 194.486C178.423 200.711 177.114 206.326 174.552 211.164C171.962 216.031 168.298 219.927 163.669 222.713C159.04 225.5 153.682 226.928 147.744 226.928V226.914ZM147.744 168.394C142.992 168.394 138.749 169.503 135.139 171.679C131.475 173.898 128.665 176.878 126.543 180.816C124.436 184.739 123.361 189.328 123.361 194.486C123.361 199.643 124.422 204.205 126.53 208.059C128.651 211.955 131.461 214.922 135.126 217.126C138.735 219.303 142.978 220.412 147.73 220.412C152.483 220.412 156.726 219.303 160.335 217.126C164 214.922 166.782 211.955 168.835 208.073C170.901 204.205 171.934 199.63 171.934 194.472C171.934 189.315 170.887 184.712 168.821 180.774C166.755 176.851 163.972 173.87 160.321 171.666C156.712 169.489 152.469 168.38 147.717 168.38L147.744 168.394Z" fill="#222222"/>
<path d="M147.662 223.379C163.563 223.379 176.453 210.406 176.453 194.403C176.453 178.4 163.563 165.427 147.662 165.427C131.761 165.427 118.87 178.4 118.87 194.403C118.87 210.406 131.761 223.379 147.662 223.379Z" fill="#222222"/>
<path d="M147.662 226.637C130.001 226.637 115.633 212.177 115.633 194.403C115.633 176.629 130.001 162.169 147.662 162.169C165.322 162.169 179.69 176.629 179.69 194.403C179.69 212.177 165.322 226.637 147.662 226.637ZM147.662 168.671C133.569 168.671 122.094 180.206 122.094 194.403C122.094 208.6 133.555 220.135 147.662 220.135C161.768 220.135 173.229 208.6 173.229 194.403C173.229 180.206 161.768 168.671 147.662 168.671Z" fill="#222222"/>
<path d="M341.844 237.7C333.468 237.7 326.085 235.856 319.665 232.155C313.259 228.467 308.217 223.365 304.553 216.863C300.889 210.36 299.043 202.901 299.043 194.472C299.043 186.043 300.875 178.431 304.553 171.915C308.217 165.413 313.259 160.311 319.665 156.623C326.071 152.935 333.468 151.077 341.844 151.077C350.22 151.077 357.452 152.921 363.858 156.623C370.263 160.311 375.305 165.413 378.97 171.915C382.634 178.417 384.48 185.932 384.48 194.472C384.48 203.012 382.675 210.36 379.052 216.863C375.429 223.365 370.415 228.467 364.009 232.155C357.603 235.843 350.206 237.7 341.83 237.7H341.844ZM341.844 223.656C347.217 223.656 351.969 222.408 356.116 219.913C360.248 217.417 363.486 213.979 365.8 209.612C368.114 205.244 369.285 200.198 369.285 194.472C369.285 188.746 368.128 183.686 365.8 179.263C363.472 174.84 360.248 171.388 356.116 168.879C351.983 166.383 347.23 165.136 341.844 165.136C336.458 165.136 331.719 166.383 327.572 168.879C323.44 171.374 320.175 174.84 317.805 179.263C315.422 183.686 314.237 188.76 314.237 194.472C314.237 200.184 315.422 205.244 317.805 209.612C320.189 213.979 323.44 217.417 327.572 219.913C331.705 222.408 336.458 223.656 341.844 223.656Z" fill="#222222"/>
<path d="M341.844 240.958C332.931 240.958 324.941 238.948 318.067 234.983C311.179 231.018 305.683 225.458 301.743 218.471C297.817 211.511 295.819 203.428 295.819 194.472C295.819 185.516 297.817 177.281 301.743 170.321C305.683 163.333 311.179 157.788 318.067 153.809C324.941 149.843 332.945 147.833 341.844 147.833C350.743 147.833 358.582 149.843 365.469 153.795C372.357 157.76 377.854 163.319 381.794 170.307C385.733 177.281 387.717 185.405 387.717 194.458C387.717 203.511 385.747 211.469 381.876 218.443C377.978 225.445 372.509 231.004 365.621 234.969C358.747 238.934 350.743 240.945 341.844 240.945V240.958ZM341.844 154.349C334.088 154.349 327.159 156.068 321.277 159.465C315.408 162.848 310.725 167.59 307.363 173.537C303.988 179.513 302.28 186.556 302.28 194.486C302.28 202.416 303.988 209.307 307.363 215.268C310.725 221.23 315.408 225.971 321.277 229.34C327.159 232.737 334.074 234.456 341.844 234.456C349.613 234.456 356.529 232.737 362.411 229.34C368.28 225.957 372.922 221.23 376.242 215.282C379.576 209.307 381.256 202.305 381.256 194.472C381.256 186.639 379.548 179.513 376.173 173.523C372.812 167.562 368.128 162.834 362.26 159.451C356.377 156.068 349.503 154.349 341.844 154.349ZM341.844 226.914C335.893 226.914 330.534 225.5 325.919 222.699C321.304 219.913 317.626 216.031 314.981 211.178C312.35 206.354 311.014 200.725 311.014 194.486C311.014 188.247 312.35 182.604 314.968 177.724C317.613 172.802 321.291 168.893 325.919 166.106C330.534 163.319 335.893 161.891 341.844 161.891C347.795 161.891 353.154 163.306 357.769 166.106C362.397 168.907 366.062 172.816 368.652 177.752C371.214 182.632 372.523 188.261 372.523 194.486C372.523 200.711 371.214 206.326 368.652 211.164C366.062 216.031 362.397 219.927 357.769 222.713C353.14 225.5 347.781 226.928 341.844 226.928V226.914ZM341.844 168.394C337.091 168.394 332.848 169.503 329.239 171.679C325.575 173.898 322.765 176.878 320.643 180.816C318.535 184.739 317.461 189.328 317.461 194.486C317.461 199.643 318.522 204.205 320.629 208.059C322.751 211.955 325.561 214.922 329.225 217.126C332.835 219.303 337.078 220.412 341.83 220.412C346.583 220.412 350.826 219.303 354.435 217.126C358.099 214.922 360.882 211.955 362.935 208.073C365.001 204.205 366.034 199.63 366.034 194.472C366.034 189.315 364.987 184.712 362.921 180.774C360.855 176.851 358.072 173.87 354.421 171.666C350.812 169.489 346.569 168.38 341.816 168.38L341.844 168.394Z" fill="#222222"/>
<path d="M341.761 223.379C357.662 223.379 370.553 210.406 370.553 194.403C370.553 178.4 357.662 165.427 341.761 165.427C325.86 165.427 312.97 178.4 312.97 194.403C312.97 210.406 325.86 223.379 341.761 223.379Z" fill="#222222"/>
<path d="M341.761 226.637C324.101 226.637 309.733 212.177 309.733 194.403C309.733 176.629 324.101 162.169 341.761 162.169C359.422 162.169 373.79 176.629 373.79 194.403C373.79 212.177 359.422 226.637 341.761 226.637ZM341.761 168.671C327.669 168.671 316.194 180.206 316.194 194.403C316.194 208.6 327.655 220.135 341.761 220.135C355.868 220.135 367.329 208.6 367.329 194.403C367.329 180.206 355.868 168.671 341.761 168.671Z" fill="#222222"/>
<path d="M447.821 131.598L426.317 130.475C427.24 112.604 423.975 105.769 421.895 104.549C421.302 104.203 420.379 104.092 418.272 103.925C414.125 103.593 407.857 103.094 401.438 97.6312C393.682 91.0319 390.941 81.7152 388.516 73.5076C387.249 69.2236 386.34 64.8148 385.802 60.3922C383.033 42.3549 379.231 30.7645 376.821 26.3142C375.911 24.6505 375.112 23.3056 373.68 22.4599C373.046 22.0856 372.302 21.8222 371.489 21.6835H180.709C179.47 21.5865 178.437 21.7113 177.624 22.0579C170.061 25.1634 163.752 45.7239 159.991 58.0075C157.318 66.7281 155.004 74.2563 151.987 79.3583C149.149 84.1275 145.43 87.3301 144.714 87.9263C143.901 88.5918 139.534 92.0578 133.431 93.9572C130.332 94.9277 126.103 95.2327 117.617 95.7734C105.012 96.5775 78.7968 98.2689 70.6553 105.132C66.7568 108.417 64.9522 116.389 65.5445 127.578L44.0406 128.742C43.035 110.053 47.3468 96.5221 56.8245 88.5225C70.3798 77.0846 97.9863 75.31 116.253 74.1454C120.455 73.882 125.676 73.5354 127.191 73.2165C128.913 72.648 130.511 71.5944 131.076 71.1646C131.544 70.7487 132.729 69.5702 133.514 68.2531C135.208 65.3832 137.357 58.3957 139.437 51.63C145.265 32.6362 152.511 8.984 169.524 2.01035C173.243 0.485298 177.348 -0.180179 181.688 0.0416467H372.826L373.418 0.110967C377.468 0.554619 381.229 1.80239 384.631 3.81269C391.313 7.76396 394.426 13.5037 395.762 15.9577C400.253 24.2345 404.413 39.3048 407.155 57.3005L407.196 57.6471C407.596 60.9329 408.271 64.2187 409.207 67.3935C410.929 73.2165 412.541 78.7205 415.393 81.1329C416.44 82.0202 417.004 82.1311 420.021 82.3668C423.341 82.6302 427.887 82.9907 432.791 85.8744C444.184 92.5569 449.116 107.53 447.862 131.654L447.821 131.598Z" fill="#222222"/>
</svg>
