<svg width="255" height="255" viewBox="0 0 255 255" fill="none" xmlns="http://www.w3.org/2000/svg">
<path d="M103.938 23.6045L128.517 126.254L153.09 23.6045" stroke="black" stroke-width="8" stroke-miterlimit="10"/>
<path d="M153.09 228.909L128.517 126.254L103.938 228.909" stroke="black" stroke-width="8" stroke-miterlimit="10"/>
<path d="M231.166 101.676L128.517 126.254L231.166 150.832" stroke="black" stroke-width="8" stroke-miterlimit="10"/>
<path d="M25.8618 150.832L128.516 126.254L25.8618 101.676" stroke="black" stroke-width="8" stroke-miterlimit="10"/>
<path d="M218.478 181.463L128.516 126.254L183.721 216.221" stroke="black" stroke-width="8" stroke-miterlimit="10"/>
<path d="M38.5488 71.0493L128.516 126.254L73.3066 36.2915" stroke="black" stroke-width="8" stroke-miterlimit="10"/>
<path d="M73.3066 216.221L128.516 126.254L38.5488 181.463" stroke="black" stroke-width="8" stroke-miterlimit="10"/>
<path d="M183.721 36.2915L128.516 126.254L218.478 71.0493" stroke="black" stroke-width="8" stroke-miterlimit="10"/>
<path d="M128.517 150.832C142.091 150.832 153.095 139.828 153.095 126.254C153.095 112.68 142.091 101.676 128.517 101.676C114.942 101.676 103.938 112.68 103.938 126.254C103.938 139.828 114.942 150.832 128.517 150.832Z" fill="white" stroke="black" stroke-width="8" stroke-miterlimit="10"/>
<path d="M127.92 230.959C185.18 230.959 231.598 184.541 231.598 127.282C231.598 70.0224 185.18 23.6045 127.92 23.6045C70.661 23.6045 24.2432 70.0224 24.2432 127.282C24.2432 184.541 70.661 230.959 127.92 230.959Z" stroke="black" stroke-width="8" stroke-miterlimit="10"/>
<path d="M250.868 127.498C250.868 195.4 195.822 250.44 127.926 250.44C60.0288 250.44 4.97852 195.4 4.97852 127.498C4.97852 109.276 8.94555 91.9742 16.0574 76.4196C35.4507 34.0155 78.2453 4.55566 127.92 4.55566C195.822 4.55566 250.862 59.6008 250.862 127.498H250.868Z" stroke="black" stroke-width="8" stroke-miterlimit="10"/>
<path d="M128.516 134.995C133.344 134.995 137.257 131.081 137.257 126.254C137.257 121.427 133.344 117.513 128.516 117.513C123.689 117.513 119.775 121.427 119.775 126.254C119.775 131.081 123.689 134.995 128.516 134.995Z" stroke="black" stroke-width="8" stroke-miterlimit="10"/>
</svg>
