<svg width="36" height="40" viewBox="0 0 36 40" fill="none" xmlns="http://www.w3.org/2000/svg">
<path d="M19.7997 3.41828C20.2607 3.41828 20.6345 3.06852 20.6345 2.63703V0.78125C20.6345 0.349766 20.2607 0 19.7997 0C19.3387 0 18.9648 0.349766 18.9648 0.78125V2.63703C18.9648 3.06852 19.3387 3.41828 19.7997 3.41828Z" fill="black"/>
<path d="M36 27.1695C36 26.2086 35.5438 25.3455 34.8233 24.7602C35.5438 24.1747 36 23.3117 36 22.3508C36 20.5914 34.4705 19.1602 32.5904 19.1602H22.4511L23.6215 15.026C24.5879 11.6146 22.8835 8.4271 20.7501 7.43015C19.4986 6.845 18.4936 6.75179 17.6777 7.14507C16.5635 7.6821 16.212 8.93281 15.998 10.2037C15.1851 15.0073 13.969 18.2525 10.1982 20.9245C9.93439 19.999 9.03124 19.3151 7.96021 19.3151H2.31629C1.03914 19.3151 0 20.2874 0 21.4827V37.2013C0 38.3965 1.03905 39.3689 2.31629 39.3689H7.9603C9.03701 39.3689 9.94432 38.6778 10.2027 37.7448C12.7038 39.0782 16.5474 40 18.9856 40H30.6309C32.511 40 34.0405 38.5687 34.0405 36.8094C34.0405 36.1679 33.8371 35.5698 33.4875 35.0691C34.9337 34.6994 36 33.4582 36 31.9884C36 31.0274 35.5438 30.1644 34.8233 29.579C35.5438 28.9935 36 28.1305 36 27.1695ZM8.60689 37.2013C8.60689 37.5293 8.31085 37.8064 7.96038 37.8064H2.31629C1.96582 37.8064 1.6697 37.5294 1.6697 37.2013V21.4827C1.6697 21.1547 1.96574 20.8776 2.31629 20.8776H7.9603C8.31077 20.8776 8.60681 21.1546 8.60681 21.4827V37.2013H8.60689ZM29.0809 25.5414H32.5904C33.5497 25.5414 34.3303 26.2718 34.3303 27.1695C34.3303 28.0673 33.5497 28.7977 32.5904 28.7977H29.0809C28.6199 28.7977 28.2461 29.1474 28.2461 29.5789C28.2461 30.0104 28.6199 30.3602 29.0809 30.3602H32.5904C33.5497 30.3602 34.3303 31.0905 34.3303 31.9883C34.3303 32.8873 33.5497 33.6187 32.5904 33.6187H30.6309H29.0809C28.6199 33.6187 28.2461 33.9684 28.2461 34.3999C28.2461 34.8314 28.6199 35.1812 29.0809 35.1812H30.6309C31.5902 35.1812 32.3708 35.9116 32.3708 36.8093C32.3708 37.707 31.5903 38.4375 30.631 38.4375H18.9857C16.5847 38.4375 12.3231 37.3398 10.2766 35.9369V22.7882C12.5871 21.3444 14.2102 19.7223 15.361 17.7095C16.4138 15.868 17.0977 13.6963 17.6474 10.4475C17.724 9.99203 17.9277 8.78234 18.4423 8.53421C18.7386 8.39132 19.2932 8.4957 20.0041 8.82812C21.354 9.4589 22.8012 11.8245 22.0075 14.6258L20.5592 19.7413C20.4213 20.2286 20.8277 20.7227 21.3662 20.7227H32.5903C33.5496 20.7227 34.3302 21.453 34.3302 22.3508C34.3302 23.2485 33.5496 23.9789 32.5903 23.9789H29.0808C28.6198 23.9789 28.246 24.3287 28.246 24.7602C28.246 25.1916 28.6199 25.5414 29.0809 25.5414Z" fill="black"/>
<path d="M5.33351 23.6489C4.87242 23.6489 4.49866 24.0009 4.49866 24.4324C4.49866 24.8638 4.87242 25.2136 5.33351 25.2136C5.7946 25.2136 6.16836 24.8638 6.16836 24.4324V24.4279C6.16836 23.9965 5.7946 23.6489 5.33351 23.6489Z" fill="black"/>
<path d="M10.1988 3.85263L11.6826 5.08388C11.8415 5.21576 12.0392 5.2806 12.2361 5.2806C12.4667 5.2806 12.6962 5.19177 12.8611 5.01771C13.1671 4.6949 13.1354 4.20107 12.7904 3.91482L11.3066 2.68357C10.9617 2.39724 10.434 2.42693 10.1281 2.74974C9.82218 3.07263 9.85382 3.56638 10.1988 3.85263Z" fill="black"/>
<path d="M27.3632 5.2806C27.5601 5.2806 27.7579 5.21576 27.9168 5.08388L29.4006 3.85263C29.7456 3.56638 29.7773 3.07263 29.4714 2.74974C29.1655 2.42693 28.638 2.39724 28.2928 2.68357L26.8091 3.91482C26.4641 4.20107 26.4324 4.69482 26.7383 5.01771C26.9032 5.19177 27.1326 5.2806 27.3632 5.2806Z" fill="black"/>
<path d="M7.51365 10.8075L9.49675 10.885C9.5086 10.8854 9.52046 10.8857 9.53223 10.8857C9.97729 10.8857 10.347 10.557 10.3657 10.137C10.3849 9.70589 10.0271 9.34183 9.56646 9.32378L7.58336 9.24628C7.12277 9.22854 6.73356 9.56308 6.71436 9.99425C6.69516 10.4254 7.05298 10.7895 7.51365 10.8075Z" fill="black"/>
<path d="M29.2336 10.1369C29.2524 10.5569 29.6221 10.8856 30.0672 10.8856C30.0789 10.8856 30.0907 10.8854 30.1026 10.8849L32.0857 10.8074C32.5464 10.7894 32.9042 10.4253 32.8849 9.99421C32.8657 9.56312 32.4758 9.22898 32.016 9.24625L30.0329 9.32375C29.5723 9.34179 29.2144 9.70585 29.2336 10.1369Z" fill="black"/>
</svg>
