<svg width="20" height="20" viewBox="0 0 20 20" fill="none" xmlns="http://www.w3.org/2000/svg">
<path d="M7 4.29726V18.1583M13 0.658264V14.6583M1 6.36826C1 4.89426 1 4.15826 1.393 3.72826C1.53209 3.5753 1.70129 3.45273 1.89 3.36826C2.422 3.13226 3.121 3.36526 4.519 3.83126C5.586 4.18726 6.119 4.36526 6.659 4.34626C6.8571 4.33975 7.05406 4.31362 7.247 4.26826C7.772 4.14326 8.24 3.83126 9.176 3.20826L10.558 2.28626C11.758 1.48626 12.357 1.08626 13.045 0.995264C13.733 0.902264 14.417 1.13026 15.784 1.58626L16.949 1.97426C17.939 2.30426 18.434 2.46926 18.717 2.86226C19 3.25526 19 3.77826 19 4.82026V12.9493C19 14.4223 19 15.1593 18.607 15.5893C18.4677 15.7415 18.2985 15.8634 18.11 15.9473C17.578 16.1843 16.879 15.9513 15.481 15.4853C14.414 15.1293 13.881 14.9513 13.341 14.9703C13.1429 14.9768 12.9459 15.0029 12.753 15.0483C12.228 15.1733 11.76 15.4853 10.824 16.1083L9.442 17.0303C8.242 17.8303 7.643 18.2303 6.955 18.3213C6.267 18.4143 5.583 18.1863 4.216 17.7303L3.051 17.3423C2.061 17.0123 1.566 16.8473 1.283 16.4543C1 16.0613 1 15.5383 1 14.4963V6.36826Z" stroke="#FAFAFA" stroke-width="1.5"/>
</svg>
