<svg width="495" height="573" viewBox="0 0 495 573" fill="none" xmlns="http://www.w3.org/2000/svg">
<g clip-path="url(#clip0_1229_4481)">
<path d="M124.495 179.487C124.495 179.487 129.977 187.786 139.862 187.889C139.862 187.889 139.22 189.317 138.348 191.726C138.348 191.726 136.416 197.011 135.453 201.478C134.314 206.744 135.38 217.622 139.251 226.532C151.535 254.806 192.476 264.219 200.266 266.01C210.212 268.298 217.922 268.758 223.544 269.073C223.544 269.073 240.54 270.011 287.321 262.173C332.356 252.245 345.682 238.529 348.899 227.21C348.899 227.21 349.396 225.473 353.938 200.467C352.951 206.187 351.964 211.901 350.976 217.622C371.48 214.081 385.321 199.832 385.412 185.716C385.491 173.979 375.799 162.09 367.882 159.996C364.593 159.124 360.82 159.554 356.434 161.588C341.2 168.64 347.148 150.819 347.148 150.819C342.175 138.162 338.977 130.033 338.977 130.027C338.977 130.027 308.327 126.413 302.197 112.207C301.737 111.135 300.828 108.647 299.926 108.744C298.042 108.956 300.144 120.076 295.189 123.962C293.014 125.663 288.799 126.51 279.834 122.551C277.956 123.35 274.098 124.64 269.748 123.496C263.031 121.722 257.937 114.846 257.246 106.275C249.541 116.65 236.064 119.955 225.936 114.834C218.213 110.929 213.301 102.552 213.04 93.2786C206.91 108.218 195.935 118.478 184.717 118.786C183.342 118.823 170.991 119.016 166.975 112.025C165.745 109.888 166.066 108.399 165.37 108.272C160.009 107.31 145.799 165.855 145.799 165.855C145.799 165.855 141.983 151.098 133.617 154.748C125.252 158.404 110.103 165.438 110.63 181.236C111.369 193.966 118.002 203.512 126.052 205.007C129.498 205.649 132.66 204.698 134.98 203.645" stroke="#222222" stroke-width="7" stroke-linecap="round" stroke-linejoin="round"/>
<path d="M131.34 206C129.989 206.054 120.037 206.575 116.209 212.059C115.3 213.36 114.822 214.807 114.822 214.807C113.295 219.432 115.567 223.566 115.748 223.881C117.838 227.549 122.042 229.734 126.573 229.583C125.173 231.689 123.072 235.454 122.266 240.581C121.854 243.202 120.97 248.874 123.95 254.897C124.289 255.575 128.65 264.049 137.712 265.986C141.649 266.827 145.047 266.131 145.72 265.986C145.72 265.986 147.7 265.556 154.824 262.282C154.291 265.254 153.007 274.618 158.488 283.346C166.52 296.143 182.318 296.79 185.982 296.942C199.151 297.48 208.661 290.967 211.835 288.564C214.991 291.506 224.707 299.823 237.548 300.083C240.667 300.144 244.805 300.229 249.075 297.94C254.272 295.156 259.033 289.206 259.033 289.206C263.182 290.235 268.446 291.161 274.576 291.349C279.864 291.512 284.516 291.082 288.326 290.483C290.355 289.781 295.286 287.759 299.175 282.681C302.282 278.625 303.263 274.533 303.615 272.415C306.05 274.067 310.641 276.688 316.904 277.439C321.132 277.941 328.116 279.121 332.593 274.485C337.953 268.94 336.827 256.888 336.827 256.888C338.91 260.133 342.23 261.834 345.192 261.24C347.705 260.738 349.117 258.747 349.529 258.165C352.951 253.341 349.722 246.725 349.529 246.332C352.503 245.738 361.577 243.705 367.434 238.656C369.633 236.756 370.541 235.158 371.026 234.007C372.401 230.757 371.868 227.652 371.498 226.181C373.618 226.568 381.269 227.706 388.671 223.142C389.943 222.355 395.249 218.917 398.029 212.101C402.923 200.122 397.054 184.989 397.054 184.989C399.229 184.717 406.715 183.518 412.591 177.078C414.051 175.48 420.114 168.828 418.86 159.954C417.752 152.079 411.301 145.402 402.584 142.999C414.765 139.331 423.439 130.905 424.245 121.801C424.669 117.013 422.87 112.558 422.634 112.001C419.611 104.725 413.542 101.384 411.694 100.452C412.524 99.6526 424.53 87.74 421.198 74.7621C420.072 70.3676 417.467 66.9657 416.643 65.9428C415.28 64.2539 412.773 60.1681 402.905 56.9418L384.352 50.8644C384.352 50.8644 388.259 16.9549 353.43 17.2757C318.6 17.5965 312.743 23.6739 312.743 23.6739C312.743 23.6739 313.391 0.320936 290.61 2.23977C267.822 4.15861 245.689 16.6341 245.689 16.6341C245.689 16.6341 237.875 1.27733 219.649 6.39826C201.422 11.5192 192.306 24.9511 192.306 24.9511C190.858 23.6799 185.655 19.4427 178.465 19.818C173.989 20.0541 170.906 21.9608 168.216 23.6678C158.131 30.0781 152.183 42.1177 154.872 45.7435C155.096 46.0462 155.381 46.2883 155.296 46.5062C154.757 47.8924 141.982 40.5681 131.267 43.2496C120.297 45.9977 111.436 59.248 114.143 65.9004C116.675 72.1169 128.862 71.4935 129.613 77.4074C129.959 80.107 127.687 82.4012 127.524 82.5586C121.406 88.5632 108.268 77.8916 99.9813 83.3939C95.1173 86.6263 92.7186 94.919 95.3414 99.4346C100.23 107.861 122.175 102.709 123.671 108.75C123.792 109.241 123.756 109.785 123.544 110.385C121.115 117.255 113.877 118.018 111.545 124.047C110.03 127.957 111.472 133.15 114.258 135.759C119.092 140.299 129.807 138.786 129.813 138.786C130.583 142.975 131.352 147.17 132.115 151.358" stroke="#222222" stroke-width="7" stroke-linecap="round" stroke-linejoin="round"/>
<path d="M183.838 60.9429C180.295 66.6873 180.682 73.9389 184.717 78.9206C190.071 85.5367 198.763 84.3624 199.133 84.3018" stroke="#222222" stroke-width="7" stroke-linecap="round" stroke-linejoin="round"/>
<path d="M267.253 66.7114C268.622 66.9899 283.353 69.7622 290.634 60.9428C291.591 59.7806 292.59 58.2189 293.329 56.1245" stroke="#222222" stroke-width="7" stroke-linecap="round" stroke-linejoin="round"/>
<path d="M339.91 101.656C340.637 101.892 352.927 105.724 362.17 97.7456C367.676 92.9939 369.003 86.735 369.348 84.6406" stroke="#222222" stroke-width="7" stroke-linecap="round" stroke-linejoin="round"/>
<path d="M244.169 235.212C243.466 236.701 241.455 238.626 234.853 239.032C209.836 239.667 189.417 226.374 189.417 226.374C190.574 224.08 192.991 220.061 197.522 216.671C198.43 215.993 201.174 214.032 205.093 212.7C214.912 209.353 223.943 212.7 225.706 213.397C237.039 217.846 246.767 229.686 244.169 235.212Z" stroke="#222222" stroke-width="7" stroke-linecap="round" stroke-linejoin="round"/>
<path d="M170.458 144.524C174.716 146.843 180.828 149.797 188.526 152.278C192.966 153.713 197.667 154.899 205.281 156.219C213.991 157.726 224.737 159.584 238.578 159.736C255.187 159.917 281.027 160.208 304.874 144.881C308.448 142.587 311.198 140.438 312.918 139.022" stroke="#222222" stroke-width="7" stroke-linecap="round" stroke-linejoin="round"/>
<path d="M184.716 175.867C188.293 175.867 191.192 173.64 191.192 170.892C191.192 168.144 188.293 165.916 184.716 165.916C181.14 165.916 178.241 168.144 178.241 170.892C178.241 173.64 181.14 175.867 184.716 175.867Z" fill="#222222" stroke="#222222" stroke-width="7" stroke-linecap="round" stroke-linejoin="round"/>
<path d="M279.833 184.13C284.233 184.13 287.799 180.978 287.799 177.09C287.799 173.202 284.233 170.05 279.833 170.05C275.434 170.05 271.868 173.202 271.868 177.09C271.868 180.978 275.434 184.13 279.833 184.13Z" fill="#222222" stroke="#222222" stroke-width="7" stroke-linecap="round" stroke-linejoin="round"/>
<path d="M220.612 298.77C222.696 319.52 219.57 327.134 216.172 330.161C215.469 330.784 213.543 332.322 213.331 334.64C212.859 339.767 221.048 343.968 221.048 343.968L213.313 360.075C213.313 360.075 204.578 386.739 204.578 390.008C204.578 393.277 176.442 407.98 178.247 430.861C180.052 453.735 199.605 447.198 199.605 447.198C199.605 447.198 199.672 455.914 210.024 459.183C220.382 462.452 227.705 465.721 243.393 462.452C259.082 459.183 256.356 473.347 292.33 467.9C328.304 462.452 357.912 454.825 365.998 457.549C374.085 460.273 396.981 447.743 396.981 447.743C395.346 441.205 393.71 434.668 392.075 428.137" stroke="#222222" stroke-width="7" stroke-linecap="round" stroke-linejoin="round"/>
<path d="M361.419 248.42C361.419 248.42 406.237 314.847 414.414 336.638C422.592 358.423 391.524 364.961 391.524 364.961C377.719 339.374 363.915 313.788 350.11 288.201" stroke="#222222" stroke-width="7" stroke-linecap="round" stroke-linejoin="round"/>
<path d="M391.524 364.96C382.196 376.897 381.614 384.905 382.801 390.014C384.534 397.472 392.069 407.441 392.069 407.441V428.137C392.069 428.137 393.704 432.495 408.417 422.689C423.137 412.883 439.485 411.793 439.485 411.793C439.485 411.793 449.298 392.272 439.485 385.148C432.55 380.111 435.148 357.019 419.866 341.535C417.727 339.368 415.789 337.727 414.414 336.632" stroke="#222222" stroke-width="7" stroke-linecap="round" stroke-linejoin="round"/>
<path d="M396.975 447.749C396.975 447.749 429.339 462.488 440.309 450.437C443.15 447.313 443.392 442.646 443.846 437.64C444.894 426.049 441.672 416.787 439.485 411.8" stroke="#222222" stroke-width="7" stroke-linecap="round" stroke-linejoin="round"/>
<path d="M249.081 297.928C272.589 318.703 293.269 329.495 308.467 335.554C317.764 339.265 345.198 349.253 345.198 349.253C345.198 349.253 352.509 351.722 360.141 353.55C371.05 356.171 374.448 355.427 376.998 354.028C379.355 352.733 380.833 350.881 381.687 349.567" stroke="#222222" stroke-width="7" stroke-linecap="round" stroke-linejoin="round"/>
<path d="M205.863 294.103C205.863 294.103 192.106 348.672 188.563 349.459C188.133 349.555 190.592 351.771 194.063 354.519C200.72 359.791 211.072 367.025 211.738 364.961" stroke="#222222" stroke-width="7" stroke-linecap="round" stroke-linejoin="round"/>
<path d="M200.12 456.514C200.12 456.514 169.827 472.155 158.167 460.848C156.495 459.226 154.727 455.588 153.897 451.399C152.467 444.171 154.969 438.373 155.962 436.345C163.358 437.162 170.76 437.985 178.156 438.802L179.15 421.497C176.503 420.94 173.183 419.85 169.918 417.592C167.641 416.018 167.047 415.014 160.82 407.411C155.526 400.946 154.424 399.796 154.884 398.604C155.999 395.698 164.854 396.642 167.108 396.915C167.108 396.915 170.851 392.151 178.677 380.208C178.677 378.834 172.474 378.804 170.021 376.994C164.661 373.041 165.872 352.582 177.102 348.98C184.123 346.728 191.27 352.279 192.3 353.102" stroke="#222222" stroke-width="7" stroke-linecap="round" stroke-linejoin="round"/>
<path d="M148.379 396.848C154.927 404.13 156.611 405.777 159.966 409.076C160.293 409.402 164.013 413.046 164.013 413.046C165.321 414.154 167.338 415.788 169.925 417.592C175.237 421.291 177.611 421.981 178.477 424.65C179.101 426.581 178.029 426.757 178.241 430.861C178.471 435.249 179.774 436.533 178.841 437.798C178.405 438.391 177.369 439.135 171.021 438.488C166.629 438.04 163.346 437.301 162.044 437.017C158.149 436.163 160.009 436.732 149.966 434.868C130.673 431.284 120.431 429.378 113.55 427.749C86.0495 421.224 65.3034 407.865 54.6971 401.031C42.8552 393.404 34.1872 386.116 29.7109 382.169C24.2593 377.369 21.4245 374.863 18.093 370.947C12.9868 364.942 3.05284 353.278 2.17453 338.418C2.11396 337.389 1.1024 316.118 12.5264 308.945C43.7274 289.363 142.764 390.608 148.385 396.854L148.379 396.848Z" stroke="#222222" stroke-width="7" stroke-linecap="round" stroke-linejoin="round"/>
<path d="M450.891 25.8952C451.194 25.193 457.342 11.4101 469.039 10.4476C479.615 9.57596 489.058 19.6483 491.838 28.9338C498.792 52.1657 468.409 84.9978 468.409 84.9978C467.736 90.3124 467.064 95.627 466.386 100.948" stroke="#222222" stroke-width="7" stroke-linecap="round" stroke-linejoin="round"/>
<path d="M467.718 147.23C468.447 147.23 469.038 145.691 469.038 143.792C469.038 141.893 468.447 140.354 467.718 140.354C466.989 140.354 466.397 141.893 466.397 143.792C466.397 145.691 466.989 147.23 467.718 147.23Z" fill="#231F20" stroke="#222222" stroke-width="7" stroke-linecap="round" stroke-linejoin="round"/>
<path d="M396.975 383.059L408.036 394.881" stroke="#222222" stroke-width="7" stroke-linecap="round" stroke-linejoin="round"/>
<path d="M322.78 308.461L328.08 322.728" stroke="#222222" stroke-width="7" stroke-linecap="round" stroke-linejoin="round"/>
<path d="M339.91 308.461C343.308 315.295 346.706 322.129 350.11 328.963" stroke="#222222" stroke-width="7" stroke-linecap="round" stroke-linejoin="round"/>
<path d="M375.399 291.336L386.133 311.312" stroke="#222222" stroke-width="7" stroke-linecap="round" stroke-linejoin="round"/>
<path d="M37.4521 333.103C45.0419 337.625 50.6691 341.989 54.3398 345.076C69.6708 357.957 81.8762 374.47 81.8762 374.47" stroke="#222222" stroke-width="7" stroke-linecap="round" stroke-linejoin="round"/>
<path d="M120.243 393.083L130.183 414.844" stroke="#222222" stroke-width="7" stroke-linecap="round" stroke-linejoin="round"/>
<path d="M210.024 459.183C210.024 459.183 206.837 509.975 211.732 516.403C216.626 522.832 239.595 522.372 239.595 522.372L237.76 464.952" stroke="#222222" stroke-width="7" stroke-linecap="round" stroke-linejoin="round"/>
<path d="M207.371 545.198C207.371 545.198 176.46 554.762 178.665 560.888C180.876 567.02 250.547 566.281 250.547 566.281C252.176 565.972 254.702 565.204 256.513 563.079C260.293 558.648 258.954 550.682 255.211 546.663C252.146 543.376 247.815 543.116 231 543.854C221.781 544.26 213.785 544.75 207.365 545.192L207.371 545.198Z" stroke="#222222" stroke-width="7" stroke-linecap="round" stroke-linejoin="round"/>
<path d="M211.732 516.403C205.675 518.026 201.113 523.062 200.12 529.224C199.108 535.489 201.974 541.796 207.371 545.198" stroke="#222222" stroke-width="7" stroke-linecap="round" stroke-linejoin="round"/>
<path d="M239.602 522.372C241.522 522.123 247.209 521.621 250.596 525.205C251.674 526.349 252.17 527.535 252.516 528.479C254.781 534.611 255.193 541.941 255.217 546.675" stroke="#222222" stroke-width="7" stroke-linecap="round" stroke-linejoin="round"/>
<path d="M328.552 464.952L346.585 511.125L378.21 500.03L369.845 457.9" stroke="#222222" stroke-width="7" stroke-linecap="round" stroke-linejoin="round"/>
<path d="M346.585 511.125C345.749 513.8 339.825 533.521 348.614 540.416C350.989 542.28 353.648 542.74 355.853 542.752C373.94 542.819 414.784 535.241 406.031 525.616C397.278 515.998 396.509 502.802 387.356 501.416L378.204 500.036" stroke="#222222" stroke-width="7" stroke-linecap="round" stroke-linejoin="round"/>
<path d="M357.845 542.728C354.235 546.736 346.912 555.585 349.571 560.234C350.51 561.875 352.394 562.474 353.381 562.734C362.727 565.24 447.02 579.743 450.255 562.734C451.388 556.79 442.538 547.456 408.242 532.111" stroke="#222222" stroke-width="7" stroke-linecap="round" stroke-linejoin="round"/>
<path d="M222.06 535.404L223.659 541.372" stroke="#222222" stroke-width="7" stroke-linecap="round" stroke-linejoin="round"/>
<path d="M380.548 510.671L388.762 519.908" stroke="#222222" stroke-width="7" stroke-linecap="round" stroke-linejoin="round"/>
<path d="M374.884 519.975L367.707 512.802" stroke="#222222" stroke-width="7" stroke-linecap="round" stroke-linejoin="round"/>
<path d="M217.474 413.9C214.312 417.181 213.41 418.167 213.483 419.675C213.592 421.829 215.645 423.966 217.783 424.281C221.436 424.82 224.404 419.868 225.494 417.314C227.535 412.526 227.402 407.877 225.185 406.933C224.61 406.691 224.046 407.078 217.474 413.9Z" stroke="#222222" stroke-width="7" stroke-linecap="round" stroke-linejoin="round"/>
<path d="M269.754 432.241C268.967 434.075 263.933 445.17 255.338 444.85C249.759 444.638 246.379 439.759 246.24 439.553C242.89 434.547 244.241 427.925 247.118 424.323C249.263 421.63 250.535 422.659 254.139 418.979C257.809 415.226 257.67 412.907 260.602 411.57C262.94 410.504 266.187 410.534 268.404 411.957C273.534 415.25 272.583 425.649 269.754 432.247V432.241Z" stroke="#222222" stroke-width="7" stroke-linecap="round" stroke-linejoin="round"/>
<path d="M367.985 430.728C370.795 430.728 373.073 426.801 373.073 421.957C373.073 417.112 370.795 413.186 367.985 413.186C365.175 413.186 362.897 417.112 362.897 421.957C362.897 426.801 365.175 430.728 367.985 430.728Z" stroke="#222222" stroke-width="7" stroke-linecap="round" stroke-linejoin="round"/>
<path d="M341.472 446.448C343.426 446.448 345.01 446.09 345.01 445.649C345.01 445.207 343.426 444.85 341.472 444.85C339.519 444.85 337.935 445.207 337.935 445.649C337.935 446.09 339.519 446.448 341.472 446.448Z" stroke="#222222" stroke-width="7" stroke-linecap="round" stroke-linejoin="round"/>
<path d="M293.032 407.411C292.475 408.458 291.367 410.468 289.01 411.43C286.339 412.52 283.086 411.836 281.087 409.978C277.883 406.999 278.652 401.709 280.457 398.573C282.783 394.548 288.205 391.679 291.621 393.434C295.595 395.474 295.376 403.01 293.032 407.411Z" stroke="#222222" stroke-width="7" stroke-linecap="round" stroke-linejoin="round"/>
<path d="M314.396 444.299C314.396 447.15 307.812 449.462 299.689 449.462C294.892 449.462 285.794 448.384 284.982 444.299C284.358 441.133 288.792 436.599 293.026 436.357C295.34 436.224 296.485 437.434 299.689 439.135C308.273 443.699 314.396 442.537 314.396 444.299Z" stroke="#222222" stroke-width="7" stroke-linecap="round" stroke-linejoin="round"/>
<path d="M331.126 430.728C325.735 433.585 319.303 430.231 316.759 425.661C315.329 423.095 314.554 419.106 316.425 416.055C319.769 410.613 330.593 409.742 334.658 415.504C337.741 419.868 336.736 427.75 331.12 430.728H331.126Z" stroke="#222222" stroke-width="7" stroke-linecap="round" stroke-linejoin="round"/>
<path d="M356.477 185.837C356.477 185.837 365.932 189.372 370.051 182.508" stroke="#222222" stroke-width="7" stroke-linecap="round" stroke-linejoin="round"/>
<path d="M178.689 380.208L204.572 390.014" stroke="#222222" stroke-width="7" stroke-linecap="round" stroke-linejoin="round"/>
<path d="M183.475 363.005L180.283 369.555" stroke="#222222" stroke-width="7" stroke-linecap="round" stroke-linejoin="round"/>
<path d="M413.1 382.872L424.16 394.693" stroke="#222222" stroke-width="7" stroke-linecap="round" stroke-linejoin="round"/>
</g>
<defs>
<clipPath id="clip0_1229_4481">
<rect width="495" height="573" fill="white"/>
</clipPath>
</defs>
</svg>
