<svg width="19" height="22" viewBox="0 0 19 22" fill="none" xmlns="http://www.w3.org/2000/svg">
<path fill-rule="evenodd" clip-rule="evenodd" d="M4.6244 10.727L5.53057 6.08247C5.71584 5.14244 6.2122 4.29713 6.93544 3.68991C7.65869 3.08269 8.56431 2.75095 9.49869 2.75095C10.4331 2.75095 11.3387 3.08269 12.0619 3.68991C12.7852 4.29713 13.2815 5.14244 13.4668 6.08247L14.373 10.727C14.6449 12.1129 15.3082 13.3859 16.2803 14.3874L16.5638 14.677C16.6683 14.7843 16.7429 14.9184 16.7798 15.0652C16.8168 15.2121 16.8149 15.3665 16.7742 15.5123C16.7335 15.6582 16.6555 15.7902 16.5484 15.8947C16.4412 15.9992 16.3088 16.0724 16.1648 16.1067L14.9649 16.3917C11.3682 17.2454 7.62916 17.2454 4.03247 16.3917L2.834 16.1067C2.68991 16.0726 2.55733 15.9995 2.45002 15.8951C2.34271 15.7907 2.26457 15.6587 2.22372 15.5128C2.18286 15.367 2.18077 15.2125 2.21766 15.0656C2.25455 14.9186 2.32909 14.7844 2.43353 14.677L2.71707 14.3874C3.69125 13.3875 4.35496 12.1138 4.6244 10.727ZM2.47592 10.286L3.38062 5.64141C3.66511 4.19108 4.42992 2.88652 5.54517 1.94931C6.66041 1.01209 8.05733 0.5 9.49869 0.5C10.94 0.5 12.337 1.01209 13.4522 1.94931C14.5675 2.88652 15.3323 4.19108 15.6168 5.64141L16.5229 10.286C16.7071 11.2371 17.1631 12.1102 17.831 12.7958L18.1146 13.0868C18.4961 13.478 18.7686 13.967 18.9037 14.5029C19.0388 15.0388 19.0316 15.6021 18.8829 16.1342C18.7342 16.6663 18.4493 17.1478 18.0579 17.5286C17.6666 17.9095 17.183 18.1758 16.6574 18.2999L15.4574 18.5849C14.4314 18.825 13.3986 19.004 12.359 19.122C12.22 19.7947 11.8601 20.398 11.3396 20.8309C10.819 21.2638 10.1694 21.5 9.49942 21.5C8.82946 21.5 8.17984 21.2638 7.65929 20.8309C7.13874 20.398 6.77886 19.7947 6.63989 19.122C5.59752 19.006 4.56284 18.8262 3.54139 18.5834L2.33999 18.2984C1.81499 18.1737 1.33203 17.9072 0.941196 17.5264C0.550359 17.1456 0.265868 16.6644 0.117217 16.1327C-0.0314337 15.6011 -0.0388335 15.0383 0.095785 14.5027C0.230403 13.9671 0.50214 13.4783 0.882822 13.0868L1.16783 12.7943C1.83576 12.1087 2.29176 11.2341 2.47592 10.2845" fill="#222222"/>
</svg>
