<svg width="251" height="249" viewBox="0 0 251 249" fill="none" xmlns="http://www.w3.org/2000/svg">
<path d="M120.183 30.1871C118.171 30.0558 116.417 31.5738 116.28 33.5914C115.996 37.7672 120 50.6197 128.357 59.2817C130.963 61.9824 133.81 64.0527 136.821 65.4692C131.438 68.2128 126.086 70.3979 119.99 70.3979C119.972 70.3979 119.951 70.3964 119.934 70.3979C117.914 70.3979 116.275 72.0331 116.271 74.0527C116.268 76.0756 117.904 77.7182 119.926 77.7221H119.991C129.557 77.7221 137.216 73.6108 144.623 69.6347C151.015 66.2041 157.052 62.9629 163.875 62.6396C165.895 62.5444 167.455 60.8286 167.36 58.8081C167.264 56.7886 165.573 55.2261 163.528 55.3237C157.229 55.6221 151.714 57.7915 146.494 60.3896C141.97 60.3213 137.741 58.3403 133.913 54.4873C126.657 47.1831 123.516 35.9981 123.587 34.0836C123.722 32.0689 122.199 30.3248 120.183 30.1871Z" fill="black"/>
<path d="M136.292 83.6675L132.468 87.4917C131.038 88.9223 131.038 91.2407 132.468 92.6709C133.183 93.3857 134.121 93.7431 135.058 93.7431C135.995 93.7431 136.932 93.3857 137.648 92.6709L141.472 88.8467C142.902 87.416 142.902 85.0976 141.472 83.6675C140.041 82.2378 137.723 82.2378 136.292 83.6675Z" fill="black"/>
<path d="M139.276 141.461C141.254 141.039 142.515 139.093 142.093 137.116C141.671 135.138 139.724 133.879 137.747 134.298C132.379 135.443 128.142 135.33 126.049 134.929C123.798 128.499 120.856 122.126 112.044 117.894C110.221 117.019 108.033 117.787 107.157 119.61C106.282 121.433 107.05 123.621 108.873 124.496C115.965 127.903 117.617 132.807 119.903 139.596C122.09 146.091 124.812 154.175 133.454 161.817C134.151 162.433 135.016 162.736 135.878 162.736C136.891 162.736 137.9 162.318 138.623 161.499C139.963 159.984 139.821 157.67 138.305 156.33C133.126 151.75 130.55 147.106 128.726 142.524C129.037 142.533 129.349 142.542 129.671 142.542C132.588 142.541 135.892 142.183 139.276 141.461Z" fill="black"/>
<path d="M181.607 128.982L177.783 132.806C176.352 134.236 176.352 136.555 177.783 137.985C178.498 138.7 179.435 139.057 180.372 139.057C181.309 139.057 182.247 138.7 182.962 137.985L186.786 134.161C188.217 132.73 188.217 130.412 186.786 128.982C185.356 127.552 183.037 127.552 181.607 128.982Z" fill="black"/>
<path d="M6.24996 72.804C9.17525 70.785 13.9936 69.3465 19.5443 68.6004C14.246 76.7996 9.93354 85.6707 6.91598 94.759C6.27877 96.6784 7.31783 98.7512 9.23774 99.3884C9.62056 99.5153 10.0097 99.5759 10.392 99.5759C11.9272 99.5759 13.3569 98.6032 13.8671 97.0666C17.2616 86.843 22.4018 76.9109 28.7992 68.0184C37.2782 68.0477 45.9998 69.5784 51.7093 72.9446C52.2928 73.2889 52.9334 73.4524 53.5657 73.4524C54.8191 73.4524 56.0408 72.8084 56.7239 71.6497C57.7512 69.9075 57.1712 67.6624 55.429 66.6351C49.7757 63.3021 42.2078 61.4569 34.4168 60.8602C36.264 58.7025 38.1829 56.6229 40.1771 54.6508C43.181 51.6796 46.2688 48.6879 49.4451 45.7426C50.0179 46.268 50.6248 46.7812 51.2703 47.2802C54.803 50.0092 59.1985 52.0863 62.4685 52.5717C62.6511 52.599 62.8318 52.6117 63.011 52.6117C64.7951 52.6117 66.3586 51.3051 66.6286 49.4872C66.9255 47.4862 65.5442 45.6239 63.5442 45.3266C61.4856 45.0209 57.8528 43.3241 54.9241 40.8036C61.7663 34.8281 69.0363 29.2329 76.8459 24.6582C77.5417 24.2505 78.2399 23.8618 78.9382 23.4746C83.0558 25.8179 87.171 28.8818 89.9708 32.5835C91.149 34.1406 92.0157 35.7006 92.5758 37.2753C92.5953 37.3398 92.6163 37.4033 92.6393 37.4663C93.5216 40.0619 93.5738 42.6996 92.7999 45.434C92.2491 47.3798 93.3805 49.4037 95.3272 49.9545C95.6607 50.0487 95.9957 50.0936 96.3258 50.0936C97.9229 50.0936 99.3912 49.0404 99.8477 47.4271C100.856 43.8622 100.91 40.29 100.051 36.8198C100.708 35.978 101.728 34.7685 102.602 33.7314C107.27 28.1972 114.119 20.0689 116.326 12.3145C118.289 12.1885 120.271 12.1246 122.272 12.1246C136.322 12.1246 149.235 15.5132 161.606 20.7544C156.446 24.0464 151.961 28.2134 148.255 31.6587L147.336 32.5122C145.853 33.8867 145.765 36.2045 147.14 37.6879C147.862 38.4662 148.842 38.8603 149.827 38.8603C150.717 38.8603 151.61 38.5375 152.315 37.8842L153.243 37.0224C158.118 32.4902 163.666 27.334 169.836 24.5298C178.816 28.9585 187.573 34.2128 196.344 39.6782C200.147 42.0473 203.697 44.7914 206.994 47.8896C203.888 50.4599 200.849 53.4418 197.965 56.7753C193.49 51.642 185.259 45.373 177.461 42.9345C175.53 42.3315 173.476 43.4071 172.872 45.3368C172.269 47.267 173.345 49.3212 175.275 49.9247C183.365 52.4545 190.806 59.4076 193.337 62.6209C184.852 74.366 180.492 86.886 181.289 97.5075C181.433 99.4309 183.039 100.896 184.937 100.896C185.029 100.896 185.122 100.892 185.215 100.885C187.232 100.734 188.744 98.9768 188.593 96.9597C187.862 87.217 192.805 74.7395 201.818 63.5833C205.043 59.5907 208.537 56.079 212.088 53.1932C216.835 58.6688 220.938 65.0159 224.357 72.2029C225.226 74.0296 227.411 74.805 229.237 73.9363C231.064 73.0677 231.839 70.8821 230.971 69.056C227.376 61.5008 223.069 54.7889 218.093 48.9462C222.063 46.5561 225.951 45.0522 229.456 44.6469C231.465 44.4145 232.905 42.5981 232.673 40.5883C232.441 38.579 230.627 37.1386 228.615 37.371C223.665 37.9433 218.314 40.081 212.99 43.4941C209.073 39.6835 204.816 36.3281 200.217 33.4624C194.269 29.7558 188.322 26.1435 182.3 22.8008C183.262 22.9912 184.234 23.2539 185.219 23.6152C187.117 24.3125 189.222 23.3384 189.919 21.4399C190.616 19.5415 189.643 17.4375 187.744 16.7403C181.418 14.417 175.54 14.7676 170.186 16.5547C155.335 9.54888 139.733 4.80036 122.272 4.80036C120.405 4.80036 118.568 4.85261 116.761 4.95173C116.589 4.15242 116.342 3.36775 115.991 2.60555C115.145 0.769618 112.97 -0.0326247 111.132 0.813563C109.302 1.65731 108.5 3.8199 109.332 5.65241C98.1441 7.1485 88.1276 10.5411 78.964 15.1831C72.9802 12.2813 67.4279 10.774 64.8606 10.774C62.8381 10.774 61.1985 12.4131 61.1985 14.4361C61.1985 16.459 62.8376 18.0982 64.8606 18.0982C65.8391 18.0982 68.0803 18.6509 70.8967 19.7056C63.696 24.1323 57.0149 29.2817 50.6717 34.7856C50.5496 34.3554 50.4602 33.9194 50.4158 33.476C50.2141 31.4633 48.4197 29.997 46.4065 30.1972C44.3943 30.3989 42.9261 32.1938 43.1278 34.2065C43.326 36.187 43.9266 38.1171 44.8948 39.9658C41.5316 43.0737 38.2518 46.2533 35.0262 49.4437C31.4989 52.933 28.1825 56.722 25.101 60.7284C15.7675 61.1732 7.09322 63.3226 2.09031 66.7757C0.425768 67.9246 0.00731242 70.2049 1.15623 71.8699C2.30515 73.535 4.5864 73.9529 6.24996 72.804ZM108.205 13.2222C105.51 18.9199 99.9522 25.5122 97.0035 29.0088C96.8932 29.1396 96.7896 29.2632 96.6842 29.3877C96.4068 28.977 96.1178 28.5688 95.8121 28.164C93.3214 24.8711 90.09 22.0234 86.6359 19.6367C93.6446 16.5283 100.804 14.3965 108.205 13.2222Z" fill="black"/>
<path d="M200.779 132.169C200.955 132.194 201.129 132.206 201.302 132.206C203.095 132.206 204.661 130.888 204.922 129.061C205.42 125.584 204.166 122.057 201.299 118.861C199.506 116.861 195.919 113.932 193.286 113.932C193.248 113.932 193.209 113.933 193.171 113.934C191.149 114.002 189.566 115.695 189.633 117.717C189.692 119.481 190.989 120.912 192.663 121.203C193.962 121.812 198.101 125.021 197.672 128.025C197.386 130.028 198.777 131.883 200.779 132.169Z" fill="black"/>
<path d="M61.951 120.199C56.9359 121.708 48.0585 130.419 46.7026 133.808C45.9511 135.686 46.8642 137.818 48.7421 138.569C49.1884 138.747 49.6488 138.832 50.1015 138.832C51.537 138.832 52.8979 137.981 53.4823 136.579C54.5116 134.587 61.4491 127.999 64.0619 127.212C65.9989 126.63 67.096 124.587 66.513 122.65C65.9295 120.714 63.8861 119.617 61.951 120.199Z" fill="black"/>
<path d="M81.5042 180.883C86.6443 187.102 92.4705 194.152 103.168 199.215C103.674 199.454 104.207 199.568 104.732 199.568C106.103 199.568 107.419 198.793 108.044 197.471C108.909 195.643 108.129 193.46 106.3 192.595C100.197 189.706 95.927 186.054 92.3191 182.202C93.1038 182.004 93.9128 181.793 94.7512 181.573C102.613 179.514 112.397 176.95 116.685 182.113C117.409 182.985 118.452 183.435 119.504 183.435C120.328 183.435 121.158 183.159 121.841 182.591C123.398 181.298 123.611 178.99 122.319 177.433C115.051 168.683 102.246 172.037 92.8948 174.488C90.6834 175.067 88.5676 175.62 86.8948 175.91C79.8553 167.395 72.4486 158.685 53.8266 157.373C51.81 157.231 50.058 158.751 49.9159 160.769C49.7739 162.787 51.2939 164.538 53.3114 164.68C69.0277 165.786 74.5335 172.449 81.5042 180.883Z" fill="black"/>
<path d="M250 141.881C248.973 140.139 246.728 139.56 244.985 140.587C244.361 140.955 243.215 141.653 241.747 142.571C242.406 137.012 242.75 131.249 242.75 125.277C242.75 120.06 242.491 114.928 241.977 109.901C244.833 104.744 246.61 99.2264 245.771 92.9911C245.501 90.9867 243.655 89.579 241.653 89.85C240.432 90.014 239.435 90.764 238.902 91.7772C238.405 89.7137 237.866 87.6718 237.274 85.6586C236.703 83.7182 234.667 82.6068 232.727 83.1786C230.787 83.7494 229.676 85.7846 230.247 87.7255C232.181 94.2997 233.577 101.174 234.429 108.287C232.711 111.062 230.631 113.833 228.507 116.663C228.421 116.778 228.334 116.893 228.248 117.008C227.686 116.285 227.056 115.496 226.35 114.613C220.622 107.443 211.034 95.4437 214.558 86.1307C215.274 84.2392 214.321 82.1254 212.429 81.4096C210.538 80.6923 208.424 81.6464 207.708 83.5385C202.707 96.7547 213.926 110.795 220.628 119.184C221.709 120.537 222.972 122.118 223.741 123.213C220.604 127.801 217.884 132.666 216.603 138.18C216.145 140.15 217.372 142.118 219.342 142.576C219.62 142.641 219.899 142.672 220.174 142.672C221.838 142.672 223.344 141.528 223.737 139.837C225.293 133.142 229.904 127 234.364 121.06C234.682 120.635 235.002 120.21 235.32 119.784C235.387 121.603 235.425 123.433 235.425 125.276C235.425 133.203 234.804 140.735 233.589 147.854C227.204 152.137 220.298 157.167 218.538 159.887C217.439 161.585 217.923 163.856 219.621 164.954C220.237 165.352 220.927 165.543 221.609 165.543C222.808 165.543 223.983 164.954 224.683 163.872C225.252 163.042 227.767 160.984 231.253 158.427C229.382 165.256 226.895 171.64 223.776 177.529C222.215 180.477 220.492 183.302 218.618 186.009C212.618 187.802 206.978 187.831 201.605 186.115C193.445 183.51 186.558 177.204 180.719 170.57C188.262 168.815 196.354 167.757 204.202 166.971C206.215 166.769 207.683 164.974 207.482 162.962C207.28 160.949 205.481 159.48 203.473 159.683C180.846 161.949 156.224 166.496 145.174 183.036C144.05 184.717 144.503 186.992 146.185 188.115C146.809 188.532 147.516 188.732 148.215 188.732C149.397 188.732 150.558 188.161 151.264 187.104C155.864 180.219 163.681 175.748 172.922 172.729C179.894 181.059 188.437 189.6 199.376 193.092C202.791 194.183 206.258 194.73 209.793 194.73C210.425 194.73 211.058 194.71 211.695 194.675C204.876 202.136 196.629 208.434 187.002 213.483C184.784 214.646 182.568 215.848 180.303 217.089C174.194 215.49 167.483 212.13 162.27 209.073C165.266 208.144 168.364 207.008 171.55 205.572C173.393 204.741 174.215 202.572 173.384 200.728C172.552 198.885 170.383 198.065 168.54 198.894C158.443 203.445 148.976 204.83 141.368 205.943C134.604 206.932 128.762 207.786 124.433 210.528C122.724 211.61 122.216 213.872 123.299 215.581C123.996 216.682 125.183 217.284 126.396 217.284C127.066 217.284 127.745 217.1 128.352 216.715C131.364 214.808 136.246 214.094 142.428 213.19C145.503 212.74 148.867 212.246 152.462 211.535C154.691 213.041 159.485 216.136 165.269 219.022C167.458 220.114 169.563 221.062 171.586 221.872C155.851 230.436 139.582 238.428 122.272 238.428C107.448 238.428 94.0256 236.271 82.1321 231.999C82.7097 228.861 82.9304 225.682 82.7844 222.482C84.3484 222.24 86.0935 221.819 88.0798 221.338C93.5564 220.011 100.371 218.359 105.942 220.291C107.855 220.953 109.939 219.942 110.602 218.031C111.264 216.12 110.253 214.034 108.341 213.371C100.739 210.734 92.4245 212.749 86.3547 214.219C84.928 214.565 83.1775 214.989 81.8332 215.217C81.1487 212.029 80.113 208.833 78.7175 205.649C74.2864 195.54 67.1917 187.94 64.4495 185.844C62.8426 184.616 60.5443 184.922 59.3158 186.528C58.0873 188.135 58.3939 190.433 60.0003 191.662C61.1356 192.53 67.7903 198.965 72.0091 208.589C73.553 212.112 74.5852 215.604 75.1145 219.058C75.1292 219.258 75.1565 219.456 75.2029 219.649C75.6424 222.866 75.6419 226.049 75.1995 229.19C70.4236 227.024 65.9246 224.484 61.7176 221.563C60.057 220.41 57.7748 220.822 56.6209 222.484C55.4676 224.145 55.8793 226.427 57.5414 227.58C62.4705 231.002 67.7557 233.944 73.3802 236.404C72.6101 238.51 71.635 240.594 70.4515 242.655C69.4441 244.408 70.0496 246.647 71.8035 247.654C72.3787 247.984 73.0052 248.141 73.6243 248.141C74.8928 248.141 76.1262 247.481 76.8035 246.302C78.1614 243.938 79.2888 241.528 80.1882 239.083C92.739 243.513 106.809 245.752 122.271 245.752C143.415 245.752 163.072 234.93 180.415 225.383C180.759 225.194 181.092 225.011 181.431 224.824C183.334 225.171 185.134 225.351 186.822 225.351C188.614 225.351 190.284 225.155 191.827 224.761C193.787 224.262 194.971 222.267 194.471 220.308C194.273 219.532 193.839 218.881 193.268 218.405C205.401 211.569 215.411 202.8 223.173 192.229C228.637 190.245 234.285 187.083 240.167 182.711C241.79 181.504 242.128 179.21 240.921 177.587C239.714 175.964 237.42 175.626 235.797 176.833C234.002 178.167 232.239 179.37 230.505 180.45C234.962 171.908 238.214 162.463 240.24 152.197C243.042 150.351 245.946 148.521 248.704 146.895C250.448 145.868 251.027 143.624 250 141.881Z" fill="black"/>
<path d="M37.4329 194.828C39.1927 189.62 41.5604 185.194 44.2405 182.229C45.5965 180.728 45.4793 178.413 43.9793 177.056C42.4788 175.701 40.1634 175.817 38.8065 177.317C36.557 179.806 34.6214 182.892 33.0081 186.26C30.9188 182.143 28.6288 177.992 26.3959 173.951C20.37 163.041 14.2026 151.869 11.1249 140.085C12.2719 136.165 13.684 132.796 15.3256 129.847C15.4296 129.953 15.5253 130.051 15.6342 130.161C20.9247 135.548 31.9334 146.756 31.9334 155.215C31.9334 157.238 33.5726 158.877 35.5955 158.877C37.6185 158.877 39.2576 157.238 39.2576 155.215C39.2576 143.761 27.2889 131.575 20.8593 125.029C20.4193 124.581 19.9594 124.112 19.539 123.678C24.9301 117.168 31.807 112.989 39.4012 108.378C40.7401 107.564 42.0926 106.743 43.4539 105.899C45.1727 104.832 45.7015 102.575 44.6351 100.856C43.5687 99.1379 41.3118 98.6091 39.5926 99.675C38.2518 100.507 36.9188 101.316 35.5994 102.117C26.8959 107.403 18.4359 112.542 11.9921 121.496C11.9638 121.534 11.933 121.569 11.9057 121.608C11.8886 121.632 11.8774 121.656 11.8608 121.681C10.9037 123.025 9.99164 124.453 9.1308 125.98C9.12738 125.745 9.12006 125.511 9.12006 125.277C9.12006 121.269 9.42719 117.156 10.0327 113.053C10.3276 111.052 8.94477 109.192 6.94429 108.896C4.95113 108.602 3.082 109.983 2.78659 111.984C2.12887 116.44 1.79587 120.912 1.79587 125.277C1.79587 130.38 2.44821 135.303 3.56588 140.087C1.9072 146.427 0.835422 153.942 0.510228 162.988C0.437474 165.01 2.01706 166.707 4.03853 166.78C4.08346 166.781 4.12838 166.782 4.17232 166.782C6.13423 166.782 7.75874 165.228 7.82954 163.252C7.9394 160.196 8.13569 157.344 8.40912 154.668C11.7177 162.521 15.8822 170.065 19.9848 177.492C22.8397 182.661 25.5365 187.543 27.9047 192.451C28.4213 193.52 28.9559 194.576 29.5057 195.618C26.7928 205.138 26.3861 214.694 28.5091 218.586C29.1737 219.805 30.4315 220.496 31.7289 220.496C32.3211 220.496 32.9217 220.352 33.4784 220.048C35.2537 219.08 35.909 216.857 34.9403 215.081C34.472 214.179 34.1507 210.423 35.0135 204.783C37.7537 208.809 40.7713 212.568 44.0535 216.021C44.7732 216.779 45.74 217.161 46.7088 217.161C47.6145 217.161 48.5222 216.826 49.2307 216.154C50.697 214.761 50.7561 212.442 49.3631 210.976C44.8265 206.201 40.8323 200.785 37.4329 194.828Z" fill="black"/>
<path d="M145.745 124.709C148.238 127.203 151.513 128.449 154.789 128.449C158.064 128.449 161.34 127.202 163.833 124.709L168.526 120.016C169.688 118.853 170.329 117.308 170.329 115.664C170.329 114.02 169.688 112.475 168.526 111.312L159.14 101.926C157.977 100.764 156.432 100.124 154.788 100.124C153.144 100.124 151.599 100.765 150.436 101.926L145.744 106.62C140.757 111.607 140.757 119.721 145.744 124.708L145.745 124.709ZM150.923 111.799L154.789 107.933L162.52 115.664L158.655 119.53C156.524 121.661 153.055 121.662 150.923 119.53C148.792 117.398 148.792 113.93 150.923 111.799Z" fill="black"/>
<path d="M25.3577 87.5776C23.8997 88.9785 23.8528 91.2968 25.2542 92.7553C25.9734 93.5034 26.9333 93.8803 27.8953 93.8803C28.8079 93.8803 29.7219 93.5414 30.4319 92.8588C32.5656 90.8095 36.8899 89.895 39.4353 90.3564C41.4211 90.7143 43.3312 89.3964 43.6921 87.4062C44.0529 85.4165 42.7321 83.5102 40.7419 83.1494C36.3488 82.353 29.4626 83.6333 25.3577 87.5776Z" fill="black"/>
<path d="M93.6969 157.94C94.4152 158.679 95.3693 159.05 96.3243 159.05C97.2438 159.05 98.1642 158.707 98.8756 158.015C100.326 156.606 100.36 154.288 98.9508 152.837C95.3053 149.084 87.422 130.187 91.9889 118.977C94.7501 112.199 95.8444 100.156 94.8439 87.5482C94.3317 81.0966 92.4459 65.3193 86.0075 58.1655C84.6545 56.6616 82.3386 56.5405 80.8356 57.8936C79.3327 59.2466 79.2106 61.562 80.5637 63.0654C83.9387 66.8159 86.613 76.4189 87.5422 88.1273C88.0275 94.245 87.985 100.263 87.4811 105.406C80.5832 93.5619 70.1814 89.078 63.9856 86.411C62.5423 85.7904 61.2957 85.2533 60.4392 84.7777C58.6697 83.7938 56.4412 84.4325 55.4598 86.2001C54.4773 87.9681 55.1141 90.1981 56.8821 91.1796C58.0613 91.8348 59.4651 92.4388 61.0901 93.1385C68.5881 96.3656 79.8312 101.214 84.7424 117.465C79.8225 131.89 88.3674 152.453 93.6969 157.94Z" fill="black"/>
</svg>
