<svg width="1517" height="26" viewBox="0 0 1517 26" fill="none" xmlns="http://www.w3.org/2000/svg">
<path d="M1516 13C1465.5 11.5676 1415 11.5676 1364.5 13C1205.14 20.6081 1237.5 16.6911 1213 13C1162.5 5.39189 1112 5.39189 1061.5 13C1012.44 20.1757 961.935 20.1757 910 13C859.5 5.82432 809 5.82432 758.5 13C691.024 25 640.524 25 607 13C556.5 1 506 1 455.5 13C411.625 21.8514 361.125 21.8514 304 13C253.5 4.14865 203 4.14865 152.5 13C110.789 18.7703 60.2893 18.7703 1 13" stroke="#222222" stroke-width="8"/>
</svg>
