<svg width="22" height="22" viewBox="0 0 22 22" fill="none" xmlns="http://www.w3.org/2000/svg">
<path d="M18.9215 8.63972L19.8485 7.71272C20.5859 6.97529 21.0002 5.97511 21.0002 4.93222C21.0002 3.88933 20.5859 2.88916 19.8485 2.15172C19.1111 1.41429 18.1109 1 17.068 1C16.0251 1 15.0249 1.41429 14.2875 2.15172L13.3605 3.07872L4.83851 11.5987C4.26151 12.1767 3.97251 12.4657 3.72451 12.7837C3.4319 13.1592 3.18077 13.5652 2.97551 13.9947C2.80251 14.3587 2.67351 14.7467 2.41551 15.5207L1.32151 18.8017M18.9215 8.63972C18.9215 8.63972 16.9525 8.52372 15.2145 6.78572C13.4765 5.04872 13.3615 3.07872 13.3615 3.07872M18.9215 8.63972L10.4005 17.1597C9.82351 17.7367 9.53451 18.0257 9.21651 18.2737C8.84103 18.5663 8.435 18.8175 8.00551 19.0227C7.64151 19.1957 7.25451 19.3247 6.47951 19.5827L3.19851 20.6767M3.19851 20.6767L2.39651 20.9447C2.20956 21.0074 2.00884 21.0167 1.81689 20.9716C1.62495 20.9264 1.4494 20.8287 1.30998 20.6893C1.17055 20.5498 1.07278 20.3743 1.02765 20.1823C0.982521 19.9904 0.991821 19.7897 1.05451 19.6027L1.32251 18.8007L3.19851 20.6767Z" stroke="#222222" stroke-width="1.5"/>
</svg>
