<svg width="48" height="48" viewBox="0 0 48 48" fill="none" xmlns="http://www.w3.org/2000/svg">
<rect x="0.5" y="0.5" width="47" height="47" rx="9.5" fill="#FAFAFA"/>
<rect x="0.5" y="0.5" width="47" height="47" rx="9.5" stroke="#C0BEBE"/>
<path d="M14.5 31.875H13.5H14.5ZM19.25 26.625V25.625V26.625ZM28.75 26.625V25.625V26.625ZM14.5 31.875H15.5C15.5 30.7173 15.917 29.6247 16.6328 28.8336L15.8912 28.1627L15.1497 27.4918C14.0839 28.6698 13.5 30.2479 13.5 31.875H14.5ZM15.8912 28.1627L16.6328 28.8336C17.3456 28.0458 18.2896 27.625 19.25 27.625V26.625V25.625C17.6909 25.625 16.2185 26.3104 15.1497 27.4918L15.8912 28.1627ZM19.25 26.625V27.625H28.75V26.625V25.625H19.25V26.625ZM28.75 26.625V27.625C29.7104 27.625 30.6544 28.0458 31.3672 28.8336L32.1088 28.1627L32.8503 27.4918C31.7815 26.3104 30.3091 25.625 28.75 25.625V26.625ZM32.1088 28.1627L31.3672 28.8336C32.083 29.6247 32.5 30.7173 32.5 31.875H33.5H34.5C34.5 30.2479 33.9161 28.6698 32.8503 27.4918L32.1088 28.1627ZM33.5 31.875H32.5C32.5 32.3365 32.3332 32.7614 32.0628 33.0602L32.8044 33.7312L33.5459 34.4021C34.1663 33.7163 34.5 32.8059 34.5 31.875H33.5ZM32.8044 33.7312L32.0628 33.0602C31.7955 33.3558 31.4555 33.5 31.125 33.5V34.5V35.5C32.0542 35.5 32.9225 35.0911 33.5459 34.4021L32.8044 33.7312ZM31.125 34.5V33.5H16.875V34.5V35.5H31.125V34.5ZM16.875 34.5V33.5C16.5445 33.5 16.2045 33.3558 15.9372 33.0602L15.1956 33.7312L14.4541 34.4021C15.0775 35.0911 15.9458 35.5 16.875 35.5V34.5ZM15.1956 33.7312L15.9372 33.0602C15.6668 32.7614 15.5 32.3365 15.5 31.875H14.5H13.5C13.5 32.8059 13.8337 33.7163 14.4541 34.4021L15.1956 33.7312ZM27.5625 17.4375H26.5625C26.5625 19.1564 25.3234 20.375 24 20.375V21.375V22.375C26.6116 22.375 28.5625 20.0679 28.5625 17.4375H27.5625ZM24 21.375V20.375C22.6766 20.375 21.4375 19.1564 21.4375 17.4375H20.4375H19.4375C19.4375 20.0679 21.3884 22.375 24 22.375V21.375ZM20.4375 17.4375H21.4375C21.4375 15.7186 22.6766 14.5 24 14.5V13.5V12.5C21.3884 12.5 19.4375 14.8071 19.4375 17.4375H20.4375ZM24 13.5V14.5C25.3234 14.5 26.5625 15.7186 26.5625 17.4375H27.5625H28.5625C28.5625 14.8071 26.6116 12.5 24 12.5V13.5Z" fill="#222222"/>
</svg>
