<svg width="233" height="363" viewBox="0 0 233 363" fill="none" xmlns="http://www.w3.org/2000/svg">
<path d="M228.4 283.28C228.69 281.57 228.84 279.82 228.84 278.04V112.34C228.84 101.08 220.7 86.99 211.85 81.36C218.13 75.98 222.29 68.48 214.58 38.58C208.13 13.55 188.84 -3.12 171.49 1.35C154.15 5.82 145.32 29.73 151.77 54.76C155.82 70.49 159.66 80.64 163.48 87C157.14 91.63 152.5 98.6 150.99 106.93L121.94 267.1L26.8601 284.34C11.9701 287.04 1.42008 299.74 0.860077 314.26C0.680077 315.61 0.580078 316.98 0.580078 318.38V330.5C0.580078 348 14.7701 362.19 32.2701 362.19H197.96C215.46 362.19 229.65 348 229.65 330.5V328.64C231.15 322.41 231.99 315.5 231.99 308.22C231.99 299.13 230.68 290.61 228.4 283.28ZM162.89 52.02C158.71 35.78 164.43 20.27 175.69 17.37C186.94 14.47 199.45 25.28 203.63 41.52C212.37 75.43 202.09 73.27 190.84 76.17C179.59 79.07 172.09 87.72 162.89 52.02ZM136.82 261.56L160.88 113.99C162.05 105.9 165.83 99.23 170.93 95.09C174.3 92.35 178.26 90.72 182.43 90.51C183.4 90.35 184.39 90.26 185.39 90.26H194.13C195.88 90.26 197.59 90.51 199.22 90.98C209.37 93.88 216.95 105.26 216.95 118.87V269.05C209.9 262.6 196.61 256.07 186.48 257.91L136.53 264.33C136.59 263.41 136.69 262.49 136.82 261.56ZM217.47 326.32C217.47 338.92 204.2 350.29 188.4 350.29H38.8001C23.0001 350.29 10.1901 340.08 10.1901 327.48V318.74C10.1901 317.74 10.2801 316.75 10.4401 315.78C10.9501 305.32 20.4701 296.18 33.9201 294.23L181.11 272.93C194.25 271.04 206.91 276.62 212.22 285.89C212.63 286.6 212.99 287.34 213.31 288.1C215.56 291.99 217.25 296.62 218.21 301.71C218.79 304.8 219.1 308.06 219.1 311.43C219.1 316.67 218.82 321.84 217.46 326.32H217.47Z" fill="#222222"/>
<path d="M178.96 302.91C175.99 305.59 173.03 308.26 169.71 311.24C163.22 315.91 156.53 319.17 149.33 321.38C146.31 322.31 145.54 324.61 146.2 327.27C146.83 329.82 148.44 331.82 151.45 331.71C152.76 331.66 154.07 331.29 155.35 330.94C167.8 327.53 177.43 319.84 186.21 310.79C188.48 308.45 190.59 306.16 187.79 303.18C185.16 300.39 181.99 300.17 178.96 302.91Z" fill="#222222"/>
<path d="M228.4 283.28C228.69 281.57 228.84 279.82 228.84 278.04V112.34C228.84 101.08 220.7 86.99 211.85 81.36C218.13 75.98 222.29 68.48 214.58 38.58C208.13 13.55 188.84 -3.12 171.49 1.35C154.15 5.82 145.32 29.73 151.77 54.76C155.82 70.49 159.66 80.64 163.48 87C157.14 91.63 152.5 98.6 150.99 106.93L121.94 267.1L26.8601 284.34C11.9701 287.04 1.42008 299.74 0.860077 314.26C0.680077 315.61 0.580078 316.98 0.580078 318.38V330.5C0.580078 348 14.7701 362.19 32.2701 362.19H197.96C215.46 362.19 229.65 348 229.65 330.5V328.64C231.15 322.41 231.99 315.5 231.99 308.22C231.99 299.13 230.68 290.61 228.4 283.28ZM162.89 52.02C158.71 35.78 164.43 20.27 175.69 17.37C186.94 14.47 199.45 25.28 203.63 41.52C212.37 75.43 202.09 73.27 190.84 76.17C179.59 79.07 172.09 87.72 162.89 52.02ZM136.82 261.56L160.88 113.99C162.05 105.9 165.83 99.23 170.93 95.09C174.3 92.35 178.26 90.72 182.43 90.51C183.4 90.35 184.39 90.26 185.39 90.26H194.13C195.88 90.26 197.59 90.51 199.22 90.98C209.37 93.88 216.95 105.26 216.95 118.87V269.05C209.9 262.6 196.61 256.07 186.48 257.91L136.53 264.33C136.59 263.41 136.69 262.49 136.82 261.56ZM217.47 326.32C217.47 338.92 204.2 350.29 188.4 350.29H38.8001C23.0001 350.29 10.1901 340.08 10.1901 327.48V318.74C10.1901 317.74 10.2801 316.75 10.4401 315.78C10.9501 305.32 20.4701 296.18 33.9201 294.23L181.11 272.93C194.25 271.04 206.91 276.62 212.22 285.89C212.63 286.6 212.99 287.34 213.31 288.1C215.56 291.99 217.25 296.62 218.21 301.71C218.79 304.8 219.1 308.06 219.1 311.43C219.1 316.67 218.82 321.84 217.46 326.32H217.47Z" stroke="#222222" stroke-width="0.5" stroke-miterlimit="10"/>
<path d="M178.96 302.91C175.99 305.59 173.03 308.26 169.71 311.24C163.22 315.91 156.53 319.17 149.33 321.38C146.31 322.31 145.54 324.61 146.2 327.27C146.83 329.82 148.44 331.82 151.45 331.71C152.76 331.66 154.07 331.29 155.35 330.94C167.8 327.53 177.43 319.84 186.21 310.79C188.48 308.45 190.59 306.16 187.79 303.18C185.16 300.39 181.99 300.17 178.96 302.91Z" stroke="#222222" stroke-width="0.5" stroke-miterlimit="10"/>
</svg>
