<svg width="25" height="40" viewBox="0 0 25 40" fill="none" xmlns="http://www.w3.org/2000/svg">
<path d="M24.1277 30.7067C24.1578 30.5269 24.1733 30.343 24.1733 30.1559V12.7411C24.1733 11.5577 23.3291 10.0768 22.4112 9.48512C23.0626 8.91969 23.494 8.13145 22.6944 4.989C22.0254 2.35838 20.0248 0.606379 18.2254 1.07617C16.4271 1.54596 15.5113 4.05887 16.1802 6.68949C16.6003 8.3427 16.9985 9.40945 17.3947 10.0779C16.7372 10.5645 16.2559 11.297 16.0993 12.1725L13.0865 29.0062L3.22555 30.8181C1.68128 31.1018 0.587118 32.4366 0.529039 33.9626C0.510371 34.1045 0.5 34.2485 0.5 34.3956V35.6694C0.5 37.5087 1.97167 39 3.78663 39H20.9707C22.7856 39 24.2573 37.5087 24.2573 35.6694V35.4739C24.4129 34.8192 24.5 34.0929 24.5 33.3278C24.5 32.3725 24.3641 31.477 24.1277 30.7067ZM17.3335 6.40152C16.9 4.69472 17.4932 3.06464 18.661 2.75985C19.8278 2.45507 21.1252 3.59118 21.5587 5.29799C22.4652 8.86189 21.399 8.63487 20.2323 8.93966C19.0655 9.24444 18.2877 10.1535 17.3335 6.40152ZM14.6297 28.4239L17.125 12.9145C17.2464 12.0642 17.6384 11.3632 18.1673 10.9281C18.5169 10.6402 18.9276 10.4688 19.36 10.4468C19.4606 10.43 19.5633 10.4205 19.667 10.4205H20.5735C20.755 10.4205 20.9323 10.4468 21.1014 10.4962C22.154 10.801 22.9402 11.997 22.9402 13.4274V29.2111C22.209 28.5332 20.8307 27.8469 19.7801 28.0403L14.5997 28.715C14.6059 28.6183 14.6162 28.5217 14.6297 28.4239ZM22.9941 35.2301C22.9941 36.5544 21.6178 37.7493 19.9792 37.7493H4.46387C2.82522 37.7493 1.49667 36.6763 1.49667 35.352V34.4335C1.49667 34.3284 1.50601 34.2243 1.5226 34.1224C1.57549 33.023 2.56283 32.0624 3.95776 31.8575L19.2231 29.6189C20.5859 29.4202 21.8989 30.0067 22.4496 30.981C22.4921 31.0556 22.5295 31.1334 22.5627 31.2132C22.796 31.6221 22.9713 32.1087 23.0708 32.6436C23.131 32.9684 23.1632 33.311 23.1632 33.6652C23.1632 34.2159 23.1341 34.7593 22.9931 35.2301H22.9941Z" fill="#222222"/>
<path d="M19.0002 32.7697C18.6921 33.0514 18.3851 33.332 18.0408 33.6452C17.3677 34.136 16.6739 34.4787 15.9272 34.7109C15.614 34.8087 15.5341 35.0504 15.6025 35.33C15.6679 35.598 15.8349 35.8082 16.147 35.7966C16.2829 35.7913 16.4188 35.7524 16.5515 35.7157C17.8427 35.3573 18.8415 34.5491 19.7521 33.5979C19.9875 33.352 20.2063 33.1113 19.9159 32.7981C19.6432 32.5049 19.3144 32.4818 19.0002 32.7697Z" fill="#222222"/>
<path d="M24.1277 30.7067C24.1578 30.5269 24.1733 30.343 24.1733 30.1559V12.7411C24.1733 11.5577 23.3291 10.0768 22.4112 9.48512C23.0626 8.91969 23.494 8.13145 22.6944 4.989C22.0254 2.35838 20.0248 0.606379 18.2254 1.07617C16.4271 1.54596 15.5113 4.05887 16.1802 6.68949C16.6003 8.3427 16.9985 9.40945 17.3947 10.0779C16.7372 10.5645 16.2559 11.297 16.0993 12.1725L13.0865 29.0062L3.22555 30.8181C1.68128 31.1018 0.587118 32.4366 0.529039 33.9626C0.510371 34.1045 0.5 34.2485 0.5 34.3956V35.6694C0.5 37.5087 1.97167 39 3.78663 39H20.9707C22.7856 39 24.2573 37.5087 24.2573 35.6694V35.4739C24.4129 34.8192 24.5 34.0929 24.5 33.3278C24.5 32.3725 24.3641 31.477 24.1277 30.7067ZM17.3335 6.40152C16.9 4.69472 17.4932 3.06464 18.661 2.75985C19.8278 2.45507 21.1252 3.59118 21.5587 5.29799C22.4652 8.86189 21.399 8.63487 20.2323 8.93966C19.0655 9.24444 18.2877 10.1535 17.3335 6.40152ZM14.6297 28.4239L17.125 12.9145C17.2464 12.0642 17.6384 11.3632 18.1673 10.9281C18.5169 10.6402 18.9276 10.4688 19.36 10.4468C19.4606 10.43 19.5633 10.4205 19.667 10.4205H20.5735C20.755 10.4205 20.9323 10.4468 21.1014 10.4962C22.154 10.801 22.9402 11.997 22.9402 13.4274V29.2111C22.209 28.5332 20.8307 27.8469 19.7801 28.0403L14.5997 28.715C14.6059 28.6183 14.6162 28.5217 14.6297 28.4239ZM22.9941 35.2301C22.9941 36.5544 21.6178 37.7493 19.9792 37.7493H4.46387C2.82522 37.7493 1.49667 36.6763 1.49667 35.352V34.4335C1.49667 34.3284 1.50601 34.2243 1.5226 34.1224C1.57549 33.023 2.56283 32.0624 3.95776 31.8575L19.2231 29.6189C20.5859 29.4202 21.8989 30.0067 22.4496 30.981C22.4921 31.0556 22.5295 31.1334 22.5627 31.2132C22.796 31.6221 22.9713 32.1087 23.0708 32.6436C23.131 32.9684 23.1632 33.311 23.1632 33.6652C23.1632 34.2159 23.1341 34.7593 22.9931 35.2301H22.9941Z" stroke="#C0BEBE" stroke-width="0.5" stroke-miterlimit="10"/>
<path d="M19.0002 32.7697C18.6921 33.0514 18.3851 33.332 18.0408 33.6452C17.3677 34.136 16.6739 34.4787 15.9272 34.7109C15.614 34.8087 15.5341 35.0504 15.6025 35.33C15.6679 35.598 15.8349 35.8082 16.147 35.7966C16.2829 35.7913 16.4188 35.7524 16.5515 35.7157C17.8427 35.3573 18.8415 34.5491 19.7521 33.5979C19.9875 33.352 20.2063 33.1113 19.9159 32.7981C19.6432 32.5049 19.3144 32.4818 19.0002 32.7697Z" stroke="#C0BEBE" stroke-width="0.5" stroke-miterlimit="10"/>
</svg>
