<svg width="449" height="185" viewBox="0 0 449 185" fill="none" xmlns="http://www.w3.org/2000/svg">
<path d="M56.9298 55.07C56.0598 54.61 55.0098 54.38 54.0398 54.69C53.7398 54.82 53.4398 54.94 53.1398 55.07C52.8098 55.27 52.5198 55.52 52.2698 55.8C51.3998 56.92 50.3998 57.91 49.2998 58.8C48.3598 59.47 47.3598 60.05 46.3098 60.53C45.5598 60.82 44.7898 61.08 43.9998 61.27C42.0898 61.73 40.7698 64 41.3798 65.88C42.0198 67.86 43.9498 69 45.9898 68.5C48.2898 67.94 50.5598 66.97 52.5398 65.66C54.8098 64.16 56.6298 62.36 58.2698 60.2C58.8198 59.48 58.8798 58.14 58.6498 57.31C58.4098 56.44 57.7398 55.5 56.9298 55.07Z" fill="#222222"/>
<path d="M423.43 126.08C422.47 125.86 421.39 125.91 420.54 126.46C419.71 126.99 419.09 127.74 418.82 128.7C418.19 130.92 417.55 133.14 416.92 135.35C416.65 136.28 416.81 137.41 417.3 138.24C417.76 139.02 418.65 139.76 419.54 139.96C420.5 140.18 421.58 140.13 422.43 139.58C423.26 139.05 423.88 138.3 424.15 137.34C424.78 135.12 425.42 132.9 426.05 130.69C426.32 129.76 426.16 128.63 425.67 127.8C425.21 127.02 424.32 126.28 423.43 126.08Z" fill="#222222"/>
<path d="M117.55 131.7C117.46 131.91 117.61 132.41 117.63 132.25C117.61 132.11 117.56 131.87 117.56 131.74C117.56 131.73 117.56 131.71 117.56 131.7H117.55Z" fill="#222222"/>
<path d="M86.8298 173.39C86.9798 173.37 87.2098 173.32 87.3498 173.32C87.3498 173.32 87.3698 173.32 87.3798 173.32C86.8698 173.21 86.6098 173.38 86.8398 173.39H86.8298Z" fill="#222222"/>
<path d="M86.6198 99.21C86.5498 99.21 86.4898 99.21 86.4198 99.21C86.6498 99.26 86.6898 99.24 86.6198 99.21Z" fill="#222222"/>
<path d="M89.8898 129.31C89.8898 129.31 89.9298 129.48 90.1898 129.65C90.1898 129.64 90.1798 129.63 90.1698 129.62C90.0798 129.54 89.9798 129.43 89.8898 129.31Z" fill="#222222"/>
<path d="M90.3398 143.08C90.4698 142.9 90.5498 142.64 90.3398 143.08V143.08Z" fill="#222222"/>
<path d="M101.39 121.8C96.0198 115.94 87.2698 113.52 79.7698 116.47C71.2298 119.82 65.5098 128.6 66.3098 137.86C67.0598 146.63 72.9798 154.12 81.5298 156.51C90.0798 158.9 98.8998 155.23 103.8 147.98C106.25 144.35 107.5 139.62 107.15 135.26C106.75 130.16 104.76 125.64 101.39 121.8ZM92.6798 127.21C92.5598 127.12 92.4098 127.02 92.3498 127.01C92.4298 127.01 92.5498 127.1 92.6798 127.21ZM90.3898 125.94C90.9898 126.14 90.3898 125.99 90.1498 125.86C90.2298 125.89 90.3098 125.92 90.3898 125.94ZM87.9798 125.27C88.8598 125.33 88.0498 125.4 87.7598 125.25C87.8298 125.25 87.8998 125.26 87.9798 125.27ZM75.6298 127.43C75.6298 127.43 75.6598 127.4 75.6698 127.39C75.6898 127.37 75.6998 127.37 75.7298 127.35C75.7998 127.3 75.8698 127.26 75.9398 127.21C75.8698 127.27 75.7298 127.37 75.6298 127.43ZM76.2998 137.97C76.3298 138.12 76.3498 138.27 76.3498 138.26C76.3198 138.23 76.3098 138.1 76.2998 137.97ZM78.2898 142.87C78.2898 142.87 78.3498 142.94 78.4198 143.03C78.3398 142.94 78.2798 142.87 78.2898 142.87ZM96.2698 141.09C96.2698 141.09 96.2898 141.03 96.3298 140.95C96.2998 141.03 96.2698 141.1 96.2698 141.09ZM97.1498 137.86C97.0998 138.78 97.0198 137.98 97.1498 137.72C97.1498 137.77 97.1498 137.82 97.1498 137.86ZM97.1898 137.37C97.1898 137.48 97.1698 137.6 97.1698 137.71C96.9698 138.02 96.8898 139.23 96.7998 139.55C96.6998 139.92 96.5698 140.27 96.4498 140.63C96.4498 140.64 96.4198 140.72 96.3898 140.81C96.0698 141.44 95.7498 142.06 95.3598 142.66C95.2398 142.84 94.7798 143.74 95.0798 143.11C95.0798 143.11 95.0798 143.1 95.0898 143.09C95.0798 143.1 95.0698 143.12 95.0598 143.13C94.8698 143.34 94.6898 143.56 94.4998 143.77C94.0698 144.24 93.5898 144.65 93.1198 145.09C92.9898 145.19 92.8398 145.32 92.7498 145.38C92.4198 145.61 92.0698 145.82 91.7198 146.03C91.3798 146.22 91.0298 146.4 90.6798 146.57C90.6598 146.57 90.6498 146.57 90.6298 146.58C89.9098 146.81 89.1998 147.03 88.4598 147.18C88.2898 147.13 87.6898 147.25 87.5498 147.26C87.1798 147.27 86.8098 147.27 86.4398 147.26C86.2198 147.26 85.6698 147.12 85.4198 147.17C85.0598 147.1 84.6998 147.02 84.3498 146.92C84.0498 146.84 83.7398 146.75 83.4398 146.65C83.2898 146.6 83.1398 146.54 82.9898 146.49C82.4798 146.24 81.9798 146 81.4898 145.71C81.1698 145.52 80.8598 145.32 80.5598 145.11C80.5098 145.07 80.4598 145.04 80.4098 145C79.9298 144.52 79.3998 144.1 78.9398 143.6C78.9098 143.56 78.6598 143.29 78.4898 143.09C78.3698 142.92 78.2498 142.76 78.1398 142.59C77.7798 142.05 77.4598 141.48 77.1698 140.9C77.1298 140.82 77.0898 140.75 77.0498 140.67C77.0498 140.64 77.0398 140.62 77.0298 140.59C76.9198 140.15 76.7398 139.72 76.6198 139.27C76.4998 138.82 76.4298 138.37 76.3298 137.92C76.3298 137.9 76.3298 137.89 76.3198 137.87C76.3198 137.78 76.3198 137.71 76.3198 137.68C76.2498 136.75 76.3298 135.84 76.3398 134.91C76.3398 134.87 76.3398 134.84 76.3398 134.82C76.3498 134.77 76.3698 134.71 76.3798 134.67C76.4498 134.28 76.5398 133.89 76.6298 133.51C76.7398 133.06 76.8798 132.62 77.0298 132.18C77.0798 132.03 77.1398 131.89 77.1898 131.74C77.5998 131.02 77.9498 130.29 78.4098 129.6C78.5098 129.46 78.6098 129.32 78.7098 129.18C79.0198 128.7 78.4398 129.54 78.4398 129.51C78.4898 129.21 79.0998 128.74 79.3198 128.5C79.3998 128.42 79.9998 127.81 80.3998 127.45C80.2698 127.53 80.2198 127.56 80.4398 127.41C80.6098 127.26 80.7398 127.15 80.7498 127.17C80.7498 127.17 80.7398 127.2 80.6998 127.22C80.7598 127.18 80.8198 127.13 80.8898 127.09C81.1898 126.88 81.5098 126.69 81.8298 126.51C82.1798 126.31 82.5498 126.13 82.9098 125.95C82.9498 125.94 82.9798 125.93 83.0198 125.91C83.7498 125.67 84.4798 125.45 85.2298 125.31C85.2598 125.31 85.2998 125.3 85.3298 125.29C85.6998 125.29 86.0898 125.23 86.4698 125.23C86.8198 125.23 87.1798 125.23 87.5298 125.25C87.6098 125.25 87.6798 125.26 87.7598 125.27C88.1898 125.56 89.3098 125.59 89.8098 125.75C89.9098 125.78 90.0198 125.82 90.1198 125.86C90.2998 126 90.9298 126.22 91.0698 126.29C91.4498 126.49 91.8198 126.71 92.1698 126.94C92.3098 127.03 92.4398 127.12 92.5698 127.21C92.7698 127.34 92.8198 127.36 92.8098 127.33C93.0398 127.54 93.2598 127.8 93.3598 127.89C93.6898 128.21 94.0098 128.54 94.3198 128.88C94.4098 128.99 94.5198 129.15 94.6398 129.31C94.6698 129.31 94.7498 129.36 94.8598 129.53C94.8798 129.56 94.8998 129.59 94.9198 129.62C94.9498 129.65 94.9798 129.68 95.0098 129.7C94.9798 129.68 94.9598 129.67 94.9398 129.65C95.0098 129.75 95.0798 129.86 95.1498 129.96C95.5898 130.63 95.9298 131.33 96.3098 132.04C96.3098 132.06 96.3298 132.08 96.3398 132.1C96.4598 132.41 96.5598 132.73 96.6598 133.05C96.8598 133.71 96.9798 134.37 97.1298 135.03C97.1398 135.14 97.1598 135.24 97.1598 135.26C97.1798 135.64 97.2098 136.02 97.2098 136.4C97.2098 136.72 97.2098 137.05 97.1898 137.37Z" fill="#222222"/>
<path d="M446.34 110.47C441.63 97.01 431.78 86.05 420.81 77.25C409.49 68.17 396.44 61.02 382.19 57.85C374.97 56.25 367.58 55.88 360.21 55.7C353.31 55.54 346.3 55.58 339.51 54.24C333.25 53 327.86 50.46 322.55 46.99C317.72 43.82 313.49 40.5 309.14 37.08C300.61 30.36 292.07 23.64 283.27 17.28C278.51 13.84 273.49 11.03 267.91 9.14002C259.68 6.36002 217.01 4.33002 208.41 3.45002C194.37 2.02002 180.19 1.03002 166.07 0.98002C155.75 0.94002 145.3 1.49003 135.2 3.74003C127.76 5.40003 120.66 8.22002 113.86 11.65C106.01 15.6 98.3898 20.03 90.6298 24.14C77.4298 31.13 64.1798 38.5 49.8998 43.07C43.5998 45.09 37.2198 46.52 30.7598 46.85C24.6398 47.16 18.3398 46.02 12.3298 47.6C5.02977 49.52 1.03977 55.59 0.549772 62.91C0.289772 66.81 0.879773 70.79 1.19977 74.67L2.25977 87.47C2.92977 95.6 3.51977 103.74 4.30977 111.86C5.01977 119.21 5.98977 126.68 8.74977 133.58C12.5998 143.19 19.3098 150.92 29.3998 154.03C34.2598 155.53 39.4298 156.03 44.5298 156.18C46.5198 160.68 49.2098 164.88 52.6098 168.61C58.5698 175.17 66.5598 180 75.1098 182.33C83.7398 184.68 93.2298 184.53 101.66 181.44C111.07 178 119.07 171.55 124.62 163.22C126.08 161.03 127.31 158.73 128.35 156.36C146.85 156.36 165.35 156.37 183.85 156.36C203.75 156.36 257.47 157.41 277.37 157.33C287.56 157.29 297.75 157.24 307.94 157.17C309.93 161.7 312.64 165.91 316.05 169.67C322.01 176.23 330 181.06 338.55 183.39C347.18 185.74 356.67 185.59 365.1 182.5C374.51 179.06 382.51 172.61 388.06 164.28C389.57 162.01 390.85 159.62 391.91 157.14C403.51 157.14 415.11 157.14 426.71 157.14C428.66 157.14 430.64 157.24 432.59 157.14C437.42 156.9 441.57 151.28 443.73 147.4C449.83 136.45 450.43 122.17 446.33 110.45L446.34 110.47ZM406.83 88.11C406.96 87.91 407.09 87.71 407.23 87.51C407.14 87.64 406.81 87.97 407.3 87.42C407.62 87.07 407.95 86.73 408.3 86.4C408.33 86.37 408.42 86.3 408.49 86.25C408.69 86.11 408.89 85.98 409.09 85.86C409.26 85.76 409.45 85.69 409.61 85.58C409.64 85.58 409.66 85.57 409.7 85.56C410.23 85.42 410.75 85.28 411.27 85.15C411.32 85.14 411.35 85.13 411.39 85.12C411.7 85.09 412 85.06 412.31 85.04C412.84 85.01 413.36 85.02 413.89 85.04C414.12 85.05 414.36 85.07 414.59 85.09C414.63 85.09 414.64 85.09 414.66 85.09C414.97 85.35 415.29 85.6 415.6 85.86C423.24 92.27 430.73 99.89 435.02 109.06C427.02 109.36 419.5 107.16 412.78 102.5C411.21 101.41 409.71 100.17 408.2 98.42C408.04 98.23 407.87 98.04 407.72 97.84C407.69 97.79 407.64 97.73 407.59 97.65C407.31 97.22 407.02 96.79 406.77 96.35C406.64 96.13 406.53 95.9 406.41 95.67C406.39 95.63 406.31 95.45 406.26 95.36C406.05 94.82 405.88 94.25 405.75 93.68C405.7 93.46 405.65 93.22 405.62 93C405.62 92.95 405.62 92.88 405.62 92.8C405.62 92.31 405.62 91.83 405.64 91.35C405.64 91.32 405.64 91.28 405.66 91.24C405.7 91.01 405.75 90.79 405.81 90.56C405.87 90.33 405.93 90.09 406.01 89.86C406.02 89.81 406.13 89.51 406.2 89.33C406.29 89.16 406.49 88.71 406.47 88.75C406.58 88.54 406.7 88.33 406.83 88.12V88.11ZM407.74 97.86C407.83 97.98 407.91 98.12 407.74 97.86V97.86ZM405.67 91.21C405.7 91.02 405.75 90.79 405.67 91.21V91.21ZM13.6198 105.6C12.8598 97.5 12.3498 89.36 11.7398 81.26C13.7798 81.11 15.8598 80.98 17.8898 81.26C18.4298 81.33 19.7398 81.66 20.5498 81.95C20.9698 82.11 21.0098 82.13 20.6898 82C20.9198 82.11 21.1398 82.22 21.3498 82.34C21.6798 82.52 21.9898 82.72 22.2998 82.92C22.5298 83.07 23.3998 83.93 23.5298 84.14C23.5998 84.26 23.9998 85.06 24.0098 85.03C24.0898 85.28 24.1698 85.52 24.2298 85.78C24.2798 86.06 24.3098 86.19 24.3098 86.2C24.5598 88.33 23.9898 90.06 23.4098 92.21C22.3498 96.14 21.3098 100.23 18.8698 102.92C18.5898 103.23 18.2698 103.51 17.9698 103.81C17.8098 103.94 17.7198 104.01 17.6998 104.04C17.5598 104.14 17.4198 104.24 17.2798 104.33C16.8698 104.6 16.4398 104.82 16.0098 105.05C15.9298 105.09 15.8798 105.11 15.8298 105.13C15.6298 105.2 15.4298 105.28 15.2198 105.34C14.8398 105.46 14.4498 105.55 14.0598 105.62C14.0998 105.6 13.8598 105.6 13.5998 105.62L13.6198 105.6ZM82.3398 173.66C81.7098 173.59 82.1498 173.63 82.4798 173.67C82.4298 173.67 82.3898 173.67 82.3398 173.66ZM99.9798 171.43C99.9798 171.43 100.25 171.34 100.42 171.27C100.25 171.36 100.08 171.45 99.9798 171.43ZM122.23 140.2C122.2 140.64 122.17 141.07 122.12 141.5C122.09 141.77 122.06 142.04 122.03 142.31C122.03 142.31 122.03 142.31 122.03 142.32C121.64 144.29 121.31 146.25 120.73 148.18C120.59 148.65 120.42 149.11 120.26 149.57C120.2 149.72 120.15 149.87 120.11 150.02C120.02 150.28 119.94 150.55 119.84 150.82C119.79 150.96 119.69 151.38 119.56 151.72C119.57 151.64 119.53 151.65 119.41 151.91C119.27 152.21 119.14 152.51 119 152.81C118.13 154.66 117.12 156.45 115.98 158.16C115.7 158.58 115.41 158.99 115.12 159.4C114.99 159.58 114.85 159.76 114.72 159.94C114.27 160.56 114.68 160.03 114.84 159.81C114.32 160.72 113.38 161.57 112.68 162.33C111.26 163.87 109.72 165.3 108.09 166.62C108.04 166.66 107.35 167.18 107.57 167.02C107.48 167.08 107.41 167.13 107.4 167.14C107.02 167.42 106.63 167.69 106.24 167.95C105.33 168.57 104.39 169.14 103.44 169.68C102.55 170.18 101.65 170.64 100.72 171.07C100.66 171.1 100.57 171.15 100.48 171.2C100.43 171.22 100.35 171.25 100.23 171.3C99.7198 171.5 99.1998 171.7 98.6798 171.89C96.8398 172.55 94.9498 173.06 93.0298 173.43C92.6098 173.51 92.1998 173.57 91.7798 173.64C91.7898 173.64 91.8098 173.64 91.8198 173.64C91.7998 173.64 91.7798 173.64 91.7498 173.64C91.6498 173.66 91.5398 173.68 91.4398 173.69C91.3398 173.71 91.2798 173.71 91.2298 173.7C91.2098 173.7 91.1898 173.7 91.1798 173.7C90.1198 173.81 89.0598 173.88 87.9998 173.9C86.1798 173.94 84.3698 173.83 82.5598 173.64C82.3598 173.59 82.1098 173.58 81.9198 173.55C81.4498 173.47 80.9898 173.39 80.5198 173.3C79.5398 173.1 78.5698 172.87 77.5998 172.6C76.7398 172.36 75.8798 172.1 75.0398 171.8C74.5398 171.63 74.0498 171.45 73.5598 171.25C73.3798 171.18 73.1998 171.11 73.0298 171.04C73.0298 171.04 73.0198 171.04 73.0098 171.03C71.2798 170.23 69.5898 169.38 67.9698 168.39C67.1598 167.89 66.3598 167.37 65.5898 166.82C65.2498 166.58 64.9298 166.33 64.5998 166.09C64.3898 165.91 64.1698 165.74 63.9598 165.57C62.4498 164.31 61.0198 162.95 59.6998 161.49C59.4898 161.26 57.7298 159.44 57.8298 159.29C57.8298 159.29 58.5798 160.3 58.0198 159.54C57.8898 159.37 57.7598 159.2 57.6398 159.02C57.3198 158.58 57.0098 158.14 56.7198 157.7C55.5698 155.99 54.5498 154.18 53.6798 152.31C53.5998 152.14 53.3598 151.58 53.3098 151.47C53.1398 151.04 52.9698 150.61 52.8098 150.18C52.3798 148.99 51.9998 147.77 51.6798 146.54C51.3798 145.37 51.1298 144.19 50.9198 143.01C50.8798 142.75 50.8298 142.48 50.7898 142.22C50.7698 142.08 50.7498 141.99 50.7398 141.93C50.6498 141.35 50.6298 140.73 50.5898 140.16C50.4098 137.68 50.4398 135.19 50.6798 132.71C50.7098 132.44 50.7398 132.18 50.7598 131.91C50.7798 131.75 50.7898 131.65 50.7898 131.59C50.8498 131.14 50.9398 130.69 51.0198 130.25C51.2498 128.99 51.5298 127.75 51.8598 126.52C52.1798 125.36 52.5398 124.2 52.9498 123.07C53.1298 122.57 53.3298 122.07 53.5198 121.57C53.5198 121.55 53.5298 121.53 53.5398 121.51C53.5398 121.5 53.5498 121.49 53.5598 121.47C53.7298 121.11 53.8898 120.74 54.0598 120.38C55.0698 118.26 56.2598 116.22 57.6098 114.29C57.8698 113.91 58.1498 113.54 58.4198 113.17C58.4298 113.16 58.4398 113.15 58.4498 113.13C58.5998 112.94 58.7498 112.75 58.8998 112.57C59.5398 111.79 60.1998 111.04 60.8998 110.3C62.2598 108.86 63.7398 107.57 65.2598 106.31C65.4298 106.19 65.5898 106.06 65.7598 105.94C66.1498 105.66 66.5398 105.39 66.9398 105.12C67.7698 104.56 68.6298 104.04 69.4998 103.55C70.3198 103.09 71.1498 102.66 71.9998 102.26C72.1698 102.18 72.3898 102.11 72.6098 102.03C72.6498 101.98 72.7498 101.9 72.9398 101.83C72.9898 101.81 73.0498 101.79 73.0998 101.77C73.0998 101.77 73.1198 101.76 73.1298 101.75C73.1298 101.75 73.1198 101.76 73.1098 101.77C73.2898 101.7 73.4698 101.62 73.6598 101.56C75.4798 100.87 77.3598 100.31 79.2598 99.9C80.0798 99.72 80.8998 99.61 81.7198 99.45C81.8698 99.43 82.0098 99.42 82.1598 99.4C82.6698 99.35 83.1698 99.3 83.6798 99.27C84.5898 99.21 85.4998 99.19 86.4098 99.19C86.3098 99.17 86.1698 99.13 85.9698 99.08C86.0098 99.08 86.0498 99.08 86.0898 99.09C86.2098 99.11 86.3298 99.12 86.4498 99.14C86.5198 99.16 86.5698 99.17 86.6098 99.19C87.5198 99.2 88.4298 99.24 89.3398 99.31C89.6998 99.34 90.0498 99.38 90.3998 99.42C90.3598 99.41 90.3398 99.4 90.2898 99.39C90.3598 99.41 90.4398 99.42 90.5098 99.43C90.5698 99.43 90.6398 99.44 90.6998 99.45C90.7598 99.45 90.8198 99.47 90.8698 99.48C90.8698 99.48 90.8898 99.48 90.8998 99.48C91.9198 99.64 92.9198 99.84 93.9198 100.09C95.6598 100.51 97.3398 101.07 99.0098 101.71C99.1798 101.83 99.4998 101.91 99.6598 101.98C100.09 102.18 100.52 102.38 100.95 102.59C101.86 103.04 102.75 103.53 103.62 104.05C104.41 104.52 105.19 105.03 105.94 105.55C106.27 105.78 107.06 106.18 107.27 106.52C107.23 106.45 106.34 105.78 107.05 106.35C107.31 106.56 107.57 106.77 107.83 106.98C109.41 108.3 110.88 109.74 112.26 111.27C112.66 111.72 113.06 112.17 113.44 112.64C113.69 112.94 114.4 114.09 113.77 113.03C114.33 113.98 115.1 114.84 115.71 115.77C116.88 117.55 117.92 119.42 118.83 121.35C118.93 121.56 119.02 121.76 119.11 121.97C119.12 122 119.2 122.17 119.27 122.32C119.3 122.39 119.33 122.45 119.34 122.49C119.44 122.75 119.55 123.01 119.65 123.28C120.01 124.22 120.33 125.18 120.62 126.15C121.2 128.07 121.61 130.02 121.94 132C121.94 132 121.94 131.98 121.95 131.97C121.95 131.97 121.95 132.01 121.95 132.05C121.97 132.14 121.98 132.23 122 132.32C122.02 132.45 122.02 132.52 122.02 132.56C122.02 132.58 122.02 132.62 122.03 132.63C122.08 133.12 122.13 133.61 122.17 134.11C122.25 135.15 122.29 136.19 122.29 137.23C122.29 138.21 122.26 139.2 122.2 140.18L122.23 140.2ZM68.1898 101.72C68.3798 101.65 68.5598 101.56 68.6798 101.46C68.6798 101.46 68.6798 101.46 68.6898 101.46C68.2998 101.82 68.0998 101.83 68.1798 101.73L68.1898 101.72ZM99.1498 101.77C99.1498 101.77 99.2398 101.8 99.2898 101.82C99.8998 102.06 99.4398 101.89 99.1498 101.77ZM169.24 145.49C169.24 145.49 156.01 111.45 149.94 64.47C149.94 64.47 191.4 68.56 213.92 68.56L214.28 146.86L169.24 145.5V145.49ZM210.13 32.36C210.28 32.38 210.43 32.4 210.58 32.42C211.08 32.48 210.95 32.47 210.65 32.42C210.72 32.43 210.8 32.44 210.87 32.45C211.37 32.52 211.88 32.6 212.38 32.68C212.49 32.7 213.17 32.74 214.25 32.79L213.58 58.45C207.94 58.3 203.06 58.16 199.43 58.03C188.47 57.66 177.51 57.09 166.57 56.23C161.52 55.83 156.48 55.37 151.44 54.84C152.56 47 153.69 39.16 154.81 31.32C156.81 31.24 158.81 31.16 160.81 31.1C172.41 30.76 184.04 30.73 195.63 31.24C200.59 31.46 205.55 31.77 210.48 32.39C210.49 32.39 210.5 32.39 210.51 32.39C210.39 32.37 210.25 32.35 210.13 32.34V32.36ZM267.02 42.23C270.56 44.4 273.96 46.79 277.27 49.29C277.59 49.53 277.92 49.78 278.24 50.03C278.14 49.96 278.66 50.35 278.85 50.5C279.71 51.17 280.56 51.85 281.41 52.54C283.04 53.86 284.66 55.2 286.26 56.56C287.55 57.65 288.83 58.76 290.1 59.88C276.5 59.88 245.5 59.27 222.07 58.69L221.94 33.13C232.54 33.55 248.22 34.15 248.8 34.28C249.94 34.53 251.06 34.84 252.17 35.18C253.03 35.45 253.89 35.74 254.74 36.05C255.17 36.21 255.6 36.37 256.02 36.54C256.36 36.67 257.68 37.16 256.66 36.79C260.27 38.09 263.75 40.24 267.01 42.24L267.02 42.23ZM266.88 147.44L271.02 143.04C272.6 141.36 272.49 138.74 270.77 137.2C269.05 135.65 266.37 135.76 264.79 137.45L255.44 147.38L248.27 147.34L263.11 131.57C264.69 129.89 264.58 127.27 262.86 125.73C261.14 124.18 258.46 124.29 256.88 125.98L236.83 147.29L231.92 147.26L242.18 136.35C243.76 134.67 243.65 132.05 241.93 130.51C240.21 128.96 237.53 129.07 235.95 130.76L222.11 145.47L222.45 68.58C222.45 68.58 265.5 69.87 297.55 68.85C297.55 68.85 280.98 117.26 282.72 147.56L266.87 147.47L266.88 147.44ZM345.77 174.73C345.14 174.66 345.58 174.7 345.91 174.74C345.86 174.74 345.82 174.74 345.77 174.73ZM363.41 172.51C363.41 172.51 363.68 172.42 363.85 172.35C363.68 172.44 363.51 172.53 363.41 172.51ZM385.66 141.28C385.63 141.72 385.6 142.15 385.55 142.58C385.52 142.85 385.49 143.12 385.46 143.39C385.46 143.39 385.46 143.39 385.46 143.4C385.07 145.37 384.74 147.33 384.16 149.26C383.89 150.15 383.6 151.03 383.27 151.9C383.22 152.04 383.12 152.46 382.99 152.8C383 152.72 382.96 152.73 382.84 152.99C382.7 153.29 382.57 153.59 382.43 153.89C381.56 155.74 380.55 157.53 379.41 159.24C379.13 159.66 378.84 160.07 378.55 160.48C378.42 160.66 378.28 160.84 378.15 161.02C377.7 161.64 378.11 161.11 378.27 160.89C377.75 161.8 376.81 162.65 376.11 163.41C374.69 164.95 373.15 166.38 371.52 167.7C371.47 167.74 370.77 168.26 371 168.1C370.91 168.16 370.84 168.21 370.83 168.22C370.45 168.5 370.06 168.77 369.67 169.03C368.76 169.65 367.82 170.22 366.87 170.76C365.98 171.26 365.08 171.72 364.15 172.15C364.09 172.18 364 172.23 363.91 172.28C363.86 172.3 363.78 172.33 363.66 172.38C363.15 172.58 362.63 172.78 362.11 172.97C360.27 173.63 358.38 174.14 356.46 174.51C356.04 174.59 355.63 174.65 355.21 174.72C355.22 174.72 355.24 174.72 355.25 174.72C355.23 174.72 355.21 174.72 355.18 174.72C355.08 174.74 354.97 174.76 354.87 174.77C354.77 174.79 354.71 174.79 354.66 174.78C354.64 174.78 354.62 174.78 354.61 174.78C353.55 174.89 352.49 174.96 351.43 174.98C349.61 175.02 347.8 174.91 345.99 174.72C345.79 174.67 345.54 174.66 345.35 174.63C344.88 174.55 344.42 174.47 343.95 174.38C342.97 174.18 342 173.95 341.03 173.68C340.17 173.44 339.31 173.18 338.47 172.88C337.97 172.71 337.48 172.53 336.99 172.33C336.81 172.26 336.63 172.19 336.46 172.12C336.46 172.12 336.45 172.12 336.44 172.11C334.71 171.31 333.02 170.46 331.4 169.47C330.59 168.97 329.79 168.45 329.02 167.9C328.68 167.66 328.36 167.41 328.03 167.17C327.82 166.99 327.6 166.82 327.39 166.65C325.88 165.39 324.45 164.03 323.13 162.57C322.92 162.34 321.16 160.52 321.26 160.37C321.26 160.37 322.01 161.38 321.45 160.62C321.32 160.45 321.19 160.28 321.07 160.1C320.75 159.66 320.44 159.22 320.15 158.78C319 157.07 317.98 155.26 317.11 153.39C317.03 153.22 316.79 152.66 316.74 152.55C316.57 152.12 316.4 151.69 316.24 151.26C315.81 150.07 315.43 148.85 315.11 147.62C314.81 146.45 314.56 145.27 314.35 144.09C314.31 143.83 314.26 143.56 314.22 143.3C314.2 143.16 314.18 143.07 314.17 143.01C314.08 142.43 314.06 141.81 314.02 141.24C313.84 138.76 313.87 136.27 314.11 133.79C314.14 133.52 314.17 133.26 314.19 132.99C314.21 132.83 314.21 132.74 314.22 132.67C314.28 132.22 314.37 131.76 314.45 131.33C314.68 130.07 314.96 128.83 315.29 127.6C315.61 126.44 315.97 125.28 316.38 124.15C316.56 123.65 316.76 123.15 316.95 122.65C316.95 122.63 316.96 122.61 316.97 122.59C316.97 122.58 316.98 122.57 316.99 122.55C317.16 122.19 317.32 121.82 317.49 121.46C318.5 119.34 319.69 117.3 321.04 115.37C321.3 114.99 321.58 114.62 321.85 114.25C321.86 114.24 321.87 114.23 321.88 114.21C322.03 114.02 322.18 113.83 322.33 113.65C322.97 112.87 323.63 112.12 324.33 111.38C325.69 109.94 327.17 108.65 328.69 107.39C328.86 107.27 329.02 107.14 329.19 107.02C329.58 106.74 329.97 106.47 330.37 106.2C331.2 105.64 332.06 105.12 332.93 104.63C333.75 104.17 334.58 103.74 335.43 103.34C335.6 103.26 335.82 103.19 336.04 103.11C336.08 103.06 336.18 102.98 336.37 102.91C336.42 102.89 336.48 102.87 336.53 102.85C336.53 102.85 336.55 102.84 336.56 102.83C336.56 102.83 336.55 102.84 336.54 102.85C336.72 102.78 336.9 102.7 337.09 102.64C338.91 101.95 340.79 101.39 342.69 100.98C343.51 100.8 344.33 100.69 345.15 100.53C345.3 100.51 345.44 100.5 345.59 100.48C346.1 100.43 346.6 100.38 347.11 100.35C348.02 100.29 348.93 100.27 349.84 100.27C349.74 100.25 349.6 100.21 349.41 100.16C349.45 100.16 349.49 100.16 349.53 100.17C349.65 100.19 349.77 100.2 349.89 100.22C349.96 100.24 350.01 100.25 350.05 100.27C350.96 100.28 351.87 100.32 352.78 100.39C353.14 100.42 353.49 100.46 353.84 100.5C353.8 100.49 353.78 100.48 353.73 100.47C353.8 100.49 353.88 100.5 353.95 100.51C354.01 100.51 354.08 100.52 354.14 100.53C354.2 100.53 354.26 100.55 354.31 100.56C354.31 100.56 354.33 100.56 354.34 100.56C355.36 100.72 356.36 100.92 357.36 101.17C359.1 101.59 360.78 102.15 362.45 102.79C362.62 102.91 362.94 102.99 363.1 103.06C363.53 103.26 363.96 103.46 364.39 103.67C365.3 104.12 366.19 104.61 367.06 105.13C367.85 105.6 368.63 106.11 369.38 106.63C369.71 106.86 370.5 107.26 370.71 107.6C370.67 107.53 369.78 106.86 370.49 107.43C370.75 107.64 371.01 107.85 371.27 108.06C372.85 109.38 374.32 110.82 375.7 112.35C376.1 112.8 376.5 113.25 376.88 113.72C377.13 114.02 377.84 115.17 377.21 114.11C377.77 115.06 378.54 115.92 379.15 116.85C380.32 118.63 381.36 120.5 382.27 122.43C382.37 122.64 382.46 122.84 382.55 123.05C382.56 123.08 382.64 123.25 382.71 123.41C382.74 123.48 382.76 123.54 382.78 123.58C382.88 123.84 382.99 124.1 383.09 124.37C383.45 125.31 383.77 126.27 384.06 127.24C384.64 129.16 385.05 131.11 385.38 133.09C385.38 133.09 385.38 133.07 385.39 133.06C385.39 133.06 385.39 133.1 385.39 133.14C385.41 133.23 385.42 133.32 385.44 133.41C385.46 133.55 385.47 133.61 385.46 133.65C385.46 133.67 385.46 133.71 385.47 133.72C385.52 134.21 385.57 134.7 385.61 135.2C385.69 136.24 385.73 137.28 385.73 138.32C385.73 139.3 385.7 140.29 385.64 141.27L385.66 141.28ZM331.63 102.79C331.82 102.72 332 102.63 332.12 102.53C332.12 102.53 332.12 102.53 332.13 102.53C331.74 102.89 331.54 102.9 331.62 102.8L331.63 102.79ZM362.58 102.85C362.58 102.85 362.67 102.88 362.72 102.9C363.33 103.14 362.87 102.97 362.58 102.85ZM436.47 139.51C436.03 140.7 434.78 143.1 433.63 144.71C433.52 144.87 433.47 144.95 433.44 144.98C433.42 145 433.35 145.06 433.2 145.23C432.88 145.59 432.56 145.94 432.22 146.28C431.92 146.58 431.59 146.86 431.27 147.14H394.91C397.13 134.91 394.56 121.83 387.52 111.37C386.09 109.24 384.5 107.21 382.79 105.29C376.67 98.52 368.51 93.46 359.58 91.42C351.15 89.49 342.08 89.98 334.01 93.16C325.07 96.68 317.65 102.7 312.22 110.61C306.06 119.59 303.14 131.01 304.07 141.85C304.22 143.65 304.48 145.43 304.82 147.19C300.25 147.22 295.69 147.24 291.12 147.26C292.25 125.73 296.09 104.57 302.56 83.88C304.46 77.8 306.59 71.79 308.92 65.85C309.55 64.25 308.48 62.25 306.98 61.49C306.92 61.43 306.88 61.37 306.82 61.32C294.32 50.2 281.74 38.44 266.83 30.58C261.21 27.62 255.22 25.18 248.94 24.13C243.98 23.3 205.15 21.78 200.14 21.48C188.33 20.76 176.47 20.74 164.64 21.01C155.56 21.21 146.37 21.4 137.35 22.56C122.35 24.48 108.31 33 97.5098 43.31C96.1198 44.64 94.7798 46.03 93.4898 47.46C93.4698 47.48 93.4598 47.5 93.4498 47.52C92.8598 48.09 92.3998 48.8 92.2098 49.67C92.1198 50.05 92.0898 50.44 92.0898 50.83C92.0098 52.02 92.3398 53.21 93.1698 54.16C93.2498 54.27 93.3498 54.37 93.4398 54.48C93.4598 54.5 93.4698 54.52 93.4998 54.54C93.5098 54.54 93.5198 54.56 93.5298 54.56C94.0998 55.16 94.8198 55.62 95.6998 55.82C111.29 59.32 127.06 61.95 142.92 63.88C144.36 86.93 148.17 109.85 154.36 132.1C155.69 136.89 157.13 141.64 158.68 146.36C158.45 146.36 158.22 146.36 157.98 146.36C149.13 146.36 140.28 146.36 131.43 146.36C133.74 134.04 131.19 120.85 124.1 110.32C122.67 108.19 121.08 106.16 119.37 104.24C113.25 97.47 105.09 92.41 96.1598 90.37C87.7298 88.44 78.6598 88.93 70.5898 92.11C61.6498 95.63 54.2298 101.65 48.7998 109.56C42.6398 118.54 39.7198 129.96 40.6498 140.8C40.7998 142.57 41.0498 144.32 41.3898 146.05C38.6498 145.86 36.0198 145.48 33.1898 144.72C32.2498 144.47 31.3298 144.18 30.4198 143.84C30.2298 143.77 29.9098 143.63 29.7798 143.57C29.4498 143.42 29.1198 143.27 28.7998 143.1C28.0598 142.72 27.3498 142.3 26.6598 141.84C26.3498 141.63 26.0498 141.41 25.7498 141.2C26.6398 141.83 25.6698 141.12 25.3498 140.84C24.8098 140.36 24.2898 139.86 23.7998 139.34C23.5098 139.03 23.2298 138.72 22.9598 138.4C22.7998 138.21 22.5698 137.92 22.4798 137.82C21.3498 136.31 20.3298 134.71 19.4498 133.04C16.7698 127.96 15.5898 122.09 14.8398 116.44C14.6898 115.32 14.5598 114.19 14.4298 113.06C16.5198 112.91 18.5798 112.27 20.4798 111.19C24.4398 108.93 26.8498 105.09 28.5298 100.97C30.1698 96.95 31.5298 92.34 31.8398 88C32.1798 83.15 29.8798 78.83 25.8098 76.25C21.4398 73.47 16.1498 73.48 11.1598 73.83C10.9398 71.34 10.7098 68.86 10.5898 66.37C10.4798 63.99 10.3898 61.48 11.6698 59.39C12.0798 58.72 11.6198 59.31 12.1598 58.78C12.3298 58.62 12.4998 58.45 12.6698 58.3C12.6998 58.28 12.7598 58.25 12.8598 58.19C13.0298 58.09 13.6798 57.74 13.7898 57.67C13.9598 57.62 14.7698 57.35 15.0298 57.28C15.2398 57.22 16.1798 57.03 16.3498 56.98C16.4798 56.98 17.2798 56.88 17.4998 56.87C18.7298 56.78 19.9598 56.77 21.1898 56.79C26.8098 56.88 32.2298 56.95 37.8198 56.17C43.4998 55.38 49.0698 53.97 54.4898 52.12C66.5398 48.03 77.9398 42.18 89.1698 36.26C97.0798 32.1 104.92 27.85 112.77 23.57C115.46 22.11 118.16 20.67 120.92 19.34C122.23 18.71 123.55 18.11 124.89 17.52C124.93 17.5 124.96 17.49 124.99 17.47C125.02 17.46 125.05 17.45 125.08 17.43C125.39 17.31 125.7 17.18 126.02 17.05C126.76 16.76 127.5 16.48 128.24 16.21C131.21 15.13 134.25 14.24 137.33 13.53C138.99 13.15 140.67 12.82 142.35 12.53C143.25 12.38 144.14 12.24 145.04 12.11C145.11 12.1 145.16 12.09 145.21 12.08C145.26 12.08 145.33 12.07 145.43 12.06C145.95 12 146.46 11.93 146.98 11.88C156.88 10.78 166.89 10.85 176.83 11.25C188.51 11.72 200.22 12.52 211.83 13.84C212.89 13.96 247.75 15.17 248.81 15.3C248.94 15.32 249.03 15.33 249.09 15.33C249.14 15.33 249.22 15.35 249.32 15.36C249.83 15.43 250.35 15.5 250.86 15.58C252.66 15.85 254.46 16.14 256.25 16.49C259.11 17.04 261.95 17.71 264.72 18.61C265.83 18.97 266.91 19.42 268 19.81C268.24 19.92 268.49 20.03 268.73 20.14C269.23 20.37 269.73 20.62 270.22 20.87C272.21 21.89 274.11 23.06 275.96 24.32C281.62 28.17 287.07 32.42 292.47 36.61C300.88 43.12 309 50.12 317.94 55.92C322.52 58.89 327.37 61.39 332.64 62.9C338.46 64.57 344.58 65.16 350.61 65.45C356.67 65.74 362.75 65.67 368.81 66.07C374.53 66.44 380.1 67.43 385.59 69.13C392.89 71.39 399.85 74.78 406.27 78.96C401.65 81.18 398.73 85.89 398.2 91C397.61 96.67 400.78 101.99 404.83 105.7C409.07 109.59 414.25 112.45 419.67 114.32C425.41 116.3 431.65 117.02 437.69 116.39C439.7 124.06 439.38 131.81 436.49 139.54L436.47 139.51ZM126.38 35.84C126.88 35.64 127.37 35.44 127.87 35.25C130.9 34.09 134.05 33.13 137.26 32.6C137.46 32.57 137.67 32.54 137.88 32.51C138.64 32.42 139.4 32.34 140.16 32.26C142.05 32.08 143.95 31.93 145.85 31.81C146.32 31.78 146.78 31.76 147.25 31.73C146.18 39.16 145.12 46.6 144.05 54.03C143.53 53.97 143 53.91 142.48 53.85C141.13 53.68 139.78 53.51 138.43 53.34C138.18 53.31 137.41 53.2 137.27 53.18C136.61 53.09 135.94 53 135.28 52.9C125.86 51.58 116.48 49.96 107.17 48.06C107.8 47.51 108.44 46.96 109.09 46.43C109.41 46.16 109.74 45.9 110.06 45.64C110.22 45.52 110.37 45.39 110.53 45.27C111.38 44.65 112.22 44.01 113.08 43.41C114.75 42.24 116.46 41.13 118.2 40.09C119.93 39.06 121.7 38.09 123.5 37.2C124.3 36.81 125.1 36.43 125.91 36.07C126.26 35.91 127.31 35.49 126.39 35.85L126.38 35.84Z" fill="#222222"/>
<path d="M380.99 132.77C380.9 132.98 381.05 133.48 381.07 133.32C381.05 133.18 381 132.94 381 132.81C381 132.8 381 132.78 381 132.77H380.99Z" fill="#222222"/>
<path d="M350.27 174.46C350.42 174.44 350.65 174.39 350.79 174.39C350.79 174.39 350.81 174.39 350.82 174.39C350.31 174.28 350.05 174.45 350.28 174.46H350.27Z" fill="#222222"/>
<path d="M350.06 100.29C349.99 100.29 349.93 100.29 349.86 100.29C350.09 100.34 350.13 100.32 350.06 100.29Z" fill="#222222"/>
<path d="M353.77 144.16C353.9 143.98 353.98 143.72 353.77 144.16V144.16Z" fill="#222222"/>
<path d="M353.33 130.38C353.33 130.38 353.37 130.55 353.63 130.72C353.63 130.71 353.62 130.7 353.61 130.69C353.52 130.61 353.42 130.5 353.33 130.38Z" fill="#222222"/>
<path d="M364.83 125.25C359.46 119.39 350.71 116.97 343.21 119.92C334.67 123.27 328.95 132.05 329.75 141.31C330.5 150.08 336.42 157.57 344.98 159.96C353.53 162.35 362.35 158.68 367.25 151.43C369.7 147.8 370.95 143.07 370.6 138.71C370.2 133.61 368.21 129.09 364.84 125.25H364.83ZM356.11 130.65C355.99 130.56 355.84 130.46 355.78 130.45C355.86 130.45 355.98 130.54 356.11 130.65ZM353.82 129.39C354.42 129.59 353.82 129.44 353.58 129.31C353.66 129.34 353.74 129.37 353.82 129.39ZM351.41 128.72C352.29 128.78 351.48 128.85 351.2 128.7C351.27 128.7 351.34 128.71 351.41 128.72ZM339.06 128.5C339.06 128.5 339.09 128.47 339.1 128.46C339.12 128.44 339.13 128.44 339.16 128.42C339.23 128.37 339.3 128.33 339.37 128.28C339.3 128.34 339.16 128.44 339.06 128.5ZM339.73 141.41C339.76 141.56 339.78 141.71 339.78 141.7C339.75 141.67 339.74 141.54 339.73 141.41ZM341.72 146.32C341.72 146.32 341.78 146.39 341.85 146.48C341.77 146.39 341.71 146.32 341.72 146.32ZM359.71 144.54C359.71 144.54 359.73 144.48 359.77 144.39C359.74 144.47 359.71 144.54 359.71 144.54ZM360.59 141.3C360.54 142.22 360.46 141.42 360.59 141.16C360.59 141.21 360.59 141.26 360.59 141.3ZM360.62 140.82C360.62 140.93 360.61 141.05 360.6 141.16C360.4 141.47 360.32 142.68 360.23 143C360.13 143.37 360 143.72 359.88 144.08C359.88 144.09 359.85 144.17 359.82 144.26C359.5 144.89 359.18 145.51 358.79 146.11C358.67 146.29 358.21 147.19 358.51 146.56C358.51 146.56 358.51 146.55 358.52 146.54C358.51 146.55 358.5 146.57 358.49 146.58C358.3 146.79 358.12 147.01 357.93 147.22C357.5 147.69 357.01 148.1 356.55 148.54C356.42 148.64 356.27 148.77 356.18 148.83C355.85 149.06 355.5 149.27 355.15 149.48C354.81 149.67 354.46 149.85 354.11 150.02C354.09 150.02 354.08 150.02 354.06 150.03C353.34 150.26 352.63 150.48 351.89 150.63C351.72 150.58 351.12 150.7 350.98 150.71C350.61 150.72 350.24 150.72 349.87 150.71C349.65 150.71 349.1 150.57 348.85 150.62C348.49 150.55 348.13 150.47 347.78 150.37C347.48 150.29 347.17 150.2 346.87 150.1C346.72 150.05 346.57 149.99 346.42 149.94C345.91 149.69 345.4 149.45 344.92 149.15C344.6 148.96 344.29 148.76 343.99 148.55C343.94 148.51 343.89 148.48 343.84 148.44C343.36 147.96 342.83 147.54 342.37 147.04C342.34 147 342.09 146.73 341.92 146.53C341.8 146.36 341.68 146.2 341.57 146.03C341.21 145.49 340.89 144.92 340.6 144.34C340.56 144.26 340.52 144.19 340.48 144.11C340.48 144.08 340.47 144.06 340.46 144.03C340.35 143.59 340.17 143.16 340.05 142.71C339.93 142.26 339.86 141.81 339.76 141.36C339.76 141.34 339.76 141.33 339.75 141.31C339.75 141.22 339.75 141.15 339.75 141.12C339.68 140.19 339.76 139.28 339.77 138.35C339.77 138.31 339.77 138.28 339.77 138.26C339.78 138.21 339.8 138.15 339.81 138.11C339.88 137.72 339.97 137.33 340.06 136.95C340.17 136.5 340.31 136.06 340.46 135.62C340.51 135.47 340.57 135.33 340.62 135.18C341.03 134.46 341.38 133.73 341.84 133.04C341.94 132.9 342.04 132.76 342.14 132.62C342.45 132.14 341.87 132.98 341.87 132.95C341.92 132.65 342.53 132.18 342.75 131.94C342.83 131.86 343.43 131.25 343.83 130.89C343.7 130.97 343.65 131 343.87 130.85C344.04 130.7 344.17 130.59 344.18 130.61C344.18 130.61 344.17 130.64 344.13 130.66C344.19 130.62 344.25 130.57 344.32 130.53C344.62 130.32 344.94 130.13 345.26 129.95C345.61 129.75 345.98 129.57 346.34 129.39C346.38 129.38 346.41 129.37 346.45 129.35C347.18 129.11 347.91 128.89 348.66 128.75C348.69 128.75 348.73 128.74 348.76 128.73C349.13 128.73 349.52 128.67 349.9 128.67C350.25 128.67 350.61 128.67 350.96 128.69C351.04 128.69 351.11 128.7 351.19 128.71C351.62 129 352.74 129.03 353.24 129.19C353.34 129.22 353.45 129.26 353.55 129.3C353.73 129.44 354.36 129.66 354.5 129.73C354.88 129.93 355.25 130.15 355.6 130.38C355.74 130.47 355.87 130.56 356.01 130.65C356.21 130.78 356.26 130.8 356.25 130.77C356.48 130.98 356.7 131.24 356.8 131.33C357.13 131.65 357.45 131.98 357.76 132.32C357.85 132.43 357.96 132.59 358.08 132.75C358.11 132.75 358.19 132.8 358.3 132.97C358.32 133 358.34 133.03 358.36 133.06C358.39 133.09 358.42 133.12 358.45 133.14C358.42 133.12 358.4 133.11 358.38 133.09C358.45 133.19 358.52 133.3 358.59 133.4C359.03 134.07 359.37 134.77 359.75 135.48C359.75 135.5 359.77 135.52 359.78 135.54C359.9 135.85 360 136.17 360.1 136.49C360.3 137.15 360.42 137.81 360.57 138.47C360.58 138.58 360.6 138.68 360.6 138.7C360.62 139.08 360.65 139.46 360.65 139.84C360.65 140.16 360.65 140.49 360.63 140.81L360.62 140.82Z" fill="#222222"/>
<path d="M206.09 32.08C206.09 32.08 206.18 32.09 206.22 32.1C206.2 32.1 206.17 32.1 206.15 32.1C206.13 32.1 206.11 32.1 206.09 32.1V32.08Z" fill="#222222"/>
<path d="M175.44 75.83H162.2C160.25 75.83 158.67 77.41 158.67 79.36C158.67 81.31 160.25 82.89 162.2 82.89H175.44C177.39 82.89 178.97 81.31 178.97 79.36C178.97 77.41 177.39 75.83 175.44 75.83Z" fill="#222222"/>
<path d="M247.21 76.8H233.97C232.02 76.8 230.44 78.38 230.44 80.33C230.44 82.28 232.02 83.86 233.97 83.86H247.21C249.16 83.86 250.74 82.28 250.74 80.33C250.74 78.38 249.16 76.8 247.21 76.8Z" fill="#222222"/>
</svg>
