<svg width="125" height="90" viewBox="0 0 125 90" fill="none" xmlns="http://www.w3.org/2000/svg">
<rect x="0.5" y="0.5" width="124" height="89" rx="9.5" stroke="#C0BEBE"/>
<path d="M38.5551 27.1424C38.431 27.0774 38.2811 27.0449 38.1427 27.0887C38.0999 27.107 38.0571 27.124 38.0143 27.1424C37.9672 27.1706 37.9258 27.2059 37.8901 27.2455C37.766 27.4037 37.6233 27.5436 37.4663 27.6694C37.3321 27.764 37.1894 27.846 37.0396 27.9138C36.9325 27.9548 36.8227 27.9915 36.7099 28.0183C36.4373 28.0833 36.249 28.404 36.336 28.6697C36.4274 28.9494 36.7028 29.1105 36.9939 29.0398C37.3221 28.9607 37.6461 28.8237 37.9287 28.6386C38.2526 28.4266 38.5123 28.1723 38.7464 27.8672C38.8249 27.7654 38.8334 27.5761 38.8006 27.4588C38.7664 27.3359 38.6707 27.2031 38.5551 27.1424Z" fill="#222222"/>
<path d="M90.8581 37.175C90.7211 37.1439 90.567 37.151 90.4457 37.2287C90.3273 37.3036 90.2388 37.4095 90.2002 37.5452C90.1103 37.8588 90.019 38.1725 89.9291 38.4847C89.8906 38.6161 89.9134 38.7757 89.9833 38.893C90.049 39.0032 90.176 39.1078 90.303 39.136C90.44 39.1671 90.5941 39.16 90.7154 39.0823C90.8339 39.0075 90.9223 38.9015 90.9609 38.7659C91.0508 38.4522 91.1421 38.1386 91.232 37.8263C91.2706 37.6949 91.2477 37.5353 91.1778 37.418C91.1122 37.3078 90.9851 37.2032 90.8581 37.175Z" fill="#222222"/>
<path d="M47.2062 37.969C47.1933 37.9987 47.2148 38.0693 47.2176 38.0467C47.2148 38.0269 47.2076 37.993 47.2076 37.9747C47.2076 37.9732 47.2076 37.9704 47.2076 37.969H47.2062Z" fill="#222222"/>
<path d="M42.8222 43.8592C42.8436 43.8563 42.8764 43.8493 42.8964 43.8493C42.8964 43.8493 42.8992 43.8493 42.9006 43.8493C42.8279 43.8337 42.7908 43.8578 42.8236 43.8592H42.8222Z" fill="#222222"/>
<path d="M42.7922 33.3787C42.7822 33.3787 42.7736 33.3787 42.7636 33.3787C42.7965 33.3857 42.8022 33.3829 42.7922 33.3787Z" fill="#222222"/>
<path d="M43.2588 37.6313C43.2588 37.6313 43.2646 37.6554 43.3017 37.6794C43.3017 37.678 43.3002 37.6765 43.2988 37.6751C43.286 37.6638 43.2717 37.6483 43.2588 37.6313Z" fill="#222222"/>
<path d="M43.3231 39.5768C43.3416 39.5514 43.353 39.5147 43.3231 39.5768V39.5768Z" fill="#222222"/>
<path d="M44.9 36.5703C44.1337 35.7424 42.8849 35.4005 41.8146 35.8172C40.5959 36.2905 39.7796 37.531 39.8938 38.8393C40.0008 40.0784 40.8456 41.1366 42.0658 41.4743C43.286 41.812 44.5447 41.2934 45.2439 40.2691C45.5936 39.7563 45.772 39.088 45.722 38.472C45.6649 37.7514 45.3809 37.1128 44.9 36.5703ZM43.657 37.3346C43.6399 37.3219 43.6185 37.3078 43.6099 37.3064C43.6213 37.3064 43.6385 37.3191 43.657 37.3346ZM43.3302 37.1552C43.4158 37.1835 43.3302 37.1623 43.296 37.1439C43.3074 37.1481 43.3188 37.1524 43.3302 37.1552ZM42.9863 37.0605C43.1119 37.069 42.9963 37.0789 42.9549 37.0577C42.9649 37.0577 42.9749 37.0591 42.9863 37.0605ZM41.2238 37.3657C41.2238 37.3657 41.2281 37.3615 41.2295 37.3601C41.2324 37.3572 41.2338 37.3572 41.2381 37.3544C41.2481 37.3474 41.2581 37.3417 41.2681 37.3346C41.2581 37.3431 41.2381 37.3572 41.2238 37.3657ZM41.3194 38.8549C41.3237 38.8761 41.3266 38.8972 41.3266 38.8958C41.3223 38.8916 41.3209 38.8732 41.3194 38.8549ZM41.6034 39.5472C41.6034 39.5472 41.612 39.557 41.622 39.5698C41.6106 39.557 41.602 39.5472 41.6034 39.5472ZM44.1693 39.2957C44.1693 39.2957 44.1722 39.2872 44.1779 39.2759C44.1736 39.2872 44.1693 39.2971 44.1693 39.2957ZM44.2949 38.8393C44.2878 38.9693 44.2764 38.8563 44.2949 38.8195C44.2949 38.8266 44.2949 38.8337 44.2949 38.8393ZM44.3006 38.7701C44.3006 38.7856 44.2978 38.8026 44.2978 38.8181C44.2692 38.8619 44.2578 39.0329 44.245 39.0781C44.2307 39.1304 44.2121 39.1798 44.195 39.2307C44.195 39.2321 44.1907 39.2434 44.1865 39.2561C44.1408 39.3451 44.0951 39.4327 44.0395 39.5175C44.0223 39.5429 43.9567 39.6701 43.9995 39.5811C43.9995 39.5811 43.9995 39.5797 44.0009 39.5782C43.9995 39.5797 43.9981 39.5825 43.9967 39.5839C43.9695 39.6136 43.9439 39.6446 43.9167 39.6743C43.8554 39.7407 43.7869 39.7986 43.7198 39.8608C43.7012 39.8749 43.6798 39.8933 43.667 39.9018C43.6199 39.9343 43.57 39.9639 43.52 39.9936C43.4715 40.0205 43.4215 40.0459 43.3716 40.0699C43.3687 40.0699 43.3673 40.0699 43.3645 40.0713C43.2617 40.1038 43.1604 40.1349 43.0548 40.1561C43.0305 40.149 42.9449 40.166 42.9249 40.1674C42.8721 40.1688 42.8193 40.1688 42.7665 40.1674C42.7351 40.1674 42.6566 40.1476 42.6209 40.1547C42.5696 40.1448 42.5182 40.1335 42.4682 40.1194C42.4254 40.1081 42.3812 40.0953 42.3384 40.0812C42.317 40.0741 42.2956 40.0657 42.2742 40.0586C42.2014 40.0233 42.13 39.9894 42.0601 39.9484C42.0144 39.9216 41.9702 39.8933 41.9274 39.8636C41.9202 39.858 41.9131 39.8537 41.906 39.8481C41.8375 39.7803 41.7618 39.7209 41.6962 39.6503C41.6919 39.6446 41.6562 39.6065 41.632 39.5782C41.6148 39.5542 41.5977 39.5316 41.582 39.5076C41.5306 39.4313 41.485 39.3508 41.4436 39.2688C41.4379 39.2575 41.4322 39.2476 41.4265 39.2363C41.4265 39.2321 41.425 39.2293 41.4236 39.225C41.4079 39.1629 41.3822 39.1021 41.3651 39.0385C41.348 38.975 41.338 38.9114 41.3237 38.8478C41.3237 38.845 41.3237 38.8436 41.3223 38.8407C41.3223 38.828 41.3223 38.8181 41.3223 38.8139C41.3123 38.6825 41.3237 38.5539 41.3251 38.4225C41.3251 38.4169 41.3251 38.4126 41.3251 38.4098C41.3266 38.4028 41.3294 38.3943 41.3308 38.3886C41.3408 38.3335 41.3537 38.2784 41.3665 38.2247C41.3822 38.1612 41.4022 38.099 41.4236 38.0368C41.4307 38.0156 41.4393 37.9958 41.4464 37.9747C41.505 37.8729 41.5549 37.7698 41.6205 37.6723C41.6348 37.6525 41.6491 37.6327 41.6634 37.613C41.7076 37.5452 41.6248 37.6638 41.6248 37.6596C41.632 37.6172 41.719 37.5508 41.7504 37.5169C41.7618 37.5056 41.8475 37.4194 41.9045 37.3685C41.886 37.3799 41.8788 37.3841 41.9102 37.3629C41.9345 37.3417 41.9531 37.3262 41.9545 37.329C41.9545 37.329 41.9531 37.3332 41.9473 37.3361C41.9559 37.3304 41.9645 37.3233 41.9745 37.3177C42.0173 37.288 42.0629 37.2612 42.1086 37.2357C42.1586 37.2075 42.2114 37.1821 42.2627 37.1566C42.2684 37.1552 42.2727 37.1538 42.2784 37.151C42.3826 37.1171 42.4868 37.086 42.5938 37.0662C42.5981 37.0662 42.6038 37.0648 42.6081 37.0634C42.6609 37.0634 42.7166 37.0549 42.7708 37.0549C42.8207 37.0549 42.8721 37.0549 42.9221 37.0577C42.9335 37.0577 42.9435 37.0591 42.9549 37.0605C43.0162 37.1015 43.1761 37.1058 43.2474 37.1284C43.2617 37.1326 43.2774 37.1383 43.2917 37.1439C43.3174 37.1637 43.4073 37.1948 43.4272 37.2047C43.4815 37.2329 43.5343 37.264 43.5842 37.2965C43.6042 37.3092 43.6228 37.3219 43.6413 37.3346C43.6699 37.353 43.677 37.3558 43.6756 37.3516C43.7084 37.3813 43.7398 37.418 43.7541 37.4307C43.8011 37.4759 43.8468 37.5225 43.8911 37.5706C43.9039 37.5861 43.9196 37.6087 43.9367 37.6313C43.941 37.6313 43.9524 37.6384 43.9681 37.6624C43.971 37.6667 43.9738 37.6709 43.9767 37.6751C43.981 37.6794 43.9852 37.6836 43.9895 37.6864C43.9852 37.6836 43.9824 37.6822 43.9795 37.6794C43.9895 37.6935 43.9995 37.709 44.0095 37.7232C44.0723 37.8178 44.1208 37.9167 44.175 38.017C44.175 38.0199 44.1779 38.0227 44.1793 38.0255C44.1964 38.0693 44.2107 38.1145 44.225 38.1597C44.2535 38.253 44.2707 38.3462 44.2921 38.4395C44.2935 38.455 44.2963 38.4692 44.2963 38.472C44.2992 38.5257 44.3035 38.5794 44.3035 38.633C44.3035 38.6783 44.3035 38.7249 44.3006 38.7701Z" fill="#222222"/>
<path d="M94.1276 34.9695C93.4554 33.0678 92.0498 31.5194 90.4842 30.2761C88.8688 28.9932 87.0064 27.983 84.9728 27.5351C83.9424 27.3091 82.8878 27.2568 81.836 27.2314C80.8513 27.2088 79.851 27.2144 78.882 27.0251C77.9886 26.8499 77.2194 26.491 76.4616 26.0008C75.7723 25.5529 75.1687 25.0839 74.5479 24.6007C73.3306 23.6512 72.1118 22.7018 70.856 21.8032C70.1767 21.3172 69.4603 20.9202 68.664 20.6532C67.4895 20.2604 61.4001 19.9736 60.1728 19.8493C58.1691 19.6472 56.1455 19.5073 54.1304 19.5003C52.6577 19.4946 51.1664 19.5723 49.725 19.8902C48.6632 20.1248 47.65 20.5232 46.6796 21.0078C45.5593 21.5659 44.4719 22.1918 43.3645 22.7724C41.4807 23.76 39.5898 24.8013 37.5519 25.447C36.6528 25.7323 35.7423 25.9344 34.8204 25.981C33.9471 26.0248 33.048 25.8637 32.1903 26.087C31.1485 26.3582 30.5791 27.2158 30.5092 28.25C30.4721 28.801 30.5563 29.3634 30.602 29.9115L30.7532 31.72C30.8488 32.8686 30.933 34.0187 31.0458 35.1659C31.1471 36.2044 31.2855 37.2598 31.6794 38.2346C32.2288 39.5924 33.1864 40.6845 34.6264 41.1239C35.3199 41.3358 36.0577 41.4065 36.7856 41.4277C37.0695 42.0634 37.4534 42.6568 37.9386 43.1838C38.7892 44.1106 39.9294 44.7931 41.1496 45.1222C42.3812 45.4543 43.7355 45.4331 44.9385 44.9965C46.2814 44.5105 47.4231 43.5992 48.2151 42.4223C48.4235 42.1129 48.599 41.7879 48.7474 41.4531C51.3876 41.4531 54.0277 41.4545 56.6678 41.4531C59.5077 41.4531 67.1741 41.6014 70.014 41.5901C71.4682 41.5845 72.9224 41.5774 74.3766 41.5675C74.6606 42.2075 75.0474 42.8024 75.534 43.3336C76.3845 44.2604 77.5248 44.9428 78.745 45.272C79.9765 45.604 81.3309 45.5828 82.5339 45.1463C83.8768 44.6602 85.0185 43.749 85.8105 42.5721C86.026 42.2513 86.2087 41.9137 86.3599 41.5633C88.0154 41.5633 89.6708 41.5633 91.3262 41.5633C91.6045 41.5633 91.8871 41.5774 92.1653 41.5633C92.8546 41.5294 93.4469 40.7354 93.7551 40.1872C94.6257 38.6401 94.7113 36.6226 94.1262 34.9667L94.1276 34.9695ZM88.4892 31.8104C88.5077 31.7822 88.5263 31.7539 88.5462 31.7256C88.5334 31.744 88.4863 31.7906 88.5562 31.7129C88.6019 31.6635 88.649 31.6154 88.6989 31.5688C88.7032 31.5646 88.7161 31.5547 88.7261 31.5476C88.7546 31.5278 88.7831 31.5095 88.8117 31.4925C88.8359 31.4784 88.8631 31.4685 88.8859 31.453C88.8902 31.453 88.893 31.4515 88.8987 31.4501C88.9744 31.4304 89.0486 31.4106 89.1228 31.3922C89.1299 31.3908 89.1342 31.3894 89.1399 31.388C89.1842 31.3837 89.227 31.3795 89.2712 31.3767C89.3468 31.3724 89.421 31.3738 89.4967 31.3767C89.5295 31.3781 89.5638 31.3809 89.5966 31.3837C89.6023 31.3837 89.6037 31.3837 89.6066 31.3837C89.6508 31.4205 89.6965 31.4558 89.7407 31.4925C90.831 32.3982 91.8999 33.4747 92.5121 34.7703C91.3705 34.8127 90.2973 34.5019 89.3383 33.8435C89.1142 33.6895 88.9002 33.5143 88.6847 33.2671C88.6618 33.2402 88.6376 33.2134 88.6162 33.1851C88.6119 33.178 88.6047 33.1696 88.5976 33.1583C88.5577 33.0975 88.5163 33.0368 88.4806 32.9746C88.462 32.9435 88.4463 32.911 88.4292 32.8785C88.4264 32.8729 88.4149 32.8474 88.4078 32.8347C88.3778 32.7584 88.3536 32.6779 88.335 32.5974C88.3279 32.5663 88.3208 32.5324 88.3165 32.5013C88.3165 32.4942 88.3165 32.4843 88.3165 32.473C88.3165 32.4038 88.3165 32.336 88.3193 32.2682C88.3193 32.2639 88.3193 32.2583 88.3222 32.2526C88.3279 32.2201 88.335 32.1891 88.3436 32.1566C88.3522 32.1241 88.3607 32.0902 88.3721 32.0577C88.3736 32.0506 88.3893 32.0082 88.3993 31.9828C88.4121 31.9588 88.4406 31.8952 88.4378 31.9008C88.4535 31.8712 88.4706 31.8415 88.4892 31.8118V31.8104ZM88.619 33.1879C88.6319 33.2049 88.6433 33.2247 88.619 33.1879V33.1879ZM88.3236 32.2484C88.3279 32.2215 88.335 32.1891 88.3236 32.2484V32.2484ZM32.3744 34.2815C32.2659 33.1371 32.1932 31.987 32.1061 30.8426C32.3972 30.8214 32.6941 30.8031 32.9838 30.8426C33.0608 30.8525 33.2478 30.8991 33.3634 30.9401C33.4233 30.9627 33.429 30.9655 33.3834 30.9472C33.4162 30.9627 33.4476 30.9782 33.4775 30.9952C33.5246 31.0206 33.5689 31.0489 33.6131 31.0771C33.6459 31.0983 33.7701 31.2198 33.7887 31.2495C33.7986 31.2665 33.8557 31.3795 33.8572 31.3753C33.8686 31.4106 33.88 31.4445 33.8886 31.4812C33.8957 31.5208 33.9 31.5391 33.9 31.5406C33.9356 31.8415 33.8543 32.0859 33.7715 32.3897C33.6203 32.9449 33.4718 33.5228 33.1236 33.9028C33.0837 33.9466 33.038 33.9862 32.9952 34.0286C32.9724 34.0469 32.9595 34.0568 32.9567 34.0611C32.9367 34.0752 32.9167 34.0893 32.8967 34.102C32.8382 34.1402 32.7768 34.1713 32.7155 34.2038C32.7041 34.2094 32.6969 34.2122 32.6898 34.2151C32.6613 34.225 32.6327 34.2363 32.6027 34.2447C32.5485 34.2617 32.4929 34.2744 32.4372 34.2843C32.4429 34.2815 32.4087 34.2815 32.3716 34.2843L32.3744 34.2815ZM42.1814 43.8973C42.0915 43.8874 42.1543 43.8931 42.2014 43.8987C42.1942 43.8987 42.1885 43.8987 42.1814 43.8973ZM44.6988 43.5822C44.6988 43.5822 44.7373 43.5695 44.7616 43.5596C44.7373 43.5724 44.7131 43.5851 44.6988 43.5822ZM47.8741 39.1699C47.8698 39.2321 47.8655 39.2928 47.8584 39.3536C47.8541 39.3917 47.8498 39.4299 47.8455 39.468C47.8455 39.468 47.8455 39.468 47.8455 39.4695C47.7899 39.7478 47.7428 40.0247 47.66 40.2974C47.64 40.3638 47.6158 40.4288 47.5929 40.4938C47.5844 40.515 47.5772 40.5361 47.5715 40.5573C47.5587 40.5941 47.5473 40.6322 47.533 40.6704C47.5259 40.6902 47.5116 40.7495 47.493 40.7975C47.4945 40.7862 47.4888 40.7876 47.4716 40.8244C47.4516 40.8668 47.4331 40.9091 47.4131 40.9515C47.289 41.2129 47.1448 41.4658 46.9821 41.7074C46.9422 41.7667 46.9008 41.8247 46.8594 41.8826C46.8409 41.908 46.8209 41.9335 46.8023 41.9589C46.7381 42.0465 46.7966 41.9716 46.8194 41.9405C46.7452 42.0691 46.6111 42.1892 46.5112 42.2966C46.3085 42.5141 46.0888 42.7162 45.8562 42.9027C45.849 42.9083 45.7506 42.9818 45.7819 42.9592C45.7691 42.9677 45.7591 42.9747 45.7577 42.9761C45.7035 43.0157 45.6478 43.0538 45.5921 43.0906C45.4623 43.1782 45.3281 43.2587 45.1926 43.335C45.0655 43.4056 44.9371 43.4706 44.8044 43.5314C44.7958 43.5356 44.783 43.5427 44.7701 43.5498C44.763 43.5526 44.7516 43.5568 44.7345 43.5639C44.6617 43.5921 44.5875 43.6204 44.5133 43.6472C44.2507 43.7405 43.981 43.8125 43.707 43.8648C43.647 43.8761 43.5885 43.8846 43.5286 43.8945C43.53 43.8945 43.5328 43.8945 43.5343 43.8945C43.5314 43.8945 43.5286 43.8945 43.5243 43.8945C43.51 43.8973 43.4943 43.9001 43.48 43.9015C43.4658 43.9044 43.4572 43.9044 43.4501 43.903C43.4472 43.903 43.4444 43.903 43.4429 43.903C43.2917 43.9185 43.1404 43.9284 42.9891 43.9312C42.7294 43.9369 42.4711 43.9213 42.2128 43.8945C42.1842 43.8874 42.1486 43.886 42.1215 43.8818C42.0544 43.8705 41.9887 43.8592 41.9217 43.8464C41.7818 43.8182 41.6434 43.7857 41.5049 43.7475C41.3822 43.7136 41.2595 43.6769 41.1396 43.6345C41.0683 43.6105 40.9983 43.5851 40.9284 43.5568C40.9027 43.5469 40.877 43.537 40.8528 43.5271C40.8528 43.5271 40.8513 43.5271 40.8499 43.5257C40.603 43.4127 40.3618 43.2926 40.1307 43.1527C40.0151 43.0821 39.9009 43.0086 39.791 42.9309C39.7425 42.897 39.6968 42.8617 39.6497 42.8278C39.6198 42.8024 39.5884 42.7783 39.5584 42.7543C39.3429 42.5763 39.1388 42.3842 38.9505 42.1779C38.9205 42.1454 38.6693 41.8882 38.6836 41.8671C38.6836 41.8671 38.7906 42.0097 38.7107 41.9024C38.6921 41.8784 38.6736 41.8543 38.6565 41.8289C38.6108 41.7667 38.5666 41.7046 38.5252 41.6424C38.3611 41.4008 38.2155 41.1451 38.0913 40.8809C38.0799 40.8569 38.0457 40.7777 38.0385 40.7622C38.0143 40.7015 37.99 40.6407 37.9672 40.5799C37.9058 40.4118 37.8516 40.2395 37.8059 40.0657C37.7631 39.9004 37.7274 39.7337 37.6975 39.5669C37.6918 39.5302 37.6846 39.4921 37.6789 39.4553C37.6761 39.4355 37.6732 39.4228 37.6718 39.4143C37.6589 39.3324 37.6561 39.2448 37.6504 39.1643C37.6247 38.8139 37.629 38.4621 37.6632 38.1117C37.6675 38.0736 37.6718 38.0368 37.6746 37.9987C37.6775 37.9761 37.6789 37.9619 37.6789 37.9535C37.6875 37.8899 37.7003 37.8263 37.7117 37.7641C37.7446 37.5861 37.7845 37.4109 37.8316 37.2372C37.8773 37.0733 37.9287 36.9094 37.9872 36.7497C38.0129 36.6791 38.0414 36.6084 38.0685 36.5378C38.0685 36.535 38.0699 36.5321 38.0714 36.5293C38.0714 36.5279 38.0728 36.5265 38.0742 36.5237C38.0985 36.4728 38.1213 36.4205 38.1456 36.3697C38.2897 36.0701 38.4595 35.7819 38.6522 35.5092C38.6893 35.4556 38.7293 35.4033 38.7678 35.351C38.7692 35.3496 38.7706 35.3482 38.7721 35.3454C38.7935 35.3185 38.8149 35.2917 38.8363 35.2662C38.9276 35.156 39.0218 35.0501 39.1217 34.9455C39.3158 34.7421 39.527 34.5598 39.7439 34.3818C39.7682 34.3648 39.791 34.3465 39.8153 34.3295C39.8709 34.29 39.9266 34.2518 39.9837 34.2137C40.1021 34.1345 40.2248 34.0611 40.349 33.9918C40.466 33.9269 40.5845 33.8661 40.7058 33.8096C40.73 33.7983 40.7614 33.7884 40.7928 33.7771C40.7985 33.77 40.8128 33.7587 40.8399 33.7488C40.8471 33.746 40.8556 33.7432 40.8628 33.7404C40.8628 33.7404 40.8656 33.7389 40.867 33.7375C40.867 33.7375 40.8656 33.7389 40.8642 33.7404C40.8899 33.7305 40.9156 33.7192 40.9427 33.7107C41.2024 33.6132 41.4707 33.5341 41.7418 33.4762C41.8589 33.4507 41.9759 33.4352 42.0929 33.4126C42.1143 33.4098 42.1343 33.4083 42.1557 33.4055C42.2285 33.3984 42.2998 33.3914 42.3726 33.3871C42.5025 33.3787 42.6324 33.3758 42.7622 33.3758C42.7479 33.373 42.728 33.3674 42.6994 33.3603C42.7051 33.3603 42.7108 33.3603 42.7166 33.3617C42.7337 33.3645 42.7508 33.366 42.7679 33.3688C42.7779 33.3716 42.7851 33.373 42.7908 33.3758C42.9206 33.3773 43.0505 33.3829 43.1804 33.3928C43.2317 33.397 43.2817 33.4027 43.3316 33.4083C43.3259 33.4069 43.3231 33.4055 43.3159 33.4041C43.3259 33.4069 43.3373 33.4083 43.3473 33.4098C43.3559 33.4098 43.3659 33.4112 43.3744 33.4126C43.383 33.4126 43.3916 33.4154 43.3987 33.4168C43.3987 33.4168 43.4016 33.4168 43.403 33.4168C43.5485 33.4394 43.6913 33.4677 43.834 33.503C44.0823 33.5623 44.322 33.6415 44.5604 33.7319C44.5846 33.7488 44.6303 33.7601 44.6531 33.77C44.7145 33.7983 44.7758 33.8265 44.8372 33.8562C44.9671 33.9198 45.0941 33.989 45.2182 34.0625C45.331 34.1289 45.4423 34.2009 45.5493 34.2744C45.5964 34.3069 45.7092 34.3634 45.7391 34.4115C45.7334 34.4016 45.6064 34.3069 45.7077 34.3874C45.7448 34.4171 45.7819 34.4468 45.8191 34.4765C46.0445 34.6629 46.2543 34.8664 46.4513 35.0826C46.5083 35.1461 46.5654 35.2097 46.6197 35.2761C46.6553 35.3185 46.7567 35.481 46.6667 35.3312C46.7467 35.4654 46.8566 35.5869 46.9436 35.7183C47.1106 35.9698 47.259 36.234 47.3889 36.5067C47.4031 36.5364 47.416 36.5646 47.4288 36.5943C47.4302 36.5985 47.4417 36.6226 47.4516 36.6438C47.4559 36.6536 47.4602 36.6621 47.4616 36.6678C47.4759 36.7045 47.4916 36.7412 47.5059 36.7794C47.5573 36.9122 47.6029 37.0478 47.6443 37.1849C47.7271 37.4561 47.7856 37.7316 47.8327 38.0114C47.8327 38.0114 47.8327 38.0086 47.8341 38.0072C47.8341 38.0072 47.8341 38.0128 47.8341 38.0185C47.837 38.0312 47.8384 38.0439 47.8412 38.0566C47.8441 38.075 47.8441 38.0849 47.8441 38.0905C47.8441 38.0933 47.8441 38.099 47.8455 38.1004C47.8527 38.1696 47.8598 38.2389 47.8655 38.3095C47.8769 38.4564 47.8826 38.6034 47.8826 38.7503C47.8826 38.8888 47.8783 39.0286 47.8698 39.1671L47.8741 39.1699ZM40.1621 33.7333C40.1892 33.7234 40.2149 33.7107 40.232 33.6966C40.232 33.6966 40.232 33.6966 40.2334 33.6966C40.1778 33.7474 40.1492 33.7488 40.1606 33.7347L40.1621 33.7333ZM44.5803 33.7404C44.5803 33.7404 44.5932 33.7446 44.6003 33.7474C44.6874 33.7813 44.6217 33.7573 44.5803 33.7404ZM54.5828 39.9173C54.5828 39.9173 52.6948 35.108 51.8285 28.4704C51.8285 28.4704 57.7453 29.0483 60.9591 29.0483L61.0105 40.1109L54.5828 39.9187V39.9173ZM60.4182 23.9338C60.4396 23.9366 60.461 23.9394 60.4824 23.9423C60.5538 23.9507 60.5352 23.9493 60.4924 23.9423C60.5024 23.9437 60.5138 23.9451 60.5238 23.9465C60.5952 23.9564 60.668 23.9677 60.7393 23.979C60.755 23.9818 60.8521 23.9875 61.0062 23.9945L60.9106 27.6199C60.1057 27.5987 59.4093 27.5789 58.8912 27.5606C57.3271 27.5083 55.763 27.4278 54.2018 27.3063C53.4811 27.2497 52.7619 27.1848 52.0426 27.1099C52.2024 26.0022 52.3637 24.8945 52.5235 23.7869C52.809 23.7756 53.0944 23.7643 53.3798 23.7558C55.0352 23.7077 56.6949 23.7035 58.3489 23.7756C59.0568 23.8066 59.7646 23.8504 60.4682 23.938C60.4696 23.938 60.471 23.938 60.4725 23.938C60.4553 23.9352 60.4353 23.9324 60.4182 23.931V23.9338ZM68.537 25.3283C69.0421 25.6349 69.5274 25.9725 69.9997 26.3257C70.0454 26.3596 70.0925 26.395 70.1382 26.4303C70.1239 26.4204 70.1981 26.4755 70.2252 26.4967C70.3479 26.5914 70.4692 26.6874 70.5905 26.7849C70.8232 26.9714 71.0544 27.1607 71.2827 27.3529C71.4668 27.5069 71.6495 27.6637 71.8307 27.8219C69.8898 27.8219 65.4659 27.7358 62.1222 27.6538L62.1036 24.0426C63.6163 24.1019 65.854 24.1867 65.9368 24.2051C66.0995 24.2404 66.2593 24.2842 66.4177 24.3322C66.5405 24.3704 66.6632 24.4113 66.7845 24.4551C66.8458 24.4777 66.9072 24.5003 66.9672 24.5244C67.0157 24.5427 67.2041 24.612 67.0585 24.5597C67.5737 24.7434 68.0703 25.0471 68.5355 25.3297L68.537 25.3283ZM68.517 40.1928L69.1078 39.5712C69.3333 39.3338 69.3176 38.9637 69.0721 38.7461C68.8267 38.5271 68.4442 38.5426 68.2187 38.7814L66.8844 40.1844L65.8612 40.1787L67.979 37.9506C68.2044 37.7133 68.1887 37.3431 67.9433 37.1255C67.6978 36.9065 67.3154 36.9221 67.0899 37.1609L64.2286 40.1716L63.5279 40.1674L64.9921 38.626C65.2175 38.3886 65.2018 38.0185 64.9564 37.8009C64.7109 37.5819 64.3285 37.5974 64.103 37.8362L62.1279 39.9145L62.1764 29.0511C62.1764 29.0511 68.32 29.2334 72.8939 29.0893C72.8939 29.0893 70.5292 35.9289 70.7775 40.2098L68.5156 40.1971L68.517 40.1928ZM79.7753 44.0485C79.6854 44.0386 79.7482 44.0442 79.7953 44.0499C79.7882 44.0499 79.7825 44.0499 79.7753 44.0485ZM82.2927 43.7348C82.2927 43.7348 82.3312 43.7221 82.3555 43.7122C82.3312 43.7249 82.307 43.7377 82.2927 43.7348ZM85.468 39.3225C85.4637 39.3847 85.4594 39.4454 85.4523 39.5062C85.448 39.5443 85.4437 39.5825 85.4395 39.6206C85.4395 39.6206 85.4395 39.6206 85.4395 39.622C85.3838 39.9004 85.3367 40.1773 85.2539 40.45C85.2154 40.5757 85.174 40.7 85.1269 40.823C85.1198 40.8427 85.1055 40.9021 85.087 40.9501C85.0884 40.9388 85.0827 40.9402 85.0656 40.977C85.0456 41.0193 85.027 41.0617 85.007 41.1041C84.8829 41.3655 84.7388 41.6184 84.5761 41.86C84.5361 41.9193 84.4947 41.9773 84.4533 42.0352C84.4348 42.0606 84.4148 42.086 84.3962 42.1115C84.332 42.1991 84.3905 42.1242 84.4134 42.0931C84.3392 42.2217 84.205 42.3418 84.1051 42.4491C83.9025 42.6667 83.6827 42.8688 83.4501 43.0553C83.443 43.0609 83.3431 43.1344 83.3759 43.1118C83.363 43.1202 83.353 43.1273 83.3516 43.1287C83.2974 43.1683 83.2417 43.2064 83.1861 43.2432C83.0562 43.3308 82.9221 43.4113 82.7865 43.4876C82.6595 43.5582 82.531 43.6232 82.3983 43.684C82.3898 43.6882 82.3769 43.6953 82.3641 43.7023C82.3569 43.7052 82.3455 43.7094 82.3284 43.7165C82.2556 43.7447 82.1814 43.773 82.1072 43.7998C81.8446 43.8931 81.5749 43.9651 81.3009 44.0174C81.2409 44.0287 81.1824 44.0372 81.1225 44.0471C81.1239 44.0471 81.1268 44.0471 81.1282 44.0471C81.1254 44.0471 81.1225 44.0471 81.1182 44.0471C81.1039 44.0499 81.0882 44.0527 81.074 44.0541C81.0597 44.057 81.0511 44.057 81.044 44.0555C81.0412 44.0555 81.0383 44.0555 81.0369 44.0555C80.8856 44.0711 80.7343 44.081 80.5831 44.0838C80.3233 44.0895 80.065 44.0739 79.8067 44.0471C79.7782 44.04 79.7425 44.0386 79.7154 44.0344C79.6483 44.0231 79.5827 44.0118 79.5156 43.999C79.3757 43.9708 79.2373 43.9383 79.0989 43.9001C78.9761 43.8662 78.8534 43.8295 78.7335 43.7871C78.6622 43.7631 78.5923 43.7377 78.5223 43.7094C78.4966 43.6995 78.471 43.6896 78.4467 43.6797C78.4467 43.6797 78.4453 43.6797 78.4438 43.6783C78.197 43.5653 77.9558 43.4452 77.7246 43.3053C77.609 43.2347 77.4948 43.1612 77.3849 43.0835C77.3364 43.0496 77.2907 43.0143 77.2437 42.9804C77.2137 42.9549 77.1823 42.9309 77.1523 42.9069C76.9368 42.7289 76.7328 42.5367 76.5444 42.3305C76.5144 42.298 76.2632 42.0408 76.2775 42.0196C76.2775 42.0196 76.3845 42.1623 76.3046 42.055C76.2861 42.0309 76.2675 42.0069 76.2504 41.9815C76.2047 41.9193 76.1605 41.8572 76.1191 41.795C75.955 41.5534 75.8094 41.2977 75.6853 41.0335C75.6739 41.0095 75.6396 40.9303 75.6325 40.9148C75.6082 40.854 75.5839 40.7933 75.5611 40.7325C75.4997 40.5644 75.4455 40.392 75.3998 40.2183C75.357 40.053 75.3214 39.8862 75.2914 39.7195C75.2857 39.6828 75.2785 39.6446 75.2728 39.6079C75.27 39.5881 75.2671 39.5754 75.2657 39.5669C75.2529 39.485 75.25 39.3974 75.2443 39.3169C75.2186 38.9665 75.2229 38.6147 75.2571 38.2643C75.2614 38.2261 75.2657 38.1894 75.2686 38.1513C75.2714 38.1287 75.2714 38.1159 75.2728 38.1061C75.2814 38.0425 75.2942 37.9775 75.3057 37.9167C75.3385 37.7387 75.3784 37.5635 75.4255 37.3897C75.4712 37.2259 75.5226 37.062 75.5811 36.9023C75.6068 36.8317 75.6353 36.761 75.6624 36.6904C75.6624 36.6876 75.6639 36.6847 75.6653 36.6819C75.6653 36.6805 75.6667 36.6791 75.6681 36.6763C75.6924 36.6254 75.7152 36.5731 75.7395 36.5223C75.8836 36.2227 76.0535 35.9345 76.2461 35.6618C76.2832 35.6081 76.3232 35.5559 76.3617 35.5036C76.3631 35.5022 76.3646 35.5008 76.366 35.4979C76.3874 35.4711 76.4088 35.4443 76.4302 35.4188C76.5215 35.3086 76.6157 35.2027 76.7156 35.0981C76.9097 34.8947 77.1209 34.7124 77.3378 34.5344C77.3621 34.5174 77.3849 34.4991 77.4092 34.4821C77.4649 34.4425 77.5205 34.4044 77.5776 34.3663C77.696 34.2871 77.8188 34.2137 77.9429 34.1444C78.06 34.0794 78.1784 34.0187 78.2997 33.9622C78.324 33.9509 78.3554 33.941 78.3868 33.9297C78.3925 33.9226 78.4067 33.9113 78.4339 33.9014C78.441 33.8986 78.4496 33.8958 78.4567 33.8929C78.4567 33.8929 78.4595 33.8915 78.461 33.8901C78.461 33.8901 78.4595 33.8915 78.4581 33.8929C78.4838 33.8831 78.5095 33.8718 78.5366 33.8633C78.7963 33.7658 79.0646 33.6867 79.3358 33.6287C79.4528 33.6033 79.5698 33.5878 79.6868 33.5652C79.7082 33.5623 79.7282 33.5609 79.7496 33.5581C79.8224 33.551 79.8938 33.544 79.9665 33.5397C80.0964 33.5313 80.2263 33.5284 80.3561 33.5284C80.3419 33.5256 80.3219 33.52 80.2948 33.5129C80.3005 33.5129 80.3062 33.5129 80.3119 33.5143C80.329 33.5171 80.3462 33.5185 80.3633 33.5214C80.3733 33.5242 80.3804 33.5256 80.3861 33.5284C80.516 33.5298 80.6458 33.5355 80.7757 33.5454C80.8271 33.5496 80.877 33.5553 80.927 33.5609C80.9213 33.5595 80.9184 33.5581 80.9113 33.5567C80.9213 33.5595 80.9327 33.5609 80.9427 33.5623C80.9512 33.5623 80.9612 33.5638 80.9698 33.5652C80.9784 33.5652 80.9869 33.568 80.9941 33.5694C80.9941 33.5694 80.9969 33.5694 80.9983 33.5694C81.1439 33.592 81.2866 33.6203 81.4293 33.6556C81.6776 33.7149 81.9174 33.794 82.1557 33.8845C82.18 33.9014 82.2256 33.9127 82.2485 33.9226C82.3098 33.9509 82.3712 33.9791 82.4326 34.0088C82.5624 34.0724 82.6894 34.1416 82.8136 34.2151C82.9263 34.2815 83.0377 34.3535 83.1447 34.427C83.1918 34.4595 83.3045 34.516 83.3345 34.564C83.3288 34.5542 83.2018 34.4595 83.3031 34.54C83.3402 34.5697 83.3773 34.5994 83.4144 34.629C83.6399 34.8155 83.8497 35.019 84.0466 35.2352C84.1037 35.2987 84.1608 35.3623 84.215 35.4287C84.2507 35.4711 84.352 35.6336 84.2621 35.4838C84.342 35.618 84.4519 35.7395 84.539 35.8709C84.7059 36.1224 84.8543 36.3866 84.9842 36.6593C84.9985 36.689 85.0113 36.7172 85.0242 36.7469C85.0256 36.7511 85.037 36.7752 85.047 36.7978C85.0513 36.8076 85.0541 36.8161 85.057 36.8218C85.0713 36.8585 85.087 36.8952 85.1012 36.9334C85.1526 37.0662 85.1983 37.2018 85.2397 37.3389C85.3224 37.6101 85.3809 37.8856 85.428 38.1654C85.428 38.1654 85.428 38.1626 85.4295 38.1612C85.4295 38.1612 85.4295 38.1668 85.4295 38.1725C85.4323 38.1852 85.4337 38.1979 85.4366 38.2106C85.4395 38.2304 85.4409 38.2389 85.4395 38.2445C85.4395 38.2473 85.4395 38.253 85.4409 38.2544C85.448 38.3236 85.4552 38.3929 85.4609 38.4635C85.4723 38.6104 85.478 38.7574 85.478 38.9043C85.478 39.0428 85.4737 39.1826 85.4651 39.3211L85.468 39.3225ZM77.7574 33.8845C77.7845 33.8746 77.8102 33.8619 77.8273 33.8477C77.8273 33.8477 77.8273 33.8477 77.8288 33.8477C77.7731 33.8986 77.7446 33.9 77.756 33.8859L77.7574 33.8845ZM82.1743 33.8929C82.1743 33.8929 82.1871 33.8972 82.1942 33.9C82.2813 33.9339 82.2156 33.9099 82.1743 33.8929ZM92.7191 39.0724C92.6563 39.2406 92.4779 39.5797 92.3138 39.8071C92.2981 39.8297 92.2909 39.841 92.2867 39.8453C92.2838 39.8481 92.2738 39.8566 92.2524 39.8806C92.2067 39.9315 92.1611 39.9809 92.1125 40.0289C92.0697 40.0713 92.0226 40.1109 91.977 40.1504H86.7881C87.1049 38.4225 86.7381 36.5745 85.7334 35.0967C85.5294 34.7958 85.3025 34.5089 85.0584 34.2377C84.185 33.2812 83.0205 32.5663 81.7461 32.2781C80.5431 32.0054 79.2487 32.0746 78.0971 32.5239C76.8212 33.0212 75.7623 33.8718 74.9874 34.9893C74.1083 36.258 73.6916 37.8715 73.8243 39.403C73.8457 39.6574 73.8829 39.9088 73.9314 40.1575C73.2792 40.1617 72.6284 40.1646 71.9763 40.1674C72.1375 37.1255 72.6855 34.136 73.6088 31.2128C73.88 30.3538 74.184 29.5046 74.5165 28.6654C74.6064 28.4394 74.4537 28.1568 74.2396 28.0494C74.2311 28.0409 74.2254 28.0325 74.2168 28.0254C72.4329 26.4543 70.6376 24.7928 68.5098 23.6823C67.7078 23.2641 66.853 22.9194 65.9568 22.771C65.2489 22.6538 59.7075 22.439 58.9926 22.3966C57.3072 22.2949 55.6146 22.2921 53.9264 22.3302C52.6306 22.3585 51.3191 22.3853 50.0318 22.5492C47.8912 22.8205 45.8876 24.0242 44.3463 25.4809C44.1479 25.6688 43.9567 25.8652 43.7726 26.0672C43.7697 26.07 43.7683 26.0728 43.7669 26.0757C43.6827 26.1562 43.617 26.2565 43.5899 26.3794C43.5771 26.4331 43.5728 26.4882 43.5728 26.5433C43.5614 26.7114 43.6085 26.8796 43.7269 27.0138C43.7384 27.0293 43.7526 27.0435 43.7655 27.059C43.7683 27.0618 43.7697 27.0647 43.774 27.0675C43.7755 27.0675 43.7769 27.0703 43.7783 27.0703C43.8597 27.1551 43.9624 27.2201 44.088 27.2483C46.3128 27.7428 48.5634 28.1144 50.8267 28.3871C51.0322 31.6437 51.5759 34.8819 52.4593 38.0255C52.6491 38.7023 52.8546 39.3734 53.0758 40.0402C53.043 40.0402 53.0102 40.0402 52.9759 40.0402C51.7129 40.0402 50.45 40.0402 49.187 40.0402C49.5167 38.2996 49.1527 36.4361 48.1409 34.9483C47.9369 34.6474 47.71 34.3606 47.4659 34.0893C46.5925 33.1328 45.428 32.4179 44.1536 32.1297C42.9506 31.857 41.6562 31.9263 40.5046 32.3755C39.2287 32.8729 38.1698 33.7234 37.3949 34.841C36.5158 36.1097 36.0991 37.7232 36.2318 39.2547C36.2532 39.5048 36.2889 39.752 36.3374 39.9964C35.9464 39.9696 35.5711 39.9159 35.1672 39.8085C35.0331 39.7732 34.9018 39.7322 34.7719 39.6842C34.7448 39.6743 34.6991 39.6545 34.6806 39.6461C34.6335 39.6249 34.5864 39.6037 34.5407 39.5797C34.4351 39.526 34.3338 39.4666 34.2353 39.4016C34.1911 39.372 34.1483 39.3409 34.1055 39.3112C34.2325 39.4002 34.0941 39.2999 34.0484 39.2603C33.9713 39.1925 33.8971 39.1219 33.8272 39.0484C33.7858 39.0046 33.7458 38.9608 33.7073 38.9156C33.6845 38.8888 33.6517 38.8478 33.6388 38.8337C33.4775 38.6203 33.332 38.3943 33.2064 38.1583C32.8239 37.4406 32.6555 36.6113 32.5485 35.813C32.5271 35.6548 32.5086 35.4951 32.49 35.3355C32.7883 35.3143 33.0822 35.2238 33.3534 35.0713C33.9185 34.752 34.2624 34.2094 34.5022 33.6273C34.7362 33.0594 34.9303 32.408 34.9746 31.7949C35.0231 31.1096 34.6949 30.4993 34.114 30.1348C33.4904 29.742 32.7355 29.7434 32.0233 29.7929C31.9919 29.4411 31.9591 29.0907 31.942 28.7389C31.9263 28.4026 31.9135 28.048 32.0961 27.7527C32.1546 27.6581 32.089 27.7414 32.166 27.6665C32.1903 27.6439 32.2146 27.6199 32.2388 27.5987C32.2431 27.5959 32.2517 27.5917 32.2659 27.5832C32.2902 27.569 32.383 27.5196 32.3987 27.5097C32.4229 27.5026 32.5385 27.4645 32.5756 27.4546C32.6056 27.4461 32.7397 27.4193 32.764 27.4122C32.7826 27.4122 32.8967 27.3981 32.9281 27.3967C33.1036 27.384 33.2792 27.3825 33.4547 27.3854C34.2567 27.3981 35.0302 27.408 35.828 27.2978C36.6386 27.1862 37.4335 26.987 38.2069 26.7256C39.9266 26.1477 41.5535 25.3212 43.1561 24.4848C44.2849 23.8971 45.4038 23.2966 46.524 22.6919C46.9079 22.4856 47.2932 22.2822 47.6871 22.0943C47.8741 22.0053 48.0624 21.9205 48.2537 21.8371C48.2594 21.8343 48.2637 21.8329 48.2679 21.8301C48.2722 21.8287 48.2765 21.8272 48.2808 21.8244C48.325 21.8075 48.3693 21.7891 48.4149 21.7707C48.5205 21.7298 48.6261 21.6902 48.7318 21.652C49.1556 21.4995 49.5894 21.3737 50.029 21.2734C50.2659 21.2197 50.5056 21.1731 50.7454 21.1321C50.8738 21.1109 51.0008 21.0911 51.1293 21.0728C51.1393 21.0714 51.1464 21.07 51.1535 21.0685C51.1607 21.0685 51.1707 21.0671 51.1849 21.0657C51.2591 21.0572 51.3319 21.0473 51.4061 21.0403C52.8189 20.8849 54.2475 20.8948 55.666 20.9513C57.3328 21.0177 59.004 21.1307 60.6608 21.3172C60.8121 21.3342 65.7869 21.5051 65.9382 21.5235C65.9568 21.5263 65.9696 21.5277 65.9782 21.5277C65.9853 21.5277 65.9967 21.5305 66.011 21.532C66.0838 21.5418 66.158 21.5517 66.2308 21.563C66.4876 21.6012 66.7445 21.6422 67 21.6916C67.4081 21.7693 67.8134 21.864 68.2087 21.9911C68.3671 22.042 68.5213 22.1056 68.6768 22.1607C68.7111 22.1762 68.7467 22.1918 68.781 22.2073C68.8523 22.2398 68.9237 22.2751 68.9936 22.3104C69.2776 22.4545 69.5488 22.6198 69.8128 22.7979C70.6205 23.3418 71.3983 23.9423 72.1689 24.5343C73.3691 25.454 74.5279 26.443 75.8037 27.2625C76.4573 27.6821 77.1495 28.0353 77.9016 28.2486C78.7321 28.4846 79.6055 28.5679 80.466 28.6089C81.3308 28.6499 82.1985 28.64 83.0633 28.6965C83.8796 28.7488 84.6745 28.8886 85.458 29.1288C86.4998 29.4481 87.493 29.9271 88.4092 30.5177C87.7499 30.8313 87.3332 31.4968 87.2576 32.2187C87.1734 33.0198 87.6258 33.7714 88.2037 34.2956C88.8088 34.8452 89.5481 35.2493 90.3215 35.5135C91.1407 35.7932 92.0312 35.895 92.8932 35.8059C93.18 36.8896 93.1343 37.9846 92.7219 39.0767L92.7191 39.0724ZM48.4663 24.4255C48.5377 24.3972 48.6076 24.3689 48.6789 24.3421C49.1114 24.1782 49.5609 24.0426 50.019 23.9677C50.0475 23.9635 50.0775 23.9592 50.1075 23.955C50.2159 23.9423 50.3244 23.931 50.4328 23.9197C50.7026 23.8942 50.9737 23.873 51.2449 23.8561C51.3119 23.8518 51.3776 23.849 51.4447 23.8448C51.292 24.8945 51.1407 25.9457 50.988 26.9954C50.9138 26.987 50.8381 26.9785 50.7639 26.97C50.5713 26.946 50.3786 26.922 50.186 26.8979C50.1503 26.8937 50.0404 26.8782 50.0204 26.8753C49.9262 26.8626 49.8306 26.8499 49.7364 26.8358C48.3921 26.6493 47.0535 26.4204 45.7249 26.152C45.8148 26.0743 45.9061 25.9965 45.9989 25.9217C46.0445 25.8835 46.0916 25.8468 46.1373 25.8101C46.1601 25.7931 46.1815 25.7747 46.2044 25.7578C46.3257 25.6702 46.4455 25.5798 46.5683 25.495C46.8066 25.3297 47.0506 25.1729 47.2989 25.0259C47.5458 24.8804 47.7984 24.7434 48.0553 24.6176C48.1695 24.5625 48.2836 24.5088 48.3992 24.458C48.4492 24.4354 48.599 24.376 48.4677 24.4269L48.4663 24.4255Z" fill="#222222"/>
<path d="M84.8015 38.1202C84.7887 38.1499 84.8101 38.2205 84.813 38.1979C84.8101 38.1781 84.803 38.1442 84.803 38.1258C84.803 38.1244 84.803 38.1216 84.803 38.1202H84.8015Z" fill="#222222"/>
<path d="M80.4175 44.0103C80.4389 44.0075 80.4717 44.0005 80.4917 44.0005C80.4917 44.0005 80.4946 44.0005 80.496 44.0005C80.4232 43.9849 80.3861 44.0089 80.4189 44.0103H80.4175Z" fill="#222222"/>
<path d="M80.3875 33.5313C80.3776 33.5313 80.369 33.5313 80.359 33.5313C80.3918 33.5383 80.3975 33.5355 80.3875 33.5313Z" fill="#222222"/>
<path d="M80.917 39.7294C80.9355 39.704 80.947 39.6672 80.917 39.7294V39.7294Z" fill="#222222"/>
<path d="M80.8542 37.7825C80.8542 37.7825 80.8599 37.8065 80.897 37.8305C80.897 37.8291 80.8956 37.8277 80.8942 37.8263C80.8813 37.815 80.867 37.7995 80.8542 37.7825Z" fill="#222222"/>
<path d="M82.4954 37.0577C81.729 36.2298 80.4803 35.8879 79.41 36.3047C78.1912 36.778 77.375 38.0185 77.4891 39.3268C77.5961 40.5658 78.441 41.624 79.6626 41.9617C80.8827 42.2994 82.1414 41.7809 82.8407 40.7566C83.1904 40.2437 83.3687 39.5754 83.3188 38.9594C83.2617 38.2389 82.9777 37.6003 82.4968 37.0577H82.4954ZM81.2509 37.8207C81.2338 37.8079 81.2124 37.7938 81.2038 37.7924C81.2153 37.7924 81.2324 37.8051 81.2509 37.8207ZM80.9241 37.6426C81.0098 37.6709 80.9241 37.6497 80.8899 37.6313C80.9013 37.6356 80.9127 37.6398 80.9241 37.6426ZM80.5802 37.548C80.7058 37.5565 80.5902 37.5663 80.5502 37.5452C80.5602 37.5452 80.5702 37.5466 80.5802 37.548ZM78.8177 37.5169C78.8177 37.5169 78.822 37.5127 78.8234 37.5112C78.8263 37.5084 78.8277 37.5084 78.832 37.5056C78.842 37.4985 78.852 37.4929 78.862 37.4858C78.852 37.4943 78.832 37.5084 78.8177 37.5169ZM78.9134 39.3409C78.9176 39.3621 78.9205 39.3833 78.9205 39.3819C78.9162 39.3776 78.9148 39.3592 78.9134 39.3409ZM79.1973 40.0346C79.1973 40.0346 79.2059 40.0445 79.2159 40.0572C79.2045 40.0445 79.1959 40.0346 79.1973 40.0346ZM81.7647 39.7831C81.7647 39.7831 81.7675 39.7746 81.7733 39.7619C81.769 39.7732 81.7647 39.7831 81.7647 39.7831ZM81.8903 39.3253C81.8831 39.4553 81.8717 39.3423 81.8903 39.3056C81.8903 39.3126 81.8903 39.3197 81.8903 39.3253ZM81.8946 39.2575C81.8946 39.2731 81.8931 39.29 81.8917 39.3056C81.8632 39.3494 81.8517 39.5203 81.8389 39.5655C81.8246 39.6178 81.8061 39.6672 81.789 39.7181C81.789 39.7195 81.7847 39.7308 81.7804 39.7435C81.7347 39.8326 81.6891 39.9201 81.6334 40.0049C81.6163 40.0303 81.5506 40.1575 81.5934 40.0685C81.5934 40.0685 81.5934 40.0671 81.5949 40.0657C81.5934 40.0671 81.592 40.0699 81.5906 40.0713C81.5635 40.101 81.5378 40.1321 81.5107 40.1617C81.4493 40.2281 81.3794 40.2861 81.3137 40.3482C81.2952 40.3624 81.2738 40.3807 81.2609 40.3892C81.2138 40.4217 81.1639 40.4514 81.1139 40.4811C81.0654 40.5079 81.0155 40.5333 80.9655 40.5573C80.9627 40.5573 80.9612 40.5573 80.9584 40.5588C80.8556 40.5912 80.7543 40.6223 80.6487 40.6435C80.6244 40.6365 80.5388 40.6534 80.5188 40.6548C80.466 40.6562 80.4132 40.6562 80.3604 40.6548C80.329 40.6548 80.2505 40.635 80.2149 40.6421C80.1635 40.6322 80.1121 40.6209 80.0622 40.6068C80.0194 40.5955 79.9751 40.5828 79.9323 40.5686C79.9109 40.5616 79.8895 40.5531 79.8681 40.546C79.7953 40.5107 79.7225 40.4768 79.654 40.4344C79.6084 40.4076 79.5641 40.3793 79.5213 40.3497C79.5142 40.344 79.507 40.3398 79.4999 40.3341C79.4314 40.2663 79.3558 40.207 79.2901 40.1363C79.2858 40.1307 79.2502 40.0925 79.2259 40.0643C79.2088 40.0402 79.1916 40.0176 79.1759 39.9936C79.1246 39.9173 79.0789 39.8368 79.0375 39.7548C79.0318 39.7435 79.0261 39.7337 79.0204 39.7223C79.0204 39.7181 79.019 39.7153 79.0175 39.711C79.0018 39.6489 78.9761 39.5881 78.959 39.5245C78.9419 39.461 78.9319 39.3974 78.9176 39.3338C78.9176 39.331 78.9176 39.3296 78.9162 39.3268C78.9162 39.314 78.9162 39.3041 78.9162 39.2999C78.9062 39.1685 78.9176 39.0399 78.9191 38.9086C78.9191 38.9029 78.9191 38.8987 78.9191 38.8958C78.9205 38.8888 78.9233 38.8803 78.9248 38.8746C78.9348 38.8195 78.9476 38.7644 78.9604 38.7108C78.9761 38.6472 78.9961 38.585 79.0175 38.5228C79.0247 38.5016 79.0332 38.4819 79.0404 38.4607C79.0989 38.359 79.1488 38.2558 79.2145 38.1583C79.2287 38.1385 79.243 38.1188 79.2573 38.099C79.3015 38.0312 79.2188 38.1499 79.2188 38.1456C79.2259 38.1032 79.3129 38.0368 79.3443 38.0029C79.3558 37.9916 79.4414 37.9054 79.4985 37.8546C79.4799 37.8659 79.4728 37.8701 79.5042 37.8489C79.5284 37.8277 79.547 37.8122 79.5484 37.815C79.5484 37.815 79.547 37.8192 79.5413 37.8221C79.5498 37.8164 79.5584 37.8094 79.5684 37.8037C79.6112 37.774 79.6569 37.7472 79.7025 37.7218C79.7525 37.6935 79.8053 37.6681 79.8567 37.6426C79.8624 37.6412 79.8667 37.6398 79.8724 37.637C79.9765 37.6031 80.0807 37.572 80.1878 37.5522C80.192 37.5522 80.1977 37.5508 80.202 37.5494C80.2548 37.5494 80.3105 37.5409 80.3647 37.5409C80.4147 37.5409 80.466 37.5409 80.516 37.5437C80.5274 37.5437 80.5374 37.5452 80.5488 37.5466C80.6102 37.5875 80.77 37.5918 80.8414 37.6144C80.8556 37.6186 80.8713 37.6243 80.8856 37.6299C80.9113 37.6497 81.0012 37.6808 81.0212 37.6907C81.0754 37.7189 81.1282 37.75 81.1782 37.7825C81.1981 37.7952 81.2167 37.8079 81.2367 37.8207C81.2652 37.839 81.2723 37.8419 81.2709 37.8376C81.3037 37.8673 81.3351 37.904 81.3494 37.9167C81.3965 37.9619 81.4422 38.0086 81.4864 38.0566C81.4993 38.0721 81.5149 38.0948 81.5321 38.1174C81.5364 38.1174 81.5478 38.1244 81.5635 38.1484C81.5663 38.1527 81.5692 38.1569 81.572 38.1612C81.5763 38.1654 81.5806 38.1696 81.5849 38.1725C81.5806 38.1696 81.5777 38.1682 81.5749 38.1654C81.5849 38.1795 81.5949 38.1951 81.6049 38.2092C81.6676 38.3039 81.7162 38.4028 81.7704 38.5031C81.7704 38.5059 81.7733 38.5087 81.7747 38.5115C81.7918 38.5553 81.8061 38.6005 81.8203 38.6458C81.8489 38.739 81.866 38.8323 81.8874 38.9255C81.8888 38.941 81.8917 38.9552 81.8917 38.958C81.8946 39.0117 81.8988 39.0654 81.8988 39.1191C81.8988 39.1643 81.8988 39.2109 81.896 39.2561L81.8946 39.2575Z" fill="#222222"/>
<path d="M59.8417 23.8942C59.8417 23.8942 59.8545 23.8956 59.8602 23.8971C59.8574 23.8971 59.8531 23.8971 59.8502 23.8971C59.8474 23.8971 59.8445 23.8971 59.8417 23.8971V23.8942Z" fill="#222222"/>
<path d="M55.4676 30.0754H53.5782C53.2999 30.0754 53.0744 30.2987 53.0744 30.5742C53.0744 30.8497 53.2999 31.0729 53.5782 31.0729H55.4676C55.7459 31.0729 55.9714 30.8497 55.9714 30.5742C55.9714 30.2987 55.7459 30.0754 55.4676 30.0754Z" fill="#222222"/>
<path d="M65.7099 30.2125H63.8204C63.5421 30.2125 63.3166 30.4357 63.3166 30.7112C63.3166 30.9867 63.5421 31.21 63.8204 31.21H65.7099C65.9882 31.21 66.2136 30.9867 66.2136 30.7112C66.2136 30.4357 65.9882 30.2125 65.7099 30.2125Z" fill="#222222"/>
<path d="M40.509 70.68C39.7757 70.68 39.0823 70.6133 38.429 70.48C37.789 70.3467 37.1957 70.16 36.649 69.92C36.1157 69.6667 35.629 69.36 35.189 69L35.769 67.68C36.2223 68.0133 36.6823 68.3 37.149 68.54C37.629 68.7667 38.1423 68.94 38.689 69.06C39.249 69.1667 39.8557 69.22 40.509 69.22C41.709 69.22 42.5957 69 43.169 68.56C43.7557 68.1067 44.049 67.5133 44.049 66.78C44.049 66.3933 43.9557 66.06 43.769 65.78C43.5957 65.5 43.3023 65.26 42.889 65.06C42.489 64.86 41.9623 64.6933 41.309 64.56L39.229 64.14C37.9757 63.8733 37.0357 63.44 36.409 62.84C35.7957 62.2267 35.489 61.4133 35.489 60.4C35.489 59.56 35.7023 58.8267 36.129 58.2C36.569 57.5733 37.1757 57.0867 37.949 56.74C38.7357 56.3933 39.629 56.22 40.629 56.22C41.269 56.22 41.8757 56.2867 42.449 56.42C43.0223 56.5533 43.549 56.7533 44.029 57.02C44.5223 57.2733 44.9557 57.5867 45.329 57.96L44.749 59.24C44.149 58.6933 43.5157 58.3 42.849 58.06C42.1823 57.8067 41.4357 57.68 40.609 57.68C39.9023 57.68 39.289 57.7867 38.769 58C38.2623 58.2133 37.8623 58.5267 37.569 58.94C37.289 59.34 37.149 59.8067 37.149 60.34C37.149 60.98 37.3423 61.4867 37.729 61.86C38.129 62.2333 38.7757 62.5067 39.669 62.68L41.749 63.12C43.0957 63.4 44.089 63.8267 44.729 64.4C45.3823 64.96 45.709 65.7267 45.709 66.7C45.709 67.4733 45.4957 68.1667 45.069 68.78C44.6557 69.38 44.0557 69.8467 43.269 70.18C42.4957 70.5133 41.5757 70.68 40.509 70.68ZM52.4137 70.68C51.387 70.68 50.5003 70.48 49.7537 70.08C49.0203 69.6667 48.447 69.0867 48.0337 68.34C47.6337 67.5933 47.4337 66.7 47.4337 65.66C47.4337 64.6467 47.6337 63.7667 48.0337 63.02C48.4337 62.26 48.9803 61.6667 49.6737 61.24C50.3803 60.8133 51.1937 60.6 52.1137 60.6C52.9937 60.6 53.747 60.7933 54.3737 61.18C55.0003 61.5667 55.4803 62.1133 55.8137 62.82C56.1603 63.5267 56.3337 64.3733 56.3337 65.36V65.98H48.6737V64.92H55.2537L54.9337 65.18C54.9337 64.1133 54.6937 63.2867 54.2137 62.7C53.747 62.1 53.0603 61.8 52.1537 61.8C51.4737 61.8 50.8937 61.96 50.4137 62.28C49.947 62.5867 49.5937 63.02 49.3537 63.58C49.1137 64.1267 48.9937 64.7667 48.9937 65.5V65.62C48.9937 66.4333 49.1203 67.12 49.3737 67.68C49.6403 68.24 50.0337 68.6667 50.5537 68.96C51.0737 69.24 51.6937 69.38 52.4137 69.38C52.987 69.38 53.5403 69.2933 54.0737 69.12C54.6203 68.9333 55.1337 68.6333 55.6137 68.22L56.1737 69.36C55.7337 69.76 55.1737 70.08 54.4937 70.32C53.8137 70.56 53.1203 70.68 52.4137 70.68ZM62.3782 70.68C61.5115 70.68 60.7515 70.4733 60.0982 70.06C59.4582 69.6467 58.9582 69.0667 58.5982 68.32C58.2515 67.56 58.0782 66.6667 58.0782 65.64C58.0782 64.6 58.2515 63.7067 58.5982 62.96C58.9582 62.2 59.4582 61.62 60.0982 61.22C60.7515 60.8067 61.5115 60.6 62.3782 60.6C63.2582 60.6 64.0115 60.82 64.6382 61.26C65.2649 61.7 65.6849 62.2933 65.8982 63.04H65.6782V56.4H67.2982V70.5H65.7182V68.18H65.9182C65.7049 68.94 65.2782 69.5467 64.6382 70C64.0115 70.4533 63.2582 70.68 62.3782 70.68ZM62.7182 69.38C63.6382 69.38 64.3649 69.06 64.8982 68.42C65.4449 67.7667 65.7182 66.84 65.7182 65.64C65.7182 64.4267 65.4449 63.5 64.8982 62.86C64.3649 62.22 63.6382 61.9 62.7182 61.9C61.8115 61.9 61.0849 62.22 60.5382 62.86C59.9915 63.5 59.7182 64.4267 59.7182 65.64C59.7182 66.84 59.9915 67.7667 60.5382 68.42C61.0849 69.06 61.8115 69.38 62.7182 69.38ZM73.3984 70.68C72.7317 70.68 72.1317 70.5533 71.5984 70.3C71.0784 70.0333 70.665 69.6733 70.3584 69.22C70.0517 68.7667 69.8984 68.26 69.8984 67.7C69.8984 66.98 70.0784 66.4133 70.4384 66C70.8117 65.5867 71.4184 65.2933 72.2584 65.12C73.1117 64.9467 74.2717 64.86 75.7384 64.86H76.6384V65.92H75.7584C74.945 65.92 74.265 65.9467 73.7184 66C73.1717 66.0533 72.7384 66.1467 72.4184 66.28C72.0984 66.4133 71.8717 66.5867 71.7384 66.8C71.605 67.0133 71.5384 67.28 71.5384 67.6C71.5384 68.1467 71.725 68.5933 72.0984 68.94C72.485 69.2867 73.005 69.46 73.6584 69.46C74.1917 69.46 74.6584 69.3333 75.0584 69.08C75.4717 68.8267 75.7917 68.48 76.0184 68.04C76.2584 67.6 76.3784 67.0933 76.3784 66.52V64.24C76.3784 63.4133 76.2117 62.82 75.8784 62.46C75.545 62.0867 74.9984 61.9 74.2384 61.9C73.6517 61.9 73.085 61.9867 72.5384 62.16C71.9917 62.32 71.4317 62.5867 70.8584 62.96L70.2984 61.78C70.645 61.54 71.0384 61.3333 71.4784 61.16C71.9184 60.9733 72.3784 60.8333 72.8584 60.74C73.3384 60.6467 73.7984 60.6 74.2384 60.6C75.0784 60.6 75.7717 60.74 76.3184 61.02C76.865 61.2867 77.2717 61.7 77.5384 62.26C77.805 62.8067 77.9384 63.5133 77.9384 64.38V70.5H76.4184V68.24H76.5984C76.4917 68.7467 76.285 69.18 75.9784 69.54C75.685 69.9 75.3184 70.18 74.8784 70.38C74.4384 70.58 73.945 70.68 73.3984 70.68ZM80.9438 70.5V60.78H82.5238V62.94H82.3038C82.5838 62.1667 83.0372 61.5867 83.6638 61.2C84.3038 60.8 85.0372 60.6 85.8638 60.6C86.6372 60.6 87.2772 60.74 87.7838 61.02C88.3038 61.2867 88.6905 61.7067 88.9438 62.28C89.1972 62.8533 89.3238 63.5733 89.3238 64.44V70.5H87.7038V64.54C87.7038 63.94 87.6238 63.4467 87.4638 63.06C87.3172 62.6733 87.0772 62.3867 86.7438 62.2C86.4238 62.0133 86.0038 61.92 85.4838 61.92C84.8972 61.92 84.3838 62.0467 83.9438 62.3C83.5038 62.5533 83.1638 62.9067 82.9238 63.36C82.6838 63.8133 82.5638 64.3467 82.5638 64.96V70.5H80.9438Z" fill="#222222"/>
</svg>
