<svg width="200" height="200" viewBox="0 0 200 200" fill="none" xmlns="http://www.w3.org/2000/svg">
<path d="M71.9348 4.62822C62.1306 7.73312 52.7915 12.3251 44.3388 18.1765C39.9792 21.1942 35.8376 24.5267 31.9479 28.1306C31.6815 28.3776 31.4199 28.6295 31.1535 28.8814C30.9646 28.988 30.7854 29.1091 30.6352 29.2738C30.5286 29.39 30.4318 29.5159 30.3494 29.6516C23.5824 36.2198 17.6824 43.7084 12.9838 51.8848C8.19797 60.2114 4.62313 69.2791 2.47725 78.6423C0.374974 87.8408 -0.414592 97.3686 0.200591 106.79C0.815774 116.177 2.74367 125.482 5.99881 134.308C9.31693 143.298 13.8945 151.809 19.6636 159.467C25.7912 167.604 33.0717 174.725 41.2968 180.726C50.8248 187.677 61.5736 192.885 72.923 196.101C84.6066 199.409 96.9393 200.659 109.044 199.671C121.053 198.692 132.799 195.592 143.635 190.298C152.378 186.026 160.439 180.339 167.506 173.654C174.501 167.038 180.546 159.38 185.434 151.092C190.331 142.785 194.104 133.77 196.565 124.446C199.045 115.068 200.227 105.303 199.961 95.6055C199.689 85.7192 197.936 75.8425 194.681 66.5036C191.222 56.5834 186.16 47.2929 179.752 38.9711C173.29 30.5816 165.656 23.2044 156.946 17.1641C148.76 11.492 139.663 7.10826 130.135 4.20195C120.786 1.34892 110.953 -0.0654755 101.178 0.00233459C91.2816 0.0701447 81.366 1.64441 71.93 4.62822H71.9348ZM137.696 12.0442C137.987 12.1653 137.808 12.0926 137.696 12.0442V12.0442ZM112.421 5.41292C113.002 5.47589 113.583 5.54855 114.164 5.62605C114.155 5.62605 114.145 5.62605 114.135 5.62605C114.15 5.62605 114.164 5.62607 114.184 5.63091C114.227 5.63574 114.29 5.64543 114.334 5.65027C114.402 5.65996 114.474 5.66963 114.542 5.67932C114.847 5.72292 115.157 5.76651 115.463 5.81496C120.161 6.52701 124.811 7.5975 129.35 9.00706C130.527 9.3752 131.7 9.7627 132.862 10.1793C131.869 12.6351 130.881 15.0861 129.888 17.5419C129.718 17.9633 129.549 18.3799 129.379 18.8013C129.161 19.3438 129.341 20.177 129.622 20.6614C129.912 21.1603 130.489 21.6398 131.065 21.7706C132.46 22.0903 133.526 21.3443 134.034 20.0849C135.139 17.3579 136.238 14.6308 137.343 11.8988C137.445 11.9424 137.551 11.9812 137.653 12.0248C137.663 12.0248 137.667 12.0296 137.677 12.0345C137.827 12.0974 137.982 12.1653 138.132 12.2282C138.418 12.3542 138.709 12.4801 138.995 12.606C140.109 13.1001 141.218 13.6184 142.313 14.1561C146.648 16.2874 150.824 18.748 154.781 21.5139C155.808 22.2308 156.82 22.967 157.818 23.7227C157.886 23.776 158.409 24.178 158.366 24.1393C158.559 24.2943 158.758 24.4444 158.952 24.5994C159.46 25.0015 159.964 25.4132 160.468 25.8249C162.12 27.1861 163.723 28.6101 165.283 30.0778C163.592 31.7683 161.897 33.4637 160.206 35.1542L159.262 36.0987C158.37 36.99 158.303 38.6272 159.262 39.5088C160.226 40.3904 161.718 40.463 162.672 39.5088C164.687 37.4938 166.702 35.4787 168.712 33.4685C169.633 34.4228 170.534 35.3964 171.415 36.3894C172.268 37.3484 173.101 38.3172 173.915 39.3102C174.302 39.7801 174.685 40.2499 175.063 40.7246C175.252 40.962 175.441 41.2042 175.629 41.4415C175.659 41.4754 175.678 41.5045 175.702 41.5287C175.712 41.5432 175.726 41.5626 175.746 41.5868C175.862 41.737 175.978 41.892 176.094 42.0421C179.224 46.1691 182.043 50.5286 184.479 55.0963C185.288 56.6125 186.054 58.1528 186.775 59.7077C184.445 60.6958 182.111 61.6888 179.781 62.677C179.369 62.8513 178.957 63.0257 178.546 63.2001C178.032 63.418 177.577 64.1301 177.436 64.6436C177.276 65.22 177.349 65.9901 177.678 66.5036C178.013 67.017 178.507 67.4724 179.122 67.6128C179.8 67.7678 180.347 67.6371 180.982 67.3706C183.545 66.2808 186.107 65.1958 188.669 64.1059C188.786 64.3965 188.902 64.6823 189.013 64.9729C189.449 66.1015 189.861 67.2399 190.253 68.3879C191.818 72.9701 193.019 77.6735 193.852 82.4447C194.046 83.554 194.216 84.6681 194.376 85.787C194.39 85.8984 194.434 86.2326 194.448 86.3295C194.482 86.6056 194.516 86.8768 194.55 87.1529C194.623 87.7681 194.686 88.3881 194.749 89.0081C194.981 91.4058 195.122 93.8132 195.17 96.2206C195.17 96.3902 195.17 96.5597 195.175 96.7292H186.848C185.589 96.7292 184.378 97.8385 184.436 99.1415C184.494 100.449 185.497 101.554 186.848 101.554H195.131C195.034 104.465 194.807 107.366 194.453 110.258C194.424 110.5 194.39 110.743 194.361 110.985C194.356 111.023 194.298 111.44 194.284 111.542C194.196 112.147 194.104 112.758 194.007 113.363C193.823 114.506 193.62 115.649 193.397 116.788C192.942 119.093 192.409 121.384 191.799 123.651C191.188 125.918 190.5 128.161 189.735 130.384C189.483 131.116 189.222 131.842 188.95 132.569C186.698 131.658 184.445 130.748 182.193 129.837C181.772 129.667 181.35 129.498 180.929 129.328C180.386 129.11 179.553 129.29 179.069 129.571C178.57 129.861 178.09 130.438 177.959 131.014C177.64 132.409 178.386 133.475 179.645 133.983C182.154 134.996 184.668 136.013 187.177 137.025C185.366 141.172 183.341 145.207 181.021 149.091C179.819 151.101 178.555 153.073 177.223 154.996C176.564 155.945 175.891 156.88 175.203 157.805C174.908 158.207 174.603 158.6 174.302 158.997C174.234 159.084 173.958 159.443 173.91 159.501C173.721 159.743 173.532 159.98 173.338 160.218C172.04 161.831 170.689 163.4 169.294 164.931C167.545 163.182 165.796 161.433 164.048 159.685L163.093 158.731C162.202 157.839 160.565 157.771 159.683 158.731C158.802 159.694 158.729 161.186 159.683 162.141C161.776 164.233 163.868 166.326 165.961 168.418C165.249 169.125 164.537 169.828 163.805 170.516C162.095 172.119 160.327 173.664 158.506 175.137C158.056 175.5 157.6 175.858 157.15 176.217C157.126 176.236 157.087 176.265 157.048 176.294C156.975 176.352 156.903 176.406 156.825 176.464C156.554 176.672 156.283 176.876 156.011 177.079C155.081 177.772 154.142 178.45 153.187 179.109C148.833 182.117 144.362 184.679 139.712 186.835C138.602 184.224 137.493 181.608 136.384 178.997C136.209 178.586 136.03 178.169 135.856 177.757C135.638 177.244 134.926 176.788 134.412 176.648C133.836 176.488 133.066 176.561 132.552 176.89C132.039 177.224 131.583 177.718 131.443 178.334C131.288 179.012 131.419 179.559 131.685 180.194C132.891 183.037 134.097 185.88 135.303 188.724C132.029 190.027 128.662 191.141 125.18 192.061C122.37 192.807 119.532 193.417 116.664 193.902C115.109 194.163 113.908 194.333 112.61 194.488C111.122 194.662 109.635 194.808 108.143 194.914C106.264 195.05 104.375 195.127 102.491 195.151V185.827C102.491 184.568 101.381 183.357 100.078 183.415C98.7703 183.473 97.6659 184.476 97.6659 185.827V195.113C95.2585 195.03 92.851 194.871 90.4533 194.619C89.7703 194.546 89.0921 194.469 88.4091 194.381C88.2686 194.362 88.133 194.347 87.9974 194.328C87.9296 194.318 87.8036 194.304 87.7794 194.299C87.3531 194.241 86.9317 194.178 86.5054 194.115C85.0668 193.897 83.6281 193.645 82.1992 193.364C79.2976 192.793 76.4203 192.095 73.5818 191.272C71.1065 190.555 68.6651 189.736 66.2528 188.825C67.2458 186.374 68.234 183.919 69.227 181.468C69.3966 181.046 69.5661 180.625 69.7356 180.203C69.9536 179.661 69.7744 178.828 69.4935 178.343C69.2028 177.844 68.6264 177.365 68.0499 177.234C66.6549 176.914 65.5892 177.66 65.0806 178.92C63.9907 181.623 62.896 184.321 61.8061 187.024C60.3723 186.394 58.9239 185.716 57.4223 184.96C52.4669 182.47 47.7441 179.53 43.2779 176.241C42.779 175.873 42.2898 175.5 41.7957 175.127C41.7763 175.112 41.7424 175.088 41.7085 175.059C41.6165 174.987 41.5196 174.914 41.4275 174.841C41.1708 174.643 40.9189 174.439 40.6622 174.236C39.6789 173.451 38.7149 172.647 37.7607 171.828C36.5158 170.758 35.3096 169.644 34.1228 168.51C35.9248 166.708 37.7219 164.911 39.5239 163.109C39.8436 162.79 40.1584 162.475 40.4781 162.155C41.3694 161.264 41.4372 159.627 40.4781 158.745C39.5142 157.864 38.0222 157.791 37.068 158.745C34.9512 160.862 32.8295 162.983 30.7127 165.1C29.6034 163.938 28.5184 162.756 27.4672 161.54C26.7019 160.649 25.9462 159.748 25.2148 158.827C25.0404 158.614 24.8709 158.396 24.7013 158.178C24.6577 158.12 24.4543 157.864 24.3768 157.762C24.0232 157.302 23.6744 156.841 23.3257 156.372C20.5404 152.608 18.0312 148.646 15.8224 144.514C14.8003 142.601 13.846 140.658 12.9547 138.682C15.3234 137.674 17.6921 136.672 20.0608 135.664C20.4726 135.49 20.8891 135.311 21.3009 135.136C21.8143 134.918 22.2697 134.206 22.4102 133.693C22.57 133.116 22.4973 132.346 22.168 131.833C21.8337 131.319 21.3396 130.864 20.7245 130.723C20.0463 130.568 19.4989 130.699 18.8644 130.966C16.2777 132.065 13.6959 133.16 11.1092 134.259C10.8573 133.601 10.6054 132.937 10.3681 132.273C8.82284 127.972 7.58279 123.559 6.66728 119.084C6.44446 117.984 6.23617 116.88 6.0521 115.775C5.96006 115.223 5.87287 114.666 5.78568 114.114C5.74693 113.852 5.70817 113.591 5.66942 113.329C5.65005 113.203 5.63552 113.077 5.61614 112.951C5.6113 112.898 5.60161 112.845 5.59676 112.791C5.31097 110.534 5.09299 108.267 4.9622 105.996C4.87501 104.518 4.83142 103.036 4.81689 101.554H13.381C14.6404 101.554 15.8514 100.444 15.7933 99.1415C15.7352 97.8336 14.7325 96.7292 13.381 96.7292H4.89923C4.95736 95.2664 5.04455 93.8036 5.17049 92.3456C5.26737 91.2266 5.38363 90.1077 5.51926 88.9888C5.55317 88.7272 5.58708 88.4608 5.62098 88.1992C5.62098 88.1895 5.62098 88.1847 5.62098 88.1702C5.63552 88.0636 5.65005 87.957 5.66458 87.8553C5.74693 87.2644 5.83896 86.6734 5.931 86.0825C6.29429 83.8155 6.73994 81.5631 7.26309 79.3301C8.32391 74.8205 9.71897 70.3932 11.424 66.087C11.4676 65.9708 11.5161 65.8594 11.5645 65.748C14.0301 66.7458 16.5005 67.7436 18.9661 68.7415C19.3875 68.911 19.8041 69.0805 20.2255 69.2501C20.768 69.468 21.6012 69.2888 22.0856 69.0079C22.5845 68.7172 23.0641 68.1408 23.1949 67.5644C23.5146 66.1694 22.7686 65.1037 21.5092 64.5951C18.8353 63.5149 16.1566 62.4348 13.4827 61.3546C13.6862 60.9186 13.8945 60.4778 14.1076 60.0467C15.1491 57.9154 16.268 55.8229 17.4596 53.7739C18.6706 51.6959 19.9591 49.6664 21.3203 47.6901C21.9984 46.7019 22.6959 45.7283 23.4129 44.7692C23.5824 44.5415 23.7519 44.3139 23.9215 44.0911C24.0087 43.9797 24.091 43.8634 24.1782 43.752C24.1685 43.7617 24.3284 43.5583 24.401 43.4614C24.4495 43.3984 24.5027 43.3306 24.5173 43.3112C24.6045 43.1998 24.6917 43.0884 24.7837 42.977C25.0065 42.696 25.2293 42.42 25.4522 42.139C27.6271 39.4458 29.9474 36.8786 32.3839 34.4276C34.0211 36.0648 35.6535 37.6972 37.2908 39.3344C37.6057 39.6493 37.9205 39.9641 38.2354 40.279C39.1267 41.1703 40.7639 41.2381 41.6455 40.279C42.5271 39.3151 42.5998 37.8231 41.6455 36.8689C39.7176 34.9411 37.7849 33.0083 35.857 31.0805C37.6444 29.4433 39.4803 27.8593 41.3694 26.3481C41.6358 26.1349 41.9022 25.9218 42.1735 25.7135C42.2559 25.6505 42.5659 25.4083 42.6434 25.3454C43.1617 24.9482 43.68 24.5558 44.208 24.1683C45.23 23.4127 46.2715 22.6764 47.3226 21.9595C51.503 19.1065 55.8916 16.5538 60.4498 14.345C60.7259 14.2094 61.0068 14.0834 61.2829 13.9526C62.3195 16.3939 63.3561 18.8304 64.3879 21.2717C64.5623 21.6834 64.7367 22.0952 64.9111 22.5069C65.129 23.0203 65.8411 23.4756 66.3546 23.6161C66.931 23.776 67.7012 23.7033 68.2146 23.3739C68.7281 23.0397 69.1834 22.5456 69.3239 21.9305C69.4789 21.2523 69.3481 20.705 69.0817 20.0704C67.9434 17.3869 66.8002 14.6986 65.6619 12.0151C66.0688 11.8504 66.4757 11.6809 66.8826 11.521C69.1641 10.6249 71.4795 9.81114 73.8191 9.0894C78.4402 7.66046 83.168 6.5706 87.9489 5.83919C88.2251 5.79559 88.5011 5.75684 88.7773 5.71809C88.879 5.70355 89.1648 5.66481 89.2907 5.64543C89.872 5.56793 90.4484 5.49529 91.0297 5.43231C92.2019 5.30153 93.3742 5.19011 94.5513 5.09808C95.5879 5.02058 96.6293 4.96243 97.6708 4.914V13.3568C97.6708 14.6162 98.78 15.8272 100.083 15.7691C101.391 15.711 102.495 14.7083 102.495 13.3568V4.82681C104.607 4.84134 106.719 4.92369 108.822 5.07869C110.023 5.16588 111.224 5.2773 112.421 5.41292Z" fill="#222222"/>
<path d="M114.334 5.65027C114.286 5.64543 114.232 5.63574 114.184 5.63091C114.179 5.63091 114.169 5.63092 114.169 5.63092C114.441 5.66968 114.421 5.66483 114.339 5.65514L114.334 5.65027Z" fill="#222222"/>
<path d="M65.0176 48.4554C62.2517 50.3736 59.6117 52.4904 57.1413 54.7767C52.4911 59.1071 48.4415 64.1301 45.2687 69.6376C42.2461 74.8883 39.9743 80.6138 38.6277 86.5184C37.3101 92.2826 36.7967 98.2599 37.1793 104.16C37.562 110.089 38.7633 115.969 40.822 121.544C42.9097 127.197 45.7628 132.55 49.3958 137.364C53.3146 142.557 57.9309 147.076 63.1914 150.908C69.1592 155.253 75.9117 158.498 83.0129 160.503C90.3224 162.567 98.0582 163.356 105.634 162.736C113.23 162.116 120.631 160.16 127.49 156.817C132.964 154.148 138.011 150.583 142.439 146.408C146.856 142.247 150.678 137.408 153.764 132.181C156.84 126.969 159.218 121.297 160.768 115.446C162.333 109.532 163.088 103.36 162.914 97.2427C162.74 91.0377 161.645 84.8182 159.596 78.9523C157.431 72.7474 154.287 66.9299 150.281 61.7179C146.164 56.3654 141.329 51.6766 135.773 47.8257C130.653 44.28 124.947 41.5384 118.994 39.7171C113.099 37.9104 106.884 37.0191 100.722 37.0578C94.5125 37.1014 88.2686 38.0847 82.3444 39.9593C76.1926 41.9065 70.3217 44.7789 65.0176 48.4506V48.4554ZM105.489 42.0422C106.215 42.0954 106.942 42.1633 107.664 42.2456C108.013 42.2844 108.356 42.3279 108.705 42.3715C108.71 42.3715 108.72 42.3715 108.725 42.3715C108.933 42.4006 109.136 42.4297 109.34 42.4636C112.251 42.9044 115.124 43.5631 117.938 44.4399C119.362 44.8807 120.772 45.3796 122.157 45.9318C122.351 46.0093 123.014 46.1546 123.106 46.3193C123.097 46.2999 122.554 46.0819 122.966 46.2612C123.039 46.2902 123.111 46.3241 123.184 46.3532C123.378 46.4355 123.571 46.5227 123.76 46.6051C124.434 46.9054 125.102 47.2202 125.766 47.5448C128.469 48.872 131.07 50.4075 133.54 52.1367C134.16 52.5727 134.771 53.0183 135.376 53.4737C135.463 53.5415 135.914 53.8999 135.647 53.6819C135.362 53.4494 135.861 53.8515 135.919 53.8951C136.219 54.1324 136.514 54.3746 136.81 54.6168C138.021 55.6146 139.193 56.6609 140.327 57.7508C141.455 58.8407 142.545 59.9741 143.591 61.1463C144.119 61.7421 144.643 62.3476 145.146 62.9628C145.403 63.2728 145.655 63.5828 145.907 63.8976C146.033 64.0526 146.168 64.2076 146.28 64.3723C145.975 63.9315 146.309 64.4111 146.43 64.5709C148.348 67.1043 150.078 69.7781 151.574 72.5827C152.311 73.9632 152.994 75.3727 153.618 76.8113C153.681 76.9518 153.909 77.5282 153.662 76.9082C153.72 77.0584 153.788 77.2085 153.851 77.3587C154.006 77.7365 154.156 78.1095 154.301 78.4922C154.573 79.1945 154.829 79.9017 155.072 80.6186C156.04 83.4571 156.786 86.3683 157.305 89.3182C157.431 90.0254 157.455 90.8052 157.644 91.4931C157.634 91.464 157.634 91.4543 157.624 91.4301C157.634 91.4737 157.644 91.5173 157.649 91.5512C157.673 91.7304 157.692 91.9145 157.716 92.0985C157.76 92.4861 157.804 92.8784 157.838 93.2659C157.978 94.7191 158.06 96.1722 158.089 97.6302C158.152 100.556 158.002 103.482 157.644 106.383C157.629 106.49 157.615 106.596 157.605 106.703C157.586 106.79 157.581 106.892 157.566 106.969C157.513 107.328 157.46 107.681 157.402 108.04C157.285 108.752 157.159 109.464 157.019 110.171C156.738 111.61 156.404 113.039 156.021 114.458C155.643 115.848 155.222 117.224 154.752 118.59C154.51 119.297 154.253 119.994 153.987 120.692C153.866 121.002 153.744 121.317 153.618 121.627C153.551 121.791 153.483 121.961 153.415 122.126C153.396 122.174 153.376 122.218 153.357 122.261C153.357 122.261 153.357 122.261 153.357 122.266C153.347 122.29 153.338 122.314 153.328 122.339C153.284 122.44 153.241 122.494 153.216 122.508C153.115 122.726 153.047 122.993 152.965 123.182C152.81 123.535 152.65 123.884 152.485 124.233C152.18 124.887 151.865 125.531 151.54 126.17C150.891 127.454 150.199 128.713 149.462 129.948C148.716 131.203 147.922 132.438 147.089 133.639C146.682 134.23 146.26 134.812 145.834 135.388C145.728 135.533 145.621 135.674 145.51 135.819C145.452 135.897 145.122 136.391 145.326 136.061C145.524 135.742 145.19 136.236 145.137 136.304C145.025 136.444 144.914 136.584 144.802 136.725C142.986 138.987 141.014 141.118 138.903 143.104C137.832 144.107 136.728 145.071 135.589 145.991C135.328 146.2 135.066 146.408 134.805 146.616C134.795 146.626 134.795 146.626 134.785 146.631C134.771 146.64 134.761 146.645 134.742 146.665C134.577 146.79 134.412 146.912 134.247 147.038C133.671 147.469 133.08 147.89 132.489 148.302C130.077 149.968 127.539 151.45 124.899 152.729C124.182 153.073 123.46 153.407 122.733 153.722C122.661 153.751 122.593 153.785 122.52 153.814C122.515 153.814 122.511 153.814 122.506 153.819C122.297 153.901 122.089 153.988 121.876 154.076C121.455 154.245 121.033 154.405 120.612 154.565C118.887 155.204 117.134 155.761 115.356 156.231C113.612 156.691 111.844 157.074 110.066 157.374C109.621 157.447 109.175 157.52 108.729 157.583C108.579 157.602 107.935 157.757 108.507 157.616C108.264 157.675 107.988 157.684 107.736 157.713C106.84 157.82 105.939 157.902 105.038 157.97C101.396 158.232 97.7337 158.169 94.1056 157.786C93.689 157.742 93.2724 157.694 92.851 157.641C92.7686 157.631 92.6863 157.621 92.6039 157.612C92.3569 157.573 92.105 157.539 91.858 157.505C90.9618 157.369 90.0705 157.214 89.1841 157.04C87.4064 156.691 85.648 156.265 83.9042 155.761C82.1313 155.248 80.3875 154.662 78.6679 153.988C78.2755 153.838 77.888 153.678 77.4956 153.519C77.4617 153.504 77.3648 153.465 77.297 153.436C77.2825 153.431 77.2728 153.427 77.268 153.422C77.0306 153.32 76.7933 153.213 76.5559 153.112C75.7276 152.744 74.909 152.356 74.1 151.949C71.0289 150.409 68.0983 148.597 65.3324 146.558C65.0224 146.33 64.7173 146.098 64.4072 145.865C64.3733 145.841 64.3443 145.817 64.3104 145.793C64.1602 145.676 64.01 145.555 63.8599 145.439C63.2447 144.95 62.6392 144.446 62.0385 143.933C60.9002 142.954 59.8006 141.932 58.735 140.871C57.6887 139.825 56.6811 138.745 55.7123 137.626C55.2182 137.054 54.729 136.468 54.2543 135.877C54.138 135.737 54.0266 135.591 53.9152 135.451C53.8668 135.388 53.8183 135.325 53.7699 135.267C53.6004 135.059 53.9152 135.451 53.9104 135.446C53.6391 135.209 53.4211 134.802 53.208 134.516C51.4836 132.186 49.9286 129.73 48.5626 127.173C47.8942 125.923 47.2693 124.644 46.688 123.351C46.5524 123.051 46.4458 122.702 46.2811 122.411C46.2811 122.411 46.2811 122.402 46.2763 122.397C46.1988 122.213 46.1213 122.024 46.0486 121.835C45.7774 121.157 45.5158 120.474 45.2687 119.791C44.3096 117.127 43.5443 114.395 42.9776 111.624C42.8371 110.941 42.7111 110.253 42.5949 109.561C42.5416 109.241 42.4883 108.921 42.4399 108.602C42.4157 108.427 42.3866 108.258 42.3624 108.083C42.3575 108.045 42.3527 108.001 42.343 107.962C42.1735 106.582 42.033 105.201 41.9555 103.816C41.7908 101.002 41.8295 98.1727 42.0669 95.3633C42.125 94.6658 42.1977 93.9683 42.28 93.2708C42.2994 93.1012 42.3236 92.9317 42.343 92.767C42.343 92.7525 42.343 92.7379 42.3478 92.7234C42.4011 92.3504 42.4544 91.9774 42.5174 91.6093C42.7402 90.2191 43.0163 88.8386 43.336 87.4678C43.9948 84.6777 44.857 81.9361 45.913 79.2672C46.0341 78.9572 46.16 78.652 46.2908 78.342C46.3005 78.3226 46.3054 78.3081 46.315 78.2839C46.3974 78.095 46.4797 77.9061 46.5621 77.7171C46.8527 77.0584 47.1579 76.4044 47.4728 75.7554C48.1218 74.4233 48.8194 73.1155 49.5653 71.8367C50.3065 70.5628 51.096 69.3179 51.934 68.1021C52.3555 67.4869 52.7914 66.8814 53.2322 66.2808C53.3436 66.1306 53.455 65.9805 53.5713 65.8303C53.6149 65.7722 53.6585 65.7141 53.7069 65.6559C53.9346 65.3702 54.1574 65.0795 54.3899 64.7937C56.2742 62.459 58.3329 60.2696 60.5321 58.2206C61.7237 57.1162 62.9541 56.0506 64.2232 55.0334C64.3782 54.9074 64.538 54.7815 64.693 54.6604C64.7415 54.6217 64.7948 54.5781 64.8432 54.5393C64.8335 54.549 64.8287 54.5538 64.8141 54.5635C65.1387 54.2923 65.4971 54.0452 65.841 53.7934C66.4805 53.3235 67.1247 52.8633 67.7786 52.4177C70.3653 50.6497 73.0828 49.0706 75.9068 47.7046C76.5947 47.3704 77.2873 47.0507 77.9849 46.7455C78.1592 46.668 78.3336 46.5954 78.508 46.5179C78.5322 46.5082 78.5468 46.4985 78.5661 46.4937C78.5807 46.4888 78.5904 46.484 78.6049 46.4791C78.9537 46.3338 79.3073 46.1933 79.656 46.0529C81.0802 45.491 82.5237 44.9872 83.9865 44.5319C86.8493 43.6455 89.7751 42.9722 92.7347 42.5217C92.8897 42.4975 93.0447 42.4733 93.2046 42.4539C93.2385 42.4539 93.3644 42.4297 93.4759 42.4151C93.5873 42.4006 93.7568 42.3764 93.8149 42.3715C94.0232 42.3473 94.2315 42.3231 94.4398 42.2989C95.1712 42.2165 95.8978 42.1487 96.6293 42.0906C98.0873 41.9792 99.5502 41.9259 101.013 41.9211C102.495 41.9211 103.982 41.9743 105.465 42.0809L105.489 42.0422Z" fill="#222222"/>
<path d="M157.634 91.4301C157.591 91.2218 157.513 90.9941 157.634 91.4301V91.4301Z" fill="#222222"/>
<path d="M153.231 122.503C153.275 122.411 153.318 122.329 153.371 122.261C153.212 122.445 153.197 122.518 153.226 122.503H153.231Z" fill="#222222"/>
<path d="M143.267 105.254C143.291 105.08 143.315 104.649 143.267 105.254V105.254Z" fill="#222222"/>
<path d="M66.9649 65.1619C59.9702 71.6817 54.8695 80.2166 52.7285 89.5555C50.6892 98.4488 51.222 107.928 54.3706 116.502C57.7274 125.633 63.7388 133.436 71.5715 139.176C80.8622 145.982 92.6863 149.261 104.162 148.355C107.678 148.079 111.132 147.425 114.479 146.403C114.813 147.222 115.148 148.04 115.477 148.859C115.535 149.096 115.642 149.3 115.802 149.474C115.928 149.673 116.097 149.828 116.31 149.939C116.698 150.167 117.269 150.264 117.705 150.123C118.141 149.983 118.568 149.711 118.786 149.29C118.999 148.888 119.149 148.336 118.97 147.895C118.606 147.004 118.243 146.108 117.88 145.216C118.979 144.785 120.064 144.325 121.13 143.807C121.823 145.066 122.511 146.325 123.203 147.585C123.659 148.413 124.874 148.752 125.679 148.234C126.521 147.691 126.817 146.645 126.328 145.759C125.659 144.538 124.986 143.317 124.317 142.097C125.422 141.443 126.497 140.736 127.548 139.99C128.163 140.973 128.779 141.956 129.394 142.944C129.641 143.337 130.024 143.652 130.474 143.778C130.905 143.899 131.482 143.845 131.869 143.594C132.257 143.347 132.596 142.974 132.702 142.513C132.809 142.048 132.78 141.535 132.518 141.118C131.821 140.004 131.123 138.89 130.43 137.776C131.196 137.142 131.947 136.483 132.668 135.805C139.469 129.416 144.396 121.021 146.803 112.016C149.249 102.852 149.089 92.9365 145.98 83.9463C142.618 74.2247 136.088 65.7577 127.665 59.8772C119.817 54.3988 110.241 51.4731 100.679 51.5119C90.8795 51.5555 81.1625 54.6846 73.1118 60.2502C70.9563 61.7421 68.9025 63.389 66.9745 65.1667L66.9649 65.1619ZM62.1112 78.8361C62.6828 77.8576 63.2883 76.9034 63.9277 75.9734C64.228 75.5326 64.538 75.1015 64.8529 74.6752C65.0031 74.4718 65.1484 74.2199 65.3276 74.0406C65.3373 74.031 65.347 74.0213 65.3518 74.0116C65.4535 73.8857 65.5504 73.7597 65.6521 73.6338C67.1005 71.8367 68.6845 70.1462 70.375 68.572C71.3147 67.7049 72.2787 66.8669 73.2814 66.0725C73.4122 65.9708 74.1097 65.375 73.6059 65.8158C73.8191 65.6317 74.0613 65.467 74.2889 65.3024C74.7927 64.9342 75.3013 64.5709 75.8148 64.2222C76.4057 63.8201 77.0112 63.4326 77.6167 63.0548C77.67 63.1178 77.7233 63.1759 77.7717 63.234C77.9461 63.4423 78.1157 63.6554 78.2852 63.8686C78.2852 63.8734 78.3046 63.8928 78.3191 63.9122C78.3772 63.9897 78.508 64.164 78.5322 64.1883C79.1813 65.0602 79.7965 65.9611 80.3584 66.8911C80.9155 67.8163 81.4241 68.7657 81.8697 69.749C81.8988 69.8168 81.9278 69.8846 81.9569 69.9476C81.9763 69.9864 81.9957 70.0396 82.015 70.0735C82.0199 70.0881 82.0247 70.1026 82.0344 70.1123C82.0296 70.1026 82.0247 70.0978 82.0199 70.0881C82.0199 70.0881 82.0199 70.0881 82.0199 70.0929C82.1168 70.34 82.2185 70.5918 82.3105 70.8437C82.4946 71.3475 82.6593 71.8561 82.8095 72.3695C82.9548 72.883 83.0856 73.4061 83.1921 73.9293C83.2454 74.186 83.289 74.4379 83.3326 74.6946C83.3374 74.7236 83.3423 74.7672 83.3471 74.806C83.3471 74.7575 83.352 74.7624 83.3714 74.9222C83.3714 74.9416 83.3714 74.961 83.3762 74.9804C83.3762 74.9997 83.381 75.0288 83.3907 75.0433C83.3907 75.0336 83.3859 75.0191 83.381 75.0094C83.4731 75.9007 83.5167 76.7871 83.4876 77.6832C83.4731 78.0853 83.444 78.4873 83.4004 78.8894C83.3956 78.9475 83.3665 79.0686 83.3617 79.1461C83.3278 79.3398 83.2939 79.5287 83.2551 79.7225C83.0952 80.5169 82.8676 81.2967 82.5818 82.0572C82.5624 82.1008 82.5479 82.1493 82.5285 82.1929C82.451 82.3333 82.3977 82.5029 82.3299 82.6385C82.1507 83.0115 81.9569 83.3796 81.7438 83.7332C81.5597 84.0432 81.366 84.3484 81.1577 84.6439C81.0705 84.765 80.9639 84.8909 80.8767 85.0217C80.8186 85.0943 80.7605 85.1621 80.6975 85.2348C80.2034 85.8112 79.6609 86.3489 79.0796 86.8381C79.0215 86.8866 78.9633 86.935 78.9052 86.9834C78.8083 87.0561 78.7115 87.1287 78.6097 87.1966C78.2803 87.4291 77.9364 87.647 77.5877 87.8505C77.2776 88.0297 76.958 88.1992 76.6334 88.3542C76.5656 88.3881 76.4978 88.4172 76.43 88.4463C76.2653 88.5044 76.1006 88.5819 75.9359 88.64C75.1947 88.9064 74.4294 89.1147 73.6544 89.26C73.5623 89.2794 72.8745 89.3521 73.3056 89.323C73.7319 89.294 73.1215 89.3424 73.0198 89.3521C72.5839 89.3957 72.1431 89.4199 71.7023 89.4247C71.276 89.4296 70.8546 89.4199 70.4331 89.3908C70.2442 89.3763 70.0553 89.3618 69.8664 89.3424C69.7792 89.3327 69.6969 89.323 69.6097 89.3133C68.5052 89.105 67.4299 88.8677 66.3739 88.4802C66.2576 88.4366 66.1365 88.393 66.0203 88.3446C65.9089 88.301 65.8362 88.2816 65.8072 88.2816C65.6037 88.2041 65.3954 88.0685 65.2162 87.9813C64.7076 87.7294 64.2135 87.4581 63.7291 87.1627C63.2447 86.8672 62.7894 86.533 62.3243 86.2133C62.3195 86.2084 62.3147 86.2084 62.3098 86.2036C62.2032 86.1212 62.1015 86.034 61.995 85.9517C61.777 85.7725 61.5638 85.5884 61.3556 85.3946C60.7597 84.857 60.2075 84.2806 59.6844 83.6751C59.6844 83.6509 59.6892 83.6315 59.6941 83.6024C59.6941 83.6218 59.6844 83.6412 59.6795 83.6606C59.6795 83.6606 59.6747 83.6557 59.6699 83.6509C59.6795 83.6363 59.6844 83.617 59.6941 83.6024C59.6941 83.6024 59.6941 83.5927 59.6941 83.5879C59.6941 83.5879 59.6941 83.5879 59.6941 83.5976C59.7328 83.5055 59.7764 83.4135 59.8152 83.3166C60.0428 82.7983 60.2802 82.2849 60.5321 81.7763C61.0213 80.7736 61.5493 79.7903 62.1112 78.8215V78.8361ZM83.3714 79.0298C83.3956 78.8894 83.4198 78.7634 83.3714 79.0298V79.0298ZM73.2039 134.405C73.2039 134.405 73.1893 134.395 73.1845 134.39C73.0586 134.289 72.9278 134.187 72.8018 134.085C72.3368 133.712 71.8766 133.329 71.4262 132.937C70.5785 132.201 69.755 131.435 68.9606 130.641C68.1613 129.837 67.3863 129.009 66.6452 128.151C66.2867 127.735 65.9379 127.313 65.594 126.887C65.531 126.805 65.4632 126.722 65.4003 126.645C65.3664 126.606 65.3373 126.563 65.3034 126.524C65.1435 126.32 65.1774 126.359 65.3954 126.645C65.192 126.519 64.974 126.088 64.8335 125.899C63.5257 124.126 62.3486 122.256 61.312 120.314C60.813 119.374 60.3432 118.42 59.9121 117.446C59.8103 117.224 59.7328 116.967 59.6117 116.754C59.6117 116.759 59.6166 116.763 59.6214 116.768C59.5875 116.681 59.5488 116.594 59.5149 116.507C59.9896 115.945 60.4788 115.397 61.0165 114.894C61.3798 114.55 61.7576 114.216 62.15 113.901C62.2129 113.852 62.2759 113.799 62.3389 113.751C62.3583 113.736 62.3776 113.722 62.4067 113.702C62.6101 113.557 62.8136 113.407 63.0219 113.266C63.855 112.704 64.7318 112.205 65.6473 111.784C65.72 111.75 65.8023 111.711 65.8847 111.677C65.904 111.673 65.9234 111.663 65.9379 111.658C66.1753 111.566 66.4078 111.479 66.6452 111.396C67.1199 111.232 67.6043 111.086 68.0935 110.965C68.5731 110.844 69.0526 110.762 69.537 110.67C69.5661 110.665 69.5903 110.66 69.6097 110.65C69.6533 110.65 69.692 110.65 69.7114 110.646C69.9245 110.621 70.1425 110.602 70.3605 110.588C71.2227 110.525 72.0898 110.534 72.952 110.612C73.1264 110.626 73.3104 110.675 73.4848 110.67C73.3589 110.67 73.2717 110.67 73.2233 110.67C73.3153 110.67 73.4848 110.675 73.5914 110.694C74.008 110.767 74.4197 110.864 74.8266 110.975C75.1802 111.072 75.5338 111.183 75.8777 111.304C76.0085 111.353 76.1393 111.401 76.2701 111.455C76.2604 111.45 76.2556 111.445 76.2507 111.44C76.2653 111.45 76.2895 111.459 76.304 111.469C76.3428 111.484 76.3864 111.498 76.4251 111.513C76.4784 111.532 76.5123 111.551 76.5317 111.571C76.5462 111.576 76.5656 111.581 76.5801 111.59C77.2728 111.915 77.9364 112.297 78.5661 112.733C78.6582 112.796 78.7502 112.864 78.8423 112.932C78.8955 112.985 78.9876 113.043 79.0409 113.087C79.3509 113.344 79.6512 113.615 79.937 113.901C80.1889 114.153 80.4359 114.414 80.6684 114.681C80.775 114.802 80.8816 114.991 81.0075 115.097C81.0463 115.155 81.0899 115.209 81.1286 115.267C81.5742 115.901 81.9714 116.57 82.3057 117.267C82.359 117.379 82.4123 117.49 82.4607 117.606C82.4801 117.674 82.543 117.79 82.5624 117.848C82.7126 118.246 82.8482 118.653 82.9693 119.059C83.0759 119.428 83.1679 119.801 83.2454 120.174C83.289 120.377 83.3278 120.58 83.3617 120.784C83.3617 120.784 83.3617 120.818 83.3665 120.852C83.3762 120.881 83.3859 120.924 83.3956 120.997C83.3956 121.016 83.3956 121.041 83.3956 121.06C83.3956 121.07 83.4004 121.089 83.4053 121.089C83.4053 121.089 83.4004 121.079 83.3956 121.079C83.4779 121.917 83.5167 122.76 83.4876 123.603C83.4682 124.058 83.4343 124.509 83.3859 124.959C83.3859 124.979 83.381 125.003 83.3762 125.027C83.3762 125.051 83.3762 125.075 83.3665 125.095C83.3665 125.105 83.3665 125.114 83.3617 125.124C83.3617 125.153 83.352 125.187 83.352 125.216C83.352 125.197 83.352 125.187 83.352 125.172C83.3084 125.429 83.2696 125.686 83.2163 125.938C82.9838 127.12 82.6399 128.277 82.2136 129.401C82.1652 129.527 82.1168 129.653 82.0683 129.774C82.049 129.818 82.0344 129.861 82.015 129.9C81.8988 130.157 81.7825 130.418 81.6614 130.675C81.3999 131.222 81.1189 131.76 80.8234 132.288C80.2228 133.354 79.5592 134.381 78.8423 135.369C78.6727 135.606 78.4983 135.839 78.3239 136.066C78.3143 136.081 78.3094 136.086 78.2949 136.1C78.1883 136.231 78.0817 136.367 77.9752 136.497C77.7717 136.749 77.5586 136.991 77.3455 137.238C76.1587 136.512 75.001 135.742 73.882 134.913C73.6592 134.749 73.4364 134.579 73.2136 134.41L73.2039 134.405ZM78.8858 112.966C78.8858 112.966 78.9343 113 78.9585 113.019C79.2007 113.194 79.0069 113.063 78.8858 112.966ZM80.9009 114.966C80.9009 114.966 80.9155 114.991 80.9252 115C80.838 114.884 80.7411 114.744 80.9009 114.966ZM82.0005 129.915C81.9375 130.055 81.9569 130.021 82.0005 129.915V129.915ZM99.3903 135.562C99.3903 135.533 99.4 135.504 99.4 135.499C99.4921 134.904 99.5986 134.313 99.7294 133.722C99.9668 132.656 100.277 131.6 100.664 130.578C100.698 130.491 100.732 130.399 100.771 130.312C100.785 130.268 100.805 130.225 100.819 130.191C100.819 130.191 100.819 130.186 100.819 130.181C100.819 130.181 100.819 130.171 100.824 130.166C100.94 129.91 101.057 129.653 101.183 129.396C101.386 128.984 101.604 128.578 101.837 128.18C102.05 127.817 102.272 127.464 102.51 127.12C102.631 126.94 102.762 126.761 102.888 126.582C102.907 126.558 102.946 126.509 102.98 126.466C103.018 126.417 103.052 126.378 103.057 126.369C103.571 125.744 104.128 125.158 104.728 124.615C104.879 124.48 105.034 124.344 105.189 124.213C105.213 124.194 105.237 124.175 105.261 124.155C105.586 124.039 105.978 123.627 106.269 123.443C106.579 123.245 106.894 123.06 107.213 122.886C107.446 122.76 107.727 122.663 107.979 122.542C107.916 122.557 107.954 122.503 108.076 122.46C108.124 122.44 108.172 122.421 108.226 122.402C108.235 122.397 108.245 122.392 108.255 122.382C108.245 122.387 108.24 122.392 108.231 122.397C108.269 122.382 108.303 122.368 108.342 122.353C108.521 122.285 108.7 122.222 108.88 122.164C109.238 122.043 109.601 121.942 109.97 121.849C110.313 121.767 110.657 121.704 111.006 121.636C111.03 121.636 111.045 121.632 111.059 121.627C111.268 121.607 111.481 121.583 111.689 121.569C112.416 121.52 113.147 121.53 113.874 121.598C113.898 121.598 113.985 121.607 114.072 121.617C114.16 121.632 114.363 121.661 114.431 121.675C114.833 121.748 115.225 121.84 115.618 121.946C115.966 122.043 116.315 122.15 116.654 122.271C116.814 122.329 116.974 122.392 117.134 122.455C116.867 122.363 117.226 122.494 117.303 122.532C118.035 122.872 118.737 123.269 119.406 123.719C119.575 123.835 119.745 123.952 119.914 124.078C119.943 124.097 119.967 124.116 119.997 124.141C120.336 124.441 120.689 124.717 121.019 125.032C121.387 125.381 121.736 125.744 122.07 126.122C122.254 126.33 122.433 126.548 122.607 126.766C122.612 126.776 122.617 126.776 122.622 126.785C122.719 126.921 122.816 127.052 122.908 127.187C123.537 128.098 124.036 129.062 124.521 130.055C124.434 129.885 124.71 130.51 124.748 130.617C124.85 130.893 124.947 131.174 125.039 131.455C125.218 132.017 125.373 132.588 125.504 133.16C125.562 133.417 125.616 133.673 125.659 133.93C125.683 134.061 125.703 134.187 125.727 134.318C125.727 134.322 125.761 134.584 125.775 134.666C125.775 134.7 125.78 134.729 125.785 134.744C125.804 134.904 125.819 135.068 125.829 135.228C125.829 135.243 125.829 135.262 125.829 135.277C125.359 135.625 124.884 135.969 124.4 136.304C122.583 137.553 120.675 138.667 118.694 139.626C118.132 139.898 117.56 140.154 116.988 140.406C117.003 140.401 117.013 140.397 117.032 140.387C117.013 140.392 116.998 140.401 116.979 140.406C116.916 140.431 116.804 140.479 116.79 140.484C116.688 140.523 116.591 140.566 116.49 140.605C116.131 140.75 115.768 140.886 115.404 141.021C114.131 141.491 112.837 141.898 111.524 142.242C110.154 142.605 108.763 142.901 107.359 143.133C107.039 143.187 106.719 143.235 106.4 143.279C106.39 143.279 106.39 143.279 106.38 143.279C106.215 143.303 106.051 143.322 105.886 143.342C105.179 143.424 104.472 143.492 103.764 143.54C102.297 143.642 100.824 143.671 99.3516 143.637C99.3516 143.564 99.3516 143.492 99.3467 143.414C99.1239 141.128 99.0658 138.827 99.2741 136.541C99.2983 136.294 99.3225 136.042 99.3516 135.795C99.3516 135.761 99.371 135.63 99.3806 135.548L99.3903 135.562ZM143.102 92.1421C143.189 92.6507 143.218 93.1932 143.344 93.697C143.16 92.9704 143.349 93.7794 143.373 93.9876C143.407 94.2977 143.441 94.6077 143.47 94.9225C143.577 96.0608 143.64 97.204 143.664 98.3471C143.703 100.546 143.587 102.745 143.315 104.925C143.301 105.051 143.277 105.182 143.267 105.308C143.267 105.288 143.267 105.274 143.267 105.254C143.267 105.264 143.267 105.274 143.267 105.279C143.228 105.535 143.189 105.787 143.151 106.044C143.059 106.601 142.957 107.163 142.85 107.715C142.637 108.776 142.39 109.827 142.109 110.868C141.814 111.958 141.48 113.039 141.111 114.109C141.087 114.182 141.058 114.249 141.034 114.322C140.816 114.312 140.593 114.308 140.375 114.293C140.176 114.279 139.978 114.259 139.774 114.24C139.673 114.23 139.576 114.216 139.474 114.206C139.46 114.206 139.45 114.206 139.44 114.206C139.431 114.206 139.431 114.206 139.421 114.206C138.53 114.046 137.648 113.881 136.776 113.639C136.389 113.533 136.006 113.411 135.628 113.281C135.405 113.203 135.187 113.126 134.969 113.039C134.853 112.995 134.533 112.854 134.553 112.864C133.792 112.511 133.046 112.138 132.329 111.697C131.961 111.469 131.603 111.232 131.249 110.98C131.162 110.917 131.002 110.796 130.968 110.767C130.808 110.636 130.648 110.505 130.489 110.37C129.869 109.832 129.287 109.246 128.754 108.626C128.624 108.476 128.503 108.321 128.377 108.166C128.338 108.107 128.294 108.054 128.255 107.996C127.999 107.638 127.752 107.269 127.519 106.892C127.306 106.543 127.103 106.184 126.919 105.816C126.831 105.647 126.749 105.477 126.667 105.308C126.628 105.221 126.589 105.133 126.55 105.051C126.55 105.041 126.546 105.041 126.541 105.032C126.541 105.027 126.541 105.022 126.536 105.017C126.24 104.252 125.989 103.477 125.809 102.678C125.761 102.464 125.717 102.246 125.679 102.033C125.669 101.975 125.635 101.733 125.616 101.641C125.606 101.52 125.591 101.399 125.582 101.278C125.562 101.06 125.553 100.837 125.543 100.619C125.528 100.207 125.533 99.7954 125.557 99.3885C125.567 99.1996 125.582 99.0107 125.601 98.8218C125.601 98.7831 125.606 98.7152 125.611 98.6426C125.616 98.6184 125.625 98.5845 125.635 98.5263C125.785 97.6883 125.979 96.86 126.255 96.0511C126.318 95.8719 126.381 95.6927 126.449 95.5183C126.473 95.4602 126.584 95.1938 126.609 95.1308C126.667 95.0049 126.749 94.8305 126.768 94.7869C126.865 94.5883 126.967 94.3897 127.069 94.1911C127.471 93.4306 127.936 92.7137 128.44 92.0162C128.464 91.9871 128.473 91.9678 128.483 91.9532C128.498 91.9387 128.507 91.929 128.527 91.8999C128.667 91.7304 128.808 91.556 128.958 91.3865C129.249 91.0523 129.554 90.7277 129.869 90.4129C130.164 90.1222 130.464 89.8413 130.779 89.5749C130.929 89.4441 131.089 89.3182 131.244 89.1874C131.249 89.1825 131.268 89.168 131.288 89.1535C131.351 89.105 131.453 89.0324 131.472 89.0179C132.281 88.4269 133.133 87.8941 134.015 87.4291C134.461 87.1966 134.911 86.9786 135.366 86.7703C135.371 86.7703 135.381 86.7655 135.395 86.7606C135.483 86.7267 135.681 86.6395 135.72 86.6298C135.938 86.5426 136.156 86.4603 136.379 86.3828C137.328 86.0437 138.297 85.7628 139.28 85.54C139.77 85.4286 140.269 85.3317 140.763 85.2493C140.821 85.2396 140.99 85.2106 141.126 85.1864C141.179 85.1767 141.237 85.1718 141.291 85.1621C141.334 85.2881 141.383 85.414 141.426 85.54C142.158 87.7003 142.715 89.914 143.102 92.1615V92.1421ZM132.872 70.9164C133.25 71.3426 133.623 71.7786 133.981 72.2145C134.184 72.4567 134.383 72.7038 134.577 72.9508C134.664 73.0622 134.761 73.1736 134.843 73.2899C134.47 72.7716 134.858 73.3141 134.94 73.4206C136.388 75.3437 137.692 77.3781 138.82 79.5045C139.014 79.8678 139.193 80.2408 139.377 80.6138C136.103 81.2047 132.93 82.2994 130.101 84.1013C126.72 86.2569 123.886 89.3327 122.278 93.0286C120.612 96.8649 120.205 101.103 121.459 105.133C122.699 109.115 125.233 112.472 128.561 114.952C131.598 117.214 135.299 118.522 139.062 118.987C138.936 119.243 138.815 119.505 138.685 119.757C138.195 120.716 137.672 121.661 137.12 122.581C136.553 123.525 135.957 124.455 135.328 125.361C135.023 125.802 134.708 126.238 134.383 126.674C134.32 126.756 134.262 126.839 134.199 126.921C134.054 126.969 133.724 127.526 133.632 127.643C132.518 129.023 131.322 130.336 130.062 131.586C129.268 128.355 127.757 125.327 125.543 122.789C123.058 119.946 119.575 117.781 115.85 117.064C112.144 116.352 108.39 116.885 105.029 118.599C101.619 120.343 98.8575 123.346 97.133 126.737C94.5367 131.833 93.9893 137.665 94.5173 143.293C94.5028 143.293 94.4931 143.293 94.4786 143.293C94.4737 143.293 94.4689 143.293 94.464 143.293C94.4592 143.293 94.4543 143.293 94.4495 143.293C94.2896 143.269 94.1298 143.245 93.9699 143.221C93.2676 143.114 92.5652 142.993 91.8677 142.852C90.4726 142.576 89.0872 142.237 87.7212 141.835C86.4182 141.453 85.1297 141.012 83.8606 140.518C83.6087 140.421 83.3617 140.319 83.1098 140.217C83.2406 140.266 82.5963 139.999 82.4655 139.936C82.1943 139.815 81.9327 139.68 81.6663 139.559C84.2578 136.323 86.4085 132.705 87.5178 128.689C88.6125 124.727 88.6755 120.29 87.1496 116.424C85.7546 112.888 83.3423 109.871 80.0242 107.957C76.5123 105.933 72.4676 105.4 68.4956 105.981C64.509 106.567 60.7355 108.543 57.7856 111.319C57.5482 110.442 57.3351 109.556 57.1558 108.665C57.0493 108.151 56.9572 107.638 56.87 107.119C56.8265 106.872 56.7877 106.625 56.7538 106.383C56.7393 106.286 56.7247 106.184 56.7102 106.088C56.7054 106.044 56.7005 106.01 56.6957 105.981C56.5697 104.944 56.468 103.908 56.405 102.866C56.2791 100.725 56.3081 98.5796 56.4922 96.4435C56.5358 95.9446 56.5843 95.4505 56.6424 94.9516C56.6569 94.8305 56.6714 94.7094 56.686 94.5931C56.7344 94.3073 56.7683 94.0215 56.8168 93.7358C56.9911 92.6701 57.1994 91.6093 57.4465 90.5582C57.587 89.9672 57.742 89.3763 57.9067 88.7902C60.4643 91.154 63.6225 92.922 66.9939 93.7261C71.0144 94.6852 75.1899 94.3412 78.9391 92.5975C82.1701 91.0959 84.9069 88.3591 86.457 85.1573C88.3122 81.3355 88.6803 77.1117 87.9005 72.9653C87.0479 68.4315 84.7277 64.3239 81.8891 60.7152C81.9278 60.6958 81.9666 60.6765 82.0102 60.6523C82.4994 60.4149 82.9984 60.1872 83.4973 59.9644C83.6475 59.8966 83.7976 59.8336 83.9478 59.7707C84.3401 59.6011 83.8654 59.7949 83.8218 59.8239C84.0834 59.6593 84.437 59.5721 84.7228 59.4607C85.8224 59.0296 86.9414 58.6372 88.07 58.2885C90.182 57.6394 92.3472 57.1453 94.5318 56.8062C94.062 61.7131 94.3623 66.8766 96.2563 71.4831C97.8548 75.3679 100.412 78.7925 104.021 81.0158C107.02 82.8662 110.72 83.7816 114.232 83.3651C118.127 82.9049 121.653 81.2192 124.492 78.5067C127.413 75.7215 129.311 72.0547 130.179 68.1457C130.261 68.2232 130.348 68.3007 130.43 68.3782C131.278 69.2016 132.092 70.0542 132.877 70.9357L132.872 70.9164ZM120.069 75.9782C120.118 75.9394 120.161 75.9007 120.166 75.8959C120.156 75.9152 120.113 75.9491 120.069 75.9782ZM104.263 56.4575C104.782 56.4962 105.3 56.5447 105.818 56.6028C106.065 56.6319 106.312 56.6609 106.559 56.69C106.564 56.69 106.569 56.69 106.574 56.69C106.729 56.7142 106.884 56.7336 107.039 56.7578C109.257 57.0969 111.447 57.6055 113.583 58.2739C114.658 58.6082 115.719 58.986 116.766 59.4025C116.887 59.451 117.008 59.4994 117.129 59.5479C117.177 59.5672 117.226 59.5866 117.274 59.606C117.516 59.7077 117.468 59.6883 117.134 59.5479C117.342 59.5479 117.671 59.7804 117.856 59.8627C118.383 60.1001 118.911 60.3471 119.43 60.6038C121.488 61.621 123.47 62.7981 125.344 64.1205C125.514 64.2415 125.678 64.3626 125.843 64.4837C125.824 64.8277 125.795 65.1716 125.761 65.5106C125.761 65.5106 125.761 65.5252 125.761 65.53C125.751 65.6027 125.737 65.7044 125.732 65.7431C125.688 66.0338 125.635 66.3244 125.577 66.6102C125.368 67.6371 125.078 68.6494 124.705 69.6279C124.671 69.7199 124.632 69.812 124.598 69.904C124.584 69.9379 124.54 70.0396 124.511 70.1123C124.487 70.1656 124.463 70.214 124.453 70.2334C124.414 70.3206 124.371 70.4126 124.327 70.4998C124.085 71.0036 123.823 71.4928 123.537 71.9723C123.286 72.3937 123.014 72.8055 122.729 73.2075C122.666 73.2899 122.607 73.3771 122.544 73.4594C122.53 73.4739 122.525 73.4836 122.506 73.503C122.336 73.7064 122.167 73.9099 121.992 74.1036C121.387 74.7769 120.728 75.3824 120.035 75.9637C120.001 75.9927 119.982 76.0121 119.963 76.0266C119.934 76.046 119.909 76.0605 119.9 76.0654C119.754 76.172 119.604 76.2785 119.454 76.3802C119.096 76.6224 118.727 76.8549 118.35 77.0681C118.025 77.2521 117.691 77.4217 117.352 77.5815C117.318 77.596 117.284 77.6106 117.25 77.63C117.066 77.6832 116.882 77.785 116.703 77.8479C115.981 78.1095 115.235 78.3129 114.479 78.4534C114.324 78.4825 114.14 78.4873 113.985 78.5358C114.014 78.5261 114.024 78.5212 114.048 78.5164C114.005 78.5261 113.961 78.5358 113.922 78.5358C113.549 78.5745 113.171 78.5939 112.794 78.5987C112.416 78.6036 112.043 78.5987 111.665 78.5697C111.5 78.56 111.336 78.5454 111.176 78.5261C111.132 78.5261 111.093 78.5164 111.05 78.5115C110.304 78.3759 109.572 78.2112 108.851 77.9739C108.691 77.9206 108.536 77.8673 108.381 77.8092C108.357 77.7995 108.264 77.7656 108.172 77.7317C108.313 77.785 107.921 77.6203 107.833 77.5815C107.635 77.4895 107.441 77.3926 107.252 77.2909C106.603 76.947 105.997 76.5401 105.402 76.1138C105.339 76.0654 105.252 75.9976 105.222 75.9782C105.067 75.8474 104.912 75.7166 104.762 75.581C104.457 75.3049 104.157 75.0191 103.876 74.7236C103.585 74.4185 103.304 74.1036 103.038 73.7791C103.004 73.7355 102.97 73.6919 102.931 73.6483C102.8 73.4642 102.665 73.285 102.534 73.0961C102.021 72.3502 101.565 71.5655 101.163 70.7517C101.037 70.4998 100.921 70.2431 100.805 69.9815C100.616 69.5553 100.766 69.8846 100.805 69.9718C100.742 69.8071 100.674 69.6424 100.611 69.4778C100.388 68.882 100.19 68.2813 100.02 67.6661C99.8602 67.0897 99.7197 66.5036 99.5986 65.9127C99.5308 65.5639 99.4678 65.2151 99.4097 64.8664C99.3952 64.7598 99.3807 64.6533 99.3613 64.5515C99.3613 64.537 99.3613 64.5322 99.3564 64.5225C99.3564 64.4983 99.3564 64.4837 99.3467 64.4498C99.061 61.8777 99.0803 59.3008 99.3322 56.7239C99.3467 56.5931 99.3371 56.4672 99.3225 56.3412C99.8408 56.3219 100.359 56.3121 100.882 56.3121C102.001 56.3121 103.125 56.3558 104.244 56.4429L104.263 56.4575Z" fill="#222222"/>
<path d="M59.6214 116.759C59.9363 117.291 59.6892 116.923 59.6214 116.759V116.759Z" fill="#222222"/>
<path d="M116.795 140.493C116.858 140.469 116.921 140.44 116.984 140.416C116.984 140.416 116.989 140.416 116.994 140.416C116.838 140.479 116.79 140.498 116.8 140.498L116.795 140.493Z" fill="#222222"/>
<path d="M83.3713 74.9804C83.3617 74.9271 83.3471 74.869 83.3423 74.806C83.3423 74.8496 83.352 74.9416 83.3713 75.0094C83.3713 74.9997 83.3713 74.9901 83.3713 74.9755V74.9804Z" fill="#222222"/>
<path d="M82.0199 70.0929C82.0199 70.0929 82.0202 70.0832 82.0153 70.0783C81.9959 70.0346 81.9764 69.9957 81.957 69.952C81.923 69.8742 81.9081 69.8499 82.0199 70.0929Z" fill="#222222"/>
<path d="M114.072 78.5261C114.305 78.4776 114.518 78.3856 114.072 78.5261V78.5261Z" fill="#222222"/>
<path d="M108.216 122.416C108.143 122.469 108.061 122.513 107.974 122.557C108.013 122.547 108.095 122.503 108.226 122.411C108.226 122.411 108.221 122.411 108.216 122.411V122.416Z" fill="#222222"/>
<path d="M100.82 130.19C100.805 130.229 100.79 130.273 100.771 130.312C100.737 130.404 100.717 130.457 100.82 130.19Z" fill="#222222"/>
<path d="M83.3471 125.168C83.3471 125.168 83.352 125.138 83.3568 125.119C83.3568 125.085 83.3665 125.051 83.3714 125.017C83.381 124.877 83.3471 124.78 83.352 125.163L83.3471 125.168Z" fill="#222222"/>
<path d="M76.522 111.561C76.4445 111.532 76.367 111.498 76.2943 111.459C76.2846 111.459 76.2701 111.45 76.2604 111.445C76.4832 111.614 76.5753 111.61 76.522 111.561Z" fill="#222222"/>
<path d="M83.3907 121.074C83.3907 121.074 83.3907 121.06 83.3907 121.055C83.3762 121.007 83.3665 120.915 83.3568 120.847C83.3181 120.74 83.2842 120.949 83.3907 121.074Z" fill="#222222"/>
<path d="M73.2142 110.665C73.1164 110.665 73.1408 110.665 73.2142 110.665V110.665Z" fill="#222222"/>
<path d="M84.345 99.1463C84.345 100.406 85.4543 101.617 86.7573 101.559C88.0651 101.5 89.1696 100.498 89.1696 99.1463C89.1696 97.8869 88.0603 96.676 86.7573 96.7341C85.4494 96.7922 84.345 97.7949 84.345 99.1463Z" fill="#222222"/>
<path d="M93.9748 113.131C93.9748 114.39 95.0841 115.601 96.3871 115.543C97.6949 115.485 98.7994 114.482 98.7994 113.131C98.7994 111.871 97.6901 110.66 96.3871 110.718C95.0792 110.776 93.9748 111.779 93.9748 113.131Z" fill="#222222"/>
<path d="M109.567 108.776C109.567 110.035 110.677 111.246 111.98 111.188C113.288 111.13 114.392 110.127 114.392 108.776C114.392 107.517 113.283 106.306 111.98 106.364C110.672 106.422 109.567 107.424 109.567 108.776Z" fill="#222222"/>
<path d="M109.567 91.3526C109.567 92.612 110.677 93.823 111.98 93.7648C113.288 93.7067 114.392 92.704 114.392 91.3526C114.392 90.0932 113.283 88.8822 111.98 88.9404C110.672 88.9985 109.567 90.0012 109.567 91.3526Z" fill="#222222"/>
<path d="M93.2869 85.6175C93.2869 86.8769 94.3962 88.0878 95.6992 88.0297C97.0071 87.9716 98.1115 86.9689 98.1115 85.6175C98.1115 84.3581 97.0023 83.1471 95.6992 83.2052C94.3914 83.2633 93.2869 84.266 93.2869 85.6175Z" fill="#222222"/>
<path d="M60.4304 96.9957C60.3238 97.4607 60.348 97.979 60.6144 98.3907C60.7065 98.5118 60.8033 98.6329 60.8954 98.7588C61.123 98.9817 61.3895 99.1367 61.6946 99.2239C62.2468 99.4467 62.8233 99.6114 63.4142 99.7034C64.1505 99.8148 64.8723 99.8875 65.6134 99.8342C66.0978 99.8003 66.5434 99.655 66.8922 99.3062C67.2071 98.9913 67.4444 98.4779 67.4202 98.0274C67.4008 97.5576 67.2458 97.0732 66.8922 96.7486C66.5531 96.4386 66.0881 96.1868 65.6134 96.2207C65.1532 96.2546 64.693 96.24 64.2329 96.1916C63.6903 96.0947 63.1623 95.9494 62.6537 95.7411C62.2468 95.5764 61.622 95.7121 61.2587 95.9252C60.8857 96.1432 60.5272 96.5743 60.4255 97.0054L60.4304 96.9957Z" fill="#222222"/>
<path d="M43.6121 59.3638C43.9028 58.8503 44.2273 58.3611 44.5809 57.8913C45.1961 57.1308 45.8888 56.4381 46.6493 55.8229C47.1191 55.4693 47.6084 55.1448 48.1218 54.8541C48.9453 54.3891 49.2941 53.1927 48.7709 52.3789C48.2333 51.5458 47.1773 51.2309 46.2957 51.7299C43.8834 53.0861 41.8441 55.1254 40.4878 57.5376C40.0227 58.3611 40.2649 59.5527 41.1369 60.0128C41.9942 60.4633 43.118 60.2454 43.6121 59.3638Z" fill="#222222"/>
<path d="M78.4596 170.506C78.2416 171.46 78.7454 172.468 79.7238 172.729C82.7029 173.538 85.6819 174.342 88.661 175.151C89.5716 175.398 90.6664 174.841 90.8843 173.887C91.1023 172.933 90.5985 171.925 89.6201 171.664C86.641 170.855 83.662 170.051 80.683 169.242C79.7723 168.995 78.6776 169.552 78.4596 170.506Z" fill="#222222"/>
<path d="M154.243 58.3708C154.297 58.4338 154.345 58.4967 154.398 58.5597C154.519 58.7147 154.5 58.6856 154.34 58.4822C154.452 58.5791 154.544 58.7583 154.631 58.8745C154.82 59.141 155.004 59.4122 155.178 59.6883C155.527 60.2405 155.842 60.8121 156.128 61.3982C156.2 61.5435 156.268 61.6937 156.336 61.8438C156.36 61.8923 156.38 61.9456 156.404 61.9989C156.52 62.2943 156.636 62.5898 156.738 62.8901C156.951 63.5053 157.126 64.135 157.271 64.7744C157.479 65.6995 158.598 66.3292 159.494 66.0386C160.463 65.7238 160.981 64.8034 160.758 63.8153C160.095 60.8605 158.705 58.1577 156.806 55.8132C156.21 55.0721 154.863 55.1448 154.248 55.8132C153.526 56.5979 153.609 57.5812 154.248 58.3708H154.243Z" fill="#222222"/>
</svg>
