<svg width="18" height="19" viewBox="0 0 18 19" fill="none" xmlns="http://www.w3.org/2000/svg">
<path d="M9.71455 1.77479C9.66677 1.62248 9.57165 1.48939 9.44301 1.39488C9.31438 1.30036 9.15895 1.24935 8.99932 1.24927C8.8397 1.24918 8.68421 1.30003 8.55548 1.39441C8.42675 1.48879 8.33148 1.62178 8.28355 1.77404L6.64555 6.96404L1.4998 6.96029C1.33937 6.95991 1.18306 7.01099 1.0538 7.10601C0.924548 7.20104 0.829169 7.335 0.781672 7.48823C0.734175 7.64147 0.737063 7.80589 0.789912 7.95736C0.842761 8.10883 0.942786 8.23936 1.0753 8.32979L5.1988 11.1513L3.64855 16.06C3.60177 16.2099 3.60319 16.3706 3.65262 16.5196C3.70204 16.6686 3.79697 16.7984 3.92403 16.8906C4.05109 16.9828 4.20388 17.0328 4.36086 17.0335C4.51784 17.0343 4.6711 16.9857 4.79905 16.8948L8.99905 13.8903L13.1945 16.8955C13.3225 16.9872 13.4761 17.0363 13.6335 17.0359C13.791 17.0354 13.9442 16.9854 14.0717 16.893C14.1991 16.8006 14.2942 16.6704 14.3436 16.5209C14.3929 16.3714 14.3939 16.2102 14.3465 16.06L12.7963 11.1513L16.9228 8.32979C17.0553 8.23936 17.1553 8.10883 17.2082 7.95736C17.261 7.80589 17.2639 7.64147 17.2164 7.48823C17.1689 7.335 17.0735 7.20104 16.9443 7.10601C16.815 7.01099 16.6587 6.95991 16.4983 6.96029L11.3488 6.96404L9.71455 1.77479Z" fill="#222222"/>
</svg>
