<svg width="175" height="284" viewBox="0 0 175 284" fill="none" xmlns="http://www.w3.org/2000/svg">
<g clip-path="url(#clip0_1384_3220)">
<rect width="151" height="11" transform="matrix(0 -1 1 0 81.9956 284)" fill="#FAFAFA"/>
</g>
<g clip-path="url(#clip1_1384_3220)">
<path d="M57.0253 132.617C50.3653 132.817 44.043 129.687 40.1638 124.27L8.82172 80.499C4.09159 73.8931 3.8278 65.0822 8.15427 58.2051L36.8265 12.63C40.3739 6.99135 46.4959 3.4891 53.1546 3.28911L118.715 1.32002C125.375 1.11999 131.697 4.24969 135.576 9.66692L166.918 53.4359C171.648 60.0415 171.912 68.8521 167.586 75.7292L138.916 121.306C135.369 126.945 129.246 130.448 122.587 130.648L57.0253 132.617Z" fill="#FAFAFA" stroke="#FAFAFA" stroke-width="3.7" stroke-miterlimit="10"/>
<path d="M59.6085 127.678C52.9484 127.878 46.6261 124.749 42.7469 119.331L14.8221 80.3347C10.0918 73.7288 9.82789 64.9176 14.1545 58.0405L39.7004 17.4347C43.2477 11.7962 49.3696 8.29399 56.0282 8.09387L115.045 6.32022C121.705 6.12007 128.028 9.24978 131.907 14.6671L159.832 53.6641C164.562 60.2698 164.826 69.0807 160.5 75.9578L134.956 116.563C131.409 122.202 125.287 125.704 118.628 125.905L59.6085 127.678Z" fill="#044343"/>
<path d="M64.9183 118.683C58.2769 118.881 51.9706 115.768 48.0889 110.376L25.8895 79.5356C21.1223 72.9128 20.8566 64.0582 25.2181 57.1615L45.5191 25.0603C49.0715 19.4431 55.1821 15.9576 61.8253 15.7591L110.08 14.3173C116.721 14.1189 123.027 17.2313 126.909 22.6233L149.109 53.4614C153.877 60.0843 154.143 68.9396 149.781 75.8366L129.478 107.94C125.926 113.557 119.815 117.042 113.172 117.241L64.9183 118.683Z" fill="#FAFAFA" stroke="#FAFAFA" stroke-width="3.15" stroke-miterlimit="10"/>
<path d="M47.92 80.44C46.4533 80.44 45.0267 80.3067 43.64 80.04C42.28 79.8 41.0133 79.4533 39.84 79C38.6667 78.52 37.64 77.96 36.76 77.32L38.56 72.44C39.4133 73.0267 40.3333 73.5333 41.32 73.96C42.3067 74.3867 43.36 74.72 44.48 74.96C45.6 75.1733 46.7467 75.28 47.92 75.28C49.8667 75.28 51.2533 74.9867 52.08 74.4C52.9067 73.7867 53.32 73.0267 53.32 72.12C53.32 71.6133 53.1867 71.1733 52.92 70.8C52.68 70.4267 52.2667 70.1067 51.68 69.84C51.12 69.5467 50.3467 69.3067 49.36 69.12L44.84 68.16C42.28 67.6267 40.3733 66.72 39.12 65.44C37.8933 64.1333 37.28 62.4267 37.28 60.32C37.28 58.5067 37.76 56.9333 38.72 55.6C39.7067 54.2667 41.0533 53.2267 42.76 52.48C44.4933 51.7333 46.48 51.36 48.72 51.36C50.0267 51.36 51.28 51.4933 52.48 51.76C53.68 52 54.7867 52.36 55.8 52.84C56.8133 53.32 57.6933 53.8933 58.44 54.56L56.64 59.12C55.5733 58.2667 54.3733 57.6267 53.04 57.2C51.7067 56.7467 50.2533 56.52 48.68 56.52C47.56 56.52 46.6 56.6667 45.8 56.96C45.0267 57.2533 44.4267 57.6667 44 58.2C43.6 58.7333 43.4 59.3467 43.4 60.04C43.4 60.8133 43.68 61.44 44.24 61.92C44.8 62.4 45.7733 62.7867 47.16 63.08L51.68 64.04C54.2933 64.6 56.24 65.5067 57.52 66.76C58.8 67.9867 59.44 69.6133 59.44 71.64C59.44 73.4 58.96 74.9467 58 76.28C57.0667 77.5867 55.7333 78.6133 54 79.36C52.2933 80.08 50.2667 80.44 47.92 80.44ZM69.5991 80V56.92H60.2791V51.8H85.1191V56.92H75.7991V80H69.5991ZM99.5528 80.44C97.4728 80.44 95.5661 80.0933 93.8328 79.4C92.1261 78.7067 90.6595 77.72 89.4328 76.44C88.2061 75.16 87.2595 73.6267 86.5928 71.84C85.9528 70.0533 85.6328 68.0667 85.6328 65.88C85.6328 63.6667 85.9528 61.68 86.5928 59.92C87.2595 58.1333 88.2061 56.6133 89.4328 55.36C90.6595 54.08 92.1261 53.0933 93.8328 52.4C95.5661 51.7067 97.4728 51.36 99.5528 51.36C101.659 51.36 103.566 51.7067 105.273 52.4C106.979 53.0933 108.446 54.0667 109.673 55.32C110.899 56.5733 111.846 58.0933 112.513 59.88C113.179 61.6667 113.513 63.6533 113.513 65.84C113.513 68.0533 113.179 70.0533 112.513 71.84C111.846 73.6267 110.899 75.16 109.673 76.44C108.446 77.72 106.979 78.7067 105.273 79.4C103.566 80.0933 101.659 80.44 99.5528 80.44ZM99.5528 75.16C101.153 75.16 102.499 74.8 103.593 74.08C104.686 73.3333 105.526 72.2667 106.113 70.88C106.726 69.4667 107.033 67.8 107.033 65.88C107.033 63.9333 106.739 62.2667 106.153 60.88C105.566 59.4933 104.713 58.44 103.593 57.72C102.473 57 101.126 56.64 99.5528 56.64C98.0061 56.64 96.6728 57 95.5528 57.72C94.4328 58.44 93.5795 59.4933 92.9928 60.88C92.4061 62.2667 92.1128 63.9333 92.1128 65.88C92.1128 67.8 92.4061 69.4667 92.9928 70.88C93.5795 72.2667 94.4328 73.3333 95.5528 74.08C96.6728 74.8 98.0061 75.16 99.5528 75.16ZM118.309 80V51.8H131.189C133.295 51.8 135.082 52.16 136.549 52.88C138.015 53.6 139.122 54.6267 139.869 55.96C140.642 57.2933 141.029 58.9067 141.029 60.8C141.029 62.6933 140.642 64.32 139.869 65.68C139.122 67.0133 138.015 68.04 136.549 68.76C135.082 69.48 133.295 69.84 131.189 69.84H124.509V80H118.309ZM124.509 65.04H130.149C131.749 65.04 132.962 64.68 133.789 63.96C134.642 63.24 135.069 62.1867 135.069 60.8C135.069 59.4133 134.642 58.3733 133.789 57.68C132.962 56.9867 131.749 56.64 130.149 56.64H124.509V65.04Z" fill="#044343"/>
</g>
<defs>
<clipPath id="clip0_1384_3220">
<rect width="151" height="11" fill="white" transform="matrix(0 -1 1 0 81.9956 284)"/>
</clipPath>
<clipPath id="clip1_1384_3220">
<rect width="175" height="133" fill="white"/>
</clipPath>
</defs>
</svg>
