<svg width="450" height="201" viewBox="0 0 450 201" fill="none" xmlns="http://www.w3.org/2000/svg">
<path d="M54.3699 54.2C52.0699 54.76 49.7999 55.73 47.8199 57.04C45.5499 58.54 43.7299 60.34 42.0899 62.5C41.5399 63.22 41.4799 64.56 41.7099 65.39C41.9499 66.26 42.6199 67.2 43.4299 67.63C44.2999 68.09 45.3499 68.32 46.3199 68.01C46.6199 67.88 46.9199 67.76 47.2199 67.63C47.5499 67.43 47.8399 67.18 48.0899 66.9C48.9599 65.78 49.9599 64.79 51.0599 63.9C51.9999 63.23 52.9999 62.65 54.0499 62.17C54.7999 61.88 55.5699 61.62 56.3599 61.43C58.2699 60.97 59.5899 58.7 58.9799 56.82C58.3399 54.84 56.4099 53.7 54.3699 54.2Z" fill="#222222"/>
<path d="M423.6 141.16C422.64 140.94 421.56 140.99 420.71 141.54C419.88 142.07 419.26 142.82 418.99 143.78L417.09 150.43C416.82 151.36 416.98 152.49 417.47 153.32C417.93 154.1 418.82 154.84 419.71 155.04C420.67 155.26 421.75 155.21 422.6 154.66C423.43 154.13 424.05 153.38 424.32 152.42C424.95 150.2 425.59 147.98 426.22 145.77C426.49 144.84 426.33 143.71 425.84 142.88C425.38 142.1 424.49 141.36 423.6 141.16Z" fill="#222222"/>
<path d="M117.73 146.78C117.64 146.99 117.79 147.49 117.81 147.33C117.79 147.19 117.74 146.95 117.74 146.82C117.74 146.81 117.74 146.79 117.74 146.78H117.73Z" fill="#222222"/>
<path d="M87.0099 188.47C87.1599 188.45 87.3899 188.4 87.5299 188.4C87.5299 188.4 87.5499 188.4 87.5599 188.4C87.0499 188.29 86.7899 188.46 87.0199 188.47H87.0099Z" fill="#222222"/>
<path d="M86.7999 114.3C86.7299 114.3 86.6699 114.3 86.5999 114.3C86.8299 114.35 86.8699 114.33 86.7999 114.3Z" fill="#222222"/>
<path d="M90.0699 144.39C90.0699 144.39 90.1099 144.56 90.3699 144.73C90.3699 144.72 90.3599 144.71 90.3499 144.7C90.2599 144.62 90.1599 144.51 90.0699 144.39Z" fill="#222222"/>
<path d="M90.5199 158.17C90.6499 157.99 90.7299 157.73 90.5199 158.17V158.17Z" fill="#222222"/>
<path d="M101.57 136.89C96.1999 131.03 87.4499 128.61 79.9499 131.56C71.4099 134.91 65.6899 143.69 66.4899 152.95C67.2399 161.72 73.1599 169.21 81.7199 171.6C90.2699 173.99 99.0899 170.32 103.99 163.07C106.44 159.44 107.69 154.71 107.34 150.35C106.94 145.25 104.95 140.73 101.58 136.89H101.57ZM92.8499 142.29C92.7299 142.2 92.5799 142.1 92.5199 142.09C92.5999 142.09 92.7199 142.18 92.8499 142.29ZM90.5699 141.03C91.1699 141.23 90.5699 141.08 90.3299 140.95C90.4099 140.98 90.4899 141.01 90.5699 141.03ZM88.1499 140.36C89.0299 140.42 88.2199 140.49 87.9399 140.34C88.0099 140.34 88.0799 140.35 88.1499 140.36ZM75.8099 142.52C75.8099 142.52 75.8399 142.49 75.8499 142.48C75.8699 142.46 75.8799 142.46 75.9099 142.44C75.9799 142.39 76.0499 142.35 76.1199 142.3C76.0499 142.36 75.9099 142.46 75.8099 142.52ZM76.4799 153.05C76.5099 153.2 76.5299 153.35 76.5299 153.34C76.4999 153.31 76.4899 153.18 76.4799 153.05ZM78.4699 157.95C78.4699 157.95 78.5299 158.02 78.5999 158.11C78.5199 158.02 78.4599 157.95 78.4699 157.95ZM96.4499 156.18C96.4499 156.18 96.4699 156.12 96.5099 156.04C96.4799 156.12 96.4499 156.19 96.4499 156.18ZM97.3299 152.94C97.2799 153.86 97.1999 153.06 97.3299 152.8C97.3299 152.85 97.3299 152.9 97.3299 152.94ZM97.3599 152.46C97.3599 152.57 97.3499 152.69 97.3399 152.8C97.1399 153.11 97.0599 154.32 96.9699 154.64C96.8699 155.01 96.7399 155.36 96.6199 155.72C96.6199 155.73 96.5899 155.81 96.5599 155.9C96.2399 156.53 95.9199 157.15 95.5299 157.75C95.4099 157.93 94.9499 158.83 95.2499 158.2C95.2499 158.2 95.2499 158.19 95.2599 158.18C95.2499 158.19 95.2399 158.21 95.2299 158.22C95.0399 158.43 94.8599 158.65 94.6699 158.86C94.2399 159.33 93.7599 159.74 93.2899 160.18C93.1599 160.28 93.0099 160.41 92.9199 160.47C92.5899 160.7 92.2399 160.91 91.8899 161.12C91.5499 161.31 91.1999 161.49 90.8499 161.66C90.8299 161.66 90.8199 161.66 90.7999 161.67C90.0799 161.9 89.3699 162.12 88.6299 162.27C88.4599 162.22 87.8599 162.34 87.7199 162.35C87.3499 162.36 86.9799 162.36 86.6099 162.35C86.3899 162.35 85.8399 162.21 85.5899 162.26C85.2299 162.19 84.8699 162.11 84.5199 162.01C84.2199 161.93 83.9099 161.84 83.6099 161.74C83.4599 161.69 83.3099 161.63 83.1599 161.58C82.6499 161.33 82.1399 161.09 81.6599 160.8C81.3399 160.61 81.0299 160.41 80.7299 160.2C80.6799 160.16 80.6299 160.13 80.5799 160.09C80.0999 159.61 79.5699 159.19 79.1099 158.69C79.0799 158.65 78.8299 158.38 78.6599 158.18C78.5399 158.01 78.4199 157.85 78.3099 157.68C77.9499 157.14 77.6299 156.57 77.3399 155.99C77.2999 155.91 77.2599 155.84 77.2199 155.76C77.2199 155.73 77.2199 155.71 77.1999 155.68C77.0899 155.24 76.9099 154.81 76.7899 154.36C76.6699 153.91 76.5999 153.46 76.4999 153.01C76.4999 152.99 76.4999 152.98 76.4899 152.96C76.4899 152.87 76.4899 152.8 76.4899 152.77C76.4199 151.84 76.4999 150.93 76.5099 150C76.5099 149.96 76.5099 149.93 76.5099 149.91C76.5199 149.86 76.5399 149.8 76.5499 149.76C76.6199 149.37 76.7099 148.98 76.7999 148.6C76.9099 148.15 77.0499 147.71 77.1999 147.27C77.2499 147.12 77.3099 146.98 77.3599 146.83C77.7699 146.11 78.1199 145.38 78.5799 144.69C78.6799 144.55 78.7799 144.41 78.8799 144.27C79.1899 143.79 78.6099 144.63 78.6099 144.6C78.6599 144.3 79.2699 143.83 79.4899 143.59C79.5699 143.51 80.1699 142.9 80.5699 142.54C80.4399 142.62 80.3899 142.65 80.6099 142.5C80.7799 142.35 80.9099 142.24 80.9199 142.26C80.9199 142.26 80.9099 142.29 80.8699 142.31C80.9299 142.27 80.9899 142.22 81.0599 142.18C81.3599 141.97 81.6799 141.78 81.9999 141.6C82.3499 141.4 82.7199 141.22 83.0799 141.04C83.1199 141.03 83.1499 141.02 83.1899 141C83.9199 140.76 84.6499 140.54 85.3999 140.4C85.4299 140.4 85.4699 140.39 85.4999 140.38C85.8699 140.38 86.2599 140.32 86.6399 140.32C86.9899 140.32 87.3499 140.32 87.6999 140.34C87.7799 140.34 87.8499 140.35 87.9299 140.36C88.3599 140.65 89.4799 140.68 89.9799 140.84C90.0799 140.87 90.1899 140.91 90.2899 140.95C90.4699 141.09 91.0999 141.31 91.2399 141.38C91.6199 141.58 91.9899 141.8 92.3499 142.03C92.4899 142.12 92.6199 142.21 92.7499 142.3C92.9499 142.43 92.9999 142.45 92.9899 142.42C93.2199 142.63 93.4399 142.89 93.5399 142.98C93.8699 143.3 94.1899 143.63 94.4999 143.97C94.5899 144.08 94.6999 144.24 94.8199 144.4C94.8499 144.4 94.9299 144.45 95.0399 144.62C95.0599 144.65 95.0799 144.68 95.0999 144.71C95.1299 144.74 95.1599 144.77 95.1899 144.79C95.1599 144.77 95.1399 144.76 95.1199 144.74C95.1899 144.84 95.2599 144.95 95.3299 145.05C95.7699 145.72 96.1099 146.42 96.4899 147.13C96.4899 147.15 96.5099 147.17 96.5199 147.19C96.6399 147.5 96.7399 147.82 96.8399 148.14C97.0399 148.8 97.1599 149.46 97.3099 150.12C97.3199 150.23 97.3399 150.33 97.3399 150.35C97.3599 150.73 97.3899 151.11 97.3899 151.49C97.3899 151.81 97.3899 152.14 97.3699 152.46H97.3599Z" fill="#222222"/>
<path d="M407.92 112.95C408.01 113.07 408.09 113.21 407.92 112.95V112.95Z" fill="#222222"/>
<path d="M405.85 106.29C405.88 106.1 405.93 105.87 405.85 106.29V106.29Z" fill="#222222"/>
<path d="M449 137.73C449 137.73 448.93 137.73 448.9 137.73C449.02 123.9 448.43 95.35 441.77 87.91C441.77 87.91 437.75 71.63 381.38 57.15C374.53 55.76 367.55 55.41 360.57 55.24C353.67 55.08 346.66 55.12 339.87 53.78C333.61 52.54 328.22 50 322.91 46.53C318.08 43.36 313.85 40.04 309.5 36.62C300.97 29.9 292.43 23.18 283.63 16.82C278.87 13.38 273.85 10.57 268.27 8.67999C260.04 5.89999 217.37 3.87001 208.77 2.99001C194.73 1.56001 180.55 0.570004 166.43 0.520004C166.27 0.520004 166.11 0.520004 165.95 0.520004C165.95 0.530004 165.95 0.549998 165.95 0.559998C57.5899 2.29 55.3999 9.78999 55.3999 9.78999C27.9999 20.05 1.80993 62.59 1.80993 62.59L0.669922 79.99C0.669922 83.25 1.10992 86.54 1.37992 89.76L2.43992 102.56C3.10992 110.69 3.69993 118.83 4.48993 126.95C5.19993 134.3 6.16992 141.77 8.92992 148.67C12.7799 158.28 19.4899 166.01 29.5799 169.12C34.4399 170.62 39.6099 171.12 44.7099 171.27C46.6999 175.77 49.3899 179.97 52.7899 183.7C58.7499 190.26 66.7399 195.09 75.2899 197.42C83.9199 199.77 93.4099 199.62 101.84 196.53C111.25 193.09 119.25 186.64 124.8 178.31C126.26 176.12 127.49 173.82 128.53 171.45C147.03 171.45 165.53 171.46 184.03 171.45C203.93 171.45 257.65 172.5 277.55 172.42C287.74 172.38 297.93 172.33 308.12 172.26C310.11 176.79 312.82 181 316.23 184.76C322.19 191.32 330.18 196.15 338.73 198.48C347.36 200.83 356.85 200.68 365.28 197.59C374.69 194.15 382.69 187.7 388.24 179.37C389.75 177.1 391.03 174.71 392.09 172.23C403.69 172.23 415.29 172.23 426.89 172.23C428.84 172.23 430.82 172.33 432.77 172.23C437.6 171.99 441.75 166.37 443.91 162.49C448.01 155.14 449.61 146.29 448.99 137.71L449 137.73ZM439.89 114.82L439.37 111.93C439.24 111.96 439.15 111.99 439.17 112C438.77 112.04 438.37 112.05 437.98 112.04C437.77 112.04 437.55 112.02 437.34 112C437.29 112 437.23 111.98 437.15 111.97C436.67 111.86 436.2 111.76 435.74 111.61C435.58 111.56 435.42 111.5 435.26 111.44C435.23 111.42 435.13 111.38 434.94 111.29C434.57 111.08 434.2 110.89 433.84 110.67C430.78 108.72 428.7 105.04 426.64 101.54C425.51 99.62 424.51 98.09 424.19 95.98C424.19 95.97 424.19 95.84 424.16 95.55C424.16 95.29 424.16 95.03 424.17 94.77C424.19 94.8 424.37 93.92 424.4 93.79C424.47 93.55 425.08 92.49 425.26 92.29C425.51 92.01 425.75 91.74 426.02 91.48C426.2 91.31 426.38 91.14 426.57 90.98C426.29 91.19 426.33 91.16 426.69 90.89C427.4 90.4 428.58 89.74 429.08 89.53C430.28 89.02 431.55 88.67 432.83 88.38C437.49 95.61 439.32 105.68 439.88 114.85L439.89 114.82ZM82.5099 188.74C81.8799 188.67 82.3199 188.71 82.6499 188.75C82.5999 188.75 82.5599 188.75 82.5099 188.74ZM100.16 186.52C100.16 186.52 100.43 186.43 100.6 186.36C100.43 186.45 100.26 186.54 100.16 186.52ZM122.41 155.29C122.38 155.73 122.35 156.16 122.3 156.59C122.27 156.86 122.24 157.13 122.21 157.4C122.21 157.4 122.21 157.4 122.21 157.41C121.82 159.38 121.49 161.34 120.91 163.27C120.77 163.74 120.6 164.2 120.44 164.66C120.38 164.81 120.33 164.96 120.29 165.11C120.2 165.37 120.12 165.64 120.02 165.91C119.97 166.05 119.87 166.47 119.74 166.81C119.75 166.73 119.71 166.74 119.59 167C119.45 167.3 119.32 167.6 119.18 167.9C118.31 169.75 117.3 171.54 116.16 173.25C115.88 173.67 115.59 174.08 115.3 174.49C115.17 174.67 115.03 174.85 114.9 175.03C114.45 175.65 114.86 175.12 115.02 174.9C114.5 175.81 113.56 176.66 112.86 177.42C111.44 178.96 109.9 180.39 108.27 181.71C108.22 181.75 107.53 182.27 107.75 182.11C107.66 182.17 107.59 182.22 107.58 182.23C107.2 182.51 106.81 182.78 106.42 183.04C105.51 183.66 104.57 184.23 103.62 184.77C102.73 185.27 101.83 185.73 100.9 186.16C100.84 186.19 100.75 186.24 100.66 186.29C100.61 186.31 100.53 186.34 100.41 186.39C99.8999 186.59 99.3799 186.79 98.8599 186.98C97.0199 187.64 95.1299 188.15 93.2099 188.52C92.7899 188.6 92.3799 188.66 91.9599 188.73C91.9699 188.73 91.9899 188.73 91.9999 188.73C91.9799 188.73 91.9599 188.73 91.9299 188.73C91.8299 188.75 91.7199 188.77 91.6199 188.78C91.5199 188.8 91.4599 188.8 91.4099 188.79C91.3899 188.79 91.3699 188.79 91.3599 188.79C90.2999 188.9 89.2399 188.97 88.1799 188.99C86.3599 189.03 84.5499 188.92 82.7399 188.73C82.5399 188.68 82.2899 188.67 82.0999 188.64C81.6299 188.56 81.1699 188.48 80.6999 188.39C79.7199 188.19 78.7499 187.96 77.7799 187.69C76.9199 187.45 76.0599 187.19 75.2199 186.89C74.7199 186.72 74.2299 186.54 73.7399 186.34C73.5599 186.27 73.3799 186.2 73.2099 186.13C73.2099 186.13 73.1999 186.13 73.1899 186.12C71.4599 185.32 69.7699 184.47 68.1499 183.48C67.3399 182.98 66.5399 182.46 65.7699 181.91C65.4299 181.67 65.1099 181.42 64.7799 181.18C64.5699 181 64.3499 180.83 64.1399 180.66C62.6299 179.4 61.1999 178.04 59.8799 176.58C59.6699 176.35 57.9099 174.53 58.0099 174.38C58.0099 174.38 58.7599 175.39 58.1999 174.63C58.0699 174.46 57.9399 174.29 57.8199 174.11C57.4999 173.67 57.1899 173.23 56.8999 172.79C55.7499 171.08 54.7299 169.27 53.8599 167.4C53.7799 167.23 53.5399 166.67 53.4899 166.56C53.3199 166.13 53.1499 165.7 52.9899 165.27C52.5599 164.08 52.1799 162.86 51.8599 161.63C51.5599 160.46 51.3099 159.28 51.0999 158.1C51.0599 157.84 51.0099 157.57 50.9699 157.31C50.9499 157.17 50.9299 157.08 50.9199 157.02C50.8299 156.44 50.8099 155.82 50.7699 155.25C50.5899 152.77 50.6199 150.28 50.8599 147.8C50.8899 147.53 50.9199 147.27 50.9399 147C50.9599 146.84 50.9599 146.74 50.9699 146.68C51.0299 146.23 51.1199 145.78 51.1999 145.34C51.4299 144.08 51.7099 142.84 52.0399 141.61C52.3599 140.45 52.7199 139.29 53.1299 138.16C53.3099 137.66 53.5099 137.16 53.6999 136.66C53.6999 136.64 53.7099 136.62 53.7199 136.6C53.7199 136.59 53.7299 136.58 53.7399 136.56C53.9099 136.2 54.0699 135.83 54.2399 135.47C55.2499 133.35 56.4399 131.31 57.7899 129.38C58.0499 129 58.3299 128.63 58.5999 128.26C58.6099 128.25 58.6199 128.24 58.6299 128.22C58.7799 128.03 58.9299 127.84 59.0799 127.66C59.7199 126.88 60.3799 126.13 61.0799 125.39C62.4399 123.95 63.9199 122.66 65.4399 121.4C65.6099 121.28 65.7699 121.15 65.9399 121.03C66.3299 120.75 66.7199 120.48 67.1199 120.21C67.9499 119.65 68.8099 119.13 69.6799 118.64C70.4999 118.18 71.3299 117.75 72.1799 117.35C72.3499 117.27 72.5699 117.2 72.7899 117.12C72.8299 117.07 72.9299 116.99 73.1199 116.92C73.1699 116.9 73.2299 116.88 73.2799 116.86C73.2799 116.86 73.2999 116.85 73.3099 116.84C73.3099 116.84 73.2999 116.85 73.2899 116.86C73.4699 116.79 73.6499 116.71 73.8399 116.65C75.6599 115.96 77.5399 115.4 79.4399 114.99C80.2599 114.81 81.0799 114.7 81.8999 114.54C82.0499 114.52 82.1899 114.51 82.3399 114.49C82.8499 114.44 83.3499 114.39 83.8599 114.36C84.7699 114.3 85.6799 114.28 86.5899 114.28C86.4899 114.26 86.3499 114.22 86.1599 114.17C86.1999 114.17 86.2399 114.17 86.2799 114.18C86.3999 114.2 86.5199 114.21 86.6399 114.23C86.7099 114.25 86.7599 114.26 86.7999 114.28C87.7099 114.29 88.6199 114.33 89.5299 114.4C89.8799 114.43 90.2399 114.47 90.5899 114.51C90.5499 114.5 90.5299 114.49 90.4799 114.48C90.5499 114.5 90.6299 114.51 90.6999 114.52C90.7599 114.52 90.8299 114.53 90.8899 114.54C90.9499 114.54 91.0099 114.56 91.0599 114.57C91.0599 114.57 91.0799 114.57 91.0899 114.57C92.1099 114.73 93.1199 114.93 94.1099 115.18C95.8499 115.6 97.5299 116.16 99.1999 116.8C99.3699 116.92 99.6899 117 99.8499 117.07C100.28 117.27 100.71 117.47 101.14 117.68C102.05 118.13 102.94 118.62 103.81 119.14C104.6 119.61 105.38 120.12 106.13 120.64C106.46 120.87 107.25 121.27 107.46 121.61C107.42 121.54 106.53 120.87 107.24 121.44C107.5 121.65 107.76 121.86 108.02 122.07C109.6 123.39 111.07 124.83 112.45 126.36C112.85 126.81 113.25 127.26 113.63 127.73C113.88 128.03 114.59 129.18 113.96 128.12C114.52 129.07 115.29 129.93 115.9 130.86C117.07 132.64 118.11 134.51 119.02 136.44C119.12 136.65 119.21 136.85 119.3 137.06C119.31 137.09 119.39 137.26 119.46 137.41C119.49 137.48 119.52 137.54 119.53 137.58C119.63 137.84 119.74 138.1 119.84 138.37C120.2 139.31 120.52 140.27 120.81 141.24C121.39 143.16 121.8 145.11 122.13 147.09C122.13 147.09 122.13 147.07 122.14 147.06C122.14 147.06 122.14 147.1 122.14 147.14C122.16 147.23 122.17 147.32 122.19 147.41C122.21 147.54 122.21 147.61 122.21 147.65C122.21 147.67 122.21 147.71 122.22 147.72C122.27 148.21 122.32 148.7 122.36 149.2C122.44 150.24 122.48 151.28 122.48 152.32C122.48 153.3 122.45 154.29 122.39 155.27L122.41 155.29ZM68.3699 116.81C68.5599 116.74 68.7399 116.65 68.8599 116.55C68.8599 116.55 68.8599 116.55 68.8699 116.55C68.4799 116.91 68.2799 116.92 68.3599 116.82L68.3699 116.81ZM99.3199 116.86C99.3199 116.86 99.4099 116.89 99.4599 116.91C100.07 117.15 99.6099 116.98 99.3199 116.86ZM169.42 160.58C169.42 160.58 156.37 110.98 150.3 64C150.3 64 191.76 68.09 214.28 68.09L214.46 161.95L169.42 160.59V160.58ZM210.49 31.89C210.64 31.91 210.79 31.93 210.94 31.95C211.44 32.01 211.31 32 211.01 31.95C211.08 31.96 211.16 31.97 211.23 31.98C211.73 32.05 212.24 32.13 212.74 32.21C212.85 32.23 213.53 32.27 214.61 32.32L213.94 57.98C208.3 57.83 203.42 57.69 199.79 57.56C188.83 57.19 177.87 56.62 166.93 55.76C161.88 55.36 156.84 54.9 151.8 54.37C152.92 46.53 154.05 38.69 155.17 30.85C157.17 30.77 159.17 30.69 161.17 30.63C172.77 30.29 184.4 30.26 195.99 30.77C200.95 30.99 205.91 31.3 210.84 31.92C210.85 31.92 210.86 31.92 210.87 31.92C210.75 31.9 210.61 31.88 210.49 31.87V31.89ZM267.38 41.76C270.92 43.93 274.32 46.32 277.63 48.82C277.95 49.06 278.28 49.31 278.6 49.56C278.5 49.49 279.02 49.88 279.21 50.03C280.07 50.7 280.92 51.38 281.77 52.07C283.4 53.39 285.02 54.73 286.62 56.09C287.91 57.18 289.19 58.29 290.46 59.41C276.86 59.41 245.86 58.8 222.43 58.22L222.3 32.66C232.9 33.08 248.58 33.68 249.16 33.81C250.3 34.06 251.42 34.37 252.53 34.71C253.39 34.98 254.25 35.27 255.1 35.58C255.53 35.74 255.96 35.9 256.38 36.07C256.72 36.2 258.04 36.69 257.02 36.32C260.63 37.62 264.11 39.77 267.37 41.77L267.38 41.76ZM267.06 162.53L271.2 158.13C272.78 156.45 272.67 153.83 270.95 152.29C270.95 150.1 268.27 149.03 266.76 150.63L255.62 162.47L248.45 162.43L263.29 146.66C264.96 144.88 264.74 142.06 262.72 140.56C260.95 139.24 258.43 139.6 256.91 141.21L237 162.37L232.09 162.34L242.35 151.43C244.02 149.65 243.8 146.82 241.78 145.33C240.01 144.01 237.49 144.37 235.97 145.98L222.27 160.54L222.79 68.09C222.79 68.09 265.84 69.38 297.89 68.36C297.89 68.36 281.14 132.33 282.88 162.63L267.03 162.54L267.06 162.53ZM345.95 189.82C345.32 189.75 345.76 189.79 346.09 189.83C346.04 189.83 346 189.83 345.95 189.82ZM363.59 187.6C363.59 187.6 363.86 187.51 364.03 187.44C363.86 187.53 363.69 187.62 363.59 187.6ZM385.84 156.37C385.81 156.81 385.78 157.24 385.73 157.67C385.7 157.94 385.67 158.21 385.64 158.48C385.64 158.48 385.64 158.48 385.64 158.49C385.25 160.46 384.92 162.42 384.34 164.35C384.07 165.24 383.78 166.12 383.45 166.99C383.4 167.13 383.3 167.55 383.17 167.89C383.18 167.81 383.14 167.82 383.02 168.08C382.88 168.38 382.75 168.68 382.61 168.98C381.74 170.83 380.73 172.62 379.59 174.33C379.31 174.75 379.02 175.16 378.73 175.57C378.6 175.75 378.46 175.93 378.33 176.11C377.88 176.73 378.29 176.2 378.45 175.98C377.93 176.89 376.99 177.74 376.29 178.5C374.87 180.04 373.33 181.47 371.7 182.79C371.65 182.83 370.95 183.35 371.18 183.19C371.09 183.25 371.02 183.3 371.01 183.31C370.63 183.59 370.24 183.86 369.85 184.12C368.94 184.74 368 185.31 367.05 185.85C366.16 186.35 365.26 186.81 364.33 187.24C364.27 187.27 364.18 187.32 364.09 187.37C364.04 187.39 363.96 187.42 363.84 187.47C363.33 187.67 362.81 187.87 362.29 188.06C360.45 188.72 358.56 189.23 356.64 189.6C356.22 189.68 355.81 189.74 355.39 189.81C355.4 189.81 355.42 189.81 355.43 189.81C355.41 189.81 355.39 189.81 355.36 189.81C355.26 189.83 355.15 189.85 355.05 189.86C354.95 189.88 354.89 189.88 354.84 189.87C354.82 189.87 354.8 189.87 354.79 189.87C353.73 189.98 352.67 190.05 351.61 190.07C349.79 190.11 347.98 190 346.17 189.81C345.97 189.76 345.72 189.75 345.53 189.72C345.06 189.64 344.6 189.56 344.13 189.47C343.15 189.27 342.18 189.04 341.21 188.77C340.35 188.53 339.49 188.27 338.65 187.97C338.15 187.8 337.66 187.62 337.17 187.42C336.99 187.35 336.81 187.28 336.64 187.21C336.64 187.21 336.63 187.21 336.62 187.2C334.89 186.4 333.2 185.55 331.58 184.56C330.77 184.06 329.97 183.54 329.2 182.99C328.86 182.75 328.54 182.5 328.21 182.26C328 182.08 327.78 181.91 327.57 181.74C326.06 180.48 324.63 179.12 323.31 177.66C323.1 177.43 321.34 175.61 321.44 175.46C321.44 175.46 322.19 176.47 321.63 175.71C321.5 175.54 321.37 175.37 321.25 175.19C320.93 174.75 320.63 174.31 320.33 173.87C319.18 172.16 318.16 170.35 317.29 168.48C317.21 168.31 316.97 167.75 316.92 167.64C316.75 167.21 316.58 166.78 316.42 166.35C315.99 165.16 315.61 163.94 315.29 162.71C314.99 161.54 314.74 160.36 314.53 159.18C314.49 158.92 314.45 158.65 314.4 158.39C314.38 158.25 314.36 158.16 314.35 158.1C314.26 157.52 314.24 156.9 314.2 156.33C314.02 153.85 314.05 151.36 314.29 148.88C314.32 148.61 314.35 148.35 314.37 148.08C314.39 147.92 314.39 147.83 314.4 147.76C314.46 147.31 314.55 146.85 314.63 146.42C314.86 145.16 315.14 143.92 315.47 142.69C315.79 141.53 316.15 140.37 316.56 139.24C316.74 138.74 316.94 138.24 317.13 137.74C317.13 137.72 317.14 137.7 317.15 137.68C317.15 137.67 317.16 137.66 317.17 137.64C317.34 137.28 317.5 136.91 317.67 136.55C318.68 134.43 319.87 132.39 321.22 130.46C321.48 130.08 321.76 129.71 322.03 129.34C322.04 129.33 322.05 129.32 322.06 129.3C322.21 129.11 322.36 128.92 322.51 128.74C323.15 127.96 323.81 127.21 324.51 126.47C325.87 125.03 327.35 123.74 328.87 122.48C329.04 122.36 329.2 122.23 329.37 122.11C329.76 121.83 330.15 121.56 330.55 121.29C331.38 120.73 332.24 120.21 333.11 119.72C333.93 119.26 334.76 118.83 335.61 118.43C335.78 118.35 336 118.28 336.22 118.2C336.26 118.15 336.36 118.07 336.55 118C336.6 117.98 336.66 117.96 336.71 117.94C336.71 117.94 336.73 117.93 336.74 117.92C336.74 117.92 336.73 117.93 336.72 117.94C336.9 117.87 337.08 117.79 337.27 117.73C339.09 117.04 340.97 116.48 342.87 116.07C343.69 115.89 344.51 115.78 345.33 115.62C345.48 115.6 345.62 115.59 345.77 115.57C346.28 115.52 346.78 115.47 347.29 115.44C348.2 115.38 349.11 115.36 350.02 115.36C349.92 115.34 349.78 115.3 349.58 115.25C349.62 115.25 349.66 115.25 349.7 115.26C349.82 115.28 349.94 115.29 350.06 115.31C350.13 115.33 350.18 115.34 350.22 115.36C351.13 115.37 352.04 115.41 352.95 115.48C353.31 115.51 353.66 115.55 354.01 115.59C353.97 115.58 353.95 115.57 353.9 115.56C353.97 115.58 354.05 115.59 354.12 115.6C354.18 115.6 354.25 115.61 354.31 115.62C354.37 115.62 354.43 115.64 354.48 115.65C354.48 115.65 354.5 115.65 354.51 115.65C355.53 115.81 356.54 116.01 357.53 116.26C359.27 116.68 360.95 117.24 362.62 117.88C362.79 118 363.11 118.08 363.27 118.15C363.7 118.35 364.13 118.55 364.56 118.76C365.47 119.21 366.36 119.7 367.23 120.22C368.02 120.69 368.8 121.2 369.55 121.72C369.88 121.95 370.67 122.35 370.88 122.69C370.84 122.62 369.95 121.95 370.66 122.52C370.92 122.73 371.18 122.94 371.44 123.15C373.02 124.47 374.49 125.91 375.87 127.44C376.27 127.89 376.67 128.34 377.05 128.81C377.3 129.11 378.01 130.26 377.38 129.2C377.94 130.15 378.71 131.01 379.32 131.94C380.49 133.72 381.53 135.59 382.44 137.52C382.54 137.73 382.63 137.93 382.73 138.14C382.74 138.17 382.82 138.34 382.89 138.5C382.92 138.57 382.94 138.63 382.96 138.67C383.06 138.93 383.17 139.19 383.27 139.46C383.63 140.4 383.95 141.36 384.24 142.33C384.82 144.25 385.23 146.2 385.56 148.18C385.56 148.18 385.56 148.16 385.57 148.15C385.57 148.15 385.57 148.19 385.57 148.23C385.59 148.32 385.6 148.41 385.62 148.5C385.64 148.64 385.65 148.7 385.64 148.74C385.64 148.76 385.64 148.8 385.65 148.81C385.7 149.3 385.75 149.79 385.79 150.29C385.87 151.33 385.91 152.37 385.91 153.41C385.91 154.39 385.88 155.38 385.82 156.36L385.84 156.37ZM331.8 117.88C331.99 117.81 332.17 117.72 332.29 117.62C332.29 117.62 332.29 117.62 332.3 117.62C331.91 117.98 331.71 117.99 331.79 117.89L331.8 117.88ZM362.76 117.94C362.76 117.94 362.85 117.97 362.9 117.99C363.51 118.23 363.05 118.06 362.76 117.94ZM436.65 154.6C436.21 155.79 434.96 158.19 433.81 159.8C433.7 159.96 433.65 160.04 433.62 160.07C433.6 160.09 433.53 160.15 433.38 160.32C433.06 160.68 432.74 161.03 432.4 161.37C432.1 161.67 431.77 161.95 431.45 162.23H395.09C397.31 150 394.74 136.92 387.7 126.46C386.27 124.33 384.68 122.3 382.97 120.38C376.85 113.61 368.69 108.55 359.76 106.51C351.33 104.58 342.26 105.07 334.19 108.25C325.25 111.77 317.83 117.79 312.4 125.7C306.24 134.68 303.32 146.1 304.25 156.94C304.4 158.74 304.66 160.52 305 162.28C300.43 162.31 295.87 162.33 291.3 162.35C292.43 140.82 296.27 119.66 302.74 98.97C304.64 92.89 306.95 71.32 309.28 65.39C309.91 63.79 308.84 61.79 307.34 61.03C307.28 60.97 307.24 60.91 307.18 60.86C294.68 49.74 282.1 37.98 267.19 30.12C261.57 27.16 255.58 24.72 249.3 23.67C244.34 22.84 205.51 21.32 200.5 21.02C188.69 20.3 176.83 20.28 165 20.55C155.92 20.75 146.73 20.94 137.71 22.1C129.29 23.18 103.57 29.17 96.1599 33.55C94.2399 34.69 92.3699 35.91 90.5599 37.19C86.8899 39.79 83.4299 42.65 80.2599 45.68C78.8699 47.01 77.5299 48.4 76.2399 49.83C76.2199 49.85 76.2099 49.87 76.1999 49.89C75.6099 50.46 75.1499 51.17 74.9599 52.04C74.8699 52.42 74.8399 52.81 74.8399 53.2C74.7599 54.39 75.0899 55.58 75.9199 56.53C75.9999 56.64 76.0999 56.74 76.1899 56.85C76.2099 56.87 76.2199 56.89 76.2499 56.91C76.2599 56.91 76.2699 56.93 76.2799 56.93C76.8499 57.53 77.5699 57.99 78.4499 58.19C94.0399 61.69 127.43 61.49 143.28 63.42C144.72 86.47 148.35 124.95 154.54 147.2C155.87 151.99 157.31 156.74 158.86 161.46C149.78 161.46 140.69 161.46 131.61 161.46C133.92 149.14 131.37 135.95 124.28 125.42C122.85 123.29 121.26 121.26 119.55 119.34C113.43 112.57 105.27 107.51 96.3399 105.47C87.9099 103.54 78.8399 104.03 70.7699 107.21C61.8299 110.73 54.4099 116.75 48.9799 124.66C42.8199 133.64 39.8999 145.06 40.8299 155.9C40.9799 157.67 41.2299 159.42 41.5699 161.15C38.8299 160.96 36.1999 160.58 33.3699 159.82C32.4299 159.57 31.5099 159.28 30.5999 158.94C30.4099 158.87 30.0899 158.73 29.9599 158.67C29.6299 158.52 29.2999 158.37 28.9799 158.2C28.2399 157.82 27.5299 157.4 26.8399 156.94C26.5299 156.73 26.2299 156.51 25.9299 156.3C26.8199 156.93 25.8499 156.22 25.5299 155.94C24.9899 155.46 24.4699 154.96 23.9799 154.44C23.6899 154.13 23.4099 153.82 23.1399 153.5C22.9799 153.31 22.7499 153.02 22.6599 152.92C21.5299 151.41 20.5099 149.81 19.6299 148.14C16.9499 143.06 15.7699 137.19 15.0199 131.54C14.8699 130.42 14.7399 129.29 14.6099 128.16C14.6499 128.16 14.6999 128.15 14.7399 128.14L14.0699 120.71C13.9899 120.71 13.9099 120.71 13.8099 120.71C13.4199 116.51 13.0899 112.29 12.7799 108.08C12.6099 108.1 12.4499 108.14 12.2799 108.15L11.6099 100.72C11.7499 100.72 11.8399 100.72 11.8199 100.73C11.9599 100.71 12.0999 100.66 12.2399 100.63C12.1399 99.21 12.0299 97.79 11.9299 96.37C11.9999 96.37 12.0699 96.37 12.1399 96.36L11.5899 89.03V88.91C11.4899 88.91 11.3999 88.92 11.3099 88.93C11.2899 88.7 11.2699 88.34 11.2499 87.87C11.1899 86.4 11.1499 83.88 11.1099 81.04H11.2099L11.5099 76.27C12.8799 76.21 14.2599 76.21 15.6099 76.38C16.1499 76.45 17.4599 76.78 18.2799 77.07C18.6999 77.23 18.7399 77.25 18.4199 77.12C18.6499 77.23 18.8699 77.34 19.0799 77.46C19.4099 77.64 19.7199 77.84 20.0299 78.04C20.2599 78.19 21.1299 79.05 21.2599 79.26C21.3299 79.38 21.7299 80.18 21.7399 80.15C21.8199 80.4 21.8999 80.64 21.9599 80.9C22.0099 81.18 22.0399 81.31 22.0399 81.32C22.2899 83.45 21.7199 85.18 21.1399 87.33C20.0799 91.26 19.0399 95.35 16.5999 98.04C16.3199 98.35 15.9999 98.63 15.6999 98.93C15.5399 99.06 15.4499 99.13 15.4299 99.16C15.2899 99.26 15.1499 99.36 15.0099 99.45C14.5999 99.72 14.1699 99.94 13.7399 100.17C13.6599 100.21 13.6099 100.23 13.5599 100.25C13.3599 100.32 13.1599 100.4 12.9499 100.46C12.7099 100.53 12.4599 100.58 12.2099 100.64C12.3899 103.12 12.5699 105.61 12.7499 108.09C14.6199 107.87 16.4599 107.27 18.1599 106.3C22.1199 104.04 24.5299 100.2 26.2099 96.08C27.8499 92.06 29.2099 87.45 29.5199 83.11C29.8599 78.26 27.5599 73.94 23.4899 71.36C20.0199 69.16 15.9799 68.71 11.9599 68.79L12.2699 63.78C12.2699 63.78 44.9999 19.43 65.4899 14.44C85.9799 9.45 166.2 10.56 166.2 10.56V10.54C169.86 10.56 173.52 10.65 177.16 10.79C188.84 11.26 200.55 12.06 212.16 13.38C213.22 13.5 248.08 14.71 249.14 14.84C249.27 14.86 249.36 14.87 249.42 14.87C249.47 14.87 249.55 14.89 249.65 14.9C250.16 14.97 250.68 15.04 251.19 15.12C252.99 15.39 254.79 15.68 256.57 16.03C259.43 16.58 262.27 17.25 265.04 18.15C266.15 18.51 267.23 18.96 268.32 19.35H268.34C269.08 19.68 269.81 20.03 270.53 20.4C272.52 21.42 274.42 22.59 276.27 23.85C281.93 27.7 287.38 31.95 292.78 36.14C301.19 42.65 309.31 49.65 318.25 55.45C322.83 58.42 327.68 60.92 332.95 62.43C338.77 64.1 344.89 64.69 350.92 64.98C356.98 65.27 363.06 65.2 369.12 65.6C373.16 65.86 377.11 66.44 381.02 67.35C381.02 67.24 381.02 67.13 381.02 67.01C386.3 67.92 404.91 71.69 425.95 82.77C423.77 83.7 421.76 84.96 420.11 86.77C416.87 90.34 415.78 95.11 417.39 99.7C418.83 103.81 421.36 107.89 424 111.34C426.7 114.87 430.04 117.94 434.46 119.07C436.32 119.55 438.21 119.64 440.04 119.38C440.23 128.25 439.39 135.55 439.15 137.41C439.06 137.41 438.98 137.41 438.89 137.4C439.48 143.12 438.75 148.88 436.61 154.62L436.65 154.6ZM92.7699 48C92.9299 47.88 93.0799 47.75 93.2399 47.63C94.0899 47.01 94.9299 46.37 95.7899 45.77C97.4599 44.6 99.1699 43.49 100.91 42.45C102.64 41.42 104.41 40.45 106.21 39.56C107.01 39.17 107.81 38.79 108.62 38.43C108.97 38.27 110.02 37.85 109.1 38.21C109.6 38.01 110.09 37.81 110.59 37.62C113.62 36.46 134.38 32.67 137.59 32.14C137.8 32.11 138 32.08 138.21 32.05C138.97 31.96 139.73 31.88 140.49 31.8C142.84 31.57 145.2 31.41 147.56 31.26C147.56 31.26 147.56 31.26 147.57 31.27C146.5 38.7 145.44 46.14 144.37 53.57C144.37 53.57 144.37 53.57 144.36 53.57C142.49 53.35 140.62 53.11 138.75 52.87C138.5 52.84 137.73 52.73 137.59 52.71C136.93 52.62 136.26 52.53 135.6 52.43C126.18 51.11 99.1899 52.32 89.8699 50.42C90.4999 49.87 91.1399 49.32 91.7899 48.79C92.1099 48.52 92.4399 48.26 92.7599 48H92.7699Z" fill="#222222"/>
<path d="M381.16 147.86C381.07 148.07 381.22 148.57 381.24 148.41C381.22 148.27 381.17 148.03 381.17 147.9C381.17 147.89 381.17 147.87 381.17 147.86H381.16Z" fill="#222222"/>
<path d="M350.44 189.55C350.59 189.53 350.82 189.48 350.96 189.48C350.96 189.48 350.98 189.48 350.99 189.48C350.48 189.37 350.22 189.54 350.45 189.55H350.44Z" fill="#222222"/>
<path d="M350.23 115.38C350.16 115.38 350.1 115.38 350.03 115.38C350.26 115.43 350.3 115.41 350.23 115.38Z" fill="#222222"/>
<path d="M353.95 159.25C354.08 159.07 354.16 158.81 353.95 159.25V159.25Z" fill="#222222"/>
<path d="M353.5 145.47C353.5 145.47 353.54 145.64 353.8 145.81C353.8 145.8 353.79 145.79 353.78 145.78C353.69 145.7 353.59 145.59 353.5 145.47Z" fill="#222222"/>
<path d="M365 140.34C359.63 134.48 350.88 132.06 343.38 135.01C334.84 138.36 329.12 147.14 329.92 156.4C330.67 165.17 336.59 172.66 345.15 175.05C353.7 177.44 362.52 173.77 367.42 166.52C369.87 162.89 371.12 158.16 370.77 153.8C370.37 148.7 368.38 144.18 365.01 140.34H365ZM356.29 145.74C356.17 145.65 356.02 145.55 355.96 145.54C356.04 145.54 356.16 145.63 356.29 145.74ZM354 144.47C354.6 144.67 354 144.52 353.76 144.39C353.84 144.42 353.92 144.45 354 144.47ZM351.59 143.81C352.47 143.87 351.66 143.94 351.37 143.79C351.44 143.79 351.51 143.8 351.59 143.81ZM339.24 143.59C339.24 143.59 339.27 143.56 339.28 143.55C339.3 143.53 339.31 143.53 339.34 143.51C339.41 143.46 339.48 143.42 339.55 143.37C339.48 143.43 339.34 143.53 339.24 143.59ZM339.91 156.5C339.94 156.65 339.96 156.8 339.96 156.79C339.93 156.76 339.92 156.63 339.91 156.5ZM341.9 161.4C341.9 161.4 341.96 161.47 342.03 161.56C341.95 161.47 341.89 161.4 341.9 161.4ZM359.88 159.62C359.88 159.62 359.9 159.56 359.94 159.47C359.91 159.55 359.88 159.62 359.88 159.62ZM360.76 156.39C360.71 157.31 360.63 156.51 360.76 156.25C360.76 156.3 360.76 156.35 360.76 156.39ZM360.8 155.91C360.8 156.02 360.79 156.14 360.78 156.25C360.58 156.56 360.5 157.77 360.41 158.09C360.31 158.46 360.18 158.81 360.06 159.17C360.06 159.18 360.03 159.26 360 159.35C359.68 159.98 359.36 160.6 358.97 161.2C358.85 161.38 358.39 162.28 358.69 161.65C358.69 161.65 358.69 161.64 358.7 161.63C358.69 161.64 358.68 161.66 358.67 161.67C358.48 161.88 358.3 162.1 358.11 162.31C357.68 162.78 357.19 163.19 356.73 163.63C356.6 163.73 356.45 163.86 356.36 163.92C356.03 164.15 355.68 164.36 355.33 164.57C354.99 164.76 354.64 164.94 354.29 165.11C354.27 165.11 354.26 165.11 354.24 165.12C353.52 165.35 352.81 165.57 352.07 165.72C351.9 165.67 351.3 165.79 351.16 165.8C350.79 165.81 350.42 165.81 350.05 165.8C349.83 165.8 349.28 165.66 349.03 165.71C348.67 165.64 348.31 165.56 347.96 165.46C347.66 165.38 347.35 165.29 347.05 165.19C346.9 165.14 346.75 165.08 346.6 165.03C346.09 164.78 345.58 164.54 345.1 164.24C344.78 164.05 344.47 163.85 344.17 163.64C344.12 163.6 344.07 163.57 344.02 163.53C343.54 163.05 343.01 162.63 342.55 162.13C342.52 162.09 342.27 161.82 342.1 161.62C341.98 161.45 341.86 161.29 341.75 161.12C341.39 160.58 341.07 160.01 340.78 159.43C340.74 159.35 340.7 159.28 340.66 159.2C340.66 159.17 340.65 159.15 340.64 159.12C340.53 158.68 340.35 158.25 340.23 157.8C340.11 157.35 340.04 156.9 339.94 156.45C339.94 156.43 339.94 156.42 339.93 156.4C339.93 156.31 339.93 156.24 339.93 156.21C339.86 155.28 339.94 154.37 339.95 153.44C339.95 153.4 339.95 153.37 339.95 153.35C339.96 153.3 339.98 153.24 339.99 153.2C340.06 152.81 340.15 152.42 340.24 152.04C340.35 151.59 340.49 151.15 340.64 150.71C340.69 150.56 340.75 150.42 340.8 150.27C341.21 149.55 341.56 148.82 342.03 148.13C342.13 147.99 342.23 147.85 342.33 147.71C342.64 147.23 342.06 148.07 342.06 148.04C342.11 147.74 342.72 147.27 342.94 147.03C343.02 146.95 343.62 146.34 344.01 145.98C343.88 146.06 343.83 146.09 344.05 145.94C344.22 145.79 344.35 145.68 344.36 145.7C344.36 145.7 344.35 145.73 344.31 145.75C344.37 145.71 344.43 145.66 344.5 145.62C344.8 145.41 345.12 145.22 345.43 145.04C345.78 144.84 346.15 144.66 346.51 144.48C346.55 144.47 346.58 144.46 346.62 144.44C347.35 144.2 348.08 143.98 348.83 143.84C348.86 143.84 348.9 143.83 348.93 143.82C349.31 143.82 349.69 143.76 350.07 143.76C350.42 143.76 350.78 143.76 351.13 143.78C351.21 143.78 351.28 143.79 351.36 143.8C351.79 144.09 352.91 144.12 353.41 144.28C353.51 144.31 353.62 144.35 353.72 144.39C353.9 144.53 354.53 144.75 354.67 144.82C355.05 145.02 355.42 145.24 355.77 145.47C355.91 145.56 356.04 145.65 356.17 145.74C356.37 145.87 356.42 145.89 356.41 145.86C356.64 146.07 356.86 146.33 356.96 146.42C357.29 146.74 357.61 147.07 357.92 147.41C358.01 147.52 358.12 147.68 358.24 147.84C358.27 147.84 358.35 147.89 358.46 148.06C358.48 148.09 358.5 148.12 358.52 148.15C358.55 148.18 358.58 148.21 358.61 148.23C358.58 148.21 358.56 148.2 358.54 148.18C358.61 148.28 358.68 148.39 358.75 148.49C359.19 149.16 359.53 149.86 359.91 150.57C359.91 150.59 359.93 150.61 359.94 150.63C360.06 150.94 360.16 151.26 360.26 151.58C360.46 152.24 360.58 152.9 360.73 153.56C360.74 153.67 360.76 153.77 360.76 153.79C360.78 154.17 360.81 154.55 360.81 154.93C360.81 155.25 360.81 155.58 360.79 155.9L360.8 155.91Z" fill="#222222"/>
<path d="M206.44 31.61C206.44 31.61 206.53 31.62 206.57 31.63C206.55 31.63 206.52 31.63 206.5 31.63C206.48 31.63 206.46 31.63 206.44 31.63V31.61Z" fill="#222222"/>
<path d="M175.62 90.92H162.38C160.43 90.92 158.85 92.5 158.85 94.45C158.85 96.4 160.43 97.98 162.38 97.98H175.62C177.57 97.98 179.15 96.4 179.15 94.45C179.15 92.5 177.57 90.92 175.62 90.92Z" fill="#222222"/>
<path d="M247.38 91.89H234.14C232.19 91.89 230.61 93.47 230.61 95.42C230.61 97.37 232.19 98.95 234.14 98.95H247.38C249.33 98.95 250.91 97.37 250.91 95.42C250.91 93.47 249.33 91.89 247.38 91.89Z" fill="#222222"/>
</svg>
