<svg width="125" height="90" viewBox="0 0 125 90" fill="none" xmlns="http://www.w3.org/2000/svg">
<rect x="0.5" y="0.5" width="124" height="89" rx="9.5" stroke="#C0BEBE"/>
<path d="M38.544 25.5313C38.2209 25.6098 37.902 25.7459 37.6238 25.9297C37.3049 26.1401 37.0492 26.3927 36.8189 26.6957C36.7416 26.7967 36.7332 26.9847 36.7655 27.1012C36.7992 27.2233 36.8933 27.3551 37.0071 27.4155C37.1293 27.48 37.2768 27.5123 37.4131 27.4688C37.4552 27.4505 37.4974 27.4337 37.5395 27.4155C37.5859 27.3874 37.6266 27.3523 37.6618 27.313C37.784 27.1559 37.9245 27.017 38.079 26.8922C38.2111 26.7982 38.3515 26.7168 38.499 26.6494C38.6044 26.6087 38.7126 26.5723 38.8236 26.5456C39.0919 26.4811 39.2773 26.1626 39.1916 25.8988C39.1017 25.621 38.8306 25.4611 38.544 25.5313Z" fill="#222222"/>
<path d="M90.415 37.7317C90.2801 37.7008 90.1284 37.7078 90.009 37.785C89.8924 37.8593 89.8053 37.9646 89.7673 38.0992L89.5004 39.0322C89.4625 39.1627 89.485 39.3212 89.5538 39.4377C89.6184 39.5471 89.7435 39.651 89.8685 39.679C90.0033 39.7099 90.1551 39.7029 90.2745 39.6257C90.3911 39.5513 90.4782 39.4461 90.5161 39.3114C90.6046 39 90.6945 38.6885 90.783 38.3784C90.821 38.248 90.7985 38.0894 90.7297 37.973C90.665 37.8635 90.54 37.7597 90.415 37.7317Z" fill="#222222"/>
<path d="M47.4451 38.5201C47.4324 38.5496 47.4535 38.6197 47.4563 38.5973C47.4535 38.5777 47.4465 38.544 47.4465 38.5258C47.4465 38.5243 47.4465 38.5215 47.4465 38.5201H47.4451Z" fill="#222222"/>
<path d="M43.1294 44.3692C43.1505 44.3664 43.1828 44.3594 43.2025 44.3594C43.2025 44.3594 43.2053 44.3594 43.2067 44.3594C43.135 44.344 43.0985 44.3678 43.1308 44.3692H43.1294Z" fill="#222222"/>
<path d="M43.0999 33.9632C43.0901 33.9632 43.0816 33.9632 43.0718 33.9632C43.1041 33.9702 43.1097 33.9674 43.0999 33.9632Z" fill="#222222"/>
<path d="M43.5593 38.1848C43.5593 38.1848 43.5649 38.2087 43.6014 38.2325C43.6014 38.2311 43.6 38.2297 43.5986 38.2283C43.586 38.2171 43.5719 38.2017 43.5593 38.1848Z" fill="#222222"/>
<path d="M43.6225 40.1181C43.6408 40.0929 43.652 40.0564 43.6225 40.1181V40.1181Z" fill="#222222"/>
<path d="M45.1749 37.1326C44.4205 36.3104 43.1912 35.9709 42.1376 36.3848C40.9378 36.8548 40.1343 38.0866 40.2467 39.3858C40.352 40.6162 41.1837 41.667 42.3862 42.0024C43.5874 42.3377 44.8265 41.8228 45.5148 40.8056C45.859 40.2963 46.0346 39.6327 45.9854 39.021C45.9293 38.3055 45.6497 37.6713 45.1763 37.1326H45.1749ZM43.9498 37.8902C43.933 37.8776 43.9119 37.8635 43.9035 37.8621C43.9147 37.8621 43.9316 37.8748 43.9498 37.8902ZM43.6295 37.7134C43.7138 37.7415 43.6295 37.7204 43.5958 37.7022C43.607 37.7064 43.6183 37.7106 43.6295 37.7134ZM43.2896 37.6194C43.4132 37.6278 43.2994 37.6377 43.2601 37.6166C43.2699 37.6166 43.2797 37.618 43.2896 37.6194ZM41.556 37.9225C41.556 37.9225 41.5602 37.9183 41.5616 37.9169C41.5644 37.914 41.5658 37.914 41.57 37.9112C41.5799 37.9042 41.5897 37.8986 41.5995 37.8916C41.5897 37.9 41.57 37.914 41.556 37.9225ZM41.6501 39.3998C41.6543 39.4209 41.6571 39.4419 41.6571 39.4405C41.6529 39.4363 41.6515 39.418 41.6501 39.3998ZM41.9297 40.0873C41.9297 40.0873 41.9381 40.0971 41.9479 40.1097C41.9367 40.0971 41.9283 40.0873 41.9297 40.0873ZM44.4556 39.8389C44.4556 39.8389 44.4584 39.8305 44.464 39.8193C44.4598 39.8305 44.4556 39.8403 44.4556 39.8389ZM44.5792 39.3844C44.5722 39.5135 44.5609 39.4012 44.5792 39.3647C44.5792 39.3717 44.5792 39.3788 44.5792 39.3844ZM44.5834 39.317C44.5834 39.3325 44.582 39.3493 44.5806 39.3647C44.5525 39.4082 44.5413 39.578 44.5286 39.6229C44.5146 39.6748 44.4963 39.7239 44.4795 39.7744C44.4795 39.7758 44.4752 39.787 44.471 39.7997C44.4261 39.8881 44.3811 39.975 44.3263 40.0592C44.3095 40.0845 44.2448 40.2107 44.287 40.1224C44.287 40.1224 44.287 40.1209 44.2884 40.1195C44.287 40.1209 44.2856 40.1238 44.2842 40.1252C44.2575 40.1546 44.2322 40.1855 44.2055 40.2149C44.1451 40.2809 44.0777 40.3384 44.0116 40.4001C43.9934 40.4142 43.9723 40.4324 43.9597 40.4408C43.9133 40.4731 43.8641 40.5026 43.815 40.532C43.7672 40.5587 43.718 40.5839 43.6689 40.6078C43.6661 40.6078 43.6646 40.6078 43.6618 40.6092C43.5607 40.6415 43.4609 40.6723 43.357 40.6934C43.3331 40.6864 43.2488 40.7032 43.2291 40.7046C43.1772 40.706 43.1252 40.706 43.0732 40.7046C43.0423 40.7046 42.965 40.685 42.9299 40.692C42.8793 40.6821 42.8288 40.6709 42.7796 40.6569C42.7375 40.6457 42.6939 40.633 42.6518 40.619C42.6307 40.612 42.6096 40.6036 42.5885 40.5966C42.5169 40.5615 42.4452 40.5278 42.3778 40.4871C42.3329 40.4605 42.2893 40.4324 42.2472 40.403C42.2401 40.3973 42.2331 40.3931 42.2261 40.3875C42.1587 40.3202 42.0842 40.2612 42.0196 40.1911C42.0154 40.1855 41.9802 40.1476 41.9564 40.1195C41.9395 40.0957 41.9226 40.0732 41.9072 40.0494C41.8566 39.9736 41.8117 39.8937 41.7709 39.8123C41.7653 39.8011 41.7597 39.7912 41.7541 39.78C41.7541 39.7758 41.7541 39.773 41.7513 39.7688C41.7358 39.7071 41.7105 39.6467 41.6937 39.5836C41.6768 39.5205 41.667 39.4573 41.6529 39.3942C41.6529 39.3914 41.6529 39.39 41.6515 39.3872C41.6515 39.3746 41.6515 39.3647 41.6515 39.3605C41.6417 39.23 41.6529 39.1024 41.6543 38.9719C41.6543 38.9663 41.6543 38.9621 41.6543 38.9593C41.6557 38.9523 41.6585 38.9438 41.6599 38.9382C41.6698 38.8835 41.6824 38.8288 41.6951 38.7755C41.7105 38.7123 41.7302 38.6506 41.7513 38.5889C41.7583 38.5678 41.7667 38.5482 41.7737 38.5271C41.8313 38.4261 41.8805 38.3237 41.9451 38.2269C41.9592 38.2073 41.9732 38.1876 41.9873 38.168C42.0308 38.1006 41.9493 38.2185 41.9493 38.2143C41.9564 38.1722 42.0421 38.1063 42.073 38.0726C42.0842 38.0614 42.1685 37.9758 42.2247 37.9253C42.2064 37.9365 42.1994 37.9407 42.2303 37.9197C42.2542 37.8986 42.2724 37.8832 42.2739 37.886C42.2739 37.886 42.2725 37.8902 42.2668 37.893C42.2753 37.8874 42.2837 37.8804 42.2935 37.8748C42.3357 37.8453 42.3806 37.8186 42.4256 37.7934C42.4747 37.7653 42.5267 37.7401 42.5773 37.7148C42.5829 37.7134 42.5871 37.712 42.5928 37.7092C42.6953 37.6755 42.7979 37.6447 42.9032 37.625C42.9074 37.625 42.9131 37.6236 42.9173 37.6222C42.9693 37.6222 43.024 37.6138 43.0774 37.6138C43.1266 37.6138 43.1772 37.6138 43.2263 37.6166C43.2376 37.6166 43.2474 37.618 43.2586 37.6194C43.3191 37.6601 43.4764 37.6643 43.5466 37.6868C43.5607 37.691 43.5761 37.6966 43.5902 37.7022C43.6155 37.7218 43.704 37.7527 43.7237 37.7625C43.777 37.7906 43.829 37.8214 43.8796 37.8537C43.8993 37.8663 43.9175 37.879 43.9358 37.8916C43.9639 37.9098 43.9709 37.9126 43.9695 37.9084C44.0018 37.9379 44.0327 37.9744 44.0468 37.987C44.0931 38.0319 44.1381 38.0782 44.1816 38.1259C44.1943 38.1413 44.2097 38.1638 44.2266 38.1862C44.2308 38.1862 44.242 38.1932 44.2575 38.2171C44.2603 38.2213 44.2631 38.2255 44.2659 38.2297C44.2701 38.2339 44.2744 38.2381 44.2786 38.2409C44.2744 38.2381 44.2715 38.2367 44.2687 38.2339C44.2786 38.248 44.2884 38.2634 44.2982 38.2774C44.36 38.3714 44.4078 38.4696 44.4612 38.5692C44.4612 38.572 44.464 38.5749 44.4654 38.5777C44.4823 38.6212 44.4963 38.666 44.5104 38.7109C44.5385 38.8035 44.5553 38.8961 44.5764 38.9887C44.5778 39.0042 44.5806 39.0182 44.5806 39.021C44.5834 39.0743 44.5876 39.1276 44.5876 39.1809C44.5876 39.2258 44.5876 39.2721 44.5848 39.317H44.5834Z" fill="#222222"/>
<path d="M88.2122 33.7738C88.2248 33.7907 88.2361 33.8103 88.2122 33.7738V33.7738Z" fill="#222222"/>
<path d="M87.9214 32.8394C87.9256 32.8128 87.9326 32.7805 87.9214 32.8394V32.8394Z" fill="#222222"/>
<path d="M93.9833 37.2504C93.9833 37.2504 93.9734 37.2504 93.9692 37.2504C93.9861 35.3101 93.9032 31.3046 92.9676 30.2607C92.9676 30.2607 92.4028 27.9767 84.4837 25.9451C83.5214 25.7501 82.5408 25.701 81.5603 25.6772C80.5909 25.6547 79.6061 25.6603 78.6522 25.4723C77.7728 25.2984 77.0156 24.942 76.2696 24.4552C75.5911 24.0104 74.9968 23.5446 74.3857 23.0648C73.1874 22.122 71.9877 21.1792 70.7514 20.2869C70.0827 19.8042 69.3775 19.41 68.5936 19.1448C67.4374 18.7548 61.4429 18.47 60.2348 18.3465C58.2624 18.1459 56.2703 18.007 54.2867 18C54.2642 18 54.2417 18 54.2192 18C54.2192 18.0014 54.2192 18.0042 54.2192 18.0056C38.9964 18.2483 38.6887 19.3006 38.6887 19.3006C34.8394 20.74 31.1602 26.7084 31.1602 26.7084L31 29.1496C31 29.6069 31.0618 30.0685 31.0997 30.5203L31.2487 32.3161C31.3428 33.4567 31.4257 34.5988 31.5367 35.738C31.6364 36.7692 31.7727 37.8172 32.1604 38.7853C32.7013 40.1336 33.6439 41.2181 35.0614 41.6544C35.7442 41.8649 36.4705 41.935 37.1869 41.9561C37.4665 42.5874 37.8444 43.1767 38.322 43.7C39.1593 44.6203 40.2818 45.298 41.4829 45.6249C42.6953 45.9546 44.0285 45.9335 45.2128 45.5C46.5347 45.0174 47.6586 44.1125 48.4383 42.9438C48.6434 42.6365 48.8162 42.3138 48.9623 41.9813C51.5613 41.9813 54.1602 41.9827 56.7592 41.9813C59.5548 41.9813 67.1016 42.1286 69.8973 42.1174C71.3288 42.1118 72.7603 42.1048 74.1919 42.095C74.4714 42.7305 74.8521 43.3212 75.3312 43.8487C76.1685 44.7691 77.2909 45.4467 78.4921 45.7736C79.7045 46.1033 81.0377 46.0823 82.2219 45.6487C83.5439 45.1661 84.6678 44.2612 85.4474 43.0925C85.6596 42.774 85.8394 42.4387 85.9883 42.0908C87.6179 42.0908 89.2476 42.0908 90.8772 42.0908C91.1511 42.0908 91.4293 42.1048 91.7032 42.0908C92.3817 42.0571 92.9648 41.2686 93.2682 40.7242C93.8442 39.693 94.069 38.4514 93.9819 37.2476L93.9833 37.2504ZM92.7035 34.0362L92.6304 33.6307C92.6121 33.6349 92.5995 33.6391 92.6023 33.6405C92.5461 33.6461 92.4899 33.6476 92.4351 33.6462C92.4056 33.6462 92.3747 33.6433 92.3452 33.6405C92.3382 33.6405 92.3298 33.6377 92.3185 33.6363C92.2511 33.6209 92.1851 33.6069 92.1204 33.5858C92.098 33.5788 92.0755 33.5704 92.053 33.562C92.0488 33.5592 92.0348 33.5536 92.0081 33.5409C91.9561 33.5115 91.9041 33.4848 91.8535 33.4539C91.4236 33.1804 91.1314 32.6641 90.842 32.173C90.6833 31.9036 90.5428 31.689 90.4979 31.3929C90.4979 31.3915 90.4979 31.3733 90.4936 31.3326C90.4936 31.2961 90.4936 31.2597 90.495 31.2232C90.4979 31.2274 90.5231 31.1039 90.5274 31.0857C90.5372 31.052 90.6229 30.9033 90.6482 30.8752C90.6833 30.836 90.717 30.7981 90.7549 30.7616C90.7802 30.7378 90.8055 30.7139 90.8322 30.6915C90.7929 30.7209 90.7985 30.7167 90.8491 30.6788C90.9488 30.6101 91.1146 30.5175 91.1848 30.488C91.3534 30.4165 91.5318 30.3674 91.7116 30.3267C92.3663 31.341 92.6234 32.7538 92.7021 34.0404L92.7035 34.0362ZM42.4972 44.4071C42.4087 44.3973 42.4705 44.4029 42.5169 44.4085C42.5099 44.4085 42.5042 44.4085 42.4972 44.4071ZM44.9768 44.0956C44.9768 44.0956 45.0147 44.083 45.0386 44.0732C45.0147 44.0858 44.9908 44.0984 44.9768 44.0956ZM48.1025 39.7141C48.0983 39.7758 48.0941 39.8361 48.0871 39.8965C48.0829 39.9344 48.0787 39.9722 48.0744 40.0101C48.0744 40.0101 48.0744 40.0101 48.0744 40.0115C48.0197 40.2879 47.9733 40.5629 47.8918 40.8337C47.8722 40.8996 47.8483 40.9641 47.8258 41.0287C47.8174 41.0497 47.8103 41.0708 47.8047 41.0918C47.7921 41.1283 47.7808 41.1662 47.7668 41.2041C47.7598 41.2237 47.7457 41.2826 47.7275 41.3303C47.7289 41.3191 47.7232 41.3205 47.7064 41.357C47.6867 41.3991 47.6684 41.4412 47.6488 41.4833C47.5266 41.7428 47.3847 41.9939 47.2245 42.2339C47.1852 42.2928 47.1444 42.3503 47.1037 42.4078C47.0854 42.4331 47.0658 42.4583 47.0475 42.4836C46.9843 42.5706 47.0419 42.4962 47.0644 42.4653C46.9913 42.593 46.8593 42.7123 46.7609 42.8189C46.5614 43.035 46.3451 43.2356 46.1161 43.4208C46.1091 43.4264 46.0121 43.4993 46.043 43.4769C46.0304 43.4853 46.0206 43.4923 46.0192 43.4937C45.9658 43.533 45.911 43.5709 45.8562 43.6074C45.7284 43.6944 45.5963 43.7743 45.4628 43.8501C45.3378 43.9202 45.2114 43.9848 45.0807 44.0451C45.0723 44.0493 45.0597 44.0563 45.047 44.0634C45.04 44.0662 45.0287 44.0704 45.0119 44.0774C44.9402 44.1054 44.8672 44.1335 44.7941 44.1602C44.5357 44.2528 44.2701 44.3243 44.0004 44.3762C43.9414 44.3874 43.8838 44.3959 43.8248 44.4057C43.8262 44.4057 43.829 44.4057 43.8304 44.4057C43.8276 44.4057 43.8248 44.4057 43.8206 44.4057C43.8065 44.4085 43.7911 44.4113 43.777 44.4127C43.763 44.4155 43.7546 44.4155 43.7475 44.4141C43.7447 44.4141 43.7419 44.4141 43.7405 44.4141C43.5916 44.4295 43.4427 44.4394 43.2938 44.4422C43.0381 44.4478 42.7838 44.4323 42.5295 44.4057C42.5014 44.3987 42.4663 44.3973 42.4396 44.3931C42.3736 44.3818 42.309 44.3706 42.2429 44.358C42.1053 44.3299 41.969 44.2977 41.8327 44.2598C41.7119 44.2261 41.5911 44.1896 41.4731 44.1475C41.4029 44.1237 41.334 44.0984 41.2652 44.0704C41.2399 44.0605 41.2146 44.0507 41.1907 44.0409C41.1907 44.0409 41.1893 44.0409 41.1879 44.0395C40.9449 43.9273 40.7075 43.808 40.4799 43.6691C40.3661 43.599 40.2537 43.526 40.1455 43.4488C40.0978 43.4152 40.0528 43.3801 40.0064 43.3464C39.9769 43.3212 39.946 43.2973 39.9165 43.2735C39.7044 43.0967 39.5035 42.9059 39.3181 42.701C39.2886 42.6688 39.0413 42.4134 39.0554 42.3924C39.0554 42.3924 39.1607 42.5341 39.0821 42.4275C39.0638 42.4036 39.0455 42.3798 39.0287 42.3545C38.9837 42.2928 38.9402 42.2311 38.8994 42.1693C38.7379 41.9294 38.5946 41.6755 38.4724 41.4131C38.4611 41.3893 38.4274 41.3107 38.4204 41.2953C38.3965 41.2349 38.3726 41.1746 38.3501 41.1143C38.2897 40.9473 38.2363 40.7761 38.1914 40.6036C38.1492 40.4394 38.1141 40.2739 38.0846 40.1083C38.079 40.0718 38.072 40.034 38.0664 39.9975C38.0635 39.9778 38.0607 39.9652 38.0593 39.9568C38.0467 39.8754 38.0439 39.7884 38.0383 39.7085C38.013 39.3605 38.0172 39.0112 38.0509 38.6632C38.0551 38.6254 38.0593 38.5889 38.0621 38.551C38.0649 38.5286 38.0649 38.5145 38.0664 38.5061C38.0748 38.443 38.0874 38.3798 38.0987 38.3181C38.131 38.1413 38.1703 37.9674 38.2167 37.7948C38.2616 37.632 38.3122 37.4693 38.3698 37.3108C38.3951 37.2406 38.4232 37.1705 38.4499 37.1003C38.4499 37.0975 38.4513 37.0947 38.4527 37.0919C38.4527 37.0905 38.4541 37.0891 38.4555 37.0863C38.4794 37.0358 38.5019 36.9839 38.5257 36.9334C38.6676 36.6359 38.8348 36.3497 39.0245 36.0789C39.061 36.0256 39.1003 35.9737 39.1382 35.9218C39.1397 35.9204 39.1411 35.919 39.1425 35.9162C39.1635 35.8895 39.1846 35.8629 39.2057 35.8376C39.2956 35.7282 39.3883 35.623 39.4866 35.5191C39.6777 35.3171 39.8856 35.1361 40.0992 34.9593C40.123 34.9425 40.1455 34.9243 40.1694 34.9074C40.2242 34.8682 40.279 34.8303 40.3352 34.7924C40.4518 34.7138 40.5726 34.6409 40.6948 34.5721C40.81 34.5076 40.9266 34.4473 41.046 34.3911C41.0699 34.3799 41.1008 34.3701 41.1317 34.3589C41.1373 34.3519 41.1514 34.3406 41.1781 34.3308C41.1851 34.328 41.1935 34.3252 41.2006 34.3224C41.2006 34.3224 41.2034 34.321 41.2048 34.3196C41.2048 34.3196 41.2034 34.321 41.202 34.3224C41.2272 34.3126 41.2525 34.3013 41.2792 34.2929C41.5349 34.1961 41.799 34.1176 42.0659 34.06C42.1811 34.0348 42.2963 34.0193 42.4115 33.9969C42.4326 33.9941 42.4523 33.9927 42.4733 33.9899C42.545 33.9829 42.6152 33.9759 42.6869 33.9716C42.8147 33.9632 42.9426 33.9604 43.0704 33.9604C43.0564 33.9576 43.0367 33.952 43.01 33.945C43.0156 33.945 43.0212 33.945 43.0268 33.9464C43.0437 33.9492 43.0606 33.9506 43.0774 33.9534C43.0873 33.9562 43.0943 33.9576 43.0999 33.9604C43.2277 33.9618 43.3556 33.9674 43.4834 33.9773C43.5326 33.9815 43.5832 33.9871 43.6323 33.9927C43.6267 33.9913 43.6239 33.9899 43.6169 33.9885C43.6267 33.9913 43.638 33.9927 43.6478 33.9941C43.6562 33.9941 43.6661 33.9955 43.6745 33.9969C43.6829 33.9969 43.6913 33.9997 43.6984 34.0011C43.6984 34.0011 43.7012 34.0011 43.7026 34.0011C43.8459 34.0236 43.9878 34.0516 44.1268 34.0867C44.3713 34.1456 44.6073 34.2242 44.8419 34.314C44.8658 34.3308 44.9107 34.342 44.9332 34.3519C44.9936 34.3799 45.054 34.408 45.1144 34.4374C45.2423 34.5006 45.3673 34.5693 45.4895 34.6423C45.6005 34.7082 45.7101 34.7798 45.8155 34.8527C45.8618 34.885 45.9728 34.9411 46.0023 34.9888C45.9967 34.979 45.8717 34.885 45.9714 34.965C46.0079 34.9944 46.0445 35.0239 46.081 35.0534C46.3029 35.2385 46.5095 35.4406 46.7033 35.6552C46.7595 35.7184 46.8157 35.7815 46.8691 35.8474C46.9042 35.8895 47.004 36.0509 46.9155 35.9022C46.9941 36.0354 47.1023 36.1561 47.188 36.2866C47.3524 36.5363 47.4985 36.7987 47.6263 37.0694C47.6404 37.0989 47.653 37.127 47.6656 37.1564C47.667 37.1606 47.6783 37.1845 47.6881 37.2055C47.6923 37.2154 47.6965 37.2238 47.6979 37.2294C47.712 37.2659 47.7274 37.3023 47.7415 37.3402C47.7921 37.4721 47.837 37.6068 47.8778 37.7429C47.9592 38.0123 48.0168 38.2858 48.0632 38.5636C48.0632 38.5636 48.0632 38.5608 48.0646 38.5594C48.0646 38.5594 48.0646 38.565 48.0646 38.5706C48.0674 38.5833 48.0688 38.5959 48.0716 38.6085C48.0744 38.6268 48.0744 38.6366 48.0744 38.6422C48.0744 38.645 48.0744 38.6506 48.0759 38.652C48.0829 38.7208 48.0899 38.7895 48.0955 38.8597C48.1068 39.0056 48.1124 39.1515 48.1124 39.2974C48.1124 39.4349 48.1082 39.5738 48.0997 39.7113L48.1025 39.7141ZM40.5108 34.3154C40.5375 34.3056 40.5628 34.2929 40.5796 34.2789C40.5796 34.2789 40.5796 34.2789 40.581 34.2789C40.5262 34.3294 40.4981 34.3308 40.5094 34.3168L40.5108 34.3154ZM44.8588 34.3224C44.8588 34.3224 44.8714 34.3266 44.8784 34.3294C44.9641 34.3631 44.8995 34.3392 44.8588 34.3224ZM54.7067 40.4563C54.7067 40.4563 52.8734 33.4974 52.0206 26.9062C52.0206 26.9062 57.8451 27.48 61.0088 27.48L61.0341 40.6485L54.7067 40.4577V40.4563ZM60.4764 22.4012C60.4975 22.404 60.5185 22.4068 60.5396 22.4096C60.6098 22.418 60.5916 22.4166 60.5494 22.4096C60.5593 22.411 60.5705 22.4124 60.5803 22.4138C60.6506 22.4236 60.7222 22.4349 60.7925 22.4461C60.8079 22.4489 60.9035 22.4545 61.0552 22.4615L60.9611 26.0616C60.1687 26.0405 59.4832 26.0209 58.9732 26.0027C57.4335 25.9507 55.8938 25.8708 54.3569 25.7501C53.6475 25.694 52.9394 25.6295 52.2314 25.5551C52.3887 24.4552 52.5475 23.3552 52.7048 22.2553C52.9858 22.244 53.2667 22.2328 53.5477 22.2244C55.1773 22.1767 56.8112 22.1725 58.4394 22.244C59.1362 22.2749 59.833 22.3184 60.5256 22.4054C60.527 22.4054 60.5284 22.4054 60.5298 22.4054C60.5129 22.4026 60.4932 22.3998 60.4764 22.3984V22.4012ZM68.4685 23.7859C68.9659 24.0904 69.4435 24.4257 69.9085 24.7764C69.9535 24.8101 69.9998 24.8452 70.0448 24.8803C70.0307 24.8704 70.1038 24.9252 70.1305 24.9462C70.2513 25.0402 70.3707 25.1356 70.4901 25.2324C70.7191 25.4176 70.9467 25.6056 71.1715 25.7964C71.3527 25.9493 71.5325 26.1051 71.7109 26.2622C69.8003 26.2622 65.4453 26.1766 62.1538 26.0953L62.1355 22.5092C63.6246 22.5681 65.8274 22.6523 65.9089 22.6706C66.0691 22.7056 66.2264 22.7491 66.3823 22.7968C66.5032 22.8347 66.624 22.8754 66.7434 22.9189C66.8038 22.9413 66.8642 22.9638 66.9232 22.9876C66.971 23.0059 67.1564 23.0746 67.0131 23.0227C67.5203 23.2051 68.0092 23.5067 68.4671 23.7873L68.4685 23.7859ZM68.4236 40.7298L69.0052 40.1125C69.2271 39.8768 69.2117 39.5092 68.9701 39.2932C68.9701 38.9859 68.5936 38.8358 68.3814 39.0603L66.8164 40.7214L65.8092 40.7158L67.894 38.5033C68.1286 38.2536 68.0977 37.8579 67.8139 37.6475C67.5652 37.4623 67.2112 37.5128 66.9977 37.7387L64.2006 40.7074L63.5108 40.7032L64.9522 39.1725C65.1868 38.9228 65.1559 38.5257 64.8721 38.3167C64.6235 38.1315 64.2695 38.182 64.0559 38.4079L62.1313 40.4507L62.2043 27.48C62.2043 27.48 68.2522 27.661 72.7547 27.5179C72.7547 27.5179 70.4016 36.4928 70.646 40.7439L68.4194 40.7313L68.4236 40.7298ZM79.5064 44.5586C79.4179 44.5488 79.4797 44.5544 79.526 44.56C79.519 44.56 79.5134 44.56 79.5064 44.5586ZM81.9845 44.2471C81.9845 44.2471 82.0224 44.2345 82.0463 44.2247C82.0224 44.2373 81.9986 44.25 81.9845 44.2471ZM85.1103 39.8656C85.1061 39.9273 85.1019 39.9877 85.0948 40.048C85.0906 40.0859 85.0864 40.1238 85.0822 40.1616C85.0822 40.1616 85.0822 40.1616 85.0822 40.163C85.0274 40.4394 84.981 40.7144 84.8996 40.9852C84.8616 41.1101 84.8209 41.2335 84.7745 41.3556C84.7675 41.3752 84.7535 41.4342 84.7352 41.4819C84.7366 41.4706 84.731 41.472 84.7141 41.5085C84.6945 41.5506 84.6762 41.5927 84.6565 41.6348C84.5343 41.8943 84.3924 42.1455 84.2323 42.3854C84.1929 42.4443 84.1522 42.5018 84.1114 42.5593C84.0932 42.5846 84.0735 42.6099 84.0552 42.6351C83.992 42.7221 84.0496 42.6477 84.0721 42.6169C83.9991 42.7445 83.867 42.8638 83.7687 42.9704C83.5692 43.1865 83.3528 43.3871 83.1238 43.5723C83.1168 43.5779 83.0185 43.6509 83.0508 43.6284C83.0381 43.6368 83.0283 43.6439 83.0269 43.6453C82.9735 43.6845 82.9187 43.7224 82.8639 43.7589C82.7361 43.8459 82.604 43.9259 82.4706 44.0016C82.3456 44.0718 82.2191 44.1363 82.0885 44.1966C82.08 44.2008 82.0674 44.2079 82.0548 44.2149C82.0477 44.2177 82.0365 44.2219 82.0196 44.2289C81.948 44.257 81.8749 44.285 81.8019 44.3117C81.5434 44.4043 81.2779 44.4758 81.0082 44.5277C80.9492 44.539 80.8916 44.5474 80.8326 44.5572C80.834 44.5572 80.8368 44.5572 80.8382 44.5572C80.8354 44.5572 80.8325 44.5572 80.8283 44.5572C80.8143 44.56 80.7988 44.5628 80.7848 44.5642C80.7707 44.567 80.7623 44.567 80.7553 44.5656C80.7525 44.5656 80.7497 44.5656 80.7483 44.5656C80.5993 44.5811 80.4504 44.5909 80.3015 44.5937C80.0458 44.5993 79.7916 44.5839 79.5373 44.5572C79.5092 44.5502 79.4741 44.5488 79.4474 44.5446C79.3813 44.5334 79.3167 44.5221 79.2507 44.5095C79.113 44.4814 78.9767 44.4492 78.8405 44.4113C78.7197 44.3776 78.5988 44.3411 78.4808 44.2991C78.4106 44.2752 78.3418 44.25 78.2729 44.2219C78.2476 44.2121 78.2224 44.2022 78.1985 44.1924C78.1985 44.1924 78.1971 44.1924 78.1957 44.191C77.9526 44.0788 77.7152 43.9595 77.4876 43.8206C77.3738 43.7505 77.2614 43.6775 77.1533 43.6004C77.1055 43.5667 77.0605 43.5316 77.0142 43.4979C76.9847 43.4727 76.9538 43.4488 76.9243 43.425C76.7121 43.2482 76.5113 43.0574 76.3258 42.8526C76.2963 42.8203 76.0491 42.565 76.0631 42.5439C76.0631 42.5439 76.1685 42.6856 76.0898 42.579C76.0715 42.5551 76.0533 42.5313 76.0364 42.506C75.9915 42.4443 75.9493 42.3826 75.9072 42.3208C75.7456 42.0809 75.6023 41.827 75.4801 41.5646C75.4689 41.5408 75.4351 41.4622 75.4281 41.4468C75.4042 41.3864 75.3804 41.3261 75.3579 41.2658C75.2975 41.0988 75.2441 40.9277 75.1991 40.7551C75.157 40.591 75.1219 40.4254 75.0924 40.2598C75.0867 40.2234 75.0811 40.1855 75.0741 40.149C75.0713 40.1294 75.0685 40.1167 75.0671 40.1083C75.0544 40.027 75.0516 39.94 75.046 39.86C75.0207 39.5121 75.0249 39.1627 75.0586 38.8148C75.0629 38.7769 75.0671 38.7404 75.0699 38.7025C75.0727 38.6801 75.0727 38.6675 75.0741 38.6576C75.0825 38.5945 75.0952 38.53 75.1064 38.4696C75.1387 38.2929 75.1781 38.1189 75.2244 37.9463C75.2694 37.7836 75.3199 37.6208 75.3775 37.4623C75.4028 37.3921 75.4309 37.322 75.4576 37.2518C75.4576 37.249 75.459 37.2462 75.4604 37.2434C75.4604 37.242 75.4618 37.2406 75.4632 37.2378C75.4871 37.1873 75.5096 37.1354 75.5335 37.0849C75.6754 36.7874 75.8425 36.5012 76.0322 36.2305C76.0687 36.1771 76.1081 36.1252 76.146 36.0733C76.1474 36.0719 76.1488 36.0705 76.1502 36.0677C76.1713 36.0411 76.1924 36.0144 76.2134 35.9891C76.3033 35.8797 76.3961 35.7745 76.4944 35.6707C76.6855 35.4686 76.8934 35.2877 77.1069 35.1109C77.1308 35.094 77.1533 35.0758 77.1771 35.059C77.2319 35.0197 77.2867 34.9818 77.3429 34.9439C77.4595 34.8653 77.5803 34.7924 77.7026 34.7236C77.8178 34.6591 77.9344 34.5988 78.0538 34.5427C78.0777 34.5314 78.1086 34.5216 78.1395 34.5104C78.1451 34.5034 78.1591 34.4922 78.1858 34.4823C78.1928 34.4795 78.2013 34.4767 78.2083 34.4739C78.2083 34.4739 78.2111 34.4725 78.2125 34.4711C78.2125 34.4711 78.2111 34.4725 78.2097 34.4739C78.235 34.4641 78.2603 34.4529 78.287 34.4445C78.5426 34.3476 78.8068 34.2691 79.0737 34.2116C79.1889 34.1863 79.3041 34.1709 79.4193 34.1484C79.4403 34.1456 79.46 34.1442 79.4811 34.1414C79.5527 34.1344 79.623 34.1274 79.6946 34.1232C79.8225 34.1147 79.9503 34.1119 80.0781 34.1119C80.0641 34.1091 80.0444 34.1035 80.0163 34.0965C80.0219 34.0965 80.0276 34.0965 80.0332 34.0979C80.0501 34.1007 80.0669 34.1021 80.0838 34.1049C80.0936 34.1077 80.1006 34.1091 80.1062 34.1119C80.2341 34.1133 80.3619 34.119 80.4898 34.1288C80.5403 34.133 80.5895 34.1386 80.6387 34.1442C80.6331 34.1428 80.6302 34.1414 80.6232 34.14C80.6331 34.1428 80.6443 34.1442 80.6541 34.1456C80.6626 34.1456 80.6724 34.147 80.6808 34.1484C80.6893 34.1484 80.6977 34.1512 80.7047 34.1526C80.7047 34.1526 80.7075 34.1526 80.7089 34.1526C80.8522 34.1751 80.9941 34.2031 81.1332 34.2382C81.3776 34.2971 81.6136 34.3757 81.8482 34.4655C81.8721 34.4823 81.9171 34.4936 81.9396 34.5034C82 34.5314 82.0604 34.5595 82.1208 34.589C82.2486 34.6521 82.3737 34.7208 82.4959 34.7938C82.6069 34.8597 82.7164 34.9313 82.8218 35.0042C82.8682 35.0365 82.9791 35.0926 83.0086 35.1403C83.003 35.1305 82.878 35.0365 82.9777 35.1165C83.0143 35.1459 83.0508 35.1754 83.0873 35.2049C83.3093 35.3901 83.5158 35.5921 83.7097 35.8068C83.7659 35.8699 83.822 35.933 83.8754 35.999C83.9106 36.0411 84.0103 36.2024 83.9218 36.0537C84.0005 36.187 84.1086 36.3076 84.1943 36.4381C84.3587 36.6878 84.5048 36.9502 84.6326 37.221C84.6467 37.2504 84.6593 37.2785 84.6734 37.308C84.6748 37.3122 84.686 37.336 84.6959 37.3585C84.7001 37.3683 84.7029 37.3767 84.7057 37.3823C84.7197 37.4188 84.7352 37.4553 84.7492 37.4931C84.7998 37.625 84.8448 37.7597 84.8855 37.8958C84.967 38.1652 85.0246 38.4388 85.071 38.7166C85.071 38.7166 85.071 38.7138 85.0724 38.7123C85.0724 38.7123 85.0724 38.718 85.0724 38.7236C85.0752 38.7362 85.0766 38.7488 85.0794 38.7615C85.0822 38.7811 85.0836 38.7895 85.0822 38.7951C85.0822 38.7979 85.0822 38.8035 85.0836 38.8049C85.0906 38.8737 85.0976 38.9424 85.1033 39.0126C85.1145 39.1585 85.1201 39.3044 85.1201 39.4503C85.1201 39.5878 85.1159 39.7267 85.1075 39.8642L85.1103 39.8656ZM77.5185 34.4655C77.5452 34.4557 77.5705 34.443 77.5874 34.429C77.5874 34.429 77.5874 34.429 77.5888 34.429C77.534 34.4795 77.5059 34.4809 77.5171 34.4669L77.5185 34.4655ZM81.8679 34.4739C81.8679 34.4739 81.8806 34.4781 81.8876 34.4809C81.9733 34.5146 81.9087 34.4908 81.8679 34.4739ZM92.2483 39.6173C92.1865 39.7842 92.0109 40.1209 91.8493 40.3468C91.8339 40.3693 91.8268 40.3805 91.8226 40.3847C91.8198 40.3875 91.81 40.3959 91.7889 40.4198C91.744 40.4703 91.699 40.5194 91.6512 40.5671C91.6091 40.6092 91.5627 40.6485 91.5178 40.6878H86.4098C86.7216 38.9719 86.3606 37.1368 85.3716 35.6693C85.1707 35.3704 84.9473 35.0856 84.7071 34.8162C83.8473 33.8664 82.701 33.1565 81.4465 32.8703C80.2622 32.5995 78.988 32.6683 77.8543 33.1144C76.5984 33.6083 75.556 34.4529 74.7931 35.5626C73.9277 36.8225 73.5175 38.4247 73.6482 39.9456C73.6693 40.1981 73.7058 40.4478 73.7536 40.6948C73.1115 40.699 72.4709 40.7018 71.8289 40.7046C71.9877 37.684 72.5271 34.7152 73.4361 31.8124C73.703 30.9594 74.0275 27.9332 74.3548 27.1012C74.4433 26.8767 74.293 26.5961 74.0823 26.4895C74.0738 26.4811 74.0682 26.4727 74.0598 26.4656C72.3038 24.9055 70.5365 23.2556 68.4418 22.1529C67.6523 21.7376 66.8108 21.3952 65.9286 21.2479C65.2318 21.1315 59.7768 20.9182 59.073 20.8761C57.4138 20.7751 55.7477 20.7723 54.0858 20.8102C52.8102 20.8382 51.5191 20.8649 50.252 21.0277C49.0691 21.1792 45.4558 22.0196 44.4148 22.6341C44.1451 22.794 43.8824 22.9652 43.6281 23.1448C43.1125 23.5095 42.6265 23.9108 42.1811 24.3359C41.9859 24.5225 41.7976 24.7175 41.6164 24.9181C41.6136 24.921 41.6122 24.9238 41.6108 24.9266C41.5279 25.0065 41.4633 25.1061 41.4366 25.2282C41.4239 25.2815 41.4197 25.3362 41.4197 25.391C41.4085 25.5579 41.4548 25.7249 41.5714 25.8581C41.5827 25.8736 41.5967 25.8876 41.6094 25.903C41.6122 25.9059 41.6136 25.9087 41.6178 25.9115C41.6192 25.9115 41.6206 25.9143 41.622 25.9143C41.7021 25.9984 41.8032 26.063 41.9269 26.091C44.117 26.5821 48.8078 26.554 51.0344 26.8248C51.2367 30.0587 51.7467 35.4574 52.6163 38.5791C52.8031 39.2511 53.0054 39.9175 53.2232 40.5797C51.9476 40.5797 50.6706 40.5797 49.395 40.5797C49.7195 38.8512 49.3613 37.0007 48.3652 35.5234C48.1644 35.2245 47.941 34.9397 47.7008 34.6703C46.841 33.7205 45.6946 33.0106 44.4401 32.7244C43.2558 32.4536 41.9816 32.5224 40.8479 32.9685C39.592 33.4624 38.5496 34.307 37.7868 35.4167C36.9214 36.6766 36.5112 38.2788 36.6418 39.7997C36.6629 40.048 36.698 40.2935 36.7458 40.5362C36.3609 40.5096 35.9914 40.4563 35.5938 40.3496C35.4618 40.3146 35.3325 40.2739 35.2047 40.2262C35.178 40.2164 35.133 40.1967 35.1148 40.1883C35.0684 40.1673 35.0221 40.1462 34.9771 40.1224C34.8731 40.069 34.7734 40.0101 34.6765 39.9456C34.6329 39.9161 34.5908 39.8852 34.5486 39.8558C34.6737 39.9442 34.5374 39.8446 34.4924 39.8053C34.4166 39.7379 34.3435 39.6678 34.2747 39.5948C34.2339 39.5513 34.1946 39.5078 34.1567 39.4629C34.1342 39.4363 34.1019 39.3956 34.0892 39.3816C33.9305 39.1697 33.7872 38.9452 33.6636 38.7109C33.2871 37.9982 33.1213 37.1747 33.0159 36.382C32.9949 36.2248 32.9766 36.0663 32.9583 35.9078C32.964 35.9078 32.971 35.9064 32.9766 35.905L32.8825 34.8625C32.8712 34.8625 32.86 34.8625 32.846 34.8625C32.7912 34.2733 32.7448 33.6812 32.7013 33.0906C32.6774 33.0934 32.6549 33.099 32.631 33.1004L32.5369 32.058C32.5566 32.058 32.5692 32.058 32.5664 32.0594C32.5861 32.0566 32.6057 32.0495 32.6254 32.0453C32.6114 31.8461 32.5959 31.6469 32.5819 31.4477C32.5917 31.4477 32.6015 31.4477 32.6114 31.4463L32.5341 30.4179V30.401C32.52 30.401 32.5074 30.4024 32.4948 30.4038C32.4919 30.3716 32.4891 30.3211 32.4863 30.2551C32.4779 30.0489 32.4723 29.6953 32.4667 29.2969H32.4807L32.5228 28.6277C32.7153 28.6192 32.9092 28.6192 33.0988 28.6431C33.1747 28.6529 33.3587 28.6992 33.4739 28.7399C33.5329 28.7623 33.5385 28.7651 33.4936 28.7469C33.5259 28.7623 33.5568 28.7778 33.5863 28.7946C33.6327 28.8199 33.6762 28.8479 33.7198 28.876C33.7521 28.897 33.8743 29.0177 33.8926 29.0471C33.9024 29.064 33.9586 29.1762 33.96 29.172C33.9712 29.2071 33.9825 29.2408 33.9909 29.2772C33.9979 29.3165 34.0021 29.3348 34.0021 29.3362C34.0373 29.635 33.9572 29.8777 33.8757 30.1794C33.7268 30.7307 33.5807 31.3046 33.2379 31.682C33.1986 31.7255 33.1536 31.7647 33.1115 31.8068C33.089 31.8251 33.0764 31.8349 33.0735 31.8391C33.0539 31.8531 33.0342 31.8672 33.0145 31.8798C32.9569 31.9177 32.8965 31.9485 32.8361 31.9808C32.8249 31.9864 32.8179 31.9892 32.8108 31.992C32.7827 32.0018 32.7546 32.0131 32.7251 32.0215C32.6914 32.0313 32.6563 32.0383 32.6212 32.0467C32.6465 32.3947 32.6718 32.744 32.697 33.092C32.9598 33.0611 33.2182 32.9769 33.4571 32.8408C34.0134 32.5238 34.352 31.985 34.588 31.407C34.8184 30.843 35.0094 30.1962 35.053 29.5873C35.1007 28.9068 34.7776 28.3008 34.2058 27.9388C33.7184 27.6301 33.1508 27.567 32.5861 27.5782L32.6296 26.8753C32.6296 26.8753 37.2277 20.6531 40.1062 19.953C42.9847 19.2529 54.2543 19.4086 54.2543 19.4086V19.4058C54.7685 19.4086 55.2827 19.4212 55.7941 19.4409C57.4349 19.5068 59.08 19.6191 60.711 19.8042C60.8599 19.8211 65.7572 19.9908 65.9061 20.0091C65.9244 20.0119 65.937 20.0133 65.9454 20.0133C65.9525 20.0133 65.9637 20.0161 65.9777 20.0175C66.0494 20.0273 66.1224 20.0371 66.1941 20.0484C66.447 20.0862 66.6998 20.1269 66.9499 20.176C67.3517 20.2532 67.7507 20.3472 68.1398 20.4735C68.2957 20.524 68.4475 20.5871 68.6006 20.6418H68.6034C68.7074 20.6881 68.8099 20.7372 68.9111 20.7891C69.1906 20.9322 69.4575 21.0964 69.7174 21.2732C70.5126 21.8133 71.2782 22.4096 72.0368 22.9975C73.2183 23.9108 74.359 24.8929 75.615 25.7066C76.2584 26.1233 76.9397 26.4741 77.6801 26.6859C78.4977 26.9202 79.3575 27.003 80.2046 27.0437C81.0559 27.0844 81.9101 27.0745 82.7614 27.1307C83.3289 27.1671 83.8839 27.2485 84.4332 27.3762C84.4332 27.3608 84.4332 27.3453 84.4332 27.3285C85.1749 27.4562 87.7893 27.9851 90.7451 29.5396C90.4389 29.6701 90.1565 29.8469 89.9247 30.1008C89.4695 30.6017 89.3164 31.2709 89.5426 31.9149C89.7449 32.4915 90.1003 33.0639 90.4712 33.5479C90.8505 34.0432 91.3197 34.4739 91.9406 34.6325C92.2019 34.6998 92.4674 34.7124 92.7245 34.6759C92.7512 35.9204 92.6332 36.9446 92.5995 37.2055C92.5869 37.2055 92.5756 37.2055 92.563 37.2041C92.6459 38.0066 92.5433 38.8148 92.2427 39.6201L92.2483 39.6173ZM43.9386 24.6614C43.9611 24.6446 43.9821 24.6263 44.0046 24.6095C44.124 24.5225 44.242 24.4327 44.3629 24.3485C44.5975 24.1844 44.8377 24.0286 45.0821 23.8827C45.3252 23.7382 45.5738 23.6021 45.8267 23.4773C45.9391 23.4226 46.0515 23.3692 46.1653 23.3187C46.2144 23.2963 46.3619 23.2374 46.2327 23.2879C46.3029 23.2598 46.3718 23.2318 46.442 23.2051C46.8677 23.0423 49.7841 22.5106 50.2351 22.4363C50.2646 22.432 50.2927 22.4278 50.3222 22.4236C50.429 22.411 50.5357 22.3998 50.6425 22.3886C50.9726 22.3563 51.3042 22.3338 51.6357 22.3128C51.6357 22.3128 51.6357 22.3128 51.6371 22.3142C51.4868 23.3566 51.3379 24.4004 51.1876 25.4429C51.1876 25.4429 51.1876 25.4429 51.1862 25.4429C50.9235 25.412 50.6608 25.3783 50.3981 25.3447C50.3629 25.3404 50.2548 25.325 50.2351 25.3222C50.1424 25.3096 50.0483 25.297 49.9555 25.2829C48.6322 25.0977 44.8405 25.2675 43.5312 25.0009C43.6197 24.9238 43.7096 24.8466 43.8009 24.7722C43.8459 24.7344 43.8922 24.6979 43.9372 24.6614H43.9386Z" fill="#222222"/>
<path d="M84.4528 38.6717C84.4402 38.7011 84.4612 38.7713 84.4641 38.7488C84.4612 38.7292 84.4542 38.6955 84.4542 38.6773C84.4542 38.6759 84.4542 38.6731 84.4542 38.6717H84.4528Z" fill="#222222"/>
<path d="M80.1371 44.5207C80.1582 44.5179 80.1905 44.5109 80.2102 44.5109C80.2102 44.5109 80.213 44.5109 80.2144 44.5109C80.1428 44.4955 80.1062 44.5193 80.1386 44.5207H80.1371Z" fill="#222222"/>
<path d="M80.1076 34.1147C80.0978 34.1147 80.0894 34.1147 80.0795 34.1147C80.1119 34.1218 80.1175 34.119 80.1076 34.1147Z" fill="#222222"/>
<path d="M80.6303 40.2697C80.6485 40.2444 80.6598 40.2079 80.6303 40.2697V40.2697Z" fill="#222222"/>
<path d="M80.567 38.3363C80.567 38.3363 80.5727 38.3602 80.6092 38.384C80.6092 38.3826 80.6078 38.3812 80.6064 38.3798C80.5937 38.3686 80.5797 38.3532 80.567 38.3363Z" fill="#222222"/>
<path d="M82.1826 37.6166C81.4282 36.7945 80.199 36.4549 79.1453 36.8688C77.9456 37.3388 77.142 38.5706 77.2544 39.8698C77.3598 41.1002 78.1914 42.1511 79.394 42.4864C80.5951 42.8217 81.8342 42.3068 82.5226 41.2896C82.8668 40.7804 83.0424 40.1167 82.9932 39.505C82.937 38.7895 82.6574 38.1554 82.184 37.6166H82.1826ZM80.959 38.3742C80.9421 38.3616 80.9211 38.3476 80.9126 38.3462C80.9239 38.3462 80.9407 38.3588 80.959 38.3742ZM80.6373 38.196C80.7216 38.2241 80.6373 38.2031 80.6036 38.1848C80.6148 38.189 80.626 38.1932 80.6373 38.196ZM80.2987 38.1035C80.4223 38.1119 80.3085 38.1217 80.2678 38.1006C80.2776 38.1006 80.2875 38.102 80.2987 38.1035ZM78.5637 38.0726C78.5637 38.0726 78.5679 38.0684 78.5693 38.067C78.5722 38.0642 78.5736 38.0642 78.5778 38.0614C78.5876 38.0543 78.5974 38.0487 78.6073 38.0417C78.5974 38.0501 78.5778 38.0642 78.5637 38.0726ZM78.6579 39.8838C78.6621 39.9049 78.6649 39.9259 78.6649 39.9245C78.6607 39.9203 78.6593 39.9021 78.6579 39.8838ZM78.9374 40.5713C78.9374 40.5713 78.9458 40.5811 78.9557 40.5938C78.9444 40.5811 78.936 40.5713 78.9374 40.5713ZM81.4633 40.3216C81.4633 40.3216 81.4661 40.3132 81.4717 40.3005C81.4675 40.3118 81.4633 40.3216 81.4633 40.3216ZM81.5869 39.8684C81.5799 39.9975 81.5687 39.8852 81.5869 39.8488C81.5869 39.8558 81.5869 39.8628 81.5869 39.8684ZM81.5926 39.8011C81.5926 39.8165 81.5912 39.8333 81.5898 39.8488C81.5617 39.8923 81.5504 40.062 81.5378 40.1069C81.5237 40.1588 81.5055 40.2079 81.4886 40.2584C81.4886 40.2598 81.4844 40.2711 81.4802 40.2837C81.4352 40.3721 81.3903 40.4591 81.3355 40.5433C81.3186 40.5685 81.254 40.6948 81.2961 40.6064C81.2961 40.6064 81.2961 40.605 81.2976 40.6036C81.2961 40.605 81.2947 40.6078 81.2933 40.6092C81.2666 40.6387 81.2414 40.6695 81.2147 40.699C81.1543 40.7649 81.0854 40.8224 81.0208 40.8842C81.0025 40.8982 80.9815 40.9164 80.9688 40.9249C80.9225 40.9571 80.8733 40.9866 80.8241 41.0161C80.7764 41.0427 80.7272 41.068 80.678 41.0918C80.6752 41.0918 80.6738 41.0918 80.671 41.0932C80.5698 41.1255 80.4701 41.1564 80.3661 41.1774C80.3423 41.1704 80.258 41.1872 80.2383 41.1886C80.1863 41.19 80.1343 41.19 80.0824 41.1886C80.0515 41.1886 79.9742 41.169 79.9391 41.176C79.8885 41.1662 79.8379 41.155 79.7887 41.1409C79.7466 41.1297 79.7031 41.1171 79.6609 41.103C79.6398 41.096 79.6188 41.0876 79.5977 41.0806C79.526 41.0455 79.4544 41.0118 79.387 40.9698C79.342 40.9431 79.2985 40.915 79.2563 40.8856C79.2493 40.88 79.2423 40.8758 79.2352 40.8701C79.1678 40.8028 79.0933 40.7439 79.0287 40.6737C79.0245 40.6681 78.9894 40.6302 78.9655 40.6022C78.9487 40.5783 78.9318 40.5559 78.9163 40.532C78.8658 40.4563 78.8208 40.3763 78.7801 40.2949C78.7745 40.2837 78.7688 40.2739 78.7632 40.2627C78.7632 40.2584 78.7618 40.2556 78.7604 40.2514C78.745 40.1897 78.7197 40.1294 78.7028 40.0662C78.686 40.0031 78.6761 39.94 78.6621 39.8768C78.6621 39.874 78.6621 39.8726 78.6607 39.8698C78.6607 39.8572 78.6607 39.8474 78.6607 39.8432C78.6508 39.7127 78.6621 39.585 78.6635 39.4545C78.6635 39.4489 78.6635 39.4447 78.6635 39.4419C78.6649 39.4349 78.6677 39.4265 78.6691 39.4209C78.6789 39.3661 78.6916 39.3114 78.7042 39.2581C78.7197 39.195 78.7393 39.1332 78.7604 39.0715C78.7674 39.0505 78.7759 39.0308 78.7829 39.0098C78.8405 38.9088 78.8897 38.8063 78.9557 38.7095C78.9697 38.6899 78.9838 38.6703 78.9978 38.6506C79.0414 38.5833 78.9599 38.7011 78.9599 38.6969C78.9669 38.6548 79.0526 38.5889 79.0835 38.5552C79.0948 38.544 79.1791 38.4584 79.2338 38.4079C79.2156 38.4191 79.2085 38.4233 79.2395 38.4023C79.2633 38.3812 79.2816 38.3658 79.283 38.3686C79.283 38.3686 79.2816 38.3728 79.276 38.3756C79.2844 38.37 79.2928 38.363 79.3027 38.3574C79.3448 38.3279 79.3898 38.3013 79.4333 38.276C79.4825 38.248 79.5345 38.2227 79.585 38.1975C79.5907 38.196 79.5949 38.1946 79.6005 38.1918C79.7031 38.1582 79.8056 38.1273 79.911 38.1077C79.9152 38.1077 79.9208 38.1063 79.925 38.1049C79.9784 38.1049 80.0318 38.0964 80.0852 38.0964C80.1343 38.0964 80.1849 38.0964 80.2341 38.0992C80.2453 38.0992 80.2552 38.1006 80.2664 38.102C80.3268 38.1427 80.4841 38.1469 80.5544 38.1694C80.5684 38.1736 80.5839 38.1792 80.5979 38.1848C80.6232 38.2045 80.7117 38.2353 80.7314 38.2452C80.7848 38.2732 80.8368 38.3041 80.8859 38.3363C80.9056 38.349 80.9239 38.3616 80.9421 38.3742C80.9702 38.3925 80.9772 38.3953 80.9758 38.3911C81.0082 38.4205 81.0391 38.457 81.0531 38.4696C81.0995 38.5145 81.1444 38.5608 81.188 38.6085C81.2006 38.624 81.2161 38.6464 81.2329 38.6689C81.2371 38.6689 81.2484 38.6759 81.2638 38.6997C81.2666 38.7039 81.2695 38.7081 81.2723 38.7123C81.2765 38.7166 81.2807 38.7208 81.2849 38.7236C81.2807 38.7208 81.2779 38.7194 81.2751 38.7166C81.2849 38.7306 81.2947 38.746 81.3046 38.76C81.3664 38.854 81.4142 38.9523 81.4675 39.0519C81.4675 39.0547 81.4703 39.0575 81.4717 39.0603C81.4886 39.1038 81.5027 39.1487 81.5167 39.1936C81.5448 39.2862 81.5617 39.3788 81.5827 39.4714C81.5841 39.4868 81.5869 39.5008 81.5869 39.5036C81.5898 39.5569 81.594 39.6103 81.594 39.6636C81.594 39.7085 81.594 39.7548 81.5912 39.7997L81.5926 39.8011Z" fill="#222222"/>
<path d="M59.9074 22.3619C59.9074 22.3619 59.9201 22.3633 59.9257 22.3647C59.9229 22.3647 59.9187 22.3647 59.9159 22.3647C59.913 22.3647 59.9102 22.3647 59.9074 22.3647V22.3619Z" fill="#222222"/>
<path d="M55.5777 30.683H53.7177C53.4438 30.683 53.2218 30.9047 53.2218 31.1783C53.2218 31.4519 53.4438 31.6735 53.7177 31.6735H55.5777C55.8516 31.6735 56.0736 31.4519 56.0736 31.1783C56.0736 30.9047 55.8516 30.683 55.5777 30.683Z" fill="#222222"/>
<path d="M65.6589 30.8191H63.7988C63.5249 30.8191 63.3029 31.0408 63.3029 31.3144C63.3029 31.588 63.5249 31.8096 63.7988 31.8096H65.6589C65.9328 31.8096 66.1548 31.588 66.1548 31.3144C66.1548 31.0408 65.9328 30.8191 65.6589 30.8191Z" fill="#222222"/>
<path d="M48.4777 71.18C47.7444 71.18 47.0511 71.1133 46.3977 70.98C45.7577 70.8467 45.1644 70.66 44.6177 70.42C44.0844 70.1667 43.5977 69.86 43.1577 69.5L43.7377 68.18C44.1911 68.5133 44.6511 68.8 45.1177 69.04C45.5977 69.2667 46.1111 69.44 46.6577 69.56C47.2177 69.6667 47.8244 69.72 48.4777 69.72C49.6777 69.72 50.5644 69.5 51.1377 69.06C51.7244 68.6067 52.0177 68.0133 52.0177 67.28C52.0177 66.8933 51.9244 66.56 51.7377 66.28C51.5644 66 51.2711 65.76 50.8577 65.56C50.4577 65.36 49.9311 65.1933 49.2777 65.06L47.1977 64.64C45.9444 64.3733 45.0044 63.94 44.3777 63.34C43.7644 62.7267 43.4577 61.9133 43.4577 60.9C43.4577 60.06 43.6711 59.3267 44.0977 58.7C44.5377 58.0733 45.1444 57.5867 45.9177 57.24C46.7044 56.8933 47.5977 56.72 48.5977 56.72C49.2377 56.72 49.8444 56.7867 50.4177 56.92C50.9911 57.0533 51.5177 57.2533 51.9977 57.52C52.4911 57.7733 52.9244 58.0867 53.2977 58.46L52.7177 59.74C52.1177 59.1933 51.4844 58.8 50.8177 58.56C50.1511 58.3067 49.4044 58.18 48.5777 58.18C47.8711 58.18 47.2577 58.2867 46.7377 58.5C46.2311 58.7133 45.8311 59.0267 45.5377 59.44C45.2577 59.84 45.1177 60.3067 45.1177 60.84C45.1177 61.48 45.3111 61.9867 45.6977 62.36C46.0977 62.7333 46.7444 63.0067 47.6377 63.18L49.7177 63.62C51.0644 63.9 52.0577 64.3267 52.6977 64.9C53.3511 65.46 53.6777 66.2267 53.6777 67.2C53.6777 67.9733 53.4644 68.6667 53.0377 69.28C52.6244 69.88 52.0244 70.3467 51.2377 70.68C50.4644 71.0133 49.5444 71.18 48.4777 71.18ZM61.7824 71.18C59.9424 71.18 58.5358 70.6933 57.5624 69.72C56.6024 68.7333 56.1224 67.3 56.1224 65.42V56.9H57.7624V65.34C57.7624 66.8067 58.1024 67.9067 58.7824 68.64C59.4624 69.36 60.4624 69.72 61.7824 69.72C63.1024 69.72 64.0958 69.36 64.7624 68.64C65.4291 67.9067 65.7624 66.8067 65.7624 65.34V56.9H67.4024V65.42C67.4024 67.3 66.9224 68.7333 65.9624 69.72C65.0158 70.6933 63.6224 71.18 61.7824 71.18ZM75.1732 71L69.0132 56.9H70.7732L76.2732 69.68H75.6332L81.1132 56.9H82.8332L76.6532 71H75.1732Z" fill="#222222"/>
</svg>
