<svg width="63" height="28" viewBox="0 0 63 28" fill="none" xmlns="http://www.w3.org/2000/svg">
<path d="M7.544 7.53125C7.22089 7.60982 6.90199 7.74591 6.62383 7.9297C6.30493 8.14015 6.04925 8.39269 5.81885 8.69573C5.74159 8.79675 5.73316 8.98475 5.76547 9.1012C5.79919 9.22326 5.89331 9.35514 6.0071 9.41547C6.12932 9.48001 6.27683 9.51227 6.4131 9.46878C6.45525 9.45054 6.49739 9.43371 6.53954 9.41547C6.5859 9.38741 6.62664 9.35233 6.66176 9.31305C6.78398 9.15591 6.92446 9.01702 7.079 8.89215C7.21105 8.79815 7.35154 8.71678 7.49905 8.64944C7.60441 8.60875 7.71258 8.57227 7.82356 8.54561C8.09189 8.48108 8.27733 8.1626 8.19163 7.89884C8.10172 7.62104 7.83059 7.4611 7.544 7.53125Z" fill="#C0BEBE"/>
<path d="M59.415 19.7317C59.2801 19.7008 59.1284 19.7078 59.009 19.785C58.8924 19.8593 58.8053 19.9646 58.7673 20.0992L58.5004 21.0322C58.4625 21.1627 58.485 21.3212 58.5538 21.4377C58.6184 21.5471 58.7435 21.651 58.8685 21.679C59.0033 21.7099 59.1551 21.7029 59.2745 21.6257C59.3911 21.5513 59.4782 21.4461 59.5161 21.3114C59.6046 21 59.6945 20.6885 59.783 20.3784C59.821 20.248 59.7985 20.0894 59.7297 19.973C59.665 19.8635 59.54 19.7597 59.415 19.7317Z" fill="#C0BEBE"/>
<path d="M16.4451 20.5201C16.4324 20.5496 16.4535 20.6197 16.4563 20.5973C16.4535 20.5777 16.4465 20.544 16.4465 20.5258C16.4465 20.5243 16.4465 20.5215 16.4465 20.5201H16.4451Z" fill="#C0BEBE"/>
<path d="M12.1294 26.3692C12.1505 26.3664 12.1828 26.3594 12.2025 26.3594C12.2025 26.3594 12.2053 26.3594 12.2067 26.3594C12.135 26.344 12.0985 26.3678 12.1308 26.3692H12.1294Z" fill="#C0BEBE"/>
<path d="M12.0999 15.9632C12.0901 15.9632 12.0816 15.9632 12.0718 15.9632C12.1041 15.9702 12.1097 15.9674 12.0999 15.9632Z" fill="#C0BEBE"/>
<path d="M12.5593 20.1848C12.5593 20.1848 12.5649 20.2087 12.6014 20.2325C12.6014 20.2311 12.6 20.2297 12.5986 20.2283C12.586 20.2171 12.5719 20.2017 12.5593 20.1848Z" fill="#C0BEBE"/>
<path d="M12.6225 22.1181C12.6408 22.0929 12.652 22.0564 12.6225 22.1181V22.1181Z" fill="#C0BEBE"/>
<path d="M14.1749 19.1326C13.4205 18.3104 12.1912 17.9709 11.1376 18.3848C9.93785 18.8548 9.13428 20.0866 9.24667 21.3858C9.35203 22.6162 10.1837 23.667 11.3862 24.0024C12.5874 24.3377 13.8265 23.8228 14.5148 22.8056C14.859 22.2963 15.0346 21.6327 14.9854 21.021C14.9293 20.3055 14.6497 19.6713 14.1763 19.1326H14.1749ZM12.9498 19.8902C12.933 19.8776 12.9119 19.8635 12.9035 19.8621C12.9147 19.8621 12.9316 19.8748 12.9498 19.8902ZM12.6295 19.7134C12.7138 19.7415 12.6295 19.7204 12.5958 19.7022C12.607 19.7064 12.6183 19.7106 12.6295 19.7134ZM12.2896 19.6194C12.4132 19.6278 12.2994 19.6377 12.2601 19.6166C12.2699 19.6166 12.2797 19.618 12.2896 19.6194ZM10.556 19.9225C10.556 19.9225 10.5602 19.9183 10.5616 19.9169C10.5644 19.914 10.5658 19.914 10.57 19.9112C10.5799 19.9042 10.5897 19.8986 10.5995 19.8916C10.5897 19.9 10.57 19.914 10.556 19.9225ZM10.6501 21.3998C10.6543 21.4209 10.6571 21.4419 10.6571 21.4405C10.6529 21.4363 10.6515 21.418 10.6501 21.3998ZM10.9297 22.0873C10.9297 22.0873 10.9381 22.0971 10.9479 22.1097C10.9367 22.0971 10.9283 22.0873 10.9297 22.0873ZM13.4556 21.8389C13.4556 21.8389 13.4584 21.8305 13.464 21.8193C13.4598 21.8305 13.4556 21.8403 13.4556 21.8389ZM13.5792 21.3844C13.5722 21.5135 13.5609 21.4012 13.5792 21.3647C13.5792 21.3717 13.5792 21.3788 13.5792 21.3844ZM13.5834 21.317C13.5834 21.3325 13.582 21.3493 13.5806 21.3647C13.5525 21.4082 13.5413 21.578 13.5286 21.6229C13.5146 21.6748 13.4963 21.7239 13.4795 21.7744C13.4795 21.7758 13.4752 21.787 13.471 21.7997C13.4261 21.8881 13.3811 21.975 13.3263 22.0592C13.3095 22.0845 13.2448 22.2107 13.287 22.1224C13.287 22.1224 13.287 22.1209 13.2884 22.1195C13.287 22.1209 13.2856 22.1238 13.2842 22.1252C13.2575 22.1546 13.2322 22.1855 13.2055 22.2149C13.1451 22.2809 13.0777 22.3384 13.0116 22.4001C12.9934 22.4142 12.9723 22.4324 12.9597 22.4408C12.9133 22.4731 12.8641 22.5026 12.815 22.532C12.7672 22.5587 12.718 22.5839 12.6689 22.6078C12.6661 22.6078 12.6646 22.6078 12.6618 22.6092C12.5607 22.6415 12.4609 22.6723 12.357 22.6934C12.3331 22.6864 12.2488 22.7032 12.2291 22.7046C12.1772 22.706 12.1252 22.706 12.0732 22.7046C12.0423 22.7046 11.965 22.685 11.9299 22.692C11.8793 22.6821 11.8288 22.6709 11.7796 22.6569C11.7375 22.6457 11.6939 22.633 11.6518 22.619C11.6307 22.612 11.6096 22.6036 11.5885 22.5966C11.5169 22.5615 11.4452 22.5278 11.3778 22.4871C11.3329 22.4605 11.2893 22.4324 11.2472 22.403C11.2401 22.3973 11.2331 22.3931 11.2261 22.3875C11.1587 22.3202 11.0842 22.2612 11.0196 22.1911C11.0154 22.1855 10.9802 22.1476 10.9564 22.1195C10.9395 22.0957 10.9226 22.0732 10.9072 22.0494C10.8566 21.9736 10.8117 21.8937 10.7709 21.8123C10.7653 21.8011 10.7597 21.7912 10.7541 21.78C10.7541 21.7758 10.7541 21.773 10.7513 21.7688C10.7358 21.7071 10.7105 21.6467 10.6937 21.5836C10.6768 21.5205 10.667 21.4573 10.6529 21.3942C10.6529 21.3914 10.6529 21.39 10.6515 21.3872C10.6515 21.3746 10.6515 21.3647 10.6515 21.3605C10.6417 21.23 10.6529 21.1024 10.6543 20.9719C10.6543 20.9663 10.6543 20.9621 10.6543 20.9593C10.6557 20.9523 10.6585 20.9438 10.6599 20.9382C10.6698 20.8835 10.6824 20.8288 10.6951 20.7755C10.7105 20.7123 10.7302 20.6506 10.7513 20.5889C10.7583 20.5678 10.7667 20.5482 10.7737 20.5271C10.8313 20.4261 10.8805 20.3237 10.9451 20.2269C10.9592 20.2073 10.9732 20.1876 10.9873 20.168C11.0308 20.1006 10.9493 20.2185 10.9493 20.2143C10.9564 20.1722 11.0421 20.1063 11.073 20.0726C11.0842 20.0614 11.1685 19.9758 11.2247 19.9253C11.2064 19.9365 11.1994 19.9407 11.2303 19.9197C11.2542 19.8986 11.2724 19.8832 11.2739 19.886C11.2739 19.886 11.2725 19.8902 11.2668 19.893C11.2753 19.8874 11.2837 19.8804 11.2935 19.8748C11.3357 19.8453 11.3806 19.8186 11.4256 19.7934C11.4747 19.7653 11.5267 19.7401 11.5773 19.7148C11.5829 19.7134 11.5871 19.712 11.5928 19.7092C11.6953 19.6755 11.7979 19.6447 11.9032 19.625C11.9074 19.625 11.9131 19.6236 11.9173 19.6222C11.9693 19.6222 12.024 19.6138 12.0774 19.6138C12.1266 19.6138 12.1772 19.6138 12.2263 19.6166C12.2376 19.6166 12.2474 19.618 12.2586 19.6194C12.3191 19.6601 12.4764 19.6643 12.5466 19.6868C12.5607 19.691 12.5761 19.6966 12.5902 19.7022C12.6155 19.7218 12.704 19.7527 12.7237 19.7625C12.777 19.7906 12.829 19.8214 12.8796 19.8537C12.8993 19.8663 12.9175 19.879 12.9358 19.8916C12.9639 19.9098 12.9709 19.9126 12.9695 19.9084C13.0018 19.9379 13.0327 19.9744 13.0468 19.987C13.0931 20.0319 13.1381 20.0782 13.1816 20.1259C13.1943 20.1413 13.2097 20.1638 13.2266 20.1862C13.2308 20.1862 13.242 20.1932 13.2575 20.2171C13.2603 20.2213 13.2631 20.2255 13.2659 20.2297C13.2701 20.2339 13.2744 20.2381 13.2786 20.2409C13.2744 20.2381 13.2715 20.2367 13.2687 20.2339C13.2786 20.248 13.2884 20.2634 13.2982 20.2774C13.36 20.3714 13.4078 20.4696 13.4612 20.5692C13.4612 20.572 13.464 20.5749 13.4654 20.5777C13.4823 20.6212 13.4963 20.666 13.5104 20.7109C13.5385 20.8035 13.5553 20.8961 13.5764 20.9887C13.5778 21.0042 13.5806 21.0182 13.5806 21.021C13.5834 21.0743 13.5876 21.1276 13.5876 21.1809C13.5876 21.2258 13.5876 21.2721 13.5848 21.317H13.5834Z" fill="#C0BEBE"/>
<path d="M57.2122 15.7738C57.2248 15.7907 57.2361 15.8103 57.2122 15.7738V15.7738Z" fill="#C0BEBE"/>
<path d="M56.9214 14.8394C56.9256 14.8128 56.9326 14.7805 56.9214 14.8394V14.8394Z" fill="#C0BEBE"/>
<path d="M62.9833 19.2504C62.9833 19.2504 62.9734 19.2504 62.9692 19.2504C62.9861 17.3101 62.9032 13.3046 61.9676 12.2607C61.9676 12.2607 61.4028 9.97666 53.4837 7.94513C52.5214 7.75012 51.5408 7.70101 50.5603 7.67716C49.5909 7.65472 48.6061 7.66033 47.6522 7.47233C46.7728 7.29836 46.0156 6.942 45.2696 6.45516C44.5911 6.01041 43.9968 5.54462 43.3857 5.06479C42.1874 4.12198 40.9877 3.17918 39.7514 2.28688C39.0827 1.80425 38.3775 1.41 37.5936 1.14484C36.4374 0.754807 30.4429 0.470002 29.2348 0.346539C27.2624 0.145911 25.2703 0.00701495 23.2867 0C23.2642 0 23.2417 0 23.2192 0C23.2192 0.00140299 23.2192 0.00420803 23.2192 0.00561102C7.99636 0.248328 7.6887 1.30057 7.6887 1.30057C3.83943 2.74004 0.160152 8.70836 0.160152 8.70836L0 11.1496C0 11.6069 0.0618134 12.0685 0.0997442 12.5203L0.248657 14.3161C0.342781 15.4567 0.425668 16.5988 0.53665 17.738C0.636394 18.7692 0.772663 19.8172 1.1604 20.7853C1.70126 22.1336 2.64391 23.2181 4.0614 23.6544C4.74415 23.8649 5.47045 23.935 6.18692 23.9561C6.46649 24.5874 6.84439 25.1767 7.32204 25.7C8.15932 26.6203 9.28179 27.298 10.4829 27.6249C11.6953 27.9546 13.0285 27.9335 14.2128 27.5C15.5347 27.0174 16.6586 26.1125 17.4383 24.9438C17.6434 24.6365 17.8162 24.3138 17.9623 23.9813C20.5613 23.9813 23.1602 23.9827 25.7592 23.9813C28.5548 23.9813 36.1016 24.1286 38.8973 24.1174C40.3288 24.1118 41.7603 24.1048 43.1919 24.095C43.4714 24.7305 43.8521 25.3212 44.3312 25.8487C45.1685 26.7691 46.2909 27.4467 47.4921 27.7736C48.7045 28.1033 50.0377 28.0823 51.2219 27.6487C52.5439 27.1661 53.6678 26.2612 54.4474 25.0925C54.6596 24.774 54.8394 24.4387 54.9883 24.0908C56.6179 24.0908 58.2476 24.0908 59.8772 24.0908C60.1511 24.0908 60.4293 24.1048 60.7032 24.0908C61.3817 24.0571 61.9648 23.2686 62.2682 22.7242C62.8442 21.693 63.069 20.4514 62.9819 19.2476L62.9833 19.2504ZM61.7035 16.0362L61.6304 15.6307C61.6121 15.6349 61.5995 15.6391 61.6023 15.6405C61.5461 15.6461 61.4899 15.6476 61.4351 15.6462C61.4056 15.6462 61.3747 15.6433 61.3452 15.6405C61.3382 15.6405 61.3298 15.6377 61.3185 15.6363C61.2511 15.6209 61.1851 15.6069 61.1204 15.5858C61.098 15.5788 61.0755 15.5704 61.053 15.562C61.0488 15.5592 61.0348 15.5536 61.0081 15.5409C60.9561 15.5115 60.9041 15.4848 60.8535 15.4539C60.4236 15.1804 60.1314 14.6641 59.842 14.173C59.6833 13.9036 59.5428 13.689 59.4979 13.3929C59.4979 13.3915 59.4979 13.3733 59.4936 13.3326C59.4936 13.2961 59.4936 13.2597 59.495 13.2232C59.4979 13.2274 59.5231 13.1039 59.5274 13.0857C59.5372 13.052 59.6229 12.9033 59.6482 12.8752C59.6833 12.836 59.717 12.7981 59.7549 12.7616C59.7802 12.7378 59.8055 12.7139 59.8322 12.6915C59.7929 12.7209 59.7985 12.7167 59.8491 12.6788C59.9488 12.6101 60.1146 12.5175 60.1848 12.488C60.3534 12.4165 60.5318 12.3674 60.7116 12.3267C61.3663 13.341 61.6234 14.7538 61.7021 16.0404L61.7035 16.0362ZM11.4972 26.4071C11.4087 26.3973 11.4705 26.4029 11.5169 26.4085C11.5099 26.4085 11.5042 26.4085 11.4972 26.4071ZM13.9768 26.0956C13.9768 26.0956 14.0147 26.083 14.0386 26.0732C14.0147 26.0858 13.9908 26.0984 13.9768 26.0956ZM17.1025 21.7141C17.0983 21.7758 17.0941 21.8361 17.0871 21.8965C17.0829 21.9344 17.0787 21.9722 17.0744 22.0101C17.0744 22.0101 17.0744 22.0101 17.0744 22.0115C17.0197 22.2879 16.9733 22.5629 16.8918 22.8337C16.8722 22.8996 16.8483 22.9641 16.8258 23.0287C16.8174 23.0497 16.8103 23.0708 16.8047 23.0918C16.7921 23.1283 16.7808 23.1662 16.7668 23.2041C16.7598 23.2237 16.7457 23.2826 16.7275 23.3303C16.7289 23.3191 16.7232 23.3205 16.7064 23.357C16.6867 23.3991 16.6684 23.4412 16.6488 23.4833C16.5266 23.7428 16.3847 23.9939 16.2245 24.2339C16.1852 24.2928 16.1444 24.3503 16.1037 24.4078C16.0854 24.4331 16.0658 24.4583 16.0475 24.4836C15.9843 24.5706 16.0419 24.4962 16.0644 24.4653C15.9913 24.593 15.8593 24.7123 15.7609 24.8189C15.5614 25.035 15.3451 25.2356 15.1161 25.4208C15.1091 25.4264 15.0121 25.4993 15.043 25.4769C15.0304 25.4853 15.0206 25.4923 15.0192 25.4937C14.9658 25.533 14.911 25.5709 14.8562 25.6074C14.7284 25.6944 14.5963 25.7743 14.4628 25.8501C14.3378 25.9202 14.2114 25.9848 14.0807 26.0451C14.0723 26.0493 14.0597 26.0563 14.047 26.0634C14.04 26.0662 14.0287 26.0704 14.0119 26.0774C13.9402 26.1054 13.8672 26.1335 13.7941 26.1602C13.5357 26.2528 13.2701 26.3243 13.0004 26.3762C12.9414 26.3874 12.8838 26.3959 12.8248 26.4057C12.8262 26.4057 12.829 26.4057 12.8304 26.4057C12.8276 26.4057 12.8248 26.4057 12.8206 26.4057C12.8065 26.4085 12.7911 26.4113 12.777 26.4127C12.763 26.4155 12.7546 26.4155 12.7475 26.4141C12.7447 26.4141 12.7419 26.4141 12.7405 26.4141C12.5916 26.4295 12.4427 26.4394 12.2938 26.4422C12.0381 26.4478 11.7838 26.4323 11.5295 26.4057C11.5014 26.3987 11.4663 26.3973 11.4396 26.3931C11.3736 26.3818 11.309 26.3706 11.2429 26.358C11.1053 26.3299 10.969 26.2977 10.8327 26.2598C10.7119 26.2261 10.5911 26.1896 10.4731 26.1475C10.4029 26.1237 10.334 26.0984 10.2652 26.0704C10.2399 26.0605 10.2146 26.0507 10.1907 26.0409C10.1907 26.0409 10.1893 26.0409 10.1879 26.0395C9.94487 25.9273 9.70746 25.808 9.47987 25.6691C9.36608 25.599 9.25369 25.526 9.14552 25.4488C9.09775 25.4152 9.0528 25.3801 9.00644 25.3464C8.97694 25.3212 8.94603 25.2973 8.91653 25.2735C8.7044 25.0967 8.50351 24.9059 8.31807 24.701C8.28857 24.6688 8.04131 24.4134 8.05536 24.3924C8.05536 24.3924 8.16073 24.5341 8.08205 24.4275C8.06379 24.4036 8.04553 24.3798 8.02867 24.3545C7.98372 24.2928 7.94017 24.2311 7.89943 24.1693C7.73787 23.9294 7.59457 23.6755 7.47235 23.4131C7.46111 23.3893 7.4274 23.3107 7.42037 23.2953C7.39649 23.2349 7.37261 23.1746 7.35013 23.1143C7.28972 22.9473 7.23634 22.7761 7.19138 22.6036C7.14924 22.4394 7.11412 22.2739 7.08462 22.1083C7.079 22.0718 7.07197 22.034 7.06635 21.9975C7.06354 21.9778 7.06073 21.9652 7.05933 21.9568C7.04669 21.8754 7.04388 21.7884 7.03826 21.7085C7.01297 21.3605 7.01718 21.0112 7.0509 20.6632C7.05512 20.6254 7.05933 20.5889 7.06214 20.551C7.06495 20.5286 7.06495 20.5145 7.06635 20.5061C7.07478 20.443 7.08743 20.3798 7.09866 20.3181C7.13098 20.1413 7.17031 19.9674 7.21667 19.7948C7.26163 19.632 7.3122 19.4693 7.3698 19.3108C7.39509 19.2406 7.42318 19.1705 7.44988 19.1003C7.44988 19.0975 7.45128 19.0947 7.45269 19.0919C7.45269 19.0905 7.45409 19.0891 7.45549 19.0863C7.47938 19.0358 7.50185 18.9839 7.52574 18.9334C7.66763 18.6359 7.8348 18.3497 8.02446 18.0789C8.06098 18.0256 8.10032 17.9737 8.13825 17.9218C8.13965 17.9204 8.14106 17.919 8.14246 17.9162C8.16354 17.8895 8.18461 17.8629 8.20568 17.8376C8.29559 17.7282 8.38831 17.623 8.48665 17.5191C8.67771 17.3171 8.88562 17.1361 9.09916 16.9593C9.12304 16.9425 9.14552 16.9243 9.1694 16.9074C9.22419 16.8682 9.27898 16.8303 9.33517 16.7924C9.45178 16.7138 9.57259 16.6409 9.69481 16.5721C9.81001 16.5076 9.92661 16.4473 10.046 16.3911C10.0699 16.3799 10.1008 16.3701 10.1317 16.3589C10.1373 16.3519 10.1514 16.3406 10.1781 16.3308C10.1851 16.328 10.1935 16.3252 10.2006 16.3224C10.2006 16.3224 10.2034 16.321 10.2048 16.3196C10.2048 16.3196 10.2034 16.321 10.202 16.3224C10.2272 16.3126 10.2525 16.3013 10.2792 16.2929C10.5349 16.1961 10.799 16.1176 11.0659 16.06C11.1811 16.0348 11.2963 16.0193 11.4115 15.9969C11.4326 15.9941 11.4523 15.9927 11.4733 15.9899C11.545 15.9829 11.6152 15.9759 11.6869 15.9716C11.8147 15.9632 11.9426 15.9604 12.0704 15.9604C12.0564 15.9576 12.0367 15.952 12.01 15.945C12.0156 15.945 12.0212 15.945 12.0268 15.9464C12.0437 15.9492 12.0606 15.9506 12.0774 15.9534C12.0873 15.9562 12.0943 15.9576 12.0999 15.9604C12.2277 15.9618 12.3556 15.9674 12.4834 15.9773C12.5326 15.9815 12.5832 15.9871 12.6323 15.9927C12.6267 15.9913 12.6239 15.9899 12.6169 15.9885C12.6267 15.9913 12.638 15.9927 12.6478 15.9941C12.6562 15.9941 12.6661 15.9955 12.6745 15.9969C12.6829 15.9969 12.6913 15.9997 12.6984 16.0011C12.6984 16.0011 12.7012 16.0011 12.7026 16.0011C12.8459 16.0236 12.9878 16.0516 13.1268 16.0867C13.3713 16.1456 13.6073 16.2242 13.8419 16.314C13.8658 16.3308 13.9107 16.342 13.9332 16.3519C13.9936 16.3799 14.054 16.408 14.1144 16.4374C14.2423 16.5006 14.3673 16.5693 14.4895 16.6423C14.6005 16.7082 14.7101 16.7798 14.8155 16.8527C14.8618 16.885 14.9728 16.9411 15.0023 16.9888C14.9967 16.979 14.8717 16.885 14.9714 16.965C15.0079 16.9944 15.0445 17.0239 15.081 17.0534C15.3029 17.2385 15.5095 17.4406 15.7033 17.6552C15.7595 17.7184 15.8157 17.7815 15.8691 17.8474C15.9042 17.8895 16.004 18.0509 15.9155 17.9022C15.9941 18.0354 16.1023 18.1561 16.188 18.2866C16.3524 18.5363 16.4985 18.7987 16.6263 19.0694C16.6404 19.0989 16.653 19.127 16.6656 19.1564C16.667 19.1606 16.6783 19.1845 16.6881 19.2055C16.6923 19.2154 16.6965 19.2238 16.6979 19.2294C16.712 19.2659 16.7274 19.3023 16.7415 19.3402C16.7921 19.4721 16.837 19.6068 16.8778 19.7429C16.9592 20.0123 17.0168 20.2858 17.0632 20.5636C17.0632 20.5636 17.0632 20.5608 17.0646 20.5594C17.0646 20.5594 17.0646 20.565 17.0646 20.5706C17.0674 20.5833 17.0688 20.5959 17.0716 20.6085C17.0744 20.6268 17.0744 20.6366 17.0744 20.6422C17.0744 20.645 17.0744 20.6506 17.0759 20.652C17.0829 20.7208 17.0899 20.7895 17.0955 20.8597C17.1068 21.0056 17.1124 21.1515 17.1124 21.2974C17.1124 21.4349 17.1082 21.5738 17.0997 21.7113L17.1025 21.7141ZM9.51078 16.3154C9.53747 16.3056 9.56276 16.2929 9.57962 16.2789C9.57962 16.2789 9.57962 16.2789 9.58102 16.2789C9.52623 16.3294 9.49813 16.3308 9.50937 16.3168L9.51078 16.3154ZM13.8588 16.3224C13.8588 16.3224 13.8714 16.3266 13.8784 16.3294C13.9641 16.3631 13.8995 16.3392 13.8588 16.3224ZM23.7067 22.4563C23.7067 22.4563 21.8734 15.4974 21.0206 8.90618C21.0206 8.90618 26.8451 9.48001 30.0088 9.48001L30.0341 22.6485L23.7067 22.4577V22.4563ZM29.4764 4.40118C29.4975 4.40399 29.5185 4.40679 29.5396 4.4096C29.6098 4.41802 29.5916 4.41661 29.5494 4.4096C29.5593 4.411 29.5705 4.4124 29.5803 4.41381C29.6506 4.42363 29.7222 4.43485 29.7925 4.44608C29.8079 4.44888 29.9035 4.4545 30.0552 4.46151L29.9611 8.06158C29.1687 8.04054 28.4832 8.0209 27.9732 8.00266C26.4335 7.95075 24.8938 7.87078 23.3569 7.75012C22.6475 7.694 21.9394 7.62946 21.2314 7.5551C21.3887 6.45516 21.5475 5.35522 21.7048 4.25527C21.9858 4.24405 22.2667 4.23282 22.5477 4.2244C24.1773 4.1767 25.8112 4.17249 27.4394 4.24405C28.1362 4.27491 28.833 4.3184 29.5256 4.40539C29.527 4.40539 29.5284 4.40539 29.5298 4.40539C29.5129 4.40258 29.4932 4.39978 29.4764 4.39837V4.40118ZM37.4685 5.78593C37.9659 6.09038 38.4435 6.4257 38.9085 6.77644C38.9535 6.81012 38.9998 6.84519 39.0448 6.88026C39.0307 6.87044 39.1038 6.92516 39.1305 6.94621C39.2513 7.04021 39.3707 7.13561 39.4901 7.23242C39.7191 7.41761 39.9467 7.60561 40.1715 7.79642C40.3527 7.94934 40.5325 8.10508 40.7109 8.26221C38.8003 8.26221 34.4453 8.17663 31.1538 8.09525L31.1355 4.50921C32.6246 4.56814 34.8274 4.65232 34.9089 4.67055C35.0691 4.70563 35.2264 4.74912 35.3823 4.79682C35.5032 4.83471 35.624 4.87539 35.7434 4.91888C35.8038 4.94133 35.8642 4.96378 35.9232 4.98763C35.971 5.00587 36.1564 5.07462 36.0131 5.02271C36.5203 5.2051 37.0092 5.50674 37.4671 5.78734L37.4685 5.78593ZM37.4236 22.7298L38.0052 22.1125C38.2271 21.8768 38.2117 21.5092 37.9701 21.2932C37.9701 20.9859 37.5936 20.8358 37.3814 21.0603L35.8164 22.7214L34.8092 22.7158L36.894 20.5033C37.1286 20.2536 37.0977 19.8579 36.8139 19.6475C36.5652 19.4623 36.2112 19.5128 35.9977 19.7387L33.2006 22.7074L32.5108 22.7032L33.9522 21.1725C34.1868 20.9228 34.1559 20.5257 33.8721 20.3167C33.6235 20.1315 33.2695 20.182 33.0559 20.4079L31.1313 22.4507L31.2043 9.48001C31.2043 9.48001 37.2522 9.66099 41.7547 9.51789C41.7547 9.51789 39.4016 18.4928 39.646 22.7439L37.4194 22.7313L37.4236 22.7298ZM48.5064 26.5586C48.4179 26.5488 48.4797 26.5544 48.526 26.56C48.519 26.56 48.5134 26.56 48.5064 26.5586ZM50.9845 26.2471C50.9845 26.2471 51.0224 26.2345 51.0463 26.2247C51.0224 26.2373 50.9986 26.25 50.9845 26.2471ZM54.1103 21.8656C54.1061 21.9273 54.1019 21.9877 54.0948 22.048C54.0906 22.0859 54.0864 22.1238 54.0822 22.1616C54.0822 22.1616 54.0822 22.1616 54.0822 22.163C54.0274 22.4394 53.981 22.7144 53.8996 22.9852C53.8616 23.1101 53.8209 23.2335 53.7745 23.3556C53.7675 23.3752 53.7535 23.4342 53.7352 23.4819C53.7366 23.4706 53.731 23.472 53.7141 23.5085C53.6945 23.5506 53.6762 23.5927 53.6565 23.6348C53.5343 23.8943 53.3924 24.1455 53.2323 24.3854C53.1929 24.4443 53.1522 24.5018 53.1114 24.5593C53.0932 24.5846 53.0735 24.6099 53.0552 24.6351C52.992 24.7221 53.0496 24.6477 53.0721 24.6169C52.9991 24.7445 52.867 24.8638 52.7687 24.9704C52.5692 25.1865 52.3528 25.3871 52.1238 25.5723C52.1168 25.5779 52.0185 25.6509 52.0508 25.6284C52.0381 25.6368 52.0283 25.6439 52.0269 25.6453C51.9735 25.6845 51.9187 25.7224 51.8639 25.7589C51.7361 25.8459 51.604 25.9259 51.4706 26.0016C51.3456 26.0718 51.2191 26.1363 51.0885 26.1966C51.08 26.2008 51.0674 26.2079 51.0548 26.2149C51.0477 26.2177 51.0365 26.2219 51.0196 26.2289C50.948 26.257 50.8749 26.285 50.8019 26.3117C50.5434 26.4043 50.2779 26.4758 50.0082 26.5277C49.9492 26.539 49.8916 26.5474 49.8326 26.5572C49.834 26.5572 49.8368 26.5572 49.8382 26.5572C49.8354 26.5572 49.8325 26.5572 49.8283 26.5572C49.8143 26.56 49.7988 26.5628 49.7848 26.5642C49.7707 26.567 49.7623 26.567 49.7553 26.5656C49.7525 26.5656 49.7497 26.5656 49.7483 26.5656C49.5993 26.5811 49.4504 26.5909 49.3015 26.5937C49.0458 26.5993 48.7916 26.5839 48.5373 26.5572C48.5092 26.5502 48.4741 26.5488 48.4474 26.5446C48.3813 26.5334 48.3167 26.5221 48.2507 26.5095C48.113 26.4814 47.9767 26.4492 47.8405 26.4113C47.7197 26.3776 47.5988 26.3411 47.4808 26.2991C47.4106 26.2752 47.3418 26.25 47.2729 26.2219C47.2476 26.2121 47.2224 26.2022 47.1985 26.1924C47.1985 26.1924 47.1971 26.1924 47.1957 26.191C46.9526 26.0788 46.7152 25.9595 46.4876 25.8206C46.3738 25.7505 46.2614 25.6775 46.1533 25.6004C46.1055 25.5667 46.0605 25.5316 46.0142 25.4979C45.9847 25.4727 45.9538 25.4488 45.9243 25.425C45.7121 25.2482 45.5113 25.0574 45.3258 24.8526C45.2963 24.8203 45.0491 24.565 45.0631 24.5439C45.0631 24.5439 45.1685 24.6856 45.0898 24.579C45.0715 24.5551 45.0533 24.5313 45.0364 24.506C44.9915 24.4443 44.9493 24.3826 44.9072 24.3208C44.7456 24.0809 44.6023 23.827 44.4801 23.5646C44.4689 23.5408 44.4351 23.4622 44.4281 23.4468C44.4042 23.3864 44.3804 23.3261 44.3579 23.2658C44.2975 23.0988 44.2441 22.9277 44.1991 22.7551C44.157 22.591 44.1219 22.4254 44.0924 22.2598C44.0867 22.2234 44.0811 22.1855 44.0741 22.149C44.0713 22.1294 44.0685 22.1167 44.0671 22.1083C44.0544 22.027 44.0516 21.94 44.046 21.86C44.0207 21.5121 44.0249 21.1627 44.0586 20.8148C44.0629 20.7769 44.0671 20.7404 44.0699 20.7025C44.0727 20.6801 44.0727 20.6675 44.0741 20.6576C44.0825 20.5945 44.0952 20.53 44.1064 20.4696C44.1387 20.2929 44.1781 20.1189 44.2244 19.9463C44.2694 19.7836 44.3199 19.6208 44.3775 19.4623C44.4028 19.3921 44.4309 19.322 44.4576 19.2518C44.4576 19.249 44.459 19.2462 44.4604 19.2434C44.4604 19.242 44.4618 19.2406 44.4632 19.2378C44.4871 19.1873 44.5096 19.1354 44.5335 19.0849C44.6754 18.7874 44.8425 18.5012 45.0322 18.2305C45.0687 18.1771 45.1081 18.1252 45.146 18.0733C45.1474 18.0719 45.1488 18.0705 45.1502 18.0677C45.1713 18.0411 45.1924 18.0144 45.2134 17.9891C45.3033 17.8797 45.3961 17.7745 45.4944 17.6707C45.6855 17.4686 45.8934 17.2877 46.1069 17.1109C46.1308 17.094 46.1533 17.0758 46.1771 17.059C46.2319 17.0197 46.2867 16.9818 46.3429 16.9439C46.4595 16.8653 46.5803 16.7924 46.7026 16.7236C46.8178 16.6591 46.9344 16.5988 47.0538 16.5427C47.0777 16.5314 47.1086 16.5216 47.1395 16.5104C47.1451 16.5034 47.1591 16.4922 47.1858 16.4823C47.1928 16.4795 47.2013 16.4767 47.2083 16.4739C47.2083 16.4739 47.2111 16.4725 47.2125 16.4711C47.2125 16.4711 47.2111 16.4725 47.2097 16.4739C47.235 16.4641 47.2603 16.4529 47.287 16.4445C47.5426 16.3476 47.8068 16.2691 48.0737 16.2116C48.1889 16.1863 48.3041 16.1709 48.4193 16.1484C48.4403 16.1456 48.46 16.1442 48.4811 16.1414C48.5527 16.1344 48.623 16.1274 48.6946 16.1232C48.8225 16.1147 48.9503 16.1119 49.0781 16.1119C49.0641 16.1091 49.0444 16.1035 49.0163 16.0965C49.0219 16.0965 49.0276 16.0965 49.0332 16.0979C49.0501 16.1007 49.0669 16.1021 49.0838 16.1049C49.0936 16.1077 49.1006 16.1091 49.1062 16.1119C49.2341 16.1133 49.3619 16.119 49.4898 16.1288C49.5403 16.133 49.5895 16.1386 49.6387 16.1442C49.6331 16.1428 49.6302 16.1414 49.6232 16.14C49.6331 16.1428 49.6443 16.1442 49.6541 16.1456C49.6626 16.1456 49.6724 16.147 49.6808 16.1484C49.6893 16.1484 49.6977 16.1512 49.7047 16.1526C49.7047 16.1526 49.7075 16.1526 49.7089 16.1526C49.8522 16.1751 49.9941 16.2031 50.1332 16.2382C50.3776 16.2971 50.6136 16.3757 50.8482 16.4655C50.8721 16.4823 50.9171 16.4936 50.9396 16.5034C51 16.5314 51.0604 16.5595 51.1208 16.589C51.2486 16.6521 51.3737 16.7208 51.4959 16.7938C51.6069 16.8597 51.7164 16.9313 51.8218 17.0042C51.8682 17.0365 51.9791 17.0926 52.0086 17.1403C52.003 17.1305 51.878 17.0365 51.9777 17.1165C52.0143 17.1459 52.0508 17.1754 52.0873 17.2049C52.3093 17.3901 52.5158 17.5921 52.7097 17.8068C52.7659 17.8699 52.822 17.933 52.8754 17.999C52.9106 18.0411 53.0103 18.2024 52.9218 18.0537C53.0005 18.187 53.1086 18.3076 53.1943 18.4381C53.3587 18.6878 53.5048 18.9502 53.6326 19.221C53.6467 19.2504 53.6593 19.2785 53.6734 19.308C53.6748 19.3122 53.686 19.336 53.6959 19.3585C53.7001 19.3683 53.7029 19.3767 53.7057 19.3823C53.7197 19.4188 53.7352 19.4553 53.7492 19.4931C53.7998 19.625 53.8448 19.7597 53.8855 19.8958C53.967 20.1652 54.0246 20.4388 54.071 20.7166C54.071 20.7166 54.071 20.7138 54.0724 20.7123C54.0724 20.7123 54.0724 20.718 54.0724 20.7236C54.0752 20.7362 54.0766 20.7488 54.0794 20.7615C54.0822 20.7811 54.0836 20.7895 54.0822 20.7951C54.0822 20.7979 54.0822 20.8035 54.0836 20.8049C54.0906 20.8737 54.0976 20.9424 54.1033 21.0126C54.1145 21.1585 54.1201 21.3044 54.1201 21.4503C54.1201 21.5878 54.1159 21.7267 54.1075 21.8642L54.1103 21.8656ZM46.5185 16.4655C46.5452 16.4557 46.5705 16.443 46.5874 16.429C46.5874 16.429 46.5874 16.429 46.5888 16.429C46.534 16.4795 46.5059 16.4809 46.5171 16.4669L46.5185 16.4655ZM50.8679 16.4739C50.8679 16.4739 50.8806 16.4781 50.8876 16.4809C50.9733 16.5146 50.9087 16.4908 50.8679 16.4739ZM61.2483 21.6173C61.1865 21.7842 61.0109 22.1209 60.8493 22.3468C60.8339 22.3693 60.8268 22.3805 60.8226 22.3847C60.8198 22.3875 60.81 22.3959 60.7889 22.4198C60.744 22.4703 60.699 22.5194 60.6512 22.5671C60.6091 22.6092 60.5627 22.6485 60.5178 22.6878H55.4098C55.7216 20.9719 55.3606 19.1368 54.3716 17.6693C54.1707 17.3704 53.9473 17.0856 53.7071 16.8162C52.8473 15.8664 51.701 15.1565 50.4465 14.8703C49.2622 14.5995 47.988 14.6683 46.8543 15.1144C45.5984 15.6083 44.556 16.4529 43.7931 17.5626C42.9277 18.8225 42.5175 20.4247 42.6482 21.9456C42.6693 22.1981 42.7058 22.4478 42.7536 22.6948C42.1115 22.699 41.4709 22.7018 40.8289 22.7046C40.9877 19.684 41.5271 16.7152 42.4361 13.8124C42.703 12.9594 43.0275 9.93317 43.3548 9.1012C43.4433 8.87672 43.293 8.59612 43.0823 8.4895C43.0738 8.48108 43.0682 8.47266 43.0598 8.46564C41.3038 6.90552 39.5365 5.2556 37.4418 4.15285C36.6523 3.73757 35.8108 3.39524 34.9286 3.24792C34.2318 3.13147 28.7768 2.91822 28.073 2.87613C26.4138 2.77512 24.7477 2.77231 23.0858 2.81019C21.8102 2.83825 20.5191 2.86491 19.252 3.02765C18.0691 3.17918 14.4558 4.01957 13.4148 4.63408C13.1451 4.79402 12.8824 4.96518 12.6281 5.14477C12.1125 5.50954 11.6265 5.9108 11.1811 6.3359C10.9859 6.5225 10.7976 6.71752 10.6164 6.91815C10.6136 6.92095 10.6122 6.92376 10.6108 6.92656C10.5279 7.00653 10.4633 7.10615 10.4366 7.22821C10.4239 7.28152 10.4197 7.33624 10.4197 7.39095C10.4085 7.55791 10.4548 7.72486 10.5714 7.85815C10.5827 7.87358 10.5967 7.88761 10.6094 7.90305C10.6122 7.90585 10.6136 7.90866 10.6178 7.91146C10.6192 7.91146 10.6206 7.91427 10.622 7.91427C10.7021 7.99845 10.8032 8.06299 10.9269 8.09105C13.117 8.58209 17.8078 8.55403 20.0344 8.82481C20.2367 12.0587 20.7467 17.4574 21.6163 20.5791C21.8031 21.2511 22.0054 21.9175 22.2232 22.5797C20.9476 22.5797 19.6706 22.5797 18.395 22.5797C18.7195 20.8512 18.3613 19.0007 17.3652 17.5234C17.1644 17.2245 16.941 16.9397 16.7008 16.6703C15.841 15.7205 14.6946 15.0106 13.4401 14.7244C12.2558 14.4536 10.9816 14.5224 9.84794 14.9685C8.59201 15.4624 7.54962 16.307 6.78679 17.4167C5.92141 18.6766 5.51119 20.2788 5.64184 21.7997C5.66292 22.048 5.69804 22.2935 5.7458 22.5362C5.36088 22.5096 4.9914 22.4563 4.59383 22.3496C4.46178 22.3146 4.33253 22.2739 4.20469 22.2262C4.178 22.2164 4.13304 22.1967 4.11478 22.1883C4.06842 22.1673 4.02206 22.1462 3.97711 22.1224C3.87315 22.069 3.77341 22.0101 3.67647 21.9456C3.63292 21.9161 3.59078 21.8852 3.54863 21.8558C3.67366 21.9442 3.53739 21.8446 3.49244 21.8053C3.41658 21.7379 3.34352 21.6678 3.27469 21.5948C3.23395 21.5513 3.19461 21.5078 3.15668 21.4629C3.1342 21.4363 3.10189 21.3956 3.08925 21.3816C2.9305 21.1697 2.78721 20.9452 2.66358 20.7109C2.28708 19.9982 2.12131 19.1747 2.01595 18.382C1.99488 18.2248 1.97661 18.0663 1.95835 17.9078C1.96397 17.9078 1.97099 17.9064 1.97661 17.905L1.88249 16.8625C1.87125 16.8625 1.86001 16.8625 1.84596 16.8625C1.79117 16.2733 1.74481 15.6812 1.70126 15.0906C1.67738 15.0934 1.6549 15.099 1.63102 15.1004L1.5369 14.058C1.55656 14.058 1.56921 14.058 1.5664 14.0594C1.58607 14.0566 1.60573 14.0495 1.6254 14.0453C1.61135 13.8461 1.5959 13.6469 1.58185 13.4477C1.59169 13.4477 1.60152 13.4477 1.61135 13.4463L1.53409 12.4179V12.401C1.52004 12.401 1.5074 12.4024 1.49475 12.4038C1.49194 12.3716 1.48913 12.3211 1.48632 12.2551C1.47789 12.0489 1.47227 11.6953 1.46666 11.2969H1.4807L1.52285 10.6277C1.71531 10.6192 1.90918 10.6192 2.09883 10.6431C2.1747 10.6529 2.35873 10.6992 2.47393 10.7399C2.53293 10.7623 2.53855 10.7651 2.49359 10.7469C2.52591 10.7623 2.55681 10.7778 2.58631 10.7946C2.63267 10.8199 2.67622 10.8479 2.71977 10.876C2.75208 10.897 2.87431 11.0177 2.89257 11.0471C2.9024 11.064 2.9586 11.1762 2.96 11.172C2.97124 11.2071 2.98248 11.2408 2.99091 11.2772C2.99793 11.3165 3.00215 11.3348 3.00215 11.3362C3.03727 11.635 2.95719 11.8777 2.87571 12.1794C2.7268 12.7307 2.58069 13.3046 2.23791 13.682C2.19858 13.7255 2.15362 13.7647 2.11148 13.8068C2.089 13.8251 2.07636 13.8349 2.07355 13.8391C2.05388 13.8531 2.03421 13.8672 2.01454 13.8798C1.95694 13.9177 1.89654 13.9485 1.83613 13.9808C1.82489 13.9864 1.81787 13.9892 1.81084 13.992C1.78274 14.0018 1.75465 14.0131 1.72515 14.0215C1.69143 14.0313 1.65631 14.0383 1.62119 14.0467C1.64647 14.3947 1.67176 14.744 1.69705 15.092C1.95975 15.0611 2.21825 14.9769 2.45707 14.8408C3.01339 14.5238 3.35195 13.985 3.58797 13.407C3.81836 12.843 4.00942 12.1962 4.05297 11.5873C4.10073 10.9068 3.77762 10.3008 3.20585 9.93878C2.71837 9.63013 2.15081 9.56699 1.58607 9.57821L1.62962 8.87532C1.62962 8.87532 6.22766 2.65305 9.10618 1.95296C11.9847 1.25287 23.2543 1.4086 23.2543 1.4086V1.40579C23.7685 1.4086 24.2827 1.42123 24.7941 1.44087C26.4349 1.50681 28.08 1.61905 29.711 1.80425C29.8599 1.82108 34.7572 1.99084 34.9061 2.00908C34.9244 2.01189 34.937 2.01329 34.9454 2.01329C34.9525 2.01329 34.9637 2.0161 34.9777 2.0175C35.0494 2.02732 35.1224 2.03714 35.1941 2.04836C35.447 2.08625 35.6998 2.12693 35.9499 2.17604C36.3517 2.2532 36.7507 2.3472 37.1398 2.47347C37.2957 2.52398 37.4475 2.58711 37.6006 2.64183H37.6034C37.7074 2.68813 37.8099 2.73723 37.9111 2.78914C38.1906 2.93225 38.4575 3.0964 38.7174 3.27318C39.5126 3.81333 40.2782 4.4096 41.0368 4.99745C42.2183 5.9108 43.359 6.89289 44.615 7.70663C45.2584 8.12331 45.9397 8.47406 46.6801 8.68591C47.4977 8.92021 48.3575 9.00299 49.2046 9.04368C50.0559 9.08436 50.9101 9.07454 51.7614 9.13066C52.3289 9.16714 52.8839 9.24851 53.4332 9.37619C53.4332 9.36075 53.4332 9.34532 53.4332 9.32848C54.1749 9.45615 56.7893 9.98508 59.7451 11.5396C59.4389 11.6701 59.1565 11.8469 58.9247 12.1008C58.4695 12.6017 58.3164 13.2709 58.5426 13.9149C58.7449 14.4915 59.1003 15.0639 59.4712 15.5479C59.8505 16.0432 60.3197 16.4739 60.9406 16.6325C61.2019 16.6998 61.4674 16.7124 61.7245 16.6759C61.7512 17.9204 61.6332 18.9446 61.5995 19.2055C61.5869 19.2055 61.5756 19.2055 61.563 19.2041C61.6459 20.0066 61.5433 20.8148 61.2427 21.6201L61.2483 21.6173ZM12.9386 6.6614C12.9611 6.64456 12.9821 6.62632 13.0046 6.60949C13.124 6.5225 13.242 6.43271 13.3629 6.34853C13.5975 6.18438 13.8377 6.02865 14.0821 5.88274C14.3252 5.73823 14.5738 5.60214 14.8267 5.47727C14.9391 5.42256 15.0515 5.36924 15.1653 5.31874C15.2144 5.29629 15.3619 5.23736 15.2327 5.28787C15.3029 5.25981 15.3718 5.23175 15.442 5.20509C15.8677 5.04235 18.7841 4.51061 19.2351 4.43626C19.2646 4.43205 19.2927 4.42784 19.3222 4.42363C19.429 4.411 19.5357 4.39978 19.6425 4.38855C19.9726 4.35629 20.3042 4.33384 20.6357 4.31279C20.6357 4.31279 20.6357 4.31279 20.6371 4.3142C20.4868 5.35662 20.3379 6.40044 20.1876 7.44287C20.1876 7.44287 20.1876 7.44287 20.1862 7.44287C19.9235 7.412 19.6608 7.37833 19.3981 7.34465C19.3629 7.34045 19.2548 7.32501 19.2351 7.32221C19.1424 7.30958 19.0483 7.29695 18.9555 7.28292C17.6322 7.09773 13.8405 7.26749 12.5312 7.00092C12.6197 6.92376 12.7096 6.84659 12.8009 6.77223C12.8459 6.73435 12.8922 6.69788 12.9372 6.6614H12.9386Z" fill="#C0BEBE"/>
<path d="M53.4528 20.6717C53.4402 20.7011 53.4612 20.7713 53.4641 20.7488C53.4612 20.7292 53.4542 20.6955 53.4542 20.6773C53.4542 20.6759 53.4542 20.6731 53.4542 20.6717H53.4528Z" fill="#C0BEBE"/>
<path d="M49.1371 26.5207C49.1582 26.5179 49.1905 26.5109 49.2102 26.5109C49.2102 26.5109 49.213 26.5109 49.2144 26.5109C49.1428 26.4955 49.1062 26.5193 49.1386 26.5207H49.1371Z" fill="#C0BEBE"/>
<path d="M49.1076 16.1147C49.0978 16.1147 49.0894 16.1147 49.0795 16.1147C49.1119 16.1218 49.1175 16.119 49.1076 16.1147Z" fill="#C0BEBE"/>
<path d="M49.6303 22.2697C49.6485 22.2444 49.6598 22.2079 49.6303 22.2697V22.2697Z" fill="#C0BEBE"/>
<path d="M49.567 20.3363C49.567 20.3363 49.5727 20.3602 49.6092 20.384C49.6092 20.3826 49.6078 20.3812 49.6064 20.3798C49.5937 20.3686 49.5797 20.3532 49.567 20.3363Z" fill="#C0BEBE"/>
<path d="M51.1826 19.6166C50.4282 18.7945 49.199 18.4549 48.1453 18.8688C46.9456 19.3388 46.142 20.5706 46.2544 21.8698C46.3598 23.1002 47.1914 24.1511 48.394 24.4864C49.5951 24.8217 50.8342 24.3068 51.5226 23.2896C51.8668 22.7804 52.0424 22.1167 51.9932 21.505C51.937 20.7895 51.6574 20.1554 51.184 19.6166H51.1826ZM49.959 20.3742C49.9421 20.3616 49.9211 20.3476 49.9126 20.3462C49.9239 20.3462 49.9407 20.3588 49.959 20.3742ZM49.6373 20.196C49.7216 20.2241 49.6373 20.2031 49.6036 20.1848C49.6148 20.189 49.626 20.1932 49.6373 20.196ZM49.2987 20.1035C49.4223 20.1119 49.3085 20.1217 49.2678 20.1006C49.2776 20.1006 49.2875 20.102 49.2987 20.1035ZM47.5637 20.0726C47.5637 20.0726 47.5679 20.0684 47.5693 20.067C47.5722 20.0642 47.5736 20.0642 47.5778 20.0614C47.5876 20.0543 47.5974 20.0487 47.6073 20.0417C47.5974 20.0501 47.5778 20.0642 47.5637 20.0726ZM47.6579 21.8838C47.6621 21.9049 47.6649 21.9259 47.6649 21.9245C47.6607 21.9203 47.6593 21.9021 47.6579 21.8838ZM47.9374 22.5713C47.9374 22.5713 47.9458 22.5811 47.9557 22.5938C47.9444 22.5811 47.936 22.5713 47.9374 22.5713ZM50.4633 22.3216C50.4633 22.3216 50.4661 22.3132 50.4717 22.3005C50.4675 22.3118 50.4633 22.3216 50.4633 22.3216ZM50.5869 21.8684C50.5799 21.9975 50.5687 21.8852 50.5869 21.8488C50.5869 21.8558 50.5869 21.8628 50.5869 21.8684ZM50.5926 21.8011C50.5926 21.8165 50.5912 21.8333 50.5898 21.8488C50.5617 21.8923 50.5504 22.062 50.5378 22.1069C50.5237 22.1588 50.5055 22.2079 50.4886 22.2584C50.4886 22.2598 50.4844 22.2711 50.4802 22.2837C50.4352 22.3721 50.3903 22.4591 50.3355 22.5433C50.3186 22.5685 50.254 22.6948 50.2961 22.6064C50.2961 22.6064 50.2961 22.605 50.2976 22.6036C50.2961 22.605 50.2947 22.6078 50.2933 22.6092C50.2666 22.6387 50.2414 22.6695 50.2147 22.699C50.1543 22.7649 50.0854 22.8224 50.0208 22.8842C50.0025 22.8982 49.9815 22.9164 49.9688 22.9249C49.9225 22.9571 49.8733 22.9866 49.8241 23.0161C49.7764 23.0427 49.7272 23.068 49.678 23.0918C49.6752 23.0918 49.6738 23.0918 49.671 23.0932C49.5698 23.1255 49.4701 23.1564 49.3661 23.1774C49.3423 23.1704 49.258 23.1872 49.2383 23.1886C49.1863 23.19 49.1343 23.19 49.0824 23.1886C49.0515 23.1886 48.9742 23.169 48.9391 23.176C48.8885 23.1662 48.8379 23.155 48.7887 23.1409C48.7466 23.1297 48.7031 23.1171 48.6609 23.103C48.6398 23.096 48.6188 23.0876 48.5977 23.0806C48.526 23.0455 48.4544 23.0118 48.387 22.9698C48.342 22.9431 48.2985 22.915 48.2563 22.8856C48.2493 22.88 48.2423 22.8758 48.2352 22.8701C48.1678 22.8028 48.0933 22.7439 48.0287 22.6737C48.0245 22.6681 47.9894 22.6302 47.9655 22.6022C47.9487 22.5783 47.9318 22.5559 47.9163 22.532C47.8658 22.4563 47.8208 22.3763 47.7801 22.2949C47.7745 22.2837 47.7688 22.2739 47.7632 22.2627C47.7632 22.2584 47.7618 22.2556 47.7604 22.2514C47.745 22.1897 47.7197 22.1294 47.7028 22.0662C47.686 22.0031 47.6761 21.94 47.6621 21.8768C47.6621 21.874 47.6621 21.8726 47.6607 21.8698C47.6607 21.8572 47.6607 21.8474 47.6607 21.8432C47.6508 21.7127 47.6621 21.585 47.6635 21.4545C47.6635 21.4489 47.6635 21.4447 47.6635 21.4419C47.6649 21.4349 47.6677 21.4265 47.6691 21.4209C47.6789 21.3661 47.6916 21.3114 47.7042 21.2581C47.7197 21.195 47.7393 21.1332 47.7604 21.0715C47.7674 21.0505 47.7759 21.0308 47.7829 21.0098C47.8405 20.9088 47.8897 20.8063 47.9557 20.7095C47.9697 20.6899 47.9838 20.6703 47.9978 20.6506C48.0414 20.5833 47.9599 20.7011 47.9599 20.6969C47.9669 20.6548 48.0526 20.5889 48.0835 20.5552C48.0948 20.544 48.1791 20.4584 48.2338 20.4079C48.2156 20.4191 48.2085 20.4233 48.2395 20.4023C48.2633 20.3812 48.2816 20.3658 48.283 20.3686C48.283 20.3686 48.2816 20.3728 48.276 20.3756C48.2844 20.37 48.2928 20.363 48.3027 20.3574C48.3448 20.3279 48.3898 20.3013 48.4333 20.276C48.4825 20.248 48.5345 20.2227 48.585 20.1975C48.5907 20.196 48.5949 20.1946 48.6005 20.1918C48.7031 20.1582 48.8056 20.1273 48.911 20.1077C48.9152 20.1077 48.9208 20.1063 48.925 20.1049C48.9784 20.1049 49.0318 20.0964 49.0852 20.0964C49.1343 20.0964 49.1849 20.0964 49.2341 20.0992C49.2453 20.0992 49.2552 20.1006 49.2664 20.102C49.3268 20.1427 49.4841 20.1469 49.5544 20.1694C49.5684 20.1736 49.5839 20.1792 49.5979 20.1848C49.6232 20.2045 49.7117 20.2353 49.7314 20.2452C49.7848 20.2732 49.8368 20.3041 49.8859 20.3363C49.9056 20.349 49.9239 20.3616 49.9421 20.3742C49.9702 20.3925 49.9772 20.3953 49.9758 20.3911C50.0082 20.4205 50.0391 20.457 50.0531 20.4696C50.0995 20.5145 50.1444 20.5608 50.188 20.6085C50.2006 20.624 50.2161 20.6464 50.2329 20.6689C50.2371 20.6689 50.2484 20.6759 50.2638 20.6997C50.2666 20.7039 50.2695 20.7081 50.2723 20.7123C50.2765 20.7166 50.2807 20.7208 50.2849 20.7236C50.2807 20.7208 50.2779 20.7194 50.2751 20.7166C50.2849 20.7306 50.2947 20.746 50.3046 20.76C50.3664 20.854 50.4142 20.9523 50.4675 21.0519C50.4675 21.0547 50.4703 21.0575 50.4717 21.0603C50.4886 21.1038 50.5027 21.1487 50.5167 21.1936C50.5448 21.2862 50.5617 21.3788 50.5827 21.4714C50.5841 21.4868 50.5869 21.5008 50.5869 21.5036C50.5898 21.5569 50.594 21.6103 50.594 21.6636C50.594 21.7085 50.594 21.7548 50.5912 21.7997L50.5926 21.8011Z" fill="#C0BEBE"/>
<path d="M28.9074 4.3619C28.9074 4.3619 28.9201 4.3633 28.9257 4.3647C28.9229 4.3647 28.9187 4.3647 28.9159 4.3647C28.913 4.3647 28.9102 4.3647 28.9074 4.3647V4.3619Z" fill="#C0BEBE"/>
<path d="M24.5777 12.683H22.7177C22.4438 12.683 22.2218 12.9047 22.2218 13.1783C22.2218 13.4519 22.4438 13.6735 22.7177 13.6735H24.5777C24.8516 13.6735 25.0736 13.4519 25.0736 13.1783C25.0736 12.9047 24.8516 12.683 24.5777 12.683Z" fill="#C0BEBE"/>
<path d="M34.6589 12.8191H32.7988C32.5249 12.8191 32.3029 13.0408 32.3029 13.3144C32.3029 13.588 32.5249 13.8096 32.7988 13.8096H34.6589C34.9328 13.8096 35.1548 13.588 35.1548 13.3144C35.1548 13.0408 34.9328 12.8191 34.6589 12.8191Z" fill="#C0BEBE"/>
</svg>
