<svg width="256" height="318" viewBox="0 0 256 318" fill="none" xmlns="http://www.w3.org/2000/svg">
<path d="M105.53 8.75001C105.07 8.69001 105.27 8.72001 105.53 8.75001V8.75001Z" fill="#222222"/>
<path d="M85.6302 92.26C85.8102 93.03 85.8402 92.85 85.7402 92.54C85.7202 92.49 85.7102 92.45 85.6902 92.4C85.6702 92.35 85.6502 92.31 85.6302 92.26Z" fill="#222222"/>
<path d="M83.4202 89.77C83.6502 89.96 83.8102 90.1 83.4202 89.77V89.77Z" fill="#222222"/>
<path d="M85.1902 91.53C84.5502 90.9 84.9402 91.2 85.1902 91.53V91.53Z" fill="#222222"/>
<path d="M98.5602 138.14C98.5902 138.2 98.6102 138.27 98.6302 138.34C98.6302 138.36 98.6502 138.37 98.6502 138.39C98.4402 137.67 98.4702 137.88 98.5502 138.14H98.5602Z" fill="#222222"/>
<path d="M70.0102 12.21C70.0102 12.21 69.9902 12.21 69.9802 12.22C69.7202 12.32 69.1802 12.65 70.0102 12.21Z" fill="#222222"/>
<path d="M157.42 141.66C157.51 141.54 157.6 141.42 157.7 141.33C157.7 141.33 157.71 141.31 157.72 141.3C157.33 141.6 157.31 141.73 157.42 141.66Z" fill="#222222"/>
<path d="M104.1 144.17C104.4 144.31 104.9 144.37 104.1 144.17V144.17Z" fill="#222222"/>
<path d="M56.2502 27.74C56.2502 27.74 56.2502 27.74 56.2502 27.75C56.7002 26.87 56.3502 27.5 56.2502 27.74Z" fill="#222222"/>
<path d="M255.36 304.25C255.07 300.12 253.72 296.1 251.29 292.74C245.83 285.17 237.03 280.87 228.17 278.63C222.07 277.09 215.73 276.43 209.45 276.41H203.51C203.53 274.78 203.51 273.16 203.34 271.56C202.83 267.08 201.2 263.13 198.37 259.63C192.89 252.84 183.65 250.03 175.21 250C166.92 249.97 158.64 250 150.35 250C150.37 237.29 150.4 224.58 150.44 211.87C150.48 198.69 150.51 185.51 150.51 172.32C150.51 165.91 150.49 159.51 150.47 153.1C153.66 152.62 156.81 151.77 159.52 149.95C162.43 148 164.61 145.28 166 142.08C167.54 138.56 168.38 134.85 169.17 131.1C169.43 129.84 169.7 128.59 169.97 127.33C170.03 127.13 170.08 126.92 170.1 126.71C170.74 123.69 171.38 120.67 171.98 117.64C173.95 107.8 175.46 97.88 176.23 87.88C176.94 78.65 177.17 69.49 175.42 60.36C172.69 46.1 165.26 32.98 154.62 23.12C144.39 13.63 131.61 7.06001 118.15 3.51001C105.15 0.0800133 91.3302 -0.639985 78.1202 1.98001C75.2102 2.56001 72.3402 3.32001 69.5402 4.28001C65.7702 5.57001 62.4602 7.38001 59.4402 9.98001C53.6302 14.97 49.8602 22.16 47.5602 29.36C45.3602 36.26 44.3002 43.85 45.0302 51.09C45.3602 54.37 46.0002 57.52 47.2702 60.56C48.9502 64.58 51.2102 68.22 54.1502 71.45C58.8402 76.62 64.9402 80.23 71.1502 83.26C73.8002 84.55 76.4902 85.76 79.1002 87.13C80.2102 87.71 81.3102 88.33 82.3602 89.02C82.6002 89.18 82.8502 89.34 83.0902 89.51C83.1802 89.57 83.3102 89.68 83.4302 89.78C83.3502 89.71 83.2402 89.62 83.1102 89.5C83.5502 89.88 84.0102 90.24 84.4202 90.65C84.7502 90.98 85.0202 91.37 85.3502 91.69C85.2902 91.63 85.2402 91.59 85.1902 91.53C85.2102 91.56 85.2302 91.59 85.2502 91.61C85.3802 91.81 85.5102 92.02 85.6202 92.24C85.6202 92.24 85.6202 92.25 85.6202 92.26C85.6102 92.21 85.6002 92.15 85.5802 92.09C85.6002 92.19 85.6402 92.29 85.6802 92.39C85.7002 92.44 85.7202 92.49 85.7302 92.53C85.7602 92.61 85.8002 92.69 85.8202 92.77C85.8902 93 85.9402 93.23 85.9902 93.47C86.7002 101.94 87.1902 110.43 87.8402 118.91C88.1002 122.27 88.4202 125.63 88.8102 128.97C89.2802 132.94 89.8402 136.97 91.3702 140.7C92.9502 144.54 95.3302 147.87 98.9202 150.07C100.35 150.95 101.86 151.56 103.41 152.01C103.46 164.53 103.46 177.04 103.44 189.56C103.42 202.91 103.37 216.25 103.33 229.6C103.31 236.4 103.3 243.19 103.29 249.99H82.3702C75.7002 249.99 69.1202 251.31 63.4602 255.01C59.8302 257.38 56.5602 260.6 54.6502 264.55C53.5602 266.82 52.9202 269.08 52.6102 271.57C52.4102 273.17 52.4302 274.79 52.4502 276.4H47.2702C36.3802 276.4 25.1902 278.56 15.6102 283.93C10.8502 286.6 6.42018 290.23 3.55018 294.93C2.28018 297.01 1.31017 299.37 0.880172 301.77C0.370172 304.67 0.500174 307.61 0.500174 310.55V313.64C0.500174 315.71 2.25018 317.46 4.33018 317.47C19.8702 317.51 35.4102 317.55 50.9502 317.57C67.2202 317.6 83.4902 317.61 99.7602 317.62C116.31 317.62 132.87 317.62 149.42 317.62C165.81 317.62 182.2 317.6 198.58 317.57C214.36 317.55 230.13 317.52 245.91 317.48C247.79 317.48 249.67 317.48 251.55 317.47C253.62 317.47 255.38 315.72 255.38 313.64C255.38 310.52 255.55 307.36 255.33 304.25H255.36ZM192.91 264.98C192.91 264.98 192.94 265.01 192.95 265.03C193.23 265.36 193.06 265.16 192.91 264.98ZM185.59 259.55C185.53 259.53 185.48 259.51 185.48 259.51C185.48 259.51 185.53 259.52 185.59 259.55ZM97.1002 8.07001C98.7002 8.12001 100.3 8.22001 101.9 8.35001C102.64 8.41001 103.37 8.49001 104.11 8.57001C104.51 8.62001 104.91 8.66001 105.32 8.71001C105.52 8.74001 105.72 8.76001 105.92 8.79001C105.76 8.77001 105.63 8.76001 105.53 8.74001C105.67 8.76001 105.82 8.78001 105.91 8.79001C112.34 9.72001 118.67 11.33 124.76 13.61C125.47 13.88 126.17 14.15 126.88 14.44C127.17 14.56 128.52 15.15 127.3 14.61C127.68 14.78 128.06 14.94 128.44 15.1C129.95 15.77 131.45 16.48 132.92 17.24C134.61 18.11 136.27 19.05 137.9 20.03C136.7 21.22 135.51 22.4 134.31 23.59C133.79 24.11 133.47 24.89 133.47 25.62C133.47 26.35 133.78 27.16 134.31 27.65C134.86 28.15 135.57 28.52 136.34 28.49C137.1 28.46 137.82 28.2 138.37 27.65C139.84 26.19 141.32 24.72 142.79 23.26C142.96 23.38 143.12 23.49 143.29 23.61C143.62 23.85 143.96 24.1 144.29 24.35C144.42 24.45 144.55 24.54 144.67 24.64C145.96 25.66 147.23 26.71 148.45 27.82C148.64 27.99 148.83 28.18 149.02 28.35C146.83 30.21 144.64 32.06 142.44 33.92C141.91 34.37 141.6 35.27 141.6 35.95C141.6 36.63 141.91 37.49 142.44 37.98C142.99 38.48 143.7 38.85 144.47 38.82C145.27 38.78 145.89 38.49 146.5 37.98C148.69 36.12 150.89 34.27 153.08 32.41C153.85 33.25 154.61 34.1 155.34 34.98C155.56 35.25 155.78 35.52 156 35.79C156.19 36.03 157.07 37.22 156.3 36.16C156.79 36.84 157.31 37.5 157.79 38.18C158.03 38.52 158.25 38.86 158.48 39.2C158.41 39.26 158.33 39.31 158.26 39.38C156.81 40.83 155.35 42.29 153.9 43.74C153.38 44.26 153.06 45.03 153.06 45.77C153.06 46.51 153.37 47.31 153.9 47.8C154.45 48.3 155.16 48.67 155.93 48.64C156.69 48.61 157.41 48.35 157.96 47.8C159.16 46.6 160.36 45.4 161.56 44.2C162.05 45.09 162.53 45.99 162.98 46.91C163.33 47.62 163.66 48.33 163.98 49.06C164.11 49.34 164.64 50.75 164.2 49.54C164.38 50.02 164.59 50.48 164.77 50.96C166.04 54.23 167.04 57.61 167.77 61.04C167.96 61.95 168.14 62.86 168.29 63.77C168.36 64.16 168.42 64.54 168.48 64.93C168.52 65.16 168.55 65.4 168.58 65.63C168.58 65.65 168.58 65.66 168.58 65.68C168.58 65.72 168.58 65.75 168.59 65.79C168.83 67.72 168.99 69.65 169.08 71.59C169.3 76.34 169.03 81.1 168.71 85.84C168.53 88.49 168.31 91.14 168.03 93.78C167.91 94.93 167.78 96.07 167.64 97.22C167.57 97.83 167.49 98.44 167.41 99.05C167.41 99.09 167.39 99.2 167.38 99.31C167.38 99.29 167.38 99.27 167.38 99.24C167.33 99.64 167.27 100.04 167.21 100.43C166.13 108.08 164.57 115.64 162.99 123.2C162.75 123.21 162.52 123.23 162.28 123.23C162 123.23 161.71 123.22 161.43 123.2C161.39 123.2 161.35 123.2 161.31 123.19C161.19 123.1 160.64 123.07 160.51 123.04C160.15 122.95 159.79 122.85 159.44 122.73C159.38 122.71 159.31 122.69 159.25 122.66C159.09 122.54 158.72 122.43 158.58 122.36C158.1 122.11 157.66 121.82 157.21 121.53C157.13 121.47 157.03 121.4 157 121.37C156.76 121.17 156.54 120.95 156.32 120.73C156.15 120.56 155.99 120.38 155.83 120.2C155.76 120.1 155.66 119.97 155.63 119.93C155.28 119.42 154.97 118.89 154.69 118.33C154.6 118.15 154.42 117.71 154.4 117.7C154.31 117.46 154.21 117.21 154.13 116.97C153.93 116.38 153.77 115.78 153.63 115.18C153.56 114.88 153.5 114.57 153.44 114.26C153.41 114.11 153.38 113.95 153.36 113.8C153.36 113.76 153.33 113.59 153.3 113.44C153.28 113.28 153.23 112.88 153.22 112.79C153.19 112.48 153.16 112.16 153.14 111.85C153.09 111.17 153.06 110.49 153.04 109.8C153 108.25 153.02 106.7 153.07 105.16C153.28 98.69 154.1 92.26 154.56 85.81C155 79.71 155 73.66 154.13 67.59C153.31 61.91 151.5 56.24 148.4 51.37C145.33 46.53 141.15 42.61 136.46 39.37C127.14 32.93 116.09 29.75 105.62 25.7C104.95 25.44 104.28 25.18 103.61 24.91C103.3 24.79 103 24.66 102.69 24.54C102.56 24.49 102.19 24.33 102.05 24.27C100.79 23.73 99.5502 23.18 98.3202 22.59C95.8002 21.38 93.3302 20.04 90.9802 18.51C90.3902 18.12 89.8002 17.73 89.2202 17.32C88.9702 17.14 88.7302 16.95 88.4802 16.78C89.0802 17.21 88.3802 16.7 88.1702 16.52C87.7002 16.13 87.2402 15.72 86.8102 15.28C86.5602 15.03 86.3102 14.77 86.0802 14.5C86.0002 14.41 85.9202 14.31 85.8402 14.22C85.8402 14.22 85.8402 14.22 85.8402 14.2C85.6902 13.94 85.5002 13.7 85.3402 13.44C85.2502 13.29 84.9802 12.65 85.0302 12.86C85.0102 12.78 84.9902 12.72 84.9802 12.69C84.9502 12.57 84.9302 12.45 84.8902 12.33C84.8902 12.32 84.8902 12.31 84.8902 12.3C84.8602 11.81 84.8402 11.33 84.8802 10.83C84.8802 10.78 84.9102 10.64 84.9202 10.53C84.9702 10.27 85.0202 10.01 85.0902 9.75001C85.1602 9.47001 85.2502 9.19001 85.3402 8.92001C85.3602 8.86001 85.3902 8.77001 85.4202 8.68001C85.4202 8.67001 85.4302 8.66001 85.4402 8.64001C85.4602 8.61001 85.4702 8.58001 85.4902 8.55001C86.2802 8.46001 87.0702 8.39001 87.8602 8.32001C90.9302 8.08001 94.0202 8.01001 97.1102 8.11001L97.1002 8.07001ZM101.93 142.88C101.83 142.79 101.72 142.7 101.62 142.61C101.32 142.34 101.04 142.06 100.77 141.77C100.64 141.62 100.5 141.48 100.38 141.33C100.35 141.3 100.34 141.28 100.32 141.26C99.9102 140.68 99.5302 140.08 99.1902 139.46C99.0002 139.11 98.8302 138.76 98.6702 138.4C98.6702 138.43 98.6902 138.45 98.7002 138.49C98.6902 138.44 98.6702 138.4 98.6502 138.35C98.6202 138.29 98.6002 138.23 98.5802 138.16C98.5402 138.07 98.5002 137.98 98.4702 137.89C97.8302 136.19 97.3902 134.41 97.0502 132.63C96.8802 131.74 96.7502 130.84 96.6102 129.95C96.5802 129.71 96.5502 129.47 96.5202 129.23C96.4602 128.71 96.4002 128.18 96.3402 127.66C95.5902 121.01 95.2102 114.34 94.7502 107.67C94.4302 102.91 94.0602 98.15 93.6702 93.39C93.6602 93.26 93.6402 93.13 93.6202 92.99C93.2902 90.21 92.2002 87.82 90.3002 85.72C88.6202 83.87 86.4302 82.45 84.2702 81.23C79.1002 78.33 73.5402 76.2 68.4502 73.15C67.0602 72.31 65.7002 71.42 64.3902 70.46C64.2602 70.36 64.1302 70.26 63.9902 70.16C63.6602 69.89 63.3302 69.63 63.0002 69.35C62.3402 68.8 61.7102 68.22 61.0902 67.62C60.5202 67.06 59.9602 66.48 59.4202 65.89C59.1202 65.56 58.8302 65.22 58.5502 64.88C58.4202 64.72 58.2802 64.55 58.1502 64.39C58.1202 64.35 58.0802 64.3 58.0402 64.24C56.9502 62.76 55.9802 61.18 55.1602 59.54C54.9602 59.14 54.7602 58.73 54.5802 58.32C54.5502 58.24 54.5102 58.17 54.4802 58.09C54.3202 57.71 54.3402 57.78 54.5702 58.31C54.4402 58.15 54.3602 57.8 54.2802 57.6C54.0202 56.93 53.7902 56.26 53.5902 55.57C53.1902 54.19 53.0502 52.79 52.7202 51.4C53.0402 52.77 52.7402 51.48 52.7002 51.1C52.6702 50.78 52.6402 50.45 52.6102 50.13C52.5402 49.26 52.5102 48.4 52.4902 47.53C52.4602 45.84 52.5302 44.15 52.6702 42.47C52.7402 41.67 52.8502 40.87 52.9302 40.08C52.8002 41.43 52.9702 39.88 53.0202 39.56C53.0902 39.12 53.1702 38.68 53.2502 38.24C53.5802 36.46 53.9902 34.69 54.4902 32.95C54.9902 31.2 55.5802 29.48 56.2602 27.79C56.2502 27.81 56.2402 27.83 56.2302 27.85C56.3202 27.68 56.3802 27.5 56.4602 27.33C56.6302 26.95 56.8002 26.57 56.9802 26.2C57.4002 25.32 57.8402 24.45 58.3202 23.6C59.1402 22.13 60.0602 20.74 61.0602 19.38C61.1802 19.23 61.3102 19.07 61.4302 18.92C61.7102 18.59 61.9902 18.26 62.2802 17.94C62.8502 17.3 63.4502 16.69 64.0802 16.11C64.3902 15.82 64.7102 15.54 65.0302 15.27C65.1502 15.17 65.2702 15.07 65.3902 14.97C66.1002 14.5 66.7702 13.98 67.5002 13.54C68.1602 13.14 68.8502 12.78 69.5502 12.45C69.7402 12.36 69.9402 12.29 70.1302 12.19C70.0902 12.21 70.0702 12.22 70.0302 12.24C70.4302 12.08 70.8402 11.94 71.2502 11.8C73.2402 11.1 75.2702 10.51 77.3102 10.02C77.2502 10.57 77.2102 11.12 77.2202 11.67C77.2602 15.03 78.7702 17.85 81.0102 20.27C83.0402 22.46 85.6102 24.2 88.1302 25.77C90.6002 27.31 93.1902 28.65 95.8402 29.86C101.43 32.42 107.22 34.46 112.99 36.58C114.34 37.08 115.69 37.58 117.04 38.1C117.71 38.36 118.38 38.62 119.05 38.89C119.41 39.03 119.77 39.18 120.13 39.33C120.28 39.39 120.43 39.45 120.58 39.52C123.08 40.61 125.55 41.76 127.93 43.09C129.14 43.76 130.33 44.48 131.5 45.24C132.06 45.6 132.61 45.98 133.15 46.36C133.4 46.54 133.65 46.72 133.89 46.9C134.01 46.99 134.13 47.09 134.26 47.17C134.27 47.17 134.28 47.18 134.29 47.19C134.3 47.2 134.32 47.21 134.33 47.22C136.43 48.9 138.39 50.74 140.1 52.82C140.16 52.89 140.41 53.21 140.5 53.32C140.51 53.34 140.52 53.35 140.53 53.36C140.65 53.52 140.77 53.69 140.89 53.85C141.28 54.4 141.65 54.96 142.01 55.53C142.78 56.77 143.44 58.06 144.05 59.38C144.09 59.46 144.11 59.52 144.13 59.55C144.14 59.58 144.15 59.6 144.17 59.65C144.31 60 144.45 60.35 144.58 60.7C144.84 61.41 145.08 62.12 145.3 62.84C145.71 64.18 146.05 65.55 146.33 66.92C146.47 67.61 146.59 68.31 146.7 69C146.74 69.22 146.77 69.45 146.8 69.67C146.79 69.6 146.89 70.4 146.91 70.57C147.07 72.04 147.17 73.51 147.23 74.98C147.35 78.03 147.26 81.09 147.07 84.13C146.66 90.78 145.79 97.39 145.51 104.05C145.25 110.25 145.29 116.87 148.28 122.48C150.85 127.31 155.99 130.6 161.45 130.88C160.95 133.19 160.4 135.48 159.61 137.7C159.48 138.07 159.32 138.43 159.19 138.8C159.62 137.53 159.19 138.8 159.04 139.11C158.72 139.77 158.36 140.42 157.96 141.03C157.89 141.13 157.82 141.23 157.75 141.33C157.78 141.31 157.79 141.29 157.82 141.27C157.79 141.29 157.76 141.33 157.73 141.36C157.7 141.4 157.68 141.44 157.65 141.47C157.57 141.59 157.5 141.66 157.45 141.69C157.38 141.78 157.31 141.88 157.24 141.95C157 142.22 156.75 142.47 156.49 142.72C156.36 142.84 156.22 142.96 156.09 143.08C156.08 143.09 156.07 143.1 156.06 143.11C155.5 143.48 154.96 143.85 154.36 144.16C154.03 144.33 152.78 144.72 153.98 144.37C153.5 144.51 153.03 144.73 152.55 144.88C151.72 145.14 150.87 145.34 150.01 145.51C149.76 145.56 149.51 145.6 149.25 145.64C149.19 145.65 149.1 145.67 149.01 145.7C148.52 145.8 147.95 145.8 147.47 145.84C142.19 146.34 136.89 146.51 131.59 146.5C125.85 146.49 120.1 146.25 114.37 145.85C112.86 145.74 111.35 145.63 109.85 145.5C109.42 145.46 108.66 145.54 108.26 145.35L108.74 145.42C108.56 145.4 108.39 145.37 108.21 145.34C107.87 145.28 107.53 145.22 107.19 145.15C106.29 144.96 105.4 144.71 104.54 144.39C104.37 144.33 104.19 144.23 104.01 144.19C104.05 144.2 104.08 144.21 104.12 144.22C103.67 144.01 103.24 143.77 102.82 143.51C102.53 143.33 102.25 143.1 101.95 142.92L101.93 142.88ZM113.23 153.38C123.05 154.1 132.98 154.42 142.82 153.81C142.86 165.73 142.86 177.65 142.84 189.57C142.82 202.92 142.77 216.26 142.73 229.61C142.71 236.41 142.7 243.2 142.69 250C132.11 250 121.54 250 110.96 250C110.98 237.29 111.01 224.58 111.05 211.87C111.09 198.69 111.12 185.51 111.12 172.32C111.12 165.96 111.1 159.59 111.08 153.23C111.79 153.29 112.51 153.34 113.22 153.39L113.23 153.38ZM60.1402 275.17C60.1402 274.99 60.3102 272.16 60.2802 271.75C60.2802 271.74 60.2802 271.73 60.2802 271.71C60.3302 271.46 60.3802 271.22 60.4302 270.97C60.5202 270.57 60.6302 270.17 60.7602 269.77C60.8202 269.58 61.1402 268.97 61.2402 268.61C61.1602 268.81 61.0102 268.96 61.1802 268.62C61.2102 268.56 61.2402 268.5 61.2702 268.44C61.2702 268.42 61.2702 268.4 61.2702 268.38C61.2702 268.39 61.2702 268.41 61.2702 268.43C61.3802 268.2 61.4902 267.97 61.6102 267.75C61.7002 267.57 62.9402 265.42 63.0502 265.48C62.4902 266.17 63.0302 265.48 63.0502 265.48C63.1802 265.32 63.3102 265.17 63.4502 265.01C63.8002 264.61 64.1702 264.22 64.5602 263.84C64.8602 263.55 65.1602 263.27 65.4802 262.99C65.6702 262.82 65.8702 262.67 66.0602 262.5C66.0802 262.49 66.0902 262.48 66.1002 262.46C66.9302 261.87 67.7602 261.3 68.6502 260.8C69.4602 260.34 70.2902 259.93 71.1402 259.55C71.3402 259.48 71.5302 259.39 71.7302 259.32C72.3002 259.11 72.8802 258.91 73.4702 258.73C74.3902 258.45 75.3302 258.22 76.2802 258.03C76.7102 257.95 77.1302 257.88 77.5602 257.81C77.5702 257.81 77.5802 257.81 77.6002 257.81C77.9502 257.78 78.3002 257.74 78.6502 257.71C79.5602 257.64 80.4802 257.63 81.3902 257.63H106.04C118.81 257.63 131.58 257.63 144.35 257.63H174.78C175.3 257.63 175.82 257.63 176.34 257.65C176.9 257.67 177.46 257.7 178.01 257.74C178.28 257.76 178.56 257.79 178.83 257.82C178.89 257.82 178.99 257.83 179.09 257.83C179.98 257.88 180.93 258.15 181.78 258.36C182.78 258.6 183.77 258.89 184.75 259.24C184.99 259.33 185.22 259.41 185.46 259.5C185.61 259.56 185.69 259.59 185.75 259.61C186.07 259.76 186.56 260 186.59 260.01C187.45 260.44 188.29 260.92 189.1 261.45C189.43 261.67 189.75 261.91 190.07 262.14C190.23 262.28 190.4 262.41 190.56 262.55C191.25 263.15 191.91 263.8 192.51 264.49C192.61 264.6 192.7 264.71 192.79 264.83C192.93 265.18 193.33 265.58 193.54 265.9C193.93 266.51 194.2 267.22 194.55 267.85C194.52 267.75 194.66 267.9 194.74 268.13C194.75 268.16 194.76 268.19 194.77 268.22C194.79 268.25 194.8 268.28 194.82 268.3C194.8 268.28 194.79 268.26 194.78 268.24C194.83 268.38 194.89 268.52 194.94 268.67C195.09 269.11 195.23 269.55 195.34 270C195.44 270.38 195.53 270.76 195.6 271.15C195.63 271.33 195.64 271.62 195.71 271.8C195.71 271.88 195.73 271.95 195.73 272.03C195.86 273.48 195.84 274.94 195.82 276.4C189.94 276.4 184.06 276.4 178.18 276.4C161.23 276.4 144.28 276.4 127.32 276.4C110.36 276.4 93.7502 276.4 76.9702 276.4H60.1402V275.16V275.17ZM204.58 309.9C188.24 309.92 171.91 309.94 155.57 309.95C139.01 309.96 122.46 309.96 105.9 309.95C93.8802 309.95 81.8602 309.93 69.8402 309.92C70.3202 309.08 70.8302 308.25 71.3502 307.44C71.8802 306.62 72.4302 305.82 73.0002 305.03C73.2802 304.64 73.5702 304.25 73.8602 303.87C73.9002 303.82 73.9602 303.74 73.9802 303.71C74.1502 303.49 74.3202 303.28 74.4902 303.07C74.9802 302.46 75.3302 301.86 75.3302 301.04C75.3302 300.34 75.0202 299.5 74.4902 299.01C73.4402 298.05 71.4402 297.76 70.4302 299.01C67.7402 302.33 65.3702 305.87 63.4402 309.68C63.4002 309.75 63.3802 309.83 63.3502 309.91C61.2002 309.91 59.0602 309.91 56.9102 309.91C55.7902 309.91 54.6702 309.91 53.5502 309.91L64.7802 295.52C65.7302 294.3 65.9702 292.65 64.7802 291.46C63.7902 290.47 61.6802 290.23 60.7202 291.46C55.9202 297.6 51.1302 303.75 46.3302 309.89C43.4702 309.89 40.6102 309.88 37.7402 309.87C39.7102 307.41 41.6702 304.96 43.6402 302.5C44.1302 301.88 44.4802 301.29 44.4802 300.47C44.4802 299.77 44.1702 298.93 43.6402 298.44C42.6002 297.48 40.5802 297.19 39.5802 298.44C36.6702 302.08 33.7602 305.71 30.8502 309.35C30.7202 309.52 30.6002 309.68 30.4902 309.85C23.6402 309.84 16.7902 309.83 9.94018 309.81C9.35018 309.81 8.77017 309.81 8.18017 309.81C8.18017 308.56 8.18017 307.3 8.18017 306.05C8.18017 305.42 8.18018 304.79 8.24018 304.16C8.26018 303.93 8.44018 303.03 8.24018 304.07C8.29018 303.8 8.33017 303.52 8.39017 303.25C8.50017 302.71 8.65018 302.18 8.82018 301.65C8.90018 301.39 9.01017 301.13 9.09017 300.87C9.10017 300.84 9.11017 300.81 9.12017 300.79C9.12017 300.79 9.12018 300.78 9.13018 300.77C9.62018 299.75 10.1602 298.77 10.8002 297.84C10.8902 297.72 10.9802 297.59 11.0702 297.47C11.1102 297.43 11.3702 297.08 11.4402 297C11.8202 296.54 12.2202 296.1 12.6302 295.68C13.4402 294.85 14.3002 294.09 15.2002 293.35C15.3302 293.24 15.5602 293.07 15.6102 293.03C15.8702 292.84 16.1302 292.65 16.4002 292.47C16.9402 292.1 17.4902 291.74 18.0502 291.39C19.2102 290.68 20.4002 290.02 21.6202 289.42C22.2502 289.11 22.8902 288.82 23.5302 288.53C23.6102 288.49 23.6702 288.46 23.7202 288.44C23.7702 288.42 23.8402 288.4 23.9202 288.36C24.2502 288.23 24.5902 288.09 24.9202 287.96C26.2902 287.44 27.6802 286.97 29.0802 286.55C31.9802 285.69 34.9402 285.08 37.9302 284.61C38.0402 284.59 38.1202 284.58 38.1802 284.57C38.2402 284.57 38.3202 284.55 38.4302 284.54C38.8102 284.49 39.1902 284.45 39.5702 284.41C40.3302 284.33 41.1002 284.26 41.8702 284.21C43.4002 284.1 44.9402 284.05 46.4802 284.05C55.4702 284.03 64.4602 284.05 73.4502 284.05C89.7302 284.05 106.02 284.05 122.3 284.05C139.36 284.05 156.42 284.05 173.48 284.05C184.78 284.05 196.09 284.05 207.39 284.05H209.43C212.12 284.05 214.81 284.18 217.49 284.45C218.08 284.51 218.68 284.58 219.27 284.66C219.4 284.68 220.14 284.79 220.3 284.81C221.59 285.01 222.88 285.25 224.16 285.53C226.41 286.02 228.64 286.64 230.81 287.4C231.34 287.59 231.87 287.78 232.4 287.99C232.61 288.07 232.81 288.16 233.02 288.24C233.08 288.26 233.13 288.28 233.17 288.3C233.21 288.32 233.26 288.34 233.32 288.37C234.29 288.81 235.26 289.26 236.2 289.77C237.01 290.21 237.81 290.67 238.59 291.17C239.01 291.44 239.42 291.71 239.83 292C239.99 292.11 240.15 292.23 240.31 292.34C240.4 292.41 240.5 292.48 240.59 292.55C241.93 293.78 243.24 294.93 244.44 296.31C244.45 296.33 244.46 296.33 244.47 296.34C244.58 296.5 244.7 296.65 244.8 296.8C245.05 297.16 245.29 297.52 245.52 297.89C245.93 298.56 246.27 299.27 246.62 299.97C246.33 299.39 246.77 300.33 246.85 300.57C246.98 300.93 247.09 301.3 247.2 301.67C247.32 302.08 247.42 302.5 247.5 302.92C247.53 303.09 247.57 303.26 247.6 303.43C247.6 303.48 247.62 303.54 247.63 303.59C247.63 305.65 247.67 307.72 247.7 309.79C233.32 309.82 218.94 309.85 204.56 309.87L204.58 309.9Z" fill="#222222"/>
<path d="M194.78 268.23C194.7 268.11 194.63 267.99 194.56 267.86C194.58 267.91 194.64 268.04 194.79 268.25C194.79 268.25 194.79 268.24 194.79 268.23H194.78Z" fill="#222222"/>
<path d="M61.2702 268.44C61.2702 268.49 61.2702 268.54 61.2402 268.61C61.2602 268.55 61.2802 268.49 61.2702 268.43V268.44Z" fill="#222222"/>
<path d="M223.78 291.47C223.09 291.25 222.19 291.4 221.57 291.76C220.97 292.11 220.41 292.79 220.25 293.47C220.08 294.2 220.12 295.03 220.54 295.68C220.95 296.32 221.52 296.76 222.25 297C222.36 297.04 222.47 297.08 222.59 297.12C223.08 297.35 223.54 297.62 223.99 297.93C224.4 298.28 224.78 298.66 225.13 299.07C225.35 299.38 225.55 299.7 225.73 300.04C226.05 300.66 226.78 301.18 227.44 301.36C228.13 301.55 229.04 301.46 229.65 301.07C230.26 300.68 230.8 300.09 230.97 299.36C231.15 298.59 231.05 297.86 230.68 297.15C229.26 294.43 226.69 292.4 223.78 291.47Z" fill="#222222"/>
<path d="M176.02 266.99C176.39 267.16 176.73 267.37 177.06 267.6C177.35 267.85 177.63 268.12 177.88 268.42C178.11 268.76 178.32 269.11 178.5 269.48C178.61 269.8 178.71 270.13 178.78 270.46C178.92 271.14 179.52 271.84 180.1 272.17C180.72 272.53 181.62 272.68 182.31 272.46C183 272.24 183.67 271.81 184.02 271.14C184.39 270.43 184.47 269.72 184.31 268.93C184.15 268.13 183.84 267.38 183.5 266.64C183.16 265.9 182.68 265.26 182.17 264.62C181.8 264.16 181.39 263.74 180.93 263.37C180.29 262.86 179.65 262.38 178.91 262.04C178.58 261.83 178.22 261.72 177.84 261.7C177.46 261.61 177.08 261.63 176.7 261.75C176.03 261.93 175.31 262.45 174.99 263.07C174.64 263.74 174.46 264.54 174.7 265.28C174.92 265.95 175.35 266.68 176.02 266.99Z" fill="#222222"/>
<path d="M93.0002 74.93C92.3002 74.59 91.5602 74.43 90.7902 74.64C90.1202 74.82 89.4002 75.34 89.0802 75.96C88.4002 77.26 88.6702 79.18 90.1102 79.89C90.8402 80.25 91.5302 80.68 92.1902 81.16C92.9302 81.77 93.6002 82.44 94.2002 83.18C94.7602 83.95 95.2302 84.76 95.6302 85.62C95.7202 85.86 95.8202 86.1 95.9002 86.34C96.1302 87.05 96.5602 87.67 97.2202 88.05C97.8402 88.41 98.7402 88.56 99.4302 88.34C100.85 87.88 101.94 86.34 101.43 84.81C100.03 80.59 97.0102 76.91 93.0102 74.92L93.0002 74.93Z" fill="#222222"/>
<path d="M118.39 206.82C119.88 206.75 121.34 205.56 121.26 203.95C121.09 200.68 120.92 197.4 120.74 194.13C120.66 192.63 119.48 191.19 117.87 191.26C116.38 191.33 114.92 192.52 115 194.13C115.17 197.4 115.34 200.68 115.52 203.95C115.6 205.45 116.78 206.89 118.39 206.82Z" fill="#222222"/>
</svg>
