<svg width="14" height="9" viewBox="0 0 14 9" fill="none" xmlns="http://www.w3.org/2000/svg">
<path d="M0.991029 8.03534C1.17856 8.22281 1.43286 8.32812 1.69803 8.32812C1.96319 8.32812 2.2175 8.22281 2.40503 8.03534L7.35503 3.08534L12.305 8.03534C12.4936 8.2175 12.7462 8.31829 13.0084 8.31601C13.2706 8.31373 13.5214 8.20857 13.7068 8.02316C13.8923 7.83775 13.9974 7.58694 13.9997 7.32474C14.002 7.06254 13.9012 6.80994 13.719 6.62134L8.06203 0.964338C7.8745 0.776867 7.62019 0.671552 7.35503 0.671552C7.08986 0.671552 6.83556 0.776867 6.64803 0.964338L0.991029 6.62134C0.803558 6.80887 0.698242 7.06317 0.698242 7.32834C0.698242 7.5935 0.803558 7.84781 0.991029 8.03534Z" fill="#222222"/>
</svg>
