<svg width="22" height="24" viewBox="0 0 22 24" fill="none" xmlns="http://www.w3.org/2000/svg">
<path d="M1.5 19.875H0.5H1.5ZM6.25 14.625V13.625V14.625ZM15.75 14.625V13.625V14.625ZM1.5 19.875H2.5C2.5 18.7173 2.917 17.6247 3.63278 16.8336L2.89124 16.1627L2.14971 15.4918C1.08389 16.6698 0.5 18.2479 0.5 19.875H1.5ZM2.89124 16.1627L3.63278 16.8336C4.34555 16.0458 5.28957 15.625 6.25 15.625V14.625V13.625C4.69087 13.625 3.21853 14.3104 2.14971 15.4918L2.89124 16.1627ZM6.25 14.625V15.625H15.75V14.625V13.625H6.25V14.625ZM15.75 14.625V15.625C16.7104 15.625 17.6544 16.0458 18.3672 16.8336L19.1088 16.1627L19.8503 15.4918C18.7815 14.3104 17.3091 13.625 15.75 13.625V14.625ZM19.1088 16.1627L18.3672 16.8336C19.083 17.6247 19.5 18.7173 19.5 19.875H20.5H21.5C21.5 18.2479 20.9161 16.6698 19.8503 15.4918L19.1088 16.1627ZM20.5 19.875H19.5C19.5 20.3365 19.3332 20.7614 19.0628 21.0602L19.8044 21.7312L20.5459 22.4021C21.1663 21.7163 21.5 20.8059 21.5 19.875H20.5ZM19.8044 21.7312L19.0628 21.0602C18.7955 21.3558 18.4555 21.5 18.125 21.5V22.5V23.5C19.0542 23.5 19.9225 23.0911 20.5459 22.4021L19.8044 21.7312ZM18.125 22.5V21.5H3.875V22.5V23.5H18.125V22.5ZM3.875 22.5V21.5C3.54446 21.5 3.20453 21.3558 2.93716 21.0602L2.19562 21.7312L1.45409 22.4021C2.07751 23.0911 2.94576 23.5 3.875 23.5V22.5ZM2.19562 21.7312L2.93716 21.0602C2.66678 20.7614 2.5 20.3365 2.5 19.875H1.5H0.5C0.5 20.8059 0.833663 21.7163 1.45409 22.4021L2.19562 21.7312ZM14.5625 5.4375H13.5625C13.5625 7.15635 12.3234 8.375 11 8.375V9.375V10.375C13.6116 10.375 15.5625 8.06789 15.5625 5.4375H14.5625ZM11 9.375V8.375C9.67658 8.375 8.4375 7.15635 8.4375 5.4375H7.4375H6.4375C6.4375 8.06789 8.38839 10.375 11 10.375V9.375ZM7.4375 5.4375H8.4375C8.4375 3.71865 9.67658 2.5 11 2.5V1.5V0.5C8.38839 0.5 6.4375 2.80711 6.4375 5.4375H7.4375ZM11 1.5V2.5C12.3234 2.5 13.5625 3.71865 13.5625 5.4375H14.5625H15.5625C15.5625 2.80711 13.6116 0.5 11 0.5V1.5Z" fill="#222222"/>
</svg>
