<svg width="274" height="250" viewBox="0 0 274 250" fill="none" xmlns="http://www.w3.org/2000/svg">
<g clip-path="url(#clip0_691_5522)">
<path d="M153.205 243.352H9.41567C7.46631 243.352 5.51696 243.325 3.5676 243.352C3.4817 243.352 3.4024 243.352 3.3165 243.352C1.58521 243.352 -0.0667861 244.873 0.0125097 246.659C0.0918055 248.452 1.46627 249.967 3.3165 249.967H147.106C149.056 249.967 151.005 249.994 152.954 249.967C153.04 249.967 153.119 249.967 153.205 249.967C154.937 249.967 156.589 248.446 156.509 246.659C156.43 244.867 155.056 243.352 153.205 243.352Z" fill="black"/>
<path d="M270.663 243.351H202.197C199.025 243.351 195.84 243.272 192.675 243.351C192.629 243.351 192.589 243.351 192.543 243.351C190.812 243.351 189.16 244.873 189.239 246.659C189.318 248.452 190.693 249.967 192.543 249.967H261.008C264.18 249.967 267.365 250.046 270.53 249.967C270.577 249.967 270.616 249.967 270.663 249.967C272.394 249.967 274.046 248.445 273.967 246.659C273.887 244.866 272.513 243.351 270.663 243.351Z" fill="black"/>
<path d="M40.2166 139.911C39.6417 139.607 38.9478 139.455 38.3069 139.66C38.1086 139.746 37.9104 139.825 37.7122 139.911C37.4941 140.043 37.3025 140.209 37.1373 140.394C36.5624 141.135 35.9016 141.79 35.1747 142.379C34.5535 142.822 33.8927 143.206 33.1989 143.523C32.6967 143.715 32.1945 143.887 31.6725 144.013C30.4103 144.317 29.5381 145.819 29.9412 147.063C30.3641 148.372 31.6394 149.127 32.9874 148.796C34.5073 148.425 36.0073 147.784 37.3157 146.917C38.8157 145.925 40.0183 144.734 41.102 143.305C41.4655 142.829 41.5051 141.942 41.3532 141.393C41.1946 140.817 40.7518 140.196 40.2166 139.911Z" fill="black"/>
<path d="M257.48 195.356C258.114 195.501 258.828 195.468 259.389 195.104C259.938 194.754 260.347 194.258 260.526 193.622C260.942 192.154 261.365 190.685 261.781 189.223C261.96 188.608 261.854 187.86 261.53 187.311C261.226 186.795 260.638 186.306 260.05 186.173C259.416 186.028 258.702 186.061 258.14 186.425C257.592 186.775 257.182 187.272 257.004 187.907C256.588 189.375 256.165 190.844 255.748 192.306C255.57 192.921 255.676 193.669 255.999 194.218C256.303 194.734 256.891 195.223 257.48 195.356Z" fill="black"/>
<path d="M80.3268 190.97C80.3136 190.877 80.2806 190.718 80.2806 190.632C80.2806 190.626 80.2806 190.613 80.2806 190.606C80.2211 190.745 80.3202 191.076 80.3334 190.97H80.3268Z" fill="black"/>
<path d="M47.9943 170.594C47.9943 170.594 47.9943 170.594 47.9876 170.594C47.9017 170.667 47.7894 170.72 47.6639 170.766C47.611 170.832 47.7431 170.826 48.0009 170.587L47.9943 170.594Z" fill="black"/>
<path d="M59.9749 218.18C60.0741 218.166 60.226 218.133 60.3185 218.133C60.3185 218.133 60.3318 218.133 60.3384 218.133C60.0014 218.061 59.8296 218.173 59.9815 218.18H59.9749Z" fill="black"/>
<path d="M59.7371 169.079C59.6578 169.066 59.5785 169.059 59.4992 169.046C59.4728 169.046 59.4464 169.046 59.4199 169.04C59.9684 169.192 59.9155 169.119 59.7371 169.079Z" fill="black"/>
<path d="M62.1949 189.243C62.1949 189.243 62.1883 189.23 62.1817 189.223C62.1222 189.17 62.0561 189.097 61.9967 189.018C61.9702 189.025 62.0231 189.131 62.1949 189.243Z" fill="black"/>
<path d="M52.6462 187.722C52.6462 187.722 52.6197 187.741 52.6065 187.748C52.5999 187.755 52.5867 187.768 52.5801 187.774C52.6462 187.728 52.7387 187.669 52.7849 187.629C52.7387 187.662 52.6924 187.695 52.6462 187.722Z" fill="black"/>
<path d="M62.293 198.134C62.3789 198.015 62.4317 197.843 62.293 198.134V198.134Z" fill="black"/>
<path d="M66.4566 184.057C62.9081 180.18 57.1261 178.579 52.1701 180.53C46.5269 182.747 42.7472 188.555 43.2758 194.681C43.7714 200.483 47.6833 205.438 53.3331 207.019C58.983 208.6 64.8112 206.172 68.0491 201.376C69.6681 198.974 70.4941 195.845 70.2628 192.961C69.9985 189.587 68.6835 186.597 66.4566 184.057ZM60.701 187.629C60.6217 187.569 60.5226 187.503 60.483 187.497C60.5358 187.497 60.6151 187.556 60.701 187.629ZM59.0292 186.736C59.0821 186.756 59.1349 186.775 59.1878 186.789C59.5843 186.921 59.1878 186.822 59.0292 186.736ZM57.4499 186.339C57.4962 186.339 57.5424 186.345 57.5953 186.352C58.1768 186.392 57.6415 186.438 57.4499 186.339ZM49.8772 194.747C49.897 194.846 49.9102 194.946 49.9102 194.939C49.8904 194.919 49.8838 194.833 49.8772 194.747ZM51.1922 197.989C51.1922 197.989 51.2318 198.035 51.2781 198.095C51.2252 198.035 51.1855 197.989 51.1922 197.989ZM63.0799 196.811C63.0799 196.811 63.0931 196.772 63.1196 196.719C63.0997 196.772 63.0799 196.818 63.0799 196.811ZM63.6614 194.582C63.6614 194.582 63.6614 194.648 63.6614 194.674C63.6284 195.283 63.5755 194.754 63.6614 194.582ZM63.6812 194.357C63.6812 194.43 63.6746 194.509 63.668 194.582C63.5359 194.787 63.483 195.587 63.4235 195.799C63.3575 196.044 63.2715 196.275 63.1922 196.514C63.1922 196.52 63.1724 196.573 63.1526 196.633C62.9411 197.049 62.7297 197.46 62.472 197.856C62.3927 197.976 62.0887 198.571 62.287 198.154C62.287 198.154 62.287 198.148 62.2936 198.141C62.287 198.148 62.2803 198.161 62.2737 198.167C62.1482 198.306 62.0292 198.452 61.9037 198.591C61.6196 198.902 61.3024 199.173 60.9918 199.464C60.9059 199.53 60.8068 199.616 60.7473 199.656C60.5292 199.808 60.298 199.947 60.0667 200.086C59.842 200.212 59.6107 200.331 59.3794 200.443C59.3662 200.443 59.3596 200.443 59.3464 200.45C58.8706 200.602 58.4015 200.747 57.9125 200.847C57.8001 200.814 57.4037 200.893 57.3111 200.9C57.0667 200.906 56.8222 200.906 56.5777 200.9C56.4323 200.9 56.0688 200.807 55.9036 200.84C55.6658 200.794 55.4279 200.741 55.1966 200.675C54.9984 200.622 54.7935 200.562 54.5953 200.496C54.4961 200.463 54.397 200.423 54.2979 200.39C53.9609 200.225 53.6239 200.066 53.3067 199.874C53.0953 199.749 52.8904 199.616 52.6922 199.477C52.6591 199.451 52.6261 199.431 52.593 199.405C52.2759 199.087 51.9256 198.809 51.6217 198.478C51.6019 198.452 51.4366 198.273 51.3243 198.141C51.245 198.028 51.1657 197.923 51.093 197.81C50.8551 197.453 50.6437 197.076 50.4521 196.692C50.4256 196.639 50.3992 196.593 50.3728 196.54C50.3728 196.52 50.3662 196.507 50.3595 196.487C50.2869 196.196 50.1679 195.912 50.0886 195.614C50.0093 195.316 49.9631 195.018 49.897 194.721C49.897 194.707 49.897 194.701 49.8904 194.688C49.8904 194.628 49.8904 194.582 49.8904 194.562C49.8441 193.947 49.897 193.345 49.9036 192.729C49.9036 192.703 49.9036 192.683 49.9036 192.67C49.9102 192.637 49.9234 192.597 49.93 192.571C49.9763 192.313 50.0358 192.055 50.0952 191.803C50.1679 191.506 50.2604 191.215 50.3595 190.923C50.3926 190.824 50.4322 190.732 50.4653 190.632C50.7362 190.156 50.9675 189.673 51.2714 189.217C51.3375 189.124 51.4036 189.031 51.4697 188.939C51.6745 188.621 51.2913 189.177 51.2913 189.157C51.3243 188.959 51.7274 188.648 51.8728 188.489C51.9256 188.436 52.3221 188.032 52.5864 187.794C52.5005 187.847 52.4675 187.867 52.6129 187.768C52.7252 187.669 52.8111 187.596 52.8177 187.609C52.8177 187.609 52.8111 187.629 52.7847 187.642C52.8243 187.616 52.864 187.583 52.9102 187.556C53.1085 187.417 53.3199 187.291 53.5248 187.172C53.7561 187.04 54.0005 186.921 54.2384 186.802C54.2649 186.795 54.2847 186.789 54.3111 186.775C54.7935 186.617 55.2759 186.471 55.7715 186.379C55.7913 186.379 55.8177 186.372 55.8376 186.365C56.0821 186.365 56.3398 186.326 56.5909 186.326C56.8222 186.326 57.06 186.326 57.2913 186.339C57.3442 186.339 57.3904 186.345 57.4433 186.352C57.7274 186.544 58.4675 186.564 58.7979 186.67C58.864 186.689 58.9367 186.716 59.0028 186.742C59.1217 186.835 59.538 186.981 59.6305 187.027C59.8817 187.159 60.1261 187.305 60.364 187.457C60.4565 187.516 60.5424 187.576 60.6284 187.636C60.7605 187.722 60.7936 187.735 60.7869 187.715C60.9389 187.854 61.0843 188.026 61.1504 188.085C61.3684 188.297 61.5799 188.515 61.7847 188.74C61.8442 188.813 61.9169 188.919 61.9962 189.025C62.016 189.025 62.0689 189.058 62.1416 189.17C62.1548 189.19 62.168 189.21 62.1812 189.23C62.2011 189.25 62.2209 189.27 62.2407 189.283C62.2209 189.27 62.2077 189.263 62.1944 189.25C62.2407 189.316 62.287 189.389 62.3332 189.455C62.624 189.898 62.8486 190.361 63.0997 190.831C63.0997 190.844 63.113 190.857 63.1196 190.87C63.1989 191.076 63.2649 191.287 63.331 191.499C63.4632 191.936 63.5425 192.372 63.6416 192.809C63.6482 192.882 63.6614 192.948 63.6614 192.961C63.6746 193.212 63.6945 193.464 63.6945 193.715C63.6945 193.927 63.6945 194.145 63.6812 194.357Z" fill="black"/>
<path d="M218.592 223.28C224.81 221.004 230.096 216.737 233.764 211.226C234.762 209.725 235.607 208.143 236.308 206.503C243.973 206.503 251.638 206.503 259.304 206.503C260.592 206.503 261.901 206.569 263.189 206.503C266.381 206.344 269.123 202.626 270.55 200.059C274.581 192.815 274.978 183.368 272.268 175.615C269.156 166.711 262.647 159.46 255.398 153.638C247.918 147.631 239.295 142.901 229.878 140.804C225.107 139.746 220.224 139.501 215.354 139.382C210.794 139.276 206.162 139.303 201.675 138.416C197.539 137.596 193.977 135.915 190.468 133.62C187.277 131.523 184.481 129.326 181.607 127.064C175.97 122.618 170.327 118.173 164.512 113.965C161.367 111.689 158.049 109.83 154.362 108.58C148.924 106.741 143.069 106.113 137.386 105.53C128.109 104.584 118.739 103.929 109.408 103.896C102.589 103.87 95.6833 104.234 89.0093 105.722C84.0929 106.82 79.4013 108.686 74.9079 110.955C69.7206 113.568 64.6853 116.499 59.5575 119.218C50.835 123.842 42.0794 128.718 32.6432 131.741C28.4802 133.077 24.2643 134.023 19.9955 134.242C15.9514 134.447 11.7884 133.693 7.81701 134.738C2.99318 136.008 0.356594 140.024 0.0328033 144.866C-0.139004 147.446 0.250867 150.079 0.462322 152.646C0.693602 155.471 0.931489 158.289 1.16277 161.114C1.6055 166.492 1.99537 171.877 2.5174 177.249C2.98657 182.111 3.62755 187.053 5.45135 191.618C7.99542 197.975 12.4294 203.089 19.0968 205.147C22.3083 206.139 25.7246 206.47 29.0947 206.569C30.4097 209.546 32.1872 212.324 34.434 214.792C38.3723 219.132 43.6521 222.327 49.3019 223.869C55.0046 225.423 61.2756 225.324 66.8461 223.28C73.0642 221.004 78.3506 216.737 82.018 211.226C82.9828 209.778 83.7956 208.256 84.4828 206.688C96.7076 206.688 108.932 206.695 121.157 206.688C134.307 206.688 147.457 206.668 160.607 206.622C167.34 206.595 174.074 206.562 180.807 206.516C182.122 209.513 183.913 212.298 186.166 214.785C190.105 219.125 195.385 222.321 201.034 223.862C206.737 225.417 213.008 225.317 218.579 223.273L218.592 223.28ZM205.905 218.146C205.905 218.146 205.845 218.146 205.812 218.14C205.396 218.093 205.686 218.12 205.905 218.146ZM206.017 218.159C206.017 218.159 206.063 218.166 206.07 218.173C206.057 218.173 206.037 218.173 206.017 218.159ZM217.468 216.664C217.468 216.664 217.647 216.605 217.759 216.558C217.647 216.618 217.535 216.678 217.468 216.664ZM264.795 174.689C259.508 174.887 254.539 173.432 250.099 170.349C249.061 169.628 248.07 168.808 247.072 167.65C246.967 167.524 246.854 167.399 246.755 167.266C246.735 167.233 246.702 167.194 246.669 167.141C246.484 166.856 246.292 166.572 246.127 166.281C246.041 166.135 245.969 165.983 245.889 165.831C245.876 165.804 245.823 165.685 245.79 165.626C245.652 165.268 245.539 164.891 245.453 164.514C245.42 164.369 245.387 164.21 245.367 164.064C245.367 164.031 245.367 163.985 245.367 163.932C245.367 163.608 245.367 163.29 245.381 162.973C245.381 162.953 245.381 162.927 245.394 162.9C245.42 162.748 245.453 162.602 245.493 162.45C245.533 162.298 245.572 162.139 245.625 161.987C245.632 161.954 245.704 161.756 245.751 161.636C245.81 161.524 245.949 161.226 245.929 161.253C246.002 161.114 246.081 160.975 246.167 160.836C246.253 160.704 246.339 160.571 246.431 160.439C246.372 160.525 246.154 160.743 246.478 160.38C246.689 160.148 246.907 159.923 247.138 159.705C247.158 159.685 247.218 159.639 247.264 159.606C247.396 159.513 247.528 159.427 247.66 159.348C247.773 159.281 247.898 159.235 248.004 159.162C248.024 159.162 248.037 159.156 248.063 159.149C248.414 159.056 248.757 158.964 249.101 158.878C249.134 158.871 249.154 158.865 249.18 158.858C249.385 158.838 249.583 158.818 249.788 158.805C250.138 158.785 250.482 158.792 250.832 158.805C250.984 158.812 251.143 158.825 251.295 158.838C251.321 158.838 251.328 158.838 251.341 158.838C251.546 159.01 251.757 159.176 251.962 159.348C257.011 163.588 261.96 168.629 264.795 174.695V174.689ZM246.768 167.28C246.828 167.359 246.881 167.452 246.768 167.28V167.28ZM245.367 164.15C245.367 164.19 245.367 164.203 245.367 164.15V164.15ZM245.394 162.88C245.414 162.755 245.447 162.602 245.394 162.88V162.88ZM13.784 157.713C14.0021 157.833 14.2069 157.965 14.4118 158.097C14.5638 158.196 15.1387 158.765 15.2246 158.904C15.2708 158.984 15.5351 159.513 15.5417 159.493C15.5946 159.658 15.6475 159.817 15.6871 159.989C15.7202 160.174 15.74 160.26 15.74 160.267C15.9052 161.676 15.5285 162.821 15.1453 164.243C14.4448 166.843 13.7576 169.549 12.1452 171.328C11.9602 171.533 11.7488 171.719 11.5505 171.917C11.4448 172.003 11.3853 172.049 11.3721 172.069C11.2796 172.135 11.1871 172.201 11.0946 172.261C10.8236 172.44 10.5395 172.585 10.2554 172.737C10.2025 172.764 10.1694 172.777 10.1364 172.79C10.0042 172.837 9.87209 172.889 9.73332 172.929C9.48222 173.009 9.22451 173.068 8.9668 173.114C8.99323 173.101 8.83464 173.101 8.66283 173.114C8.16062 167.756 7.82361 162.371 7.42053 157.012C8.76856 156.913 10.143 156.827 11.4844 157.012C11.8413 157.059 12.7069 157.277 13.2422 157.469C13.5197 157.575 13.5461 157.588 13.3347 157.502C13.48 157.575 13.632 157.647 13.7708 157.727L13.784 157.713ZM54.172 218.146C54.172 218.146 54.1125 218.146 54.0795 218.14C53.6632 218.093 53.9539 218.12 54.172 218.146ZM54.2843 218.159C54.2843 218.159 54.3306 218.166 54.3372 218.173C54.324 218.173 54.3042 218.173 54.2843 218.159ZM65.736 216.664C65.736 216.664 65.9144 216.605 66.0267 216.558C65.9144 216.618 65.8021 216.678 65.736 216.664ZM78.6876 203.632C78.6942 203.579 78.6678 203.585 78.5885 203.757C78.496 203.956 78.4101 204.154 78.3176 204.353C77.7427 205.577 77.0753 206.761 76.322 207.892C76.1369 208.17 75.9453 208.441 75.7537 208.712C75.6678 208.832 75.5753 208.951 75.4894 209.07C75.192 209.48 75.4629 209.129 75.5686 208.984C75.225 209.586 74.6039 210.148 74.1413 210.651C73.203 211.67 72.1854 212.616 71.1083 213.489C71.0752 213.515 70.6193 213.859 70.7646 213.753C70.7052 213.793 70.6589 213.826 70.6523 213.833C70.4012 214.018 70.1435 214.197 69.8858 214.369C69.2845 214.779 68.6633 215.156 68.0356 215.513C67.4474 215.844 66.8527 216.148 66.2382 216.433C66.1985 216.453 66.1391 216.486 66.0796 216.519C66.0465 216.532 65.9937 216.552 65.9144 216.585C65.5774 216.717 65.2338 216.85 64.8902 216.975C63.6743 217.412 62.4254 217.749 61.1566 217.994C60.8791 218.047 60.6082 218.087 60.3306 218.133C60.3373 218.133 60.3505 218.133 60.3571 218.133C60.3439 218.133 60.3306 218.133 60.3108 218.133C60.2447 218.146 60.1721 218.159 60.106 218.166C60.0399 218.179 60.0002 218.179 59.9672 218.173C59.954 218.173 59.9408 218.173 59.9342 218.173C59.2337 218.245 58.5333 218.292 57.8328 218.305C56.6302 218.331 55.4341 218.259 54.2381 218.133C54.1059 218.1 53.9407 218.093 53.8152 218.073C53.5046 218.02 53.2006 217.968 52.8901 217.908C52.2425 217.776 51.6015 217.624 50.9605 217.445C50.3922 217.286 49.8239 217.114 49.2689 216.916C48.9385 216.803 48.6147 216.684 48.2909 216.552C48.172 216.506 48.053 216.459 47.9407 216.413C47.9407 216.413 47.9341 216.413 47.9275 216.406C46.7843 215.877 45.6675 215.315 44.597 214.66C44.0618 214.329 43.5332 213.985 43.0243 213.621C42.7997 213.462 42.5882 213.297 42.3701 213.138C42.2314 213.019 42.086 212.907 41.9472 212.794C40.9494 211.961 40.0045 211.061 39.1322 210.095C38.9935 209.943 37.8305 208.739 37.8965 208.64C37.8965 208.64 38.3921 209.308 38.0221 208.805C37.9362 208.693 37.8503 208.58 37.771 208.461C37.5595 208.17 37.3547 207.879 37.1631 207.588C36.4031 206.457 35.7291 205.259 35.1542 204.022C35.1014 203.91 34.9428 203.539 34.9097 203.466C34.7974 203.182 34.6851 202.897 34.5793 202.613C34.2952 201.826 34.0441 201.019 33.8326 200.205C33.6344 199.431 33.4692 198.65 33.3304 197.87C33.304 197.698 33.271 197.519 33.2445 197.347C33.1718 196.891 33.1983 197.089 33.2247 197.274C33.152 196.857 33.1454 196.394 33.1124 195.978C32.9934 194.337 33.0132 192.69 33.1718 191.049C33.1917 190.87 33.2115 190.698 33.2247 190.52C33.2379 190.414 33.2445 190.348 33.2445 190.308C33.2842 190.01 33.3436 189.713 33.3965 189.422C33.5485 188.588 33.7335 187.768 33.9516 186.954C34.163 186.187 34.4009 185.419 34.6718 184.672C34.7908 184.341 34.923 184.01 35.0485 183.679C35.0485 183.666 35.0551 183.653 35.0617 183.64C35.0617 183.633 35.0683 183.626 35.0749 183.613C35.1873 183.375 35.293 183.13 35.4053 182.892C36.0727 181.49 36.8591 180.14 37.7512 178.863C37.923 178.612 38.108 178.367 38.2864 178.122C38.293 178.116 38.2996 178.109 38.3062 178.096C38.4054 177.97 38.5045 177.844 38.6036 177.725C39.0265 177.209 39.4626 176.713 39.9252 176.224C40.8239 175.271 41.8019 174.418 42.8063 173.584C42.9186 173.505 43.0243 173.419 43.1367 173.339C43.3944 173.154 43.6521 172.975 43.9164 172.797C44.4649 172.426 45.0332 172.082 45.6081 171.758C46.1499 171.454 46.6984 171.169 47.2601 170.905C47.3724 170.852 47.5178 170.806 47.6631 170.753C47.6896 170.72 47.7557 170.667 47.8812 170.62C47.9142 170.607 47.9539 170.594 47.9869 170.581C47.9869 170.581 48.0001 170.574 48.0068 170.567C48.0068 170.567 48.0001 170.574 47.9935 170.581C48.1125 170.534 48.2314 170.481 48.357 170.442C49.5596 169.985 50.8019 169.615 52.0574 169.344C52.5993 169.224 53.1412 169.152 53.683 169.046C53.7821 169.033 53.8746 169.026 53.9738 169.013C54.3108 168.98 54.6412 168.947 54.9782 168.927C56.2205 168.847 57.4694 168.861 58.7117 168.96C58.9496 168.98 59.1809 169.006 59.4121 169.033C59.3857 169.026 59.3725 169.019 59.3394 169.013C59.3857 169.026 59.4386 169.033 59.4848 169.039C59.5245 169.039 59.5707 169.046 59.6104 169.052C59.65 169.052 59.6897 169.066 59.7227 169.072C59.7227 169.072 59.7359 169.072 59.7425 169.072C60.4165 169.178 61.084 169.31 61.7381 169.476C62.8879 169.754 63.9981 170.124 65.1016 170.548C65.2139 170.627 65.4254 170.68 65.5311 170.726C65.8153 170.859 66.0994 170.991 66.3836 171.13C66.9849 171.427 67.573 171.752 68.1479 172.096C68.6699 172.407 69.1853 172.744 69.6809 173.088C69.899 173.24 70.421 173.505 70.5598 173.73C70.5334 173.683 69.9453 173.24 70.4144 173.617C70.5862 173.756 70.758 173.895 70.9298 174.034C71.9739 174.907 72.9453 175.86 73.8572 176.872C74.1215 177.17 74.3858 177.467 74.6369 177.778C74.8021 177.977 75.2713 178.738 74.855 178.036C75.225 178.665 75.7338 179.234 76.1369 179.849C76.9101 181.027 77.5973 182.264 78.1986 183.54C78.2647 183.679 78.3242 183.812 78.3837 183.951C78.3903 183.97 78.4431 184.083 78.4894 184.182C78.5092 184.228 78.529 184.268 78.5356 184.295C78.6017 184.467 78.6744 184.639 78.7405 184.817C78.9784 185.439 79.1898 186.074 79.3815 186.716C79.7647 187.986 80.0356 189.276 80.2537 190.586C80.2537 190.586 80.2537 190.573 80.2603 190.566C80.2603 190.566 80.2603 190.593 80.2603 190.619C80.2735 190.679 80.2801 190.738 80.2934 190.798C80.3066 190.884 80.3132 190.93 80.3066 190.956C80.3066 190.97 80.3066 190.996 80.3132 191.003C80.3462 191.327 80.3793 191.651 80.4057 191.982C80.4586 192.67 80.485 193.358 80.485 194.046C80.485 194.694 80.4652 195.349 80.4255 195.997C80.4057 196.289 80.3859 196.573 80.3528 196.857C80.333 197.036 80.3132 197.215 80.2934 197.393C80.2934 197.393 80.2934 197.393 80.2934 197.4C80.0357 198.703 79.8176 200 79.4343 201.277C79.3418 201.588 79.2295 201.892 79.1237 202.196C79.0841 202.295 79.0511 202.395 79.0246 202.494C78.9651 202.666 78.9123 202.844 78.8462 203.023C78.8132 203.116 78.7471 203.394 78.6612 203.618L78.6876 203.632ZM65.1875 170.581C65.1875 170.581 65.247 170.6 65.28 170.614C65.6831 170.772 65.3791 170.66 65.1875 170.581ZM143.294 200.059C141.153 200.059 139.005 200.059 136.864 200.059C137.571 199.219 138.272 198.386 138.979 197.545C139.408 197.029 139.706 196.487 139.706 195.792C139.706 195.184 139.435 194.456 138.979 194.039C138.51 193.603 137.889 193.285 137.228 193.312C136.607 193.338 135.893 193.543 135.477 194.039C133.805 196.031 132.126 198.022 130.455 200.013C130.441 200.033 130.428 200.046 130.415 200.066C128.446 200.066 126.47 200.066 124.501 200.066C126.919 197.34 129.344 194.615 131.763 191.889C132.622 190.917 132.787 189.322 131.763 188.383C130.825 187.516 129.179 187.344 128.261 188.383C124.91 192.154 121.56 195.931 118.21 199.702C118.111 199.815 118.018 199.94 117.932 200.073C116.049 200.073 114.159 200.073 112.276 200.073C112.276 200.073 112.283 200.066 112.289 200.059C114.384 197.856 116.479 195.66 118.567 193.457C119.459 192.518 119.571 190.87 118.567 189.951C117.595 189.058 116.016 188.945 115.065 189.951C112.97 192.154 110.875 194.35 108.78 196.553C108.728 196.606 108.694 196.666 108.648 196.725C104.604 183.944 101.703 170.693 100.144 157.508C99.6944 153.711 99.3508 149.894 99.1063 146.077C101.703 146.355 104.307 146.619 106.91 146.838C121.547 148.095 136.243 148.511 150.926 148.663C159.014 148.749 167.102 148.749 175.191 148.749C170.479 161.663 167.301 175.092 165.688 188.753C165.246 192.485 164.942 196.229 164.743 199.98C157.594 200.006 150.444 200.033 143.287 200.046L143.294 200.059ZM90.3639 138.429C89.9278 138.37 89.4851 138.31 89.0489 138.244C82.8242 137.371 76.6259 136.299 70.4739 135.042C70.8902 134.678 71.3131 134.314 71.7426 133.964C71.9541 133.785 72.1721 133.613 72.3836 133.441C72.4893 133.362 72.5885 133.276 72.6942 133.196C73.2559 132.786 73.8109 132.363 74.3792 131.966C75.4827 131.192 76.6127 130.458 77.7625 129.77C78.9057 129.088 80.0753 128.446 81.2647 127.858C81.7934 127.6 82.322 127.348 82.8573 127.11C83.0885 127.004 83.7824 126.726 83.1744 126.965C83.5048 126.832 83.8286 126.7 84.159 126.574C86.1612 125.807 88.2428 125.172 90.3639 124.821C90.4961 124.801 90.6348 124.781 90.7736 124.762C91.2758 124.702 91.778 124.649 92.2802 124.596C93.5291 124.477 94.7847 124.378 96.0402 124.299C96.3508 124.279 96.6547 124.265 96.9653 124.246C96.2582 129.161 95.5578 134.083 94.8507 138.998C94.5071 138.959 94.1569 138.919 93.8133 138.879C92.9212 138.767 92.0291 138.654 91.1371 138.542C90.9719 138.522 90.463 138.449 90.3705 138.436L90.3639 138.429ZM138.523 124.662C138.622 124.676 138.721 124.689 138.82 124.702C139.151 124.742 139.065 124.735 138.867 124.702C138.913 124.709 138.966 124.715 139.012 124.722C139.342 124.768 139.679 124.821 140.01 124.874C140.591 124.973 141.166 125.079 141.741 125.205C142.494 125.37 143.234 125.575 143.968 125.8C144.536 125.979 145.104 126.171 145.666 126.376C145.95 126.482 146.234 126.588 146.512 126.7C146.737 126.786 147.609 127.11 146.935 126.865C149.32 127.725 151.62 129.148 153.774 130.471C156.113 131.906 158.36 133.487 160.547 135.141C160.759 135.3 160.977 135.466 161.188 135.631C161.122 135.585 161.466 135.843 161.591 135.942C162.16 136.385 162.721 136.835 163.283 137.291C164.36 138.165 165.431 139.051 166.488 139.951C167.34 140.672 168.186 141.406 169.025 142.147C156.497 142.141 143.968 142.081 131.446 141.651C124.203 141.406 116.961 141.029 109.732 140.46C106.395 140.196 103.064 139.891 99.734 139.541C100.474 134.354 101.221 129.168 101.961 123.981C103.283 123.928 104.604 123.875 105.932 123.835C113.598 123.611 121.283 123.591 128.941 123.928C132.219 124.074 135.496 124.279 138.754 124.689C138.761 124.689 138.767 124.689 138.774 124.689C138.695 124.676 138.602 124.662 138.523 124.656V124.662ZM169.706 199.973C170.453 185.73 172.99 171.732 177.266 158.044C178.521 154.022 179.929 150.046 181.468 146.116C181.884 145.058 181.177 143.735 180.186 143.232C180.147 143.192 180.12 143.153 180.081 143.12C171.821 135.763 163.508 127.983 153.655 122.784C149.941 120.825 145.983 119.211 141.833 118.517C138.556 117.968 135.239 117.676 131.928 117.471C124.124 116.995 116.287 116.982 108.47 117.16C102.47 117.293 96.397 117.418 90.4366 118.186C80.5246 119.456 71.247 125.092 64.1104 131.913C63.1919 132.793 62.3064 133.712 61.454 134.658C61.4408 134.672 61.4342 134.685 61.4276 134.698C61.0377 135.075 60.7337 135.545 60.6082 136.12C60.5487 136.372 60.5289 136.63 60.5289 136.888C60.476 137.675 60.6941 138.462 61.2425 139.091C61.2954 139.164 61.3615 139.23 61.421 139.303C61.4342 139.316 61.4408 139.329 61.4606 139.342C61.4672 139.342 61.4738 139.355 61.4804 139.355C61.8571 139.752 62.3329 140.057 62.9144 140.189C73.2162 142.504 83.637 144.244 94.1173 145.521C95.0688 160.77 97.5864 175.933 101.677 190.652C102.556 193.821 103.507 196.963 104.531 200.086C104.379 200.086 104.227 200.086 104.069 200.086C98.2208 200.086 92.3727 200.086 86.5247 200.086C88.0511 191.936 86.3661 183.21 81.681 176.244C80.7361 174.834 79.6854 173.491 78.5555 172.221C74.5114 167.743 69.1193 164.395 63.2183 163.046C57.6478 161.769 51.6544 162.093 46.3217 164.197C40.4142 166.525 35.5111 170.508 31.9229 175.741C27.8524 181.681 25.9229 189.236 26.5374 196.408C26.6365 197.579 26.8017 198.736 27.0264 199.881C25.2158 199.755 23.4779 199.504 21.6079 199.001C20.9867 198.835 20.3788 198.644 19.7775 198.419C19.6519 198.372 19.4404 198.28 19.3545 198.24C19.1365 198.141 18.9184 198.042 18.707 197.929C18.218 197.678 17.7488 197.4 17.2929 197.096C17.088 196.957 16.8898 196.811 16.6915 196.672C17.2796 197.089 16.6387 196.619 16.4272 196.434C16.0704 196.117 15.7268 195.786 15.403 195.442C15.2113 195.237 15.0263 195.032 14.8479 194.82C14.7422 194.694 14.5902 194.502 14.5307 194.436C13.784 193.437 13.11 192.379 12.5285 191.274C10.7576 187.913 9.97782 184.03 9.48222 180.292C9.3831 179.551 9.29719 178.804 9.21129 178.056C10.5924 177.957 11.9536 177.534 13.2091 176.819C15.8259 175.324 17.4184 172.784 18.5285 170.058C19.6123 167.399 20.5109 164.349 20.7158 161.478C20.9405 158.269 19.4206 155.411 16.7312 153.704C13.8435 151.865 10.3479 151.872 7.05048 152.104C6.90511 150.456 6.75312 148.816 6.67383 147.168C6.60114 145.594 6.54167 143.933 7.38749 142.551C7.65842 142.108 7.35445 142.498 7.71128 142.147C7.82361 142.041 7.93595 141.929 8.04829 141.83C8.06811 141.816 8.10776 141.797 8.17384 141.757C8.28617 141.691 8.71569 141.459 8.78838 141.413C8.90072 141.38 9.43596 141.201 9.60777 141.155C9.74654 141.115 10.3677 140.989 10.48 140.956C10.5659 140.956 11.0946 140.89 11.2399 140.884C12.0527 140.824 12.8655 140.817 13.6783 140.831C17.392 140.89 20.9735 140.937 24.6674 140.421C28.4207 139.898 32.1013 138.965 35.6829 137.741C43.6455 135.036 51.1786 131.165 58.5994 127.249C63.8263 124.497 69.0069 121.685 74.1942 118.854C75.9717 117.888 77.7559 116.935 79.5797 116.056C80.4453 115.639 81.3176 115.242 82.2031 114.852C82.2295 114.838 82.2493 114.832 82.2691 114.819C82.289 114.812 82.3088 114.805 82.3286 114.792C82.5335 114.713 82.7383 114.627 82.9498 114.541C83.4388 114.349 83.9277 114.164 84.4167 113.985C86.3793 113.271 88.3881 112.682 90.4234 112.212C91.5203 111.961 92.6305 111.742 93.7406 111.55C94.3353 111.451 94.9234 111.359 95.5182 111.273C95.5644 111.266 95.5975 111.259 95.6305 111.253C95.6635 111.253 95.7098 111.246 95.7759 111.24C96.1195 111.2 96.4565 111.154 96.8001 111.12C103.342 110.393 109.957 110.439 116.525 110.704C124.243 111.015 131.981 111.544 139.653 112.417C140.353 112.496 141.047 112.582 141.748 112.668C141.833 112.682 141.893 112.688 141.933 112.688C141.966 112.688 142.019 112.702 142.085 112.708C142.422 112.754 142.765 112.801 143.102 112.854C144.292 113.032 145.481 113.224 146.664 113.456C148.554 113.82 150.43 114.263 152.261 114.858C152.994 115.096 153.708 115.394 154.428 115.652C154.587 115.725 154.752 115.798 154.911 115.87C155.241 116.023 155.571 116.188 155.895 116.353C157.21 117.028 158.466 117.802 159.688 118.636C163.428 121.183 167.03 123.994 170.598 126.766C176.155 131.073 181.521 135.704 187.429 139.541C190.455 141.505 193.66 143.159 197.142 144.158C200.988 145.263 205.032 145.653 209.017 145.845C213.021 146.037 217.039 145.991 221.043 146.255C224.823 146.5 228.504 147.155 232.132 148.28C236.955 149.775 241.555 152.018 245.797 154.783C242.744 156.251 240.814 159.367 240.464 162.748C240.074 166.499 242.169 170.018 244.845 172.473C247.647 175.046 251.07 176.938 254.652 178.175C258.445 179.485 262.568 179.961 266.559 179.545C267.887 184.619 267.676 189.746 265.766 194.86C265.475 195.647 264.649 197.235 263.89 198.3C263.817 198.405 263.784 198.458 263.764 198.478C263.751 198.491 263.705 198.531 263.605 198.644C263.394 198.882 263.182 199.113 262.958 199.338C262.76 199.537 262.542 199.722 262.33 199.907C254.321 199.907 246.312 199.907 238.303 199.907C239.77 191.81 238.072 183.163 233.42 176.244C232.475 174.834 231.425 173.491 230.295 172.221C226.25 167.743 220.858 164.395 214.957 163.046C209.387 161.769 203.393 162.093 198.061 164.197C192.153 166.525 187.25 170.508 183.662 175.741C179.592 181.681 177.662 189.236 178.277 196.408C178.376 197.598 178.547 198.776 178.772 199.94C175.752 199.96 172.739 199.973 169.719 199.987L169.706 199.973ZM216.92 170.581C216.92 170.581 216.979 170.6 217.013 170.614C217.416 170.772 217.112 170.66 216.92 170.581ZM200.03 216.572C199.911 216.525 199.792 216.479 199.68 216.433C199.68 216.433 199.673 216.433 199.667 216.426C198.523 215.897 197.407 215.335 196.336 214.68C195.801 214.349 195.272 214.005 194.763 213.641C194.539 213.482 194.327 213.317 194.109 213.158C193.97 213.039 193.825 212.927 193.686 212.814C192.689 211.98 191.744 211.081 190.871 210.115C190.733 209.963 189.57 208.759 189.636 208.66C189.636 208.66 190.131 209.328 189.761 208.825C189.675 208.712 189.589 208.6 189.51 208.481C189.299 208.19 189.094 207.899 188.902 207.608C188.142 206.476 187.468 205.279 186.893 204.042C186.84 203.929 186.682 203.559 186.649 203.486C186.536 203.202 186.424 202.917 186.318 202.633C186.034 201.846 185.783 201.038 185.572 200.225C185.374 199.451 185.208 198.67 185.07 197.889C185.043 197.717 185.01 197.539 184.984 197.367C184.911 196.91 184.937 197.109 184.964 197.294C184.891 196.877 184.885 196.414 184.851 195.997C184.733 194.357 184.752 192.71 184.911 191.069C184.931 190.89 184.951 190.718 184.964 190.54C184.977 190.434 184.984 190.374 184.984 190.328C185.023 190.03 185.083 189.726 185.136 189.441C185.288 188.608 185.473 187.788 185.691 186.974C185.902 186.206 186.14 185.439 186.411 184.692C186.53 184.361 186.662 184.03 186.788 183.699C186.788 183.686 186.794 183.673 186.801 183.66C186.801 183.653 186.807 183.646 186.814 183.633C186.926 183.395 187.032 183.15 187.144 182.912C187.812 181.509 188.598 180.16 189.49 178.883C189.662 178.632 189.847 178.387 190.026 178.142C190.032 178.136 190.039 178.129 190.045 178.116C190.144 177.99 190.244 177.864 190.343 177.745C190.766 177.229 191.202 176.733 191.664 176.244C192.563 175.291 193.541 174.437 194.545 173.604C194.658 173.525 194.763 173.439 194.876 173.359C195.133 173.174 195.391 172.995 195.656 172.817C196.204 172.446 196.772 172.102 197.347 171.778C197.889 171.474 198.437 171.189 198.999 170.925C199.111 170.872 199.257 170.825 199.402 170.773C199.429 170.739 199.495 170.686 199.62 170.64C199.653 170.627 199.693 170.614 199.726 170.6C199.726 170.6 199.739 170.594 199.746 170.587C199.746 170.587 199.739 170.594 199.733 170.6C199.852 170.554 199.971 170.501 200.096 170.462C201.299 170.005 202.541 169.635 203.797 169.363C204.338 169.244 204.88 169.172 205.422 169.066C205.521 169.052 205.614 169.046 205.713 169.033C206.05 169 206.38 168.966 206.717 168.947C207.96 168.867 209.209 168.88 210.451 168.98C210.689 169 210.92 169.026 211.151 169.052C211.125 169.046 211.112 169.039 211.079 169.033C211.125 169.046 211.178 169.052 211.224 169.059C211.264 169.059 211.31 169.066 211.349 169.072C211.389 169.072 211.429 169.086 211.462 169.092C211.462 169.092 211.475 169.092 211.482 169.092C212.156 169.198 212.816 169.33 213.477 169.496C214.627 169.774 215.737 170.144 216.841 170.567C216.953 170.647 217.165 170.7 217.27 170.746C217.554 170.878 217.839 171.011 218.123 171.15C218.724 171.447 219.312 171.771 219.887 172.115C220.409 172.426 220.924 172.764 221.42 173.108C221.638 173.26 222.16 173.525 222.299 173.749C222.272 173.703 221.684 173.26 222.154 173.637C222.325 173.776 222.497 173.915 222.669 174.054C223.713 174.927 224.684 175.88 225.596 176.892C225.861 177.19 226.125 177.487 226.376 177.798C226.541 177.997 227.01 178.757 226.594 178.056C226.964 178.685 227.473 179.254 227.876 179.869C228.649 181.046 229.336 182.283 229.938 183.56C230.004 183.699 230.063 183.832 230.123 183.97C230.129 183.99 230.182 184.103 230.229 184.209C230.248 184.255 230.262 184.295 230.275 184.321C230.341 184.493 230.414 184.665 230.48 184.844C230.717 185.466 230.929 186.101 231.121 186.742C231.504 188.013 231.775 189.303 231.993 190.612C231.993 190.612 231.993 190.599 231.999 190.593C231.999 190.593 231.999 190.619 231.999 190.645C232.013 190.705 232.019 190.765 232.032 190.824C232.046 190.917 232.052 190.956 232.046 190.983C232.046 190.996 232.046 191.023 232.052 191.029C232.085 191.353 232.118 191.677 232.145 192.008C232.198 192.696 232.224 193.384 232.224 194.072C232.224 194.721 232.204 195.376 232.165 196.024C232.145 196.315 232.125 196.599 232.092 196.884C232.072 197.063 232.052 197.241 232.032 197.42C232.032 197.42 232.032 197.42 232.032 197.426C231.775 198.73 231.557 200.026 231.173 201.303C230.995 201.892 230.803 202.474 230.585 203.05C230.552 203.142 230.486 203.42 230.4 203.645C230.407 203.592 230.38 203.599 230.301 203.771C230.209 203.969 230.123 204.168 230.03 204.366C229.455 205.59 228.788 206.774 228.035 207.905C227.85 208.183 227.658 208.454 227.466 208.726C227.38 208.845 227.288 208.964 227.202 209.083C226.905 209.493 227.176 209.142 227.281 208.997C226.938 209.599 226.317 210.161 225.854 210.664C224.916 211.683 223.898 212.629 222.821 213.502C222.788 213.529 222.325 213.873 222.477 213.767C222.418 213.806 222.372 213.839 222.365 213.846C222.114 214.031 221.856 214.21 221.598 214.382C220.997 214.792 220.376 215.169 219.748 215.526C219.16 215.857 218.565 216.161 217.951 216.446C217.911 216.466 217.852 216.499 217.792 216.532C217.759 216.545 217.706 216.565 217.627 216.598C217.29 216.73 216.946 216.863 216.603 216.988C215.387 217.425 214.138 217.762 212.869 218.007C212.592 218.06 212.321 218.1 212.043 218.146C212.05 218.146 212.063 218.146 212.07 218.146C212.057 218.146 212.043 218.146 212.023 218.146C211.957 218.159 211.885 218.173 211.819 218.179C211.753 218.192 211.713 218.192 211.68 218.186C211.667 218.186 211.653 218.186 211.647 218.186C210.946 218.259 210.246 218.305 209.546 218.318C208.343 218.345 207.147 218.272 205.951 218.146C205.819 218.113 205.653 218.106 205.528 218.087C205.217 218.034 204.913 217.981 204.603 217.921C203.955 217.789 203.314 217.637 202.673 217.458C202.105 217.299 201.537 217.127 200.982 216.929C200.651 216.816 200.327 216.697 200.004 216.565L200.03 216.572Z" fill="black"/>
<path d="M232.059 190.97C232.046 190.877 232.013 190.718 232.013 190.632C232.013 190.626 232.013 190.613 232.013 190.606C231.954 190.745 232.053 191.076 232.066 190.97H232.059Z" fill="black"/>
<path d="M211.707 218.18C211.806 218.166 211.958 218.133 212.051 218.133C212.051 218.133 212.064 218.133 212.071 218.133C211.734 218.061 211.562 218.173 211.714 218.18H211.707Z" fill="black"/>
<path d="M211.47 169.079C211.39 169.066 211.311 169.059 211.232 169.046C211.205 169.046 211.179 169.046 211.152 169.04C211.701 169.192 211.648 169.119 211.47 169.079Z" fill="black"/>
<path d="M199.727 170.594C199.727 170.594 199.727 170.594 199.72 170.594C199.634 170.667 199.522 170.72 199.396 170.766C199.343 170.832 199.476 170.826 199.733 170.587L199.727 170.594Z" fill="black"/>
<path d="M214.025 198.134C214.111 198.015 214.164 197.843 214.025 198.134V198.134Z" fill="black"/>
<path d="M204.379 187.722C204.379 187.722 204.352 187.741 204.339 187.748C204.332 187.755 204.319 187.768 204.312 187.774C204.379 187.728 204.471 187.669 204.517 187.629C204.471 187.662 204.425 187.695 204.379 187.722Z" fill="black"/>
<path d="M213.927 189.243C213.927 189.243 213.921 189.23 213.914 189.223C213.855 189.17 213.789 189.097 213.729 189.018C213.703 189.025 213.756 189.131 213.927 189.243Z" fill="black"/>
<path d="M219.787 201.376C221.406 198.974 222.232 195.845 222.001 192.961C221.737 189.587 220.422 186.597 218.195 184.057C214.646 180.18 208.864 178.579 203.908 180.53C198.265 182.747 194.485 188.555 195.014 194.681C195.51 200.483 199.422 205.438 205.071 207.019C210.721 208.6 216.549 206.172 219.787 201.376ZM214.812 196.811C214.812 196.811 214.825 196.772 214.851 196.712C214.831 196.765 214.812 196.811 214.812 196.811ZM215.4 194.582C215.4 194.582 215.4 194.648 215.4 194.674C215.367 195.283 215.314 194.754 215.4 194.582ZM212.433 187.629C212.353 187.569 212.254 187.503 212.215 187.497C212.268 187.497 212.347 187.556 212.433 187.629ZM210.761 186.736C210.814 186.756 210.867 186.775 210.919 186.789C211.316 186.921 210.919 186.822 210.761 186.736ZM209.182 186.339C209.228 186.339 209.274 186.345 209.327 186.352C209.908 186.392 209.373 186.438 209.182 186.339ZM201.609 194.747C201.629 194.846 201.642 194.946 201.642 194.939C201.622 194.919 201.615 194.833 201.609 194.747ZM202.924 197.989C202.924 197.989 202.963 198.035 203.01 198.095C202.957 198.035 202.917 197.989 202.924 197.989ZM204.417 199.464C204.384 199.438 204.351 199.418 204.318 199.391C204.001 199.074 203.651 198.796 203.347 198.465C203.327 198.439 203.162 198.26 203.049 198.128C202.97 198.015 202.891 197.909 202.818 197.797C202.58 197.44 202.369 197.063 202.177 196.679C202.151 196.626 202.124 196.58 202.098 196.527C202.098 196.507 202.091 196.494 202.085 196.474C202.012 196.183 201.893 195.898 201.814 195.601C201.734 195.303 201.688 195.005 201.622 194.707C201.622 194.694 201.622 194.688 201.615 194.674C201.615 194.615 201.615 194.569 201.615 194.549C201.569 193.933 201.622 193.331 201.629 192.716C201.629 192.69 201.629 192.67 201.629 192.657C201.635 192.624 201.648 192.584 201.655 192.557C201.701 192.299 201.761 192.041 201.82 191.79C201.893 191.492 201.986 191.201 202.085 190.91C202.118 190.811 202.157 190.718 202.19 190.619C202.461 190.143 202.693 189.66 202.997 189.203C203.063 189.111 203.129 189.018 203.195 188.926C203.4 188.608 203.016 189.164 203.016 189.144C203.049 188.945 203.452 188.634 203.598 188.476C203.651 188.423 204.047 188.019 204.305 187.781C204.219 187.834 204.186 187.854 204.331 187.755C204.444 187.655 204.53 187.583 204.536 187.596C204.536 187.596 204.53 187.616 204.503 187.629C204.543 187.602 204.582 187.569 204.629 187.543C204.827 187.404 205.038 187.278 205.243 187.159C205.475 187.027 205.719 186.908 205.957 186.789C205.983 186.782 206.003 186.775 206.03 186.762C206.512 186.603 206.994 186.458 207.49 186.365C207.51 186.365 207.536 186.359 207.556 186.352C207.801 186.352 208.058 186.312 208.309 186.312C208.541 186.312 208.778 186.312 209.01 186.326C209.063 186.326 209.109 186.332 209.162 186.339C209.446 186.531 210.186 186.551 210.516 186.656C210.582 186.676 210.655 186.703 210.721 186.729C210.84 186.822 211.256 186.967 211.349 187.014C211.6 187.146 211.845 187.291 212.076 187.444C212.168 187.503 212.254 187.563 212.34 187.622C212.472 187.708 212.505 187.722 212.499 187.702C212.651 187.841 212.796 188.013 212.862 188.072C213.08 188.284 213.292 188.502 213.497 188.727C213.556 188.8 213.629 188.906 213.708 189.012C213.728 189.012 213.781 189.045 213.853 189.157C213.867 189.177 213.88 189.197 213.893 189.217C213.913 189.236 213.933 189.256 213.953 189.27C213.933 189.256 213.92 189.25 213.906 189.236C213.953 189.303 213.999 189.375 214.045 189.442C214.336 189.885 214.56 190.348 214.812 190.818C214.812 190.831 214.825 190.844 214.831 190.857C214.911 191.062 214.977 191.274 215.043 191.486C215.175 191.922 215.254 192.359 215.353 192.796C215.36 192.868 215.373 192.935 215.373 192.948C215.386 193.199 215.406 193.451 215.406 193.702C215.406 193.914 215.406 194.132 215.393 194.344C215.393 194.416 215.386 194.496 215.38 194.569C215.248 194.774 215.195 195.574 215.135 195.786C215.069 196.031 214.983 196.262 214.904 196.5C214.904 196.507 214.884 196.56 214.864 196.619C214.653 197.036 214.442 197.446 214.184 197.843C214.105 197.962 213.801 198.558 213.999 198.141C213.999 198.141 213.999 198.134 214.005 198.128C213.999 198.134 213.992 198.148 213.986 198.154C213.86 198.293 213.741 198.439 213.616 198.578C213.331 198.888 213.008 199.16 212.704 199.451C212.618 199.517 212.519 199.603 212.459 199.643C212.241 199.795 212.01 199.934 211.779 200.073C211.554 200.198 211.323 200.317 211.091 200.43C211.078 200.43 211.071 200.43 211.058 200.437C210.582 200.589 210.113 200.734 209.624 200.833C209.512 200.8 209.116 200.88 209.023 200.886C208.779 200.893 208.534 200.893 208.29 200.886C208.144 200.886 207.781 200.794 207.615 200.827C207.378 200.781 207.14 200.728 206.908 200.661C206.71 200.609 206.505 200.549 206.307 200.483C206.208 200.45 206.109 200.41 206.01 200.377C205.673 200.212 205.336 200.053 205.019 199.854C204.807 199.729 204.602 199.596 204.404 199.457L204.417 199.464Z" fill="black"/>
<path d="M119.644 158.686C117.239 158.792 114.827 158.898 112.421 159.004C111.126 159.063 109.884 160.102 109.943 161.485C110.003 162.781 111.034 164.025 112.421 163.965C114.827 163.859 117.239 163.754 119.644 163.648C120.939 163.588 122.181 162.55 122.122 161.167C122.062 159.87 121.032 158.627 119.644 158.686Z" fill="black"/>
<path d="M138.821 124.702C138.821 124.702 138.794 124.702 138.781 124.702C138.814 124.702 138.841 124.709 138.867 124.715C138.854 124.715 138.834 124.715 138.821 124.715V124.702Z" fill="black"/>
<path d="M113.551 84.295C122.155 88.1849 131.684 89.2963 140.955 87.4373C149.604 85.7041 157.719 81.1658 163.818 74.7951C169.97 68.3715 174.219 60.0491 175.554 51.2373C175.911 48.8954 176.129 46.5469 176.135 44.1785C176.109 35.1682 173.36 26.1645 168.127 18.8147C162.853 11.4119 155.565 5.79537 147.041 2.64639C138.444 -0.53567 128.73 -0.826752 119.921 1.68053C111.47 4.08857 103.705 9.10312 98.1217 15.9039C92.2538 23.0486 88.7317 31.7083 88.0114 40.9369C87.3044 49.9737 89.5313 59.2487 94.2229 67.002C98.756 74.4908 105.569 80.6829 113.551 84.295ZM146.333 78.9364C146.333 78.9364 146.439 78.8967 146.538 78.8504C146.472 78.8835 146.4 78.9232 146.333 78.9364ZM161.644 67.2667C161.717 67.1674 161.836 67.0087 161.836 67.0153C161.823 67.0748 161.723 67.1807 161.644 67.2667ZM166.64 58.7459C166.686 58.64 166.732 58.5143 166.732 58.521C166.719 58.5937 166.679 58.6731 166.64 58.7459ZM169.21 49.3452C169.191 49.5239 169.197 49.4643 169.21 49.3452V49.3452ZM161.836 21.3418C161.836 21.3418 161.723 21.1897 161.644 21.0904C161.717 21.1698 161.816 21.2823 161.836 21.3418ZM146.618 9.53975C146.499 9.49344 146.327 9.42067 146.333 9.42067C146.419 9.4339 146.525 9.48682 146.618 9.53975ZM137.287 6.95308C137.287 6.95308 137.062 6.92001 136.944 6.90678C137.062 6.90678 137.221 6.92001 137.287 6.95308ZM94.6194 40.9436C94.6591 40.4143 94.7119 39.8785 94.778 39.3492C94.778 39.3029 94.7912 39.2632 94.7912 39.2169C94.8375 38.9589 94.8639 38.6877 94.9102 38.4297C95.082 37.391 95.2868 36.3656 95.5379 35.3468C96.0203 33.3688 96.6943 31.4702 97.4146 29.5715C97.4344 29.5252 97.4542 29.4855 97.4741 29.4392C97.5798 29.2076 97.6789 28.9695 97.7913 28.7379C98.0027 28.2749 98.2274 27.8118 98.4587 27.3619C98.9212 26.4556 99.4102 25.5625 99.9389 24.6959C100.448 23.8623 100.983 23.042 101.545 22.2415C101.802 21.8777 102.1 21.2889 102.443 21.0177C102.45 21.011 102.02 21.5403 102.258 21.2624C102.331 21.183 102.39 21.0904 102.463 21.011C102.642 20.7861 102.827 20.5612 103.012 20.3429C104.307 18.7948 105.714 17.3394 107.221 15.9965C107.571 15.6856 107.928 15.3812 108.285 15.0769C108.476 14.9182 108.675 14.7528 108.873 14.6006C108.926 14.5609 108.979 14.5146 109.031 14.4749C109.824 13.8928 110.624 13.3106 111.45 12.7681C113.122 11.6766 114.88 10.7107 116.697 9.87714C116.928 9.77129 117.166 9.66544 117.397 9.56621C117.424 9.55298 117.437 9.54636 117.463 9.53975C117.483 9.53313 117.496 9.52652 117.523 9.5199C117.998 9.33467 118.474 9.14282 118.963 8.9642C119.935 8.61358 120.919 8.29603 121.91 8.01818C122.915 7.74033 123.932 7.49556 124.957 7.29048C125.432 7.19786 125.915 7.11186 126.397 7.03247C126.615 6.99939 126.84 6.97293 127.065 6.93324C127.151 6.92001 127.236 6.91339 127.322 6.90016C129.463 6.65539 131.624 6.576 133.778 6.66862C134.809 6.71493 135.84 6.79431 136.864 6.91339C136.884 6.91339 136.911 6.91339 136.944 6.91339C136.963 6.91339 136.97 6.91339 136.996 6.92001C137.254 6.9597 137.518 6.99939 137.776 7.03909C138.292 7.12509 138.814 7.2177 139.329 7.32355C141.364 7.73371 143.367 8.30926 145.309 9.03035C145.759 9.19574 146.195 9.38097 146.644 9.55298C146.671 9.55959 146.677 9.56621 146.697 9.57283C146.717 9.58606 146.75 9.59929 146.763 9.6059C146.994 9.71175 147.232 9.81098 147.463 9.92345C148.389 10.3535 149.294 10.8165 150.186 11.3061C151.071 11.8023 151.944 12.3249 152.789 12.8872C153.179 13.1452 153.569 13.4098 153.952 13.6811C154.157 13.8266 154.362 13.9788 154.567 14.1243C154.693 14.2169 155.386 14.7726 155.01 14.4551C154.633 14.1309 155.175 14.5874 155.267 14.6668C155.466 14.8255 155.657 14.9843 155.856 15.1497C156.245 15.4739 156.622 15.8046 156.999 16.142C157.745 16.8168 158.472 17.518 159.173 18.2524C159.873 18.9801 160.541 19.7342 161.188 20.5149C161.327 20.6803 161.466 20.8523 161.598 21.0177C161.611 21.0309 161.631 21.0573 161.657 21.0838C161.664 21.097 161.671 21.097 161.677 21.1169C161.994 21.5601 162.325 21.9835 162.635 22.4268C163.779 24.0608 164.803 25.7808 165.695 27.5604C165.906 27.9838 166.111 28.4138 166.309 28.8438C166.415 29.0753 166.521 29.3135 166.62 29.545C166.633 29.5781 166.646 29.6046 166.66 29.631C166.673 29.6641 166.693 29.7104 166.713 29.77C167.076 30.6961 167.42 31.6223 167.724 32.5749C168.365 34.5662 168.847 36.6038 169.171 38.6678C169.204 38.8928 169.224 39.1177 169.27 39.3426C169.085 38.4231 169.257 39.2434 169.283 39.4815C169.342 39.9711 169.389 40.4672 169.428 40.9634C169.514 42.0417 169.554 43.1201 169.554 44.1984C169.554 45.2767 169.514 46.3617 169.428 47.4334C169.389 47.9295 169.342 48.4191 169.283 48.9152C169.276 48.9946 169.263 49.074 169.257 49.16C169.21 49.418 169.184 49.6893 169.138 49.9473C168.807 51.9716 168.325 53.9695 167.697 55.9211C167.38 56.9002 167.003 57.8594 166.633 58.8187C166.633 58.8187 166.633 58.8253 166.627 58.8319C166.521 59.0634 166.422 59.3016 166.316 59.5331C166.105 59.9962 165.88 60.4593 165.655 60.9158C164.743 62.7284 163.693 64.4749 162.516 66.1288C162.246 66.5125 161.961 66.883 161.684 67.2667C161.671 67.2799 161.671 67.2865 161.664 67.2931C161.638 67.3196 161.618 67.346 161.605 67.3659C161.426 67.5908 161.241 67.8158 161.056 68.0341C160.435 68.7816 159.781 69.5093 159.107 70.2106C158.406 70.9383 157.679 71.6395 156.926 72.3143C156.576 72.6252 156.226 72.9361 155.862 73.2338C155.671 73.3926 155.472 73.558 155.274 73.7168C155.195 73.7763 155.116 73.8425 155.043 73.902C153.45 75.073 151.825 76.1711 150.1 77.1304C149.208 77.6265 148.296 78.083 147.371 78.5064C147.14 78.6123 146.902 78.7181 146.671 78.8173C146.671 78.8173 146.657 78.8173 146.657 78.824C146.142 79.0092 145.633 79.2341 145.118 79.4193C143.201 80.114 141.232 80.6697 139.237 81.0666C138.761 81.1658 138.278 81.2518 137.796 81.3312C137.565 81.3709 137.333 81.404 137.102 81.4371C136.99 81.4503 136.877 81.4635 136.765 81.4768C135.741 81.5959 134.71 81.6752 133.679 81.7149C131.525 81.8009 129.371 81.7149 127.23 81.4635C127.157 81.4569 127.091 81.4437 127.018 81.4371C126.82 81.404 126.622 81.3775 126.424 81.3445C125.869 81.2585 125.314 81.1526 124.758 81.0401C123.774 80.8417 122.796 80.6035 121.831 80.3323C120.84 80.0544 119.855 79.7303 118.884 79.3797C118.435 79.2143 117.992 79.0356 117.549 78.8636C117.523 78.857 117.509 78.8504 117.49 78.8372C117.47 78.8306 117.45 78.8173 117.43 78.8107C117.166 78.6916 116.895 78.5726 116.631 78.4535C114.82 77.6133 113.069 76.6408 111.397 75.5493C110.974 75.2714 110.558 74.987 110.142 74.6959C109.772 74.4379 109.19 74.1534 108.919 73.7962C108.919 73.7896 109.441 74.2129 109.164 73.9814C109.051 73.8888 108.939 73.8028 108.827 73.7102C108.655 73.5712 108.49 73.4389 108.324 73.3C107.908 72.956 107.498 72.5988 107.095 72.2349C105.622 70.9052 104.247 69.4762 102.979 67.9481C102.82 67.7562 102.655 67.5577 102.503 67.3593C102.437 67.2733 102.371 67.1873 102.298 67.1079C102.067 66.8234 102.49 67.3527 102.483 67.3527C102.106 67.0682 101.789 66.4265 101.518 66.0428C100.937 65.2159 100.382 64.3625 99.8595 63.4958C99.3573 62.6557 98.8816 61.7956 98.4388 60.9158C98.2076 60.4593 97.9895 60.0028 97.778 59.5331C97.6855 59.3347 97.5996 59.1362 97.5071 58.9311C97.4939 58.9047 97.4741 58.865 97.4609 58.8319C97.4543 58.8054 97.4344 58.7657 97.4146 58.7062C96.6547 56.7745 96.0071 54.8163 95.5247 52.7985C95.2934 51.8128 95.0952 50.8205 94.9366 49.8216C94.9036 49.6033 94.7648 49.246 94.8177 49.0343C94.8177 49.0277 94.9036 49.7356 94.8639 49.3519C94.8507 49.2394 94.8375 49.1269 94.8243 49.0145C94.7582 48.4455 94.7053 47.8766 94.6591 47.3077C94.5005 45.1907 94.5005 43.0605 94.6657 40.9502L94.6194 40.9436Z" fill="black"/>
<path d="M124.077 60.4525C124.137 60.4723 124.19 60.4988 124.249 60.512C124.249 60.512 124.262 60.512 124.269 60.512C124.209 60.4922 124.137 60.4657 124.051 60.4326C124.057 60.4326 124.071 60.4392 124.077 60.4459V60.4525Z" fill="black"/>
<path d="M101.168 47.1686C101.823 48.3462 102.761 49.2988 103.693 50.2448C106.765 53.374 109.838 56.5031 112.977 59.5727C114.616 61.1803 116.261 62.8011 118.045 64.2565C119.314 65.2885 120.53 66.1816 122.069 66.7571C125.195 67.9148 128.691 66.9556 131.4 65.2091C133.838 63.6412 135.986 61.597 138.186 59.7116C140.426 57.7865 142.666 55.8614 144.907 53.9363C149.175 50.2713 153.504 46.6725 157.706 42.9413C159.708 41.1617 161.545 39.1109 162.418 36.5309C163.237 34.1162 162.794 31.1723 161.407 29.0487C160.64 27.8712 159.623 26.8722 158.387 26.2041C152.631 23.4917 147.761 27.8646 143.44 31.1789C139.059 34.5396 134.677 37.9069 130.422 41.4264C128.948 42.6502 127.495 43.9005 126.061 45.1641C123.074 42.4187 120.133 39.6335 117.034 37.0204C114.787 35.1284 112.197 33.6267 109.171 33.6002C106.693 33.5804 104.102 34.6388 102.358 36.4052C100.626 38.1517 99.6683 40.7185 99.9459 43.1728C100.104 44.6018 100.468 45.8984 101.175 47.162L101.168 47.1686ZM106.686 43.4838C106.712 43.5433 106.745 43.6227 106.792 43.7219C106.759 43.7285 106.726 43.6227 106.686 43.4838ZM155.208 36.1075C155.275 36.0281 155.334 35.9421 155.4 35.8627C155.341 35.9619 155.268 36.0744 155.208 36.1075ZM155.968 34.9696C156.015 34.8638 156.054 34.7513 156.1 34.6455C156.067 34.7778 156.028 34.9167 155.968 34.9696ZM155.744 32.4226C155.711 32.383 155.684 32.3433 155.638 32.2903C155.658 32.2903 155.697 32.3433 155.744 32.4226ZM155.612 32.244C155.552 32.1977 155.493 32.158 155.44 32.1117C155.539 32.1713 155.618 32.2242 155.612 32.244ZM107.433 40.7119C107.294 40.8177 107.221 40.8773 107.168 40.917C107.268 40.8177 107.367 40.7185 107.433 40.7119ZM107.142 40.9434C107.142 40.9434 107.215 40.8971 107.314 40.831C107.426 40.7582 107.545 40.692 107.657 40.6193C107.743 40.573 108.001 40.4803 108.127 40.3943C108.199 40.3745 108.265 40.348 108.338 40.3282C108.444 40.3017 108.728 40.2753 108.867 40.2157C109.071 40.2091 109.27 40.2157 109.475 40.2157C109.547 40.2289 109.613 40.2422 109.686 40.2554C109.911 40.3083 110.129 40.3877 110.36 40.4473C110.413 40.4671 110.446 40.4803 110.479 40.4936C110.558 40.5333 110.644 40.573 110.723 40.6126C110.968 40.7383 111.206 40.8773 111.437 41.0228C111.523 41.0757 112.237 41.5917 112.111 41.4793C116.175 44.7076 119.836 48.4785 123.702 51.9384C125.076 53.1689 126.999 53.202 128.373 51.9384C132.959 47.7177 137.823 43.8146 142.739 39.9908C143.037 39.7592 143.334 39.5277 143.631 39.2962C143.737 39.2168 144.041 38.9786 144.094 38.9389C144.774 38.4163 145.455 37.8937 146.136 37.371C147.418 36.3853 148.7 35.3996 149.982 34.4139C151.039 33.6002 152.122 32.8593 153.312 32.2639C153.391 32.2374 153.722 32.0919 153.794 32.072C153.867 32.0522 154.092 31.9728 154.27 31.9066C154.376 31.8934 154.581 31.8736 154.739 31.8537C154.937 31.9066 155.241 32.0191 155.301 32.0323C155.327 32.0456 155.347 32.0588 155.374 32.072C155.453 32.1448 155.532 32.211 155.605 32.2903C155.658 32.3433 155.704 32.3962 155.75 32.4491C155.763 32.469 155.77 32.4756 155.783 32.4888C155.869 32.6343 155.962 32.8196 155.975 32.846C155.988 32.8593 155.995 32.8725 156.001 32.8857C156.061 33.0842 156.114 33.2893 156.173 33.4877C156.173 33.501 156.18 33.5142 156.186 33.5274C156.186 33.6597 156.186 34.0104 156.186 34.2088C156.18 34.2551 156.173 34.3015 156.16 34.3411C156.147 34.4073 156.12 34.5264 156.094 34.6388C156.028 34.7844 155.955 34.9233 155.876 35.0622C155.757 35.2805 155.625 35.4922 155.486 35.6973C155.46 35.737 155.426 35.7966 155.387 35.8561C155.281 35.9818 155.175 36.1141 155.063 36.2398C154.66 36.6963 154.23 37.1329 153.788 37.5497C152.037 39.2102 150.14 40.7317 148.31 42.3062C146.321 44.0196 144.325 45.7264 142.336 47.4398C138.285 50.9196 134.248 54.4192 130.177 57.8791C129.966 58.0577 129.754 58.2364 129.536 58.415C129.497 58.4481 129.279 58.6201 129.166 58.7127C128.843 58.9574 128.512 59.1956 128.169 59.4205C127.699 59.7248 127.21 59.9828 126.728 60.2541C126.682 60.2805 126.649 60.3004 126.616 60.3202C126.589 60.3269 126.556 60.3335 126.523 60.3467C126.186 60.4525 125.843 60.5452 125.506 60.6378C125.479 60.6444 125.459 60.651 125.433 60.6576C125.406 60.6576 125.38 60.6576 125.34 60.6576C125.182 60.651 124.97 60.6841 124.785 60.6775C124.759 60.6642 124.726 60.6576 124.693 60.6444C124.547 60.6047 124.402 60.5782 124.257 60.5319C124.6 60.6642 124.395 60.6312 124.065 60.4658C123.966 60.4327 123.873 60.3996 123.774 60.3665C123.88 60.3996 123.959 60.4261 124.039 60.4525C124.019 60.4459 124.006 60.4327 123.986 60.4261C123.576 60.2078 123.193 59.9431 122.816 59.6719C122.77 59.6322 122.724 59.5991 122.671 59.5595C122.367 59.3147 122.069 59.0567 121.779 58.7987C121.019 58.1371 120.285 57.4491 119.558 56.7611C117.206 54.5251 114.913 52.2162 112.627 49.9074C110.968 48.2403 109.323 46.56 107.671 44.8863C107.505 44.7209 107.347 44.5489 107.188 44.3769C107.188 44.3769 107.182 44.3703 107.175 44.3636C107.168 44.3504 107.162 44.3372 107.149 44.3173C107.036 44.1255 106.911 43.9402 106.805 43.7418C106.772 43.6756 106.739 43.6095 106.706 43.5433C106.686 43.497 106.679 43.4772 106.66 43.4507C106.6 43.2125 106.547 42.8818 106.501 42.6833C106.514 42.4981 106.554 42.1607 106.527 42.0085C106.547 41.9225 106.574 41.8431 106.6 41.7571C106.679 41.6116 106.785 41.3734 106.812 41.3205C106.831 41.2874 106.838 41.2808 106.858 41.2543C106.884 41.2213 106.911 41.1882 106.937 41.1617C106.977 41.122 107.049 41.036 107.129 40.9434H107.142Z" fill="black"/>
</g>
<defs>
<clipPath id="clip0_691_5522">
<rect width="274" height="250" fill="white"/>
</clipPath>
</defs>
</svg>
